<svg id="Logotype" xmlns="http://www.w3.org/2000/svg" viewBox="0 0 452.59 125.13"><defs><style>.cls-1{fill:#ffffff;}</style></defs><path class="cls-1" d="M60.43,19.61A11.91,11.91,0,0,0,72.34,7.7h-6a6,6,0,0,1-11.92,0H48.52A11.92,11.92,0,0,0,60.43,19.61Z" transform="translate(-6.84 -3.7)"/><polygon class="cls-1" points="41.69 63.54 41.69 57.59 35.73 57.59 41.69 63.54"/><polygon class="cls-1" points="47.64 63.54 47.64 57.59 41.69 57.59 47.64 63.54"/><polygon class="cls-1" points="29.77 63.54 29.77 57.59 23.82 57.59 29.77 63.54"/><polygon class="cls-1" points="35.73 63.54 35.73 57.59 29.77 57.59 35.73 63.54"/><polygon class="cls-1" points="47.64 69.5 47.64 63.54 41.69 63.54 47.64 69.5"/><polygon class="cls-1" points="27.23 51.63 27.23 48.23 23.82 48.23 23.82 51.63 23.82 51.63 29.77 57.59 29.77 51.63 27.23 51.63"/><polygon class="cls-1" points="35.73 63.54 41.69 69.5 41.69 63.54 35.73 63.54"/><polygon class="cls-1" points="47.64 75.45 47.64 69.5 41.69 69.5 47.64 75.45"/><rect class="cls-1" x="34.92" y="27.28" width="1.87" height="1.87" transform="translate(-16.29 29.88) rotate(-44.96)"/><polygon class="cls-1" points="35.73 69.5 41.69 75.45 41.69 69.5 35.73 69.5"/><path class="cls-1" d="M78.29,7.7a17.86,17.86,0,0,1-35.72,0h-8.7l2,2,.78-.78c0,.58.08,1.15.14,1.71l-.92-.93L34.53,11l1.33,1.33,1-1a22.2,22.2,0,0,0,.55,2.6l-1.57-1.57L29.23,19l2.65,2.65,2-2H31.19l2-1.94,2,2-3.31,3.31,4,4,4-4-3.3-3.31,2-2,.5.5c.23.49.49,1,.76,1.44h-2l2,2,.75-.75a21.06,21.06,0,0,0,1.71,2.27l-4.44,4.43,2.65,2.65,2-2H39.8l2-1.94,2,2-3.31,3.3H37.83l-2-2-2,2h-2.7l-3.31-3.3,2-2,1.94,1.94H29.16l2,2,2.64-2.65-6.62-6.62-6.62,6.62,2.65,2.65,2-2H22.55l2-1.94,2,2-3.3,3.3H25.9l1.31-1.31,1.32,1.31h2.13v17h6.8v6.81h-.85l6,5.95V55.34h0l6,5.95V55.34h0l6,5.95V31.51h-6l-3.31-3.3,1.28-1.27a21.2,21.2,0,0,0,1.85,1.23H46.4l2,2L49.68,29A23.84,23.84,0,0,0,84.25,7.7ZM37.18,22.92l-1.32,1.32-1.33-1.32,1.33-1.32Zm-1.32-5.29L34.53,16.3,35.86,15l1.32,1.33Zm-10,7.27,1.32-1.32,1.33,1.32-1.33,1.33Zm17.25,0,.4-.4c.45.44.9.86,1.38,1.28l-.46.45Zm7.93,10v17H40.87V41.73h6.8V38.32H37.46v6.8h-3.4V34.92Zm-5.29-3.41H43.15l1.31-1.31Z" transform="translate(-6.84 -3.7)"/><rect class="cls-1" x="37.43" y="41.42" width="3.4" height="3.41"/><polygon class="cls-1" points="9.79 27.81 13.75 27.81 11.77 25.84 9.79 27.81"/><path class="cls-1" d="M10,18.31l4-4L10.69,11l2-2,1.94,2H12l2,2,2.65-2.65L14,7.7H11.34l0,0L10,9,8.71,7.72l0,0H6.84V9.57L7.38,9l2,2L6.84,13.57v1.55L10,18.25,8.65,19.57,10,20.9l1.32-1.33Zm-1.32-4L10,13l1.33,1.32L10,15.67Z" transform="translate(-6.84 -3.7)"/><rect class="cls-1" x="17.67" y="10.07" width="1.87" height="1.87" transform="translate(-9.16 12.69) rotate(-45.04)"/><polygon class="cls-1" points="9.79 4 11.77 5.98 13.75 4 9.79 4"/><polygon class="cls-1" points="0 24.44 0 25.63 1.19 24.44 0 24.44"/><polygon class="cls-1" points="0 7.29 0 8.54 1.25 7.28 0 7.29"/><path class="cls-1" d="M6.84,24v2.63l.48-.47,2,2L6.84,30.65v.86H8.67l0,0L10,30.17l1.32,1.32,0,0h2.64l0,0-3.31-3.31,2-2,1.94,1.95H11.91l2,2,2.65-2.65L10,20.9ZM10,26.19,8.65,24.87,10,23.54l1.32,1.33Z" transform="translate(-6.84 -3.7)"/><path class="cls-1" d="M25.27,11H22.55l2-1.94,2,2-3.31,3.32,4,3.94-1.31,1.31,1.32,1.33,1.33-1.33-1.31-1.31,4-3.94L27.87,11l2-2L31.8,11H29.16l2,2,2.64-2.65L31.19,7.7H28.53L27.21,9,25.9,7.7H23.24l-2.65,2.64L23.24,13Zm3.27,3.36-1.33,1.32-1.32-1.32L27.21,13Z" transform="translate(-6.84 -3.7)"/><polygon class="cls-1" points="23.82 63.54 29.77 69.5 29.77 63.54 23.82 63.54"/><polygon class="cls-1" points="29.77 69.5 35.73 75.45 35.73 69.5 29.77 69.5"/><polygon class="cls-1" points="29.77 63.54 35.73 69.5 35.73 63.54 29.77 63.54"/><polygon class="cls-1" points="23.82 69.5 29.77 75.45 29.77 69.5 23.82 69.5"/><polygon class="cls-1" points="35.73 75.45 29.77 75.45 23.82 75.45 23.82 78.85 37.38 78.85 24.86 84.05 26.15 87.19 38.69 82 29.1 91.59 31.5 94 41.09 84.41 35.9 96.93 39.04 98.24 44.23 85.71 44.23 99.27 47.64 99.27 47.64 75.45 41.69 75.45 35.73 75.45"/><rect class="cls-1" x="17.67" y="27.28" width="1.87" height="1.87" transform="translate(-21.34 17.74) rotate(-45.04)"/><path class="cls-1" d="M19.27,19.61l2-2,1.94,1.94H20.55l2,2L25.23,19l-6.62-6.62L12,19l2.65,2.65,2-2H14l2-1.94,2,2-3.3,3.31,4,4,4-4Zm-2-3.31L18.61,15l1.32,1.33-1.32,1.33Zm0,6.62,1.33-1.32,1.32,1.32-1.32,1.32Z" transform="translate(-6.84 -3.7)"/><path class="cls-1" d="M419.19,32.42c-.78.17-1.55.37-2.3.59l1.39,1.39L419.72,33Z" transform="translate(-6.84 -3.7)"/><polygon class="cls-1" points="404.08 58.63 404.08 58.64 404.08 58.64 404.08 58.63 403.1 59.62 403.1 59.62 403.09 59.63 403.96 60.49 404.08 60.62 404.08 60.61 404.08 60.62 405.07 59.62 405.07 59.62 405.07 59.62 404.08 58.63"/><polygon class="cls-1" points="430.32 39.72 428.88 38.27 427.44 39.72 428.88 41.16 430.32 39.72"/><polygon class="cls-1" points="400.24 74.02 401.76 72.48 403.7 72.48 403.7 70.86 402.17 69.33 402.17 67.39 400.55 67.39 399.01 68.93 397.08 68.93 397.08 70.55 398.61 72.08 398.61 74.02 400.24 74.02"/><polygon class="cls-1" points="400.55 60.01 399.01 61.54 397.08 61.54 397.08 63.16 398.61 64.69 398.61 66.63 400.24 66.63 401.76 65.1 403.7 65.1 403.7 63.48 402.17 61.95 402.17 60.01 400.55 60.01"/><path class="cls-1" d="M425.31,31.56h-.12L423.81,33l1.44,1.45L426.7,33Z" transform="translate(-6.84 -3.7)"/><polygon class="cls-1" points="404.08 66.02 404.08 66.03 404.08 66.03 404.08 66.02 403.1 67.01 403.1 67.01 403.09 67.01 403.96 67.88 404.08 68 404.08 68 404.08 68 405.07 67.01 405.07 67.01 405.07 67.01 404.08 66.02"/><polygon class="cls-1" points="404.08 73.41 404.08 73.41 404.08 73.41 404.08 73.41 403.1 74.4 403.1 74.4 403.09 74.4 403.96 75.27 404.08 75.39 404.08 75.39 404.08 75.39 405.07 74.4 405.07 74.4 405.07 74.4 404.08 73.41"/><rect class="cls-1" x="434.7" y="49.37" width="2.04" height="2.04" transform="translate(84.87 318.8) rotate(-44.94)"/><polygon class="cls-1" points="407.94 60.01 406.4 61.54 404.47 61.54 404.47 63.16 405.99 64.69 405.99 66.63 407.63 66.63 409.15 65.1 411.09 65.1 411.09 63.48 409.56 61.95 409.56 60.01 407.94 60.01"/><polygon class="cls-1" points="396.7 58.63 396.69 58.64 396.69 58.64 396.69 58.63 395.7 59.62 395.7 59.62 395.7 59.63 396.57 60.49 396.69 60.62 396.69 60.62 396.69 60.61 396.69 60.62 397.69 59.62 397.68 59.62 397.69 59.62 396.7 58.63"/><rect class="cls-1" x="418.8" y="82.48" width="2.64" height="2.64" transform="translate(-6.78 164.22) rotate(-22.6)"/><polygon class="cls-1" points="412.06 76.84 411.48 75.44 408.62 75.44 409.62 77.85 412.06 76.84"/><polygon class="cls-1" points="418.41 34.78 420.46 34.78 420.46 32.74 420.46 30.7 418.41 30.7 416.38 30.7 416.38 32.74 416.38 34.78 418.41 34.78"/><polygon class="cls-1" points="404.08 51.25 404.08 51.25 403.1 52.23 404.08 53.23 404.08 53.22 404.08 53.23 405.07 52.23 404.08 51.25 404.08 51.25"/><path class="cls-1" d="M414.09,84.07H414a1.32,1.32,0,0,1-.69-.2c-.21-.13-.42-.27-.62-.42a.53.53,0,0,1-.11-.7s0,0,0,0a7.11,7.11,0,0,1-1-1.07l0,0a.47.47,0,0,1-.28.09.5.5,0,0,1-.38-.21,8.68,8.68,0,0,1-.63-1.16.53.53,0,0,1,.23-.68h0a.14.14,0,0,0,0-.06,1,1,0,0,1,0-.53H407.9s0,.06,0,.09a.45.45,0,0,1,.59.27,12.07,12.07,0,0,0,.55,1.21.53.53,0,0,1-.17.69,12.75,12.75,0,0,0,1,1.46.43.43,0,0,1,.64,0c.28.33.58.65.88,1a.53.53,0,0,1,0,.7,11.46,11.46,0,0,0,1.36,1,.45.45,0,0,1,.63-.17c.2.13.43.24.66.36Z" transform="translate(-6.84 -3.7)"/><polygon class="cls-1" points="395.7 74.4 395.7 74.4 396.69 75.39 396.69 75.39 396.69 75.39 396.69 75.39 397.69 74.4 397.68 74.4 397.69 74.4 396.7 73.41 396.69 73.41 396.69 73.41 396.69 73.41 395.7 74.4 395.7 74.4"/><path class="cls-1" d="M414.09,79.14h-1.34a.49.49,0,0,1-.23.26,5.33,5.33,0,0,0,.79,1.24.44.44,0,0,1,.63,0,1.43,1.43,0,0,0,.15.11Z" transform="translate(-6.84 -3.7)"/><polygon class="cls-1" points="396.69 68 396.69 68 396.69 68 396.69 68 397.69 67.01 397.68 67.01 397.69 67.01 396.7 66.02 396.69 66.03 396.69 66.03 396.69 66.02 395.7 67.01 395.7 67.01 395.7 67.01 396.57 67.88 396.69 68"/><polygon class="cls-1" points="407.25 77.78 407.25 80.14 408.09 79.79 407.25 77.78"/><path class="cls-1" d="M417.65,76.19a16.28,16.28,0,0,1-1.55-4.36h.3v-.74h-1.62l-1.54,1.54H411.3v1.62l1.53,1.53v1.94h1.63L416,76.19Z" transform="translate(-6.84 -3.7)"/><polygon class="cls-1" points="409.59 60.98 416.73 60.98 416.73 53.84 409.59 60.98"/><polygon class="cls-1" points="393.16 52.62 391.63 54.15 389.69 54.15 389.69 55.77 391.22 57.3 391.22 59.24 392.85 59.24 394.38 57.71 396.31 57.71 396.31 56.09 394.79 54.56 394.79 52.62 393.16 52.62"/><polygon class="cls-1" points="400.55 52.62 399.01 54.15 397.08 54.15 397.08 55.77 398.61 57.3 398.61 59.24 400.24 59.24 401.76 57.71 403.7 57.71 403.7 56.09 402.17 54.56 402.17 52.62 400.55 52.62"/><path class="cls-1" d="M394,56.32a40.39,40.39,0,0,0-1.19,6.12l1-1h1.94V59.79l-1.52-1.53V56.32Z" transform="translate(-6.84 -3.7)"/><path class="cls-1" d="M432.4,31.68l-.31,0L430.78,33l1.45,1.45L433.67,33Z" transform="translate(-6.84 -3.7)"/><polygon class="cls-1" points="452.56 60.98 452.56 53.84 445.42 60.98 452.56 60.98"/><polygon class="cls-1" points="392.85 66.63 394.38 65.1 396.31 65.1 396.31 63.48 394.79 61.95 394.79 60.01 393.16 60.01 391.63 61.54 389.69 61.54 389.69 63.16 391.22 64.69 391.22 66.63 392.85 66.63"/><path class="cls-1" d="M412.8,95.6a.44.44,0,0,1,.59-.22l.7.31v-1l.31.75,2.43-1-1-2.44-1.74.72v1.26h0a1.36,1.36,0,0,1-.53-.11l-.82-.37a.54.54,0,0,1-.24-.68l0,0c-.46-.25-.92-.49-1.36-.76a0,0,0,0,1,0,0,.45.45,0,0,1-.41.24.37.37,0,0,1-.24-.07c-.36-.23-.71-.47-1.07-.72a.53.53,0,0,1-.12-.7l0,0c-.42-.32-.83-.65-1.22-1,0,0,0,0,0,0a.44.44,0,0,1-.36.17.39.39,0,0,1-.3-.12c-.33-.29-.63-.6-.94-.92a.52.52,0,0,1,0-.71l0,0c-.37-.39-.7-.8-1-1.22l0,0a.46.46,0,0,1-.3.12.46.46,0,0,1-.37-.19c-.26-.36-.51-.71-.76-1.08a.54.54,0,0,1,.11-.71l0,0c-.29-.45-.57-.9-.83-1.38h0a.34.34,0,0,1-.22.07.48.48,0,0,1-.42-.27q-.3-.58-.57-1.2a.52.52,0,0,1,.22-.68h0c-.28-.65-.53-1.32-.76-2h0l-.46.12a1.51,1.51,0,0,1-.09-.53s0-.06,0-.09h-1.81a.45.45,0,0,1-.21.22c.19.58.41,1.13.63,1.68a.46.46,0,0,1,.59.27c.17.41.36.82.54,1.23a.51.51,0,0,1-.17.65c.26.52.51,1,.79,1.55a.45.45,0,0,1,.64.16c.23.38.46.77.71,1.13a.55.55,0,0,1-.1.69c.33.47.68.93,1,1.38a.44.44,0,0,1,.62.07c.28.34.57.68.86,1a.52.52,0,0,1,0,.69c.39.42.79.82,1.2,1.21a.44.44,0,0,1,.64,0c.31.29.64.58,1,.85a.54.54,0,0,1,.1.68c.44.35.87.7,1.34,1a.43.43,0,0,1,.63-.15c.36.24.72.48,1.08.69a.51.51,0,0,1,.19.67C411.81,95.1,412.3,95.35,412.8,95.6Z" transform="translate(-6.84 -3.7)"/><polygon class="cls-1" points="392.85 74.02 394.38 72.48 396.31 72.48 396.31 70.86 394.79 69.33 394.79 67.39 393.16 67.39 391.63 68.93 389.69 68.93 389.69 70.55 391.22 72.08 391.22 74.02 392.85 74.02"/><polygon class="cls-1" points="438.27 60.98 445.42 60.98 445.42 53.84 438.27 60.98"/><polygon class="cls-1" points="448.25 51.73 445.64 49.66 445.85 46.33 442.87 44.85 442.38 41.55 439.15 40.73 437.99 37.6 434.66 37.46 432.87 34.64 430.32 35.07 430.32 37.42 431.74 37.18 433.35 39.72 436.36 39.85 437.4 42.66 440.31 43.41 440.75 46.39 443.44 47.72 443.26 50.73 445.61 52.59 445.27 53.84 445.42 53.84 447.67 53.84 448.25 51.73"/><polygon class="cls-1" points="434.04 32.02 436.01 35.12 439.68 35.27 440.96 38.72 444.52 39.63 445.06 43.26 448.34 44.9 448.12 48.56 450.99 50.84 450.16 53.84 452.56 53.84 452.56 49.13 450.5 47.5 450.75 43.51 447.16 41.73 446.58 37.77 442.71 36.77 441.31 33.02 437.31 32.85 435.17 29.48 431.23 30.14 430.32 29.22 430.32 32.53 430.42 32.63 434.04 32.02"/><path class="cls-1" d="M425.32,84.12l1,2.44,2.44-1L428,83.71l-1-.28Z" transform="translate(-6.84 -3.7)"/><polygon class="cls-1" points="423.87 60.98 416.73 68.13 423.87 68.13 423.87 60.98"/><path class="cls-1" d="M412.94,90.72a.46.46,0,0,1,.61-.21l.54.25V89h0a1.3,1.3,0,0,1-.55-.12c-.3-.14-.59-.29-.87-.44a.53.53,0,0,1-.21-.68,0,0,0,0,1,0,0c-.49-.3-.95-.62-1.4-1h0a.43.43,0,0,1-.37.2.38.38,0,0,1-.28-.11,10.17,10.17,0,0,1-1-.93.53.53,0,0,1,0-.72s0,0,0,0a12,12,0,0,1-1.11-1.34s0,0,0,0a.51.51,0,0,1-.28.09.46.46,0,0,1-.38-.2c-.27-.4-.51-.8-.74-1.22a.53.53,0,0,1,.17-.7h0c-.27-.53-.5-1.07-.72-1.63,0,0,0,0,0,0a.41.41,0,0,1-.16,0,.48.48,0,0,1-.44-.33l-.05-.17a1.63,1.63,0,0,1-.09-.52s0-.08,0-.13h-1.73a.6.6,0,0,1,.18.23c.14.41.3.81.46,1.21a.51.51,0,0,1-.21.65c.21.5.46,1,.71,1.46a.45.45,0,0,1,.64.17c.21.37.43.73.67,1.08a.55.55,0,0,1-.11.7c.3.44.64.86,1,1.28a.44.44,0,0,1,.63,0,12.34,12.34,0,0,0,.85.92.53.53,0,0,1,0,.7c.39.37.78.71,1.19,1.05a.45.45,0,0,1,.63-.09c.32.26.66.5,1,.73a.55.55,0,0,1,.16.67C412,90.21,412.49,90.48,412.94,90.72Z" transform="translate(-6.84 -3.7)"/><polygon class="cls-1" points="409.59 68.13 416.73 68.13 416.73 60.98 409.59 68.13"/><polygon class="cls-1" points="407.94 52.62 406.4 54.15 404.47 54.15 404.47 55.77 405.99 57.3 405.99 59.24 407.63 59.24 409.15 57.71 411.09 57.71 411.09 56.09 409.94 54.95 409.8 54.95 409.83 54.82 409.56 54.56 409.56 52.62 407.94 52.62"/><polygon class="cls-1" points="396.69 51.25 396.69 51.25 395.7 52.23 396.69 53.23 396.69 53.22 396.69 53.23 397.69 52.23 396.7 51.25 396.69 51.25"/><polygon class="cls-1" points="423.87 53.84 416.73 60.98 423.87 60.98 423.87 53.84"/><polygon class="cls-1" points="452.56 60.98 445.42 68.13 452.56 68.13 452.56 60.98"/><path class="cls-1" d="M413.35,48.52a3.41,3.41,0,0,0-3.41-3.4A3.41,3.41,0,0,0,413.35,48.52Z" transform="translate(-6.84 -3.7)"/><polygon class="cls-1" points="418.41 37.67 416.38 37.67 416.38 39.72 416.38 41.76 418.41 41.76 420.46 41.76 420.46 39.72 420.46 37.67 418.41 37.67"/><path class="cls-1" d="M406.53,48.52a3.41,3.41,0,0,0,3.41-3.4A3.4,3.4,0,0,0,406.53,48.52Z" transform="translate(-6.84 -3.7)"/><rect class="cls-1" x="424.23" y="38.91" width="2.04" height="2.04" transform="translate(90.04 309.36) rotate(-45.12)"/><polygon class="cls-1" points="423.35 39.72 423.35 41.76 425.39 41.76 427.44 41.76 427.44 39.72 427.44 37.67 425.39 37.67 423.35 37.67 423.35 39.72"/><path class="cls-1" d="M406.53,48.52a3.4,3.4,0,0,0,3.41,3.4A3.4,3.4,0,0,0,406.53,48.52Z" transform="translate(-6.84 -3.7)"/><rect class="cls-1" x="420.74" y="42.4" width="2.04" height="2.04" transform="translate(85.72 306.91) rotate(-44.94)"/><path class="cls-1" d="M409.94,51.92a3.41,3.41,0,0,0,3.41-3.4A3.4,3.4,0,0,0,409.94,51.92Z" transform="translate(-6.84 -3.7)"/><polygon class="cls-1" points="425.39 37.67 426.84 36.23 425.39 34.78 423.95 36.23 425.39 37.67"/><rect class="cls-1" x="427.72" y="42.4" width="2.04" height="2.04" transform="translate(87.75 311.83) rotate(-44.94)"/><rect class="cls-1" x="413.77" y="35.42" width="2.05" height="2.05" transform="translate(88.52 299.84) rotate(-44.92)"/><path class="cls-1" d="M409.94,45.12a3.41,3.41,0,0,0,3.41-3.41A3.41,3.41,0,0,0,409.94,45.12Z" transform="translate(-6.84 -3.7)"/><path class="cls-1" d="M409.94,45.12a3.41,3.41,0,0,0-3.41-3.41A3.41,3.41,0,0,0,409.94,45.12Z" transform="translate(-6.84 -3.7)"/><path class="cls-1" d="M430.19,48.69A8.78,8.78,0,0,1,434.27,51V48.35h-4.08Z" transform="translate(-6.84 -3.7)"/><polygon class="cls-1" points="442.73 75.57 440.29 76.59 441.3 79.02 443.75 78.02 442.73 75.57"/><rect class="cls-1" x="449.45" y="90.59" width="2.65" height="2.64" transform="translate(-7.79 175.33) rotate(-22.44)"/><polygon class="cls-1" points="418.41 44.65 419.86 43.2 418.41 41.76 416.97 43.2 418.41 44.65"/><path class="cls-1" d="M413.35,41.71a3.41,3.41,0,0,0-3.41-3.4A3.4,3.4,0,0,0,413.35,41.71Z" transform="translate(-6.84 -3.7)"/><rect class="cls-1" x="431.21" y="45.88" width="2.04" height="2.04" transform="translate(86.78 315.9) rotate(-45.04)"/><rect class="cls-1" x="413.77" y="42.4" width="2.04" height="2.04" transform="translate(83.69 301.99) rotate(-44.94)"/><polygon class="cls-1" points="423.35 32.74 421.9 31.29 420.46 32.74 421.9 34.19 423.35 32.74"/><polygon class="cls-1" points="411.44 41.76 410 43.2 411.44 44.65 412.88 43.2 411.44 41.76"/><rect class="cls-1" x="413.77" y="49.37" width="2.04" height="2.04" transform="translate(79.2 304.59) rotate(-45.04)"/><polygon class="cls-1" points="413.48 39.72 413.48 37.67 411.44 37.67 409.4 37.67 409.4 39.72 409.4 41.76 411.44 41.76 413.48 41.76 413.48 39.72"/><path class="cls-1" d="M422.46,49.65l-.69-.7-1.45,1.44.45.45A9.18,9.18,0,0,1,422.46,49.65Z" transform="translate(-6.84 -3.7)"/><path class="cls-1" d="M417.86,54.91a14.72,14.72,0,0,1,1-1.88l-.6-.59-1.45,1.44Z" transform="translate(-6.84 -3.7)"/><rect class="cls-1" x="453.43" y="87.63" width="2.64" height="2.64" transform="translate(-6.1 177.92) rotate(-22.6)"/><rect class="cls-1" x="420.74" y="35.42" width="2.05" height="2.05" transform="translate(90.93 305.21) rotate(-45)"/><polygon class="cls-1" points="438.27 68.13 445.42 68.13 445.42 60.98 438.27 68.13"/><rect class="cls-1" x="446.51" y="86.61" width="2.64" height="2.64" transform="translate(-6.36 174.56) rotate(-22.53)"/><polygon class="cls-1" points="411.44 34.78 410 36.23 411.44 37.67 412.88 36.23 411.44 34.78"/><polygon class="cls-1" points="413.48 32.74 413.48 30.7 411.44 30.7 409.4 30.7 409.4 32.74 409.4 34.78 411.44 34.78 413.48 34.78 413.48 32.74"/><path class="cls-1" d="M395.56,51.83a3.19,3.19,0,0,0,.77.09,3.34,3.34,0,0,0-.25-1.27C395.9,51,395.72,51.43,395.56,51.83Z" transform="translate(-6.84 -3.7)"/><path class="cls-1" d="M413.35,55.32a3.41,3.41,0,0,0-3.41-3.4A3.4,3.4,0,0,0,413.35,55.32Z" transform="translate(-6.84 -3.7)"/><path class="cls-1" d="M413.35,34.91a3.4,3.4,0,0,0-3.41,3.4A3.41,3.41,0,0,0,413.35,34.91Z" transform="translate(-6.84 -3.7)"/><polygon class="cls-1" points="430.32 32.74 428.88 31.29 427.44 32.74 428.88 34.19 430.32 32.74"/><polygon class="cls-1" points="445.68 79.55 443.24 80.56 444.25 83 446.69 81.99 445.68 79.55"/><path class="cls-1" d="M416.24,50.39v2h3.07a10.46,10.46,0,0,1,1-1.18V48.35h-4.08Z" transform="translate(-6.84 -3.7)"/><path class="cls-1" d="M406.53,55.32a3.4,3.4,0,0,0,3.41-3.4A3.4,3.4,0,0,0,406.53,55.32Z" transform="translate(-6.84 -3.7)"/><polygon class="cls-1" points="425.39 34.78 427.44 34.78 427.44 32.74 427.44 30.7 425.39 30.7 423.35 30.7 423.35 32.74 423.35 34.78 425.39 34.78"/><path class="cls-1" d="M397.6,47.77a3.41,3.41,0,0,0,2.13.75,3.43,3.43,0,0,0-1-2.46C398.31,46.62,398,47.19,397.6,47.77Z" transform="translate(-6.84 -3.7)"/><path class="cls-1" d="M407.52,37.3a3.37,3.37,0,0,0,2.42,1,3.38,3.38,0,0,0-.7-2.07C408.65,36.58,408.08,36.94,407.52,37.3Z" transform="translate(-6.84 -3.7)"/><path class="cls-1" d="M412.22,34.71a3.19,3.19,0,0,0,1.13.2,3.32,3.32,0,0,0-.07-.65C412.92,34.4,412.57,34.56,412.22,34.71Z" transform="translate(-6.84 -3.7)"/><path class="cls-1" d="M405.18,39c-.49.39-1,.81-1.44,1.23a3.37,3.37,0,0,0,2.79,1.47A3.38,3.38,0,0,0,405.18,39Z" transform="translate(-6.84 -3.7)"/><path class="cls-1" d="M409.94,38.31a3.4,3.4,0,0,0-3.41,3.4A3.4,3.4,0,0,0,409.94,38.31Z" transform="translate(-6.84 -3.7)"/><rect class="cls-1" x="420.72" y="93.39" width="2.64" height="2.64" transform="translate(-10.97 164.96) rotate(-22.49)"/><path class="cls-1" d="M394.38,55a3.39,3.39,0,0,0,1.95-3.07,3.43,3.43,0,0,0-.86.11C395.06,53,394.71,54,394.38,55Z" transform="translate(-6.84 -3.7)"/><path class="cls-1" d="M399.73,55.32a3.4,3.4,0,0,0-3.4-3.4A3.4,3.4,0,0,0,399.73,55.32Z" transform="translate(-6.84 -3.7)"/><rect class="cls-1" x="417.77" y="89.41" width="2.65" height="2.64" transform="translate(-9.52 164.36) rotate(-22.61)"/><rect class="cls-1" x="414.82" y="85.43" width="2.64" height="2.64" transform="translate(-8.5 161.41) rotate(-22.4)"/><polygon class="cls-1" points="388.32 74.4 388.32 74.4 389.31 75.39 389.31 75.39 389.31 75.39 390.3 74.4 390.3 74.4 389.31 73.41 389.31 73.41 389.31 73.41 389.31 73.41 388.32 74.4 388.32 74.4"/><polygon class="cls-1" points="389.31 60.62 389.31 60.61 389.31 60.62 390.3 59.62 390.3 59.62 389.31 58.63 389.31 58.64 389.31 58.64 389.31 58.63 388.32 59.62 388.32 59.62 388.32 59.63 389.18 60.49 389.31 60.62"/><polygon class="cls-1" points="389.31 51.25 389.31 51.25 388.32 52.23 389.31 53.23 389.31 53.22 389.31 53.23 390.3 52.23 389.31 51.25 389.31 51.25"/><polygon class="cls-1" points="388.32 67.01 388.32 67.01 389.18 67.88 389.31 68 389.31 68 389.31 68 390.3 67.01 390.3 67.01 389.31 66.02 389.31 66.03 389.31 66.03 389.31 66.02 388.32 67.01 388.32 67.01"/><rect class="cls-1" x="421.75" y="86.46" width="2.64" height="2.64" transform="translate(-8.19 165.07) rotate(-22.53)"/><polygon class="cls-1" points="430.32 50.58 431.9 50.99 432.15 52.64 433.64 53.39 433.61 53.84 435.93 53.84 436.05 52 434.26 51.1 433.97 49.13 432.03 48.63 431.33 46.76 430.32 46.71 430.32 50.58"/><path class="cls-1" d="M403.13,45.2a3.41,3.41,0,0,0,3.4,3.32,3.39,3.39,0,0,0-3.39-3.4h0a3.4,3.4,0,0,0,3.39-3.41,3.41,3.41,0,0,0-3.4,3.32,3.34,3.34,0,0,0-1.48-2.72c-.42.46-.84.94-1.24,1.43a3.43,3.43,0,0,0,2.72,1.38h0a3.4,3.4,0,0,0-3.4,3.4A3.39,3.39,0,0,0,403.13,45.2Z" transform="translate(-6.84 -3.7)"/><polygon class="cls-1" points="431.12 68.13 431.12 60.98 423.98 68.13 431.12 68.13"/><polygon class="cls-1" points="427.84 89.81 426.82 87.37 424.38 88.37 425.39 90.81 427.84 89.81"/><polygon class="cls-1" points="431.12 60.98 431.12 53.84 423.98 60.98 431.12 60.98"/><rect class="cls-1" x="432.65" y="84.54" width="2.64" height="2.65" transform="translate(-6.79 168.26) rotate(-22.41)"/><rect class="cls-1" x="439.58" y="85.57" width="2.64" height="2.64" transform="translate(-6.42 172.18) rotate(-22.57)"/><polygon class="cls-1" points="430.78 93.79 429.77 91.34 427.32 92.35 428.34 94.79 430.78 93.79"/><rect class="cls-1" x="442.53" y="89.55" width="2.65" height="2.64" transform="translate(-7.66 173.91) rotate(-22.61)"/><rect class="cls-1" x="438.55" y="92.5" width="2.64" height="2.64" transform="translate(-9.37 171.19) rotate(-22.42)"/><rect class="cls-1" x="435.6" y="88.52" width="2.64" height="2.64" transform="translate(-7.98 170.24) rotate(-22.49)"/><rect class="cls-1" x="445.47" y="93.53" width="2.64" height="2.64" transform="translate(-9.19 174.14) rotate(-22.45)"/><polygon class="cls-1" points="438.27 60.98 438.27 53.84 431.13 60.98 438.27 60.98"/><polygon class="cls-1" points="420.9 88.78 419.9 86.33 417.45 87.34 418.47 89.78 420.9 88.78"/><polygon class="cls-1" points="423.85 92.75 422.84 90.31 420.4 91.32 421.41 93.77 423.85 92.75"/><path class="cls-1" d="M403.13,51.92h0a3.41,3.41,0,0,0-3.4,3.4,3.39,3.39,0,0,0,3.4-3.32,3.4,3.4,0,0,0,3.4,3.32,3.4,3.4,0,0,0-3.39-3.4h0a3.4,3.4,0,0,0,3.39-3.4,3.41,3.41,0,0,0-3.4,3.32,3.39,3.39,0,0,0-3.4-3.32A3.4,3.4,0,0,0,403.13,51.92Z" transform="translate(-6.84 -3.7)"/><path class="cls-1" d="M399.73,48.52a3.4,3.4,0,0,0-3.4,3.4A3.4,3.4,0,0,0,399.73,48.52Z" transform="translate(-6.84 -3.7)"/><rect class="cls-1" x="428.67" y="87.49" width="2.64" height="2.64" transform="translate(-8.14 167.39) rotate(-22.47)"/><path class="cls-1" d="M437.24,84.64l2.44-1-.17-.4c-.87.24-1.73.45-2.61.61Z" transform="translate(-6.84 -3.7)"/><rect class="cls-1" x="443.56" y="82.63" width="2.64" height="2.65" transform="translate(-5.02 173.3) rotate(-22.55)"/><polygon class="cls-1" points="438.57 47.98 438.17 45.34 435.59 44.68 434.66 42.18 432 42.07 430.57 39.82 430.32 39.86 430.32 43.75 430.69 44.33 433.03 44.43 433.84 46.62 436.11 47.2 436.45 49.51 438.54 50.56 438.4 52.89 439.6 53.84 442.77 53.84 442.87 53.48 440.79 51.83 440.95 49.16 438.57 47.98"/><polygon class="cls-1" points="438.27 60.98 431.13 68.13 438.27 68.13 438.27 60.98"/><path class="cls-1" d="M395.76,74.56,394.24,73V71.09h-1.53a37.75,37.75,0,0,0,.92,5.29l.19-.19h1.94Z" transform="translate(-6.84 -3.7)"/><path class="cls-1" d="M395.76,68.8V67.18l-1.52-1.53V63.71h-1.57c-.1,1.18-.15,2.38-.15,3.59,0,.9,0,1.81.1,2.7l1.2-1.2Z" transform="translate(-6.84 -3.7)"/><path class="cls-1" d="M414.09,99.17v-.31h0a1.42,1.42,0,0,1-.48-.1l-.88-.39a.53.53,0,0,1-.25-.67h0c-.51-.24-1-.49-1.48-.75h0a.46.46,0,0,1-.41.27.54.54,0,0,1-.22,0c-.39-.23-.77-.46-1.14-.7a.53.53,0,0,1-.17-.7s0,0,0,0c-.47-.31-.92-.63-1.37-1,0,0,0,0,0,0a.45.45,0,0,1-.38.22.5.5,0,0,1-.28-.1c-.35-.28-.7-.56-1-.85a.55.55,0,0,1-.07-.72h0c-.42-.36-.84-.75-1.24-1.15h0a.44.44,0,0,1-.34.16.46.46,0,0,1-.33-.13l-.92-1a.56.56,0,0,1,0-.73h0c-.36-.43-.72-.88-1.07-1.33,0,0,0,0,0,0a.42.42,0,0,1-.28.11.47.47,0,0,1-.38-.19c-.27-.37-.53-.75-.78-1.13a.54.54,0,0,1,.1-.71h0c-.31-.48-.61-1-.89-1.48h0a.4.4,0,0,1-.24.07.45.45,0,0,1-.4-.25c-.22-.41-.43-.82-.64-1.23a.53.53,0,0,1,.19-.69h0c-.25-.52-.48-1.05-.7-1.6v0a.44.44,0,0,1-.19,0,.46.46,0,0,1-.43-.3c-.17-.43-.33-.87-.48-1.31a.52.52,0,0,1,.27-.66h0c0-.12-.07-.23-.11-.35a1.14,1.14,0,0,1-.05-.37h-2.55c.19.6.4,1.19.62,1.76a.46.46,0,0,1,.6.27c.16.42.33.82.51,1.22a.52.52,0,0,1-.23.67c.24.5.46,1,.71,1.5a.45.45,0,0,1,.63.2l.62,1.15a.54.54,0,0,1-.15.69c.28.48.56.94.85,1.41a.45.45,0,0,1,.65.11c.24.37.48.73.73,1.07a.55.55,0,0,1-.08.71c.32.44.65.87,1,1.3a.44.44,0,0,1,.66,0l.84,1a.52.52,0,0,1,0,.69q.54.6,1.11,1.17a.45.45,0,0,1,.66,0l.93.87a.53.53,0,0,1,.08.7c.41.35.81.69,1.23,1a.45.45,0,0,1,.65-.11l1,.75a.53.53,0,0,1,.14.68c.44.3.88.6,1.33.87a.46.46,0,0,1,.64-.19c.35.22.71.42,1.08.62a.52.52,0,0,1,.21.67c.47.25.94.48,1.41.71a.46.46,0,0,1,.62-.26l.59.25v.24c.48.19,1,.39,1.46.57l.26-.11-1-2.44Z" transform="translate(-6.84 -3.7)"/><path class="cls-1" d="M444,101.07l.42,1c.86-.24,1.7-.5,2.54-.78l-.51-1.23Z" transform="translate(-6.84 -3.7)"/><path class="cls-1" d="M448,98.12l1,2.42.37-.13,1.49-.62.58-.26-1-2.42Z" transform="translate(-6.84 -3.7)"/><polygon class="cls-1" points="436.69 92.38 434.26 93.39 435.26 95.83 437.71 94.81 436.69 92.38"/><rect class="cls-1" x="437.52" y="99.43" width="2.64" height="2.64" transform="translate(-11.92 172.28) rotate(-22.55)"/><rect class="cls-1" x="456.38" y="91.61" width="2.64" height="2.64" transform="translate(-7.4 179.36) rotate(-22.6)"/><polygon class="cls-1" points="445.16 91.47 446.16 93.91 448.61 92.9 447.6 90.46 445.16 91.47"/><rect class="cls-1" x="430.59" y="98.4" width="2.64" height="2.64" transform="translate(-12.22 168.6) rotate(-22.42)"/><path class="cls-1" d="M419.28,100.92l.77,1.85,1.08.24,1.6-.66-1-2.44Z" transform="translate(-6.84 -3.7)"/><polygon class="cls-1" points="418.87 93.26 416.42 94.27 417.44 96.71 419.88 95.7 418.87 93.26"/><polygon class="cls-1" points="411.93 92.23 409.5 93.24 410.5 95.68 412.95 94.67 411.93 92.23"/><path class="cls-1" d="M433.13,103l.29.68h2.85l-.69-1.68Z" transform="translate(-6.84 -3.7)"/><polygon class="cls-1" points="419.37 98.25 420.08 99.95 422.16 99.95 422.82 99.68 421.81 97.24 419.37 98.25"/><polygon class="cls-1" points="348.52 55.66 327.41 27.73 323.81 27.73 351.93 64.95 348.52 55.66"/><polygon class="cls-1" points="341.7 37.1 334.62 27.73 331.02 27.73 345.12 46.38 341.7 37.1"/><polygon class="cls-1" points="388.46 27.73 363.06 27.73 362.16 31.06 387.23 31.06 388.46 27.73"/><polygon class="cls-1" points="338.26 27.73 338.23 27.73 338.3 27.81 338.26 27.73"/><path class="cls-1" d="M362.19,59.94h2V55.17h4.76v4.77h-4.76V64.7h-3.25c-.35,1.48-.73,3.21-1.07,4.77h4.32v4.75H359.4l-32.34-42.8h-3.62L359.38,79h4.79V74.23h4.76V79h4.76V74.23h4.77V69.47h2.75L383,64.7h-4.52V59.94h-4.77V55.17h4.77v4.77h4.76V55.17h3.29l1.26-3.39H364.39Zm11.5,9.53h-4.76V64.7h4.76Z" transform="translate(-6.84 -3.7)"/><polygon class="cls-1" points="358.48 44.67 382.19 44.67 383.44 41.27 359.4 41.27 358.48 44.67"/><polygon class="cls-1" points="366.86 80.06 369.09 80.06 370.85 75.3 366.86 75.3 366.86 80.06"/><polygon class="cls-1" points="360.32 37.86 384.71 37.86 385.97 34.46 361.25 34.46 360.32 37.86"/><path class="cls-1" d="M368,82.39l-3.86,1.1.55-4.41-3.31,3.3a4.69,4.69,0,0,0,0,6.62h-3.92v3.94h3.94V89A4.67,4.67,0,0,0,368,89l3.31-3.31-4.41.55Z" transform="translate(-6.84 -3.7)"/><polygon class="cls-1" points="336.6 123.09 336.6 117.13 330.64 117.13 336.6 123.09"/><path class="cls-1" d="M339.5,128.81a33,33,0,0,0,3.93-.41v-1.61h-5.95Z" transform="translate(-6.84 -3.7)"/><polygon class="cls-1" points="330.64 111.18 336.6 117.13 336.6 111.18 330.64 111.18"/><path class="cls-1" d="M361.36,93a4.68,4.68,0,0,0,0,6.62l3.31,3.31-.55-4.41,3.86,1.1-1.1-3.86,4.41.55L368,93A4.68,4.68,0,0,0,361.36,93Z" transform="translate(-6.84 -3.7)"/><path class="cls-1" d="M345.91,105.45l3.48,3.48h-6l6,5.95h-6l6,6h-6l6,6a28,28,0,0,0,6.3-3.4h-2.9v-17h14.76l1.26-3.4H347.4A11.56,11.56,0,0,1,345.91,105.45Z" transform="translate(-6.84 -3.7)"/><path class="cls-1" d="M338,109.43l5.45,5.45v-5.95h-2.72A14.18,14.18,0,0,1,338,109.43Z" transform="translate(-6.84 -3.7)"/><path class="cls-1" d="M349.38,126.79h-5.95l1.36,1.36A30.47,30.47,0,0,0,349.38,126.79Z" transform="translate(-6.84 -3.7)"/><polygon class="cls-1" points="330.64 123.09 330.64 117.13 324.69 117.13 330.64 123.09"/><polygon class="cls-1" points="345.33 75.3 348.94 75.3 314.43 29.62 314.43 29.63 318.39 39.65 345.33 75.3"/><path class="cls-1" d="M357.41,99.58A4.68,4.68,0,0,0,350.79,93l-3.2,3.2,0,.09,4.26-.53-1.1,3.86,3.86-1.1-.55,4.41Z" transform="translate(-6.84 -3.7)"/><polygon class="cls-1" points="341.73 75.3 322.35 49.66 326.32 59.68 338.12 75.3 341.73 75.3"/><path class="cls-1" d="M333.12,128.38a26.26,26.26,0,0,0,4.36.45v-2h-6Z" transform="translate(-6.84 -3.7)"/><path class="cls-1" d="M357.41,82.38l-3.31-3.3.55,4.41-3.86-1.11,1.1,3.87-4.41-.56L350.79,89a4.68,4.68,0,0,0,6.62-6.63Z" transform="translate(-6.84 -3.7)"/><path class="cls-1" d="M333.38,108.93h-1.86l6,5.95v-5.41c-.36,0-.7,0-1,0A9.78,9.78,0,0,1,333.38,108.93Z" transform="translate(-6.84 -3.7)"/><polygon class="cls-1" points="330.64 117.13 330.64 111.18 324.69 111.18 330.64 117.13"/><polygon class="cls-1" points="318.95 111.4 324.69 117.13 324.69 111.18 319.05 111.18 318.95 111.4"/><polygon class="cls-1" points="320.75 107.25 324.69 111.17 324.69 105.23 321.63 105.23 320.75 107.25"/><polygon class="cls-1" points="334.52 75.3 330.28 69.7 332.5 75.3 334.52 75.3"/><path class="cls-1" d="M356.19,120h3.43a33.63,33.63,0,0,0,6.62-10.21H356.19Z" transform="translate(-6.84 -3.7)"/><path class="cls-1" d="M331.52,128.05v-1.26h-4A33.18,33.18,0,0,0,331.52,128.05Z" transform="translate(-6.84 -3.7)"/><path class="cls-1" d="M322.19,123.42,324,125.2c.46.24,1,.51,1.59.79v-5.16h-2.26Z" transform="translate(-6.84 -3.7)"/><polygon class="cls-1" points="324.69 123.09 324.69 117.13 318.73 117.13 324.69 123.09"/><polygon class="cls-1" points="317.15 115.56 318.73 117.13 318.73 111.92 317.15 115.56"/><path class="cls-1" d="M191.49,38.68l-4.42-.55,3.31,3.31A4.68,4.68,0,0,0,197,34.82l-3.32-3.32.56,4.42-3.87-1.1Z" transform="translate(-6.84 -3.7)"/><path class="cls-1" d="M179.82,103H185V100.9h2.07V95.72h-7.25Zm1-6.22H186v3.1h-3.11v-1H185v-1h-3.1v3.1H184v1h-3.11Z" transform="translate(-6.84 -3.7)"/><polygon class="cls-1" points="160.56 86.84 159.52 86.84 159.52 85.8 158.48 85.8 158.48 88.91 159.52 88.91 159.52 87.88 160.56 87.88 160.56 88.91 161.59 88.91 161.59 85.8 160.56 85.8 160.56 86.84"/><rect class="cls-1" x="179.2" y="98.23" width="1.04" height="1.04"/><rect class="cls-1" x="170.92" y="89.95" width="1.03" height="1.04"/><polygon class="cls-1" points="176.1 87.88 177.13 87.88 177.13 88.91 178.17 88.91 178.17 85.8 177.13 85.8 177.13 86.84 176.1 86.84 176.1 85.8 175.06 85.8 175.06 88.91 176.1 88.91 176.1 87.88"/><polygon class="cls-1" points="166.77 95.12 167.81 95.12 167.81 96.16 166.77 96.16 166.77 97.2 169.88 97.2 169.88 96.16 168.84 96.16 168.84 95.12 169.88 95.12 169.88 94.08 166.77 94.08 166.77 95.12"/><polygon class="cls-1" points="166.77 78.55 167.81 78.55 167.81 79.59 166.77 79.59 166.77 80.63 169.88 80.63 169.88 79.59 168.84 79.59 168.84 78.55 169.88 78.55 169.88 77.52 166.77 77.52 166.77 78.55"/><path class="cls-1" d="M179.83,89.5h-3.11V86.4h2.07V79.15h-7.25V86.4h2.07v3.1H170.5V87.44h-7.25v7.25h7.25V92.61h3.11v3.11h-2.07v6.21h0v1h7.25V95.72h-2.07V92.61h3.11v2.08h7.25V87.44h-7.25Zm-10.37,2.08v2.07h-5.18V88.47h5.18v2.07h4.15v1Zm8.29,5.18v5.17h-5.17V96.76h2.06V92.61h1v4.15Zm-3.11-5.18v-1h1v1Zm1-6.22V89.5h-1V85.36h-2.06V80.18h5.17v5.18Zm5.18,3.11H186v5.18h-5.18V91.58h-4.14v-1h4.14Z" transform="translate(-6.84 -3.7)"/><path class="cls-1" d="M179.82,79.14v7.25h7.25V81.22H185V79.14ZM186,82.25v3.11h-5.18V80.18H184v1H181.9v3.1H185v-1h-2.07v-1Z" transform="translate(-6.84 -3.7)"/><rect class="cls-1" x="164.7" y="83.74" width="1.04" height="1.03"/><path class="cls-1" d="M163.25,100.9h2.07V103h5.18V95.72h-7.25Zm1-4.14h5.18v5.17h-3.11v-1h2.07V97.8h-3.11v1h2.08v1h-3.11Z" transform="translate(-6.84 -3.7)"/><path class="cls-1" d="M187.07,55.32a6,6,0,0,0-6,6A6,6,0,0,0,187.07,55.32Z" transform="translate(-6.84 -3.7)"/><rect class="cls-1" x="156.41" y="98.23" width="1.04" height="1.04"/><path class="cls-1" d="M165.32,81.22h-2.07v5.17h7.25V79.14h-5.18Zm1-1h3.11v5.18h-5.18V82.25h3.11v1h-2.08v1h3.11v-3.1h-2.07Z" transform="translate(-6.84 -3.7)"/><rect class="cls-1" x="170.92" y="83.74" width="1.03" height="1.03"/><rect class="cls-1" x="164.7" y="89.95" width="1.04" height="1.04"/><path class="cls-1" d="M207.57,45.39A4.68,4.68,0,0,0,201,52l3.31,3.31-.55-4.41,3.86,1.1-1.1-3.86,4.42.55Z" transform="translate(-6.84 -3.7)"/><path class="cls-1" d="M175.16,55.32a6,6,0,0,0,6,6A6,6,0,0,0,175.16,55.32Z" transform="translate(-6.84 -3.7)"/><path class="cls-1" d="M190.38,45.39l-3.31,3.31,4.42-.55L190.38,52l3.87-1.1-.56,4.41L197,52a4.68,4.68,0,0,0-6.63-6.62Z" transform="translate(-6.84 -3.7)"/><polygon class="cls-1" points="168.3 47.45 166.56 47.45 166.56 45.7 165.31 46.94 164.08 45.7 164.08 47.45 162.34 47.45 163.57 48.68 162.34 49.93 164.08 49.93 164.08 51.67 165.31 50.44 166.56 51.67 166.56 49.93 168.3 49.93 167.07 48.68 168.3 47.45"/><path class="cls-1" d="M169.21,61.28a6,6,0,0,0-6,6A6,6,0,0,0,169.21,61.28Z" transform="translate(-6.84 -3.7)"/><polygon class="cls-1" points="162.34 32.02 164.08 32.02 164.08 33.77 165.31 32.53 166.56 33.77 166.56 32.02 168.3 32.02 167.07 30.79 168.3 29.55 166.56 29.55 166.56 27.8 165.31 29.04 164.08 27.8 164.08 29.55 162.34 29.55 163.57 30.79 162.34 32.02"/><polygon class="cls-1" points="160.59 45.7 160.59 43.96 162.34 43.96 161.1 42.72 162.34 41.48 160.59 41.48 160.59 39.74 159.35 40.98 158.12 39.74 158.12 41.48 156.37 41.48 157.6 42.72 156.37 43.96 158.12 43.96 158.12 45.7 159.35 44.47 160.59 45.7"/><polygon class="cls-1" points="160.59 33.77 160.59 32.02 162.34 32.02 161.1 30.79 162.34 29.55 160.59 29.55 160.59 27.8 159.35 29.04 158.12 27.8 158.12 29.55 156.37 29.55 157.6 30.79 156.37 32.02 158.12 32.02 158.12 33.77 159.35 32.53 160.59 33.77"/><polygon class="cls-1" points="160.59 39.74 160.59 37.99 162.34 37.99 161.1 36.75 162.34 35.52 160.59 35.52 160.59 33.77 159.35 35.01 158.12 33.77 158.12 35.52 156.37 35.52 157.6 36.75 156.37 37.99 158.12 37.99 158.12 39.74 159.35 38.5 160.59 39.74"/><polygon class="cls-1" points="158.12 49.93 158.12 51.67 159.35 50.44 160.59 51.67 160.59 49.93 162.34 49.93 161.1 48.68 162.34 47.45 160.59 47.45 160.59 45.7 159.35 46.94 158.12 45.7 158.12 47.45 156.37 47.45 157.6 48.68 156.37 49.93 158.12 49.93"/><rect class="cls-1" x="179.2" y="75.44" width="1.04" height="1.04"/><polygon class="cls-1" points="174.27 32.02 176.01 32.02 176.01 33.77 177.25 32.53 178.49 33.77 178.49 32.02 180.24 32.02 179 30.79 180.24 29.55 178.49 29.55 178.49 27.8 177.25 29.04 176.01 27.8 176.01 29.55 174.27 29.55 175.5 30.79 174.27 32.02"/><polygon class="cls-1" points="176.01 45.7 176.01 47.45 174.27 47.45 175.5 48.68 174.27 49.93 176.01 49.93 176.01 51.67 177.25 50.44 178.49 51.67 178.49 49.93 180.24 49.93 179 48.68 180.24 47.45 178.49 47.45 178.49 45.7 177.25 46.94 176.01 45.7"/><polygon class="cls-1" points="174.27 47.45 172.52 47.45 172.52 45.7 171.28 46.94 170.05 45.7 170.05 47.45 168.3 47.45 169.54 48.68 168.3 49.93 170.05 49.93 170.05 51.67 171.28 50.44 172.52 51.67 172.52 49.93 174.27 49.93 173.03 48.68 174.27 47.45"/><polygon class="cls-1" points="176.01 39.74 176.01 41.48 174.27 41.48 175.5 42.72 174.27 43.96 176.01 43.96 176.01 45.7 177.25 44.47 178.49 45.7 178.49 43.96 180.24 43.96 179 42.72 180.24 41.48 178.49 41.48 178.49 39.74 177.25 40.98 176.01 39.74"/><polygon class="cls-1" points="168.3 32.02 170.05 32.02 170.05 33.77 171.28 32.53 172.52 33.77 172.52 32.02 174.27 32.02 173.03 30.79 174.27 29.55 172.52 29.55 172.52 27.8 171.28 29.04 170.05 27.8 170.05 29.55 168.3 29.55 169.54 30.79 168.3 32.02"/><polygon class="cls-1" points="176.01 33.77 176.01 35.52 174.27 35.52 175.5 36.75 174.27 37.99 176.01 37.99 176.01 39.74 177.25 38.5 178.49 39.74 178.49 37.99 180.24 37.99 179 36.75 180.24 35.52 178.49 35.52 178.49 33.77 177.25 35.01 176.01 33.77"/><path class="cls-1" d="M187.07,79.14a6,6,0,0,0-6-6A6,6,0,0,0,187.07,79.14Z" transform="translate(-6.84 -3.7)"/><path class="cls-1" d="M187.07,67.24a6,6,0,0,0-6-6A6,6,0,0,0,187.07,67.24Z" transform="translate(-6.84 -3.7)"/><path class="cls-1" d="M175.16,79.14a6,6,0,0,0,6-6A6,6,0,0,0,175.16,79.14Z" transform="translate(-6.84 -3.7)"/><path class="cls-1" d="M169.21,73.19a6,6,0,0,0,5.95,6A6,6,0,0,0,169.21,73.19Z" transform="translate(-6.84 -3.7)"/><path class="cls-1" d="M175.16,67.24a6,6,0,0,0,6,6A6,6,0,0,0,175.16,67.24Z" transform="translate(-6.84 -3.7)"/><path class="cls-1" d="M175.16,67.24a6,6,0,0,0,6-6A6,6,0,0,0,175.16,67.24Z" transform="translate(-6.84 -3.7)"/><path class="cls-1" d="M181.11,73.19a6,6,0,0,0,6-6A6,6,0,0,0,181.11,73.19Z" transform="translate(-6.84 -3.7)"/><path class="cls-1" d="M175.16,67.24a6,6,0,0,0-5.95,6A6,6,0,0,0,175.16,67.24Z" transform="translate(-6.84 -3.7)"/><path class="cls-1" d="M163.25,55.32a6,6,0,0,0,6,6A6,6,0,0,0,163.25,55.32Z" transform="translate(-6.84 -3.7)"/><path class="cls-1" d="M163.25,67.24a6,6,0,0,0,6,6A6,6,0,0,0,163.25,67.24Z" transform="translate(-6.84 -3.7)"/><rect class="cls-1" x="156.41" y="75.44" width="1.04" height="1.04"/><path class="cls-1" d="M163.25,79.14a6,6,0,0,0,6-6A6,6,0,0,0,163.25,79.14Z" transform="translate(-6.84 -3.7)"/><path class="cls-1" d="M175.16,55.32a6,6,0,0,0-5.95,6A6,6,0,0,0,175.16,55.32Z" transform="translate(-6.84 -3.7)"/><path class="cls-1" d="M175.16,67.24a6,6,0,0,0-5.95-6A6,6,0,0,0,175.16,67.24Z" transform="translate(-6.84 -3.7)"/><path class="cls-1" d="M207.57,34.82l-3.86,1.1.55-4.41L201,34.82a4.68,4.68,0,0,0,0,6.61H197v3.94H201V41.45a4.66,4.66,0,0,0,6.6,0l3.32-3.31-4.42.55Z" transform="translate(-6.84 -3.7)"/><polygon class="cls-1" points="164.08 45.7 165.31 44.47 166.56 45.7 166.56 43.96 168.3 43.96 167.07 42.72 168.3 41.48 166.56 41.48 166.56 39.74 165.31 40.98 164.08 39.74 164.08 41.48 162.34 41.48 163.57 42.72 162.34 43.96 164.08 43.96 164.08 45.7"/><polygon class="cls-1" points="168.3 35.52 169.54 36.75 168.3 37.99 170.05 37.99 170.05 39.74 171.28 38.5 172.52 39.74 172.52 37.99 174.27 37.99 173.03 36.75 174.27 35.52 172.52 35.52 172.52 33.77 171.28 35.01 170.05 33.77 170.05 35.52 168.3 35.52"/><polygon class="cls-1" points="164.08 39.74 165.31 38.5 166.56 39.74 166.56 37.99 168.3 37.99 167.07 36.75 168.3 35.52 166.56 35.52 166.56 33.77 165.31 35.01 164.08 33.77 164.08 35.52 162.34 35.52 163.57 36.75 162.34 37.99 164.08 37.99 164.08 39.74"/><polygon class="cls-1" points="172.52 39.74 171.28 40.98 170.05 39.74 170.05 41.48 168.3 41.48 169.54 42.72 168.3 43.96 170.05 43.96 170.05 45.7 171.28 44.47 172.52 45.7 172.52 43.96 174.27 43.96 173.03 42.72 174.27 41.48 172.52 41.48 172.52 39.74"/><polygon class="cls-1" points="253.74 27.81 250.61 33.3 259.11 27.81 253.74 27.81"/><polygon class="cls-1" points="265.71 27.81 260.33 27.81 257.21 33.3 265.71 27.81"/><polygon class="cls-1" points="246.08 41.7 242.95 47.18 251.45 41.7 246.08 41.7"/><polygon class="cls-1" points="249.91 34.76 246.78 40.24 255.28 34.76 249.91 34.76"/><polygon class="cls-1" points="258.2 55.58 255.08 61.07 263.58 55.58 258.2 55.58"/><polygon class="cls-1" points="269.69 34.76 266.57 40.24 275.07 34.76 269.69 34.76"/><polygon class="cls-1" points="242.25 48.64 239.12 54.12 247.62 48.64 242.25 48.64"/><polygon class="cls-1" points="262.04 48.64 258.91 54.12 267.41 48.64 262.04 48.64"/><polygon class="cls-1" points="265.88 74.38 259.61 63.96 256.76 61.07 255.08 61.07 252.79 61.07 265.88 74.38"/><polygon class="cls-1" points="265.87 41.7 262.74 47.18 271.24 41.7 265.87 41.7"/><polygon class="cls-1" points="272.31 27.81 266.93 27.81 263.8 33.3 272.31 27.81"/><polygon class="cls-1" points="248.84 48.64 245.72 54.12 254.22 48.64 248.84 48.64"/><polygon class="cls-1" points="241.89 61.07 250.39 55.58 245.01 55.58 241.89 61.07"/><polygon class="cls-1" points="255.43 48.64 252.31 54.12 260.82 48.64 255.43 48.64"/><polygon class="cls-1" points="249.55 47.18 258.05 41.7 252.67 41.7 249.55 47.18"/><polygon class="cls-1" points="256.15 47.18 264.64 41.7 259.27 41.7 256.15 47.18"/><polygon class="cls-1" points="263.1 34.76 259.97 40.24 268.48 34.76 263.1 34.76"/><polygon class="cls-1" points="253.38 40.24 261.88 34.76 256.5 34.76 253.38 40.24"/><polygon class="cls-1" points="249.69 90.27 258.54 99.27 262.5 99.27 244.89 81.35 249.69 90.27"/><polygon class="cls-1" points="240.09 72.42 266.49 99.27 270.46 99.27 235.3 63.49 240.09 72.42"/><polygon class="cls-1" points="238.42 55.58 235.29 61.07 243.8 55.58 238.42 55.58"/><rect class="cls-1" x="231.88" y="51.63" width="3.4" height="3.4"/><polygon class="cls-1" points="251.6 55.58 248.48 61.07 256.99 55.58 251.6 55.58"/><polygon class="cls-1" points="236.88 61.07 274.43 99.27 278.41 99.27 240.86 61.07 236.88 61.07"/><path class="cls-1" d="M235.32,55.34h-1.59l2.44-2.45,2.44,2.45h0V51.86h3.49l-2.47-2.46,2.47-2.47h-3.49V43.44l-2.47,2.47-2.47-2.47v3.49h-3.49l2.47,2.47-2.47,2.46h3.49v3.48h-7V51.86h3.49l-2.46-2.46,2.46-2.47h-3.49V43.44l-2.48,2.47-2.46-2.47v3.49H218.3l2.46,2.46-2.46,2.46h3.48v3.48H218.3V79.15h2.38v1.19h-1.19v1.19H218.3v1.19h1.19v1.2h1.19V86.3h-1.19v1.19H218.3v1.19h1.19v1.19h1.19v2.38h-1.19v1.2H218.3v1.18h1.19v1.2h1.19v2.38h-1.19V99.4H218.3v1.19h1.19v1.19h1.19V103h1.19v-1.2h1.2v-1.19h2.38v1.19h1.19V103h1.19v-1.2H229v-1.19h2.38v1.19h1.19V103h1.19v-1.2H235v-1.19h2.39v1.19h1.19V103h1.19v-1.2h1.19v-1.19h1.19V99.4h-1.19V98.21h-1.19V95.83h1.19v-1.2h1.19V93.45h-1.19v-1.2h-1.19V89.87h1.19V88.68h1.19V87.49h-1.19V86.3h-1.19V83.92h1.19v-1.2h1.19V81.53h-1.19V80.34h-1.19V79.15h2.38v-17h-6.8Zm-11.08-2.45,2.45,2.45H221.8Zm2.4,45.32h-1.19V99.4h-2.38V98.21h-1.2V95.83h1.2v-1.2h2.38v1.2h1.19Zm0-6h-1.19v1.2h-2.38v-1.2h-1.2V89.87h1.2V88.68h2.38v1.19h1.19Zm0-6h-1.19v1.19h-2.38V86.3h-1.2V83.92h1.2v-1.2h2.38v1.2h1.19Zm0-6h-1.19v1.19h-2.38V80.34h-1.2V79.15h4.77Zm6,17.87H231.4V99.4H229V98.21h-1.19V95.83H229v-1.2h2.38v1.2h1.19Zm0-6H231.4v1.2H229v-1.2h-1.19V89.87H229V88.68h2.38v1.19h1.19Zm0-6H231.4v1.19H229V86.3h-1.19V83.92H229v-1.2h2.38v1.2h1.19Zm0-6H231.4v1.19H229V80.34h-1.19V79.15h4.76Zm6,17.87h-1.19V99.4H235V98.21h-1.19V95.83H235v-1.2h2.39v1.2h1.19Zm0-6h-1.19v1.2H235v-1.2h-1.19V89.87H235V88.68h2.39v1.19h1.19Zm0-6h-1.19v1.19H235V86.3h-1.19V83.92H235v-1.2h2.39v1.2h1.19Zm0-6h-1.19v1.19H235V80.34h-1.19V79.15h4.77Zm.17-14.8V75.75h-17v-17h10.21v3.4h-6.8V72.35h3.4V65.54Z" transform="translate(-6.84 -3.7)"/><rect class="cls-1" x="225.08" y="65.25" width="3.4" height="3.4"/><polygon class="cls-1" points="248.81 61.07 248.48 61.07 244.83 61.07 278.43 95.24 272.16 84.81 248.81 61.07"/><polygon class="cls-1" points="270.4 33.3 278.9 27.81 273.52 27.81 270.4 33.3"/><polygon class="cls-1" points="235.27 8.86 235.27 7.36 233.78 7.36 235.27 8.86"/><polygon class="cls-1" points="211.45 7.39 211.45 8.65 212.71 7.39 211.45 7.39"/><path class="cls-1" d="M242.11,24.48,238.67,21l-6.62,6.62,2.65,2.64,2-2H234l2-2,2,2-3.3,3.31h2.66l1.31-1.32L240,31.62h2.13V31.1l-2.78-2.79,2-2,.79.8Zm-3.44,1.85L237.35,25l1.32-1.32L240,25Z" transform="translate(-6.84 -3.7)"/><path class="cls-1" d="M236.73,11.07H234l2-2,2,2-3.3,3.31,4,4-1.3,1.31L238.67,21,240,19.68l-1.31-1.31L242.11,15V13.89l-2.78-2.78,2-2,.79.8V7.8H240l-1.31,1.32L237.35,7.8h-2.66l-2.64,2.65,2.65,2.64ZM240,14.42l-1.32,1.32-1.32-1.32,1.32-1.33Z" transform="translate(-6.84 -3.7)"/><polygon class="cls-1" points="235.27 13.93 233.85 15.35 235.27 16.77 235.27 13.93"/><polygon class="cls-1" points="235.27 26.07 235.27 24.57 233.78 24.57 235.27 26.07"/><polygon class="cls-1" points="225.2 27.92 223.22 25.94 221.25 27.92 225.2 27.92"/><polygon class="cls-1" points="223.22 25.94 224.55 24.61 223.22 23.29 221.9 24.61 223.22 25.94"/><rect class="cls-1" x="229.12" y="10.17" width="1.87" height="1.87" transform="translate(52.69 162.23) rotate(-45)"/><path class="cls-1" d="M220.1,31.59l1.32-1.32,1.33,1.32,0,0h2.64l0,0-3.31-3.31,2-2L226,28.24h-2.65l2,2L228,27.62,221.42,21l-3.13,3.13v2.64l.49-.47,2,2-2.47,2.47v.87h1.84Zm0-6.62,1.32-1.32L222.75,25l-1.33,1.33Z" transform="translate(-6.84 -3.7)"/><path class="cls-1" d="M226.09,21.7l2-2H225.4l2-1.94,2,2L226.09,23l4,4,4-4-3.31-3.31,2-2,1.94,1.94H232l2,2,2.66-2.65-6.63-6.62-6.62,6.62Zm5.3,1.32-1.33,1.33L228.74,23l1.32-1.32Zm-1.33-7.94,1.33,1.32-1.33,1.33-1.32-1.33Z" transform="translate(-6.84 -3.7)"/><path class="cls-1" d="M221.49,18.42l4-4-3.31-3.32,2-2,2,1.95h-2.66l2,2,2.65-2.65L225.43,7.8h-2.65l0,0-1.32,1.32-1.33-1.32,0,0h-1.89V9.68l.55-.53,2,2-2.53,2.54v1.55l3.13,3.13-1.32,1.33L221.42,21l1.33-1.32Zm-1.33-4,1.33-1.33,1.32,1.33-1.32,1.32Z" transform="translate(-6.84 -3.7)"/><polygon class="cls-1" points="211.45 24.54 211.45 25.73 212.64 24.54 211.45 24.54"/><polygon class="cls-1" points="225.2 4.1 221.24 4.1 223.22 6.08 225.2 4.1"/><polygon class="cls-1" points="219.88 39.74 219.88 36.24 223.37 36.24 220.91 33.77 223.37 31.3 219.88 31.3 219.88 27.81 217.4 30.28 214.94 27.81 214.94 31.3 211.46 31.3 211.46 31.32 213.92 33.77 211.46 36.23 211.46 36.24 214.94 36.24 214.94 39.74 217.4 37.27 219.88 39.74"/><polygon class="cls-1" points="223.37 36.24 226.86 36.24 226.86 39.74 229.33 37.27 231.8 39.74 231.8 36.24 235.29 36.24 232.83 33.77 235.29 31.3 231.8 31.3 231.8 27.81 229.33 30.28 226.86 27.81 226.86 31.3 223.37 31.3 225.84 33.77 223.37 36.24"/><polygon class="cls-1" points="305.83 79.41 305.83 84.23 309.23 87.64 309.23 82.83 305.83 79.41"/><polygon class="cls-1" points="301.01 91.05 305.83 91.05 309.23 87.64 309.23 87.64 304.42 87.64 301.01 91.05"/><polygon class="cls-1" points="301.01 79.41 305.83 79.41 309.23 76.01 304.42 76.01 301.01 79.41"/><polygon class="cls-1" points="305.83 95.86 309.23 99.27 309.23 94.45 305.83 91.05 305.83 95.86"/><polygon class="cls-1" points="297.6 76.01 292.78 76.01 289.38 79.41 294.2 79.41 297.6 76.01"/><polygon class="cls-1" points="294.2 79.41 294.2 84.23 297.6 87.64 297.6 82.83 294.2 79.41"/><polygon class="cls-1" points="305.83 84.23 301.01 84.23 297.6 87.64 292.78 87.64 289.38 91.05 294.2 91.05 297.6 87.64 297.6 87.64 302.43 87.64 305.83 84.23"/><polygon class="cls-1" points="302.43 99.27 305.83 95.86 301.01 95.86 297.6 99.27 302.43 99.27"/><polygon class="cls-1" points="297.6 76.01 297.6 80.83 301.01 84.23 301.01 79.41 297.6 76.01"/><polygon class="cls-1" points="297.6 92.46 301.01 95.86 301.01 91.05 297.6 87.64 297.6 92.46"/><polygon class="cls-1" points="294.2 91.05 294.2 95.86 297.6 99.27 297.6 99.27 297.6 94.45 294.2 91.05"/><polygon class="cls-1" points="285.98 99.27 290.79 99.27 294.2 95.86 289.38 95.86 289.38 95.86 285.98 99.27"/><polygon class="cls-1" points="285.98 92.46 289.38 95.86 289.38 91.05 285.98 87.64 285.98 92.46"/><polygon class="cls-1" points="285.98 76.01 285.98 80.83 289.38 84.23 289.38 79.41 285.98 76.01"/><polygon class="cls-1" points="294.2 84.23 289.38 84.23 289.38 84.23 285.98 87.64 290.79 87.64 294.2 84.23"/><rect class="cls-1" x="307.45" y="38.46" width="1.79" height="1.8"/><polygon class="cls-1" points="307.45 43.84 305.66 43.84 305.66 42.05 303.86 42.05 303.86 43.84 302.08 43.84 302.08 45.63 300.29 45.63 300.29 47.41 302.08 47.41 302.08 49.2 303.86 49.2 303.86 51 305.66 51 305.66 49.2 307.45 49.2 307.45 47.41 309.23 47.41 309.23 45.63 307.45 45.63 307.45 43.84"/><rect class="cls-1" x="296.7" y="49.2" width="1.8" height="1.79"/><polygon class="cls-1" points="287.76 34.89 289.55 34.89 289.55 36.68 291.34 36.68 291.34 34.89 293.13 34.89 293.13 33.1 294.91 33.1 294.91 31.3 293.13 31.3 293.13 29.52 291.34 29.52 291.34 27.73 289.55 27.73 289.55 29.52 287.76 29.52 287.76 31.3 285.98 31.3 285.98 33.1 287.76 33.1 287.76 34.89"/><polygon class="cls-1" points="298.5 36.68 298.5 34.89 296.71 34.89 296.71 36.68 294.91 36.68 294.91 38.47 293.13 38.47 293.13 40.26 294.91 40.26 294.91 42.05 296.71 42.05 296.71 43.84 298.5 43.84 298.5 42.05 300.29 42.05 300.29 40.26 302.08 40.26 302.08 38.47 300.29 38.47 300.29 36.68 298.5 36.68"/><rect class="cls-1" x="296.7" y="27.73" width="1.8" height="1.79"/><polygon class="cls-1" points="307.45 29.52 305.65 29.52 305.65 27.73 303.86 27.73 303.86 29.52 302.08 29.52 302.08 31.3 300.29 31.3 300.29 33.1 302.08 33.1 302.08 34.89 303.86 34.89 303.86 36.68 305.66 36.68 305.66 34.89 307.45 34.89 307.45 33.1 309.23 33.1 309.23 31.3 307.45 31.3 307.45 29.52"/><polygon class="cls-1" points="287.76 49.2 289.55 49.2 289.55 51 291.34 51 291.34 49.2 293.13 49.2 293.13 47.41 294.91 47.41 294.91 45.63 293.13 45.63 293.13 43.84 291.34 43.84 291.34 42.05 289.55 42.05 289.55 43.84 287.76 43.84 287.76 45.63 285.98 45.63 285.98 47.41 287.76 47.41 287.76 49.2"/><rect class="cls-1" x="285.97" y="38.46" width="1.79" height="1.8"/><polygon class="cls-1" points="309.23 58.68 307.24 56.69 305.25 58.68 307.24 60.68 309.23 58.68"/><polygon class="cls-1" points="309.23 68.31 307.24 66.32 305.25 68.31 307.24 70.31 309.23 68.31"/><polygon class="cls-1" points="305.25 58.68 305.25 55.86 302.43 55.86 299.6 55.86 299.6 58.68 299.6 61.51 302.43 61.51 305.25 61.51 305.25 58.68"/><rect class="cls-1" x="307.85" y="65.79" width="2.82" height="2.82" transform="translate(36.22 234.66) rotate(-45)"/><rect class="cls-1" x="307.85" y="56.15" width="2.82" height="2.82" transform="translate(42.65 231.27) rotate(-44.87)"/><polygon class="cls-1" points="299.6 68.31 299.6 71.14 302.43 71.14 305.25 71.14 305.25 68.31 305.25 65.5 302.43 65.5 299.6 65.5 299.6 68.31"/><polygon class="cls-1" points="292.78 61.51 290.79 63.5 292.78 65.5 294.79 63.5 292.78 61.51"/><polygon class="cls-1" points="299.6 58.68 297.6 56.69 295.61 58.68 297.6 60.68 299.6 58.68"/><polygon class="cls-1" points="292.78 75.13 294.79 73.14 292.78 71.14 290.79 73.14 292.78 75.13"/><rect class="cls-1" x="303.03" y="70.61" width="2.82" height="2.82" transform="translate(31.16 232.27) rotate(-44.92)"/><polygon class="cls-1" points="285.98 58.68 287.96 60.68 289.96 58.68 287.96 56.69 285.98 58.68"/><rect class="cls-1" x="293.39" y="70.61" width="2.82" height="2.82" transform="translate(28.2 225.21) rotate(-44.86)"/><polygon class="cls-1" points="292.78 65.5 289.96 65.5 289.96 68.31 289.96 71.14 292.78 71.14 295.61 71.14 295.61 68.31 295.61 65.5 292.78 65.5"/><polygon class="cls-1" points="295.61 58.68 295.61 55.86 292.78 55.86 289.96 55.86 289.96 58.68 289.96 61.51 292.78 61.51 295.61 61.51 295.61 58.68"/><polygon class="cls-1" points="292.78 51.87 290.79 53.86 292.78 55.86 294.79 53.86 292.78 51.87"/><polygon class="cls-1" points="302.43 75.13 304.42 73.14 302.43 71.14 300.42 73.14 302.43 75.13"/><path class="cls-1" d="M297.38,18.26a17.93,17.93,0,0,0-1.17,5.3,17.32,17.32,0,0,0,5.31-1.17A17.27,17.27,0,0,0,304.44,27a17.31,17.31,0,0,0,2.93-4.58,17.32,17.32,0,0,0,5.3,1.17,17.32,17.32,0,0,0-1.17-5.3,17,17,0,0,0,4.57-2.93h0a17.22,17.22,0,0,0-4.57-2.92,17.32,17.32,0,0,0,1.17-5.3h0a17.61,17.61,0,0,0-5.3,1.16,17.42,17.42,0,0,0-2.93-4.57h0a17.38,17.38,0,0,0-2.92,4.57,17.61,17.61,0,0,0-5.31-1.16h0a17.93,17.93,0,0,0,1.17,5.3,17.38,17.38,0,0,0-4.57,2.92h0A17.17,17.17,0,0,0,297.38,18.26Zm4.71-3.9a6.15,6.15,0,0,1-.39-1.77h0a6,6,0,0,1,1.77.39,5.6,5.6,0,0,1,1-1.52h0a6.16,6.16,0,0,1,1,1.52,6,6,0,0,1,1.76-.39h0a5.84,5.84,0,0,1-.39,1.77,5.54,5.54,0,0,1,1.52,1,5.34,5.34,0,0,1-1.52,1,5.71,5.71,0,0,1,.39,1.76,5.44,5.44,0,0,1-1.76-.39,6,6,0,0,1-1,1.52,5.45,5.45,0,0,1-1-1.52,5.44,5.44,0,0,1-1.77.39,6,6,0,0,1,.39-1.76,5.8,5.8,0,0,1-1.52-1A6,6,0,0,1,302.09,14.36Z" transform="translate(-6.84 -3.7)"/><rect class="cls-1" x="150.32" y="90.05" width="2.04" height="2.04" transform="translate(-26.93 129.87) rotate(-44.96)"/><polygon class="cls-1" points="145.94 94.34 144.5 92.89 143.06 94.34 144.5 95.78 145.94 94.34"/><path class="cls-1" d="M115.57,92.55A4.47,4.47,0,0,0,120,88.09,4.47,4.47,0,0,0,115.57,92.55Z" transform="translate(-6.84 -3.7)"/><path class="cls-1" d="M115.57,92.55A4.47,4.47,0,0,0,111.1,97,4.47,4.47,0,0,0,115.57,92.55Z" transform="translate(-6.84 -3.7)"/><path class="cls-1" d="M110.85,104.5a4.45,4.45,0,0,0-4.22-3,4.41,4.41,0,0,0,1.31,3.14C108.92,104.63,109.89,104.58,110.85,104.5Z" transform="translate(-6.84 -3.7)"/><path class="cls-1" d="M122.43,101a20,20,0,0,0,1.77-1.09A4.46,4.46,0,0,0,120,97,4.46,4.46,0,0,0,122.43,101Z" transform="translate(-6.84 -3.7)"/><path class="cls-1" d="M118.65,102.72a4.44,4.44,0,0,0-3.08-1.23,4.49,4.49,0,0,0,.51,2.06C117,103.31,117.81,103,118.65,102.72Z" transform="translate(-6.84 -3.7)"/><path class="cls-1" d="M111.37,104.44a31.15,31.15,0,0,0,3.52-.6,4.37,4.37,0,0,0,.68-2.35A4.46,4.46,0,0,0,111.37,104.44Z" transform="translate(-6.84 -3.7)"/><path class="cls-1" d="M97.34,103.24a4.29,4.29,0,0,0,.37-1.75,4.42,4.42,0,0,0-2.72.92C95.75,102.72,96.54,103,97.34,103.24Z" transform="translate(-6.84 -3.7)"/><path class="cls-1" d="M102.48,104.31c1,.12,1.93.21,2.91.26a4.43,4.43,0,0,0,1.24-3.08A4.48,4.48,0,0,0,102.48,104.31Z" transform="translate(-6.84 -3.7)"/><path class="cls-1" d="M101.82,104.22a4.44,4.44,0,0,0-4.11-2.73,4.28,4.28,0,0,0,.47,2A32.11,32.11,0,0,0,101.82,104.22Z" transform="translate(-6.84 -3.7)"/><polygon class="cls-1" points="138.97 87.37 138.97 89.41 141.02 89.41 143.06 89.41 143.06 87.37 143.06 85.32 141.02 85.32 138.97 85.32 138.97 87.37"/><rect class="cls-1" x="146.83" y="93.53" width="2.04" height="2.04" transform="translate(-30.37 128.66) rotate(-45.04)"/><rect class="cls-1" x="146.83" y="86.56" width="2.04" height="2.04" transform="translate(-25.49 126.38) rotate(-44.96)"/><polygon class="cls-1" points="143.06 80.39 143.06 78.35 141.02 78.35 138.97 78.35 138.97 80.39 138.97 82.43 141.02 82.43 143.06 82.43 143.06 80.39"/><path class="cls-1" d="M115.57,92.55a4.47,4.47,0,0,0-4.47-4.46A4.47,4.47,0,0,0,115.57,92.55Z" transform="translate(-6.84 -3.7)"/><polygon class="cls-1" points="138.97 94.34 138.97 96.38 141.02 96.38 143.06 96.38 143.06 94.34 143.06 92.3 141.02 92.3 138.97 92.3 138.97 94.34"/><path class="cls-1" d="M114.4,82.85c-.5,0-1,0-1.44-.07a4.49,4.49,0,0,0,2.61.84,4.26,4.26,0,0,0-.08-.8C115.14,82.84,114.77,82.85,114.4,82.85Z" transform="translate(-6.84 -3.7)"/><rect class="cls-1" x="93.55" y="27.81" width="4.76" height="4.77"/><path class="cls-1" d="M89.45,99.13a22.25,22.25,0,0,0,2,1.46A4.47,4.47,0,0,0,93.23,97,4.44,4.44,0,0,0,89.45,99.13Z" transform="translate(-6.84 -3.7)"/><path class="cls-1" d="M110.12,81.94a5.94,5.94,0,0,1-2-1.67,4.41,4.41,0,0,0-1.53,3.35A4.48,4.48,0,0,0,110.12,81.94Z" transform="translate(-6.84 -3.7)"/><path class="cls-1" d="M120,88.09a4.47,4.47,0,0,0-4.47-4.47A4.47,4.47,0,0,0,120,88.09Z" transform="translate(-6.84 -3.7)"/><path class="cls-1" d="M115.57,83.62a4.47,4.47,0,0,0-4.47,4.47A4.47,4.47,0,0,0,115.57,83.62Z" transform="translate(-6.84 -3.7)"/><path class="cls-1" d="M115.65,82.81a4.28,4.28,0,0,0-.08.81,4.47,4.47,0,0,0,3.18-1.33A16.86,16.86,0,0,1,115.65,82.81Z" transform="translate(-6.84 -3.7)"/><path class="cls-1" d="M83.46,90.69a4.42,4.42,0,0,0,.85-2.6,4.58,4.58,0,0,0-1.63.3C82.91,89.19,83.17,90,83.46,90.69Z" transform="translate(-6.84 -3.7)"/><path class="cls-1" d="M85.24,94.28a23.52,23.52,0,0,0,1.45,2,4.49,4.49,0,0,0,2.09-3.78A4.48,4.48,0,0,0,85.24,94.28Z" transform="translate(-6.84 -3.7)"/><path class="cls-1" d="M81.75,84.05a32.25,32.25,0,0,0,.74,3.65,4.56,4.56,0,0,0,1.82.39A4.47,4.47,0,0,0,81.75,84.05Z" transform="translate(-6.84 -3.7)"/><path class="cls-1" d="M81.64,83.24a4.47,4.47,0,0,0,2.67-4.09,4.44,4.44,0,0,0-2.92,1.09C81.44,81.28,81.53,82.28,81.64,83.24Z" transform="translate(-6.84 -3.7)"/><rect class="cls-1" x="74.49" y="27.81" width="4.77" height="4.77"/><path class="cls-1" d="M127.85,96.87c.33-.34.65-.69,1-1a4.47,4.47,0,0,0-4.3-3.28A4.47,4.47,0,0,0,127.85,96.87Z" transform="translate(-6.84 -3.7)"/><rect class="cls-1" x="146.83" y="79.58" width="2.04" height="2.04" transform="translate(-20.54 124.4) rotate(-44.98)"/><polygon class="cls-1" points="145.94 80.39 144.5 78.94 143.06 80.39 144.5 81.84 145.94 80.39"/><rect class="cls-1" x="139.86" y="79.58" width="2.04" height="2.04" transform="translate(-22.57 119.52) rotate(-45)"/><rect class="cls-1" x="132.88" y="79.58" width="2.04" height="2.04" transform="translate(-24.63 114.53) rotate(-44.98)"/><rect class="cls-1" x="139.86" y="93.53" width="2.04" height="2.04" transform="translate(-32.42 123.67) rotate(-45.02)"/><polygon class="cls-1" points="138.97 80.39 137.53 78.94 136.09 80.39 137.53 81.84 138.97 80.39"/><rect class="cls-1" x="143.35" y="90.05" width="2.04" height="2.04" transform="translate(-28.96 125) rotate(-44.98)"/><polygon class="cls-1" points="134.04 99.27 135.48 97.83 134.04 96.38 132.6 97.83 134.04 99.27"/><rect class="cls-1" x="132.88" y="100.51" width="2.05" height="2.05" transform="translate(-39.39 120.83) rotate(-45.04)"/><rect class="cls-1" x="129.39" y="83.07" width="2.04" height="2.04" transform="translate(-28.15 112.94) rotate(-44.92)"/><polygon class="cls-1" points="122.14 94.34 123.58 95.78 125.03 94.34 123.58 92.89 122.14 94.34"/><rect class="cls-1" x="129.4" y="90.05" width="2.04" height="2.04" transform="translate(-33.05 115.09) rotate(-44.96)"/><rect class="cls-1" x="132.88" y="86.56" width="2.04" height="2.04" transform="translate(-29.51 116.79) rotate(-45.06)"/><rect class="cls-1" x="132.88" y="93.53" width="2.04" height="2.04" transform="translate(-34.49 118.61) rotate(-44.98)"/><polygon class="cls-1" points="129.11 87.37 129.11 85.32 127.06 85.32 125.03 85.32 125.03 87.37 125.03 89.41 127.06 89.41 129.11 89.41 129.11 87.37"/><polygon class="cls-1" points="127.06 92.3 125.03 92.3 125.03 94.34 125.03 96.38 127.06 96.38 129.11 96.38 129.11 94.34 129.11 92.3 127.06 92.3"/><rect class="cls-1" x="143.35" y="97.02" width="2.04" height="2.04" transform="translate(-33.88 127.1) rotate(-45)"/><rect class="cls-1" x="136.37" y="90.05" width="2.04" height="2.04" transform="translate(-30.99 120.12) rotate(-45)"/><rect class="cls-1" x="136.37" y="97.02" width="2.04" height="2.04" transform="translate(-35.92 122.16) rotate(-45)"/><polygon class="cls-1" points="134.04 92.3 132 92.3 132 94.34 132 96.38 134.04 96.38 136.09 96.38 136.09 94.34 136.09 92.3 134.04 92.3"/><polygon class="cls-1" points="132 87.37 132 89.41 134.04 89.41 136.09 89.41 136.09 87.37 136.09 85.32 134.04 85.32 132 85.32 132 87.37"/><rect class="cls-1" x="139.86" y="86.56" width="2.04" height="2.04" transform="translate(-27.54 121.4) rotate(-44.94)"/><polygon class="cls-1" points="132 80.39 130.55 78.94 129.11 80.39 130.55 81.84 132 80.39"/><polygon class="cls-1" points="129.11 80.39 129.11 78.35 127.06 78.35 125.03 78.35 125.03 80.39 125.03 82.43 127.06 82.43 129.11 82.43 129.11 80.39"/><polygon class="cls-1" points="134.04 82.43 136.09 82.43 136.09 80.39 136.09 78.35 134.04 78.35 132 78.35 132 80.39 132 82.43 134.04 82.43"/><path class="cls-1" d="M106.63,92.55A4.47,4.47,0,0,0,102.17,97,4.46,4.46,0,0,0,106.63,92.55Z" transform="translate(-6.84 -3.7)"/><path class="cls-1" d="M111.1,97a4.47,4.47,0,0,0,4.47,4.47A4.47,4.47,0,0,0,111.1,97Z" transform="translate(-6.84 -3.7)"/><path class="cls-1" d="M97.71,92.55A4.46,4.46,0,0,0,102.17,97,4.47,4.47,0,0,0,97.71,92.55Z" transform="translate(-6.84 -3.7)"/><path class="cls-1" d="M106.63,92.55A4.47,4.47,0,0,0,111.1,97,4.47,4.47,0,0,0,106.63,92.55Z" transform="translate(-6.84 -3.7)"/><path class="cls-1" d="M106.63,101.49A4.47,4.47,0,0,0,111.1,97,4.47,4.47,0,0,0,106.63,101.49Z" transform="translate(-6.84 -3.7)"/><polygon class="cls-1" points="141.02 99.27 142.46 97.83 141.02 96.38 139.57 97.83 141.02 99.27"/><path class="cls-1" d="M97.71,101.49A4.47,4.47,0,0,0,102.17,97,4.46,4.46,0,0,0,97.71,101.49Z" transform="translate(-6.84 -3.7)"/><path class="cls-1" d="M102.17,97a4.47,4.47,0,0,0,4.46,4.47A4.46,4.46,0,0,0,102.17,97Z" transform="translate(-6.84 -3.7)"/><path class="cls-1" d="M88.78,83.62a4.47,4.47,0,0,0-4.47,4.47A4.47,4.47,0,0,0,88.78,83.62Z" transform="translate(-6.84 -3.7)"/><path class="cls-1" d="M93.23,97a4.48,4.48,0,0,0,4.48,4.47A4.48,4.48,0,0,0,93.23,97Z" transform="translate(-6.84 -3.7)"/><path class="cls-1" d="M84.31,88.09a4.47,4.47,0,0,0,4.47,4.46A4.47,4.47,0,0,0,84.31,88.09Z" transform="translate(-6.84 -3.7)"/><path class="cls-1" d="M93.23,88.09a4.46,4.46,0,0,0-4.45-4.47A4.46,4.46,0,0,0,93.23,88.09Z" transform="translate(-6.84 -3.7)"/><path class="cls-1" d="M93.23,88.09a4.46,4.46,0,0,0-4.45,4.46A4.46,4.46,0,0,0,93.23,88.09Z" transform="translate(-6.84 -3.7)"/><path class="cls-1" d="M97.71,92.55A4.48,4.48,0,0,0,93.23,97,4.48,4.48,0,0,0,97.71,92.55Z" transform="translate(-6.84 -3.7)"/><path class="cls-1" d="M88.78,92.55A4.46,4.46,0,0,0,93.23,97,4.46,4.46,0,0,0,88.78,92.55Z" transform="translate(-6.84 -3.7)"/><rect class="cls-1" x="122.13" y="65.25" width="23.81" height="3.4"/><path class="cls-1" d="M120.75,81.58a4.46,4.46,0,0,0,3.75,2A4.42,4.42,0,0,0,123,80.3,13.47,13.47,0,0,1,120.75,81.58Z" transform="translate(-6.84 -3.7)"/><rect class="cls-1" x="122.13" y="72.05" width="23.81" height="3.4"/><path class="cls-1" d="M115.57,101.49A4.47,4.47,0,0,0,120,97,4.47,4.47,0,0,0,115.57,101.49Z" transform="translate(-6.84 -3.7)"/><path class="cls-1" d="M127.23,75.63a15.4,15.4,0,0,1-1.49,2.14A4.45,4.45,0,0,0,129,79.15,4.42,4.42,0,0,0,127.23,75.63Z" transform="translate(-6.84 -3.7)"/><path class="cls-1" d="M150.4,33.9H148V31.51h-2.39V33.9h-2.38v2.38h-4.77V33.9h-2.38V31.51h-2.38V33.9h-2.38v2.38H129v2.38h2.38V41h2.38v4.77h-2.38v2.38H129v2.38h2.38V53h2.38v2.39H129v3.4h23.81v-3.4H148V53h2.37V50.57h2.38V48.19H150.4V45.81H148V41h2.37V38.66h2.38V36.28H150.4Zm-4.76,21.44h-9.53V53h2.38V50.57h4.77V53h2.38Zm0-9.53h-2.38v2.38h-4.77V45.81h-2.38V41h2.38V38.66h4.77V41h2.38Z" transform="translate(-6.84 -3.7)"/><path class="cls-1" d="M93.23,79.15a4.46,4.46,0,0,0-4.45,4.47A4.46,4.46,0,0,0,93.23,79.15Z" transform="translate(-6.84 -3.7)"/><rect class="cls-1" x="122.13" y="58.44" width="23.81" height="3.4"/><path class="cls-1" d="M124.5,83.62A4.47,4.47,0,0,0,129,79.15,4.47,4.47,0,0,0,124.5,83.62Z" transform="translate(-6.84 -3.7)"/><path class="cls-1" d="M120,88.09a4.46,4.46,0,0,0,4.46,4.46A4.46,4.46,0,0,0,120,88.09Z" transform="translate(-6.84 -3.7)"/><path class="cls-1" d="M120,97a4.47,4.47,0,0,0,4.46-4.47A4.46,4.46,0,0,0,120,97Z" transform="translate(-6.84 -3.7)"/><path class="cls-1" d="M120,88.09a4.47,4.47,0,0,0,4.46-4.47A4.46,4.46,0,0,0,120,88.09Z" transform="translate(-6.84 -3.7)"/><path class="cls-1" d="M115.57,92.55A4.47,4.47,0,0,0,120,97,4.47,4.47,0,0,0,115.57,92.55Z" transform="translate(-6.84 -3.7)"/><path class="cls-1" d="M124.5,92.55A4.47,4.47,0,0,0,129,88.09,4.47,4.47,0,0,0,124.5,92.55Z" transform="translate(-6.84 -3.7)"/><path class="cls-1" d="M129,88.09a4.47,4.47,0,0,0-4.47-4.47A4.47,4.47,0,0,0,129,88.09Z" transform="translate(-6.84 -3.7)"/><path class="cls-1" d="M111.1,88.09a4.47,4.47,0,0,0-4.47-4.47A4.47,4.47,0,0,0,111.1,88.09Z" transform="translate(-6.84 -3.7)"/><path class="cls-1" d="M93.23,88.09a4.47,4.47,0,0,0,4.48,4.46A4.47,4.47,0,0,0,93.23,88.09Z" transform="translate(-6.84 -3.7)"/><path class="cls-1" d="M97.71,92.55a4.46,4.46,0,0,0,4.46-4.46A4.46,4.46,0,0,0,97.71,92.55Z" transform="translate(-6.84 -3.7)"/><path class="cls-1" d="M97.71,83.62a4.46,4.46,0,0,0,4.46,4.47A4.47,4.47,0,0,0,97.71,83.62Z" transform="translate(-6.84 -3.7)"/><path class="cls-1" d="M102.17,88.09a4.46,4.46,0,0,0,4.46,4.46A4.46,4.46,0,0,0,102.17,88.09Z" transform="translate(-6.84 -3.7)"/><path class="cls-1" d="M97.71,83.62a4.48,4.48,0,0,0-4.48,4.47A4.48,4.48,0,0,0,97.71,83.62Z" transform="translate(-6.84 -3.7)"/><path class="cls-1" d="M93.23,79.15a4.48,4.48,0,0,0,4.48,4.47A4.48,4.48,0,0,0,93.23,79.15Z" transform="translate(-6.84 -3.7)"/><path class="cls-1" d="M84.31,79.15a4.47,4.47,0,0,0,4.47,4.47A4.47,4.47,0,0,0,84.31,79.15Z" transform="translate(-6.84 -3.7)"/><path class="cls-1" d="M106.63,83.62a4.46,4.46,0,0,0-4.46-4.47A4.47,4.47,0,0,0,106.63,83.62Z" transform="translate(-6.84 -3.7)"/><path class="cls-1" d="M97.71,83.62a4.47,4.47,0,0,0,4.46-4.47A4.46,4.46,0,0,0,97.71,83.62Z" transform="translate(-6.84 -3.7)"/><rect class="cls-1" x="81.3" y="58.44" width="10.21" height="10.2"/><path class="cls-1" d="M102.17,79.15h3V50.57h-4.76v4.77H95.62V50.57h4.77V45.81h4.76V41h-4.76V36.28H95.62V31.51H90.86v4.77H86.1V41H81.33v4.77H86.1v4.76h4.76v4.77H86.1V50.57H81.33V79.15h20.84ZM90.86,41h4.76v4.77H90.86Zm-6.13,17.7h17v17h-17Z" transform="translate(-6.84 -3.7)"/><path class="cls-1" d="M102.17,88.09a4.46,4.46,0,0,0,4.46-4.47A4.47,4.47,0,0,0,102.17,88.09Z" transform="translate(-6.84 -3.7)"/><path class="cls-1" d="M106.63,92.55a4.47,4.47,0,0,0,4.47-4.46A4.47,4.47,0,0,0,106.63,92.55Z" transform="translate(-6.84 -3.7)"/><path class="cls-1" d="M96.1,18.26a16.75,16.75,0,0,0-1.17,5.3,17.32,17.32,0,0,0,5.3-1.17A17.27,17.27,0,0,0,103.15,27a17.06,17.06,0,0,0,2.93-4.58,17.32,17.32,0,0,0,5.3,1.17,17,17,0,0,0-1.17-5.3,17.22,17.22,0,0,0,4.58-2.93h0a17.43,17.43,0,0,0-4.58-2.92,17,17,0,0,0,1.17-5.3h0a17.61,17.61,0,0,0-5.3,1.16,17.38,17.38,0,0,0-2.92-4.57h0a17.38,17.38,0,0,0-2.92,4.57,17.61,17.61,0,0,0-5.3-1.16h0a16.75,16.75,0,0,0,1.17,5.3,17.27,17.27,0,0,0-4.58,2.92h0A17.06,17.06,0,0,0,96.1,18.26Zm4.71-3.9a5.3,5.3,0,0,1-.39-1.77h0a6.09,6.09,0,0,1,1.76.39,5.85,5.85,0,0,1,1-1.52h0a5.56,5.56,0,0,1,1,1.52,6.15,6.15,0,0,1,1.77-.39h0a5.83,5.83,0,0,1-.38,1.77,6,6,0,0,1,1.52,1,5.8,5.8,0,0,1-1.52,1,5.7,5.7,0,0,1,.38,1.76,5.55,5.55,0,0,1-1.77-.39,5.23,5.23,0,0,1-1,1.52,6,6,0,0,1-1-1.52,5.49,5.49,0,0,1-1.76.39,5.19,5.19,0,0,1,.39-1.76,5.54,5.54,0,0,1-1.53-1A5.74,5.74,0,0,1,100.81,14.36Z" transform="translate(-6.84 -3.7)"/><path class="cls-1" d="M123.91,18.26a17,17,0,0,0-1.17,5.3,17.32,17.32,0,0,0,5.3-1.17A17.27,17.27,0,0,0,131,27a17.31,17.31,0,0,0,2.93-4.58,17.32,17.32,0,0,0,5.3,1.17,17.32,17.32,0,0,0-1.17-5.3,17.38,17.38,0,0,0,4.58-2.93h0A17.6,17.6,0,0,0,138,12.41a17.32,17.32,0,0,0,1.17-5.3h0a17.61,17.61,0,0,0-5.3,1.16A17.38,17.38,0,0,0,131,3.7h0A17.38,17.38,0,0,0,128,8.27a17.61,17.61,0,0,0-5.3-1.16h0a17,17,0,0,0,1.17,5.3,17.49,17.49,0,0,0-4.59,2.92h0A17.27,17.27,0,0,0,123.91,18.26Zm4.71-3.9a5.55,5.55,0,0,1-.39-1.77h0A6.09,6.09,0,0,1,130,13a5.85,5.85,0,0,1,1-1.52h0a5.85,5.85,0,0,1,1,1.52,6,6,0,0,1,1.76-.39h0a5.83,5.83,0,0,1-.38,1.77,6,6,0,0,1,1.52,1,5.8,5.8,0,0,1-1.52,1,5.7,5.7,0,0,1,.38,1.76,5.44,5.44,0,0,1-1.76-.39,5.49,5.49,0,0,1-1,1.52,5.69,5.69,0,0,1-1-1.52,5.49,5.49,0,0,1-1.76.39,5.44,5.44,0,0,1,.39-1.76,5.54,5.54,0,0,1-1.53-1A5.74,5.74,0,0,1,128.62,14.36Z" transform="translate(-6.84 -3.7)"/></svg>