<svg id="Group_65" data-name="Group 65" xmlns="http://www.w3.org/2000/svg" xmlns:xlink="http://www.w3.org/1999/xlink" width="370.17" height="353.035" viewBox="0 0 370.17 353.035">
  <defs>
	<clipPath id="clip-path">
	  <rect id="Rectangle_27" data-name="Rectangle 27" width="370.17" height="353.035" fill="none"/>
	</clipPath>
	<clipPath id="clip-path-3">
	  <path id="Path_35" data-name="Path 35" d="M130.376,114.371c-3.415,2.537-101.983,4.492-110.342,28.98s69.2,84.8,70.538,89.941S67.18,332.708,85.691,345.416c10.283,7.061,40.306-5.455,65.863-17.971,20.449-10.014,38.038-20.029,40.37-20.015,5.242.031,91.194,50.439,106.232,37.987s-4.969-109.3-3.155-113.849,76.7-69.723,68.809-88.215S259.118,116.815,255.2,114.371s-37.594-95.9-63.274-95.9-58.135,93.365-61.548,95.9" transform="translate(-19.405 -18.467)" fill="none"/>
	</clipPath>
	<linearGradient id="linear-gradient" x1="0.126" y1="0.849" x2="0.127" y2="0.849" gradientUnits="objectBoundingBox">
	  <stop offset="0" stop-color="#fff466"/>
	  <stop offset="0.048" stop-color="#fff466"/>
	  <stop offset="0.285" stop-color="#ffed60"/>
	  <stop offset="0.623" stop-color="#ffda51"/>
	  <stop offset="0.86" stop-color="#ffc943"/>
	  <stop offset="1" stop-color="#ffc943"/>
	</linearGradient>
	<clipPath id="clip-path-5">
	  <rect id="Rectangle_25" data-name="Rectangle 25" width="191.74" height="41.022" fill="none"/>
	</clipPath>
	<clipPath id="clip-path-6">
	  <rect id="Rectangle_23" data-name="Rectangle 23" width="44.434" height="41.022" fill="none"/>
	</clipPath>
	<clipPath id="clip-path-7">
	  <rect id="Rectangle_24" data-name="Rectangle 24" width="44.433" height="41.022" fill="none"/>
	</clipPath>
  </defs>
  <g id="Group_64" data-name="Group 64" clip-path="url(#clip-path)">
	<g id="Group_50" data-name="Group 50">
	  <g id="Group_49" data-name="Group 49" clip-path="url(#clip-path)">
		<path id="Path_34" data-name="Path 34" d="M185.119,0c27.552,0,65.533,96.564,69.738,99.184s106.215,14.961,114.675,34.8S299.5,225.6,297.56,230.481s17.664,106.938,1.532,120.3-108.349-38.873-113.973-38.9S91,364.411,71.145,350.777,74.111,236,72.678,230.481-8.261,160.254.705,133.983s111.012-32.078,114.674-34.8S157.567,0,185.119,0" transform="translate(0)" fill="#ffbd39"/>
	  </g>
	</g>
	<g id="Group_52" data-name="Group 52" transform="translate(12.598 11.989)">
	  <g id="Group_51" data-name="Group 51" clip-path="url(#clip-path-3)">
		<rect id="Rectangle_22" data-name="Rectangle 22" width="493.838" height="491.184" transform="matrix(0.769, -0.64, 0.64, 0.769, -174.615, 138.93)" fill="url(#linear-gradient)"/>
	  </g>
	</g>
	<g id="Group_63" data-name="Group 63">
	  <g id="Group_62" data-name="Group 62" clip-path="url(#clip-path)">
		<path id="Path_36" data-name="Path 36" d="M58.337,210.575c-1.556-17.434,55.692-26.938,57.949-6.531s-55.82,30.282-57.949,6.531" transform="translate(-20.452 -67.525)" fill="#fff"/>
		<path id="Path_37" data-name="Path 37" d="M170.248,196.942c-.28-11.2,16.806-11.663,17.573-2.461.859,10.3-17.31,12.944-17.573,2.461" transform="translate(-59.716 -65.952)" fill="#fff"/>
		<path id="Path_38" data-name="Path 38" d="M141.351,236.361c-5.46-4.617,2.661-25.154,24.386-25.154s29.43,20.232,24.917,25.154c-3.9,4.256-8.691-13.193-24.387-13.193s-20.3,17.093-24.916,13.193" transform="translate(-49.004 -74.085)" fill="#541300"/>
		<path id="Path_39" data-name="Path 39" d="M347.371,236.361c-5.459-4.617,2.662-25.154,24.387-25.154s29.429,20.232,24.916,25.154c-3.9,4.256-8.689-13.193-24.386-13.193s-20.3,17.093-24.916,13.193" transform="translate(-121.269 -74.085)" fill="#541300"/>
		<g id="Group_61" data-name="Group 61" transform="translate(87.453 176.885)" opacity="0.6">
		  <g id="Group_60" data-name="Group 60">
			<g id="Group_59" data-name="Group 59" clip-path="url(#clip-path-5)">
			  <g id="Group_55" data-name="Group 55" opacity="0.6">
				<g id="Group_54" data-name="Group 54">
				  <g id="Group_53" data-name="Group 53" clip-path="url(#clip-path-6)">
					<path id="Path_40" data-name="Path 40" d="M179.137,292.962c0,11.327-9.948,20.514-22.217,20.514S134.7,304.289,134.7,292.962s9.948-20.509,22.217-20.509,22.217,9.182,22.217,20.509" transform="translate(-134.703 -272.453)" fill="#ff5f82"/>
				  </g>
				</g>
			  </g>
			  <g id="Group_58" data-name="Group 58" transform="translate(147.307)" opacity="0.6">
				<g id="Group_57" data-name="Group 57">
				  <g id="Group_56" data-name="Group 56" clip-path="url(#clip-path-7)">
					<path id="Path_41" data-name="Path 41" d="M406.03,292.962c0,11.327-9.948,20.514-22.217,20.514S361.6,304.289,361.6,292.962s9.946-20.509,22.215-20.509,22.217,9.182,22.217,20.509" transform="translate(-361.597 -272.453)" fill="#ff5f82"/>
				  </g>
				</g>
			  </g>
			</g>
		  </g>
		</g>
		<path id="Path_42" data-name="Path 42" d="M247.67,294.375c3.874-3.118,47.094-3.118,51.015,0s-2.7,40.927-24.919,40.927-29.967-37.809-26.1-40.927" transform="translate(-86.54 -102.437)" fill="#872a2a"/>
		<path id="Path_43" data-name="Path 43" d="M279.622,326.651c-1.9.164-9.849-7.375-14.986-3.793s4.509,19.277,15.271,18.993,18.053-15.724,13.54-18.993-10.2,3.481-13.825,3.793" transform="translate(-92.328 -112.909)" fill="#f982b3"/>
	  </g>
	</g>
  </g>
</svg>
