<svg id="Group_31" data-name="Group 31" xmlns="http://www.w3.org/2000/svg" xmlns:xlink="http://www.w3.org/1999/xlink" width="370.16" height="353.027" viewBox="0 0 370.16 353.027">
  <defs>
	<clipPath id="clip-path">
	  <rect id="Rectangle_13" data-name="Rectangle 13" width="370.16" height="353.027" fill="none"/>
	</clipPath>
	<clipPath id="clip-path-3">
	  <path id="Path_15" data-name="Path 15" d="M130.372,114.369c-3.414,2.537-101.981,4.492-110.339,28.979s69.2,84.795,70.538,89.94-23.4,99.413-4.883,112.12c10.283,7.061,40.306-5.455,65.862-17.971,20.448-10.014,38.037-20.028,40.367-20.015,5.244.031,91.2,50.437,106.23,37.986s-4.968-109.3-3.154-113.846,76.7-69.721,68.807-88.213-104.689-26.535-108.609-28.979-37.594-95.9-63.274-95.9-58.131,93.363-61.545,95.9" transform="translate(-19.404 -18.468)" fill="none"/>
	</clipPath>
	<linearGradient id="linear-gradient" x1="0.126" y1="0.849" x2="0.127" y2="0.849" gradientUnits="objectBoundingBox">
	  <stop offset="0" stop-color="#fff466"/>
	  <stop offset="0.043" stop-color="#fff466"/>
	  <stop offset="0.075" stop-color="#fff466"/>
	  <stop offset="0.314" stop-color="#ffeb5f"/>
	  <stop offset="0.687" stop-color="#ffd54d"/>
	  <stop offset="0.86" stop-color="#ffc943"/>
	  <stop offset="1" stop-color="#ffc943"/>
	</linearGradient>
	<clipPath id="clip-path-5">
	  <rect id="Rectangle_11" data-name="Rectangle 11" width="196.202" height="41.021" fill="none"/>
	</clipPath>
	<clipPath id="clip-path-6">
	  <rect id="Rectangle_9" data-name="Rectangle 9" width="44.435" height="41.021" fill="none"/>
	</clipPath>
	<clipPath id="clip-path-7">
	  <rect id="Rectangle_10" data-name="Rectangle 10" width="44.434" height="41.021" fill="none"/>
	</clipPath>
  </defs>
  <g id="Group_30" data-name="Group 30" clip-path="url(#clip-path)">
	<g id="Group_16" data-name="Group 16">
	  <g id="Group_15" data-name="Group 15" clip-path="url(#clip-path)">
		<path id="Path_14" data-name="Path 14" d="M185.113,0c27.553,0,65.531,96.562,69.738,99.182s106.209,14.961,114.67,34.8-70.026,91.613-71.971,96.5,17.664,106.934,1.533,120.293-108.346-38.872-113.97-38.9S91,364.4,71.143,350.769,74.107,236,72.676,230.476-8.263,160.25.705,133.98s111.007-32.077,114.672-34.8S157.563,0,185.113,0" transform="translate(0)" fill="#ffbd39"/>
	  </g>
	</g>
	<g id="Group_18" data-name="Group 18" transform="translate(12.597 11.99)">
	  <g id="Group_17" data-name="Group 17" clip-path="url(#clip-path-3)">
		<rect id="Rectangle_8" data-name="Rectangle 8" width="493.827" height="491.173" transform="matrix(0.769, -0.64, 0.64, 0.769, -174.611, 138.926)" fill="url(#linear-gradient)"/>
	  </g>
	</g>
	<g id="Group_29" data-name="Group 29">
	  <g id="Group_28" data-name="Group 28" clip-path="url(#clip-path)">
		<path id="Path_16" data-name="Path 16" d="M54.97,207.782c-1.785-17.411,55.335-27.66,57.859-7.287s-55.418,31.01-57.859,7.287" transform="translate(-19.268 -66.382)" fill="#fff"/>
		<path id="Path_17" data-name="Path 17" d="M166.634,192.879c-.429-11.2,16.648-11.883,17.538-2.692.991,10.287-17.141,13.169-17.538,2.692" transform="translate(-58.45 -64.486)" fill="#fff"/>
		<g id="Group_27" data-name="Group 27" transform="translate(86.981 199.216)" opacity="0.6">
		  <g id="Group_26" data-name="Group 26">
			<g id="Group_25" data-name="Group 25" clip-path="url(#clip-path-5)">
			  <g id="Group_21" data-name="Group 21" opacity="0.6">
				<g id="Group_20" data-name="Group 20">
				  <g id="Group_19" data-name="Group 19" clip-path="url(#clip-path-6)">
					<path id="Path_18" data-name="Path 18" d="M178.413,327.366c0,11.327-9.949,20.513-22.216,20.513s-22.219-9.186-22.219-20.513,9.949-20.508,22.219-20.508,22.216,9.182,22.216,20.508" transform="translate(-133.978 -306.857)" fill="#ff5f82"/>
				  </g>
				</g>
			  </g>
			  <g id="Group_24" data-name="Group 24" transform="translate(151.768)" opacity="0.6">
				<g id="Group_23" data-name="Group 23" transform="translate(0)">
				  <g id="Group_22" data-name="Group 22" clip-path="url(#clip-path-7)">
					<path id="Path_19" data-name="Path 19" d="M412.183,327.366c0,11.327-9.947,20.513-22.217,20.513s-22.216-9.186-22.216-20.513,9.946-20.508,22.216-20.508,22.217,9.182,22.217,20.508" transform="translate(-367.75 -306.857)" fill="#ff5f82"/>
				  </g>
				</g>
			  </g>
			</g>
		  </g>
		</g>
		<path id="Path_20" data-name="Path 20" d="M176.3,232.432c-34.656,2.231-25.255,53.212,2.59,52.279s32.062-54.511-2.59-52.279" transform="translate(-54.002 -81.51)" fill="#541300"/>
		<path id="Path_21" data-name="Path 21" d="M203.3,269.413c-7.371-.654-9.714,13.276-1.365,14.571s11.838-13.647,1.365-14.571" transform="translate(-68.98 -94.498)" fill="#fff"/>
		<path id="Path_22" data-name="Path 22" d="M368.419,232.432c34.654,2.231,25.256,53.212-2.593,52.279s-32.062-54.511,2.593-52.279" transform="translate(-120.558 -81.51)" fill="#541300"/>
		<path id="Path_23" data-name="Path 23" d="M359.753,269.413c7.372-.654,9.714,13.276,1.365,14.571s-11.835-13.647-1.365-14.571" transform="translate(-123.919 -94.498)" fill="#fff"/>
		<path id="Path_24" data-name="Path 24" d="M235.414,351.852c-5.664,7.978,2.521,14.136,7.9,6.729,10.347-14.255,38.221-13.065,48.72,0,5.7,7.091,13.026,1.7,7.9-6.729-12.059-19.823-48.78-22.169-64.513,0" transform="translate(-81.908 -117.896)" fill="#872a2a"/>
	  </g>
	</g>
  </g>
</svg>
