<?xml version="1.0" encoding="utf-8"?>
<!-- Generator: Adobe Illustrator 26.1.0, SVG Export Plug-In . SVG Version: 6.00 Build 0)  -->
<svg version="1.1" id="Layer_1" xmlns="http://www.w3.org/2000/svg" xmlns:xlink="http://www.w3.org/1999/xlink" x="0px" y="0px"
	 viewBox="0 0 308.99 278.95" style="enable-background:new 0 0 308.99 278.95;" xml:space="preserve">
<style type="text/css">
	.st0{opacity:0.15;fill:#4C3844;}
	.st1{fill:#E7B84C;}
	.st2{fill:#4C3844;}
	.st3{fill:#C84763;}
	.st4{fill:#88D0C4;}
	.st5{fill:#B84964;}
	.st6{fill:none;stroke:#4C3844;stroke-width:4;stroke-linecap:round;stroke-linejoin:round;stroke-miterlimit:10;}
	.st7{opacity:0.1;fill:#010101;}
	.st8{fill:#E7AF55;}
	.st9{fill:#FFFFFF;}
	.st10{fill:#96374D;}
	.st11{fill:#4C3844;stroke:#E7B84C;stroke-width:2;stroke-miterlimit:10;}
	.st12{fill:none;}
	.st13{font-family:'Metropolis-SemiBold';}
	.st14{font-size:22.68px;}
</style>
<g>
	<path class="st0" d="M251.74,262.18c0,4.48-3.63,8.11-8.11,8.11H65.31c-4.48,0-8.11-3.63-8.11-8.11l0,0c0-4.48,3.63-8.11,8.11-8.11
		h178.32C248.11,254.07,251.74,257.7,251.74,262.18L251.74,262.18z"/>
	<g>
		<g>
			<g>
				<path class="st1" d="M170.35,259.17l2.27-51.77c0-4.64,2.9-8.39,7.87-8.39h2.4c4.98,0,7.87,3.76,7.87,8.39l2.27,51.77"/>
				<path class="st2" d="M198.03,259.68c0,2.47-2,4.48-4.47,4.48h-23.73c-2.47,0-4.47-2-4.47-4.48l0,0c0-2.47,2-4.47,4.47-4.47
					h23.73C196.03,255.2,198.03,257.21,198.03,259.68L198.03,259.68z"/>
				<g>
					<g>
						<path class="st2" d="M194.73,229.79c0,1.62-1.31,2.93-2.93,2.93h-20.23c-1.62,0-2.93-1.31-2.93-2.93l0,0
							c0-1.62,1.31-2.93,2.93-2.93h20.23C193.42,226.86,194.73,228.17,194.73,229.79L194.73,229.79z"/>
						<path class="st2" d="M194.73,238.86c0,1.62-1.31,2.93-2.93,2.93h-20.23c-1.62,0-2.93-1.31-2.93-2.93l0,0
							c0-1.62,1.31-2.93,2.93-2.93h20.23C193.42,235.93,194.73,237.24,194.73,238.86L194.73,238.86z"/>
					</g>
					<g>
						<path class="st3" d="M187.36,234.56c0,3.13-2.54,5.67-5.67,5.67c-3.13,0-5.67-2.54-5.67-5.67c0-3.13,2.54-5.67,5.67-5.67
							C184.82,228.88,187.36,231.42,187.36,234.56z"/>
						<path class="st4" d="M184.53,234.56c0,1.57-1.27,2.83-2.83,2.83c-1.57,0-2.84-1.27-2.84-2.83c0-1.57,1.27-2.84,2.84-2.84
							C183.25,231.72,184.53,232.99,184.53,234.56z"/>
					</g>
				</g>
			</g>
			<g>
				<path class="st1" d="M115.92,259.17l2.27-51.77c0-4.64,2.9-8.39,7.87-8.39h2.4c4.98,0,7.87,3.76,7.87,8.39l2.27,51.77"/>
				<path class="st2" d="M143.6,259.68c0,2.47-2,4.48-4.47,4.48h-23.73c-2.47,0-4.47-2-4.47-4.48l0,0c0-2.47,2-4.47,4.47-4.47h23.73
					C141.6,255.2,143.6,257.21,143.6,259.68L143.6,259.68z"/>
				<g>
					<g>
						<path class="st2" d="M140.3,229.79c0,1.62-1.31,2.93-2.93,2.93h-20.23c-1.62,0-2.93-1.31-2.93-2.93l0,0
							c0-1.62,1.31-2.93,2.93-2.93h20.23C138.99,226.86,140.3,228.17,140.3,229.79L140.3,229.79z"/>
						<path class="st2" d="M140.3,238.86c0,1.62-1.31,2.93-2.93,2.93h-20.23c-1.62,0-2.93-1.31-2.93-2.93l0,0
							c0-1.62,1.31-2.93,2.93-2.93h20.23C138.99,235.93,140.3,237.24,140.3,238.86L140.3,238.86z"/>
					</g>
					<g>
						<path class="st3" d="M132.93,234.56c0,3.13-2.54,5.67-5.67,5.67c-3.13,0-5.67-2.54-5.67-5.67c0-3.13,2.54-5.67,5.67-5.67
							C130.39,228.88,132.93,231.42,132.93,234.56z"/>
						<path class="st4" d="M130.09,234.56c0,1.57-1.27,2.83-2.83,2.83c-1.57,0-2.83-1.27-2.83-2.83c0-1.57,1.27-2.84,2.83-2.84
							C128.82,231.72,130.09,232.99,130.09,234.56z"/>
					</g>
				</g>
			</g>
		</g>
		<g>
			<path class="st2" d="M156.14,52.53c0,0.92-0.75,1.67-1.67,1.67l0,0c-0.92,0-1.66-0.75-1.66-1.67V31.63
				c0-0.92,0.74-1.67,1.66-1.67l0,0c0.92,0,1.67,0.75,1.67,1.67V52.53z"/>
			<path class="st4" d="M182.09,69.23c0,14.09-12.36,20.98-27.61,20.98c-15.25,0-27.62-6.89-27.62-20.98
				c0-14.09,12.37-25.52,27.62-25.52C169.73,43.72,182.09,55.14,182.09,69.23z"/>
			<path class="st1" d="M187.53,67.92c0,1.48-1.2,2.69-2.68,2.69H124.1c-1.48,0-2.68-1.2-2.68-2.69l0,0c0-1.48,1.2-2.68,2.68-2.68
				h60.75C186.33,65.23,187.53,66.43,187.53,67.92L187.53,67.92z"/>
			<path class="st1" d="M158.9,28.45c0,2.44-1.98,4.42-4.42,4.42c-2.44,0-4.42-1.98-4.42-4.42c0-2.44,1.98-4.42,4.42-4.42
				C156.92,24.03,158.9,26.01,158.9,28.45z"/>
			<path class="st5" d="M164.45,42.51c0,1.56-1.27,2.83-2.83,2.83h-14.29c-1.57,0-2.84-1.27-2.84-2.83l0,0
				c0-1.57,1.27-2.83,2.84-2.83h14.29C163.19,39.68,164.45,40.94,164.45,42.51L164.45,42.51z"/>
		</g>
		<g>
			<g>
				<g>
					<g>
						<path class="st2" d="M204.3,131.25c2.51-0.29,5.04-0.42,7.56-0.23c0.27,0.02,1.34,0.29,1.52,0.15
							c-0.18,0.15-0.96-0.15-0.32-0.04c0.28,0.05,0.57,0.1,0.85,0.15c0.98,0.19,1.96,0.44,2.91,0.76c0.4,0.13,0.81,0.35,1.22,0.45
							c-1.33-0.32-0.09-0.03,0.3,0.17c0.8,0.4,1.57,0.85,2.3,1.35c0.08,0.05,0.57,0.33,0.58,0.42c0-0.01-0.83-0.69-0.35-0.27
							c0.32,0.29,0.65,0.55,0.97,0.85c0.63,0.59,1.19,1.22,1.74,1.87c0.55,0.64-0.14-0.28-0.2-0.27c0.05-0.01,0.37,0.51,0.41,0.57
							c0.22,0.32,0.44,0.65,0.65,0.98c0.46,0.74,0.88,1.51,1.27,2.3c0.15,0.31,0.29,0.84,0.51,1.1c-0.55-0.68-0.31-0.77-0.12-0.28
							c0.07,0.19,0.15,0.38,0.22,0.58c0.33,0.86,0.62,1.74,0.87,2.62c0.53,1.8,0.92,3.63,1.23,5.48c0.08,0.49,0.15,0.97,0.23,1.46
							c0.04,0.28,0.07,0.86-0.05-0.39c0.03,0.27,0.07,0.54,0.1,0.81c0.12,1,0.22,2,0.3,3.01c0.37,4.42,0.42,8.86,0.42,13.3
							c0,2.35,2.07,4.61,4.5,4.5c2.44-0.11,4.5-1.98,4.5-4.5c0-15.87-0.52-37.18-17.76-44.23c-5.13-2.1-10.93-2.29-16.37-1.66
							c-2.33,0.27-4.62,1.88-4.5,4.5C199.9,128.96,201.79,131.54,204.3,131.25L204.3,131.25z"/>
					</g>
				</g>
				<path class="st6" d="M243.9,184.7c0-5.51-4.47-9.98-9.98-9.98c-5.51,0-9.98,4.47-9.98,9.98"/>
				<path class="st3" d="M225.3,171.06c0,1.57,1.27,2.84,2.84,2.84h11.32c1.57,0,2.84-1.27,2.84-2.84l0,0
					c0-1.57-1.27-2.84-2.84-2.84h-11.32C226.57,168.22,225.3,169.49,225.3,171.06L225.3,171.06z"/>
			</g>
			<g>
				<g>
					<g>
						<path class="st2" d="M104.65,122.25c-9.13-1.06-19.19,0.64-25.42,8c-5.62,6.65-7.43,15.31-8.21,23.77
							c-0.43,4.69-0.5,9.41-0.5,14.12c0,2.35,2.07,4.61,4.5,4.5c2.44-0.11,4.5-1.98,4.5-4.5c0-3.97,0.05-7.95,0.32-11.92
							c0.06-0.92,0.14-1.84,0.23-2.75c0.05-0.45,0.09-0.91,0.15-1.36c0.03-0.27,0.07-0.54,0.1-0.81c0.12-0.99-0.17,1.1-0.01,0.12
							c0.29-1.88,0.62-3.74,1.09-5.58c0.22-0.86,0.47-1.72,0.75-2.57c0.13-0.4,0.27-0.79,0.41-1.18c0.07-0.19,0.15-0.39,0.22-0.58
							c0.04-0.11,0.09-0.23,0.14-0.34c0.18-0.44,0.12-0.3-0.17,0.4c0.46-0.57,0.7-1.52,1.06-2.17c0.41-0.76,0.87-1.5,1.37-2.21
							c0.04-0.05,0.36-0.58,0.41-0.57c0.03,0-0.7,0.84-0.27,0.36c0.26-0.29,0.5-0.6,0.76-0.88c0.61-0.67,1.26-1.26,1.94-1.85
							c0.61-0.53-0.24,0.03-0.26,0.19c0.01-0.09,0.5-0.36,0.58-0.42c0.33-0.23,0.67-0.44,1.01-0.65c0.35-0.21,0.71-0.41,1.07-0.59
							c0.15-0.08,0.3-0.15,0.44-0.22c0.4-0.19,1.33-0.35,0.08-0.06c1.02-0.24,2-0.72,3.03-0.97c0.55-0.13,1.1-0.25,1.66-0.34
							c0.11-0.02,0.53-0.04,0.58-0.09c-0.71,0.09-0.81,0.11-0.31,0.04c0.2-0.02,0.4-0.04,0.6-0.06c2.72-0.26,5.47-0.14,8.18,0.18
							c2.35,0.27,4.6-2.26,4.5-4.5C109.03,124.08,107.16,122.54,104.65,122.25L104.65,122.25z"/>
					</g>
				</g>
				<path class="st6" d="M65.04,184.7c0-5.51,4.47-9.98,9.98-9.98c5.51,0,9.98,4.47,9.98,9.98"/>
				<path class="st3" d="M83.64,171.06c0,1.57-1.27,2.84-2.84,2.84H69.48c-1.57,0-2.84-1.27-2.84-2.84l0,0
					c0-1.57,1.27-2.84,2.84-2.84H80.8C82.37,168.22,83.64,169.49,83.64,171.06L83.64,171.06z"/>
			</g>
		</g>
		<g>
			<path class="st3" d="M212.6,204.37c0,6.26-5.08,11.34-11.34,11.34H107.7c-6.26,0-11.34-5.08-11.34-11.34V81.89
				c0-6.26,5.08-11.34,11.34-11.34h93.55c6.26,0,11.34,5.08,11.34,11.34V204.37z"/>
			<path class="st7" d="M155.33,70.55h45.93c6.26,0,11.34,5.08,11.34,11.34v122.47c0,6.26-5.08,11.34-11.34,11.34h-45.93"/>
		</g>
		<g>
			<g>
				<path class="st4" d="M205.92,80.12c0,1.42-1.15,2.58-2.58,2.58c-1.42,0-2.58-1.16-2.58-2.58c0-1.42,1.16-2.58,2.58-2.58
					C204.76,77.54,205.92,78.69,205.92,80.12z"/>
				<path class="st8" d="M205.92,87.26c0,1.42-1.15,2.58-2.58,2.58c-1.42,0-2.58-1.16-2.58-2.58c0-1.42,1.16-2.58,2.58-2.58
					C204.76,84.68,205.92,85.84,205.92,87.26z"/>
			</g>
			<g>
				<g>
					<path class="st9" d="M107.24,187.49c5.03,0,5.03-7.8,0-7.8C102.21,179.69,102.21,187.49,107.24,187.49L107.24,187.49z"/>
				</g>
				<g>
					<path class="st9" d="M107.24,197.47c5.03,0,5.03-7.8,0-7.8C102.21,189.67,102.21,197.47,107.24,197.47L107.24,197.47z"/>
				</g>
				<g>
					<path class="st9" d="M107.24,207.45c5.03,0,5.03-7.8,0-7.8C102.21,199.64,102.21,207.45,107.24,207.45L107.24,207.45z"/>
				</g>
			</g>
			<g>
				<g>
					<path class="st9" d="M107.84,84.88c3.22,0,3.22-5,0-5C104.63,79.88,104.62,84.88,107.84,84.88L107.84,84.88z"/>
				</g>
			</g>
		</g>
		<g>
			<g>
				<path class="st4" d="M184.95,201.04c0,2.31-2.03,4.18-4.54,4.18h-51.88c-2.5,0-4.54-1.87-4.54-4.18v-27.92
					c0-2.31,2.03-4.18,4.54-4.18h51.88c2.5,0,4.54,1.87,4.54,4.18V201.04z"/>
				<g>
					<path class="st9" d="M179.61,175.74c0,0.58-0.47,1.04-1.04,1.04h-48.2c-0.57,0-1.04-0.46-1.04-1.04l0,0
						c0-0.57,0.47-1.04,1.04-1.04h48.2C179.15,174.7,179.61,175.17,179.61,175.74L179.61,175.74z"/>
					<path class="st9" d="M179.61,181.41c0,0.58-0.47,1.04-1.04,1.04h-48.2c-0.57,0-1.04-0.47-1.04-1.04l0,0
						c0-0.57,0.47-1.04,1.04-1.04h48.2C179.15,180.37,179.61,180.84,179.61,181.41L179.61,181.41z"/>
					<path class="st9" d="M179.61,187.08c0,0.58-0.47,1.04-1.04,1.04h-48.2c-0.57,0-1.04-0.47-1.04-1.04l0,0
						c0-0.57,0.47-1.04,1.04-1.04h48.2C179.15,186.04,179.61,186.51,179.61,187.08L179.61,187.08z"/>
					<path class="st9" d="M179.61,192.75c0,0.58-0.47,1.04-1.04,1.04h-48.2c-0.57,0-1.04-0.47-1.04-1.04l0,0
						c0-0.57,0.47-1.04,1.04-1.04h48.2C179.15,191.71,179.61,192.18,179.61,192.75L179.61,192.75z"/>
					<path class="st9" d="M179.61,198.42c0,0.58-0.47,1.04-1.04,1.04h-48.2c-0.57,0-1.04-0.46-1.04-1.04l0,0
						c0-0.57,0.47-1.04,1.04-1.04h48.2C179.15,197.38,179.61,197.85,179.61,198.42L179.61,198.42z"/>
				</g>
			</g>
			<g>
				<path class="st10" d="M175.15,156.83c0,3.01-2.71,5.44-6.05,5.44h-29.26c-3.34,0-6.05-2.44-6.05-5.44l0,0
					c0-3.01,2.71-5.44,6.05-5.44h29.26C172.44,151.39,175.15,153.82,175.15,156.83L175.15,156.83z"/>
				<g>
					<g>
						<g>
							<path class="st8" d="M139.96,158.65c2.57,0,2.58-4,0-4C137.38,154.65,137.38,158.65,139.96,158.65L139.96,158.65z"/>
						</g>
					</g>
					<g>
						<g>
							<path class="st8" d="M147.22,158.65c2.57,0,2.58-4,0-4C144.64,154.65,144.64,158.65,147.22,158.65L147.22,158.65z"/>
						</g>
					</g>
					<g>
						<g>
							<path class="st8" d="M154.47,158.65c2.57,0,2.58-4,0-4C151.9,154.65,151.9,158.65,154.47,158.65L154.47,158.65z"/>
						</g>
					</g>
					<g>
						<g>
							<path class="st8" d="M161.73,158.65c2.57,0,2.58-4,0-4C159.16,154.65,159.15,158.65,161.73,158.65L161.73,158.65z"/>
						</g>
					</g>
					<g>
						<g>
							<path class="st8" d="M168.99,158.65c2.57,0,2.58-4,0-4C166.42,154.65,166.41,158.65,168.99,158.65L168.99,158.65z"/>
						</g>
					</g>
				</g>
			</g>
			<g>
				<path class="st11" d="M200.94,129.21c0,5.01-4.06,9.07-9.07,9.07h-74.79c-5.01,0-9.07-4.06-9.07-9.07v-26.53
					c0-5.01,4.06-9.07,9.07-9.07h74.79c5.01,0,9.07,4.06,9.07,9.07V129.21z"/>
				<g>
					<g>
						<g>
							<path class="st1" d="M143.05,114.04c0,2.82-2.28,5.1-5.1,5.1c-2.82,0-5.1-2.29-5.1-5.1c0-2.82,2.29-5.1,5.1-5.1
								C140.76,108.94,143.05,111.23,143.05,114.04z"/>
							<path class="st2" d="M139.48,114.04c0,0.85-0.69,1.53-1.53,1.53c-0.84,0-1.53-0.69-1.53-1.53c0-0.84,0.69-1.53,1.53-1.53
								C138.79,112.51,139.48,113.2,139.48,114.04z"/>
						</g>
						<g>
							<path class="st1" d="M174.8,114.04c0,2.82-2.28,5.1-5.1,5.1s-5.1-2.29-5.1-5.1c0-2.82,2.29-5.1,5.1-5.1
								S174.8,111.23,174.8,114.04z"/>
							<path class="st2" d="M171.23,114.04c0,0.85-0.69,1.53-1.53,1.53s-1.53-0.69-1.53-1.53c0-0.84,0.69-1.53,1.53-1.53
								S171.23,113.2,171.23,114.04z"/>
						</g>
					</g>
					<path class="st9" d="M166.43,126.77c0,1.47-1.19,2.66-2.66,2.66h-19.92c-1.47,0-2.66-1.19-2.66-2.66l0,0
						c0-1.47,1.19-2.66,2.66-2.66h19.92C165.24,124.12,166.43,125.3,166.43,126.77L166.43,126.77z"/>
					<g>
						<g>
							<g>
								<path class="st3" d="M124.99,129.76c3.22,0,3.22-5,0-5C121.77,124.76,121.77,129.76,124.99,129.76L124.99,129.76z"/>
							</g>
						</g>
						<g>
							<g>
								<path class="st3" d="M183.96,129.76c3.22,0,3.22-5,0-5C180.74,124.76,180.74,129.76,183.96,129.76L183.96,129.76z"/>
							</g>
						</g>
					</g>
				</g>
			</g>
		</g>
		<g>
			<path class="st4" d="M211.95,137.65c0,1.57,1.27,2.84,2.84,2.84l0,0c1.57,0,2.83-1.27,2.83-2.84v-19.47
				c0-1.57-1.27-2.83-2.83-2.83l0,0c-1.57,0-2.84,1.27-2.84,2.83V137.65z"/>
			<path class="st4" d="M97,137.65c0,1.57-1.27,2.84-2.83,2.84l0,0c-1.57,0-2.84-1.27-2.84-2.84v-19.47c0-1.57,1.27-2.83,2.84-2.83
				l0,0c1.57,0,2.83,1.27,2.83,2.83V137.65z"/>
		</g>
	</g>
	<g>
		<g>
			<g>
				<path class="st2" d="M220.03,86.31c3.74-2.3,7.54-5.73,9.59-9.67c0.14-0.27,0.1-0.71-0.22-0.86
					c-8.65-3.83-16.79-9.8-20.81-18.61c-4.2-9.18-2.8-20.18,1.45-29.1c7.56-15.85,26.99-20.45,43.08-19.97
					c8.02,0.24,16.24,1.61,23.63,4.84c8.7,3.8,16.31,10.26,20.59,18.82c3.96,7.93,4.58,17.16,1.52,25.49
					c-3.59,9.79-11.7,17.64-21.06,21.95c-9.11,4.19-20.28,5.86-29.98,2.83c-1.03-0.32-2.04-0.7-3.02-1.15
					c-0.71-0.33-1.47-0.93-2.24-1.09c-0.98-0.2-2.05,0.37-2.9,0.78c-3.66,1.74-7.14,3.65-11.16,4.46c-2.83,0.58-5.74,0.61-8.59,0.13
					c-0.79-0.13-1.13,1.07-0.33,1.21c5.29,0.89,10.46,0.01,15.35-2.1c1.71-0.74,3.35-1.63,5.02-2.45c0.55-0.27,1.12-0.57,1.71-0.72
					c0.67-0.17,0.86,0.03,1.48,0.35c8.88,4.64,20.12,3.99,29.43,1.08c10.32-3.23,19.49-10,24.93-19.43
					c4.58-7.95,5.84-17.45,3.21-26.27c-2.7-9.05-9.08-16.62-16.99-21.63c-7.4-4.69-15.98-7.02-24.63-7.95
					c-16.49-1.77-37.02,1.21-47.42,15.63c-2.79,3.87-4.51,8.45-5.66,13.05c-1.26,5.02-1.6,10.28-0.59,15.38
					c1.88,9.45,8.45,16.94,16.47,21.92c2.21,1.37,4.53,2.56,6.91,3.62c-0.07-0.29-0.15-0.57-0.22-0.86
					c-1.94,3.75-5.58,7.04-9.14,9.23C218.72,85.65,219.35,86.73,220.03,86.31L220.03,86.31z"/>
			</g>
		</g>
		<g>
			<rect x="212.61" y="39.68" class="st12" width="81.42" height="27.29"/>
			<text transform="matrix(1 0 0 1 232.0123 55.7769)" class="st1 st13 st14">*!#@</text>
		</g>
	</g>
</g>
</svg>
