<?xml version="1.0" encoding="utf-8"?>
<!-- Generator: Adobe Illustrator 24.0.2, SVG Export Plug-In . SVG Version: 6.00 Build 0)  -->
<svg version="1.1" id="Layer_1" xmlns="http://www.w3.org/2000/svg" xmlns:xlink="http://www.w3.org/1999/xlink" x="0px" y="0px"
	 viewBox="0 0 400 400" style="enable-background:new 0 0 400 400;" xml:space="preserve">
<style type="text/css">
	.st0{fill:#D3E0F2;}
	.st1{fill:#161F48;}
	.st2{fill:#DBD7CC;}
	.st3{fill:#91D5E4;}
	.st4{fill:#FFFFFF;}
	.st5{opacity:0.43;}
	.st6{fill:#FDD8BC;}
	.st7{fill:url(#SVGID_1_);}
	.st8{fill:#118594;}
	.st9{fill:#C1CC8B;}
	.st10{fill:#FFE090;}
	.st11{fill:#004857;}
	.st12{fill:none;}
	.st13{fill:#EBE7E2;}
	.st14{fill:#149389;}
	.st15{fill:#FFD35C;}
	.st16{fill:#FAB687;}
	.st17{fill:#EDE7E3;}
	.st18{fill:#004659;}
	.st19{fill:#FFC552;}
	.st20{fill:#F16B6F;}
	.st21{fill:#E9DDD0;}
</style>
<path class="st0" d="M300.22,127.52c0,0,3.54,44.92,48.24,88.78s59.35,116.27-0.67,147.18s-121.17,40.61-160.77-30.66
	S143.9,217.87,76.55,217.56S-8.46,46.3,95.63,28.06S282.92,53.85,300.22,127.52z"/>
<g>
	<path class="st1" d="M165.84,226.48c0.04-0.37-0.1-0.71-0.34-0.95h-1.64c-1.89,0-3.42-1.53-3.42-3.42c0-1.89,1.53-3.42,3.42-3.42
		h30.68c1.89,0,3.42,1.53,3.42,3.42c0,1.89-1.53,3.42-3.42,3.42h-2.44c-0.24,0.24-0.38,0.59-0.34,0.96l11.31,100.11
		c0.08,0.7-0.47,1.31-1.17,1.31h-0.1c-0.6,0-1.11-0.45-1.17-1.05l-11.37-100.64c-0.03-0.28-0.16-0.52-0.35-0.7h-8.19
		c-0.21,0.21-0.34,0.51-0.34,0.83v100.38c0,0.65-0.53,1.18-1.18,1.18h-0.65c-0.65,0-1.18-0.53-1.18-1.18V226.36
		c0-0.32-0.13-0.62-0.34-0.83h-8.42c-0.19,0.19-0.32,0.43-0.35,0.71l-10.47,100.62c-0.06,0.6-0.57,1.06-1.18,1.06
		c-0.7,0-1.25-0.61-1.18-1.3L165.84,226.48z"/>
	<g>
		<polygon class="st2" points="104.97,169.59 289.17,169.59 291.4,166.47 289.17,80.34 107.76,80 104.97,82.96 		"/>
		<rect x="107.76" y="80" class="st3" width="183.64" height="86.47"/>
		
			<rect x="107.76" y="130.43" transform="matrix(-1 -1.224647e-16 1.224647e-16 -1 397.4674 296.8988)" class="st3" width="181.94" height="36.04"/>
		<g>
			<g>
				<g>
					<circle class="st4" cx="168.21" cy="104.01" r="13.63"/>
				</g>
			</g>
			<g class="st5">
				<g>
					<path class="st6" d="M139.81,129.97c0.14,0.02,10.65,0.05,25.59,0.07c37.27,0.06,102.08,0.12,102.08,0.12
						s-11.14,4.95-26.95,9.2c-1.24,0.33-2.47,0.68-3.65,1.05l-23.95,7.4c-0.56,0.17-1.2,0.28-1.87,0.32c-0.97,0.06-2-0.02-2.86-0.25
						C195.7,144.62,139.37,129.9,139.81,129.97z"/>
					<path class="st6" d="M139.81,129.97c0.14,0.02,10.65,0.05,25.59,0.07c34.78,1.87,49.77,7.27,54.85,9.67
						c2.31,1.09,1.61,2.74-1.48,3.48c-4.68,1.11-12.08,1.66-12.4,1.69c-5.2,0.41,4.66,3.21,4.66,3.21s0.01,0.01,0.03,0.04
						c-0.97,0.06-2-0.02-2.86-0.25C195.7,144.62,139.37,129.9,139.81,129.97z"/>
				</g>
				<g>
					
						<linearGradient id="SVGID_1_" gradientUnits="userSpaceOnUse" x1="1590.9323" y1="136.2972" x2="1676.3416" y2="136.2972" gradientTransform="matrix(-1 0 0 1 1783.8018 0)">
						<stop  offset="0" style="stop-color:#588BC8"/>
						<stop  offset="0.3301" style="stop-color:#4D72B8"/>
						<stop  offset="1" style="stop-color:#374299"/>
					</linearGradient>
					<path class="st7" d="M107.46,130.1v1.43c1.53,0.6,3.53,1.34,5.89,2.13c2.7,0.92,5.87,1.91,9.38,2.85
						c0.86,0.23,1.72,0.48,2.54,0.73l16.68,5.15c0.39,0.12,0.84,0.19,1.3,0.22c0.68,0.04,1.39-0.01,1.99-0.17
						c3.54-0.93,12.14-3.17,21.07-5.51c3.99-1.04,8.04-2.1,11.74-3.07h0c2.96-0.77,5.69-1.49,7.98-2.09
						c2.32-0.61,4.19-1.1,5.38-1.41c0.45-0.12,0.8-0.21,1.04-0.28c0.24-0.06,0.38-0.1,0.41-0.11c-0.03,0-0.74,0.01-2.01,0.01
						c-2.87,0.01-8.6,0.03-15.81,0.04c-3.45,0.01-7.23,0.01-11.2,0.02h-0.52c-0.77,0-1.55,0-2.34,0
						c-6.75,0.01-13.93,0.02-20.83,0.03C126.22,130.08,113.41,130.09,107.46,130.1z"/>
					<path class="st8" d="M192.87,129.97c-0.1,0.02-7.42,0.03-17.82,0.05c-24.22,1.3-34.66,5.06-38.2,6.73
						c-1.61,0.76-1.12,1.91,1.03,2.42c3.26,0.77,8.41,1.16,8.64,1.18c3.62,0.29-3.24,2.23-3.24,2.23s-0.01,0.01-0.02,0.03
						c0.68,0.04,1.39-0.01,1.99-0.17C153.95,140.17,193.17,129.92,192.87,129.97z"/>
				</g>
			</g>
			<g>
				<path class="st9" d="M146.38,130.62c0.14-0.06,10.32-0.12,24.8-0.18c36.12-0.16,98.93-0.3,98.93-0.3s-10.8-12.14-26.12-22.56
					c-1.21-0.82-2.39-1.67-3.54-2.57l-23.21-18.15c-0.54-0.42-1.17-0.69-1.81-0.79c-0.94-0.15-1.94,0.05-2.77,0.6
					C200.55,94.68,145.95,130.79,146.38,130.62z"/>
				<path class="st10" d="M146.38,130.62c0.14-0.06,10.32-0.12,24.8-0.18c33.7-4.59,48.24-17.83,53.16-23.72
					c2.24-2.68,1.56-6.73-1.44-8.53c-4.53-2.72-11.71-4.08-12.02-4.14c-5.04-1.01,4.51-7.87,4.51-7.87s0.01-0.03,0.03-0.1
					c-0.94-0.15-1.94,0.05-2.77,0.6C200.55,94.68,145.95,130.79,146.38,130.62z"/>
			</g>
			<g>
				<path class="st9" d="M152.54,134c0.12-0.03,8.93-0.05,21.46-0.08c31.25-0.07,85.6-0.14,85.6-0.14s-9.35-5.65-22.6-10.5
					c-1.04-0.38-2.07-0.78-3.06-1.2l-20.09-8.44c-0.47-0.2-1.01-0.32-1.57-0.37c-0.82-0.07-1.67,0.02-2.4,0.28
					C199.41,117.28,152.17,134.08,152.54,134z"/>
				<path class="st10" d="M152.54,134c0.12-0.03,8.93-0.05,21.46-0.08c29.16-2.13,41.74-8.3,46-11.04c1.94-1.25,1.35-3.13-1.24-3.97
					c-3.92-1.27-10.13-1.9-10.4-1.93c-4.36-0.47,3.9-3.66,3.9-3.66s0.01-0.02,0.03-0.05c-0.82-0.07-1.67,0.02-2.4,0.28
					C199.41,117.28,152.17,134.08,152.54,134z"/>
			</g>
			<g>
				<path class="st9" d="M107.46,129.15v4.49c1.6,0,3.59,0.01,5.89,0.01c8.15,0.02,20.21,0.05,32.65,0.09
					c2.74,0.01,5.5,0.02,8.25,0.03c8.5,0.03,16.82,0.06,23.81,0.09h0c10.97,0.05,18.69,0.09,18.79,0.14
					c-0.05-0.05-0.51-0.36-1.32-0.9c-0.94-0.63-2.35-1.57-4.11-2.74c-0.14-0.09-0.28-0.18-0.42-0.28c-0.05-0.03-0.1-0.06-0.15-0.1
					c-11.76-7.81-37.27-24.68-44.23-29.29c-0.64-0.42-1.39-0.57-2.1-0.46c-0.49,0.08-0.97,0.28-1.37,0.59l-17.59,13.75
					c-0.87,0.68-1.77,1.33-2.68,1.95C116.39,120.94,110.98,125.76,107.46,129.15z"/>
				<path class="st10" d="M196.86,134c-0.1-0.04-7.83-0.09-18.8-0.14c-25.54-3.48-36.56-13.52-40.29-17.98
					c-1.7-2.03-1.18-5.1,1.09-6.47c3.44-2.06,8.87-3.09,9.11-3.14c3.82-0.76-3.42-5.97-3.42-5.97s-0.01-0.03-0.02-0.08
					c0.72-0.11,1.47,0.04,2.1,0.46C155.8,106.76,197.18,134.13,196.86,134z"/>
				<g>
					<path class="st11" d="M205.4,133.23c-1.09-0.75-2.63-2.44-3.88-2.75c-1.92-0.49-2.43,0.83-4.26,0.98
						c-1.01,0.08-1.58-0.58-2.47-0.68c-0.7-0.08-1.38,0.28-2.02,0.18c-1.64-0.27-3.01-1.37-4.59-1.52
						c-0.33,4.84-7.72-0.55-10.52-1.29c0.55,2.84-1.4,2.36-3.14,1.47c-1.05-0.54-1.74-2.03-3.2-1.95c-1.54,0.09-1.01,1.15-2.12,1.44
						c-1.55,0.4-2.15-1.03-3.22-0.97c-0.32,0.02-2.14,1.03-2.6,1.22c-1.71,0.7-3.26,0.66-3.81,3.38c3.06,1.02,7.43,0.46,10.68,0.94
						c3.79,0.57,7.57,0.75,11.39,1.07c4.15,0.35,8.27,0.52,12.49,0.52c2.59,0,8.51,1.06,10-1.53"/>
				</g>
			</g>
			<path class="st11" d="M107.52,132.96v33.87h91.35v-1.41l-0.4-0.17c-0.08-0.26-0.15-0.55-0.23-0.85l-1.92-0.45l1.75-0.25
				c-0.61-2.67-1.17-6.42-1.6-9.74l-0.69-0.09l0.65-0.18c-0.51-3.94-0.83-7.19-0.83-7.19c-0.18,1.59-0.38,3.14-0.59,4.67l0.62,0.31
				h-0.66c-0.3,2.1-0.62,4.13-0.97,6.11c0.45,0.2,0.91,0.4,0.91,0.4l-0.97-0.06c-0.19,1.08-0.4,2.14-0.61,3.19l1.4,0.68l-1.52-0.08
				c-0.08,0.41-0.17,0.81-0.25,1.21l-4.29-1.81c-0.43-2.32-0.82-5.02-1.14-7.48l-0.69-0.09l0.65-0.18
				c-0.51-3.94-0.83-7.19-0.83-7.19c-0.18,1.59-0.38,3.14-0.59,4.67l0.62,0.31h-0.66c-0.3,2.1-0.62,4.13-0.97,6.11
				c0.45,0.2,0.91,0.4,0.91,0.4l-0.97-0.06c-0.09,0.49-0.18,0.97-0.27,1.44c-0.34-2.02-0.66-4.22-0.93-6.27l-0.69-0.09l0.65-0.18
				c-0.51-3.94-0.83-7.19-0.83-7.19c-0.18,1.59-0.38,3.14-0.59,4.67l0.62,0.31h-0.66c-0.3,2.1-0.62,4.13-0.97,6.11
				c0.45,0.2,0.91,0.4,0.91,0.4l-0.97-0.06c-0.07,0.39-0.14,0.77-0.21,1.15l-0.9-0.38c-0.17-1.4-0.33-2.84-0.48-4.2l-0.56-0.09
				l0.53-0.18c-0.41-3.94-0.67-7.19-0.67-7.19c-0.15,1.59-0.31,3.14-0.48,4.67l0.5,0.31h-0.53c-0.22,1.94-0.46,3.83-0.72,5.67
				l-0.51-0.22c-0.36-2.39-0.7-5.21-0.97-7.78l-0.56-0.09l0.53-0.18c-0.41-3.94-0.67-7.19-0.67-7.19c-0.15,1.59-0.31,3.14-0.48,4.67
				l0.5,0.31h-0.53c-0.24,2.1-0.5,4.13-0.78,6.11c0.36,0.2,0.73,0.4,0.73,0.4l-0.78-0.06c-0.05,0.32-0.1,0.64-0.14,0.97
				c-0.04-0.14-0.09-0.28-0.13-0.43l-2.56-0.51l2.34-0.28c-0.81-2.99-1.56-7.18-2.14-10.89l-0.92-0.1l0.87-0.2
				c-0.68-4.4-1.11-8.04-1.11-8.04c-0.24,1.78-0.51,3.51-0.79,5.22l0.82,0.35h-0.88c-0.39,2.34-0.83,4.62-1.29,6.83
				c0.6,0.22,1.22,0.45,1.22,0.45l-1.3-0.07c-0.26,1.21-0.53,2.4-0.81,3.57l1.87,0.76l-2.03-0.09c-0.16,0.67-0.33,1.33-0.5,1.99
				l-0.56-0.22c-0.28-1.53-0.54-3.08-0.77-4.56l-0.92-0.1l0.87-0.2c-0.68-4.4-1.11-8.04-1.11-8.04c-0.24,1.78-0.51,3.51-0.79,5.22
				l0.82,0.35h-0.88c-0.32,1.89-0.66,3.73-1.03,5.53l-1.42-0.28l-0.53-0.21l2-0.24c-0.81-2.99-1.56-7.18-2.14-10.89l-0.92-0.1
				l0.87-0.2c-0.68-4.4-1.11-8.04-1.11-8.04c-0.24,1.78-0.51,3.51-0.79,5.22l0.82,0.35h-0.88c-0.39,2.32-0.82,4.58-1.28,6.77
				c-0.6-2.79-1.14-5.96-1.59-8.86l-1.03-0.11l0.98-0.23c-0.76-4.93-1.25-9.02-1.25-9.02c-0.27,1.99-0.57,3.94-0.89,5.85l0.92,0.39
				h-0.99c-0.44,2.63-0.93,5.18-1.45,7.66c0.67,0.24,1.36,0.51,1.36,0.51l-1.45-0.07c-0.29,1.36-0.59,2.69-0.91,4l2.09,0.85
				l-2.27-0.1c-0.16,0.65-0.32,1.29-0.49,1.93l-1.67-0.7c-0.39-1.93-0.74-4.02-1.05-5.96l-0.8-0.09l0.76-0.18
				c-0.59-3.85-0.97-7.04-0.97-7.04c-0.21,1.55-0.44,3.07-0.69,4.57l0.72,0.3h-0.77c-0.21,1.23-0.43,2.44-0.66,3.62
				c-0.29-1.53-0.55-3.12-0.78-4.61l-0.8-0.09l0.76-0.18c-0.59-3.85-0.97-7.04-0.97-7.04c-0.21,1.55-0.44,3.07-0.69,4.57l0.72,0.3
				h-0.77c-0.34,2.05-0.72,4.04-1.13,5.98c0.52,0.19,1.06,0.39,1.06,0.39l-1.13-0.06c-0.06,0.29-0.13,0.57-0.19,0.86
				c-0.25-1.37-0.48-2.77-0.69-4.1l-0.8-0.09l0.76-0.18c-0.59-3.85-0.97-7.04-0.97-7.04c-0.21,1.55-0.44,3.07-0.69,4.57l0.72,0.3
				h-0.77c-0.08,0.48-0.16,0.95-0.25,1.42c-0.45-2.12-0.86-4.5-1.2-6.68l-0.8-0.09l0.76-0.18c-0.59-3.85-0.97-7.04-0.97-7.04
				c-0.21,1.55-0.44,3.07-0.69,4.57l0.72,0.3h-0.77c-0.31,1.84-0.65,3.64-1.01,5.39c-0.7-3.11-1.34-6.8-1.86-10.15l-1.07-0.12
				l1.02-0.24c-0.79-5.13-1.3-9.38-1.3-9.38c-0.28,2.07-0.59,4.1-0.92,6.09l0.96,0.4h-1.03c-0.46,2.73-0.96,5.39-1.51,7.97
				c0.7,0.25,1.42,0.53,1.42,0.53l-1.51-0.08c-0.27,1.28-0.56,2.54-0.86,3.79c-0.27-1.5-0.52-3.02-0.74-4.47l-1.07-0.12l1.02-0.24
				c-0.79-5.13-1.3-9.38-1.3-9.38c-0.28,2.07-0.59,4.1-0.92,6.09l0.96,0.4h-1.03c-0.29,1.72-0.6,3.41-0.92,5.07
				c-0.78-3.28-1.49-7.35-2.07-11.02l-1.07-0.12l1.02-0.24c-0.79-5.13-1.3-9.38-1.3-9.38c-0.28,2.07-0.59,4.1-0.92,6.09l0.96,0.4
				h-1.03c-0.39,2.32-0.81,4.58-1.27,6.79c-0.43-2.34-0.83-4.74-1.18-7.01l-1.38-0.15l1.31-0.31c-1.02-6.61-1.67-12.09-1.67-12.09
				c-0.36,2.67-0.76,5.28-1.19,7.85l1.24,0.52h-1.33c-0.59,3.52-1.24,6.94-1.94,10.27c0.9,0.33,1.83,0.68,1.83,0.68l-1.95-0.1
				c-0.39,1.82-0.8,3.6-1.22,5.36l2.81,1.14l-3.05-0.13c-0.6,2.45-1.23,4.85-1.89,7.19L107.52,132.96z M119.15,121.35l-0.86-0.04
				c-0.02-0.1-0.04-0.2-0.06-0.3C118.74,121.19,119.15,121.35,119.15,121.35z M123.3,128.9c-0.04,0.2-0.08,0.4-0.12,0.59l-1.82-0.36
				L123.3,128.9z M129.74,131.02l-1.88-0.08c-0.04-0.24-0.09-0.49-0.13-0.73L129.74,131.02z M133.73,133.65
				c-0.04,0.15-0.07,0.31-0.11,0.46l-1.41-0.28L133.73,133.65z M132.98,136.79c0,0.01-0.01,0.03-0.01,0.04l-0.06-0.04H132.98z
				 M135.26,131.93l-0.72-0.04c-0.02-0.08-0.04-0.17-0.06-0.26C134.9,131.8,135.26,131.93,135.26,131.93z M137.72,137.67
				c-0.02,0.08-0.03,0.16-0.05,0.25l-0.76-0.15L137.72,137.67z M145.49,142.41l-0.03,0c0,0,0-0.01,0-0.01
				C145.48,142.4,145.49,142.41,145.49,142.41z M156.2,145.87c-0.02,0.1-0.05,0.21-0.07,0.31l-0.95-0.19L156.2,145.87z
				 M158.2,142.84l-1.1-0.06c-0.03-0.13-0.06-0.26-0.08-0.39C157.6,142.61,158.2,142.84,158.2,142.84z"/>
			<path class="st11" d="M189.62,166.47h1.93c-0.07-0.47-0.13-0.94-0.21-1.42h-0.86l0.8-0.4c-0.28-1.98-0.53-3.99-0.78-6.05
				C190.51,158.6,190.18,162.05,189.62,166.47z M202.15,158.19c0,0-0.37,3.65-0.95,8.28h2.04c-0.09-0.61-0.18-1.22-0.27-1.84h-0.86
				l0.8-0.4C202.64,162.25,202.38,160.25,202.15,158.19z M206.99,157.07c0,0-0.42,4.23-1.08,9.32l0.26,0.07h2.09
				c-0.15-0.97-0.29-1.95-0.44-2.94h-0.86l0.8-0.4C207.49,161.15,207.23,159.13,206.99,157.07z M212.14,157.77
				c0,0-0.31,3.88-0.81,8.7h1.74c-0.09-0.75-0.18-1.5-0.27-2.26h-0.69l0.64-0.39C212.53,161.84,212.33,159.83,212.14,157.77z
				 M215.66,161.21c-0.19,1.7-0.38,3.5-0.61,5.26h3.27c-0.01-0.04-0.01-0.08-0.02-0.12l-1.02,0.07c0,0,0.49-0.27,0.95-0.52
				c-0.37-2.57-0.7-5.21-1.02-7.92h-0.69l0.64-0.4c-0.22-1.98-0.43-3.99-0.62-6.05c0,0-0.34,4.23-0.87,9.32l0.69,0.24L215.66,161.21
				z M218.96,166.02l3.03,0.36l-0.45,0.09h69.85v-42.9c-0.02,0.08-0.03,0.17-0.04,0.25c-0.59-2.86-1.13-5.79-1.64-8.79h-1.34
				l1.25-0.53c-0.43-2.58-0.83-5.2-1.19-7.89c0,0-0.66,5.51-1.68,12.15l1.32,0.31l-1.39,0.15c-0.75,4.75-1.68,10.02-2.68,14.27
				c-0.42-2.15-0.82-4.34-1.2-6.57h-1.33l1.25-0.52c-0.43-2.58-0.83-5.21-1.2-7.89c0,0-0.65,5.5-1.68,12.15l1.33,0.3l-1.4,0.15
				c-0.29,1.88-0.62,3.85-0.96,5.79c-0.38-1.61-0.76-3.24-1.11-4.9l-1.97,0.1c0,0,0.94-0.35,1.85-0.68
				c-0.71-3.34-1.36-6.78-1.96-10.32h-1.34l1.25-0.53c-0.43-2.58-0.83-5.2-1.19-7.88c0,0-0.66,5.5-1.68,12.15l1.32,0.3l-1.39,0.15
				c-0.68,4.34-1.52,9.12-2.42,13.15c-0.47-2.26-0.91-4.59-1.31-6.98h-1l0.94-0.39c-0.32-1.93-0.62-3.9-0.9-5.91
				c0,0-0.49,4.13-1.27,9.11l0.99,0.23l-1.04,0.12c-0.44,2.83-0.97,5.91-1.55,8.66l-0.32-1.85h-1l0.94-0.39
				c-0.32-1.93-0.62-3.9-0.9-5.91c0,0-0.49,4.13-1.27,9.11l1,0.23l-1.05,0.12c-0.27,1.72-0.57,3.53-0.89,5.3
				c-0.08-0.37-0.17-0.74-0.25-1.11l-1.47,0.08c0,0,0.7-0.27,1.38-0.52c-0.53-2.5-1.03-5.08-1.47-7.74h-1l0.94-0.39
				c-0.32-1.93-0.62-3.9-0.9-5.91c0,0-0.49,4.12-1.27,9.11l1,0.23l-1.05,0.11c-0.3,1.94-0.64,3.99-1.02,5.97
				c-0.3-1.53-0.59-3.09-0.86-4.69h-1l0.94-0.39c-0.32-1.93-0.62-3.9-0.9-5.92c0,0-0.49,4.13-1.26,9.12l0.99,0.23l-1.05,0.11
				c-0.39,2.51-0.85,5.22-1.35,7.72l-2.18,0.91c-0.21-0.83-0.42-1.66-0.63-2.5l-2.95,0.13l2.72-1.11c-0.41-1.69-0.8-3.42-1.18-5.18
				l-1.89,0.1c0,0,0.9-0.34,1.77-0.66c-0.69-3.21-1.31-6.52-1.89-9.92h-1.28l1.2-0.5c-0.41-2.48-0.79-5-1.15-7.58
				c0,0-0.63,5.29-1.62,11.68l1.27,0.29l-1.34,0.14c-0.59,3.76-1.3,7.86-2.08,11.47c-0.6-2.83-1.16-5.76-1.67-8.77h-1.14l1.07-0.45
				c-0.37-2.21-0.71-4.46-1.03-6.76c0,0-0.56,4.72-1.44,10.41l1.13,0.27l-1.19,0.12c-0.75,4.8-1.72,10.23-2.77,14.11l2.59,0.3
				l-0.68,0.28l-1.85,0.37c-0.48-2.34-0.93-4.72-1.34-7.17h-1.14l1.07-0.45c-0.37-2.21-0.71-4.46-1.03-6.77
				c0,0-0.56,4.72-1.44,10.42l1.13,0.27l-1.19,0.12c-0.3,1.92-0.63,3.93-1,5.91l-0.72,0.29c-0.22-0.86-0.45-1.71-0.66-2.58
				l-2.63,0.12l2.42-0.99c-0.37-1.52-0.71-3.05-1.05-4.62l-1.68,0.08c0,0,0.8-0.29,1.58-0.58c-0.61-2.87-1.17-5.81-1.68-8.85h-1.15
				l1.07-0.45c-0.37-2.21-0.71-4.47-1.03-6.77c0,0-0.56,4.72-1.44,10.42l1.13,0.27l-1.19,0.12
				C220.98,156.72,220.01,162.15,218.96,166.02z M289.83,126.03c0,0,0.54-0.2,1.19-0.45c-0.03,0.13-0.04,0.26-0.07,0.39
				L289.83,126.03z M284.45,135.8l2.52,0.3l-2.37,0.46C284.55,136.32,284.5,136.06,284.45,135.8z M276.07,138.57l2.61-1.06
				c-0.06,0.32-0.12,0.63-0.18,0.95L276.07,138.57z M271.88,146.04h0.09l-0.07,0.05C271.88,146.07,271.88,146.06,271.88,146.04z
				 M270.89,141.96l1.97,0.23l-1.83,0.37C270.98,142.36,270.94,142.16,270.89,141.96z M268.91,139.74c0,0,0.47-0.18,1.02-0.37
				c-0.03,0.11-0.05,0.21-0.08,0.33L268.91,139.74z M265.72,147.17l1.05,0.12l-0.99,0.2C265.76,147.38,265.74,147.28,265.72,147.17z
				 M255.62,153.31c0,0,0.02-0.01,0.04-0.02v0.01L255.62,153.31z M241.71,157.8l1.33,0.16l-1.24,0.24
				C241.77,158.06,241.74,157.93,241.71,157.8z M239.11,153.87c0,0,0.78-0.29,1.54-0.57c-0.04,0.16-0.07,0.33-0.11,0.5
				L239.11,153.87z"/>
			
				<rect x="198.71" y="100.45" transform="matrix(-1 -1.224647e-16 1.224647e-16 -1 490.7005 267.2794)" class="st12" width="93.29" height="66.38"/>
		</g>
		<g>
			<path class="st4" d="M243.48,108.44c3.29,0.17,6.56,0.27,9.63-0.48c1.05-0.26,1.22-1.68,0.23-2.14
				c-6.4-2.97-14.27-2.5-20.79-5.36c-0.84-0.37-0.92-1.57-0.12-2.01c1.19-0.66,2.63-0.95,4-1.12c8.64-1.1,17.52,0.62,26.11-0.46
				c1.29-0.16,1.34-2.01,0.06-2.24c-0.01,0-0.03,0-0.04-0.01c-1.3-0.24-2.78-1.61-1.94-2.62c0.37-0.44,1.01-0.51,1.58-0.55
				c6.93-0.49,15.44-2.46,22.18-0.16c0.61,0.21,1.23,0.47,1.68,0.94c0.84,0.88,0.84,2.37,0.17,3.38c-0.25,0.39-0.59,0.71-0.97,0.98
				c-0.6,0.41-0.77,1.27-0.24,1.77c0.33,0.31,0.57,0.69,0.65,1.15c0.15,0.95-0.52,1.88-1.37,2.34c-0.85,0.45-1.84,0.54-2.81,0.61
				l-14.27,1.11c-1.08,0.08-1.44,1.5-0.52,2.08l3.24,2.07c0.49,0.31,1.03,0.69,1.11,1.27c0.11,0.75-0.6,1.35-1.27,1.72
				c-2.58,1.42-5.58,1.84-8.51,2.13c-8.95,0.89-18,0.84-26.93-0.16c-1.53-0.17-3.25-0.5-4.41-1.41c-0.68-0.53-0.47-1.63,0.33-1.93
				C234.38,107.83,238.94,108.21,243.48,108.44z"/>
		</g>
		<g>
			<path class="st4" d="M138.66,102.83c-1.89,0.1-3.78,0.16-5.55-0.27c-0.61-0.15-0.7-0.97-0.13-1.23
				c3.69-1.71,8.22-1.44,11.98-3.09c0.48-0.21,0.53-0.9,0.07-1.16c-0.68-0.38-1.51-0.55-2.3-0.65c-4.98-0.63-10.09,0.36-15.04-0.27
				c-0.75-0.09-0.77-1.16-0.03-1.29c0.01,0,0.01,0,0.02,0c0.75-0.14,1.6-0.93,1.12-1.51c-0.21-0.25-0.58-0.3-0.91-0.32
				c-3.99-0.28-8.89-1.42-12.78-0.09c-0.35,0.12-0.71,0.27-0.97,0.54c-0.48,0.51-0.48,1.36-0.1,1.95c0.15,0.22,0.34,0.41,0.56,0.56
				c0.35,0.24,0.44,0.73,0.14,1.02c-0.19,0.18-0.33,0.4-0.37,0.66c-0.09,0.55,0.3,1.08,0.79,1.35c0.49,0.26,1.06,0.31,1.62,0.35
				l8.22,0.64c0.62,0.05,0.83,0.86,0.3,1.2l-1.87,1.19c-0.28,0.18-0.59,0.4-0.64,0.73c-0.06,0.43,0.35,0.78,0.73,0.99
				c1.49,0.82,3.21,1.06,4.9,1.23c5.16,0.51,10.37,0.48,15.52-0.09c0.88-0.1,1.87-0.29,2.54-0.81c0.39-0.3,0.27-0.94-0.19-1.11
				C143.9,102.48,141.27,102.69,138.66,102.83z"/>
		</g>
	</g>
	<g>
		<g>
			<g>
				<path class="st13" d="M175.66,139.16c-0.05,1.08,0.17,2.25,0.39,3.27c0.2,0.94,0.62,0.74,1.55,0.84c1.02,0.1,2.04,0.1,3.07,0.15
					c1.31,0.07,3.33,0.52,4.57,0h0.53c0-1.76,0.72-3.65,0.24-5.38c-0.27-0.97-0.97-1.69-1.78-2.3c-0.62-0.47-1.28-0.86-1.87-1.25
					c-0.45-0.29-5.01-3.52-4.72-3.9c-0.58,0.76-0.97,1.58-1.24,2.42c-0.29,0.89-0.45,1.83-0.53,2.77
					C175.76,136.89,175.73,138.03,175.66,139.16z"/>
			</g>
			<g>
				<path class="st11" d="M175.88,135.78c2.68,0.74,6.42,0.82,8.36-0.04c-0.62-0.47-1.28-0.86-1.87-1.25
					c-0.45-0.29-5.01-3.52-4.72-3.9c-0.58,0.76-0.97,1.58-1.24,2.42C176.12,133.9,175.97,134.83,175.88,135.78z"/>
			</g>
			<path class="st14" d="M175.76,140.84h10.22v3.48h-3.63v14.12c0,0.75-0.6,1.35-1.35,1.35c-0.75,0-1.35-0.6-1.35-1.35v-14.12h-3.9
				V140.84z"/>
		</g>
		<g>
			<path class="st15" d="M271.08,184.69c-2.28,0.69-5.29,1.7-7.04,2.68l-8.62-22.85l4.09-10.71
				C264.61,154.96,268.04,169.01,271.08,184.69z"/>
			<path class="st16" d="M277.7,229.34c0.03,0.51-0.06,1.01-0.25,1.48c-0.52,1.23-1.63,3.67-2.74,4.87
				c-0.51,0.55-1.4,0.07-1.21-0.66l1-3.79l-0.59-3.84c0.1,1.06,0.1,2.36-0.3,3.29c-0.28,0.66-1.26,0.51-1.33-0.21
				c-0.12-1.21-0.35-3.02-0.72-4.54c-0.18-0.73-0.2-1.48,0-2.2c0.36-1.35,1.02-3.49,1.86-4.51l-7.22-22.68
				c-0.46-1.46-0.6-2.99-0.38-4.5l-0.02-0.05l-1.75-4.64c1.75-0.98,4.76-1.99,7.04-2.68c0.3,1.48,0.58,2.97,0.85,4.46
				c0.13,0.67,0.24,1.35,0.37,2.02C275.71,197.37,276.72,213.34,277.7,229.34z"/>
		</g>
		<path class="st1" d="M239.31,326.03c0.04,0.92,0.7,1.78,1.76,1.78l18.55-0.01c1.98,0,4.29-1.54,3.6-3.71l-1.14-6.39h-6.78
			c0,0.13-14.61,6.23-15.39,6.93C239.47,325.02,239.29,325.53,239.31,326.03z"/>
		<path class="st1" d="M206.48,326.03c0.04,0.92,0.7,1.78,1.76,1.78l18.55-0.01c1.98,0,4.29-1.54,3.6-3.71l-1.14-6.39h-6.78
			c0,0.13-14.61,6.23-15.39,6.93C206.64,325.02,206.46,325.53,206.48,326.03z"/>
		<g>
			<g>
				<path class="st16" d="M224.11,136.13c0.18,0.24,0.46,0.52,0.86,0.77c-0.05,0.43-0.09,0.87-0.1,1.31
					c-0.03,0.73-0.02,1.46,0.05,2.18c0.1,1.12,0.34,2.21,0.74,3.18c0.49,1.18,1.54,2.04,2.76,2.39c0.91,0.26,1.91,0.55,2.1,0.63
					c2.64,1.17,6.3-0.44,9.05-2.96c5.27-0.82,9.32-5.44,9.32-11.02c0-6.17-4.97-10.42-10.99-11.16c-5.07-0.64-8.76,2.55-10.26,6.82
					c-0.49,1.04-0.97,2.23-1.42,3.59l-2.11,3.05C223.84,135.27,223.84,135.76,224.11,136.13z"/>
				<polygon class="st16" points="242.73,148.09 241.36,141.94 232.86,142.02 231.49,147.87 				"/>
			</g>
			<path class="st1" d="M232.78,132.02c0.19-0.04,0.27,0.25,0.08,0.29c-0.91,0.18-1.45,0.64-1.92,1.43c-0.35,0.6-0.59,1.25-0.82,1.9
				c-0.07,0.18-0.36,0.1-0.29-0.08C230.39,134.01,231.01,132.38,232.78,132.02z"/>
			<path class="st1" d="M230.81,137.74c1.13-0.08,2.13-0.79,2.57-1.84c0.07-0.18,0.37-0.1,0.29,0.08c-0.49,1.19-1.58,1.97-2.86,2.06
				C230.61,138.06,230.61,137.76,230.81,137.74z"/>
			<path class="st1" d="M225.68,139.16c1.13-0.08,2.13-0.79,2.57-1.84c0.07-0.18,0.37-0.1,0.29,0.08c-0.49,1.19-1.58,1.97-2.86,2.06
				C225.49,139.48,225.49,139.17,225.68,139.16z"/>
			<path class="st1" d="M230.4,137.31c0.23-0.5,0.55-1.02,1.16-1.03c0.2-0.01,0.2,0.3,0,0.3c-0.49,0.01-0.72,0.49-0.9,0.88
				C230.58,137.64,230.32,137.48,230.4,137.31z"/>
			<path class="st1" d="M227.82,129.94c0.53,0.16,1.08,0.39,1.19,1c0.03,0.19-0.27,0.24-0.3,0.05c-0.09-0.49-0.59-0.64-1.01-0.76
				C227.52,130.17,227.64,129.89,227.82,129.94z"/>
			<path class="st1" d="M226.74,132.24c-0.11,0.56,0.09,1.07,0.45,1.14c0.36,0.07,0.74-0.32,0.86-0.87
				c0.11-0.56-0.09-1.07-0.45-1.14C227.24,131.29,226.86,131.68,226.74,132.24z"/>
		</g>
		<path class="st8" d="M230.2,317.53c-0.61-0.2-12.15,0-12.15,0c1.48-38.15,4.37-74.07,9.32-106.74l0.61-4.46h31.39l2.43,12.96
			l-2.84,41.93l3.85,57.73h-12.56l-4.66-53.68l-1.62-35.04l-10.74,34.43L230.2,317.53z"/>
		<path class="st1" d="M247.45,228.25c-0.31,0.24-0.62,0.48-0.94,0.69c0.01,0.02,0.03,0.03,0.03,0.06l0.03,0.94
			c-0.1,0.02-0.19,0.03-0.29,0.05c-0.01-0.29-0.03-0.58-0.04-0.86c-0.51,0.32-1.05,0.59-1.67,0.74c-0.19,0.05-0.27-0.25-0.08-0.29
			c1.38-0.33,2.42-1.28,3.52-2.13c0.98-0.76,1.96-1.51,2.93-2.27c0.15-0.12,0.37,0.1,0.21,0.21
			C249.93,226.34,248.69,227.3,247.45,228.25z"/>
		<path class="st15" d="M219.67,154.67l2.91,26.41c0.35,3.19,0.87,6.36,1.55,9.49l1.75,8.09c0.31,1.45,0.35,2.94,0.1,4.4
			l-4.38,17.47c18.84,9.72,43.39,1.93,43.39,1.93l-6.32-21.11c-0.62-2.06-0.81-4.23-0.56-6.37l4.2-35.95
			c0.28-2.4-1.22-4.65-3.54-5.32l-9.67-2.8c-0.89-0.26-1.79-0.45-2.69-0.58c-1.22-0.18-2.45-0.26-3.68-0.22l-7.61,0.21
			c-2.26,0.06-4.49,0.47-6.63,1.2l-0.19,0.07L219.67,154.67z"/>
		<path class="st15" d="M205.98,187.77c1.17,0.05,2.36-0.37,3.27-1.29l14.61-20.62l2.31-13.43l-7.14,2.59
			c-2.75,1.23-5.06,3.27-6.61,5.86l-7.13,11.83l-0.05-0.05C204.71,175.33,204.2,180.6,205.98,187.77z"/>
		<g>
			<g>
				<path class="st4" d="M257.1,197.1c-4.95,0.73-10.01,0.49-14.99,0.25c-5.32-0.26-10.63-0.58-15.94-1.01c-1.28-0.11-1.28,1.9,0,2
					c5.45,0.45,10.91,0.77,16.37,1.03c5.03,0.24,10.09,0.4,15.09-0.34C258.9,198.84,258.36,196.91,257.1,197.1L257.1,197.1z"/>
			</g>
		</g>
		<g>
			<g>
				<path class="st4" d="M245.78,199.7c-0.04,2.12,0.65,4.1,1.22,6.11c0.61,2.16,0.99,4.39,1.36,6.6c0.78,4.72,1.39,9.48,1.94,14.23
					c1.07,9.3,1.65,18.6,3.19,27.84c0.42,2.54,0.84,5.08,1.24,7.62c0.21,1.32,0.43,2.65,0.67,3.96c0.21,1.1,0.66,2.32,0.72,3.43
					c0.57-0.24,1.14-0.47,1.71-0.71c-0.04-0.04-0.08-0.08-0.12-0.12c-0.9-0.92-2.32,0.49-1.41,1.41c0.04,0.04,0.08,0.08,0.12,0.12
					c0.59,0.6,1.75,0.17,1.71-0.71c-0.04-0.78-0.31-1.59-0.47-2.35c-0.24-1.15-0.46-2.31-0.65-3.48c-0.39-2.28-0.73-4.58-1.11-6.86
					c-0.78-4.68-1.6-9.36-2.05-14.08c-0.9-9.36-1.72-18.71-3.11-28.02c-0.37-2.5-0.78-4.99-1.31-7.46c-0.54-2.5-1.68-4.97-1.63-7.56
					C247.81,198.42,245.81,198.42,245.78,199.7L245.78,199.7z"/>
			</g>
		</g>
		<g>
			<g>
				<path class="st4" d="M245.42,199.7c0.06,4.29,0.71,8.54,1.31,12.78c0.65,4.63,1.14,9.27,1.49,13.93
					c0.7,9.12,0.61,18.27,1.09,27.4c0.26,4.99,0.7,9.98,1.44,14.93c0.19,1.27,2.12,0.73,1.93-0.53c-1.31-8.79-1.59-17.7-1.77-26.57
					c-0.18-9.14-0.72-18.28-1.93-27.35c-0.65-4.85-1.49-9.69-1.56-14.59C247.4,198.42,245.4,198.41,245.42,199.7L245.42,199.7z"/>
			</g>
		</g>
		<path class="st4" d="M227.26,151.94c0.13,0.03,0.92-0.37,1.05-0.35l0.19-0.07c2.06-0.73,4.22-1.14,6.4-1.2l7.84-0.22
			c1.23-0.04,2.47,0.04,3.68,0.22l-0.5-0.74c-1.24-1.84-3.33-2.91-5.54-2.84l-5.85,0.19c-1.71,0.05-3.32,0.78-4.49,2.03
			L227.26,151.94z"/>
		<path class="st16" d="M179.06,156.09c0.84,0.58,1.82,0.94,2.83,1.04l3.32,3.22l17.32,25.46c0.81,1.24,2.1,1.9,3.44,1.95
			c-1.78-7.17-1.27-12.44-0.75-15.12l-14.33-14.67l0.1-0.08l-2.5-2.66l-0.03-1.46c-0.04-1.5-0.86-2.86-2.17-3.58l-8.21-4.53
			c0,0-2.45-0.04-0.22,2.17l-0.3-0.24c-0.54,0.53-0.78,1.3-0.65,2.05l0.19,1.05C177.29,151.76,174.54,152.97,179.06,156.09z"/>
		<g>
			<path class="st8" d="M225.83,124.05c0.35-1.34,0.85-2.99,1.79-4.04c1.34-1.51,3.21-2.66,5.27-2.56c2.33,0.11,4.63,0.6,6.9,1.14
				c4.88,1.17,9.16,4.45,10.77,9.31c0.03,0.09,0.06,0.18,0.09,0.27c1.44,4.71,0.25,11.07-4.36,13.61c-1.25,0.69-2.7,0.89-3.92,1.58
				c-0.19,0.11-3.44,0.15-6.16,0.36c-1.58,0.12-3.98-0.68-4.41-2.2c0-0.01-0.12,0.39-0.12,0.38c-0.17-0.63-0.64-1.49-0.53-2.17
				c0.06-0.39,1.25-0.55,1.58-0.72c1.86-0.98,3.43-3.62,1.99-5.58c-0.61-0.83-1.99-1.39-3.01-1c-0.47-1.02-0.71-2.3-0.99-3.39
				c-0.44,0.5-0.85,1.3-0.97,1.96c-0.48-1.11-1.11-2.51-0.82-3.74c0.12-0.53,0.25-1.06,0.37-1.59c0.1-0.42,0.41-0.87,0.44-1.26
				c-0.53,0.41-0.93,1.12-1.33,1.65c-0.1-0.72,0.12-1.53,0.44-2.29c-0.12,0.08-0.24,0.15-0.32,0.21c-0.63,0.48-1.17,1.17-1.57,1.86
				c-0.44,0.76-0.57,1.63-0.93,2.43c-0.22,0.48-0.38,0.97-0.55,1.47c-0.01-0.48-0.16-0.95-0.2-1.44
				C225.18,126.9,225.48,125.39,225.83,124.05z"/>
		</g>
		<g>
			<path class="st8" d="M236.92,143.46c0.95-1.02,3.43-3.21,5.02-2.75l0.13,1.57c0.76-0.11,1.78,0.82,2.27,1.32
				c0.6,0.62,1.13,1.41,1.37,2.25c0.85,2.93-1.68,5.53-1.68,8.46c0,1.13,0.2,2.35,0.77,3.34c0.45,0.8,1.22,1.21,1.8,1.88
				c-0.88-0.01-1.95-0.83-2.67-1.29c-1.08-0.69-2.17-1.4-3.25-2.11c-2.11-1.38-4.05-3.21-4.98-5.6
				C234.74,148.1,235.11,145.4,236.92,143.46z"/>
		</g>
		<path class="st1" d="M220.48,167.34c-0.07-0.28,0.36-0.4,0.43-0.12c0.18,0.72,0.41,1.43,0.68,2.12c0.21-2.04,0.37-4.08,0.45-6.13
			c0.01-0.29,0.46-0.29,0.45,0c-0.08,2.35-0.27,4.69-0.54,7.03c0.01,0.02,0.01,0.04,0.02,0.06c0.04,0.1,0.01,0.18-0.05,0.25
			c-0.01,0.11-0.02,0.22-0.03,0.33c-0.03,0.28-0.48,0.28-0.45,0c0.02-0.19,0.04-0.39,0.06-0.58
			C221.07,169.34,220.73,168.36,220.48,167.34z"/>
		<path class="st1" d="M260.14,167.85c0-0.29,0.45-0.29,0.45,0c-0.02,3.01-0.11,6.03-0.27,9.04c-0.02,0.29-0.46,0.29-0.45,0
			C260.03,173.87,260.12,170.86,260.14,167.85z"/>
		<path class="st1" d="M206.36,171.84c0.1-0.27,0.53-0.15,0.43,0.12c-0.4,1.11-0.57,2.24-0.51,3.42c0.01,0.29-0.43,0.29-0.45,0
			C205.78,174.16,205.95,172.99,206.36,171.84z"/>
		<path class="st1" d="M205.78,179.87c-0.04-0.47,0.43-0.4,0.47,0.07c0.17,1.93,0.57,3.83,1.22,5.73c0.16,0.46-0.27,0.59-0.43,0.13
			C206.37,183.83,205.95,181.86,205.78,179.87z"/>
	</g>
	<g>
		<g>
			<path class="st13" d="M172.17,200.62v18.53h15.72v-18.62c-0.37-0.51-3.74-0.91-7.84-0.91
				C175.7,199.62,172.17,200.08,172.17,200.62z"/>
			<path class="st17" d="M172.17,200.62c0,0.55,3.53,1,7.88,1c4.1,0,7.47-0.4,7.84-0.91c0.03-0.03,0.04-0.06,0.04-0.09
				c0-0.03-0.01-0.06-0.04-0.09c-0.37-0.51-3.74-0.91-7.84-0.91C175.7,199.62,172.17,200.08,172.17,200.62z"/>
			<path class="st13" d="M172.89,200.62c0,0.12,0.3,0.22,0.84,0.33c1.2,0.21,3.58,0.36,6.32,0.36c2.75,0,5.13-0.15,6.33-0.37
				c0.43-0.08,0.7-0.17,0.78-0.26c0.03-0.02,0.04-0.04,0.04-0.06c0-0.02-0.01-0.04-0.04-0.06c-0.33-0.35-3.39-0.62-7.11-0.62
				C176.1,199.93,172.89,200.25,172.89,200.62z"/>
			<path class="st18" d="M173.73,200.95c1.2,0.21,3.58,0.36,6.32,0.36c2.75,0,5.13-0.15,6.33-0.37c-1.19-0.21-3.58-0.37-6.33-0.37
				C177.31,200.58,174.93,200.73,173.73,200.95z"/>
		</g>
		<g>
			<g>
				<path class="st19" d="M177.79,211.68h0.13v-1.32h5.27v1.32h0.13c0.38,0,0.69,0.3,0.69,0.68v5.82c0,0.37-0.31,0.68-0.69,0.68
					h-5.53c-0.38,0-0.69-0.3-0.69-0.68v-5.82C177.11,211.98,177.42,211.68,177.79,211.68z"/>
				
					<rect x="178.16" y="213.33" transform="matrix(-1 -1.224647e-16 1.224647e-16 -1 361.1143 429.2668)" class="st4" width="4.79" height="2.6"/>
			</g>
		</g>
		<g>
			<g>
				<path class="st20" d="M186.9,211.57h0.13v-1.34h5.27v1.34h0.13c0.38,0,0.69,0.31,0.69,0.69v5.91c0,0.38-0.31,0.69-0.69,0.69
					h-5.53c-0.38,0-0.69-0.31-0.69-0.69v-5.91C186.22,211.88,186.52,211.57,186.9,211.57z"/>
				
					<rect x="187.27" y="213.25" transform="matrix(-1 -1.224647e-16 1.224647e-16 -1 379.3319 429.1397)" class="st4" width="4.79" height="2.64"/>
			</g>
		</g>
		<g>
			<g>
				<path class="st8" d="M169.9,211.57h0.13v-1.34h5.27v1.34h0.13c0.38,0,0.69,0.31,0.69,0.69v5.91c0,0.38-0.31,0.69-0.69,0.69
					h-5.53c-0.38,0-0.69-0.31-0.69-0.69v-5.91C169.21,211.88,169.52,211.57,169.9,211.57z"/>
				
					<rect x="170.27" y="213.25" transform="matrix(-1 -1.224647e-16 1.224647e-16 -1 345.32 429.1397)" class="st4" width="4.79" height="2.64"/>
			</g>
		</g>
		<g>
			<path class="st18" d="M172.08,216.49c3.61-0.08,8.58,0.69,14.05,1.76c0.57,0.11,0.48,0.95-0.1,0.93
				c-4.99-0.17-12.19-0.67-14.29-2.12L172.08,216.49z"/>
			<path class="st21" d="M169.74,214.87c-1.11,0.14-2.17,0.8-2.17,0.8c0.5-0.04,1.04,0.31,1.43,0.64c0.35,0.3,0.59,0.58,0.59,0.58
				c0.96,1.23,2.13,0.18,2.13,0.18l0.35-0.58C171.72,215.02,170.71,214.74,169.74,214.87z"/>
		</g>
		<g>
			<path class="st20" d="M167.45,217.94c3.56-0.6,8.59-0.55,14.16-0.26c0.58,0.03,0.61,0.88,0.03,0.94
				c-4.97,0.55-12.16,1.08-14.45-0.06L167.45,217.94z"/>
			<path class="st21" d="M164.91,216.67c-1.07,0.3-2.03,1.1-2.03,1.1c0.49-0.11,1.07,0.16,1.51,0.43c0.39,0.24,0.67,0.49,0.67,0.49
				c1.13,1.08,2.14-0.13,2.14-0.13l0.26-0.62C166.88,216.54,165.85,216.41,164.91,216.67z"/>
		</g>
	</g>
</g>
</svg>
