<?xml version="1.0" encoding="utf-8"?>
<!-- Generator: Adobe Illustrator 24.0.2, SVG Export Plug-In . SVG Version: 6.00 Build 0)  -->
<svg version="1.1" id="Layer_1" xmlns="http://www.w3.org/2000/svg" xmlns:xlink="http://www.w3.org/1999/xlink" x="0px" y="0px"
	 viewBox="0 0 400 400" style="enable-background:new 0 0 400 400;" xml:space="preserve">
<style type="text/css">
	.st0{fill:#D3E0F2;}
	.st1{fill:#72889A;}
	.st2{fill:#A4B7C5;}
	.st3{fill:#4D616F;}
	.st4{fill:#242F35;}
	.st5{fill:#C84556;}
	.st6{fill:#F3CEA1;}
	.st7{fill:#33434F;}
	.st8{fill:#DC5E79;}
	.st9{fill:#EFDCB3;}
	.st10{fill:#F8FBFC;}
	.st11{fill:#5376AC;}
	.st12{fill:#EED860;}
	.st13{fill:#DD9E83;}
	.st14{fill:#D1D7DA;}
	.st15{fill:#6B96C9;}
</style>
<path class="st0" d="M341.51,134.53c0,0-25.6-153.3-166.46-116.81S34.19-17.58,26.06,114.35s-45.19,176.01,102.87,247.17
	c143.5,68.97,119.31-38.18,178.88,17.58S431.08,134.53,341.51,134.53z"/>
<g>
	<g>
		<g>
			<path class="st1" d="M153.77,240.24c0.57,0,1.02-0.46,1.02-1.02c0-0.57-0.46-1.02-1.02-1.02c-0.57,0-1.02,0.46-1.02,1.02
				C152.75,239.78,153.21,240.24,153.77,240.24"/>
			<path class="st1" d="M120.27,211.61c25.03,0,40.61-4.08,51.98-9.94l-4.61-46.3c-0.34-3.46-3.26-6.1-6.74-6.1H48.34
				c-1.64,0-3.11,0.67-4.16,1.73c-1.06,1.07-1.7,2.53-1.7,4.12c0,0.26,0.02,0.52,0.05,0.78l5.2,39.47
				c12.72,6.42,36.13,15.53,67.44,16.19C116.9,211.59,118.61,211.61,120.27,211.61 M107.95,189.85c-1.53,1.63-3.67,2.65-6.02,2.65
				c-2.35,0-4.49-1.02-6.02-2.65c-1.54-1.63-2.48-3.88-2.48-6.37c0-2.48,0.95-4.73,2.48-6.37c1.53-1.63,3.67-2.65,6.02-2.65
				c2.35,0,4.49,1.02,6.02,2.65c1.54,1.63,2.48,3.89,2.48,6.37C110.43,185.96,109.49,188.22,107.95,189.85"/>
			<path class="st1" d="M160.84,240.24c0.57,0,1.02-0.46,1.02-1.02c0-0.57-0.46-1.02-1.02-1.02c-0.57,0-1.02,0.46-1.02,1.02
				C159.82,239.78,160.28,240.24,160.84,240.24"/>
			<path class="st2" d="M101.93,175.29c-2.12,0-4.03,0.91-5.42,2.39c-1.39,1.48-2.26,3.53-2.26,5.8s0.87,4.32,2.26,5.8
				c1.39,1.48,3.31,2.39,5.42,2.39c2.12,0,4.03-0.91,5.42-2.39c1.39-1.48,2.26-3.53,2.26-5.8s-0.87-4.32-2.26-5.8
				C105.96,176.2,104.05,175.29,101.93,175.29"/>
			<path class="st3" d="M123.83,222.64c-0.31-0.16-0.7-0.32-1.1-0.46c-0.82-0.29-1.72-0.52-2.31-0.65c-0.24-0.06-0.42-0.1-0.53-0.12
				l4.27,34.82h4.5l-4.27-33.22C124.28,222.9,124.08,222.76,123.83,222.64"/>
			<path class="st3" d="M168.45,155.29l8.43,84.57c0.03,0.25,0.04,0.5,0.04,0.75c0,2.89-1.67,5.43-4.12,6.66l2.42-0.02
				c3.69-0.02,6.62-3.04,6.62-6.65c0-0.22-0.01-0.44-0.03-0.67l-8.43-84.57c-0.34-3.46-3.26-6.1-6.74-6.1h-2.31
				C166.57,150.4,168.18,152.63,168.45,155.29"/>
			<path class="st2" d="M95.5,223.96c0-2.04,1.66-3.74,3.74-3.74l0.06,0h0l20.56,0.35l0.07,0.01c0.01,0,2.32,0.46,3.89,1.15
				c0.53,0.24,0.97,0.48,1.27,0.84c0.05,0.06,0.08,0.13,0.09,0.2l3.19,24.76l41.11-0.27c3.69-0.02,6.61-3.04,6.61-6.65
				c0-0.22-0.01-0.44-0.03-0.67l-3.73-37.39c-11.47,5.84-27.17,9.88-52.06,9.88c-1.67,0-3.38-0.02-5.13-0.05
				c-31.06-0.65-54.39-9.59-67.29-16.03l6.12,46.5c0.36,2.76,2.58,4.87,5.3,5.15l39.06-0.26l-2.8-23.32
				C95.51,224.26,95.5,224.11,95.5,223.96 M148.65,238.19c0-1.19,0.96-2.15,2.15-2.15h13.11c1.19,0,2.15,0.96,2.15,2.15v2.56
				c0,1.19-0.96,2.15-2.15,2.15H150.8c-1.19,0-2.15-0.96-2.15-2.15V238.19z"/>
			<path class="st2" d="M191.99,262.71h-20.63v42.62h20.63c1.09,0,2.08-0.44,2.8-1.16c0.72-0.72,1.16-1.71,1.16-2.8v-34.7
				c0-1.09-0.44-2.08-1.16-2.8C194.07,263.15,193.08,262.71,191.99,262.71"/>
			<path class="st1" d="M123.33,256.22l-4.27-34.85l-19.77-0.33h0l-0.05,0c-0.82,0-1.54,0.33-2.07,0.86
				c-0.53,0.53-0.85,1.26-0.85,2.06c0,0.12,0.01,0.24,0.02,0.36l3.84,31.91H123.33z"/>
			<path class="st3" d="M140.45,261.55c0-1.25-0.5-2.37-1.3-3.19c-0.8-0.82-1.9-1.32-3.12-1.32H90.32c-1.37,0-2.61,0.57-3.51,1.48
				c-0.85,0.87-1.39,2.05-1.44,3.37h55.09V261.55z"/>
			<path class="st1" d="M45.21,263.87c-0.72,0.72-1.16,1.71-1.16,2.8v34.7c0,1.1,0.44,2.08,1.16,2.8c0.72,0.72,1.71,1.16,2.8,1.16
				h122.53v-42.62H48.01C46.91,262.71,45.92,263.15,45.21,263.87"/>
			<path class="st1" d="M171.36,296.92v8.41h20.63c1.09,0,2.08-0.44,2.8-1.16c0.72-0.72,1.16-1.71,1.16-2.8v-7.9
				C187.8,294.95,179.59,296.13,171.36,296.92z"/>
			<path class="st3" d="M117.28,296.03c-18.44-2.63-37.2-7.62-53.84-16.21c-6.34-3.28-15.74-9.1-17.97-16.16
				c-0.08,0.07-0.18,0.13-0.26,0.21c-0.72,0.72-1.16,1.71-1.16,2.8v34.7c0,1.1,0.44,2.08,1.16,2.8c0.72,0.72,1.71,1.16,2.8,1.16
				h122.53V297C152.81,298.65,134.95,298.55,117.28,296.03z"/>
			<path class="st3" d="M150.8,242.08h13.11c0.74,0,1.33-0.6,1.33-1.33v-2.56c0-0.74-0.6-1.33-1.33-1.33H150.8
				c-0.74,0-1.33,0.6-1.33,1.33v2.56C149.47,241.49,150.07,242.08,150.8,242.08 M160.84,237.37c1.02,0,1.84,0.83,1.84,1.84
				c0,1.02-0.83,1.84-1.84,1.84c-1.02,0-1.84-0.83-1.84-1.84C159,238.2,159.82,237.37,160.84,237.37 M153.77,237.37
				c1.02,0,1.84,0.83,1.84,1.84c0,1.02-0.83,1.84-1.84,1.84c-1.02,0-1.84-0.83-1.84-1.84C151.93,238.2,152.75,237.37,153.77,237.37"
				/>
		</g>
		<g>
			<path class="st4" d="M101.93,174.47c-2.35,0-4.49,1.02-6.02,2.65c-1.54,1.63-2.48,3.89-2.48,6.37c0,2.48,0.95,4.73,2.48,6.37
				c1.53,1.63,3.67,2.65,6.02,2.65c2.35,0,4.49-1.02,6.02-2.65c1.54-1.63,2.48-3.89,2.48-6.37c0-2.48-0.95-4.73-2.48-6.37
				C106.42,175.48,104.29,174.47,101.93,174.47 M107.36,189.29c-1.4,1.48-3.31,2.39-5.42,2.39c-2.12,0-4.03-0.91-5.42-2.39
				c-1.39-1.48-2.26-3.53-2.26-5.8c0-2.27,0.87-4.32,2.26-5.8c1.39-1.48,3.31-2.39,5.42-2.39c2.12,0,4.03,0.91,5.42,2.39
				c1.39,1.48,2.26,3.53,2.26,5.8C109.62,185.75,108.75,187.8,107.36,189.29"/>
			<path class="st4" d="M191.99,261.89h-21.04h-29.68v-0.34c0-1.47-0.58-2.8-1.53-3.76c-0.94-0.96-2.26-1.56-3.7-1.56h-6.55
				l-1.01-7.83l46.74-0.31c4.15-0.03,7.43-3.41,7.43-7.47v0c0-0.25-0.01-0.5-0.04-0.75l-8.43-84.57c-0.38-3.88-3.65-6.84-7.55-6.84
				h-5.74H48.34c-3.74,0-6.69,3.04-6.69,6.68c0,0.29,0.02,0.59,0.06,0.88l5.23,39.68l6.22,47.26c0.41,3.15,2.95,5.55,6.04,5.86
				c0,0,0,0,0,0h0c0.22,0.02,0.44,0.04,0.68,0.04h0l38.55-0.26l0.92,7.63h-9.03c-1.6,0-3.05,0.66-4.09,1.73
				c-1,1.02-1.62,2.41-1.68,3.94H48.01c-2.64,0-4.78,2.14-4.78,4.78v34.7c0,2.64,2.14,4.78,4.78,4.78h122.94h21.04
				c2.64,0,4.78-2.14,4.78-4.78v-34.7C196.77,264.03,194.63,261.89,191.99,261.89 M128.66,256.22h-4.5l-4.27-34.82
				c0.11,0.02,0.29,0.06,0.53,0.12c0.59,0.14,1.49,0.37,2.31,0.65c0.41,0.14,0.79,0.3,1.1,0.46c0.25,0.13,0.44,0.26,0.56,0.37
				L128.66,256.22z M166.63,149.26c3.48,0,6.4,2.64,6.74,6.1l8.43,84.57c0.02,0.23,0.03,0.45,0.03,0.67c0,3.61-2.92,6.62-6.61,6.65
				l-2.42,0.02c2.45-1.24,4.12-3.77,4.12-6.66c0-0.25-0.01-0.5-0.04-0.75l-8.43-84.57c-0.26-2.66-1.88-4.88-4.12-6.02H166.63z
				 M42.52,155.9c-0.03-0.26-0.05-0.52-0.05-0.78c0-1.59,0.65-3.05,1.7-4.12c1.06-1.07,2.52-1.73,4.16-1.73h112.56
				c3.48,0,6.4,2.64,6.74,6.1l4.61,46.3c-11.37,5.86-26.95,9.94-51.98,9.94c-1.66,0-3.36-0.02-5.11-0.05
				c-31.31-0.66-54.72-9.78-67.44-16.19L42.52,155.9z M59.27,247.99c-2.72-0.28-4.94-2.39-5.3-5.15l-6.12-46.5
				c12.91,6.44,36.23,15.38,67.29,16.03c1.75,0.04,3.46,0.05,5.13,0.05c24.9,0,40.59-4.03,52.06-9.88l3.73,37.39
				c0.02,0.23,0.03,0.45,0.03,0.67c0,3.61-2.92,6.62-6.61,6.65l-41.11,0.27l-3.18-24.76c-0.01-0.08-0.04-0.14-0.09-0.2
				c-0.29-0.36-0.74-0.6-1.27-0.84c-1.57-0.69-3.87-1.15-3.89-1.15l-0.07-0.01l-20.56-0.35h0l-0.06,0c-2.09,0-3.74,1.7-3.74,3.74
				c0,0.15,0.01,0.3,0.03,0.45l2.8,23.32L59.27,247.99z M96.34,224.32c-0.01-0.12-0.02-0.24-0.02-0.36c0-0.8,0.32-1.52,0.85-2.06
				c0.53-0.53,1.26-0.86,2.07-0.86l0.05,0h0l19.77,0.33l4.27,34.85h-23.16L96.34,224.32z M86.81,258.53
				c0.9-0.92,2.14-1.48,3.51-1.48h45.73c1.22,0,2.32,0.5,3.12,1.32c0.8,0.82,1.3,1.94,1.3,3.19v0.34H85.37
				C85.42,260.58,85.96,259.4,86.81,258.53 M170.54,305.33H48.01c-1.09,0-2.08-0.44-2.8-1.16c-0.72-0.72-1.16-1.71-1.16-2.8v-34.7
				c0-1.09,0.44-2.08,1.16-2.8c0.72-0.72,1.71-1.16,2.8-1.16h122.53V305.33z M195.95,301.37c0,1.1-0.44,2.08-1.16,2.8
				c-0.72,0.72-1.71,1.16-2.8,1.16h-20.63v-42.62h20.63c1.09,0,2.08,0.44,2.8,1.16c0.72,0.72,1.16,1.71,1.16,2.8V301.37z"/>
			<path class="st4" d="M150.8,242.9h13.11c1.19,0,2.15-0.96,2.15-2.15v-2.56c0-1.19-0.96-2.15-2.15-2.15H150.8
				c-1.19,0-2.15,0.96-2.15,2.15v2.56C148.65,241.94,149.61,242.9,150.8,242.9 M149.47,238.19c0-0.74,0.6-1.33,1.33-1.33h13.11
				c0.74,0,1.33,0.6,1.33,1.33v2.56c0,0.74-0.6,1.33-1.33,1.33H150.8c-0.74,0-1.33-0.6-1.33-1.33V238.19z"/>
			<path class="st4" d="M153.77,241.06c1.02,0,1.84-0.83,1.84-1.84c0-1.02-0.83-1.84-1.84-1.84c-1.02,0-1.84,0.83-1.84,1.84
				C151.93,240.23,152.75,241.06,153.77,241.06 M153.77,238.19c0.57,0,1.02,0.46,1.02,1.02c0,0.57-0.46,1.02-1.02,1.02
				c-0.57,0-1.02-0.46-1.02-1.02C152.75,238.65,153.21,238.19,153.77,238.19"/>
			<path class="st4" d="M160.84,241.06c1.02,0,1.84-0.83,1.84-1.84c0-1.02-0.83-1.84-1.84-1.84c-1.02,0-1.84,0.83-1.84,1.84
				C159,240.23,159.82,241.06,160.84,241.06 M160.84,238.19c0.57,0,1.02,0.46,1.02,1.02c0,0.57-0.46,1.02-1.02,1.02
				c-0.57,0-1.02-0.46-1.02-1.02C159.82,238.65,160.28,238.19,160.84,238.19"/>
		</g>
	</g>
	<g>
		<g>
			<path class="st5" d="M281.1,159.48c0.96-0.13,1.84-0.19,2.63-0.19c2.86,0,4.73,0.78,5.94,1.72c0.71-1.28,0.98-2.59,0.98-3.54
				c0-0.31-0.03-0.58-0.07-0.79c-0.04-0.2-0.1-0.33-0.14-0.38h-0.02c-0.43,0-1.4,0.07-2.67,0.18c-1.27,0.11-2.84,0.26-4.5,0.44
				c-3.33,0.34-7.04,0.75-9.47,1.03c-1.12,0.13-1.95,0.22-2.37,0.27c-0.07,0.39-0.11,0.78-0.11,1.16c0,1.72,0.71,3.21,2.13,4.31
				c0.02,0.02,0.05,0.04,0.08,0.05C274.65,162.04,276.91,160.05,281.1,159.48"/>
			<path class="st6" d="M287.91,170.86c-0.88,0.29-1.75,0.54-2.59,0.76l0.69,2.6l0.01,0.04c0.06,0.22-0.07,0.44-0.29,0.5
				c-0.22,0.06-0.44-0.07-0.5-0.29l-0.6-2.24c-0.71,0.19-1.4,0.37-2.06,0.54c-0.03,0.38-0.06,0.78-0.06,1.21
				c0,1.48,0.24,3.17,1.05,4.55c0.81,1.38,2.15,2.49,4.49,2.91c0.75,0.13,1.49,0.19,2.21,0.19c6.14-0.01,10.97-4.54,10.97-10.37
				c0-0.54-0.05-1.1-0.14-1.66c-0.08,0-0.16,0-0.23,0c-0.79,0-1.54,0.01-2.23,0.03c0.01,0.18-0.1,0.36-0.28,0.41
				c-0.21,0.06-0.42-0.05-0.5-0.25c0-0.01-0.01-0.01-0.01-0.02l-1.17-3.87C294.52,167.83,291.67,169.62,287.91,170.86"/>
			<path class="st3" d="M266.04,126.46c-0.22-0.08-0.44-0.17-0.62-0.27c-0.67-0.32-1.01-0.79-0.89-0.91
				c0.09-0.09,0.46,0.14,1.12,0.3c0.65,0.18,1.54,0.37,2.43,0.53c0.27,0.05,0.48,0.09,0.68,0.13c0.39,0.04,0.83,0.08,1.31,0.11
				c2.25,0.18,5.45,0.36,9.27,0.36c6.88,0,15.74-0.58,24.57-2.79c0.15-0.04,0.31,0.01,0.41,0.13c0.1,0.11,0.13,0.28,0.07,0.42
				c0,0-0.05,0.12-0.13,0.35c-0.08,0.23-0.21,0.57-0.35,0.99c-0.29,0.85-0.68,2.07-1.07,3.51c-0.78,2.88-1.56,6.66-1.56,10.22
				c0,1.82,0.22,3.58,0.71,5.13c0.07-0.2,0.16-0.41,0.26-0.63c0.46-1.02,1.21-2.25,2.43-3.1c0.81-0.56,1.83-0.94,3.07-0.94
				c0.67,0,1.4,0.11,2.19,0.35c1.15,0.35,2,1.15,2.54,2.16c0.95-1.11,1.94-2.19,2.88-3.2c2.1-2.24,4.01-4.14,4.83-5.17
				c0.23-0.28,0.37-0.51,0.39-0.58v0l-0.02-0.08c-0.02-0.07-0.05-0.16-0.09-0.27c-0.08-0.22-0.21-0.52-0.36-0.86
				c-0.31-0.69-0.75-1.58-1.23-2.53c-0.97-1.91-2.13-4.09-2.91-5.52c-0.52-0.96-0.86-1.58-0.86-1.58c-0.08-0.14-0.07-0.31,0.03-0.44
				c0.36-0.48,0.96-0.89,1.68-1.29c0.72-0.4,1.55-0.78,2.35-1.11c0.67-0.28,1.3-0.51,1.81-0.7c-1.5-0.35-3.15-0.45-4.45-0.45
				c-1.04,0-1.85,0.06-2.19,0.09c-0.11,0.01-0.17,0.02-0.17,0.02c-0.13,0.01-0.25-0.03-0.34-0.12c-0.09-0.09-0.13-0.22-0.11-0.35
				c0.06-0.39,0.09-0.84,0.09-1.33c0-1.92-0.44-4.34-0.81-6.04c-0.68,3.86-1.88,6.06-1.9,6.09c-0.08,0.14-0.24,0.23-0.4,0.21
				c-0.16-0.02-0.3-0.13-0.35-0.29l-0.03-0.08c-0.02-0.06-0.05-0.14-0.09-0.26c-0.08-0.23-0.2-0.55-0.37-0.96
				c-0.34-0.81-0.86-1.94-1.6-3.19c-1.49-2.5-3.85-5.46-7.35-7.35c-5.91-3.21-15.31-5.47-18.23-6.11c0.66,1.2,1.25,2.69,1.71,3.98
				c0.57,1.6,0.93,2.89,0.93,2.9c0.04,0.15,0,0.31-0.12,0.41c-0.12,0.1-0.28,0.13-0.43,0.08c-5.67-2.26-12.62-2.58-16.05-2.58
				c-0.64,0-1.15,0.01-1.51,0.02c1.54,3.35,2.83,6.85,2.83,6.85c0.04,0.11,0.03,0.23-0.02,0.33c-0.05,0.1-0.15,0.18-0.26,0.21
				c-3.21,0.89-6.1,1.09-8.1,1.09c-1.06,0-1.87-0.06-2.35-0.1c0.14,4,2.1,8.73,2.6,9.87c0.07,0.17,0.12,0.26,0.12,0.26
				c0.05,0.1,0.05,0.22,0.01,0.32c-0.04,0.1-0.12,0.19-0.22,0.23l-3.75,1.59c1.94,5.94,4.34,9.66,5.8,11.55
				C264.62,132.36,265.4,129,266.04,126.46"/>
			<path class="st7" d="M320.45,133.22c-0.08-0.22-0.21-0.52-0.36-0.86c-0.31-0.69-0.75-1.58-1.23-2.53
				c-0.97-1.91-2.13-4.09-2.91-5.52c-0.52-0.96-0.86-1.58-0.86-1.58c-0.08-0.14-0.07-0.31,0.03-0.44c0.36-0.48,0.96-0.89,1.68-1.29
				c0.72-0.4,1.55-0.78,2.35-1.11c0.67-0.28,1.3-0.51,1.81-0.7c-1.5-0.35-3.15-0.45-4.45-0.45c-1.04,0-1.85,0.06-2.19,0.09
				c-0.11,0.01-0.17,0.02-0.17,0.02c-0.13,0.01-0.25-0.03-0.34-0.12c-0.09-0.09-0.13-0.22-0.11-0.35c0.06-0.39,0.09-0.84,0.09-1.33
				c0-1.92-0.44-4.34-0.81-6.04c-0.68,3.86-1.88,6.06-1.9,6.09c-0.08,0.14-0.24,0.23-0.4,0.21c-0.16-0.02-0.3-0.13-0.35-0.29
				l-0.03-0.08c-0.02-0.06-0.05-0.14-0.09-0.26c-0.08-0.23-0.2-0.55-0.37-0.96c-0.34-0.81-0.86-1.94-1.6-3.19
				c-0.96-1.61-2.3-3.42-4.06-5.01c1.84,2.65,2.64,5.88,2.54,9.18c-0.01,0.34-0.33,0.48-0.62,0.35c-1.71-0.75-3.23-1.82-4.83-2.76
				c0.42,1.3,0.9,2.58,1.13,3.94c0.06,0.32-0.18,0.56-0.5,0.5c-4.12-0.73-7.29-3.9-11.32-4.78c0.51,1.16,1.2,2.21,1.74,3.36
				c0.15,0.32-0.09,0.69-0.46,0.6c-5.4-1.3-10.77-2.64-15.94-4.69c0.69,1.16,1.38,2.31,2.06,3.48c0.19,0.33-0.12,0.66-0.46,0.6
				c-5.65-0.96-12.35-1.59-17.22-4.98c-0.41-0.02-0.75-0.05-1-0.07c0.14,4,2.1,8.73,2.6,9.87c0.07,0.17,0.12,0.26,0.12,0.26
				c0.05,0.1,0.05,0.22,0.01,0.32c-0.04,0.1-0.12,0.19-0.22,0.23l-3.75,1.59c1.94,5.94,4.34,9.66,5.8,11.55
				c0.75-3.69,1.53-7.05,2.17-9.58c-0.22-0.08-0.44-0.17-0.62-0.27c-0.67-0.32-1.01-0.79-0.89-0.91c0.09-0.09,0.46,0.14,1.12,0.3
				c0.65,0.18,1.54,0.37,2.43,0.53c0.27,0.05,0.48,0.09,0.68,0.13c0.39,0.04,0.83,0.08,1.31,0.11c2.25,0.18,5.45,0.36,9.27,0.36
				c6.88,0,15.74-0.58,24.57-2.79c0.15-0.04,0.31,0.01,0.41,0.13c0.1,0.11,0.13,0.28,0.07,0.42c0,0-0.05,0.12-0.13,0.35
				c-0.08,0.23-0.21,0.57-0.35,0.99c-0.29,0.85-0.68,2.07-1.07,3.51c-0.78,2.88-1.56,6.66-1.56,10.22c0,1.82,0.22,3.58,0.71,5.13
				c0.07-0.2,0.16-0.41,0.26-0.63c0.46-1.02,1.21-2.25,2.43-3.1c0.81-0.56,1.83-0.94,3.07-0.94c0.67,0,1.4,0.11,2.19,0.35
				c1.15,0.35,2,1.15,2.54,2.16c0.95-1.11,1.94-2.19,2.88-3.2c2.1-2.24,4.01-4.14,4.83-5.17c0.23-0.28,0.37-0.51,0.39-0.58v0
				l-0.02-0.08C320.53,133.43,320.49,133.33,320.45,133.22z"/>
			<path class="st8" d="M289.23,161.7c-1.05-0.84-2.73-1.59-5.5-1.59c-0.76,0-1.6,0.06-2.52,0.18c-3.95,0.55-5.96,2.36-7.02,3.87
				c1.4,0.81,3.3,1.3,5.73,1.3c0.91,0,1.89-0.07,2.95-0.22C286.14,164.79,288.08,163.33,289.23,161.7"/>
			<path class="st6" d="M278.87,233.22C278.87,233.22,278.87,233.22,278.87,233.22c-0.45,0.14-1.32,0.36-3.07,0.4
				c-1.74,0.04-3.5-0.23-4.77-0.63c-1.27-0.4-2.04-0.88-2-1.01c0.01-0.05,0.16-0.02,0.4,0.04c0.37,0.09,0.96,0.26,1.72,0.42
				c1.26,0.27,2.96,0.47,4.64,0.43c0.97-0.02,1.66-0.08,2.16-0.12c0.36-0.03,0.63-0.05,0.81-0.05c0.06,0,0.09,0,0.14,0
				c0.05-0.11,0.14-0.2,0.26-0.23c1-0.27,1.54-0.65,1.83-1.01c0.29-0.36,0.37-0.7,0.37-1c0-0.21-0.04-0.39-0.07-0.49
				c-0.05,0.02-0.11,0.03-0.18,0.05c-0.52,0.1-1.54,0.25-3.54,0.14c-1.99-0.11-3.98-0.47-5.44-0.9c-1.46-0.43-2.38-0.89-2.36-1.03
				c0.01-0.06,0.31-0.01,0.8,0.1c0.42,0.09,0.99,0.23,1.67,0.37c1.47,0.3,3.43,0.61,5.37,0.71c0.94,0.05,1.65,0.06,2.2,0.07
				c0.59,0,0.99,0,1.25,0.02c0.09,0,0.14,0.01,0.21,0.02c0.04-0.08,0.1-0.14,0.18-0.18c0.21-0.1,0.39-0.3,0.52-0.61
				c0.13-0.31,0.19-0.71,0.19-1.13c0-0.41-0.07-0.83-0.18-1.17c-0.11-0.34-0.28-0.6-0.41-0.69c-0.01-0.01-0.15-0.08-0.37-0.13
				c-0.21-0.06-0.5-0.11-0.83-0.15c-0.66-0.09-1.51-0.16-2.4-0.21c-1.79-0.11-3.76-0.18-4.91-0.31c-0.33-0.04-0.59-0.08-0.8-0.15
				c-0.16-0.05-0.5-0.13-0.92-0.21c-0.42-0.09-0.93-0.2-1.47-0.35c-1.07-0.3-2.25-0.76-3.07-1.62c-0.55-0.57-0.91-1.33-0.91-2.27
				c0-0.46,0.09-0.96,0.27-1.5c0.41-1.22,1.09-2.11,1.91-2.73c0.67-0.51,1.43-0.84,2.21-1.09c-0.01-0.13-0.02-0.27-0.02-0.41
				c0-0.19,0.01-0.38,0.06-0.58c0.05-0.19,0.13-0.39,0.32-0.55c0.13-0.1,0.31-0.17,0.48-0.16c0.21,0,0.74-0.03,1.34-0.06
				c0.61-0.03,1.3-0.06,1.89-0.06c0.47,0,0.85,0.01,1.14,0.09c0.1,0.03,0.2,0.05,0.33,0.17c0.04,0.03,0.07,0.08,0.1,0.14
				c0.09-0.04,0.18-0.08,0.27-0.12c0.54-0.28,0.87-0.61,1.08-0.95c0.2-0.34,0.28-0.71,0.28-1.08c0.01-0.75-0.35-1.52-0.63-1.92
				c-0.07-0.1-0.13-0.17-0.17-0.2c-0.1,0.01-0.31,0.04-0.61,0.11c-0.33,0.07-0.76,0.18-1.29,0.31c-1.06,0.27-2.51,0.63-4.34,1.01
				c-0.97,0.2-1.73,0.36-2.38,0.56c-0.65,0.2-1.19,0.43-1.76,0.79c-1.14,0.72-2.4,2-4.65,4.56c-1.55,1.76-2.5,3.16-3.07,4.35
				c-0.56,1.2-0.75,2.19-0.75,3.18c0,0.88,0.15,1.77,0.32,2.78c0.35,2.04,0.9,3.66,1.63,4.94c0.73,1.28,1.64,2.22,2.75,2.92
				c2.21,1.4,5.29,1.85,9.26,1.84c3.4,0,5.14-0.78,6.02-1.58C278.68,234.38,278.84,233.63,278.87,233.22"/>
			<path class="st6" d="M299.55,161.36c2.08-3.12,2.63-5.81,2.68-6.09l0-0.02c0.02-0.12,0.1-0.23,0.2-0.29
				c0.11-0.06,0.24-0.07,0.35-0.02c0.93,0.37,1.79,0.54,2.58,0.54c2.18,0,3.92-1.23,5.17-3.03c1.24-1.8,1.92-4.16,1.92-6.25
				c0-1.23-0.23-2.36-0.69-3.23c-0.47-0.88-1.14-1.5-2.07-1.79c-0.73-0.22-1.37-0.32-1.95-0.32c-1,0-1.8,0.28-2.47,0.71
				c-0.67,0.43-1.2,1.02-1.61,1.63c-0.82,1.23-1.16,2.56-1.23,2.84l-0.01,0.05c-0.04,0.17-0.18,0.31-0.36,0.33
				c-0.18,0.02-0.35-0.08-0.42-0.24c-0.87-1.96-1.2-4.25-1.2-6.6c0-6.05,2.14-12.52,2.9-14.65c-8.67,2.08-17.29,2.63-24.02,2.64
				c-4.29,0-7.8-0.22-10.08-0.42c-0.21,0-0.51-0.03-0.91-0.08c-0.72-0.07-1.25-0.13-1.57-0.17c-1.83,7.29-4.79,21.19-4.79,30.16
				c-0.01,3.17,0.39,5.73,1.24,7.07c2.55,4.07,7.52,7.62,15,7.62c2.79,0,5.93-0.5,9.42-1.65
				C293.86,168.03,297.46,164.47,299.55,161.36 M303.81,147.86c0.37-1.19,1.03-2.15,1.82-2.79c0.78-0.66,1.83-0.77,2.39-0.43
				c0.28,0.15,0.44,0.38,0.49,0.55c0.06,0.17,0,0.28-0.03,0.28c-0.07,0.02-0.12-0.31-0.59-0.47c-0.44-0.18-1.2-0.05-1.82,0.54
				c-0.62,0.58-1.2,1.5-1.48,2.53c-0.14,0.51-0.19,1.07-0.09,1.56c0.14,0.5,0.36,0.67,0.82,0.58c0.41-0.08,0.68-0.42,0.79-0.78
				c0.12-0.35,0.13-0.7,0.06-0.96c-0.16-0.55-0.33-0.52-0.61-0.49c-0.51,0.15-0.6,0.17-0.68,0.06c-0.04-0.04-0.07-0.09-0.03-0.19
				c0.05-0.09,0.15-0.26,0.5-0.44c0.13-0.06,0.32-0.14,0.57-0.11c0.08,0.01,0.16,0.02,0.25,0.05c0.39,0.13,0.63,0.52,0.75,0.91
				c0.13,0.41,0.14,0.9-0.03,1.44c-0.15,0.52-0.61,1.18-1.42,1.35c-0.36,0.08-0.83,0.06-1.21-0.22c-0.37-0.27-0.53-0.67-0.61-1.02
				C303.54,149.11,303.64,148.45,303.81,147.86 M292.08,145.95c-0.48,0.36-0.59,0.23-0.72,0.06c-0.12-0.17-0.21-0.31,0.27-0.67
				c0.48-0.36,1.01-0.66,1.2-0.42C292.96,145.09,292.56,145.6,292.08,145.95 M293.54,146.66c-0.37,0.35-0.49,0.23-0.64,0.08
				c-0.14-0.15-0.25-0.28,0.12-0.63c0.37-0.35,0.8-0.64,1.01-0.43C294.18,145.83,293.91,146.31,293.54,146.66 M288.13,132.74
				c0.5-0.36,1.13-0.74,1.87-1.02c0.37-0.15,0.76-0.26,1.21-0.33c0.44-0.05,0.89-0.06,1.32,0.02c0.87,0.13,1.45,0.41,1.87,0.64
				c0.42,0.24,0.67,0.44,0.82,0.61c0.3,0.34,0.21,0.49,0.1,0.63c-0.11,0.14-0.22,0.25-0.6,0.14c-0.05-0.01-0.12-0.03-0.18-0.05
				c-0.4-0.14-1.06-0.48-2.2-0.69c-0.68-0.11-1.29-0.03-1.95,0.19c-0.65,0.19-1.24,0.46-1.75,0.7c-0.57,0.27-1.02,0.51-1.35,0.64
				c-0.26,0.11-0.45,0.14-0.53,0.06h0C286.63,134.15,287.13,133.47,288.13,132.74 M290.89,141.23c-0.38,1.48-1.23,2.54-1.89,2.37
				c-0.67-0.17-0.9-1.51-0.52-2.99c0.38-1.48,1.23-2.54,1.89-2.37C291.03,138.42,291.27,139.76,290.89,141.23 M279.55,138.74
				c0.16,0.08,0.26,0.18-0.11,1.12c-0.28,0.71-0.81,1.9-1.8,3.93c-0.56,1.18-1.12,2.37-1.59,3.5c-0.12,0.28-0.22,0.56-0.33,0.83
				c-0.09,0.26-0.17,0.53-0.2,0.69c0,0.31,0.27,0.79,0.56,1.14c0.58,0.74,1.2,1.32,1.6,1.74c0.41,0.42,0.64,0.71,0.58,0.8h0
				c-0.04,0.06-0.34-0.08-0.84-0.41c-0.5-0.33-1.2-0.82-1.93-1.59c-0.34-0.4-0.78-0.83-0.88-1.66c0-0.18,0.03-0.4,0.07-0.55
				l0.13-0.47c0.1-0.29,0.2-0.6,0.31-0.9c0.45-1.19,1-2.4,1.56-3.6C278.97,138.6,279.3,138.62,279.55,138.74 M269.21,131.63
				c0.5-0.3,1.17-0.56,1.95-0.58c0.39-0.01,0.8,0.05,1.2,0.18c0.4,0.14,0.76,0.36,1.06,0.59c1.18,0.97,1.5,1.64,1.66,1.99
				c0.13,0.37,0.01,0.48-0.14,0.58c-0.15,0.1-0.28,0.18-0.59-0.03c-0.05-0.03-0.1-0.07-0.16-0.12c-0.31-0.25-0.75-0.75-1.56-1.41
				c-0.89-0.78-2.1-0.68-2.98-0.36c-0.71,0.25-1.2,0.58-1.48,0.61c-0.07,0.01-0.12,0-0.16-0.03
				C267.88,132.99,268.2,132.25,269.21,131.63 M266.52,146.08c-0.45,0.36-0.56,0.24-0.69,0.07c-0.13-0.16-0.22-0.3,0.22-0.66
				c0.45-0.36,0.95-0.66,1.14-0.43C267.32,145.22,266.96,145.72,266.52,146.08 M267.94,146.86c-0.39,0.28-0.5,0.15-0.62-0.02
				c-0.12-0.17-0.21-0.31,0.18-0.59c0.39-0.28,0.83-0.5,1.01-0.26C268.64,146.15,268.34,146.58,267.94,146.86 M269.43,142.85
				c-0.67-0.17-0.9-1.51-0.52-2.99c0.38-1.48,1.23-2.54,1.89-2.37c0.67,0.17,0.9,1.51,0.52,2.99
				C270.94,141.96,270.09,143.02,269.43,142.85 M286.78,164.88c-0.13,0.07-0.25,0.13-0.39,0.2c-0.19,0.09-0.4,0.17-0.61,0.26
				c-0.14,0.05-0.27,0.11-0.42,0.16c-0.24,0.08-0.49,0.15-0.74,0.22c-0.13,0.04-0.26,0.08-0.4,0.11c-0.4,0.09-0.81,0.18-1.25,0.24
				c-1.09,0.15-2.12,0.23-3.08,0.23c-0.28,0-0.55-0.01-0.82-0.03c-0.06,0-0.12,0-0.18,0c-0.28-0.02-0.56-0.04-0.83-0.07
				c-0.04-0.01-0.09-0.01-0.14-0.01c-0.28-0.03-0.56-0.08-0.83-0.13c-0.02,0-0.05-0.01-0.07-0.01c-0.29-0.05-0.56-0.11-0.83-0.18h0
				c-0.29-0.07-0.57-0.16-0.83-0.25c-0.18-0.06-0.36-0.13-0.54-0.21c-0.07-0.03-0.14-0.05-0.2-0.08c-0.21-0.09-0.42-0.19-0.62-0.3
				c-0.01,0-0.02-0.01-0.02-0.01c-0.39-0.21-0.76-0.43-1.09-0.68c-1.61-1.24-2.46-3.01-2.45-4.96c0-0.53,0.06-1.07,0.18-1.62
				c0.04-0.17,0.18-0.3,0.35-0.32c0,0,9.51-1.1,15.31-1.65c1.94-0.18,3.45-0.3,4.1-0.31l0.11,0c0.22,0.01,0.4,0.13,0.51,0.26
				c0.12,0.13,0.19,0.28,0.25,0.45c0.12,0.34,0.18,0.77,0.18,1.27c0,1.2-0.36,2.82-1.33,4.37c0,0,0,0.01-0.01,0.01
				c-0.04,0.06-0.08,0.11-0.12,0.17c-0.09,0.13-0.18,0.27-0.28,0.4c-0.02,0.02-0.04,0.05-0.06,0.07c-0.07,0.09-0.14,0.17-0.21,0.26
				c-0.12,0.14-0.23,0.27-0.36,0.41c-0.08,0.08-0.17,0.17-0.25,0.25c-0.13,0.13-0.27,0.25-0.42,0.38c-0.1,0.08-0.2,0.16-0.3,0.24
				c-0.15,0.12-0.31,0.23-0.47,0.34c-0.11,0.08-0.23,0.15-0.34,0.22C287.15,164.68,286.97,164.78,286.78,164.88"/>
			<path class="st9" d="M292.18,214.48c-0.02-0.16-0.04-0.34-0.04-0.53l-0.46,0.55C291.85,214.49,292.02,214.48,292.18,214.48"/>
			<path class="st5" d="M283.11,183.69c1.91,1.27,4.42,2.05,7.27,2.05c2.37,0,4.98-0.55,7.67-1.82c3.65-1.72,5.63-4.54,6.73-7.33
				c1.06-2.69,1.26-5.33,1.27-6.84c-1.48-0.09-2.86-0.13-4.13-0.15c0.08,0.56,0.13,1.11,0.13,1.65c0,3.15-1.31,5.95-3.44,7.96
				c-2.13,2.01-5.08,3.23-8.35,3.23c-0.77,0-1.56-0.07-2.35-0.21c-2.55-0.44-4.15-1.73-5.06-3.31c-0.91-1.57-1.16-3.39-1.16-4.96
				c0-0.35,0.02-0.69,0.04-1.01c-0.98,0.2-1.92,0.29-2.69,0.5c-0.04,0.37-0.07,0.77-0.07,1.2c0,1.25,0.17,2.7,0.5,4.12
				C279.91,180.69,281.2,182.42,283.11,183.69"/>
			<path class="st10" d="M257.46,227.09l0.4-0.07L257.46,227.09c-0.18-1.01-0.34-1.95-0.34-2.92c0-1.1,0.21-2.24,0.82-3.53
				c0.19-0.4,0.43-0.83,0.7-1.27c-1.82,0.41-4.17,1.01-6.62,1.67c-3.66,0.99-7.5,2.09-9.98,2.81c-1.66,0.48-2.71,0.79-2.71,0.79
				c-0.22,0.06-0.45-0.06-0.51-0.28c-0.03-0.09-0.02-0.18,0.01-0.26c0.04-0.12,0.13-0.22,0.26-0.25c0,0,4.23-1.26,9.05-2.6
				c1.74-0.49,3.55-0.98,5.26-1.43c2.84-2.93,9.67-11.21,12.92-15.17c1.09-1.33,1.77-2.17,1.77-2.17c0.07-0.09,0.17-0.14,0.27-0.15
				c-0.12-0.59-0.27-1.51-0.47-2.95c-0.54-3.92-1.01-7.93-0.72-8.02c0.2-0.06,0.93,3.99,1.46,7.91c0.13,0.94,0.22,1.65,0.27,2.21
				c0.02,0.2,0.04,0.38,0.05,0.54c0.47,2.5,0.89,5.16,1.29,7.91c0.04-0.01,0.08-0.02,0.12-0.02c2.72-0.57,4.58-1.09,5.62-1.33
				c0.35-0.08,0.6-0.13,0.82-0.13c0.06,0,0.12,0,0.2,0.02l0,0l0,0h0c0.15,0.04,0.21,0.1,0.29,0.16c0.07,0.06,0.14,0.13,0.2,0.22
				c0.13,0.17,0.27,0.38,0.4,0.64c0.26,0.51,0.49,1.18,0.49,1.9c0,0.49-0.11,1.01-0.4,1.5c-0.29,0.48-0.75,0.92-1.41,1.26
				c-0.17,0.09-0.36,0.15-0.54,0.22c0.01,0.1,0.03,0.2,0.04,0.3c0.02,0.15,0.04,0.28,0.06,0.39c2.37-0.09,5.17-0.2,8.04-0.31
				c0.47-0.02,0.93-0.04,1.4-0.05l0.88-5.03l-6.81-4.5c-0.14-0.1-0.21-0.27-0.17-0.44c0.04-0.17,0.19-0.29,0.36-0.31l9.09-0.86
				l2.51-7.94c0.05-0.16,0.2-0.28,0.37-0.29c0.17-0.01,0.33,0.1,0.4,0.25l3.24,7.93l9.61-0.53c0.17-0.01,0.34,0.09,0.4,0.25
				c0.07,0.16,0.02,0.35-0.11,0.46l-5.78,5.09c1.71,0.29,3.35,0.68,4.56,1.23c0.98,0.45,1.99,1.3,3,2.33c1,1.03,1.99,2.23,2.86,3.38
				c1.02,1.34,1.87,2.6,2.42,3.43c0.11-0.25,0.22-0.47,0.34-0.67c0.29-0.46,0.61-0.81,1.08-0.92c0.13-0.02,0.27-0.03,0.49-0.04
				c0.21-0.01,0.47-0.01,0.79-0.01c3.35,0,12.59,0.39,19.86,0.71c-0.35-3.54-0.65-6.41-0.87-7.99c-0.13-0.93-0.24-2.12-0.35-3.49
				l-11.34-13.52c-0.15-0.17-0.12-0.43,0.05-0.58c0.11-0.09,0.25-0.11,0.38-0.07c0.07,0.02,0.15,0.06,0.2,0.12l21.92,26.12
				c0.1,0.12,0.13,0.3,0.05,0.45c-0.07,0.15-0.22,0.23-0.39,0.23c0,0-1.48-0.07-3.8-0.18c-2.32-0.11-5.46-0.26-8.79-0.4
				c-6.66-0.29-14.05-0.58-16.93-0.58c-0.31,0-0.56,0-0.76,0.01c-0.19,0.01-0.33,0.02-0.36,0.03c-0.06,0-0.3,0.16-0.53,0.54
				c-0.23,0.38-0.48,0.94-0.68,1.64c-0.42,1.39-0.71,3.32-0.71,5.45c0,2.23,0.33,4.68,1.15,7c0.05,0.02,0.11,0.03,0.19,0.05
				c0.27,0.07,0.67,0.17,1.2,0.3c1.08,0.25,2.71,0.6,4.93,0.99c0.39,0.07,0.8,0.14,1.23,0.21c-0.07-0.06-0.16-0.21-0.3-0.62
				c-0.2-0.66-0.54-1.97-0.75-4.58c-0.09-1.31-0.11-2.63-0.04-3.87c0.1-1.24,0.24-2.4,0.5-3.37c0.47-1.96,1.2-3.14,1.32-3.11
				c0.03,0.01,0.02,0.08-0.01,0.2c-0.1,0.42-0.48,1.48-0.75,2.99c-0.2,0.96-0.29,2.1-0.36,3.31c-0.04,1.22-0.01,2.51,0.08,3.79
				c0.17,2.07,0.37,3.3,0.47,4.06c0.02,0.18,0.04,0.34,0.06,0.47c0.07,0.67,0,0.72-0.1,0.75h0c4.41,0.71,10.72,1.49,19.08,1.95
				c1.3,0.07,2.52,0.11,3.68,0.11c5.15,0,8.97-0.7,11.72-1.99c2.75-1.29,4.43-3.15,5.37-5.55c0.62-1.61,0.91-3.47,0.91-5.57
				c0-0.99-0.06-2.04-0.18-3.14c-0.29-2.72-1.7-6.37-3.85-10.42c-2.16-4.05-5.07-8.51-8.36-12.91c-6.55-8.75-14.63-17.26-21.31-21.9
				l0,0.01c-0.03-0.02-0.06-0.06-0.1-0.08c0,0,0,0-0.01,0c-2.68-1.77-5.34-2.9-8.54-3.68c-3.2-0.79-6.95-1.22-11.75-1.58
				c-0.22-0.02-0.43-0.03-0.65-0.04c-0.02,1.58-0.23,4.29-1.33,7.09c-0.28,0.72-0.62,1.44-1.03,2.15c0.69,0.4,2.15,1.4,5.39,3.78
				c5.67,4.16,11.39,8.45,11.28,8.74c-0.08,0.2-6.06-3.98-11.73-8.14c-3.18-2.34-4.59-3.44-5.19-3.98
				c-1.26,2.03-3.12,3.93-5.85,5.22c-2.79,1.32-5.52,1.89-8.02,1.89c-3,0-5.67-0.83-7.73-2.19c-2.05-1.36-3.49-3.27-3.99-5.41
				c-0.08-0.34-0.14-0.67-0.2-1.01c-0.2-1.14-0.31-2.27-0.31-3.29c0-0.33,0.01-0.63,0.04-0.93c-1.02,0.26-2.34,0.68-3.92,1.4
				c-3.89,1.78-9.27,5.32-15.17,12.4c-5.91,7.08-12.46,14.3-17.53,21.09c-3.62,4.85-6.46,9.48-7.79,13.64l-0.02-0.01
				c-0.96,2.78-1.36,5.1-1.36,7.04c0,2.17,0.5,3.85,1.28,5.17c0.78,1.32,1.86,2.29,3.04,2.99c2.37,1.42,5.2,1.77,6.81,1.77
				c0.1,0,0.19,0,0.28,0c0.77-0.02,2.02-0.26,3.49-0.62c1.47-0.37,3.16-0.86,4.84-1.39c3.36-1.06,6.7-2.26,8.23-2.84
				c0.1-0.04,0.2-0.08,0.28-0.11c-0.55-0.56-1.04-1.2-1.47-1.95C258.39,230.91,257.82,229.2,257.46,227.09 M321.63,185.56
				c0.18-1.36,0.51-2.7,0.94-3.91c0.23-0.6,0.47-1.18,0.72-1.72c0.27-0.52,0.51-1.03,0.78-1.48c0.27-0.42,0.52-0.82,0.76-1.19
				c0.23-0.35,0.48-0.63,0.67-0.87c0.39-0.47,0.64-0.73,0.71-0.7c0,0,0,0,0,0c0.02,0.01,0,0.07-0.04,0.17
				c-0.06,0.14-0.18,0.37-0.36,0.68c-0.17,0.28-0.35,0.59-0.55,0.93c-0.2,0.38-0.42,0.79-0.65,1.23c-0.24,0.45-0.44,0.96-0.69,1.48
				c-0.23,0.53-0.43,1.1-0.65,1.69c-0.39,1.19-0.7,2.48-0.87,3.79c-0.3,2.61-0.03,3.96,0.01,4.64c0.02,0.14,0.02,0.24,0.03,0.33
				c0.02,0.37-0.03,0.41-0.11,0.44c-0.09,0.03-0.22,0.03-0.44-0.66C321.69,189.71,321.32,188.3,321.63,185.56 M268.06,192.98
				c0.33-0.71,1.01-2.08,2.62-4.59c1.62-2.5,3.44-4.91,5.05-6.53c0.68-0.7,1.3-1.25,1.81-1.64c0.69-0.53,1.16-0.79,1.22-0.74
				c0.03,0.02-0.06,0.12-0.2,0.27c-0.39,0.4-1.31,1.23-2.38,2.46c-1.5,1.68-3.27,4.11-4.87,6.59c-0.86,1.33-1.47,2.32-1.92,3.06
				c-0.39,0.63-0.66,1.08-0.87,1.38c-0.43,0.65-0.53,0.64-0.62,0.59C267.81,193.78,267.74,193.7,268.06,192.98 M254.07,236.35
				c-0.06,0.08-0.17,0.14-0.72-0.31c-0.27-0.23-0.66-0.59-1.14-1.21c-0.49-0.6-1.06-1.47-1.61-2.72c-1.11-2.5-1.25-5.36-0.85-7.37
				c0.11-0.49,0.22-0.94,0.32-1.37c0.1-0.41,0.26-0.74,0.36-1.02c0.23-0.56,0.39-0.87,0.46-0.86c0.01,0,0.02,0.03,0.02,0.08
				c0,0.13-0.05,0.42-0.15,0.83c-0.06,0.29-0.17,0.63-0.24,1.03c-0.06,0.42-0.14,0.87-0.21,1.35c-0.27,1.97-0.07,4.67,0.98,7.03
				c0.51,1.18,1.04,2.01,1.47,2.6c0.43,0.6,0.75,0.98,0.96,1.25c0.14,0.16,0.22,0.28,0.28,0.36
				C254.13,236.23,254.12,236.29,254.07,236.35"/>
			<path class="st8" d="M361.45,220.41c-0.29-2.72-1.7-6.37-3.85-10.42c-2.16-4.05-5.07-8.51-8.36-12.91
				c-6.55-8.75-14.63-17.26-21.31-21.9l0,0.01c-0.03-0.02-0.06-0.06-0.1-0.08c0,0,0,0-0.01,0c-2.68-1.77-5.34-2.9-8.54-3.68
				c-3.2-0.79-6.95-1.22-11.75-1.58c-0.22-0.02-0.43-0.03-0.65-0.04c-0.02,1.58-0.23,4.29-1.33,7.09c-0.28,0.72-0.62,1.44-1.03,2.15
				c0.69,0.4,2.15,1.4,5.39,3.78c5.67,4.16,11.39,8.45,11.28,8.74c-0.01,0.03-0.11-0.02-0.3-0.12c0.17,0.22,0.34,0.45,0.52,0.67
				c0.14-0.15,0.39-0.21,0.58-0.02c0.18,0.18,0.35,0.38,0.51,0.57c0.1-0.07,0.22-0.09,0.34-0.05c0.07,0.02,0.15,0.06,0.2,0.12
				l21.92,26.12c0.1,0.12,0.13,0.3,0.05,0.45c-0.07,0.15-0.22,0.23-0.39,0.23c0,0-1.48-0.07-3.8-0.18c-2.32-0.11-5.46-0.26-8.79-0.4
				c-6.66-0.29-14.05-0.58-16.93-0.58c-0.31,0-0.56,0-0.76,0.01c-0.19,0.01-0.33,0.02-0.36,0.03c-0.06,0-0.3,0.16-0.53,0.54
				c-0.23,0.38-0.48,0.94-0.68,1.64c-0.42,1.39-0.71,3.32-0.71,5.45c0,2.23,0.33,4.68,1.15,7c0.05,0.02,0.11,0.03,0.19,0.05
				c0.27,0.07,0.67,0.17,1.2,0.3c1.08,0.25,2.71,0.6,4.93,0.99c0.39,0.07,0.8,0.14,1.23,0.21c-0.07-0.06-0.16-0.21-0.3-0.62
				c-0.2-0.66-0.54-1.97-0.75-4.58c-0.09-1.31-0.11-2.63-0.04-3.87c0.1-1.24,0.24-2.4,0.5-3.37c0.47-1.96,1.2-3.14,1.32-3.11
				c0.03,0.01,0.02,0.08-0.01,0.2c-0.1,0.42-0.48,1.48-0.75,2.99c-0.2,0.96-0.29,2.1-0.36,3.31c-0.04,1.22-0.01,2.51,0.08,3.79
				c0.17,2.07,0.37,3.3,0.47,4.06c0.02,0.18,0.04,0.34,0.06,0.47c0.07,0.67,0,0.72-0.1,0.75h0c4.41,0.71,10.72,1.49,19.08,1.95
				c1.3,0.07,2.52,0.11,3.68,0.11c5.15,0,8.97-0.7,11.72-1.99c2.75-1.29,4.43-3.15,5.37-5.55c0.62-1.61,0.91-3.47,0.91-5.57
				C361.63,222.56,361.57,221.51,361.45,220.41z M326.16,175.86c-0.06,0.14-0.18,0.37-0.36,0.68c-0.17,0.28-0.35,0.59-0.55,0.93
				c-0.2,0.38-0.42,0.79-0.65,1.23c-0.24,0.45-0.44,0.96-0.69,1.48c-0.23,0.53-0.43,1.1-0.65,1.69c-0.39,1.19-0.7,2.48-0.87,3.79
				c-0.3,2.61-0.03,3.96,0.01,4.64c0.02,0.14,0.02,0.24,0.03,0.33c0.02,0.37-0.03,0.41-0.11,0.44c-0.09,0.03-0.22,0.03-0.44-0.66
				c-0.18-0.69-0.55-2.11-0.24-4.84c0.18-1.36,0.51-2.7,0.94-3.91c0.23-0.6,0.47-1.18,0.72-1.72c0.27-0.52,0.51-1.03,0.78-1.48
				c0.27-0.42,0.52-0.82,0.76-1.19c0.23-0.35,0.48-0.63,0.67-0.87c0.39-0.47,0.64-0.73,0.71-0.7
				C326.22,175.7,326.2,175.77,326.16,175.86z"/>
			<path class="st8" d="M267.44,195.77c-0.11-0.09-0.18-0.23-0.13-0.41c0.02-0.06,0.04-0.12,0.06-0.18
				c-0.25-2.15-0.36-3.75-0.18-3.81c0.1-0.03,0.35,1.04,0.63,2.62c0.02-0.06,0.05-0.11,0.07-0.17c-0.08-0.05-0.13-0.16,0.17-0.84
				c0.1-0.23,0.25-0.54,0.45-0.92c0.01-0.03,0.02-0.06,0.02-0.09c0.02-0.11,0.07-0.17,0.14-0.22c0.42-0.79,1.05-1.87,2.01-3.36
				c1.62-2.5,3.44-4.91,5.05-6.53c0.5-0.52,0.97-0.95,1.39-1.3c0.46-0.56,0.95-1.09,1.61-1.4c-0.02-0.07-0.04-0.13-0.06-0.2
				c-0.08-0.34-0.14-0.67-0.2-1.01c-0.2-1.14-0.31-2.27-0.31-3.29c0-0.33,0.01-0.63,0.04-0.93c-1.02,0.26-2.34,0.68-3.92,1.4
				c-3.89,1.78-9.27,5.32-15.17,12.4c-5.91,7.08-12.46,14.3-17.53,21.09c-3.62,4.85-6.46,9.48-7.79,13.64l-0.02-0.01
				c-0.96,2.78-1.36,5.1-1.36,7.04c0,2.17,0.5,3.85,1.28,5.17c0.78,1.32,1.86,2.29,3.04,2.99c2.37,1.42,5.2,1.77,6.81,1.77
				c0.1,0,0.19,0,0.28,0c0.77-0.02,2.02-0.26,3.49-0.62c1.47-0.37,3.16-0.86,4.84-1.39c3.36-1.06,6.7-2.26,8.23-2.84
				c0.1-0.04,0.2-0.08,0.28-0.11c-0.55-0.56-1.04-1.2-1.47-1.95c-0.79-1.38-1.36-3.1-1.72-5.2c-0.18-1.01-0.34-1.95-0.34-2.92
				c0-1.1,0.21-2.24,0.82-3.53c0.19-0.4,0.43-0.83,0.7-1.27c-1.82,0.41-4.17,1.01-6.62,1.67c-3.66,0.99-7.5,2.09-9.98,2.81
				c-1.66,0.48-2.71,0.79-2.71,0.79c-0.22,0.06-0.45-0.06-0.51-0.28c-0.03-0.09-0.02-0.18,0.01-0.26c0.04-0.12,0.13-0.22,0.26-0.25
				c0,0,4.23-1.26,9.05-2.6c1.74-0.49,3.55-0.98,5.26-1.43c2.84-2.93,9.67-11.21,12.92-15.17c1.09-1.33,1.77-2.17,1.77-2.17
				c0.07-0.09,0.17-0.14,0.27-0.15c-0.12-0.59-0.27-1.51-0.47-2.95C267.73,198.15,267.57,196.9,267.44,195.77z M249.75,224.75
				c0.11-0.49,0.22-0.94,0.32-1.37c0.1-0.41,0.26-0.74,0.36-1.02c0.23-0.56,0.39-0.87,0.46-0.86c0.01,0,0.02,0.03,0.02,0.08
				c0,0.13-0.05,0.42-0.15,0.83c-0.06,0.29-0.17,0.63-0.24,1.03c-0.06,0.42-0.14,0.87-0.21,1.35c-0.27,1.97-0.07,4.67,0.98,7.03
				c0.51,1.18,1.04,2.01,1.47,2.6c0.43,0.6,0.75,0.98,0.96,1.25c0.14,0.16,0.22,0.28,0.28,0.36c0.13,0.2,0.11,0.26,0.07,0.32
				c-0.06,0.08-0.17,0.14-0.72-0.31c-0.27-0.23-0.66-0.59-1.14-1.21c-0.49-0.6-1.06-1.47-1.61-2.72
				C249.49,229.61,249.35,226.76,249.75,224.75z"/>
			<path class="st5" d="M361.32,219.55c-0.46,1.38-1.14,2.66-2.15,3.73c-4.02,4.26-11.19,5.33-16.69,5.82
				c-7.04,0.63-14.32,0.03-21.21-1.59c-0.29-0.07-0.6-0.14-0.9-0.22c0.01,0.67,0.04,1.36,0.09,2.04c0.17,2.07,0.37,3.3,0.47,4.06
				c0.02,0.18,0.04,0.34,0.06,0.47c0.07,0.67,0,0.72-0.1,0.75h0c4.41,0.71,10.72,1.49,19.08,1.95c1.3,0.07,2.52,0.11,3.68,0.11
				c5.15,0,8.97-0.7,11.72-1.99c2.75-1.29,4.43-3.15,5.37-5.55c0.62-1.61,0.91-3.47,0.91-5.57c0-0.99-0.06-2.04-0.18-3.14
				C361.42,220.13,361.37,219.84,361.32,219.55z"/>
			<path class="st5" d="M319.7,229.38c-0.06-0.77-0.07-1.53-0.07-2.29c-2.75-0.76-5.76-1.95-7.35-4.22
				c-0.14,0.97-0.23,2.04-0.23,3.17c0,2.23,0.33,4.68,1.15,7c0.05,0.02,0.11,0.03,0.19,0.05c0.27,0.07,0.67,0.17,1.2,0.3
				c1.08,0.25,2.71,0.6,4.93,0.99c0.39,0.07,0.8,0.14,1.23,0.21c-0.07-0.06-0.16-0.21-0.3-0.62
				C320.26,233.3,319.92,232,319.7,229.38z"/>
			<path class="st5" d="M267.44,195.77c-0.1-0.08-0.14-0.19-0.13-0.34c-6.16,10.77-15.41,19.55-24.88,27.46
				c1.58-0.46,3.59-1.03,5.72-1.63c1.74-0.49,3.55-0.98,5.26-1.43c2.84-2.93,9.67-11.21,12.92-15.17c1.09-1.33,1.77-2.17,1.77-2.17
				c0.07-0.09,0.17-0.14,0.27-0.15c-0.12-0.59-0.27-1.51-0.47-2.95C267.73,198.15,267.57,196.9,267.44,195.77z"/>
			<path class="st5" d="M257.46,227.09c-0.18-1.01-0.34-1.95-0.34-2.92c0-1.1,0.21-2.24,0.82-3.53c0.19-0.4,0.43-0.83,0.7-1.27
				c-0.13,0.03-0.26,0.06-0.39,0.09c-1.11,3.18-3.73,5.88-6.28,7.93c-0.51,0.41-1.05,0.82-1.6,1.22c0.17,1.07,0.45,2.17,0.91,3.2
				c0.51,1.18,1.04,2.01,1.47,2.6c0.43,0.6,0.75,0.98,0.96,1.25c0.14,0.16,0.22,0.28,0.28,0.36c0.13,0.2,0.11,0.26,0.07,0.32
				c-0.06,0.08-0.17,0.14-0.72-0.31c-0.27-0.23-0.66-0.59-1.14-1.21c-0.49-0.6-1.06-1.47-1.61-2.72c-0.43-0.98-0.72-2.01-0.88-3.03
				c-2.11,1.47-4.46,2.69-7,2.95c-4.22,0.43-8.45-1.33-10.21-4.49c-0.07,0.61-0.1,1.19-0.1,1.74c0,2.17,0.5,3.85,1.28,5.17
				c0.78,1.32,1.86,2.29,3.04,2.99c2.37,1.42,5.2,1.77,6.81,1.77c0.1,0,0.19,0,0.28,0c0.77-0.02,2.02-0.26,3.49-0.62
				c1.47-0.37,3.16-0.86,4.84-1.39c3.36-1.06,6.7-2.26,8.23-2.84c0.1-0.04,0.2-0.08,0.28-0.11c-0.55-0.56-1.04-1.2-1.47-1.95
				C258.39,230.91,257.82,229.2,257.46,227.09z"/>
			<path class="st10" d="M312.76,233.77c-0.12-0.04-0.22-0.13-0.27-0.25c-0.15-0.42-0.29-0.85-0.41-1.27
				c-2.03,1.27-4.88,2.35-7.77,3.16c-3.25,0.91-6.53,1.46-8.72,1.46c-0.19,0-0.38,0-0.56-0.01c-1.48-0.07-2.42-0.51-2.97-1.11
				c-0.55-0.6-0.67-1.3-0.67-1.78c0-0.09,0.01-0.16,0.01-0.23c-1.75-0.22-2.85-0.68-3.52-1.25c-0.36-0.3-0.58-0.64-0.72-0.96
				c-0.91,0.04-2.13,0.09-3.48,0.09c-0.04,0-0.08,0-0.13,0c0.06,4.55,0.13,9.75,0.13,14.13c0,3.54-0.04,6.53-0.18,8.27
				c-0.13,1.6-0.64,3.37-1.47,5.23c2.3,0.15,4.99,0.22,7.95,0.22c6.16,0,13.53-0.28,21.12-0.68c12.05-0.63,20.25-2.11,24.25-3.33
				c1.33-0.4,2.2-0.8,2.51-1.05c0.06-0.05,0.09-0.08,0.11-0.1v-0.01c0-0.25-0.04-1.04-0.12-2.21c-0.08-1.17-0.2-2.73-0.34-4.56
				c-0.23-2.92-0.52-6.53-0.85-10.36C320.34,236.05,312.79,233.78,312.76,233.77"/>
			<path class="st11" d="M281.67,260.04c-0.23,0.48-0.49,0.97-0.76,1.46c5.07,2.28,10.47,4.78,15.6,7.22
				c2.79-1.1,8.96-3.48,16.37-6.03c4.75-1.63,10-3.33,15.18-4.81c-4.34,0.71-9.99,1.35-16.89,1.71c-7.6,0.4-14.98,0.68-21.16,0.68
				C286.88,260.28,284.06,260.21,281.67,260.04"/>
			<path class="st9" d="M269.64,219.81c1.03-0.03,2.41-0.07,4.03-0.11c0.26-0.01,0.54-0.01,0.81-0.02c2.36-0.06,5.13-0.14,8.03-0.26
				c0.01-0.02,0.02-0.04,0.03-0.07c0.35-1.02,1-1.74,1.62-2.18c0.85-0.62,1.63-0.81,1.68-0.82c0.33-0.08,0.66,0.12,0.74,0.46
				c0.08,0.33-0.12,0.66-0.46,0.74v0l-0.01,0l-0.07,0.02c-0.06,0.02-0.16,0.05-0.28,0.1c-0.24,0.1-0.56,0.25-0.88,0.49
				c-0.37,0.28-0.73,0.64-0.99,1.14c-0.01,0.02-0.02,0.04-0.04,0.07c0.97-0.04,1.95-0.09,2.92-0.14c0.83-0.04,1.58-0.09,2.27-0.13
				c3.24-0.2,5.05-0.35,6.07-0.41c1.23-0.07,1.3,0,1.32,0.11c0.02,0.1-0.03,0.21-1.26,0.42c-1.23,0.2-3.63,0.5-8.35,0.76
				c-1.08,0.06-2.15,0.11-3.22,0.15c-0.04,0.17-0.07,0.36-0.08,0.56c-0.03,0.38-0.04,1.18-0.04,2.28c0,0.39,0,0.84,0,1.3
				c0.01,1.78,0.04,4.03,0.07,6.53c0.04,0,0.09,0,0.14,0c1.27,0,2.41-0.04,3.29-0.08c0-0.04,0-0.08,0-0.12
				c0-0.13,0.01-0.24,0.03-0.34c-0.1-0.05-0.19-0.11-0.29-0.17c-0.23-0.17-0.46-0.39-0.68-0.65c-0.42-0.52-0.78-1.22-0.78-2.01
				c0-0.66,0.28-1.36,0.93-1.94c0.41-0.36,1.07-0.69,1.95-1.06c0.87-0.37,1.95-0.75,3.11-1.15c0.19-0.06,0.38-0.12,0.57-0.19
				c1.34-0.3,2.4-0.64,3.22-1.03c1.16-0.36,2.29-0.71,3.28-1.02c0.23-0.07,0.45-0.14,0.67-0.21c-0.06-0.14-0.11-0.31-0.17-0.53
				c-0.06-0.2-0.11-0.44-0.17-0.69c-0.02-0.07-0.03-0.13-0.04-0.2c-0.04-0.18-0.07-0.35-0.1-0.51c-0.04-0.23-0.08-0.44-0.11-0.66
				c0.11-0.2,0.22-0.4,0.32-0.6c0.81-1.46,0.97-1.41,1.15-1.31c0.15,0.08,0.25,0.19-0.14,1c-0.09,0.19-0.2,0.4-0.35,0.68l-0.13,0.24
				l-0.07,0.12l-0.01,0.01c0.04,0.31,0.07,0.62,0.11,0.93c0.03,0.29,0.05,0.55,0.06,0.78c0,0.04,0,0.08,0.01,0.12
				c0.01,0.2,0,0.37-0.01,0.51c0.91-0.3,1.63-0.55,2.03-0.73c0.01,0,0.01-0.01,0.02-0.01l0.17,0.02c0.01-0.04,0.01-0.08,0.03-0.12
				c0.11-0.23,0.17-0.59,0.17-1c0-1.1-0.42-2.59-0.79-3.39c-0.1-0.22-0.21-0.39-0.26-0.46l-0.07,0c-0.37,0-1.24,0.02-2.47,0.06
				l0.01,0.04l-5.33,0.14c-0.99,0.04-2.03,0.07-3.11,0.11c-5.32,0.2-11.4,0.44-15.4,0.6c-0.79,0.03-1.48,0.06-2.09,0.08
				c-0.42,0.02-0.81,0.03-1.12,0.05l0.01,0.08c-0.31,0.02-0.6,0.03-0.82,0.05c0-0.03-0.01-0.06-0.01-0.09
				c-0.24,0.01-0.39,0.02-0.39,0.02c-0.07,0-0.14-0.02-0.2-0.05c-0.38,0.17-0.75,0.37-1.08,0.62c-0.7,0.53-1.26,1.25-1.63,2.33
				c-0.16,0.47-0.22,0.88-0.22,1.24c0,0.55,0.15,0.98,0.4,1.35c0.25,0.37,0.61,0.69,1.04,0.95c0.86,0.53,1.99,0.84,2.91,1.04
				c0,0,0,0,0,0c0-0.02,0-0.04-0.01-0.05c0.04,0.02,0.08,0.05,0.13,0.06c0.24,0.05,0.48,0.09,0.71,0.13c0,0.02,0,0.03,0,0.05
				c0.24,0.05,0.44,0.1,0.61,0.15c0.08,0.03,0.28,0.07,0.53,0.1c0.25,0.03,0.56,0.06,0.92,0.09c0.43,0.03,0.92,0.06,1.44,0.09
				c1.07,0.1,2.13,0.16,3.21,0.18c1.06,0.07,2.02,0.17,2.68,0.32c0.32,0.08,0.56,0.15,0.78,0.31c0.06,0.05,0.11,0.1,0.16,0.16
				c0-0.3,0-0.59-0.01-0.87c0-0.5,0-0.97,0-1.39c0-1.11,0.01-1.92,0.04-2.36c0.01-0.15,0.03-0.29,0.05-0.43
				c-3.15,0.1-6.15,0.13-8.6,0.1c-1.64-0.01-3.02-0.05-4.06-0.1c-1.24-0.06-1.98-0.14-2.01-0.21
				C267.65,219.89,268.38,219.85,269.64,219.81"/>
			<path class="st9" d="M338.14,255.34l-0.02-0.11c-0.1,0.06-0.22,0.13-0.34,0.19C337.9,255.39,338.02,255.36,338.14,255.34"/>
			<path class="st9" d="M275.29,214.81c-0.04-0.27-0.07-0.56-0.09-0.79c0,0,0,0,0,0c-0.18-0.03-0.47-0.04-0.81-0.04
				c-0.56,0-1.25,0.03-1.85,0.06c-0.59,0.03-1.09,0.06-1.36,0.06l-0.01,0.02c-0.03,0.08-0.06,0.26-0.06,0.45
				c0,0.2,0.02,0.41,0.05,0.59l4.17-0.11C275.31,214.98,275.3,214.9,275.29,214.81"/>
			<path class="st9" d="M282.32,230.77c0-0.37-0.01-0.73-0.01-1.08c-0.06,0.06-0.12,0.13-0.19,0.18c0.04,0.16,0.07,0.35,0.07,0.59
				c0,0.1-0.01,0.2-0.02,0.31C282.22,230.77,282.27,230.77,282.32,230.77"/>
			<path class="st12" d="M290.59,214.54l0.92-1.12c-0.57-0.24-1-0.61-1.26-1.06c-0.28-0.48-0.38-1.01-0.38-1.53
				c0-0.5,0.1-0.98,0.24-1.4c0.15-0.42,0.35-0.78,0.59-1.04c0.16-0.17,0.36-0.32,0.66-0.33c0.44,0,2.69,0.08,5.31,0.36
				c0.61,0.07,1.23,0.14,1.85,0.23l5.41-4.76l-8.72,0.48c-0.17,0.01-0.34-0.09-0.4-0.25l-2.92-7.15l-2.25,7.12
				c-0.05,0.16-0.19,0.27-0.35,0.28l-8.2,0.78l6.06,4c0.14,0.09,0.21,0.25,0.18,0.41l-0.9,5.12
				C287.85,214.64,289.25,214.59,290.59,214.54"/>
			<path class="st6" d="M312.05,220.15c-0.06-0.1-0.13-0.21-0.22-0.34c-0.31-0.48-0.76-1.15-1.31-1.92
				c-1.08-1.53-2.53-3.44-3.98-4.93c-0.97-0.99-1.94-1.79-2.75-2.16c-1.7-0.78-4.63-1.28-7.21-1.55c-2.55-0.28-4.78-0.35-5.2-0.36
				l-0.09,0.08c-0.08,0.08-0.19,0.24-0.28,0.43c-0.19,0.38-0.33,0.92-0.33,1.44c0,0.41,0.08,0.8,0.27,1.11
				c0.19,0.32,0.47,0.58,0.95,0.75c0.17,0.06,0.34,0.1,0.52,0.15c0.03-0.04,0.05-0.08,0.1-0.12c0.13-0.1,0.31-0.17,0.48-0.16
				c0.21,0,0.74-0.03,1.34-0.06c0.61-0.03,1.31-0.06,1.89-0.06c0.47,0,0.85,0.01,1.14,0.09c0.1,0.03,0.2,0.05,0.33,0.17
				c0.07,0.06,0.15,0.2,0.15,0.34c0,0.02,0,0.07,0.01,0.11c0.11,0.03,0.21,0.07,0.31,0.13c0.13,0.08,0.25,0.19,0.33,0.34
				c0.05,0.11,0.18,0.33,0.36,0.63c0.83-0.02,1.44-0.04,1.73-0.04l0.15,0l0.13,0.01c0.23,0.06,0.31,0.17,0.41,0.27
				c0.09,0.11,0.17,0.24,0.25,0.39c0.16,0.3,0.32,0.68,0.47,1.11c0.29,0.87,0.53,1.94,0.54,2.89c0,0.47-0.06,0.91-0.23,1.3
				c-0.01,0.01-0.01,0.03-0.01,0.04c0,0-0.01,0.01-0.01,0.01c-0.03,0.07-0.06,0.13-0.09,0.16l-0.16,0.14
				c-0.11,0.07-0.24,0.14-0.39,0.21c-0.31,0.14-0.74,0.3-1.26,0.48c-1.04,0.36-2.46,0.8-4,1.28c-3.07,0.95-6.64,2.07-8.53,2.95
				c-0.54,0.25-0.94,0.49-1.12,0.65c-0.5,0.45-0.65,0.89-0.66,1.32c0,0.39,0.14,0.8,0.36,1.15c0.22,0.36,0.51,0.66,0.76,0.84
				c0.16,0.12,0.31,0.18,0.34,0.18c0.1,0.01,0.18,0.07,0.25,0.14c0.09-0.03,0.21-0.07,0.37-0.11c0.66-0.19,1.98-0.44,4.52-1.03
				c0.09-0.02,0.18-0.04,0.28-0.07c2.22-0.52,4.4-1.14,6.16-1.66c0.18-0.06,0.37-0.11,0.54-0.16c1.9-0.58,3.18-1,3.27-0.87
				c0.06,0.08-1.16,0.68-3.05,1.39c-1.89,0.71-4.46,1.51-7.03,2.1c-2.57,0.6-3.91,0.77-4.6,0.82c-0.16,0.01-0.28,0.01-0.38,0.01
				l0,0.01l-0.02,0.09c-0.02,0.08-0.04,0.2-0.04,0.34c0.01,0.35,0.1,0.81,0.63,1.27c0.54,0.46,1.58,0.93,3.5,1.11
				c0.12,0.01,0.23,0.07,0.29,0.17c0.06-0.02,0.12-0.03,0.21-0.05c0.34-0.07,0.91-0.14,1.83-0.28c0.46-0.07,1-0.16,1.66-0.28
				c2.15-0.39,4.25-1.02,5.75-1.48c1.24-0.38,2.07-0.63,2.14-0.51v0c0.05,0.08-0.87,0.58-2.31,1.16c-1.44,0.58-3.43,1.19-5.43,1.57
				c-2,0.37-3.06,0.38-3.6,0.35c-0.08-0.01-0.14-0.01-0.2-0.02l0,0.01c-0.01,0.09-0.03,0.21-0.03,0.36c0,0.36,0.09,0.83,0.45,1.23
				c0.36,0.4,1.05,0.77,2.4,0.84c0.16,0.01,0.33,0.01,0.51,0.01c2.06,0,5.31-0.54,8.5-1.43c2.95-0.82,5.85-1.96,7.77-3.21
				c-0.44-1.82-0.63-3.66-0.63-5.37c0-1.66,0.17-3.19,0.44-4.48C311.79,221.05,311.92,220.58,312.05,220.15"/>
			<path class="st13" d="M285.42,180.45c5.67-1.8,11.03-5.34,13.08-10.52c-0.04,0.04-0.08,0.09-0.15,0.11
				c-0.21,0.06-0.42-0.05-0.5-0.25c0-0.01-0.01-0.01-0.01-0.02l-1.17-3.87c-2.15,1.92-5,3.71-8.76,4.96
				c-0.88,0.29-1.75,0.54-2.59,0.76l0.69,2.6l0.01,0.04c0.06,0.22-0.07,0.44-0.29,0.5c-0.22,0.06-0.44-0.07-0.5-0.29l-0.6-2.24
				c-0.71,0.19-1.4,0.37-2.06,0.54c-0.03,0.38-0.06,0.78-0.06,1.21c0,1.48,0.24,3.17,1.05,4.55
				C284,179.27,284.6,179.93,285.42,180.45z"/>
			<path class="st13" d="M275.8,233.62c-0.97,0.02-1.94-0.06-2.84-0.2c-3.17,0.21-6.59,0.17-9.43-1.32
				c-2.18-1.14-3.99-2.81-5.19-4.76c0.35,1.85,0.87,3.36,1.55,4.55c0.73,1.28,1.64,2.22,2.75,2.92c2.21,1.4,5.29,1.85,9.26,1.84
				c3.4,0,5.14-0.78,6.02-1.58c0.77-0.7,0.93-1.45,0.96-1.86c0,0,0,0-0.01,0C278.43,233.36,277.55,233.58,275.8,233.62z"/>
			<path class="st13" d="M270.47,131.14c0.22-0.05,0.45-0.08,0.69-0.09c0.39-0.01,0.8,0.05,1.2,0.18c0.32,0.11,0.6,0.28,0.86,0.46
				c4.91,0.87,9.94,1.17,14.89,1.07c0.01-0.01,0.02-0.01,0.02-0.02c0.5-0.36,1.13-0.74,1.87-1.02c0.37-0.15,0.76-0.26,1.21-0.33
				c0.44-0.05,0.89-0.06,1.32,0.02c0.87,0.13,1.45,0.41,1.87,0.64c0.07,0.04,0.13,0.08,0.19,0.12c1.37-0.02,2.65,0.29,3.62,1.44
				c1.66,1.98,1.53,4.77,2.27,7.2c-0.02-0.41-0.04-0.83-0.04-1.25c0-6.05,2.14-12.52,2.9-14.65c-8.67,2.08-17.29,2.63-24.02,2.64
				c-4.29,0-7.8-0.22-10.08-0.42c-0.21,0-0.51-0.03-0.91-0.08c-0.72-0.07-1.25-0.13-1.57-0.17c-0.23,0.93-0.48,1.96-0.74,3.08
				C267.49,130.4,268.97,130.8,270.47,131.14z"/>
			<path class="st13" d="M311.68,221.56c0.11-0.52,0.24-0.98,0.38-1.42c-0.06-0.1-0.13-0.21-0.22-0.34
				c-0.26-0.4-0.62-0.94-1.05-1.56c-0.7,3.96-2.29,7.78-5.24,10.59c-0.66,0.63-1.36,1.19-2.08,1.69c0.18-0.03,0.3-0.04,0.32,0v0
				c0.05,0.07-0.72,0.5-1.95,1.01c-2.94,1.61-6.25,2.32-9.62,2.25c0,0.05-0.01,0.11-0.01,0.17c0,0.36,0.09,0.83,0.45,1.23
				c0.36,0.4,1.05,0.77,2.4,0.84c0.16,0.01,0.33,0.01,0.51,0.01c2.06,0,5.31-0.54,8.5-1.43c2.95-0.82,5.85-1.96,7.77-3.21
				c-0.44-1.82-0.63-3.66-0.63-5.37C311.23,224.39,311.4,222.85,311.68,221.56z"/>
			<path class="st9" d="M297.04,213.3c-0.18-0.03-0.47-0.04-0.81-0.04c-0.56,0-1.25,0.03-1.85,0.06c-0.59,0.03-1.09,0.06-1.36,0.06
				l-0.01,0.02c-0.03,0.07-0.06,0.26-0.06,0.45c0,0.2,0.02,0.41,0.05,0.59l4.17-0.11c-0.01-0.08-0.02-0.16-0.03-0.25
				C297.11,213.82,297.07,213.54,297.04,213.3C297.05,213.3,297.05,213.3,297.04,213.3"/>
			<path class="st10" d="M328.51,288.43C328.51,288.43,328.51,288.43,328.51,288.43l-0.05,0.1c-0.03,0.07-0.08,0.16-0.14,0.29
				c-0.11,0.24-0.26,0.59-0.41,1.01c-0.01,0.02-0.01,0.03-0.02,0.04c-0.31,0.87-0.61,2.04-0.61,3.21c0,0.24,0.02,0.48,0.05,0.72
				c0.04,0.35,0.1,0.7,0.22,1.03c0.02,0.06,0.02,0.12,0.02,0.17l2.14,0.7c-0.12-0.51-0.17-1.01-0.17-1.49
				c0.01-2.52,1.32-4.58,1.7-5.13L328.51,288.43z"/>
			<path class="st10" d="M337.85,299.58c0,1.77,0.23,3.71,0.73,5.84c2.19,0.45,4.47,0.77,6.61,0.77c2.64,0,5.02-0.5,6.72-1.8
				c0.63-0.49,1.18-1.09,1.62-1.83c0.73-1.24,1.15-2.87,1.16-5.02c0-3.06-1.29-5.39-3.31-7.25c-1.96-1.8-4.62-3.13-7.39-4.11
				C340.8,288.91,337.86,293.11,337.85,299.58"/>
			<path class="st7" d="M337.05,298.94c-0.04,0-0.08,0-0.12-0.01l-14.76-4.85c-0.97,0.81-2.31,1.31-4.04,1.31
				c-0.41,0-0.85-0.03-1.3-0.09c-0.02,0.02-0.05,0.05-0.08,0.07c1.38,1.69,3.45,3.23,5.92,4.57c3.44,1.87,7.62,3.37,11.63,4.46
				c1.06,0.29,2.22,0.58,3.41,0.84c-0.45-2.03-0.67-3.92-0.67-5.65C337.03,299.37,337.05,299.15,337.05,298.94"/>
			<path class="st10" d="M276.8,295.06c-0.15-1.16-0.68-2.49-1.28-3.66c-0.28-0.54-0.57-1.04-0.84-1.48
				c-0.42-0.69-0.79-1.23-0.99-1.5c-0.04-0.06-0.07-0.1-0.09-0.13l-2.29,1.14c0.19,0.24,0.89,1.17,1.6,2.42
				c0.82,1.46,1.66,3.34,1.66,5.15c0,0.1-0.01,0.19-0.01,0.29c0.75-0.38,1.51-0.76,2.26-1.16c0-0.02-0.01-0.05-0.01-0.07
				c0.01-0.13,0.02-0.26,0.02-0.39C276.84,295.48,276.82,295.27,276.8,295.06"/>
			<path class="st10" d="M276.12,258.46c0.91,0.24,2.08,0.43,3.45,0.58c0.37,0.04,0.77,0.08,1.17,0.11c0.9-1.93,1.44-3.71,1.55-5.23
				c0.13-1.66,0.17-4.66,0.17-8.18c0-4.39-0.07-9.59-0.13-14.15c-0.14,0-0.28-0.01-0.42-0.01c-0.07,0.14-0.16,0.27-0.27,0.4
				c-0.39,0.47-1.01,0.87-1.94,1.17c-0.01,0.53-0.2,1.59-1.23,2.53c-0.95,0.87-2.58,1.59-5.33,1.75c0.8,10.6,1.16,18.93,1.22,20.31
				C274.71,258,275.31,258.25,276.12,258.46"/>
			<path class="st14" d="M312.75,218.52c0.29-0.46,0.61-0.81,1.08-0.92c0.13-0.02,0.27-0.03,0.49-0.04
				c0.21-0.01,0.47-0.01,0.79-0.01c3.35,0,12.59,0.39,19.86,0.71c-0.35-3.54-0.65-6.41-0.87-7.99c-0.13-0.93-0.24-2.12-0.35-3.49
				l-10.89-12.97c-0.98,9.06-5.79,16.45-13.32,21.37c0.15,0.19,0.3,0.39,0.45,0.58c1.02,1.34,1.87,2.6,2.42,3.43
				C312.52,218.94,312.63,218.72,312.75,218.52z"/>
			<path class="st14" d="M312.76,233.77c-0.12-0.04-0.22-0.13-0.27-0.25c-0.15-0.42-0.29-0.85-0.41-1.27
				c-2.03,1.27-4.88,2.35-7.77,3.16c-3.25,0.91-6.53,1.46-8.72,1.46c-0.19,0-0.38,0-0.56-0.01c-1.48-0.07-2.42-0.51-2.97-1.11
				c-0.55-0.6-0.67-1.3-0.67-1.78c0-0.09,0.01-0.16,0.01-0.23c-1.75-0.22-2.85-0.68-3.52-1.25c-0.36-0.3-0.58-0.64-0.72-0.96
				c-0.91,0.04-2.13,0.09-3.48,0.09c-0.04,0-0.08,0-0.13,0c0.06,4.55,0.13,9.75,0.13,14.13c0,3.54-0.04,6.53-0.18,8.27
				c-0.13,1.6-0.64,3.37-1.47,5.23c2.3,0.15,4.99,0.22,7.95,0.22c6.16,0,13.53-0.28,21.12-0.68c12.05-0.63,20.25-2.11,24.25-3.33
				c1.33-0.4,2.2-0.8,2.51-1.05c0.06-0.05,0.09-0.08,0.11-0.1v-0.01c0-0.25-0.04-1.04-0.12-2.21c-0.08-1.17-0.2-2.73-0.34-4.56
				c-0.23-2.92-0.52-6.53-0.85-10.36C320.34,236.05,312.79,233.78,312.76,233.77"/>
			<path class="st14" d="M276.12,258.46c0.91,0.24,2.08,0.43,3.45,0.58c0.37,0.04,0.77,0.08,1.17,0.11c0.9-1.93,1.44-3.71,1.55-5.23
				c0.13-1.66,0.17-4.66,0.17-8.18c0-4.39-0.07-9.59-0.13-14.15c-0.14,0-0.28-0.01-0.42-0.01c-0.07,0.14-0.16,0.27-0.27,0.4
				c-0.39,0.47-1.01,0.87-1.94,1.17c-0.01,0.53-0.2,1.59-1.23,2.53c-0.95,0.87-2.58,1.59-5.33,1.75c0.8,10.6,1.16,18.93,1.22,20.31
				C274.71,258,275.31,258.25,276.12,258.46"/>
			<path class="st15" d="M365.63,257.11c-2.38-1.97-5.84-2.91-11.04-2.91c-2.78,0-6.05,0.27-9.9,0.79
				c-15.18,2.04-39.62,11.27-47.17,14.22c8.01,3.82,15.27,7.43,19.45,9.71c1.58,0.86,2.71,1.53,3.32,1.97l0.02,0.02
				c2.6,0.22,6.99,0.69,11.37,1.62c1.66,0.35,5.41,0.83,9.44,1.92c0.72,0.19,1.45,0.42,2.18,0.65c5.41-0.92,10.05-2,13.87-3.28
				c5.36-1.8,9.12-4,11.24-6.67c1.41-1.79,2.12-3.78,2.12-6.08c0-0.8-0.09-1.64-0.26-2.52
				C369.38,262.14,368.01,259.08,365.63,257.11"/>
			<path class="st10" d="M279.91,293.18c-0.29-1.85-0.99-3.3-1.7-4.34c-0.11-0.16-0.22-0.32-0.33-0.46
				c-0.11-0.03-0.22-0.05-0.34-0.08c-0.88-0.21-1.76-0.42-2.65-0.64l-0.54,0.27c0.27,0.38,0.92,1.32,1.58,2.51
				c0.85,1.55,1.73,3.5,1.74,5.24c0,0.01,0,0.02,0,0.03c0.81-0.43,1.61-0.86,2.4-1.29c-0.02-0.04-0.03-0.08-0.03-0.12
				C280.01,293.9,279.96,293.53,279.91,293.18"/>
			<path class="st10" d="M339.11,290.9l-3.56-0.83c-0.01,0.04-0.03,0.08-0.06,0.11c-0.25,0.32-0.46,0.72-0.64,1.16
				c-0.33,0.81-0.55,1.76-0.68,2.66c-0.05,0.31-0.08,0.61-0.11,0.89c-0.1,1-0.12,1.84-0.12,2.18l3.16,1.04
				C337.29,295.3,338.04,292.91,339.11,290.9"/>
			<path class="st7" d="M280.82,294c2.26-1.24,4.4-2.46,6.22-3.51c-2.56-0.56-5.23-1.17-7.98-1.82
				C279.88,289.94,280.65,291.72,280.82,294"/>
			<path class="st7" d="M343.09,285.89c-2.06-0.67-4.14-1.17-6-1.54c-2.4-0.48-4.42-0.77-5.58-1.02c-3.98-0.85-8-1.31-10.63-1.55
				c1.29,1,2.41,2.31,2.91,4.04c0.07,0.23,0.13,0.47,0.18,0.7l15.56,3.63C340.55,288.45,341.79,287.04,343.09,285.89"/>
			<path class="st10" d="M318.13,294.56c1.98-0.01,3.26-0.68,4.09-1.69c0.83-1.02,1.2-2.44,1.2-3.94c0-0.61-0.07-1.23-0.18-1.84
				c-0.06-0.09-0.08-0.2-0.06-0.3c-0.05-0.24-0.11-0.49-0.18-0.73l0.39-0.11l-0.39,0.11c-0.36-1.26-1.12-2.29-2.05-3.14
				c0.13,0.68,0.23,1.52,0.23,2.47c0,2.53-0.74,5.89-3.63,9.14C317.75,294.54,317.95,294.56,318.13,294.56"/>
			<path class="st10" d="M324.13,287.4c0.07,0.5,0.11,1.01,0.11,1.52c0,1.64-0.4,3.24-1.38,4.46c-0.01,0.01-0.03,0.03-0.04,0.04
				l3.85,1.27c-0.14-0.54-0.2-1.08-0.2-1.62c0.01-2.19,0.92-4.23,1.22-4.84L324.13,287.4z"/>
			<path class="st15" d="M319.72,281.49c-0.57-0.4-1.65-1.04-3.13-1.85c-1.56-0.85-3.57-1.9-5.88-3.07
				c-4.63-2.34-10.51-5.21-16.65-8.1c-4.51-2.13-9.16-4.27-13.55-6.25c-0.66,1.11-1.4,2.24-2.24,3.38
				c-3.07,4.17-7.31,8.43-12.28,12.02c-2.09,1.51-4.41,3.21-6.94,4.98c1.92,0.55,3.96,1.12,6.14,1.7
				c23.4,6.33,44.78,9.89,49.75,10.68c0.42,0.07,0.71,0.11,0.89,0.14c3.69-3.46,4.55-7.08,4.55-9.75
				C320.37,283.33,319.86,281.86,319.72,281.49"/>
			<path class="st10" d="M330.64,295.95c0,0.01,0,0.03,0,0.04l2.47,0.81c0.01-0.59,0.05-1.7,0.24-2.93c0.21-1.38,0.59-2.9,1.36-4.01
				l-2.63-0.61c-0.01,0.05-0.04,0.1-0.07,0.15l-0.01,0.02l-0.05,0.07c-0.04,0.06-0.11,0.16-0.18,0.28c-0.09,0.15-0.2,0.34-0.32,0.56
				c-0.08,0.15-0.16,0.3-0.25,0.48c-0.41,0.88-0.82,2.08-0.82,3.38c0,0.3,0.03,0.61,0.08,0.92
				C330.49,295.4,330.55,295.67,330.64,295.95"/>
			<path class="st7" d="M265.3,291.51L265.3,291.51l8.36-4.16c-2.85-0.71-5.75-1.46-8.69-2.25c-1.7-0.46-3.31-0.9-4.85-1.34
				c-0.28,0.16-0.55,0.31-0.82,0.47c2.84,2.06,4.73,4.57,5.95,7.15C265.26,291.42,265.28,291.47,265.3,291.51"/>
			<path class="st10" d="M258.52,284.7c-1.68,1.04-3.13,2.15-4.22,3.29c-2.15,2.26-2.92,4.62-2.93,6.9c0,2.74,1.14,5.39,2.46,7.52
				c0.84,0.14,1.74,0.22,2.7,0.22c3.02,0,6.55-0.69,9.99-1.84c-0.07-2.68-0.54-5.93-2.02-9.06
				C263.29,289.18,261.4,286.71,258.52,284.7"/>
			<path class="st10" d="M271.53,291.15c-0.33-0.51-0.61-0.9-0.77-1.1c-0.09-0.11-0.13-0.17-0.13-0.17
				c-0.02-0.03-0.03-0.05-0.04-0.08l-2.45,1.22c1.35,1.36,1.99,3.42,2.33,5.19c0.23,1.24,0.31,2.31,0.34,2.91
				c0.94-0.43,1.91-0.89,2.9-1.38c0.04-0.23,0.07-0.47,0.07-0.71c0,0,0-0.01,0-0.01c0-1.35-0.58-2.91-1.26-4.21
				C272.17,292.18,271.83,291.62,271.53,291.15"/>
			<path class="st10" d="M269.95,298.65c-0.01-0.18-0.03-0.4-0.06-0.62c-0.05-0.49-0.12-1.06-0.24-1.67
				c-0.27-1.47-0.8-3.12-1.68-4.28c-0.18-0.24-0.37-0.46-0.58-0.65c-0.01-0.01-0.02-0.02-0.03-0.03l-1.7,0.85
				c-0.01,0.01-0.03,0.01-0.04,0.01c1.2,2.89,1.63,5.8,1.72,8.26c0.9-0.32,1.78-0.68,2.65-1.05c0-0.04,0-0.07,0-0.12
				C269.98,299.18,269.97,298.94,269.95,298.65"/>
			<path class="st10" d="M253.71,287.43c1.36-1.43,3.19-2.75,5.3-3.98c-0.28-0.08-0.56-0.16-0.83-0.24
				c-2.52,1.75-5.26,3.57-8.22,5.36c-1.31,1.8-1.95,3.73-1.95,6.12c0,0.98,0.11,2.04,0.33,3.18c0.25,1.3,0.86,2.27,1.76,3.01
				c0.7,0.57,1.6,0.99,2.64,1.28c-1.19-2.08-2.17-4.6-2.18-7.28C250.55,292.42,251.42,289.82,253.71,287.43"/>
			<path class="st14" d="M350.65,298.56c-3.75,1.79-8.75,1.74-12.78,0.48c0,0.18-0.02,0.36-0.02,0.55c0,1.77,0.23,3.71,0.73,5.84
				c2.19,0.45,4.47,0.77,6.61,0.77c2.64,0,5.02-0.5,6.72-1.8c0.63-0.49,1.18-1.09,1.62-1.83c0.73-1.24,1.15-2.87,1.16-5.02
				c0-0.93-0.13-1.79-0.36-2.59C353.43,296.53,352.07,297.88,350.65,298.56z"/>
			<path class="st14" d="M264.49,301.09c-2.36-0.07-4.8-0.27-7.07-0.94c-2.9-0.85-5.07-2.46-6.02-4.94c0.08,2.63,1.18,5.15,2.44,7.2
				c0.84,0.14,1.74,0.22,2.7,0.22c2.8,0,6.04-0.6,9.24-1.6C265.33,301.07,264.9,301.1,264.49,301.09z"/>
			<path class="st14" d="M250.87,292.4c0-0.11-0.01-0.21-0.01-0.32c0-0.16,0.09-0.27,0.2-0.33c0.48-1.46,1.32-2.93,2.65-4.32
				c1.36-1.43,3.19-2.75,5.3-3.98c-0.28-0.08-0.56-0.16-0.83-0.24c-2.52,1.75-5.26,3.57-8.22,5.36c-1.31,1.8-1.95,3.73-1.95,6.12
				c0,0.98,0.11,2.04,0.33,3.18c0.25,1.3,0.86,2.27,1.76,3.01c0.7,0.57,1.6,0.99,2.64,1.28c-1.19-2.08-2.17-4.6-2.18-7.28
				C250.55,294.07,250.66,293.23,250.87,292.4z"/>
			<path class="st15" d="M265.26,276.62c4.87-3.51,9.03-7.69,12.01-11.75c0.79-1.07,1.49-2.12,2.1-3.16
				c-7.12-3.19-13.47-5.87-17.31-7.22c-4.74-1.66-10.29-2.8-15.27-2.8c-3.79,0-7.25,0.66-9.76,2.19c-2.51,1.54-4.13,3.89-4.33,7.48
				c-0.03,0.54-0.05,1.07-0.05,1.57c0,2.72,0.44,4.95,1.48,6.89c1.04,1.94,2.69,3.62,5.15,5.19c3.86,2.47,9.74,4.65,18.24,7.14
				C260.36,280.19,262.94,278.3,265.26,276.62"/>
			<path class="st11" d="M369.87,264.84c-8.55,4.65-18.59,7.1-27.75,8.42c-12.42,1.78-25.92,2.06-38.32-1.02
				c5.43,2.65,10.12,5.02,13.17,6.68c1.58,0.86,2.71,1.53,3.32,1.97l0.02,0.02c2.6,0.22,6.99,0.69,11.37,1.62
				c1.66,0.35,5.41,0.83,9.44,1.92c0.72,0.19,1.45,0.42,2.18,0.65c5.41-0.92,10.05-2,13.87-3.28c5.36-1.8,9.12-4,11.24-6.67
				c1.41-1.79,2.12-3.78,2.12-6.08c0-0.8-0.09-1.64-0.26-2.52C370.14,265.95,370.01,265.39,369.87,264.84z"/>
			<path class="st11" d="M295.83,284.6c-9.25-2.69-18.4-5.69-27.52-8.77c-0.76,0.61-1.54,1.21-2.34,1.79
				c-2.09,1.51-4.41,3.21-6.94,4.98c1.92,0.55,3.96,1.12,6.14,1.7c23.4,6.33,44.78,9.89,49.75,10.68c0.42,0.07,0.71,0.11,0.89,0.14
				c2.09-1.96,3.27-3.97,3.9-5.82C311.67,288.36,303.72,286.9,295.83,284.6z"/>
			<path class="st11" d="M257.79,272.24c-6.72-2.31-24.08-5.96-24.21-14.6c-0.5,1.06-0.81,2.29-0.89,3.72
				c-0.03,0.54-0.05,1.07-0.05,1.57c0,2.72,0.44,4.95,1.48,6.89c1.04,1.94,2.69,3.62,5.15,5.19c3.86,2.47,9.74,4.65,18.24,7.14
				c2.84-1.97,5.41-3.87,7.73-5.54c0.57-0.41,1.13-0.83,1.68-1.26C263.88,274.33,260.84,273.29,257.79,272.24z"/>
			<path class="st11" d="M275.71,259.19c1.32,0.58,2.68,1.18,4.07,1.8c0.2-0.36,0.39-0.71,0.57-1.06c-1.77-0.16-3.27-0.38-4.43-0.69
				C275.84,259.23,275.78,259.21,275.71,259.19"/>
		</g>
		<g>
			<g>
				<path class="st4" d="M366.15,256.48c-2.59-2.15-6.28-3.1-11.56-3.1c-2.84,0-6.14,0.27-10.01,0.8c-1.77,0.24-3.67,0.58-5.64,0.99
					l-0.14-0.82l0-0.06c0-0.31-0.05-1.09-0.13-2.26c-0.21-3.02-0.66-8.62-1.18-14.81c0.79,0.05,1.58,0.1,2.41,0.15
					c1.31,0.07,2.55,0.11,3.73,0.11c6.95,0,11.65-1.24,14.64-3.65c1.49-1.2,2.55-2.69,3.21-4.42c0.67-1.73,0.96-3.69,0.96-5.86
					c0-1.03-0.07-2.11-0.19-3.23c-0.32-2.91-1.76-6.61-3.95-10.71c-6.56-12.29-19.81-28.11-30.04-35.17c0,0,0,0,0,0c0,0,0,0,0,0
					c-2.75-1.82-5.52-2.99-8.8-3.8c-3.28-0.8-7.06-1.24-11.89-1.6c-0.37-0.03-0.73-0.05-1.09-0.07c0,0,0,0,0,0
					c-0.02,0-0.03,0-0.05,0c-0.44-0.03-0.87-0.05-1.29-0.07c-0.01,0-0.01,0-0.02,0c-1.26-0.06-2.45-0.09-3.55-0.1
					c-0.04,0-0.09,0-0.13,0c0,0,0,0,0,0c-0.19,0-0.4,0-0.59,0c-0.88,0-1.7,0.02-2.45,0.04l-1.07-3.54c1.3-1.26,2.31-2.56,3.09-3.78
					c1.62-2.52,2.28-4.72,2.5-5.65c0.85,0.29,1.66,0.44,2.44,0.44c2.51,0,4.51-1.44,5.84-3.39c1.34-1.96,2.06-4.45,2.06-6.72
					c0-1-0.14-1.96-0.44-2.82c1.39-1.64,2.88-3.24,4.21-4.64c1.18-1.23,2.23-2.32,3-3.17c0.39-0.43,0.7-0.79,0.93-1.1
					c0.11-0.15,0.21-0.29,0.28-0.43c0.07-0.14,0.13-0.26,0.13-0.45c0-0.15-0.04-0.26-0.08-0.42c-0.17-0.54-0.59-1.45-1.13-2.56
					c-1.41-2.88-3.66-6.98-4.23-8.03c0.26-0.26,0.71-0.58,1.25-0.88c1.01-0.57,2.33-1.11,3.39-1.51c0.53-0.2,0.99-0.37,1.33-0.48
					c0.33-0.11,0.53-0.18,0.53-0.18c0.17-0.05,0.28-0.21,0.28-0.38c0-0.18-0.1-0.33-0.27-0.39c-1.93-0.7-4.23-0.85-5.94-0.85
					c-0.83,0-1.51,0.04-1.94,0.07c0.03-0.3,0.04-0.61,0.04-0.94c0-3.5-1.34-8.33-1.34-8.35c-0.05-0.19-0.23-0.32-0.43-0.3
					c-0.2,0.02-0.35,0.17-0.37,0.37c-0.25,2.53-0.78,4.52-1.25,5.88c-0.16,0.47-0.32,0.86-0.45,1.18c-0.33-0.85-0.92-2.2-1.82-3.71
					c-1.54-2.58-3.99-5.66-7.66-7.65c-3.64-1.97-8.47-3.56-12.4-4.67c-3.93-1.1-6.96-1.72-6.97-1.72c-0.16-0.03-0.33,0.04-0.42,0.17
					c-0.09,0.14-0.09,0.32,0,0.46c0.78,1.17,1.55,3.05,2.11,4.62c0.28,0.79,0.51,1.5,0.67,2.01c0,0.02,0.01,0.03,0.01,0.05
					c-5.69-2.06-12.25-2.35-15.57-2.35c-1.35,0-2.16,0.05-2.17,0.05c-0.14,0.01-0.26,0.08-0.33,0.2c-0.07,0.12-0.08,0.26-0.02,0.38
					c0.81,1.73,1.58,3.57,2.14,4.97c0.28,0.7,0.51,1.3,0.67,1.71c0.03,0.09,0.06,0.16,0.09,0.23c-2.95,0.76-5.59,0.95-7.44,0.95
					c-0.85,0-1.53-0.04-2-0.08c-0.23-0.02-0.41-0.04-0.53-0.05c-0.12-0.01-0.18-0.02-0.18-0.02c-0.12-0.02-0.24,0.02-0.33,0.1
					c-0.09,0.08-0.14,0.19-0.14,0.31c0,2.48,0.71,5.2,1.4,7.31c0.49,1.49,0.98,2.66,1.23,3.23l-3.71,1.58
					c-0.19,0.08-0.29,0.3-0.23,0.5c2.2,6.89,5.02,10.92,6.49,12.7c-1.32,6.67-2.48,14.23-2.48,19.94c0.01,3.24,0.36,5.88,1.36,7.51
					c2.68,4.29,7.94,8.01,15.7,8.01c0.4,0,0.82-0.01,1.23-0.03c-0.32,0.06-0.63,0.13-0.93,0.23c-0.05,0.02-0.09,0.05-0.13,0.09
					c-3.55,0.81-11.21,3.72-19.93,14.18c-5.89,7.06-12.45,14.29-17.55,21.12c-3.6,4.83-6.48,9.46-7.87,13.74
					c-0.02,0.03-0.04,0.06-0.06,0.1c-0.98,2.85-1.4,5.26-1.4,7.32c0,2.29,0.53,4.13,1.39,5.59c1.29,2.18,3.31,3.48,5.3,4.22
					c1.99,0.74,3.97,0.95,5.26,0.95c0.11,0,0.21,0,0.3,0c1.02-0.03,2.54-0.35,4.31-0.82c2.65-0.7,5.83-1.73,8.42-2.63
					c1.3-0.45,2.45-0.86,3.32-1.18c0.43-0.16,0.8-0.3,1.07-0.41c0.14-0.06,0.26-0.1,0.35-0.14c0.84,0.69,1.8,1.21,2.87,1.6
					c2.13,0.77,4.7,1.01,7.71,1.01c0.15,0,0.27-0.01,0.41-0.01c0.02,0.21,0.03,0.43,0.05,0.64c0.42,5.65,0.72,10.62,0.91,14.18
					c0.09,1.78,0.16,3.2,0.21,4.18c0.04,0.85,0.06,1.36,0.06,1.48l-0.03,0.28c-4.54-1.96-8.46-3.56-11.17-4.51
					c-4.82-1.69-10.44-2.84-15.54-2.84c-3.88,0-7.47,0.66-10.19,2.31c-2.72,1.64-4.52,4.31-4.73,8.14
					c-0.03,0.55-0.05,1.09-0.05,1.62c0,2.8,0.46,5.19,1.58,7.28c1.68,3.14,4.8,5.56,9.86,7.84c3.3,1.49,7.45,2.93,12.6,4.47
					c-2.14,1.32-3.88,2.61-5.23,3.98c0,0-0.01,0.01-0.01,0.01c-0.15,0.16-0.31,0.31-0.45,0.47c-8.02,4.93-17.72,9.72-29.43,12.41
					c-8.45,1.94-16.73,2.64-24.02,2.64c-10.28,0-18.6-1.38-22.59-2.56c-1.75-0.51-3.39-0.98-4.87-1.68
					c-2.22-1.06-4.08-2.59-5.5-5.71c-1.42-3.12-2.35-7.86-2.5-15.19c-0.1-4.91-0.14-9.7-0.14-14.11c0-6.62,0.09-12.41,0.17-16.54
					c0.04-2.07,0.09-3.72,0.12-4.85c0.03-1.14,0.05-1.75,0.05-1.75c0.01-0.34-0.25-0.62-0.59-0.64c-0.34-0.01-0.62,0.25-0.64,0.59
					c0,0-0.35,9.92-0.35,23.19c0,4.42,0.04,9.22,0.14,14.14c0.21,9.89,1.79,15.3,4.33,18.55c1.27,1.62,2.77,2.67,4.38,3.43
					c1.61,0.76,3.32,1.24,5.05,1.75c4.16,1.22,12.55,2.61,22.94,2.61c7.37,0,15.74-0.7,24.3-2.67c10.73-2.47,19.78-6.67,27.4-11.12
					c0,0.01-0.01,0.02-0.01,0.03c-0.13,0.24-0.25,0.49-0.35,0.74c-0.01,0.02-0.02,0.04-0.02,0.06c-0.1,0.25-0.2,0.5-0.29,0.76
					c-0.01,0.02-0.01,0.04-0.02,0.06c-0.08,0.26-0.16,0.53-0.22,0.8c0,0.01-0.01,0.03-0.01,0.04c-0.2,0.86-0.3,1.76-0.3,2.72
					c0,1.04,0.12,2.15,0.34,3.34c0.06,0.33,0.16,0.64,0.26,0.94c0.02,0.07,0.05,0.13,0.07,0.2c0.11,0.29,0.24,0.57,0.4,0.83
					c0.01,0.01,0.02,0.03,0.03,0.04c0.15,0.25,0.32,0.48,0.51,0.7c0.04,0.05,0.08,0.09,0.12,0.14c0.04,0.05,0.08,0.1,0.12,0.14
					c0.17,0.18,0.35,0.34,0.54,0.5c0,0,0,0,0,0c0,0,0,0,0,0c0.14,0.11,0.3,0.21,0.45,0.31c0.12,0.08,0.22,0.17,0.34,0.24
					c0.02,0.01,0.05,0.03,0.07,0.04c0.06,0.03,0.11,0.07,0.17,0.1c0.06,0.03,0.12,0.05,0.18,0.08c0.18,0.09,0.37,0.18,0.56,0.26
					c0,0,0,0,0,0c0,0,0.01,0,0.01,0c0.64,0.27,1.33,0.46,2.07,0.6c0,0,0,0,0,0c0.02,0,0.04,0.01,0.06,0.01c0.01,0,0.01,0,0.02,0
					c0.27,0.05,0.54,0.1,0.82,0.13l0.08,0.01c0.3,0.04,0.61,0.06,0.92,0.08c0.05,0,0.09,0.01,0.14,0.01
					c0.34,0.02,0.69,0.03,1.05,0.03c0.06,0,0.11-0.01,0.17-0.01c0.43,0,0.87-0.02,1.32-0.05c0.18-0.01,0.37-0.03,0.55-0.04
					c0.35-0.03,0.71-0.07,1.07-0.11c0.18-0.02,0.36-0.04,0.55-0.07c0.5-0.07,1.01-0.16,1.52-0.25c0.19-0.04,0.38-0.08,0.57-0.12
					c0.35-0.07,0.71-0.15,1.06-0.24c0.23-0.06,0.47-0.11,0.7-0.18c0.34-0.09,0.69-0.18,1.03-0.28c0.21-0.06,0.41-0.11,0.62-0.18
					c0.46-0.14,0.92-0.29,1.38-0.45c0,0,0.01-0.01,0.01-0.01c1.35-0.46,2.68-0.98,3.96-1.57c5.79-2.65,12.69-6.54,17.18-9.16
					c16.05,3.48,27.66,5.23,27.67,5.23c0.09,0.01,0.18-0.01,0.25-0.06c1.48,1.8,3.63,3.37,6.13,4.74c3.52,1.92,7.75,3.43,11.8,4.53
					c1.26,0.34,2.64,0.69,4.07,0.99c0,0,0,0,0,0c0.07,0.02,0.15,0.03,0.22,0.04c0.44,0.09,0.89,0.18,1.33,0.26
					c0.17,0.03,0.35,0.06,0.52,0.09c0.37,0.06,0.74,0.12,1.12,0.17c0.19,0.03,0.39,0.05,0.58,0.07c0.38,0.04,0.75,0.08,1.12,0.11
					c0.18,0.01,0.35,0.03,0.53,0.04c0.54,0.03,1.08,0.06,1.61,0.06c2.73,0,5.3-0.5,7.21-1.97c0.96-0.73,1.74-1.7,2.27-2.95
					c0.27-0.62,0.48-1.31,0.62-2.07c0.14-0.76,0.21-1.59,0.21-2.49c0-0.4-0.02-0.79-0.06-1.17c-0.01-0.13-0.04-0.25-0.06-0.38
					c-0.04-0.24-0.07-0.49-0.12-0.72c-0.03-0.15-0.08-0.28-0.11-0.43c-0.06-0.21-0.11-0.42-0.18-0.62
					c-0.05-0.14-0.11-0.28-0.16-0.42c-0.08-0.19-0.15-0.38-0.23-0.56c-0.06-0.14-0.14-0.27-0.2-0.41c-0.09-0.18-0.18-0.35-0.29-0.52
					c-0.08-0.13-0.16-0.26-0.24-0.38c-0.11-0.16-0.22-0.33-0.33-0.48c-0.09-0.12-0.19-0.24-0.28-0.37c-0.12-0.15-0.24-0.3-0.37-0.44
					c-0.11-0.12-0.21-0.24-0.32-0.35c-0.06-0.06-0.12-0.13-0.18-0.19c-0.05-0.05-0.11-0.09-0.16-0.14
					c-0.09-0.08-0.17-0.18-0.26-0.26c-0.19-0.17-0.39-0.34-0.59-0.5c-0.06-0.05-0.12-0.11-0.18-0.16c-0.35-0.28-0.73-0.55-1.11-0.81
					c-0.11-0.07-0.22-0.14-0.33-0.21c-0.29-0.19-0.59-0.37-0.9-0.54c-0.13-0.07-0.25-0.15-0.38-0.22c-0.4-0.21-0.8-0.42-1.21-0.62
					c-0.11-0.05-0.23-0.1-0.35-0.16c-0.32-0.14-0.64-0.29-0.96-0.42c-0.17-0.07-0.34-0.14-0.52-0.21c-0.17-0.07-0.34-0.13-0.51-0.2
					c7.3-1.32,13.13-2.94,17.46-5.03c2.93-1.42,5.18-3.05,6.7-4.97c1.52-1.91,2.3-4.12,2.3-6.59c0-0.86-0.09-1.75-0.28-2.68
					C370.17,261.91,368.75,258.63,366.15,256.48 M338.14,255.34c-0.12,0.03-0.24,0.05-0.36,0.08c0.12-0.06,0.24-0.12,0.34-0.19
					L338.14,255.34z M337.52,247.53c0.14,1.83,0.26,3.39,0.34,4.56c0.08,1.17,0.13,1.96,0.13,2.21v0.01
					c-0.01,0.02-0.04,0.05-0.11,0.1c-0.32,0.25-1.19,0.65-2.51,1.05c-3.99,1.22-12.2,2.71-24.25,3.33
					c-7.59,0.39-14.96,0.68-21.12,0.68c-2.97,0-5.65-0.07-7.95-0.22c0.83-1.86,1.34-3.63,1.47-5.23c0.13-1.74,0.17-4.74,0.18-8.27
					c0-4.38-0.07-9.58-0.13-14.13c0.04,0,0.08,0,0.13,0c1.35,0,2.57-0.04,3.48-0.09c0.14,0.32,0.37,0.66,0.72,0.96
					c0.67,0.57,1.77,1.03,3.52,1.25c-0.01,0.07-0.01,0.15-0.01,0.23c0,0.49,0.12,1.19,0.67,1.78c0.55,0.6,1.48,1.03,2.96,1.11
					c0.18,0.01,0.36,0.01,0.56,0.01c2.19,0,5.47-0.55,8.72-1.46c2.89-0.81,5.74-1.9,7.77-3.16c0.12,0.43,0.26,0.85,0.41,1.27
					c0.04,0.12,0.14,0.21,0.27,0.25c0.03,0.01,7.58,2.28,23.91,3.4C336.99,241,337.29,244.61,337.52,247.53 M328.05,257.89
					c-5.18,1.48-10.43,3.18-15.18,4.81c-7.41,2.55-13.58,4.93-16.37,6.03c-5.14-2.44-10.53-4.94-15.6-7.22
					c0.27-0.49,0.53-0.98,0.76-1.46c2.4,0.17,5.21,0.24,8.33,0.24c6.19,0,13.56-0.28,21.16-0.68
					C318.07,259.24,323.71,258.6,328.05,257.89 M269.68,220.17c1.04,0.05,2.43,0.09,4.06,0.1c2.45,0.02,5.45,0,8.6-0.1
					c-0.02,0.14-0.04,0.28-0.05,0.43c-0.03,0.45-0.04,1.25-0.04,2.36c0,0.42,0,0.89,0,1.39c0,0.28,0,0.57,0.01,0.87
					c-0.05-0.06-0.1-0.11-0.17-0.16c-0.22-0.16-0.46-0.23-0.78-0.31c-0.66-0.15-1.62-0.25-2.68-0.32c-1.08-0.02-2.14-0.08-3.21-0.18
					c-0.52-0.03-1.01-0.06-1.44-0.09c-0.35-0.03-0.67-0.06-0.92-0.09c-0.25-0.03-0.44-0.07-0.53-0.1c-0.16-0.05-0.37-0.1-0.61-0.15
					c0-0.02,0-0.03,0-0.05c-0.24-0.04-0.47-0.08-0.71-0.13c-0.05-0.01-0.09-0.04-0.13-0.06c0,0.02,0,0.04,0,0.05c0,0,0,0,0,0
					c-0.92-0.2-2.05-0.51-2.91-1.04c-0.43-0.26-0.79-0.58-1.04-0.95c-0.25-0.37-0.4-0.8-0.4-1.35c0-0.36,0.07-0.77,0.22-1.24
					c0.36-1.08,0.93-1.8,1.63-2.33c0.33-0.25,0.69-0.44,1.08-0.62c0.06,0.03,0.13,0.05,0.2,0.05c0,0,0.14-0.01,0.39-0.02
					c0,0.03,0.01,0.06,0.01,0.09c0.23-0.01,0.51-0.03,0.82-0.04l-0.01-0.08c0.32-0.01,0.7-0.03,1.12-0.04
					c0.61-0.02,1.3-0.05,2.09-0.08c4.01-0.16,10.08-0.4,15.4-0.6c1.07-0.04,2.12-0.08,3.11-0.11l5.33-0.14l-0.01-0.04
					c1.23-0.04,2.1-0.06,2.47-0.06l0.07,0c0.06,0.07,0.16,0.24,0.26,0.46c0.38,0.8,0.8,2.29,0.79,3.39c0,0.41-0.06,0.77-0.17,1
					c-0.02,0.04-0.02,0.08-0.03,0.12l-0.17-0.02c-0.01,0-0.01,0.01-0.02,0.01c-0.4,0.18-1.12,0.44-2.03,0.73
					c0.01-0.14,0.02-0.31,0.01-0.51c0-0.04,0-0.08-0.01-0.12c-0.01-0.24-0.03-0.5-0.06-0.78c-0.04-0.31-0.07-0.62-0.11-0.93
					l0.01-0.01l0.07-0.12l0.13-0.24c0.15-0.28,0.26-0.49,0.35-0.68c0.39-0.81,0.29-0.92,0.14-1c-0.18-0.1-0.35-0.14-1.15,1.31
					c-0.11,0.2-0.21,0.39-0.32,0.6c0.04,0.22,0.08,0.43,0.11,0.66c0.03,0.17,0.07,0.34,0.1,0.51c0.01,0.07,0.03,0.13,0.04,0.2
					c0.06,0.25,0.11,0.49,0.17,0.69c0.06,0.22,0.12,0.39,0.17,0.53c-0.22,0.07-0.44,0.14-0.67,0.21c-0.99,0.31-2.12,0.66-3.28,1.02
					c-0.81,0.39-1.87,0.73-3.22,1.03c-0.19,0.06-0.38,0.13-0.57,0.19c-1.16,0.39-2.23,0.78-3.11,1.15c-0.88,0.37-1.54,0.7-1.95,1.06
					c-0.65,0.58-0.93,1.28-0.93,1.94c0,0.79,0.36,1.48,0.78,2.01c0.21,0.26,0.44,0.48,0.68,0.65c0.1,0.07,0.19,0.12,0.29,0.17
					c-0.01,0.1-0.03,0.21-0.03,0.34c0,0.04,0,0.08,0,0.12c-0.88,0.04-2.02,0.08-3.29,0.08c-0.04,0-0.09,0-0.14,0
					c-0.03-2.5-0.06-4.75-0.07-6.53c0-0.46,0-0.91,0-1.3c0-1.1,0.01-1.91,0.04-2.28c0.01-0.2,0.05-0.38,0.08-0.56
					c1.07-0.04,2.14-0.09,3.22-0.15c4.71-0.26,7.12-0.56,8.35-0.76c1.23-0.21,1.27-0.32,1.26-0.42c-0.02-0.11-0.08-0.18-1.32-0.11
					c-1.02,0.05-2.83,0.21-6.07,0.41c-0.69,0.04-1.44,0.09-2.27,0.13c-0.97,0.05-1.95,0.1-2.92,0.14c0.01-0.02,0.02-0.04,0.04-0.07
					c0.26-0.5,0.62-0.86,0.99-1.14c0.32-0.24,0.64-0.39,0.88-0.49c0.12-0.05,0.21-0.08,0.28-0.1l0.07-0.02l0.01,0v0
					c0.33-0.08,0.53-0.41,0.45-0.74c-0.08-0.33-0.41-0.53-0.74-0.46c-0.05,0.01-0.84,0.2-1.68,0.82c-0.62,0.45-1.27,1.16-1.62,2.18
					c-0.01,0.02-0.02,0.04-0.03,0.07c-2.9,0.12-5.67,0.2-8.03,0.26c-0.27,0.01-0.55,0.01-0.81,0.02c-1.62,0.04-3,0.07-4.03,0.11
					c-1.26,0.04-1.99,0.08-1.97,0.15C267.7,220.03,268.43,220.11,269.68,220.17 M282.12,229.87c0.07-0.05,0.13-0.12,0.19-0.18
					c0,0.36,0.01,0.72,0.01,1.08c-0.05,0-0.1,0-0.15,0c0.01-0.11,0.02-0.21,0.02-0.31C282.19,230.22,282.15,230.03,282.12,229.87
					 M271.11,214.58c0-0.2,0.03-0.38,0.06-0.45l0.01-0.02c0.27,0,0.77-0.03,1.36-0.06c0.6-0.03,1.29-0.06,1.85-0.06
					c0.33,0,0.63,0.01,0.81,0.04c0,0,0,0,0,0c0.02,0.23,0.06,0.52,0.09,0.79c0.01,0.09,0.02,0.17,0.03,0.25l-4.17,0.11
					C271.13,214.99,271.11,214.78,271.11,214.58 M287.15,209.16l-6.06-4l8.2-0.78c0.16-0.02,0.3-0.13,0.35-0.28l2.25-7.12l2.92,7.15
					c0.07,0.16,0.23,0.26,0.4,0.25l8.72-0.48l-5.41,4.76c-0.62-0.09-1.25-0.17-1.86-0.23c-2.62-0.28-4.87-0.36-5.31-0.36
					c-0.3,0.01-0.5,0.16-0.66,0.33c-0.24,0.26-0.44,0.61-0.59,1.04c-0.15,0.42-0.24,0.9-0.24,1.4c0,0.51,0.1,1.05,0.38,1.53
					c0.26,0.44,0.68,0.82,1.26,1.06l-0.92,1.12c-1.34,0.05-2.74,0.1-4.16,0.16l0.9-5.12C287.36,209.42,287.29,209.25,287.15,209.16
					 M311.86,231.41c-1.92,1.25-4.82,2.38-7.77,3.21c-3.19,0.89-6.44,1.44-8.5,1.43c-0.18,0-0.35,0-0.51-0.01
					c-1.35-0.07-2.04-0.45-2.4-0.84c-0.37-0.4-0.45-0.86-0.45-1.23c0-0.15,0.02-0.27,0.03-0.36l0-0.01c0.06,0.01,0.12,0.02,0.2,0.02
					c0.54,0.03,1.6,0.02,3.6-0.35c2-0.38,3.99-0.99,5.43-1.57c1.45-0.57,2.36-1.08,2.31-1.16v0c-0.07-0.12-0.9,0.13-2.14,0.51
					c-1.5,0.46-3.6,1.09-5.75,1.48c-0.66,0.12-1.2,0.21-1.66,0.28c-0.91,0.14-1.49,0.21-1.83,0.28c-0.09,0.02-0.15,0.03-0.21,0.05
					c-0.07-0.1-0.18-0.16-0.29-0.17c-1.92-0.18-2.96-0.64-3.5-1.11c-0.54-0.47-0.63-0.92-0.63-1.27c0-0.14,0.02-0.26,0.04-0.34
					l0.02-0.09l0-0.01c0.1,0,0.22,0,0.38-0.01c0.69-0.05,2.04-0.23,4.6-0.82c2.57-0.59,5.13-1.39,7.03-2.1
					c1.89-0.71,3.11-1.31,3.05-1.39c-0.09-0.14-1.37,0.29-3.27,0.87c-0.17,0.05-0.36,0.11-0.54,0.16c-1.76,0.53-3.94,1.14-6.16,1.66
					c-0.09,0.02-0.19,0.04-0.28,0.07c-2.54,0.59-3.85,0.85-4.52,1.03c-0.16,0.04-0.27,0.08-0.37,0.11
					c-0.07-0.08-0.15-0.13-0.25-0.14c-0.03,0-0.18-0.05-0.34-0.17c-0.25-0.18-0.54-0.48-0.76-0.84c-0.22-0.36-0.36-0.76-0.36-1.15
					c0-0.44,0.16-0.87,0.66-1.32c0.18-0.16,0.58-0.4,1.12-0.65c1.89-0.88,5.46-2,8.53-2.95c1.54-0.48,2.96-0.92,4-1.27
					c0.52-0.18,0.95-0.34,1.26-0.48c0.16-0.07,0.28-0.13,0.39-0.21l0.16-0.14c0.03-0.03,0.06-0.09,0.09-0.16
					c0,0,0.01-0.01,0.01-0.01c0.01-0.01,0.01-0.03,0.01-0.04c0.17-0.39,0.23-0.83,0.23-1.3c0-0.95-0.24-2.02-0.54-2.89
					c-0.15-0.43-0.31-0.82-0.47-1.11c-0.08-0.15-0.16-0.28-0.25-0.39c-0.1-0.1-0.18-0.22-0.41-0.27l-0.13-0.01l-0.15,0
					c-0.3,0-0.91,0.01-1.73,0.04c-0.18-0.29-0.31-0.52-0.36-0.63c-0.08-0.15-0.2-0.27-0.33-0.34c-0.1-0.06-0.2-0.1-0.31-0.13
					c0-0.04-0.01-0.08-0.01-0.11c0-0.14-0.08-0.28-0.15-0.34c-0.13-0.12-0.23-0.14-0.33-0.17c-0.29-0.07-0.67-0.09-1.14-0.09
					c-0.59,0-1.28,0.03-1.89,0.06c-0.61,0.03-1.13,0.06-1.34,0.06c-0.17,0-0.35,0.06-0.48,0.16c-0.04,0.04-0.06,0.08-0.1,0.12
					c-0.18-0.04-0.35-0.09-0.52-0.15c-0.48-0.17-0.76-0.44-0.95-0.76c-0.19-0.32-0.27-0.71-0.27-1.11c0-0.52,0.14-1.06,0.33-1.44
					c0.09-0.19,0.2-0.34,0.28-0.43l0.09-0.08c0.42,0,2.65,0.08,5.2,0.36c2.58,0.28,5.51,0.77,7.21,1.55
					c0.81,0.37,1.79,1.17,2.75,2.16c1.45,1.49,2.9,3.4,3.98,4.93c0.54,0.77,0.99,1.44,1.3,1.92c0.08,0.13,0.16,0.24,0.22,0.34
					c-0.14,0.43-0.27,0.9-0.38,1.42c-0.27,1.29-0.44,2.83-0.44,4.48C311.23,227.75,311.42,229.59,311.86,231.41 M297.18,214.34
					l-4.17,0.11c-0.02-0.17-0.05-0.38-0.05-0.59c0-0.2,0.03-0.38,0.06-0.45l0.01-0.02c0.27,0,0.77-0.03,1.36-0.06
					c0.6-0.03,1.29-0.06,1.85-0.06c0.33,0,0.63,0.01,0.81,0.04c0,0,0,0,0,0c0.02,0.23,0.06,0.52,0.09,0.79
					C297.15,214.18,297.17,214.26,297.18,214.34 M292.18,214.48c-0.16,0.01-0.33,0.01-0.49,0.02l0.45-0.55
					C292.15,214.13,292.16,214.32,292.18,214.48 M297.84,169.77c0,0.01,0.01,0.01,0.01,0.02c0.08,0.2,0.29,0.31,0.5,0.25
					c0.18-0.06,0.29-0.23,0.28-0.41c0.7-0.02,1.44-0.03,2.23-0.03c0.07,0,0.16,0,0.23,0c0.09,0.56,0.14,1.12,0.14,1.66
					c0,5.82-4.83,10.36-10.97,10.37c-0.72,0-1.46-0.06-2.21-0.2c-2.35-0.42-3.68-1.53-4.49-2.91c-0.81-1.38-1.05-3.07-1.05-4.55
					c0-0.43,0.02-0.83,0.06-1.21c0.66-0.18,1.35-0.36,2.06-0.54l0.6,2.24c0.06,0.22,0.28,0.35,0.5,0.29
					c0.22-0.06,0.35-0.28,0.29-0.5l-0.01-0.04l-0.69-2.6c0.84-0.21,1.7-0.46,2.59-0.76c3.76-1.24,6.61-3.03,8.76-4.96L297.84,169.77
					z M258.07,124.49l3.75-1.59c0.1-0.04,0.18-0.13,0.22-0.23c0.04-0.1,0.04-0.22-0.01-0.32c0,0-0.04-0.09-0.12-0.26
					c-0.5-1.13-2.46-5.87-2.6-9.87c0.48,0.05,1.28,0.1,2.35,0.1c2,0,4.88-0.21,8.1-1.09c0.11-0.03,0.2-0.11,0.26-0.21
					c0.05-0.1,0.06-0.22,0.02-0.33c0-0.01-1.29-3.5-2.83-6.85c0.36-0.01,0.87-0.02,1.51-0.02c3.42,0,10.38,0.32,16.05,2.58
					c0.14,0.06,0.31,0.03,0.43-0.08c0.12-0.1,0.16-0.27,0.12-0.42c0-0.01-0.36-1.29-0.93-2.89c-0.46-1.29-1.05-2.77-1.71-3.98
					c2.92,0.65,12.32,2.9,18.23,6.11c3.5,1.9,5.86,4.86,7.35,7.35c0.74,1.25,1.27,2.38,1.6,3.19c0.17,0.41,0.29,0.74,0.37,0.96
					c0.04,0.11,0.07,0.2,0.09,0.26l0.03,0.08c0.05,0.16,0.18,0.27,0.35,0.29c0.16,0.02,0.32-0.07,0.4-0.21
					c0.02-0.03,1.22-2.23,1.9-6.09c0.37,1.7,0.81,4.12,0.81,6.04c0,0.49-0.03,0.94-0.09,1.33c-0.02,0.13,0.02,0.25,0.11,0.35
					c0.09,0.09,0.21,0.14,0.34,0.12c0,0,0.06-0.01,0.17-0.02c0.34-0.03,1.15-0.09,2.19-0.09c1.3,0,2.95,0.1,4.45,0.45
					c-0.52,0.19-1.15,0.43-1.81,0.7c-0.8,0.33-1.63,0.71-2.35,1.11c-0.72,0.41-1.32,0.81-1.68,1.29c-0.09,0.13-0.11,0.3-0.03,0.44
					c0,0,0.34,0.63,0.86,1.58c0.78,1.43,1.94,3.61,2.91,5.52c0.49,0.95,0.92,1.84,1.23,2.53c0.16,0.34,0.28,0.64,0.36,0.86
					c0.04,0.11,0.07,0.21,0.09,0.27l0.02,0.08v0c-0.02,0.07-0.16,0.3-0.39,0.58c-0.82,1.04-2.73,2.93-4.83,5.17
					c-0.95,1.01-1.93,2.09-2.88,3.2c-0.54-1.01-1.39-1.81-2.54-2.16c-0.79-0.24-1.52-0.35-2.19-0.35c-1.23,0-2.26,0.38-3.07,0.94
					c-1.22,0.85-1.97,2.09-2.43,3.1c-0.1,0.22-0.18,0.43-0.26,0.63c-0.5-1.56-0.71-3.31-0.71-5.13c0-3.57,0.78-7.34,1.56-10.22
					c0.39-1.44,0.78-2.65,1.07-3.51c0.15-0.43,0.27-0.76,0.35-0.99c0.08-0.23,0.13-0.35,0.13-0.35c0.06-0.14,0.03-0.31-0.07-0.42
					c-0.1-0.12-0.26-0.16-0.41-0.13c-8.83,2.21-17.69,2.79-24.57,2.79c-3.82,0-7.02-0.18-9.27-0.36c-0.49-0.04-0.92-0.08-1.31-0.11
					c-0.19-0.04-0.41-0.08-0.68-0.13c-0.89-0.17-1.78-0.35-2.43-0.53c-0.66-0.17-1.04-0.39-1.12-0.3c-0.12,0.12,0.22,0.59,0.89,0.91
					c0.19,0.1,0.4,0.19,0.62,0.27c-0.64,2.53-1.42,5.89-2.17,9.58C262.4,134.15,260.01,130.43,258.07,124.49 M278.23,171.73
					c-7.48,0-12.45-3.56-15-7.63c-0.85-1.34-1.24-3.9-1.24-7.07c0-8.98,2.96-22.87,4.79-30.16c0.32,0.04,0.85,0.1,1.57,0.17
					c0.4,0.06,0.69,0.08,0.91,0.08c2.28,0.2,5.79,0.42,10.08,0.42c6.73,0,15.35-0.56,24.02-2.63c-0.76,2.13-2.9,8.6-2.9,14.64
					c0,2.35,0.32,4.64,1.2,6.6c0.07,0.16,0.24,0.26,0.42,0.24c0.18-0.02,0.32-0.15,0.36-0.33l0.01-0.05
					c0.06-0.28,0.4-1.61,1.23-2.84c0.41-0.61,0.94-1.2,1.61-1.63c0.67-0.43,1.47-0.71,2.47-0.71c0.58,0,1.23,0.1,1.95,0.32
					c0.94,0.29,1.61,0.91,2.07,1.79c0.46,0.88,0.69,2.01,0.69,3.23c0,2.1-0.68,4.46-1.92,6.25c-1.24,1.8-2.99,3.03-5.16,3.03
					c-0.8,0-1.66-0.16-2.58-0.54c-0.12-0.05-0.24-0.04-0.35,0.02c-0.11,0.06-0.18,0.17-0.2,0.29l0,0.02
					c-0.05,0.28-0.6,2.97-2.68,6.09c-2.08,3.12-5.68,6.67-11.89,8.73C284.16,171.24,281.02,171.73,278.23,171.73 M279.04,173.46
					c0.77-0.21,1.72-0.3,2.69-0.5c-0.02,0.32-0.04,0.66-0.04,1.01c0,1.57,0.25,3.39,1.16,4.96c0.91,1.57,2.51,2.87,5.06,3.31
					c0.8,0.14,1.58,0.21,2.35,0.21c3.27,0,6.22-1.22,8.35-3.23c2.13-2.01,3.44-4.81,3.44-7.96c0-0.54-0.05-1.1-0.13-1.65
					c1.27,0.02,2.65,0.06,4.13,0.15c-0.01,1.51-0.22,4.15-1.27,6.84c-1.1,2.79-3.08,5.6-6.73,7.33c-2.69,1.27-5.3,1.82-7.67,1.82
					c-2.85,0-5.37-0.79-7.27-2.05c-1.91-1.27-3.2-3.01-3.64-4.91c-0.33-1.41-0.5-2.87-0.5-4.12
					C278.98,174.23,279,173.83,279.04,173.46 M260.37,234.36c-1.53,0.59-4.86,1.78-8.23,2.84c-1.68,0.53-3.37,1.03-4.84,1.39
					c-1.46,0.37-2.72,0.6-3.49,0.62c-0.09,0-0.18,0-0.28,0c-1.61,0-4.44-0.35-6.81-1.77c-1.19-0.71-2.26-1.67-3.04-2.99
					c-0.78-1.32-1.28-3-1.28-5.17c0-1.94,0.4-4.26,1.36-7.04l0.02,0.01c1.33-4.16,4.16-8.79,7.79-13.64
					c5.06-6.79,11.62-14.01,17.53-21.09c5.91-7.08,11.29-10.62,15.17-12.4c1.58-0.72,2.9-1.14,3.92-1.4
					c-0.02,0.3-0.04,0.61-0.04,0.93c0,1.02,0.11,2.15,0.31,3.29c0.06,0.34,0.13,0.67,0.2,1.01c0.5,2.15,1.94,4.05,3.99,5.41
					c2.05,1.36,4.72,2.19,7.73,2.19c2.5,0,5.23-0.57,8.02-1.89c2.73-1.29,4.59-3.18,5.85-5.22c0.6,0.55,2.01,1.64,5.19,3.98
					c5.67,4.16,11.65,8.34,11.73,8.14c0.11-0.29-5.61-4.59-11.28-8.74c-3.23-2.37-4.7-3.38-5.39-3.78c0.41-0.71,0.75-1.43,1.03-2.15
					c1.1-2.8,1.31-5.51,1.33-7.09c0.22,0.01,0.43,0.03,0.65,0.04c4.81,0.36,8.55,0.79,11.75,1.58c3.2,0.79,5.86,1.92,8.54,3.68
					c0,0,0,0,0.01,0c0.03,0.02,0.07,0.06,0.1,0.08l0-0.01c6.68,4.63,14.76,13.15,21.31,21.9c3.29,4.4,6.2,8.86,8.36,12.91
					c2.16,4.05,3.56,7.7,3.85,10.42c0.12,1.1,0.18,2.15,0.18,3.14c0,2.1-0.28,3.96-0.91,5.57c-0.94,2.41-2.62,4.26-5.37,5.55
					c-2.75,1.29-6.58,1.99-11.72,1.99c-1.16,0-2.39-0.04-3.68-0.11c-8.36-0.46-14.67-1.24-19.08-1.95h0c0.1-0.03,0.18-0.08,0.1-0.75
					c-0.01-0.13-0.03-0.29-0.06-0.47c-0.1-0.76-0.3-1.99-0.47-4.06c-0.09-1.28-0.12-2.57-0.08-3.79c0.07-1.21,0.16-2.35,0.36-3.31
					c0.27-1.51,0.65-2.57,0.75-2.99c0.03-0.12,0.04-0.19,0.01-0.2c-0.12-0.03-0.85,1.15-1.32,3.11c-0.26,0.97-0.4,2.13-0.5,3.37
					c-0.07,1.24-0.06,2.56,0.04,3.87c0.21,2.61,0.56,3.92,0.75,4.58c0.13,0.41,0.22,0.57,0.3,0.62c-0.43-0.07-0.84-0.14-1.23-0.21
					c-2.21-0.38-3.85-0.73-4.93-0.99c-0.54-0.13-0.94-0.23-1.2-0.3c-0.07-0.02-0.14-0.04-0.19-0.05c-0.82-2.32-1.15-4.77-1.15-7
					c0-2.13,0.29-4.06,0.71-5.45c0.21-0.7,0.45-1.26,0.68-1.64c0.23-0.39,0.47-0.54,0.53-0.54c0.03-0.01,0.17-0.02,0.36-0.03
					c0.19-0.01,0.45-0.01,0.76-0.01c2.88,0,10.27,0.29,16.93,0.58c3.33,0.15,6.48,0.29,8.79,0.4c2.32,0.11,3.79,0.18,3.8,0.18
					c0.16,0.01,0.32-0.08,0.39-0.23c0.07-0.15,0.05-0.32-0.05-0.45l-21.92-26.13c-0.05-0.06-0.13-0.1-0.2-0.12
					c-0.13-0.04-0.27-0.02-0.38,0.07c-0.17,0.15-0.2,0.4-0.05,0.58l11.34,13.52c0.11,1.37,0.22,2.55,0.35,3.49
					c0.22,1.58,0.52,4.45,0.87,7.99c-7.27-0.33-16.51-0.71-19.86-0.71c-0.31,0-0.58,0-0.79,0.01c-0.21,0.01-0.36,0.02-0.49,0.04
					c-0.47,0.1-0.78,0.46-1.08,0.92c-0.12,0.2-0.23,0.42-0.34,0.67c-0.54-0.83-1.4-2.09-2.42-3.43c-0.87-1.15-1.86-2.35-2.86-3.38
					c-1-1.03-2.02-1.88-3-2.33c-1.2-0.55-2.84-0.94-4.56-1.23l5.78-5.09c0.13-0.12,0.17-0.3,0.11-0.46
					c-0.07-0.16-0.23-0.26-0.4-0.25l-9.61,0.53l-3.24-7.93c-0.06-0.16-0.22-0.26-0.4-0.25c-0.17,0.01-0.32,0.12-0.37,0.29
					l-2.51,7.94l-9.09,0.86c-0.17,0.02-0.32,0.14-0.36,0.31c-0.04,0.17,0.03,0.35,0.17,0.44l6.81,4.5l-0.88,5.03
					c-0.47,0.02-0.93,0.04-1.4,0.05c-2.87,0.11-5.67,0.22-8.04,0.31c-0.02-0.11-0.04-0.25-0.06-0.39c-0.01-0.1-0.03-0.2-0.04-0.3
					c0.18-0.07,0.37-0.14,0.54-0.22c0.66-0.34,1.12-0.78,1.41-1.26c0.29-0.48,0.4-1.01,0.4-1.5c0-0.73-0.23-1.4-0.49-1.9
					c-0.13-0.25-0.27-0.47-0.4-0.64c-0.07-0.08-0.13-0.15-0.2-0.22c-0.07-0.06-0.14-0.12-0.29-0.16c-0.08-0.02-0.14-0.02-0.2-0.02
					c-0.22,0-0.47,0.05-0.82,0.13c-1.04,0.23-2.9,0.75-5.62,1.33c-0.04,0.01-0.08,0.02-0.12,0.02c-0.4-2.75-0.82-5.41-1.29-7.91
					c-0.01-0.16-0.03-0.34-0.05-0.54c-0.06-0.55-0.15-1.27-0.27-2.21c-0.54-3.92-1.26-7.97-1.46-7.91
					c-0.29,0.09,0.18,4.09,0.72,8.02c0.2,1.44,0.35,2.36,0.47,2.95c-0.1,0.01-0.2,0.06-0.27,0.15c0,0-0.68,0.84-1.77,2.17
					c-3.24,3.96-10.08,12.25-12.92,15.17c-1.72,0.45-3.53,0.95-5.26,1.43c-4.82,1.35-9.05,2.6-9.05,2.6
					c-0.13,0.04-0.22,0.14-0.26,0.25c-0.03,0.08-0.04,0.17-0.02,0.26c0.06,0.22,0.29,0.34,0.51,0.28c0,0,1.05-0.31,2.71-0.79
					c2.49-0.72,6.33-1.82,9.98-2.81c2.44-0.66,4.8-1.26,6.62-1.67c-0.27,0.44-0.51,0.87-0.7,1.27c-0.61,1.29-0.83,2.43-0.83,3.53
					c0,0.97,0.16,1.91,0.34,2.92l0.4-0.07l-0.4,0.07c0.36,2.11,0.93,3.82,1.72,5.2c0.42,0.75,0.91,1.39,1.47,1.95
					C260.56,234.28,260.47,234.32,260.37,234.36 M335.79,218.31c-0.35-3.6-0.67-6.52-0.89-8.14c-0.09-0.64-0.17-1.42-0.24-2.29
					l9.07,10.8C342.29,218.61,339.32,218.47,335.79,218.31 M269.46,210.12c-0.56,0.12-1.07,0.24-1.53,0.38
					c-1.05,0.32-1.93,0.76-2.93,1.6c-1.01,0.84-2.16,2.07-3.85,3.99c-0.73,0.83-1.34,1.59-1.84,2.29c-1.21,0.25-2.73,0.62-4.41,1.05
					c2.04-2.22,5.13-5.88,7.88-9.19c2.55-3.06,4.79-5.81,5.62-6.83C268.77,205.56,269.13,207.81,269.46,210.12 M271.9,236.65
					c-3.97,0-7.04-0.44-9.26-1.84c-1.11-0.7-2.02-1.64-2.75-2.92c-0.73-1.28-1.27-2.9-1.63-4.94c-0.18-1.01-0.32-1.9-0.32-2.78
					c0-0.99,0.18-1.98,0.75-3.18c0.56-1.2,1.52-2.59,3.07-4.35c2.25-2.56,3.52-3.84,4.65-4.56c0.57-0.36,1.11-0.59,1.76-0.79
					c0.65-0.2,1.41-0.36,2.38-0.56c1.83-0.39,3.28-0.75,4.34-1.01c0.53-0.13,0.96-0.24,1.29-0.31c0.29-0.07,0.51-0.1,0.61-0.11
					c0.04,0.04,0.1,0.1,0.17,0.2c0.28,0.4,0.64,1.17,0.63,1.92c0,0.37-0.08,0.74-0.28,1.08c-0.2,0.34-0.53,0.67-1.08,0.95
					c-0.08,0.04-0.18,0.08-0.27,0.12c-0.03-0.06-0.07-0.11-0.1-0.14c-0.13-0.12-0.23-0.14-0.33-0.17c-0.29-0.07-0.67-0.09-1.14-0.09
					c-0.59,0-1.28,0.03-1.89,0.06c-0.61,0.03-1.14,0.06-1.34,0.06c-0.17,0-0.35,0.06-0.48,0.16c-0.19,0.16-0.27,0.36-0.32,0.55
					c-0.05,0.19-0.06,0.39-0.06,0.58c0,0.14,0.01,0.28,0.02,0.41c-0.78,0.25-1.54,0.58-2.21,1.09c-0.82,0.62-1.5,1.5-1.91,2.73
					c-0.18,0.54-0.27,1.04-0.27,1.5c0,0.94,0.36,1.7,0.91,2.27c0.82,0.85,2,1.31,3.07,1.62c0.53,0.15,1.04,0.26,1.47,0.35
					c0.42,0.09,0.76,0.16,0.92,0.21c0.21,0.07,0.47,0.11,0.8,0.15c1.15,0.14,3.12,0.2,4.91,0.31c0.89,0.06,1.74,0.12,2.4,0.21
					c0.33,0.04,0.61,0.1,0.83,0.15c0.21,0.05,0.35,0.12,0.37,0.13c0.13,0.1,0.3,0.35,0.41,0.69c0.11,0.34,0.18,0.76,0.18,1.17
					c0,0.41-0.07,0.82-0.19,1.13c-0.13,0.31-0.3,0.52-0.52,0.61c-0.08,0.04-0.14,0.11-0.18,0.18c-0.06-0.01-0.12-0.01-0.21-0.02
					c-0.27-0.02-0.66-0.01-1.25-0.02c-0.55,0-1.26-0.02-2.2-0.07c-1.94-0.1-3.91-0.4-5.37-0.71c-0.68-0.14-1.24-0.28-1.67-0.37
					c-0.49-0.11-0.79-0.16-0.8-0.1c-0.03,0.14,0.9,0.59,2.36,1.03c1.46,0.43,3.45,0.8,5.44,0.9c1.99,0.11,3.02-0.04,3.54-0.14
					c0.07-0.02,0.13-0.03,0.18-0.05c0.03,0.11,0.07,0.28,0.07,0.49c0,0.3-0.07,0.65-0.37,1c-0.29,0.36-0.84,0.73-1.83,1.01
					c-0.12,0.03-0.21,0.12-0.26,0.23c-0.05,0-0.08,0-0.14,0c-0.19,0-0.45,0.02-0.81,0.05c-0.5,0.04-1.19,0.09-2.16,0.12
					c-1.68,0.04-3.38-0.16-4.64-0.43c-0.76-0.16-1.35-0.33-1.72-0.42c-0.24-0.06-0.39-0.08-0.4-0.04c-0.04,0.13,0.73,0.61,2,1.01
					c1.27,0.4,3.03,0.67,4.77,0.63c1.74-0.04,2.62-0.26,3.06-0.4c0,0,0,0,0.01,0c-0.03,0.41-0.19,1.16-0.96,1.86
					C277.04,235.88,275.31,236.65,271.9,236.65 M273.13,237.44c2.76-0.16,4.38-0.89,5.33-1.75c1.03-0.94,1.21-2,1.23-2.53
					c0.92-0.3,1.55-0.71,1.94-1.17c0.11-0.13,0.2-0.27,0.27-0.4c0.14,0,0.28,0.01,0.42,0.01c0.06,4.56,0.13,9.76,0.13,14.15
					c0,3.52-0.05,6.52-0.17,8.18c-0.11,1.52-0.65,3.3-1.55,5.23c-0.4-0.03-0.8-0.07-1.17-0.11c-1.37-0.15-2.54-0.34-3.45-0.58
					c-0.81-0.21-1.4-0.46-1.77-0.71C274.29,256.36,273.94,248.04,273.13,237.44 M280.35,259.94c-0.18,0.35-0.37,0.7-0.57,1.06
					c-1.39-0.62-2.75-1.23-4.07-1.8c0.07,0.02,0.13,0.04,0.2,0.06C277.07,259.55,278.57,259.78,280.35,259.94 M239.28,275.03
					c-2.46-1.57-4.11-3.25-5.15-5.19c-1.04-1.94-1.48-4.18-1.48-6.89c0-0.51,0.02-1.03,0.05-1.57c0.21-3.59,1.82-5.95,4.33-7.48
					c2.52-1.53,5.97-2.19,9.76-2.19c4.98,0,10.54,1.13,15.27,2.8c3.84,1.35,10.19,4.04,17.31,7.22c-0.62,1.04-1.32,2.09-2.1,3.16
					c-2.99,4.06-7.15,8.24-12.01,11.75c-2.32,1.68-4.89,3.57-7.73,5.54C249.02,279.67,243.14,277.49,239.28,275.03 M250.09,300.89
					c-0.91-0.74-1.52-1.71-1.76-3.01c-0.22-1.15-0.33-2.2-0.33-3.18c0-2.39,0.65-4.33,1.95-6.12c2.97-1.79,5.7-3.61,8.22-5.36
					c0.27,0.08,0.55,0.16,0.83,0.24c-2.11,1.23-3.94,2.55-5.3,3.98c-2.29,2.4-3.16,4.99-3.15,7.46c0,2.67,0.99,5.19,2.18,7.28
					C251.69,301.88,250.8,301.46,250.09,300.89 M256.53,302.63c-0.96,0-1.86-0.07-2.7-0.22c-1.32-2.13-2.46-4.78-2.46-7.52
					c0-2.28,0.77-4.64,2.93-6.9c1.09-1.15,2.54-2.25,4.22-3.29c2.88,2.01,4.77,4.48,5.98,7.03c1.48,3.13,1.96,6.38,2.02,9.06
					C263.09,301.94,259.55,302.63,256.53,302.63 M259.29,284.23c0.27-0.16,0.54-0.32,0.82-0.47c1.54,0.43,3.15,0.88,4.85,1.34
					c2.94,0.8,5.84,1.54,8.69,2.25l-8.36,4.16h0c-0.02-0.04-0.04-0.08-0.06-0.13C264.02,288.8,262.13,286.29,259.29,284.23
					 M267.33,300.52c-0.09-2.46-0.52-5.37-1.72-8.26c0.02,0,0.03,0,0.04-0.01l1.7-0.85c0.01,0.01,0.01,0.02,0.03,0.03
					c0.21,0.19,0.4,0.41,0.58,0.65c0.88,1.16,1.41,2.81,1.68,4.28c0.11,0.61,0.19,1.18,0.24,1.67c0.02,0.22,0.04,0.44,0.06,0.62
					c0.02,0.29,0.03,0.53,0.04,0.7c0,0.05,0,0.08,0,0.12C269.12,299.84,268.23,300.19,267.33,300.52 M273.76,297.02
					c0,0.24-0.02,0.48-0.07,0.71c-0.99,0.49-1.96,0.95-2.9,1.38c-0.03-0.59-0.1-1.67-0.34-2.91c-0.34-1.76-0.98-3.83-2.33-5.19
					l2.45-1.22c0.01,0.03,0.02,0.06,0.04,0.08c0,0,0.05,0.06,0.13,0.17c0.16,0.21,0.44,0.6,0.77,1.1c0.3,0.46,0.64,1.03,0.97,1.65
					c0.68,1.3,1.27,2.86,1.26,4.21C273.76,297.01,273.76,297.02,273.76,297.02 M276.83,296.14c-0.76,0.39-1.51,0.78-2.26,1.16
					c0-0.1,0.01-0.19,0.01-0.29c0-1.81-0.84-3.69-1.66-5.15c-0.71-1.25-1.41-2.18-1.6-2.42l2.29-1.14c0.02,0.03,0.05,0.07,0.09,0.13
					c0.19,0.27,0.56,0.81,0.99,1.5c0.27,0.44,0.56,0.95,0.84,1.48c0.6,1.17,1.13,2.5,1.28,3.66c0.03,0.21,0.05,0.42,0.04,0.61
					c0,0.14-0.01,0.27-0.02,0.39C276.82,296.09,276.83,296.11,276.83,296.14 M277.66,295.7c0-0.01,0-0.02,0-0.03
					c-0.01-1.74-0.88-3.69-1.74-5.24c-0.66-1.19-1.31-2.13-1.58-2.51l0.54-0.27c0.89,0.22,1.77,0.43,2.65,0.64
					c0.11,0.03,0.22,0.05,0.34,0.08c0.11,0.14,0.22,0.3,0.33,0.46c0.71,1.04,1.42,2.49,1.7,4.34c0.06,0.36,0.1,0.73,0.12,1.11
					c0,0.04,0.02,0.08,0.03,0.12C279.27,294.84,278.47,295.28,277.66,295.7 M280.82,294c-0.17-2.27-0.94-4.06-1.76-5.33
					c2.75,0.65,5.41,1.25,7.98,1.82C285.23,291.53,283.09,292.75,280.82,294 M315.82,295.13c-0.18-0.03-0.46-0.07-0.89-0.14
					c-4.97-0.79-26.35-4.35-49.75-10.68c-2.18-0.59-4.22-1.16-6.14-1.7c2.53-1.78,4.84-3.47,6.94-4.98
					c4.97-3.59,9.21-7.85,12.28-12.02c0.84-1.14,1.58-2.27,2.24-3.38c4.4,1.98,9.04,4.12,13.55,6.25c6.14,2.9,12.02,5.76,16.65,8.1
					c2.31,1.17,4.32,2.21,5.88,3.07c1.48,0.81,2.57,1.45,3.13,1.85c0.14,0.37,0.65,1.85,0.65,3.9
					C320.36,288.05,319.51,291.67,315.82,295.13 M329.72,295.69l-2.14-0.7c0-0.06,0-0.11-0.02-0.17c-0.11-0.33-0.18-0.68-0.22-1.03
					c-0.03-0.24-0.05-0.48-0.05-0.72c0-1.16,0.3-2.33,0.61-3.21c0.01-0.02,0.01-0.03,0.02-0.04c0.15-0.42,0.29-0.77,0.41-1.01
					c0.06-0.13,0.1-0.22,0.14-0.29l0.05-0.1c0,0,0,0,0-0.01l2.74,0.64c-0.38,0.55-1.69,2.61-1.7,5.13
					C329.55,294.68,329.6,295.18,329.72,295.69 M326.67,294.69l-3.85-1.27c0.01-0.01,0.03-0.03,0.04-0.04
					c0.98-1.22,1.38-2.82,1.38-4.46c0-0.51-0.04-1.01-0.11-1.52l3.56,0.83c-0.3,0.61-1.21,2.65-1.22,4.84
					C326.47,293.61,326.53,294.15,326.67,294.69 M331.19,290.82c0.08-0.18,0.17-0.33,0.25-0.48c0.12-0.22,0.23-0.41,0.32-0.56
					c0.08-0.12,0.14-0.22,0.18-0.28l0.05-0.07l0.01-0.02c0.04-0.05,0.06-0.1,0.07-0.15l2.63,0.61c-0.76,1.11-1.14,2.63-1.36,4.01
					c-0.18,1.23-0.23,2.34-0.24,2.93l-2.47-0.81c0-0.01,0-0.03,0-0.04c-0.09-0.28-0.15-0.56-0.19-0.83
					c-0.05-0.31-0.08-0.62-0.08-0.92C330.37,292.9,330.78,291.7,331.19,290.82 M334.05,294.9c0.03-0.29,0.07-0.59,0.11-0.89
					c0.13-0.9,0.36-1.86,0.68-2.66c0.18-0.44,0.39-0.84,0.64-1.16c0.03-0.04,0.04-0.07,0.06-0.11l3.56,0.83
					c-1.07,2.01-1.82,4.4-2.02,7.22l-3.16-1.04C333.93,296.73,333.95,295.9,334.05,294.9 M323.97,286.52
					c-0.05-0.24-0.11-0.47-0.18-0.7c-0.5-1.72-1.62-3.04-2.91-4.04c2.63,0.24,6.64,0.7,10.63,1.55c1.15,0.24,3.17,0.53,5.58,1.02
					c1.86,0.37,3.94,0.87,6,1.54c-1.3,1.15-2.54,2.56-3.56,4.27L323.97,286.52z M320.95,282.91c0.93,0.85,1.69,1.88,2.05,3.14
					l0.39-0.11l-0.39,0.11c0.07,0.24,0.13,0.48,0.18,0.73c-0.02,0.11,0,0.22,0.06,0.3c0.11,0.61,0.18,1.23,0.18,1.84
					c0,1.51-0.37,2.93-1.2,3.94c-0.83,1.02-2.11,1.69-4.09,1.69c-0.18,0-0.38-0.02-0.58-0.03c2.89-3.26,3.64-6.61,3.63-9.14
					C321.19,284.43,321.08,283.59,320.95,282.91 M334.3,304.39c-4.01-1.09-8.18-2.58-11.63-4.46c-2.47-1.34-4.54-2.88-5.92-4.57
					c0.03-0.02,0.05-0.05,0.08-0.07c0.45,0.06,0.89,0.09,1.3,0.09c1.72,0,3.06-0.49,4.04-1.31l14.76,4.85
					c0.04,0.01,0.08,0.01,0.12,0.01c-0.01,0.22-0.02,0.43-0.02,0.65c0,1.73,0.22,3.61,0.67,5.65
					C336.52,304.97,335.36,304.68,334.3,304.39 M351.38,290.3c2.01,1.86,3.3,4.19,3.31,7.25c0,2.16-0.43,3.79-1.16,5.02
					c-0.44,0.74-0.99,1.34-1.62,1.83c-1.69,1.3-4.08,1.8-6.72,1.8c-2.13,0-4.42-0.33-6.61-0.78c-0.5-2.12-0.73-4.07-0.73-5.83
					c0-6.47,2.94-10.68,6.13-13.39C346.75,287.17,349.41,288.49,351.38,290.3 M368.41,275.14c-2.12,2.68-5.87,4.88-11.24,6.67
					c-3.82,1.28-8.46,2.36-13.87,3.28c-0.73-0.24-1.46-0.46-2.18-0.65c-4.03-1.09-7.78-1.56-9.44-1.92
					c-4.38-0.93-8.77-1.4-11.37-1.62l-0.02-0.02c-0.61-0.44-1.74-1.11-3.32-1.97c-4.18-2.28-11.44-5.89-19.45-9.71
					c7.55-2.95,32-12.18,47.17-14.22c3.85-0.52,7.12-0.79,9.9-0.79c5.19,0,8.66,0.94,11.04,2.91c2.38,1.97,3.75,5.03,4.63,9.44
					c0.17,0.88,0.26,1.72,0.26,2.52C370.52,271.37,369.82,273.36,368.41,275.14"/>
				<path class="st4" d="M304.28,150.83c0.38,0.28,0.85,0.29,1.21,0.22c0.81-0.17,1.26-0.84,1.42-1.35
					c0.17-0.54,0.15-1.03,0.03-1.44c-0.13-0.39-0.36-0.78-0.75-0.91c-0.09-0.03-0.18-0.05-0.25-0.05c-0.25-0.02-0.44,0.05-0.57,0.11
					c-0.34,0.18-0.45,0.34-0.5,0.44c-0.04,0.1-0.01,0.15,0.03,0.19c0.08,0.11,0.17,0.09,0.67-0.06c0.28-0.03,0.45-0.06,0.61,0.49
					c0.06,0.25,0.06,0.61-0.06,0.96c-0.12,0.36-0.38,0.7-0.79,0.78c-0.47,0.09-0.68-0.08-0.82-0.58c-0.1-0.48-0.05-1.04,0.09-1.56
					c0.28-1.03,0.86-1.95,1.48-2.53c0.63-0.59,1.38-0.72,1.82-0.54c0.47,0.16,0.52,0.5,0.59,0.47c0.03,0,0.09-0.11,0.03-0.28
					c-0.05-0.17-0.21-0.4-0.49-0.55c-0.56-0.34-1.6-0.24-2.39,0.43c-0.78,0.65-1.45,1.61-1.82,2.8c-0.17,0.59-0.27,1.25-0.14,1.96
					C303.75,150.16,303.92,150.56,304.28,150.83"/>
				<path class="st4" d="M292.83,144.93c-0.19-0.24-0.72,0.07-1.2,0.42c-0.48,0.36-0.39,0.5-0.27,0.67
					c0.12,0.17,0.24,0.29,0.72-0.06C292.56,145.6,292.96,145.09,292.83,144.93"/>
				<path class="st4" d="M293.02,146.11c-0.37,0.35-0.26,0.48-0.12,0.63c0.14,0.15,0.27,0.27,0.64-0.08
					c0.37-0.35,0.64-0.83,0.49-0.98C293.82,145.46,293.39,145.76,293.02,146.11"/>
				<path class="st4" d="M266.04,145.49c-0.45,0.36-0.35,0.5-0.22,0.66c0.13,0.16,0.25,0.28,0.69-0.07
					c0.45-0.36,0.81-0.86,0.67-1.02C266.99,144.83,266.49,145.14,266.04,145.49"/>
				<path class="st4" d="M267.51,146.25c-0.39,0.28-0.3,0.42-0.18,0.59c0.12,0.17,0.23,0.3,0.62,0.02c0.39-0.28,0.7-0.71,0.58-0.87
					C268.34,145.74,267.9,145.97,267.51,146.25"/>
				<path class="st4" d="M274.79,147.83l-0.13,0.47c-0.04,0.15-0.06,0.37-0.07,0.55c0.1,0.83,0.54,1.25,0.88,1.66
					c0.73,0.77,1.43,1.26,1.93,1.59c0.5,0.32,0.8,0.46,0.84,0.41h0c0.06-0.09-0.17-0.38-0.58-0.8c-0.4-0.43-1.02-1-1.6-1.74
					c-0.28-0.36-0.56-0.83-0.56-1.14c0.03-0.16,0.11-0.43,0.2-0.69c0.11-0.27,0.2-0.54,0.33-0.83c0.47-1.12,1.03-2.32,1.59-3.5
					c0.98-2.03,1.52-3.22,1.8-3.93c0.36-0.94,0.26-1.04,0.11-1.13c-0.25-0.13-0.58-0.15-2.88,4.6c-0.57,1.19-1.11,2.41-1.56,3.6
					C274.99,147.23,274.89,147.54,274.79,147.83"/>
				<path class="st4" d="M268.17,133.11c0.28-0.03,0.77-0.36,1.48-0.61c0.88-0.32,2.09-0.42,2.98,0.36
					c0.81,0.66,1.26,1.16,1.56,1.41c0.06,0.05,0.11,0.09,0.16,0.11c0.3,0.21,0.44,0.13,0.59,0.03c0.15-0.1,0.27-0.21,0.14-0.58
					c-0.16-0.36-0.48-1.03-1.66-1.99c-0.3-0.23-0.66-0.45-1.06-0.6c-0.4-0.14-0.81-0.19-1.19-0.18c-0.78,0.02-1.45,0.27-1.95,0.58
					c-1.01,0.62-1.34,1.36-1.21,1.45C268.05,133.11,268.11,133.11,268.17,133.11"/>
				<path class="st4" d="M286.76,134.27L286.76,134.27c0.08,0.08,0.27,0.04,0.53-0.06c0.33-0.13,0.79-0.37,1.35-0.64
					c0.51-0.24,1.1-0.51,1.75-0.7c0.67-0.21,1.28-0.29,1.95-0.19c1.15,0.21,1.8,0.55,2.2,0.69c0.07,0.02,0.13,0.04,0.18,0.05
					c0.38,0.11,0.48,0,0.6-0.14c0.11-0.14,0.19-0.29-0.1-0.63c-0.15-0.16-0.4-0.37-0.82-0.61c-0.42-0.23-1-0.51-1.87-0.64
					c-0.43-0.07-0.88-0.07-1.32-0.02c-0.45,0.07-0.84,0.19-1.21,0.33c-0.74,0.28-1.37,0.66-1.87,1.02
					C287.13,133.47,286.63,134.15,286.76,134.27"/>
				<path class="st4" d="M288.13,164.02c0.1-0.08,0.2-0.16,0.3-0.24c0.15-0.12,0.28-0.25,0.42-0.38c0.09-0.08,0.17-0.16,0.25-0.25
					c0.13-0.13,0.24-0.27,0.36-0.41c0.07-0.09,0.15-0.17,0.21-0.26c0.02-0.02,0.04-0.05,0.06-0.07c0.1-0.13,0.19-0.27,0.28-0.4
					c0.04-0.06,0.08-0.11,0.12-0.17c0,0,0-0.01,0.01-0.01c0.98-1.54,1.33-3.17,1.33-4.37c0-0.5-0.06-0.93-0.18-1.27
					c-0.06-0.17-0.14-0.32-0.25-0.46c-0.11-0.13-0.29-0.25-0.51-0.26l-0.11,0c-0.66,0-2.17,0.12-4.1,0.31
					c-5.8,0.55-15.31,1.64-15.31,1.64c-0.17,0.02-0.32,0.15-0.35,0.32c-0.12,0.55-0.18,1.09-0.18,1.62c0,1.95,0.84,3.72,2.45,4.96
					c0.33,0.25,0.7,0.47,1.09,0.68c0.01,0,0.02,0.01,0.02,0.01c0.2,0.11,0.41,0.2,0.62,0.3c0.07,0.03,0.14,0.05,0.2,0.08
					c0.18,0.07,0.35,0.14,0.54,0.21c0.27,0.09,0.54,0.18,0.83,0.25h0c0.27,0.07,0.54,0.13,0.83,0.18c0.02,0,0.05,0.01,0.07,0.01
					c0.27,0.05,0.54,0.09,0.83,0.12c0.04,0,0.09,0.01,0.14,0.01c0.27,0.03,0.54,0.06,0.83,0.07c0.06,0,0.12,0,0.18,0
					c0.27,0.01,0.54,0.02,0.82,0.03c0.96,0,1.99-0.07,3.08-0.23c0.44-0.06,0.85-0.14,1.25-0.24c0.14-0.03,0.26-0.08,0.4-0.11
					c0.25-0.07,0.5-0.14,0.74-0.22c0.14-0.05,0.28-0.11,0.42-0.16c0.21-0.08,0.41-0.17,0.61-0.26c0.13-0.06,0.26-0.13,0.39-0.2
					c0.18-0.1,0.36-0.19,0.53-0.3c0.12-0.07,0.23-0.15,0.34-0.22C287.82,164.25,287.98,164.13,288.13,164.02 M273.5,163.73
					c-0.02-0.02-0.05-0.04-0.08-0.05c-1.42-1.1-2.13-2.59-2.13-4.31c0-0.37,0.04-0.76,0.11-1.16c0.42-0.05,1.26-0.14,2.37-0.27
					c2.43-0.27,6.14-0.68,9.47-1.03c1.66-0.17,3.23-0.32,4.5-0.44c1.26-0.11,2.24-0.18,2.67-0.18h0.02c0.04,0.05,0.1,0.18,0.14,0.38
					c0.05,0.21,0.07,0.48,0.07,0.79c0,0.95-0.27,2.26-0.98,3.54c-1.21-0.94-3.08-1.72-5.94-1.72c-0.8,0-1.67,0.06-2.63,0.19
					C276.91,160.05,274.65,162.04,273.5,163.73 M282.87,165.25c-1.05,0.15-2.04,0.22-2.95,0.22c-2.43,0-4.34-0.5-5.73-1.3
					c1.05-1.52,3.07-3.32,7.02-3.87c0.93-0.13,1.76-0.19,2.52-0.19c2.76,0,4.44,0.75,5.5,1.59
					C288.08,163.33,286.14,164.79,282.87,165.25"/>
				<path class="st4" d="M288.47,140.61c-0.38,1.48-0.15,2.82,0.52,2.99c0.67,0.17,1.51-0.89,1.89-2.37
					c0.38-1.48,0.15-2.82-0.52-2.99C289.7,138.08,288.85,139.14,288.47,140.61"/>
				<path class="st4" d="M270.8,137.5c-0.67-0.17-1.51,0.89-1.89,2.37c-0.38,1.48-0.14,2.82,0.52,2.99
					c0.67,0.17,1.51-0.89,1.89-2.37C271.7,139,271.47,137.67,270.8,137.5"/>
				<path class="st4" d="M322.31,191.06c0.08-0.03,0.13-0.07,0.11-0.44c-0.01-0.09-0.01-0.19-0.03-0.33
					c-0.04-0.68-0.31-2.03-0.01-4.64c0.17-1.3,0.48-2.59,0.87-3.79c0.21-0.59,0.42-1.16,0.65-1.69c0.25-0.52,0.46-1.03,0.69-1.48
					c0.23-0.44,0.45-0.85,0.65-1.23c0.2-0.34,0.38-0.65,0.55-0.93c0.18-0.31,0.3-0.54,0.36-0.68c0.04-0.09,0.06-0.16,0.04-0.17
					c0,0,0,0,0,0c-0.07-0.03-0.32,0.22-0.71,0.7c-0.19,0.24-0.43,0.52-0.67,0.87c-0.24,0.37-0.49,0.77-0.76,1.19
					c-0.27,0.44-0.51,0.95-0.78,1.48c-0.25,0.54-0.49,1.12-0.72,1.72c-0.43,1.22-0.77,2.55-0.94,3.91
					c-0.31,2.73,0.06,4.15,0.24,4.84C322.09,191.09,322.22,191.1,322.31,191.06"/>
				<path class="st4" d="M253.73,235.66c-0.21-0.27-0.54-0.65-0.96-1.25c-0.43-0.59-0.96-1.42-1.47-2.6
					c-1.05-2.36-1.25-5.06-0.98-7.03c0.08-0.48,0.15-0.93,0.21-1.35c0.07-0.4,0.18-0.74,0.24-1.03c0.09-0.42,0.15-0.7,0.15-0.83
					c0-0.05,0-0.08-0.02-0.08c-0.08-0.01-0.24,0.3-0.46,0.86c-0.1,0.28-0.26,0.62-0.36,1.02c-0.1,0.43-0.21,0.88-0.32,1.37
					c-0.4,2.01-0.26,4.87,0.85,7.37c0.55,1.25,1.12,2.11,1.61,2.72c0.48,0.61,0.87,0.97,1.14,1.21c0.55,0.45,0.66,0.39,0.72,0.31
					c0.05-0.06,0.06-0.12-0.07-0.32C253.95,235.94,253.87,235.83,253.73,235.66"/>
				<path class="st4" d="M267.9,193.83c0.09,0.05,0.19,0.06,0.62-0.59c0.2-0.3,0.48-0.74,0.87-1.38c0.45-0.74,1.06-1.72,1.92-3.06
					c1.6-2.47,3.37-4.91,4.87-6.59c1.07-1.23,1.98-2.06,2.38-2.46c0.15-0.15,0.23-0.25,0.2-0.27c-0.06-0.05-0.53,0.21-1.22,0.74
					c-0.51,0.39-1.13,0.94-1.81,1.64c-1.61,1.62-3.44,4.03-5.05,6.53c-1.62,2.5-2.3,3.87-2.62,4.59
					C267.74,193.7,267.81,193.78,267.9,193.83"/>
				<polygon class="st4" points="277.02,208.49 277.02,208.49 277.02,208.49 				"/>
			</g>
			<g>
				<path class="st4" d="M251.55,95.92c0.24-0.17,0.38-0.4-2.31-4.34c-2.68-3.93-5.67-7.88-5.89-7.68c-0.32,0.29,2.32,4.36,5,8.29
					C251.03,96.12,251.3,96.09,251.55,95.92"/>
				<path class="st4" d="M235.54,103.27c4.43,2.55,4.66,2.4,4.81,2.15c0.15-0.26,0.16-0.53-4.27-3.08
					c-4.43-2.55-9.14-4.99-9.25-4.71C226.66,98.03,231.11,100.72,235.54,103.27"/>
				<path class="st4" d="M231.85,118.52c4.49-0.07,4.6-0.31,4.6-0.61c-0.01-0.3-0.12-0.54-4.62-0.47c-4.49,0.07-9.15,0.38-9.11,0.67
					C222.78,118.55,227.36,118.59,231.85,118.52"/>
			</g>
		</g>
	</g>
</g>
</svg>
