<?xml version="1.0" encoding="utf-8"?>
<!-- Generator: Adobe Illustrator 24.0.2, SVG Export Plug-In . SVG Version: 6.00 Build 0)  -->
<svg version="1.1" id="Layer_1" xmlns="http://www.w3.org/2000/svg" xmlns:xlink="http://www.w3.org/1999/xlink" x="0px" y="0px"
	 viewBox="0 0 300 300" style="enable-background:new 0 0 300 300;" xml:space="preserve">
<style type="text/css">
	.st0{fill:#D4E0F2;}
	.st1{fill:#143156;}
	.st2{fill:#1B4074;}
	.st3{fill:#CEE0F3;}
	.st4{fill:#FFFFFF;}
	.st5{fill:#EF5B82;}
	.st6{fill:#E7F0F9;}
	.st7{fill:#151625;}
	.st8{fill:#F8AC8C;}
	.st9{fill:#C7795C;}
	.st10{fill:#733534;}
	.st11{fill:#BD595A;}
	.st12{fill:#F49091;}
	.st13{fill:#F38072;}
	.st14{fill:#FFCE6D;}
	.st15{fill:#F16859;}
	.st16{fill:#FFEEDE;}
</style>
<path class="st0" d="M241.71,274.75c0,0-283.44,120.24-226.03-225.34C26.22-14.03,85.7,73.45,125.62,34.39
	c51.5-50.39,90.55-16.65,118.45,46.06c20.94,47.07,32.03,77.51,42.54,114.16c16.36,57.08-18.32,70.1-18.32,70.1L241.71,274.75z"/>
<g>
	<g>
		<g>
			<g>
				<path class="st1" d="M251.3,239.91H48.1c-3.73,0-6.05-3.28-5.19-7.26l12.27-57.08c0.66-3.08,3.79-5.54,7.01-5.54h175.03
					c3.21,0,6.35,2.46,7.01,5.54l12.27,57.08C257.35,236.64,255.03,239.91,251.3,239.91z"/>
			</g>
			<g>
				<path class="st2" d="M250.1,234.09H49.3c-3.69,0-6.04-2.97-5.26-6.59l11.23-52.34c0.61-2.85,3.71-5.13,6.92-5.13h175.03
					c3.21,0,6.31,2.28,6.92,5.13l11.23,52.34C256.14,231.12,253.79,234.09,250.1,234.09z"/>
			</g>
		</g>
		<g>
			<g>
				<path class="st1" d="M233.84,205.04H65.56c-1.67,0-2.78-1.27-2.5-2.83l4.99-26.92c0.25-1.37,1.72-2.48,3.27-2.48h156.74
					c1.55,0,3.02,1.11,3.27,2.48l4.99,26.92C236.63,203.77,235.51,205.04,233.84,205.04z"/>
				<g>
					<path class="st3" d="M81.37,177.04h-9.06c-0.26,0-0.44-0.19-0.4-0.42l0.28-1.57c0.04-0.23,0.29-0.42,0.55-0.42h9.01
						c0.26,0,0.45,0.19,0.41,0.42l-0.24,1.57C81.88,176.85,81.63,177.04,81.37,177.04z"/>
					<path class="st3" d="M94.62,177.04h-9.06c-0.26,0-0.45-0.19-0.42-0.42l0.23-1.57c0.03-0.23,0.27-0.42,0.54-0.42h9.01
						c0.26,0,0.45,0.19,0.42,0.42l-0.19,1.57C95.12,176.85,94.88,177.04,94.62,177.04z"/>
					<path class="st3" d="M107.86,177.04H98.8c-0.26,0-0.46-0.19-0.43-0.42l0.18-1.57c0.03-0.23,0.26-0.42,0.52-0.42h9.01
						c0.26,0,0.46,0.19,0.44,0.42l-0.15,1.57C108.36,176.85,108.13,177.04,107.86,177.04z"/>
					<path class="st3" d="M121.11,177.04h-9.06c-0.26,0-0.46-0.19-0.44-0.42l0.14-1.57c0.02-0.23,0.25-0.42,0.51-0.42h9.01
						c0.26,0,0.46,0.19,0.45,0.42l-0.1,1.57C121.6,176.85,121.38,177.04,121.11,177.04z"/>
					<path class="st3" d="M134.36,177.04h-9.06c-0.26,0-0.47-0.19-0.45-0.42l0.09-1.57c0.01-0.23,0.24-0.42,0.5-0.42h9.01
						c0.26,0,0.47,0.19,0.46,0.42l-0.05,1.57C134.84,176.85,134.62,177.04,134.36,177.04z"/>
					<path class="st3" d="M147.61,177.04h-9.06c-0.26,0-0.47-0.19-0.47-0.42l0.04-1.57c0.01-0.23,0.22-0.42,0.49-0.42h9.01
						c0.26,0,0.47,0.19,0.47,0.42l-0.01,1.57C148.09,176.85,147.87,177.04,147.61,177.04z"/>
					<path class="st3" d="M160.86,177.04h-9.06c-0.26,0-0.48-0.19-0.48-0.42l-0.01-1.57c0-0.23,0.21-0.42,0.47-0.42h9.01
						c0.26,0,0.48,0.19,0.49,0.42l0.04,1.57C161.33,176.85,161.12,177.04,160.86,177.04z"/>
					<path class="st3" d="M174.1,177.04h-9.06c-0.26,0-0.48-0.19-0.49-0.42l-0.05-1.57c-0.01-0.23,0.2-0.42,0.46-0.42h9.01
						c0.26,0,0.49,0.19,0.5,0.42l0.09,1.57C174.57,176.85,174.37,177.04,174.1,177.04z"/>
					<path class="st3" d="M187.35,177.04h-9.06c-0.26,0-0.49-0.19-0.51-0.42l-0.1-1.57c-0.01-0.23,0.19-0.42,0.45-0.42h9.01
						c0.26,0,0.49,0.19,0.51,0.42l0.14,1.57C187.81,176.85,187.62,177.04,187.35,177.04z"/>
					<path class="st3" d="M200.6,177.04h-9.06c-0.26,0-0.5-0.19-0.52-0.42l-0.15-1.57c-0.02-0.23,0.17-0.42,0.44-0.42h9.01
						c0.26,0,0.5,0.19,0.52,0.42l0.18,1.57C201.06,176.85,200.86,177.04,200.6,177.04z"/>
					<path class="st3" d="M213.85,177.04h-9.06c-0.26,0-0.5-0.19-0.53-0.42l-0.19-1.57c-0.03-0.23,0.16-0.42,0.42-0.42h9.01
						c0.26,0,0.5,0.19,0.54,0.42l0.23,1.57C214.3,176.85,214.11,177.04,213.85,177.04z"/>
					<path class="st3" d="M227.1,177.04h-9.06c-0.26,0-0.51-0.19-0.54-0.42l-0.24-1.57c-0.04-0.23,0.15-0.42,0.41-0.42h9.01
						c0.26,0,0.51,0.19,0.55,0.42l0.28,1.57C227.54,176.85,227.36,177.04,227.1,177.04z"/>
					<path class="st3" d="M80.41,183.23h-9.19c-0.27,0-0.45-0.19-0.41-0.44l0.66-3.76c0.04-0.24,0.29-0.43,0.56-0.43h9.09
						c0.26,0,0.45,0.19,0.41,0.43l-0.58,3.76C80.93,183.04,80.68,183.23,80.41,183.23z"/>
					<path class="st3" d="M93.84,183.23h-9.19c-0.27,0-0.46-0.19-0.42-0.44l0.55-3.76c0.03-0.24,0.28-0.43,0.54-0.43h9.09
						c0.27,0,0.46,0.19,0.43,0.43l-0.46,3.76C94.35,183.04,94.11,183.23,93.84,183.23z"/>
					<path class="st3" d="M107.28,183.23h-9.19c-0.27,0-0.46-0.19-0.43-0.44l0.44-3.76c0.03-0.24,0.26-0.43,0.53-0.43h9.09
						c0.27,0,0.46,0.19,0.44,0.43l-0.35,3.76C107.78,183.04,107.55,183.23,107.28,183.23z"/>
					<path class="st3" d="M120.71,183.23h-9.19c-0.27,0-0.47-0.19-0.45-0.44l0.32-3.76c0.02-0.24,0.25-0.43,0.52-0.43h9.09
						c0.26,0,0.47,0.19,0.45,0.43l-0.24,3.76C121.21,183.04,120.98,183.23,120.71,183.23z"/>
					<path class="st3" d="M134.14,183.23h-9.19c-0.27,0-0.47-0.19-0.46-0.44l0.21-3.76c0.01-0.24,0.24-0.43,0.5-0.43h9.09
						c0.27,0,0.47,0.19,0.47,0.43l-0.13,3.76C134.64,183.04,134.41,183.23,134.14,183.23z"/>
					<path class="st3" d="M147.58,183.23h-9.19c-0.27,0-0.48-0.19-0.47-0.44l0.1-3.76c0.01-0.24,0.23-0.43,0.49-0.43h9.09
						c0.26,0,0.48,0.19,0.48,0.43l-0.01,3.76C148.06,183.04,147.85,183.23,147.58,183.23z"/>
					<path class="st3" d="M161.01,183.23h-9.19c-0.27,0-0.49-0.19-0.49-0.44l-0.01-3.76c0-0.24,0.21-0.43,0.48-0.43h9.09
						c0.27,0,0.48,0.19,0.49,0.43l0.1,3.76C161.49,183.04,161.28,183.23,161.01,183.23z"/>
					<path class="st3" d="M174.45,183.23h-9.19c-0.27,0-0.49-0.19-0.5-0.44l-0.13-3.76c-0.01-0.24,0.2-0.43,0.47-0.43h9.09
						c0.27,0,0.49,0.19,0.5,0.43l0.21,3.76C174.92,183.04,174.71,183.23,174.45,183.23z"/>
					<path class="st3" d="M187.88,183.23h-9.19c-0.27,0-0.5-0.19-0.51-0.44l-0.24-3.76c-0.01-0.24,0.19-0.43,0.45-0.43h9.09
						c0.27,0,0.5,0.19,0.52,0.43l0.32,3.76C188.35,183.04,188.15,183.23,187.88,183.23z"/>
					<path class="st3" d="M201.31,183.23h-9.19c-0.27,0-0.5-0.19-0.53-0.44l-0.35-3.76c-0.02-0.24,0.17-0.43,0.44-0.43h9.09
						c0.27,0,0.5,0.19,0.53,0.43l0.44,3.76C201.78,183.04,201.58,183.23,201.31,183.23z"/>
					<path class="st3" d="M214.75,183.23h-9.19c-0.27,0-0.51-0.19-0.54-0.44l-0.46-3.76c-0.03-0.24,0.16-0.43,0.43-0.43h9.09
						c0.27,0,0.51,0.19,0.54,0.43l0.55,3.76C215.2,183.04,215.01,183.23,214.75,183.23z"/>
					<path class="st3" d="M228.18,183.23h-9.19c-0.27,0-0.51-0.19-0.55-0.44l-0.58-3.76c-0.04-0.24,0.15-0.43,0.41-0.43h9.09
						c0.27,0,0.51,0.19,0.56,0.43l0.66,3.76C228.63,183.04,228.45,183.23,228.18,183.23z"/>
					<path class="st3" d="M93.05,189.6H70.11c-0.27,0-0.46-0.2-0.41-0.45l0.68-3.87c0.04-0.24,0.3-0.44,0.56-0.44h22.7
						c0.27,0,0.46,0.2,0.43,0.44l-0.48,3.87C93.57,189.4,93.32,189.6,93.05,189.6z"/>
					<path class="st3" d="M106.67,189.6h-9.32c-0.27,0-0.47-0.2-0.44-0.45l0.45-3.87c0.03-0.24,0.27-0.44,0.54-0.44h9.22
						c0.27,0,0.47,0.2,0.45,0.44l-0.36,3.87C107.19,189.4,106.95,189.6,106.67,189.6z"/>
					<path class="st3" d="M120.3,189.6h-9.32c-0.27,0-0.47-0.2-0.45-0.45l0.33-3.87c0.02-0.24,0.26-0.44,0.52-0.44h9.22
						c0.27,0,0.47,0.2,0.46,0.44l-0.25,3.87C120.8,189.4,120.57,189.6,120.3,189.6z"/>
					<path class="st3" d="M133.92,189.6h-9.32c-0.27,0-0.48-0.2-0.47-0.45l0.22-3.87c0.01-0.24,0.24-0.44,0.51-0.44h9.22
						c0.27,0,0.48,0.2,0.47,0.44l-0.13,3.87C134.42,189.4,134.2,189.6,133.92,189.6z"/>
					<path class="st3" d="M147.55,189.6h-9.32c-0.27,0-0.49-0.2-0.48-0.45l0.1-3.87c0.01-0.24,0.23-0.44,0.5-0.44h9.22
						c0.27,0,0.49,0.2,0.49,0.44l-0.01,3.87C148.04,189.4,147.82,189.6,147.55,189.6z"/>
					<path class="st3" d="M161.17,189.6h-9.32c-0.27,0-0.49-0.2-0.49-0.45l-0.01-3.87c0-0.24,0.22-0.44,0.49-0.44h9.22
						c0.27,0,0.49,0.2,0.5,0.44l0.1,3.87C161.66,189.4,161.44,189.6,161.17,189.6z"/>
					<path class="st3" d="M174.8,189.6h-9.32c-0.27,0-0.5-0.2-0.51-0.45l-0.13-3.87c-0.01-0.24,0.2-0.44,0.47-0.44h9.22
						c0.27,0,0.5,0.2,0.51,0.44l0.22,3.87C175.28,189.4,175.07,189.6,174.8,189.6z"/>
					<path class="st3" d="M188.42,189.6h-9.32c-0.27,0-0.5-0.2-0.52-0.45l-0.25-3.87c-0.02-0.24,0.19-0.44,0.46-0.44h9.22
						c0.27,0,0.5,0.2,0.52,0.44l0.33,3.87C188.9,189.4,188.69,189.6,188.42,189.6z"/>
					<path class="st3" d="M202.05,189.6h-9.32c-0.27,0-0.51-0.2-0.53-0.45l-0.36-3.87c-0.02-0.24,0.18-0.44,0.45-0.44h9.22
						c0.27,0,0.51,0.2,0.54,0.44l0.45,3.87C202.52,189.4,202.32,189.6,202.05,189.6z"/>
					<path class="st3" d="M229.3,189.6h-22.94c-0.27,0-0.52-0.2-0.55-0.45l-0.48-3.87c-0.03-0.24,0.16-0.44,0.43-0.44h22.7
						c0.27,0,0.52,0.2,0.56,0.44l0.68,3.87C229.75,189.4,229.57,189.6,229.3,189.6z"/>
					<path class="st3" d="M106.05,196.15H68.96c-0.28,0-0.46-0.21-0.42-0.46l0.7-3.98c0.04-0.25,0.3-0.45,0.57-0.45h36.7
						c0.27,0,0.47,0.2,0.45,0.45l-0.37,3.98C106.57,195.95,106.33,196.15,106.05,196.15z"/>
					<path class="st3" d="M119.88,196.15h-9.45c-0.28,0-0.48-0.21-0.46-0.46l0.34-3.98c0.02-0.25,0.26-0.45,0.53-0.45h9.35
						c0.27,0,0.48,0.2,0.46,0.45l-0.25,3.98C120.39,195.95,120.15,196.15,119.88,196.15z"/>
					<path class="st3" d="M133.7,196.15h-9.45c-0.28,0-0.49-0.21-0.47-0.46l0.22-3.98c0.01-0.25,0.25-0.45,0.52-0.45h9.35
						c0.27,0,0.49,0.2,0.48,0.45l-0.13,3.98C134.2,195.95,133.97,196.15,133.7,196.15z"/>
					<path class="st3" d="M147.52,196.15h-9.45c-0.28,0-0.49-0.21-0.49-0.46l0.1-3.98c0.01-0.25,0.23-0.45,0.51-0.45h9.35
						c0.27,0,0.49,0.2,0.49,0.45l-0.01,3.98C148.02,195.95,147.79,196.15,147.52,196.15z"/>
					<path class="st3" d="M161.34,196.15h-9.45c-0.28,0-0.5-0.21-0.5-0.46l-0.01-3.98c0-0.25,0.22-0.45,0.49-0.45h9.35
						c0.27,0,0.5,0.2,0.51,0.45l0.1,3.98C161.83,195.95,161.61,196.15,161.34,196.15z"/>
					<path class="st3" d="M175.16,196.15h-9.45c-0.28,0-0.51-0.21-0.51-0.46l-0.13-3.98c-0.01-0.25,0.21-0.45,0.48-0.45h9.35
						c0.27,0,0.5,0.2,0.52,0.45l0.22,3.98C175.65,195.95,175.43,196.15,175.16,196.15z"/>
					<path class="st3" d="M188.98,196.15h-9.45c-0.28,0-0.51-0.21-0.53-0.46l-0.25-3.98c-0.02-0.25,0.19-0.45,0.46-0.45h9.35
						c0.27,0,0.51,0.2,0.53,0.45l0.34,3.98C189.46,195.95,189.26,196.15,188.98,196.15z"/>
					<path class="st3" d="M230.44,196.15h-36.4c-0.28,0-0.52-0.21-0.54-0.46l-0.38-3.98c-0.02-0.25,0.18-0.45,0.45-0.45h36.02
						c0.27,0,0.53,0.2,0.57,0.45l0.7,3.98C230.91,195.95,230.72,196.15,230.44,196.15z"/>
					<path class="st3" d="M77.37,202.9h-9.59c-0.28,0-0.47-0.21-0.42-0.47l0.72-4.1c0.05-0.26,0.31-0.46,0.58-0.46h9.49
						c0.28,0,0.47,0.21,0.43,0.46l-0.63,4.1C77.91,202.69,77.65,202.9,77.37,202.9z"/>
					<path class="st3" d="M91.39,202.9H81.8c-0.28,0-0.48-0.21-0.44-0.47l0.6-4.1c0.04-0.26,0.29-0.46,0.57-0.46h9.49
						c0.28,0,0.48,0.21,0.44,0.46l-0.51,4.1C91.93,202.69,91.67,202.9,91.39,202.9z"/>
					<path class="st3" d="M105.42,202.9h-9.59c-0.28,0-0.48-0.21-0.45-0.47l0.48-4.1c0.03-0.26,0.28-0.46,0.55-0.46h9.49
						c0.28,0,0.48,0.21,0.46,0.46l-0.38,4.1C105.94,202.69,105.7,202.9,105.42,202.9z"/>
					<path class="st3" d="M119.44,202.9h-9.59c-0.28,0-0.49-0.21-0.47-0.47l0.35-4.1c0.02-0.26,0.26-0.46,0.54-0.46h9.49
						c0.28,0,0.49,0.21,0.47,0.46l-0.26,4.1C119.96,202.69,119.72,202.9,119.44,202.9z"/>
					<path class="st3" d="M175.53,202.9h-51.66c-0.28,0-0.49-0.21-0.48-0.47l0.23-4.1c0.01-0.26,0.25-0.46,0.53-0.46h51.1
						c0.28,0,0.51,0.21,0.53,0.46l0.23,4.1C176.03,202.69,175.81,202.9,175.53,202.9z"/>
					<path class="st3" d="M189.55,202.9h-9.59c-0.28,0-0.52-0.21-0.54-0.47l-0.26-4.1c-0.02-0.26,0.19-0.46,0.47-0.46h9.49
						c0.28,0,0.52,0.21,0.54,0.46l0.35,4.1C190.04,202.69,189.83,202.9,189.55,202.9z"/>
					<path class="st3" d="M203.58,202.9h-9.59c-0.28,0-0.53-0.21-0.55-0.47l-0.38-4.1c-0.02-0.26,0.18-0.46,0.46-0.46H203
						c0.28,0,0.52,0.21,0.55,0.46l0.48,4.1C204.06,202.69,203.86,202.9,203.58,202.9z"/>
					<path class="st3" d="M217.6,202.9h-9.59c-0.28,0-0.53-0.21-0.56-0.47l-0.51-4.1c-0.03-0.26,0.17-0.46,0.44-0.46h9.49
						c0.28,0,0.53,0.21,0.57,0.46l0.6,4.1C218.08,202.69,217.88,202.9,217.6,202.9z"/>
					<path class="st3" d="M231.62,202.9h-9.59c-0.28,0-0.54-0.21-0.58-0.47l-0.63-4.1c-0.04-0.26,0.15-0.46,0.43-0.46h9.49
						c0.28,0,0.54,0.21,0.58,0.46l0.72,4.1C232.09,202.69,231.9,202.9,231.62,202.9z"/>
				</g>
			</g>
			<g>
				<path class="st1" d="M180.79,230.74h-62.18c-2.19,0-3.85-1.76-3.69-3.91l1.08-15.25c0.14-2.01,1.95-3.62,4.04-3.62h59.33
					c2.09,0,3.9,1.61,4.04,3.62l1.08,15.25C184.64,228.98,182.99,230.74,180.79,230.74z"/>
				<path class="st3" d="M116.77,226.35l-0.16,2.37c-0.04,0.56,0.76,1.01,1.79,1.01H181c1.03,0,1.83-0.45,1.79-1.01l-0.16-2.37
					H116.77z"/>
			</g>
		</g>
	</g>
	<g>
		<g>
			<path class="st2" d="M230.67,170.03H68.73c-6.83,0-12.36-5.53-12.36-12.36V65.36c0-6.83,5.53-12.36,12.36-12.36h161.94
				c6.83,0,12.36,5.53,12.36,12.36v92.31C243.03,164.5,237.5,170.03,230.67,170.03z"/>
			<path class="st4" d="M233.06,163.92H66.35c-2.2,0-3.99-1.79-3.99-3.99V63.1c0-2.2,1.79-3.99,3.99-3.99h166.71
				c2.2,0,3.99,1.79,3.99,3.99v96.83C237.05,162.14,235.26,163.92,233.06,163.92z"/>
		</g>
		<g>
			<g>
				<g>
					<g>
						<rect x="67.05" y="67.67" class="st3" width="34.1" height="21.53"/>
						<polygon class="st5" points="88.71,78.44 84.78,80.7 80.86,82.96 80.86,78.44 80.86,73.91 84.78,76.17 						"/>
					</g>
					<rect x="67.05" y="90.55" class="st5" width="34.1" height="1.08"/>
				</g>
				<g>
					<g>
						<rect x="67.05" y="96.42" class="st3" width="34.1" height="21.53"/>
						<polygon class="st5" points="88.71,107.18 84.78,109.45 80.86,111.71 80.86,107.18 80.86,102.65 84.78,104.92 						"/>
					</g>
					<rect x="67.05" y="119.3" class="st5" width="34.1" height="1.08"/>
				</g>
				<g>
					<g>
						<rect x="67.05" y="125.16" class="st3" width="34.1" height="21.53"/>
						<polygon class="st5" points="88.71,135.93 84.78,138.19 80.86,140.45 80.86,135.93 80.86,131.4 84.78,133.66 						"/>
					</g>
					<rect x="67.05" y="148.04" class="st5" width="34.1" height="1.08"/>
				</g>
				<g>
					<g>
						<rect x="67.05" y="153.91" class="st3" width="34.1" height="2.99"/>
					</g>
				</g>
			</g>
			<g>
				<g>
					<rect x="106.22" y="67.67" class="st3" width="122.71" height="89.23"/>
					<path class="st6" d="M143.44,143.87c-4.95,0.54-10.1,1.22-14.85-0.64c-6.11-2.4-10.1-8.71-11.07-15.2
						c-1.7-11.44,3.73-24.03,11.38-32.33c5.12-5.56,12.35-9.95,19.86-9.12c6.41,0.71,11.98,5.05,18.38,5.77
						c11.58,1.31,22.22-9.39,33.7-7.38c7.34,1.28,12.91,7.65,15.6,14.59c5.02,12.94,2.12,29.21-7.86,39.04
						c-5.75,5.66-13.84,8.88-21.89,8.86c-4.1-0.01-8.27-1.55-12.32-2.2c-4.4-0.71-8.83-1.2-13.27-1.47
						c-5.49-0.34-11.05-0.59-16.52-0.03C144.2,143.78,143.82,143.83,143.44,143.87z"/>
				</g>
				<g>
					<g>
						<g>
							<path class="st7" d="M159.45,90.15c0,0-3.39-9.38,0.86-10.83c0,0,2.63-4.96,9.91-4.96c7.28,0,8.47,5.29,8.47,5.29
								s4.08-0.25,0.59,10.5H159.45z"/>
							<g>
								<g>
									<path class="st8" d="M172.51,106.09c-0.01-1.51,0.26-3.01,0.78-4.43c0.26-0.71,0.58-1.4,1.02-2.02
										c0.76-1.09,1.84-1.92,2.59-3.02c0.55-0.81,0.89-1.74,1.18-2.68c0.95-3.13,1.29-6.44,0.97-9.69c0-3.36-19.12-3.36-19.12,0
										c-0.31,3.25,0.02,6.57,0.97,9.69c0.29,0.94,0.63,1.86,1.18,2.68c0.74,1.1,1.82,1.94,2.59,3.02
										c0.43,0.62,0.76,1.31,1.02,2.02c0.52,1.42,0.78,2.92,0.78,4.43c0,0-5.02,5.72-5.02,10.29s16.3,5.22,16.3,0
										C177.73,111.16,172.51,106.09,172.51,106.09z"/>
									<path class="st9" d="M170.04,100.88c-0.17,0-0.35-0.01-0.52-0.02c-0.1-0.01-0.17-0.09-0.16-0.19
										c0.01-0.1,0.08-0.17,0.19-0.16c1.44,0.11,2.9-0.27,4.1-1.06c0.08-0.05,0.19-0.03,0.24,0.05c0.05,0.08,0.03,0.19-0.05,0.24
										C172.72,100.49,171.39,100.88,170.04,100.88z"/>
								</g>
								<g>
									<g>
										<path class="st7" d="M166.98,89.27c0,0.65-0.29,1.18-0.65,1.18c-0.36,0-0.65-0.53-0.65-1.18c0-0.65,0.29-1.18,0.65-1.18
											C166.69,88.09,166.98,88.62,166.98,89.27z"/>
										<path class="st4" d="M166.37,88.81c0,0.22-0.1,0.39-0.22,0.39c-0.12,0-0.22-0.18-0.22-0.39c0-0.22,0.1-0.39,0.22-0.39
											C166.27,88.41,166.37,88.59,166.37,88.81z"/>
									</g>
									<g>
										<path class="st7" d="M173.27,89.27c0,0.65-0.29,1.18-0.65,1.18c-0.36,0-0.65-0.53-0.65-1.18c0-0.65,0.29-1.18,0.65-1.18
											C172.98,88.09,173.27,88.62,173.27,89.27z"/>
										<path class="st4" d="M172.66,88.81c0,0.22-0.1,0.39-0.22,0.39c-0.12,0-0.22-0.18-0.22-0.39c0-0.22,0.1-0.39,0.22-0.39
											C172.56,88.41,172.66,88.59,172.66,88.81z"/>
									</g>
									<path class="st9" d="M169.42,92.41c-0.06,0-0.12-0.03-0.15-0.09c-0.05-0.08-0.02-0.19,0.07-0.24
										c0.17-0.1,0.28-0.19,0.35-0.29c0.08-0.11,0.1-0.25,0.06-0.35c-0.03-0.09-0.15-0.15-0.21-0.13
										c-0.09,0.03-0.19-0.02-0.22-0.11c-0.03-0.09,0.02-0.19,0.11-0.22c0.25-0.08,0.55,0.07,0.65,0.33
										c0.08,0.21,0.04,0.47-0.1,0.68c-0.13,0.19-0.32,0.31-0.47,0.4C169.48,92.4,169.45,92.41,169.42,92.41z"/>
									<g>
										<path class="st10" d="M172.01,94.01c0,0.31-0.35,0.79-0.91,1.15c-0.44,0.29-1,0.5-1.62,0.5c-0.73,0-1.4-0.31-1.85-0.67
											c-0.42-0.33-0.67-0.72-0.67-0.98c0-0.18,0.13-0.29,0.34-0.34c0.44-0.11,1.25-0.02,2.18-0.02c1.01,0,1.88-0.1,2.28,0.05
											C171.92,93.75,172.01,93.85,172.01,94.01z"/>
										<path class="st4" d="M171.76,93.7c-0.04,0.03-0.08,0.06-0.11,0.08c-1.27,0.76-2.92,0.76-4.2,0.01
											c-0.06-0.03-0.11-0.07-0.16-0.12c0.44-0.11,1.25-0.02,2.18-0.02C170.48,93.65,171.35,93.55,171.76,93.7z"/>
										<path class="st11" d="M171.1,95.16c-0.44,0.29-1,0.5-1.62,0.5c-0.73,0-1.4-0.31-1.85-0.67
											C168.77,94.67,169.99,94.75,171.1,95.16z"/>
									</g>
									<path class="st12" d="M167.09,91.58c-0.06-0.1-0.16-0.2-0.28-0.22c-0.45-0.08-0.9-0.07-1.35,0.04
										c-0.24,0.06-0.4,0.34-0.33,0.58c0.08,0.25,0.32,0.39,0.58,0.33c0.07-0.02,0.14-0.03,0.22-0.04c0.21-0.02,0.42-0.02,0.63,0
										c0,0,0.01,0,0.01,0c0.13,0.02,0.25,0.02,0.36-0.05c0.1-0.06,0.19-0.17,0.22-0.28C167.17,91.83,167.16,91.69,167.09,91.58z"
										/>
									<path class="st12" d="M171.87,91.58c0.06-0.1,0.16-0.2,0.28-0.22c0.45-0.08,0.9-0.07,1.35,0.04
										c0.24,0.06,0.4,0.34,0.33,0.58c-0.08,0.25-0.32,0.39-0.58,0.33c-0.07-0.02-0.14-0.03-0.22-0.04
										c-0.21-0.02-0.42-0.02-0.63,0c0,0-0.01,0-0.01,0c-0.13,0.02-0.25,0.02-0.36-0.05c-0.1-0.06-0.19-0.17-0.22-0.28
										C171.79,91.83,171.8,91.69,171.87,91.58z"/>
									<path class="st7" d="M166.99,87.25c-0.09-0.08-0.25-0.16-0.39-0.21c-0.15-0.05-0.3-0.08-0.46-0.09
										c-0.16,0-0.32,0.01-0.47,0.06c-0.16,0.04-0.31,0.11-0.46,0.18l-0.01,0.01c-0.09,0.04-0.19,0.01-0.24-0.08
										c-0.04-0.08-0.01-0.18,0.07-0.23c0.16-0.1,0.33-0.2,0.52-0.26c0.18-0.07,0.39-0.1,0.59-0.12c0.2-0.01,0.41,0.01,0.61,0.06
										c0.2,0.06,0.38,0.12,0.58,0.26c0.12,0.08,0.15,0.25,0.07,0.37c-0.08,0.12-0.25,0.15-0.37,0.07c-0.01,0-0.01-0.01-0.02-0.01
										L166.99,87.25z"/>
									<path class="st7" d="M171.57,86.84c0.2-0.14,0.38-0.21,0.58-0.26c0.2-0.05,0.4-0.08,0.61-0.06c0.2,0.01,0.4,0.05,0.59,0.12
										c0.19,0.06,0.36,0.16,0.52,0.26c0.08,0.05,0.11,0.16,0.06,0.24c-0.05,0.08-0.15,0.11-0.23,0.07l-0.01-0.01
										c-0.15-0.08-0.3-0.14-0.46-0.18c-0.16-0.05-0.32-0.06-0.47-0.06c-0.16,0-0.31,0.04-0.46,0.09
										c-0.14,0.05-0.3,0.13-0.39,0.21l-0.01,0.01c-0.11,0.09-0.28,0.08-0.37-0.03c-0.09-0.11-0.08-0.28,0.03-0.37
										C171.55,86.85,171.56,86.84,171.57,86.84z"/>
								</g>
							</g>
							<path class="st7" d="M161.28,91.68c0,0,1.78-2.56,1.4-6.77c0,0,0.49,1.32,2.32,1.4c0,0-0.62-0.7-0.49-1.7
								c0,0,4.53,2.43,11.52,0.46c0,0-0.27,4.11,2.02,6.45l1.21-1.15V83.1c0,0-3.29-1.81-9.8-1.81s-10.03,1.73-10.03,1.73
								s0.15,6.77,0.36,7.42C160.01,91.1,161.28,91.68,161.28,91.68z"/>
							<g>
								<path class="st8" d="M162.02,94.43c-0.78,0.92-2.57,0.7-3.99-0.5c-1.42-1.2-1.94-2.93-1.16-3.85
									c0.78-0.92,2.57-0.7,3.99,0.5C162.28,91.78,162.8,93.5,162.02,94.43z"/>
								<g>
									<path class="st9" d="M160.33,94.14c-0.03,0-0.06,0-0.09-0.01c-0.1-0.01-0.16-0.1-0.15-0.2c0.01-0.1,0.1-0.16,0.2-0.15
										c0.13,0.02,0.29-0.06,0.39-0.19c0.09-0.12,0.15-0.29,0.17-0.51c0.07-0.63-0.17-1.31-0.62-1.76
										c-0.45-0.45-1.13-0.68-1.76-0.61c-0.09,0.01-0.18-0.06-0.2-0.15c-0.01-0.1,0.06-0.18,0.15-0.2
										c0.75-0.09,1.52,0.18,2.05,0.71c0.54,0.53,0.81,1.29,0.72,2.04c-0.03,0.29-0.11,0.51-0.24,0.69
										C160.81,94.01,160.57,94.14,160.33,94.14z"/>
									<path class="st9" d="M159.01,93.03c-0.02,0-0.05-0.01-0.07-0.02c-0.09-0.04-0.13-0.15-0.09-0.23
										c0.33-0.71,1.01-1.24,1.79-1.37c0.1-0.01,0.19,0.05,0.2,0.14c0.02,0.1-0.05,0.19-0.14,0.2c-0.66,0.11-1.25,0.56-1.53,1.17
										C159.14,93,159.07,93.03,159.01,93.03z"/>
								</g>
							</g>
							<g>
								
									<ellipse transform="matrix(0.7633 -0.646 0.646 0.7633 -17.1091 137.8003)" class="st8" cx="179.51" cy="92.25" rx="3.37" ry="2.19"/>
								<g>
									<path class="st9" d="M178.63,94.14c-0.23,0-0.47-0.12-0.63-0.33c-0.13-0.18-0.21-0.4-0.24-0.69
										c-0.08-0.75,0.19-1.51,0.72-2.04c0.54-0.53,1.3-0.8,2.05-0.71c0.1,0.01,0.17,0.1,0.15,0.2c-0.01,0.1-0.1,0.16-0.2,0.15
										c-0.63-0.08-1.31,0.16-1.76,0.61c-0.45,0.45-0.69,1.12-0.62,1.76c0.02,0.22,0.08,0.39,0.17,0.51
										c0.1,0.13,0.26,0.21,0.39,0.19c0.1-0.01,0.19,0.05,0.2,0.15c0.01,0.1-0.05,0.19-0.15,0.2
										C178.69,94.14,178.66,94.14,178.63,94.14z"/>
									<path class="st9" d="M179.95,93.03c-0.07,0-0.13-0.04-0.16-0.1c-0.28-0.61-0.87-1.06-1.53-1.17
										c-0.1-0.02-0.16-0.11-0.14-0.2c0.02-0.1,0.1-0.16,0.2-0.14c0.77,0.13,1.46,0.66,1.79,1.37c0.04,0.09,0,0.19-0.09,0.23
										C180,93.03,179.97,93.03,179.95,93.03z"/>
								</g>
							</g>
						</g>
						<g>
							<g>
								<g>
									<g>
										<path class="st13" d="M185.78,156.9h-32.6c0,0,1.1-44.76,3.45-46.79c1.56-1.35,5.38-2.67,7.77-3.42
											c1.21-0.37,2.05-0.6,2.05-0.6c0.95,2.37,3.03,2.16,3.03,2.16s2.08,0.21,3.03-2.16c0,0,0.8,0.22,1.97,0.57
											c2.38,0.73,6.27,2.08,7.86,3.44C184.68,112.13,185.78,156.9,185.78,156.9z"/>
										<path class="st14" d="M174.48,106.66c-0.47,1.44-1.77,4.04-5,4.04c-3.62,0-4.77-2.92-5.08-4.01
											c1.21-0.37,2.05-0.6,2.05-0.6c0.95,2.37,3.03,2.16,3.03,2.16s2.08,0.21,3.03-2.16
											C172.51,106.09,173.31,106.31,174.48,106.66z"/>
									</g>
									<path class="st13" d="M181.38,122.65l2.03,3.09l6.77-4.49c0,0-4.51-7.88-7.78-11.07L181.38,122.65z"/>
									<path class="st13" d="M157.58,122.65l-2.03,3.09l-6.77-4.49c0,0,4.51-7.88,7.78-11.07L157.58,122.65z"/>
								</g>
								<g>
									<path class="st15" d="M155.04,124.13c0,0-0.01,0-0.02,0c-0.1-0.01-0.17-0.09-0.16-0.19c0.1-1.2,0.35-2.4,0.72-3.55
										c0.03-0.09,0.13-0.14,0.22-0.11c0.09,0.03,0.14,0.13,0.11,0.22c-0.37,1.12-0.61,2.29-0.71,3.46
										C155.21,124.06,155.13,124.13,155.04,124.13z"/>
									<path class="st15" d="M183.12,124.29c-0.06,0-0.13-0.04-0.16-0.1c-0.58-1.17-1.22-2.32-1.91-3.44
										c-0.05-0.08-0.02-0.19,0.06-0.24c0.08-0.05,0.19-0.03,0.24,0.06c0.69,1.12,1.33,2.29,1.92,3.46
										c0.04,0.09,0.01,0.19-0.08,0.24C183.17,124.29,183.14,124.29,183.12,124.29z"/>
								</g>
							</g>
							<g>
								<g>
									<g>
										<path class="st2" d="M168.48,115.23l3.72,12.67c0.07,0.25-0.07,0.51-0.32,0.58c-0.24,0.07-0.49-0.06-0.58-0.3l-4.35-12.46
											c-0.15-0.42,0.07-0.88,0.5-1.03c0.42-0.15,0.88,0.07,1.03,0.5C168.47,115.2,168.48,115.22,168.48,115.23z"/>
										<path class="st8" d="M170.65,124.65c0,0-1.61,4.67-4.63,3.28c-1.53-0.71-1.57-2.77-1.42-4.2
											c0.09-0.87,0.27-1.73,0.52-2.57c0.2-0.68,0.33-1.69,0.98-2.12c0.49-0.33,1.26-0.45,1.82-0.6
											c0.48-0.12,3.11-0.91,3.33-0.08c0.24,0.91-1.24,0.98-1.24,0.98s1.04,0.08,1.23,0.79c0.19,0.71,0.9,3.8,0.75,4.24
											C171.83,124.81,170.65,124.65,170.65,124.65z"/>
									</g>
									<path class="st8" d="M154.96,125.35l-3.5,7.35l14.59-9.05l2.34,4.18c0,0-17.7,14.79-22.23,11.67
										c-4.48-3.08,3.41-17.73,3.41-17.73L154.96,125.35z"/>
								</g>
								<g>
									<path class="st16" d="M168.61,141.53L168.61,141.53c-6.35-0.56-11.04-6.16-10.48-12.5l0.26-2.99
										c7.93-0.09,15.61,0.53,22.98,2.02l-0.26,2.99C180.56,137.4,174.96,142.09,168.61,141.53z"/>
									<g>
										<path class="st8" d="M184,125.35l3.23,7.81l-15.73-2.8l-1.03,4.87c0,0,17.64,6.79,22.18,3.67
											c4.48-3.08-3.26-17.14-3.26-17.14L184,125.35z"/>
										<path class="st8" d="M169.06,129.64c0,0-8.58-2.61-8.89-1.75c-0.31,0.86,4.14,2.18,4.14,2.18s-5.12,0.64-5.09,1.26
											c0.03,0.62,4.51,0.61,4.51,0.61s-3.44,2.18-3.35,2.75c0.1,0.57,3.47-1.08,3.47-1.08s-2.18,2.74-1.86,3.29
											c0.31,0.55,2.9-2.33,2.9-2.33s3.32,2.91,6.49,0.79c3.17-2.12-0.53-6.91-0.4-7.74s0.15-1.49-0.55-1.57
											C169.72,125.96,168.38,126.47,169.06,129.64z"/>
									</g>
								</g>
							</g>
						</g>
					</g>
					<g>
						<path class="st4" d="M205.59,76.98c-10.47,0-18.95,5.9-18.95,13.17c0,3.35,1.8,6.4,4.76,8.72c-0.96,1.1-2.72,2.68-5.09,3.06
							c0,0,4.57,1.09,8.05-1.18c3.15,1.61,7.03,2.57,11.24,2.57c10.47,0,18.95-5.9,18.95-13.17
							C224.54,82.88,216.06,76.98,205.59,76.98z"/>
						<g>
							<path class="st14" d="M200.12,89.88l2.01,6.29c0,0,3.61,1.18,7.21,0l1.14-6.79L200.12,89.88z"/>
							<path class="st5" d="M199.47,89.75c-0.34-0.36-0.5-0.89-0.41-1.38c0.09-0.49,0.42-0.93,0.86-1.16
								c-0.24-0.44-0.14-0.96,0.08-1.4c0.22-0.44,0.67-0.76,1.16-0.83c-0.17-1.05,0.52-2.14,1.48-2.58
								c0.96-0.44,2.21-0.16,2.89,0.66c0.65-0.26,1.29-0.44,1.99-0.41c0.7,0.03,1.43,0.43,1.61,1.11c0.55,0.01,1.12,0.28,1.46,0.72
								c0.34,0.43,0.47,1.02,0.36,1.56c0.77,0.55,1.07,1.74,0.68,2.6c-0.21,0.46-0.3,1.05-0.74,1.3c-0.44,0.25-1.02,0.24-1.45-0.03
								c-0.29,0.33-0.78,0.47-1.22,0.48c-0.44,0.01-0.88-0.17-1.19-0.49c-0.26,0.69-1.01,1.12-1.75,1.22
								c-0.73,0.1-1.51-0.23-1.95-0.82c-0.81,0.73-2.26,0.67-3.07-0.06C199.96,90.48,199.75,90.05,199.47,89.75z"/>
						</g>
					</g>
				</g>
				<g>
					<g>
						<path class="st2" d="M120.27,93.78h-6.82c-0.26,0-0.47-0.21-0.47-0.47v-6.82c0-0.26,0.21-0.47,0.47-0.47h6.82
							c0.26,0,0.47,0.21,0.47,0.47v6.82C120.74,93.57,120.53,93.78,120.27,93.78z M113.93,92.84h5.88v-5.88h-5.88V92.84z"/>
						<g>
							<path class="st2" d="M144.82,86.96h-21.3c-0.26,0-0.47-0.21-0.47-0.47c0-0.26,0.21-0.47,0.47-0.47h21.3
								c0.26,0,0.47,0.21,0.47,0.47C145.29,86.75,145.08,86.96,144.82,86.96z"/>
							<path class="st2" d="M137.85,90.37h-14.32c-0.26,0-0.47-0.21-0.47-0.47c0-0.26,0.21-0.47,0.47-0.47h14.32
								c0.26,0,0.47,0.21,0.47,0.47C138.32,90.16,138.11,90.37,137.85,90.37z"/>
						</g>
					</g>
					<g>
						<path class="st2" d="M120.27,105.35h-6.82c-0.26,0-0.47-0.21-0.47-0.47v-6.82c0-0.26,0.21-0.47,0.47-0.47h6.82
							c0.26,0,0.47,0.21,0.47,0.47v6.82C120.74,105.13,120.53,105.35,120.27,105.35z M113.93,104.4h5.88v-5.88h-5.88V104.4z"/>
						<g>
							<path class="st2" d="M144.82,98.53h-21.3c-0.26,0-0.47-0.21-0.47-0.47c0-0.26,0.21-0.47,0.47-0.47h21.3
								c0.26,0,0.47,0.21,0.47,0.47C145.29,98.32,145.08,98.53,144.82,98.53z"/>
							<path class="st2" d="M137.85,101.94h-14.32c-0.26,0-0.47-0.21-0.47-0.47c0-0.26,0.21-0.47,0.47-0.47h14.32
								c0.26,0,0.47,0.21,0.47,0.47C138.32,101.73,138.11,101.94,137.85,101.94z"/>
						</g>
					</g>
					<g>
						<g>
							<path class="st2" d="M120.27,82.21h-6.82c-0.26,0-0.47-0.21-0.47-0.47v-6.82c0-0.26,0.21-0.47,0.47-0.47h6.82
								c0.26,0,0.47,0.21,0.47,0.47v6.82C120.74,82,120.53,82.21,120.27,82.21z M113.93,81.27h5.88v-5.88h-5.88V81.27z"/>
							<g>
								<path class="st2" d="M144.82,75.39h-21.3c-0.26,0-0.47-0.21-0.47-0.47c0-0.26,0.21-0.47,0.47-0.47h21.3
									c0.26,0,0.47,0.21,0.47,0.47C145.29,75.18,145.08,75.39,144.82,75.39z"/>
								<path class="st2" d="M137.85,78.8h-14.32c-0.26,0-0.47-0.21-0.47-0.47c0-0.26,0.21-0.47,0.47-0.47h14.32
									c0.26,0,0.47,0.21,0.47,0.47C138.32,78.59,138.11,78.8,137.85,78.8z"/>
							</g>
						</g>
						<path class="st5" d="M122.75,72.24c-0.14-0.16-0.37-0.17-0.53-0.04l-5.82,5.03l-3.08-2.44c-0.16-0.12-0.38-0.13-0.55,0
							c-0.19,0.15-0.22,0.43-0.07,0.62l3.02,3.81c0.03,0.04,0.07,0.08,0.12,0.12c0.37,0.32,0.94,0.28,1.27-0.09l0.03-0.03l5.62-6.49
							C122.88,72.59,122.88,72.38,122.75,72.24z"/>
					</g>
				</g>
				<g>
					<g>
						<rect x="121.59" y="151.58" class="st5" width="101.73" height="1.15"/>
						<rect x="171.03" y="151.58" class="st4" width="52.29" height="1.15"/>
					</g>
					<g>
						<polygon class="st5" points="118.39,152.16 116.88,153.03 115.37,153.9 115.37,152.16 115.37,150.41 116.88,151.28 						"/>
						<g>
							<rect x="111.96" y="150.41" class="st5" width="0.85" height="3.49"/>
							<rect x="110.29" y="150.41" class="st5" width="0.85" height="3.49"/>
						</g>
					</g>
				</g>
			</g>
		</g>
	</g>
</g>
</svg>
