<?xml version="1.0" encoding="utf-8"?>
<!-- Generator: Adobe Illustrator 24.0.2, SVG Export Plug-In . SVG Version: 6.00 Build 0)  -->
<svg version="1.1" id="Layer_1" xmlns="http://www.w3.org/2000/svg" xmlns:xlink="http://www.w3.org/1999/xlink" x="0px" y="0px"
	 viewBox="0 0 400 400" style="enable-background:new 0 0 400 400;" xml:space="preserve">
<style type="text/css">
	.st0{fill:#FAD3D6;}
	.st1{fill:#143156;}
	.st2{fill:#1B4074;}
	.st3{fill:#F8AC8C;}
	.st4{fill:#CE7F62;}
	.st5{fill:#FFFFFF;}
	.st6{fill:#F38072;}
	.st7{fill:#F16456;}
</style>
<path class="st0" d="M225.15,379.47c-111.29,25.91-217.9-44.6-208.91-135.5c6.97-70.5,96.44-25.24,119.77-87.43
	c35.9-95.68,140.71-169.67,196.26-107.09c55.54,62.58,59.76,191.66,38.55,228.97C322.3,363.78,225.15,379.47,225.15,379.47z"/>
<g>
	<g>
		<g>
			<g>
				<path class="st1" d="M214.27,176.81c0,0-44.83,52.41-44.39,64.73c0.43,12.32,47.43,53.43,47.43,53.43l8.56-10.34l-31.7-43.08
					c0,0,39.66-37.49,50.99-64.73H214.27z"/>
				<path d="M225.88,284.63l9.91,9.01l-5.2,6.83l-3.22-2.64c0,0,1.06,5.08-1.76,8.84c-2.82,3.76-9.56,10.66-9.56,10.66
					s-6.41-5.8-1.66-12.49c4.75-6.69,2.92-9.86,2.92-9.86L225.88,284.63z"/>
			</g>
			<g>
				<path d="M271.26,307.31l6.93,11.46l-6.93,5.06l-2.33-3.45c0,0-0.43,5.17-4.2,7.97c-3.77,2.8-12.21,7.49-12.21,7.49
					s-4.49-7.39,1.97-12.45c6.46-5.06,5.61-8.62,5.61-8.62L271.26,307.31z"/>
				<g>
					<path class="st2" d="M222.75,174.27c0,0-10.09,56.7-7.74,70.6c2.35,13.91,45.09,69.91,45.09,69.91l11.15-7.47l-29.68-65.77
						c0,0,14.26-53.64,15.45-65.77L222.75,174.27z"/>
					<path class="st1" d="M264.9,308.11l-25.96-45.36c-4.63-8.08-9.87-17.25-10.64-27.29c-0.56-7.36,1.3-14.61,3.43-22.01
						c2.58-8.99,5.42-18.03,8.44-26.87l0.89,0.3c-3.01,8.83-5.85,17.85-8.43,26.83c-2.1,7.31-3.94,14.48-3.4,21.68
						c0.75,9.83,5.94,18.9,10.51,26.9l25.96,45.36L264.9,308.11z"/>
				</g>
			</g>
		</g>
		<g>
			<g>
				<path class="st2" d="M199.75,77.94c0,3.72,3.87,6.73,6.4,6.73c2.53,0,4.58-3.01,4.58-6.73s-2.05-6.73-4.58-6.73
					C203.63,71.21,199.75,74.22,199.75,77.94z"/>
				<g>
					<path d="M239.82,75.82c0,0,6.42-7.27,5.23-14.48c-0.99-6.06-7.27-5.84-7.27-5.84s-6.13-11.74-24.29-7.85
						s-11.58,24.69-7.71,27.99L239.82,75.82z"/>
					<g>
						<path class="st3" d="M210.16,87.09c-2.86-2.55-4.42-6.31-5.01-10.1c-0.59-3.79-0.31-7.65-0.02-11.47
							c12.89-5.35,24.59-3.97,35.52,1.78c-5.77,10.02-9.17,21.4-9.83,32.95c0,0,10.44,7.03,10.44,16.44s-33.15,9.55-33.15,0.29
							c0-9.26,10.44-16.95,10.44-16.95c0.43-2.81-0.52-6.25-2.45-8.33C214.39,89.86,212.03,88.76,210.16,87.09z"/>
						<g>
							<path class="st4" d="M214.54,79.67c-0.07,0-0.14-0.02-0.21-0.07c-0.44-0.32-0.8-0.75-1.03-1.25
								c-0.21-0.45-0.22-0.85-0.03-1.16c0.16-0.26,0.46-0.43,0.81-0.47c0.27-0.03,0.52,0.03,0.75,0.07
								c0.19,0.04,0.31,0.23,0.27,0.42c-0.04,0.19-0.23,0.31-0.42,0.27c-0.19-0.04-0.37-0.08-0.53-0.06
								c-0.13,0.01-0.23,0.07-0.28,0.14c-0.06,0.1-0.03,0.28,0.07,0.5c0.18,0.39,0.46,0.73,0.81,0.98c0.16,0.11,0.19,0.33,0.08,0.49
								C214.76,79.62,214.65,79.67,214.54,79.67z"/>
							<path d="M217.22,70.38c0.45-0.37,0.87-0.6,1.37-0.79c0.49-0.18,1.01-0.28,1.54-0.26c0.52,0.02,1.04,0.14,1.5,0.37
								c0.47,0.21,0.86,0.52,1.23,0.83c0.15,0.13,0.16,0.35,0.04,0.5c-0.12,0.14-0.32,0.16-0.47,0.06l-0.02-0.02
								c-0.35-0.25-0.7-0.48-1.09-0.61c-0.38-0.16-0.78-0.2-1.17-0.18c-0.39,0.02-0.78,0.12-1.14,0.29
								c-0.35,0.16-0.72,0.42-0.95,0.66l-0.02,0.02c-0.23,0.23-0.6,0.23-0.83,0s-0.23-0.6,0-0.83
								C217.2,70.41,217.21,70.39,217.22,70.38z"/>
							<path d="M211.67,71.19c-0.18-0.22-0.48-0.47-0.77-0.63c-0.29-0.17-0.61-0.27-0.94-0.29c-0.32-0.01-0.66,0.03-0.98,0.18
								c-0.33,0.13-0.62,0.36-0.91,0.6l-0.02,0.02c-0.15,0.12-0.37,0.1-0.5-0.05c-0.12-0.14-0.1-0.34,0.02-0.47
								c0.3-0.31,0.63-0.61,1.04-0.83c0.39-0.24,0.87-0.36,1.35-0.39c0.48-0.02,0.97,0.09,1.4,0.28c0.44,0.2,0.8,0.43,1.18,0.8
								c0.23,0.23,0.24,0.6,0.01,0.84c-0.23,0.23-0.6,0.24-0.84,0.01c-0.02-0.01-0.03-0.03-0.04-0.05L211.67,71.19z"/>
							<path class="st5" d="M213.78,82.71c0.31,0.69,2.46,1.38,4.33,0.53c1.88-0.85,2.78-2.92,2.46-3.6
								c-0.31-0.69-1.71,0.27-3.59,1.12C215.11,81.61,213.47,82.03,213.78,82.71z"/>
							<path d="M210.13,75.24c-0.64,0-1.37-0.19-2.13-0.76c-0.16-0.12-0.19-0.34-0.07-0.49c0.12-0.16,0.34-0.19,0.49-0.07
								c1.81,1.37,3.39,0.07,3.46,0.01c0.15-0.13,0.37-0.11,0.5,0.04c0.13,0.15,0.11,0.37-0.04,0.5
								C212.32,74.47,211.41,75.24,210.13,75.24z"/>
							<path d="M219.76,75.24c-1.28,0-2.2-0.77-2.21-0.78c-0.15-0.13-0.16-0.35-0.04-0.5c0.13-0.15,0.35-0.17,0.5-0.04
								c0.07,0.06,1.64,1.36,3.46-0.01c0.15-0.12,0.38-0.09,0.49,0.07c0.12,0.16,0.09,0.38-0.07,0.49
								C221.14,75.04,220.4,75.24,219.76,75.24z"/>
						</g>
					</g>
					<path d="M233.51,76.55c0,0-3.42-3.81-2.92-9.55c0,0-2.15,1.65-6.61,1.15c0,0,1.94-0.65,2.51-2.08c0,0-10.8,3.45-21.7,1.15
						v-2.73c0,0,22.63-8.62,36.78,2.59l-3.8,7.68L233.51,76.55z"/>
					<path d="M235.29,82.01c0,0-2.09,8.64-3.38,9.11c-1.29,0.48,0.8-11.46,0.8-11.46L235.29,82.01z"/>
					<g>
						<path class="st3" d="M231.53,82.06c1.33,2.03,4.47,2.33,7.02,0.66c2.55-1.67,3.53-4.67,2.2-6.7
							c-1.33-2.03-4.47-2.33-7.02-0.66C231.18,77.03,230.2,80.03,231.53,82.06z"/>
						<g>
							<path class="st4" d="M234.93,82.06c-0.61,0-1.23-0.39-1.54-1c-0.35-0.71-0.24-1.5-0.08-2.03c0.28-0.96,0.88-1.81,1.68-2.4
								c0.81-0.59,1.81-0.89,2.79-0.88c0.19,0,0.35,0.17,0.34,0.36c0,0.2-0.18,0.34-0.36,0.35c-0.85-0.02-1.68,0.25-2.36,0.75
								c-0.68,0.5-1.19,1.22-1.42,2.03c-0.12,0.41-0.21,1.01,0.04,1.52c0.19,0.37,0.66,0.71,1.08,0.59
								c0.19-0.05,0.38,0.06,0.43,0.25c0.05,0.19-0.06,0.38-0.25,0.43C235.17,82.05,235.05,82.06,234.93,82.06z"/>
							<path class="st4" d="M237.01,80.31c-0.13,0-0.26-0.08-0.32-0.21c-0.22-0.49-0.44-0.99-0.75-1.42
								c-0.23-0.31-0.61-0.72-1.13-0.89c-0.19-0.06-0.29-0.26-0.23-0.44c0.06-0.18,0.26-0.28,0.44-0.23
								c0.56,0.18,1.07,0.58,1.48,1.15c0.35,0.49,0.59,1.03,0.82,1.55c0.08,0.18,0,0.39-0.18,0.46
								C237.11,80.3,237.06,80.31,237.01,80.31z"/>
						</g>
					</g>
				</g>
				<g>
					<path class="st1" d="M235.12,72.19c0,0,2.65-20.99-9.36-24.8c0,0,7.34,0.97,11.3,6.73c4,5.82,2.2,20.55,2.2,20.55L235.12,72.19
						z"/>
					<path class="st2" d="M242.54,77.94c0,3.72-3.87,6.73-6.4,6.73c-2.53,0-4.58-3.01-4.58-6.73s2.05-6.73,4.58-6.73
						C238.67,71.21,242.54,74.22,242.54,77.94z"/>
				</g>
			</g>
			<g>
				<g>
					<path class="st3" d="M189.44,125.79l-15.51,15.22l-22.55-29.87l-8.04,4.74c0,0,18.7,38.28,29.44,39.35
						c8.62,0.86,26-18.7,26-18.7L189.44,125.79z"/>
					<g>
						<path class="st3" d="M144.67,116.5c0,0-16.66-4.23-16.81-6.06c-0.15-1.83,9.33-0.45,9.33-0.45s-10.2-2.8-10.16-4.3
							c0.05-1.5,11.16,0,11.16,0s-12.05-3.37-12.17-5.44c-0.12-2.07,13.67,2.23,13.67,2.23s-9.3-7.71-8.45-9.44
							c0.84-1.73,16.12,10.11,17.5,11.73c1.38,1.62,1.83,6.39,1.83,6.39L144.67,116.5z"/>
						<g>
							<g>
								<path class="st2" d="M140.4,115.34l-9.07-3.83c-1.12-0.47-1.64-1.76-1.17-2.88l7.88-18.65c0.47-1.12,1.76-1.64,2.88-1.17
									l9.07,3.83c1.12,0.47,1.64,1.76,1.17,2.88l-7.88,18.65C142.81,115.29,141.52,115.81,140.4,115.34z"/>
								<path class="st1" d="M140.81,114.47l-9.14-3.86c-0.6-0.26-0.89-0.95-0.63-1.56l7.92-18.74c0.26-0.6,0.95-0.89,1.56-0.63
									l9.14,3.86c0.6,0.26,0.89,0.95,0.63,1.56l-7.92,18.74C142.11,114.44,141.41,114.72,140.81,114.47z"/>
							</g>
						</g>
						<path class="st3" d="M151.38,111.14c0,0-3.72-16.71-5.94-15.71c-2.22,1,2.01,18.55,2.01,18.55L151.38,111.14z"/>
					</g>
				</g>
				<g>
					<path class="st3" d="M268.51,121.49l24.09,19.62l40.09-5.21l2.48,9.3c0,0-32.99,10.58-44.98,8.4
						c-11.99-2.18-42.72-28.66-42.72-28.66L268.51,121.49z"/>
					<path class="st3" d="M331.74,144.53c0,0,7.8,4.65,8.28,6.62c0.48,1.97-3.87,0.42-4.02,1.9c-0.15,1.47,7.1,4.72,8.1-0.53
						c0,0,2.83-0.12,2.83-4.59c0,0,1.89,0.04,1.33-3.46c0,0,1.34-0.83,0.4-3.2c-0.94-2.37-12.99-6.31-16.05-5.37L331.74,144.53z"/>
				</g>
				<g>
					<g>
						<g>
							<path class="st6" d="M230.8,97.47c0,0-3.42,13.46-12.26,2.56c0,0-8.54,2.41-13.22,7.09s3.03,39.21,0.77,76.84
								c0,0,14.91,6.68,51.73-2.73c0,0-2.2-70.52-8.57-78.89C245.7,97.67,230.8,97.47,230.8,97.47z"/>
							<g>
								<path class="st6" d="M211,103.09c0,0-10.98,5.6-25.62,22.93l14.55,13.86l14.19-16.55L211,103.09z"/>
								<path class="st6" d="M247.44,100.8c0,0,10.98,5.62,25.63,22.98l-14.54,13.88l-14.2-16.58L247.44,100.8z"/>
							</g>
						</g>
						<path class="st7" d="M229.81,96.77c-0.68,1.24-1.39,2.46-2.2,3.62c-0.6,0.87-1.38,1.54-2.45,1.7
							c-2.39,0.36-4.41-1.42-5.88-3.06c-1.21-1.35-3.19,0.64-1.98,1.98c2.05,2.28,4.84,4.25,8.07,3.86c1.63-0.2,3.04-0.97,4.07-2.25
							c1.09-1.35,1.97-2.9,2.81-4.42C233.1,96.61,230.68,95.19,229.81,96.77z"/>
					</g>
					<g>
						<path class="st7" d="M205.33,132.78c-0.19,0-0.35-0.16-0.35-0.35c-0.02-4.12,0.49-8.23,1.54-12.22
							c0.05-0.19,0.25-0.3,0.43-0.25c0.19,0.05,0.3,0.24,0.25,0.43c-1.03,3.93-1.54,7.98-1.51,12.04
							C205.68,132.62,205.53,132.78,205.33,132.78C205.33,132.78,205.33,132.78,205.33,132.78z"/>
						<path class="st7" d="M254,132.57c-0.1,0-0.2-0.04-0.27-0.13c-1.99-2.37-3.61-5.01-4.81-7.86c-0.08-0.18,0.01-0.39,0.19-0.46
							c0.18-0.08,0.39,0.01,0.46,0.19c1.17,2.79,2.75,5.37,4.7,7.68c0.12,0.15,0.11,0.37-0.04,0.5
							C254.16,132.54,254.08,132.57,254,132.57z"/>
						<g>
							<path class="st7" d="M232.76,164.37c-5.42,0-10.83-1.16-15.76-3.4c-0.18-0.08-0.26-0.29-0.18-0.47
								c0.08-0.18,0.29-0.26,0.47-0.17c5.41,2.46,11.39,3.59,17.33,3.29c0.18-0.02,0.36,0.14,0.37,0.33
								c0.01,0.19-0.14,0.36-0.33,0.37C234.02,164.35,233.39,164.37,232.76,164.37z"/>
							<path class="st7" d="M222.35,165.79c-0.03,0-0.06,0-0.09-0.01c-2.12-0.53-4.13-1.55-5.83-2.92c-0.15-0.12-0.17-0.35-0.05-0.5
								c0.12-0.15,0.35-0.17,0.5-0.05c1.61,1.31,3.54,2.28,5.55,2.79c0.19,0.05,0.3,0.24,0.26,0.43
								C222.65,165.68,222.51,165.79,222.35,165.79z"/>
						</g>
					</g>
				</g>
			</g>
			<path class="st1" d="M236.05,83.05c0-0.19-0.16-0.32-0.36-0.35c-0.19,0-0.35,0.16-0.35,0.36c0.12,6.47-0.81,13.32-2.85,20.95
				c-2.08,7.81-5.07,15.46-7.99,22.87c-11.35-12.48-18.32-28.01-19.67-43.78c-0.02-0.19-0.16-0.34-0.38-0.32
				c-0.19,0.02-0.34,0.19-0.32,0.38c1.36,16.05,8.51,31.83,20.11,44.48c-1.93,9.27-6.54,17.61-12.68,22.92
				c-7.11,6.14-16.74,8.22-24.54,5.29c-9.01-3.38-13.73-12.24-15.75-17.22c-2.22-5.49-3.44-11.41-4.62-17.14
				c-0.43-2.08-0.87-4.23-1.36-6.34c-0.2-0.86-4.94-21.07-12.18-23.97c-1.5-0.6-3-0.42-4.46,0.54c-0.16,0.11-0.21,0.33-0.1,0.49
				c0.11,0.16,0.33,0.21,0.49,0.1c1.28-0.84,2.52-1,3.81-0.48c6.9,2.76,11.71,23.27,11.75,23.47c0.48,2.1,0.93,4.24,1.36,6.32
				c1.19,5.76,2.42,11.71,4.66,17.26c2.06,5.09,6.89,14.14,16.15,17.62c2.42,0.91,5.02,1.35,7.66,1.35c6.12,0,12.49-2.37,17.59-6.77
				c6.29-5.43,11-13.97,12.94-23.45c2.99-7.58,6.07-15.42,8.21-23.44C235.24,96.5,236.18,89.59,236.05,83.05z"/>
		</g>
	</g>
	<g>
		<g>
			<path class="st7" d="M257.69,83.64l-0.75,1.54l-1.55,3.2c-0.43-0.33-1.11-0.55-1.9-0.56c-1.32-0.02-2.39,0.55-2.41,1.28
				c-0.01,0.73,1.05,1.34,2.36,1.36c1.1,0.02,2.02-0.38,2.31-0.94l0.01,0l2.03-4.18l5.15,1.02l-1.77,3.65
				c-0.43-0.33-1.11-0.55-1.9-0.56c-1.32-0.02-2.39,0.55-2.41,1.28c-0.01,0.73,1.05,1.34,2.36,1.36c1.1,0.02,2.02-0.38,2.31-0.94
				l0.01,0l2.24-4.62l0.44-0.9l0.31-0.64L257.69,83.64z"/>
			<path class="st7" d="M267.31,60.73l0.56,2.39l1.15,4.97c-0.78,0.02-1.74,0.39-2.62,1.08c-1.49,1.16-2.17,2.78-1.53,3.6
				c0.65,0.82,2.37,0.55,3.86-0.62c1.24-0.97,1.91-2.25,1.73-3.13l0.01,0l-1.51-6.49l6.66-3.51l1.32,5.66
				c-0.78,0.02-1.74,0.39-2.62,1.08c-1.49,1.16-2.17,2.78-1.53,3.6c0.65,0.82,2.37,0.55,3.86-0.62c1.24-0.97,1.91-2.25,1.73-3.12
				l0.01,0l-1.67-7.18l-0.32-1.39l-0.23-1L267.31,60.73z"/>
			<path class="st7" d="M263.78,28.81l-2.26,2.88l-4.69,5.98c-0.75-0.88-2.08-1.65-3.7-2.03c-2.74-0.64-5.25,0.07-5.6,1.59
				c-0.35,1.52,1.58,3.27,4.32,3.91c2.29,0.53,4.39,0.12,5.24-0.91l0.02,0.01l6.12-7.81l10.29,4.46l-5.34,6.81
				c-0.75-0.88-2.08-1.65-3.7-2.03c-2.74-0.64-5.25,0.07-5.6,1.59c-0.35,1.52,1.58,3.27,4.32,3.91c2.29,0.53,4.39,0.12,5.24-0.91
				l0.02,0.01l6.77-8.64l1.32-1.68l0.94-1.2L263.78,28.81z"/>
		</g>
		<g>
			<path class="st7" d="M183.83,101l0.75,1.54l1.57,3.19c-0.52,0.14-1.12,0.54-1.61,1.15c-0.83,1.03-1.04,2.23-0.47,2.69
				c0.57,0.46,1.7,0,2.53-1.03c0.69-0.86,0.94-1.83,0.68-2.39l0.01,0l-2.05-4.17l3.97-3.43l1.79,3.64
				c-0.52,0.14-1.12,0.54-1.61,1.15c-0.83,1.03-1.04,2.23-0.47,2.69c0.57,0.46,1.7,0,2.53-1.03c0.69-0.86,0.94-1.83,0.68-2.39
				l0.01,0l-2.26-4.61l-0.44-0.9l-0.31-0.64L183.83,101z"/>
			<path class="st7" d="M171.68,73.79l-0.77,2.33l-1.61,4.84c-0.67-0.39-1.69-0.58-2.8-0.45c-1.88,0.22-3.3,1.24-3.18,2.28
				c0.12,1.04,1.74,1.71,3.62,1.49c1.57-0.18,2.8-0.92,3.1-1.76l0.01,0l2.1-6.32l7.52,0.49l-1.83,5.52
				c-0.67-0.39-1.69-0.58-2.8-0.45c-1.88,0.22-3.3,1.24-3.18,2.28c0.12,1.04,1.74,1.71,3.62,1.49c1.57-0.18,2.8-0.92,3.1-1.76
				l0.01,0l2.32-6.99l0.45-1.36l0.32-0.97L171.68,73.79z"/>
			<path class="st7" d="M180.98,37l0.29,3.65l0.61,7.58c-1.15-0.14-2.65,0.19-4.1,1.02c-2.45,1.39-3.81,3.61-3.04,4.97
				c0.77,1.36,3.38,1.33,5.82-0.06c2.04-1.16,3.3-2.89,3.23-4.23l0.02,0l-0.8-9.89l10.59-3.71l0.7,8.63
				c-1.15-0.14-2.65,0.19-4.1,1.02c-2.45,1.39-3.81,3.61-3.04,4.97c0.77,1.36,3.38,1.33,5.82-0.06c2.04-1.16,3.3-2.89,3.23-4.23
				l0.02,0l-0.88-10.94l-0.17-2.13l-0.12-1.52L180.98,37z"/>
		</g>
	</g>
</g>
<g>
	<g>
		<g>
			<path class="st1" d="M48.62,312.6c-0.17,0-0.34-0.04-0.5-0.13c-0.49-0.27-0.66-0.89-0.39-1.38c22.72-40.46,0.3-71.08,0.07-71.38
				c-0.34-0.45-0.25-1.08,0.2-1.42c0.45-0.34,1.08-0.25,1.42,0.2c0.24,0.32,23.46,31.95,0.07,73.6
				C49.32,312.41,48.98,312.6,48.62,312.6z"/>
			<path class="st1" d="M112.8,312.6c-0.35,0-0.7-0.19-0.89-0.52c-23.39-41.65-0.16-73.28,0.07-73.6c0.34-0.45,0.97-0.54,1.42-0.2
				c0.45,0.34,0.54,0.97,0.2,1.42c-0.23,0.3-22.65,30.93,0.07,71.38c0.27,0.49,0.1,1.11-0.39,1.38
				C113.14,312.56,112.97,312.6,112.8,312.6z"/>
			<path class="st1" d="M80.71,322c-0.56,0-1.01-0.45-1.01-1.01v-81.74c0-0.56,0.45-1.01,1.01-1.01s1.01,0.45,1.01,1.01v81.74
				C81.73,321.54,81.27,322,80.71,322z"/>
			<path class="st1" d="M80.14,281.75c-12.74,0-21.1-3.77-21.62-4.02c-0.51-0.24-0.73-0.84-0.49-1.35c0.24-0.51,0.84-0.73,1.35-0.49
				c0.19,0.09,18.83,8.46,42.72-0.04c0.52-0.19,1.11,0.09,1.3,0.62c0.19,0.53-0.09,1.11-0.62,1.3
				C94.39,280.75,86.69,281.75,80.14,281.75z"/>
		</g>
		<ellipse class="st6" cx="80.71" cy="239.24" rx="52.09" ry="5.83"/>
	</g>
	<g>
		<g>
			<g>
				<path class="st6" d="M51.48,225.03c-3.49-16.76-13.7-32.01-27.86-41.63c-1.17,3.63,0.03,7.98,2.87,10.53
					c1.28,1.15,2.9,2.01,3.76,3.5c0.91,1.57,0.79,3.49,0.76,5.3c-0.02,1.81,0.15,3.81,1.45,5.08c1.57,1.54,4.39,1.6,5.43,3.53
					c0.54,1.02,0.4,2.27,0.74,3.37c0.39,1.27,1.41,2.25,2.53,2.97s2.36,1.22,3.51,1.88C47.2,221,50.21,222.4,51.48,225.03z"/>
				<path class="st7" d="M49.66,223.74c-0.16-6.9-0.12-13.87,1.26-20.64c1.37-6.77,4.16-13.39,8.9-18.41
					c1.48,1.8,1.19,4.54,0.62,6.79c-0.57,2.26-1.47,4.52-1.22,6.83c0.14,1.23,0.6,2.4,0.87,3.6c0.27,1.21,0.33,2.54-0.28,3.61
					c-0.87,1.54-2.85,2.12-3.93,3.53c-1.18,1.54-1.04,3.66-1.2,5.59C54.37,218.25,52.21,221.18,49.66,223.74z"/>
				<path class="st6" d="M50.92,224.04c2.55-15.03,12.15-28.71,25.42-36.21c0.35,1.99,0.53,4.02,0.37,6.03
					c-0.16,2.02-0.88,4.07-2.37,5.43c-1.15,1.05-2.74,1.7-3.47,3.08c-1.34,2.52,0.9,6.02-0.77,8.34c-1.82,2.52-6.4,1.07-8.38,3.47
					c-0.84,1.02-0.96,2.49-1.81,3.5c-0.83,0.99-2.17,1.35-3.34,1.9C54.49,220.56,51.83,221.92,50.92,224.04z"/>
			</g>
			<path class="st1" d="M50.92,221.4H40.68c0,14.89,6.75,17.45,6.75,17.45h3.49h3.49c0,0,6.75-2.56,6.75-17.45H50.92z"/>
		</g>
		<g>
			<polygon class="st1" points="89.17,213.3 95.22,213.3 86.37,236.16 80.32,236.16 			"/>
			<g>
				<polygon class="st2" points="118.72,238.27 89.78,238.27 79.74,198.44 108.68,198.44 				"/>
				<polygon class="st1" points="115.95,236.15 91.48,236.15 82.51,200.57 106.98,200.57 				"/>
				<path class="st2" d="M102.48,218.46c1.14-1.2,1.59-3.17,1.02-5.4c-0.92-3.65-4.18-6.61-7.27-6.61c-3.1,0-4.86,2.96-3.94,6.61
					c0.57,2.26,2.03,4.24,3.79,5.44c-2.14,0.58-4.13,1.76-5.96,3.57l2.98,11.82h20.26l-2.98-11.82
					C107.59,220.22,104.96,219.03,102.48,218.46z"/>
			</g>
		</g>
	</g>
</g>
<g>
	<g>
		<path class="st7" d="M321.95,283.58c-0.01-0.81,0.26-1.6,0.28-2.42c0.04-2.05-1.56-3.75-2.06-5.74c-0.49-1.94,0.1-3.96,0.5-5.91
			c0.4-1.96,0.57-4.16-0.58-5.79c-0.74-1.04-1.91-1.68-2.76-2.63c-1.31-1.47-1.73-3.67-1.05-5.52c0.58-1.55,1.88-2.99,1.6-4.62
			c-0.25-1.43-1.63-2.35-2.39-3.59c-1.13-1.84-0.72-4.43,0.84-5.92c1.55-1.49,4.06-1.83,6.01-0.93s3.3,2.93,3.51,5.08
			c0.18,1.78-0.36,3.58-0.13,5.35c0.2,1.51,0.93,2.89,1.51,4.29c0.58,1.41,1,2.99,0.55,4.44c-0.35,1.11-1.17,2.01-1.7,3.05
			c-1.63,3.18-0.37,6.99-0.19,10.55c0.14,2.8-0.42,5.57-1.18,8.25c-0.22,0.77-0.56,3.21-1.24,3.64
			C322.52,285.75,321.96,284.34,321.95,283.58z"/>
		<path class="st6" d="M322.98,282.81c0.18-0.72,0.57-1.36,0.84-2.05c1.26-3.29-0.44-7.3,1.24-10.4c0.86-1.58,2.46-2.64,3.41-4.17
			c0.96-1.56,1.15-3.46,1.46-5.27c0.31-1.81,0.84-3.72,2.24-4.9c1.4-1.18,3.38-1.4,4.9-2.43c3.5-2.37,3.23-7.96,6.45-10.7
			c1.24-1.05,2.86-1.54,4.45-1.86c2.39-0.47,5.21-0.48,6.86,1.31c1.48,1.6,1.45,4.21,0.38,6.11c-1.07,1.9-2.97,3.19-4.95,4.12
			c-2.26,1.06-4.96,1.97-5.9,4.28c-0.46,1.13-0.39,2.41-0.58,3.62c-0.43,2.78-2.34,5.29-4.9,6.44c-2.28,1.02-5.24,1.22-6.5,3.37
			c-1.11,1.9-0.29,4.43-1.21,6.42c-1.15,2.5-4.64,3.36-5.56,5.96c-0.19,0.53-0.26,1.12-0.56,1.59
			C323.94,285.99,322.63,284.19,322.98,282.81z"/>
		<path class="st6" d="M323.36,283.17c-0.11-0.45-0.36-0.85-0.52-1.28c-0.78-2.05,0.27-4.53-0.77-6.46
			c-0.53-0.98-1.53-1.64-2.12-2.59c-0.6-0.97-0.72-2.15-0.91-3.27c-0.19-1.12-0.52-2.31-1.39-3.05c-0.87-0.73-2.1-0.87-3.04-1.51
			c-2.17-1.47-2.01-4.95-4.01-6.65c-0.77-0.65-1.77-0.96-2.76-1.15c-1.49-0.29-3.24-0.3-4.26,0.82c-0.92,1-0.9,2.61-0.23,3.8
			c0.67,1.18,1.85,1.98,3.08,2.56c1.4,0.66,3.08,1.22,3.67,2.66c0.29,0.7,0.24,1.49,0.36,2.25c0.27,1.73,1.45,3.28,3.05,4
			c1.42,0.63,3.26,0.76,4.04,2.09c0.69,1.18,0.18,2.75,0.75,3.99c0.72,1.55,2.88,2.09,3.45,3.7c0.12,0.33,0.16,0.69,0.35,0.99
			C322.77,285.15,323.58,284.03,323.36,283.17z"/>
	</g>
	<path class="st2" d="M330.76,323.79c0-8.38,2.85-5.7,2.85-11.57c0-5.87-7.38-10.06-7.38-16.43c0-6.37,3.69-12.58,3.69-12.58h-6.71
		h-0.67h-6.71c0,0,3.69,6.2,3.69,12.58c0,6.37-7.38,10.56-7.38,16.43c0,5.87,2.85,3.19,2.85,11.57c0,8.38-6.87,8.38-6.87,14.75
		c0,6.38,6.71,14.41,6.71,14.41h7.71h0.67h7.71c0,0,6.71-8.03,6.71-14.41C337.63,332.17,330.76,332.18,330.76,323.79z"/>
</g>
</svg>
