<svg id="Group_48" data-name="Group 48" xmlns="http://www.w3.org/2000/svg" xmlns:xlink="http://www.w3.org/1999/xlink" width="370.16" height="353.026" viewBox="0 0 370.16 353.026">
  <defs>
	<clipPath id="clip-path">
	  <rect id="Rectangle_20" data-name="Rectangle 20" width="370.16" height="353.026" fill="none"/>
	</clipPath>
	<clipPath id="clip-path-3">
	  <path id="Path_26" data-name="Path 26" d="M130.374,114.369c-3.414,2.538-101.979,4.492-110.337,28.98s69.2,84.795,70.535,89.939S67.179,332.7,85.69,345.408c10.282,7.061,40.3-5.455,65.861-17.97,20.448-10.014,38.037-20.028,40.368-20.015,5.243.03,91.194,50.437,106.231,37.985s-4.969-109.3-3.155-113.846,76.694-69.721,68.808-88.213-104.689-26.536-108.609-28.98-37.595-95.9-63.274-95.9-58.131,93.363-61.545,95.9" transform="translate(-19.407 -18.468)" fill="none"/>
	</clipPath>
	<linearGradient id="linear-gradient" x1="0.126" y1="0.849" x2="0.127" y2="0.849" gradientUnits="objectBoundingBox">
	  <stop offset="0" stop-color="#fff466"/>
	  <stop offset="0.043" stop-color="#fff466"/>
	  <stop offset="0.075" stop-color="#fff466"/>
	  <stop offset="0.314" stop-color="#ffeb5f"/>
	  <stop offset="0.687" stop-color="#ffd54d"/>
	  <stop offset="0.86" stop-color="#ffc943"/>
	  <stop offset="1" stop-color="#ffc943"/>
	</linearGradient>
	<clipPath id="clip-path-5">
	  <rect id="Rectangle_18" data-name="Rectangle 18" width="196.201" height="41.021" fill="none"/>
	</clipPath>
	<clipPath id="clip-path-6">
	  <rect id="Rectangle_16" data-name="Rectangle 16" width="44.434" height="41.021" fill="none"/>
	</clipPath>
	<clipPath id="clip-path-7">
	  <rect id="Rectangle_17" data-name="Rectangle 17" width="44.43" height="41.021" fill="none"/>
	</clipPath>
  </defs>
  <g id="Group_47" data-name="Group 47" clip-path="url(#clip-path)">
	<g id="Group_33" data-name="Group 33">
	  <g id="Group_32" data-name="Group 32" clip-path="url(#clip-path)">
		<path id="Path_25" data-name="Path 25" d="M185.114,0c27.551,0,65.532,96.562,69.737,99.182s106.212,14.961,114.671,34.8-70.024,91.613-71.969,96.5,17.665,106.934,1.532,120.292-108.346-38.872-113.97-38.9S91,364.4,71.143,350.768,74.108,236,72.676,230.476-8.261,160.25.7,133.98s111.009-32.077,114.672-34.8S157.563,0,185.114,0" transform="translate(0)" fill="#ffbd39"/>
	  </g>
	</g>
	<g id="Group_35" data-name="Group 35" transform="translate(12.599 11.99)">
	  <g id="Group_34" data-name="Group 34" clip-path="url(#clip-path-3)">
		<rect id="Rectangle_15" data-name="Rectangle 15" width="493.826" height="491.171" transform="matrix(0.769, -0.64, 0.64, 0.769, -174.612, 138.926)" fill="url(#linear-gradient)"/>
	  </g>
	</g>
	<g id="Group_46" data-name="Group 46">
	  <g id="Group_45" data-name="Group 45" clip-path="url(#clip-path)">
		<path id="Path_27" data-name="Path 27" d="M54.971,207.782c-1.785-17.411,55.334-27.66,57.858-7.287s-55.418,31.01-57.858,7.287" transform="translate(-19.269 -66.382)" fill="#fff"/>
		<path id="Path_28" data-name="Path 28" d="M166.633,192.879c-.427-11.2,16.649-11.883,17.539-2.692.993,10.287-17.14,13.169-17.539,2.692" transform="translate(-58.449 -64.486)" fill="#fff"/>
		<g id="Group_44" data-name="Group 44" transform="translate(89.22 176.881)" opacity="0.6">
		  <g id="Group_43" data-name="Group 43">
			<g id="Group_42" data-name="Group 42" clip-path="url(#clip-path-5)">
			  <g id="Group_38" data-name="Group 38" opacity="0.6">
				<g id="Group_37" data-name="Group 37">
				  <g id="Group_36" data-name="Group 36" clip-path="url(#clip-path-6)">
					<path id="Path_29" data-name="Path 29" d="M181.861,292.962c0,11.327-9.947,20.513-22.217,20.513s-22.216-9.186-22.216-20.513,9.947-20.509,22.216-20.509,22.217,9.182,22.217,20.509" transform="translate(-137.427 -272.453)" fill="#ff5f82"/>
				  </g>
				</g>
			  </g>
			  <g id="Group_41" data-name="Group 41" transform="translate(151.77)" opacity="0.6">
				<g id="Group_40" data-name="Group 40">
				  <g id="Group_39" data-name="Group 39" clip-path="url(#clip-path-7)">
					<path id="Path_30" data-name="Path 30" d="M415.632,292.962c0,11.327-9.946,20.513-22.216,20.513S371.2,304.289,371.2,292.962s9.945-20.509,22.216-20.509,22.216,9.182,22.216,20.509" transform="translate(-371.202 -272.453)" fill="#ff5f82"/>
				  </g>
				</g>
			  </g>
			</g>
		  </g>
		</g>
		<path id="Path_31" data-name="Path 31" d="M149.3,238.223c-5.681-4.8,2.771-28.419,25.388-28.419s30.636,23.3,25.939,28.419c-4.061,4.43-9.046-13.733-25.387-13.733s-21.137,17.8-25.939,13.733" transform="translate(-51.77 -73.596)" fill="#541300"/>
		<path id="Path_32" data-name="Path 32" d="M342.285,238.223c-5.683-4.8,2.771-28.419,25.386-28.419s30.637,23.3,25.94,28.419c-4.065,4.43-9.047-13.733-25.388-13.733s-21.136,17.8-25.938,13.733" transform="translate(-119.467 -73.596)" fill="#541300"/>
		<path id="Path_33" data-name="Path 33" d="M303.27,311.181c6.392-7.926-2.846-14.044-8.915-6.685-9.186,11.139-45.627,10.25-54.987,0-6.431-7.045-14.7-1.692-8.91,6.685,11.473,16.6,57.19,19.371,72.813,0" transform="translate(-80.153 -105.652)" fill="#872a2a"/>
	  </g>
	</g>
  </g>
</svg>
