<svg id="Group_96" data-name="Group 96" xmlns="http://www.w3.org/2000/svg" xmlns:xlink="http://www.w3.org/1999/xlink" width="370.16" height="353.026" viewBox="0 0 370.16 353.026">
  <defs>
	<clipPath id="clip-path">
	  <rect id="Rectangle_40" data-name="Rectangle 40" width="370.16" height="353.026" fill="none"/>
	</clipPath>
	<clipPath id="clip-path-3">
	  <path id="Path_54" data-name="Path 54" d="M130.373,114.368c-3.414,2.538-101.983,4.492-110.339,28.98s69.2,84.794,70.539,89.94-23.4,99.412-4.884,112.12c10.281,7.062,40.305-5.455,65.862-17.971,20.448-10.014,38.036-20.028,40.366-20.015,5.245.031,91.194,50.436,106.23,37.986s-4.969-109.3-3.156-113.846,76.7-69.721,68.807-88.213-104.689-26.538-108.609-28.98-37.593-95.9-63.273-95.9-58.129,93.364-61.542,95.9" transform="translate(-19.403 -18.467)" fill="none"/>
	</clipPath>
	<linearGradient id="linear-gradient" x1="0.126" y1="0.849" x2="0.127" y2="0.849" gradientUnits="objectBoundingBox">
	  <stop offset="0" stop-color="#ff8732"/>
	  <stop offset="0.011" stop-color="#ff8732"/>
	  <stop offset="1" stop-color="#ff5027"/>
	</linearGradient>
	<clipPath id="clip-path-5">
	  <rect id="Rectangle_37" data-name="Rectangle 37" width="44.434" height="41.023" fill="none"/>
	</clipPath>
	<clipPath id="clip-path-6">
	  <rect id="Rectangle_38" data-name="Rectangle 38" width="44.432" height="41.023" fill="none"/>
	</clipPath>
  </defs>
  <g id="Group_95" data-name="Group 95" clip-path="url(#clip-path)">
	<g id="Group_84" data-name="Group 84">
	  <g id="Group_83" data-name="Group 83" clip-path="url(#clip-path)">
		<path id="Path_53" data-name="Path 53" d="M185.113,0c27.55,0,65.533,96.56,69.736,99.182s106.21,14.961,114.673,34.8-70.028,91.613-71.973,96.495,17.667,106.934,1.534,120.294-108.346-38.871-113.97-38.9S91,364.4,71.141,350.769,74.107,236,72.673,230.475-8.264,160.251.7,133.98s111-32.077,114.668-34.8S157.563,0,185.113,0" transform="translate(0)" fill="#ff5027"/>
	  </g>
	</g>
	<g id="Group_86" data-name="Group 86" transform="translate(12.597 11.989)">
	  <g id="Group_85" data-name="Group 85" clip-path="url(#clip-path-3)">
		<rect id="Rectangle_36" data-name="Rectangle 36" width="493.674" height="490.88" transform="translate(-174.309 137.327) rotate(-39.502)" fill="url(#linear-gradient)"/>
	  </g>
	</g>
	<g id="Group_94" data-name="Group 94">
	  <g id="Group_93" data-name="Group 93" clip-path="url(#clip-path)">
		<path id="Path_55" data-name="Path 55" d="M54.971,207.783c-1.789-17.411,55.334-27.661,57.854-7.287S57.407,231.5,54.971,207.783" transform="translate(-19.268 -66.382)" fill="#ffc88d"/>
		<path id="Path_56" data-name="Path 56" d="M166.632,192.876c-.43-11.2,16.647-11.882,17.537-2.692.994,10.288-17.141,13.171-17.537,2.692" transform="translate(-58.449 -64.485)" fill="#ffc88d"/>
		<g id="Group_89" data-name="Group 89" transform="translate(86.977 170.177)" opacity="0.6">
		  <g id="Group_88" data-name="Group 88">
			<g id="Group_87" data-name="Group 87" clip-path="url(#clip-path-5)">
			  <path id="Path_57" data-name="Path 57" d="M178.408,282.637c0,11.326-9.947,20.513-22.217,20.513s-22.217-9.187-22.217-20.513,9.948-20.511,22.217-20.511,22.217,9.182,22.217,20.511" transform="translate(-133.973 -262.127)" fill="#ff739e"/>
			</g>
		  </g>
		</g>
		<g id="Group_92" data-name="Group 92" transform="translate(238.748 170.177)" opacity="0.6">
		  <g id="Group_91" data-name="Group 91">
			<g id="Group_90" data-name="Group 90" clip-path="url(#clip-path-6)">
			  <path id="Path_58" data-name="Path 58" d="M412.181,282.637c0,11.326-9.947,20.513-22.219,20.513s-22.212-9.187-22.212-20.513,9.945-20.511,22.212-20.511,22.219,9.182,22.219,20.511" transform="translate(-367.749 -262.127)" fill="#ff739e"/>
			</g>
		  </g>
		</g>
		<path id="Path_59" data-name="Path 59" d="M183.616,230.248c-32.324,2.479-23.556,54.683,2.415,53.647s29.91-56.129-2.415-53.647" transform="translate(-57.095 -80.739)" fill="#541300"/>
		<path id="Path_60" data-name="Path 60" d="M203.3,275.166c-7.369-.656-9.714,13.276-1.365,14.57s11.837-13.646,1.365-14.57" transform="translate(-68.979 -96.516)" fill="#fff"/>
		<path id="Path_61" data-name="Path 61" d="M362.815,230.248c32.319,2.479,23.556,54.683-2.421,53.647s-29.907-56.129,2.421-53.647" transform="translate(-119.174 -80.739)" fill="#541300"/>
		<path id="Path_62" data-name="Path 62" d="M359.756,275.166c7.373-.656,9.717,13.276,1.369,14.57s-11.838-13.646-1.369-14.57" transform="translate(-123.921 -96.516)" fill="#fff"/>
		<path id="Path_63" data-name="Path 63" d="M171.093,176.588c9.309-6.306,40.364,11.043,42.217,34.914-.458,4.58-8.872-6.225-20.352-16.336-9.525-8.382-24.3-16.925-21.865-18.578" transform="translate(-59.923 -61.487)" fill="#541300"/>
		<path id="Path_64" data-name="Path 64" d="M371.486,176.588c-9.31-6.306-40.365,11.043-42.216,34.914.455,4.58,8.867-6.225,20.35-16.336,9.528-8.382,24.3-16.925,21.866-18.578" transform="translate(-115.503 -61.487)" fill="#541300"/>
		<path id="Path_65" data-name="Path 65" d="M300.494,361.318c-1.6,1.55-16.789-7.363-33.955-7.356-17.339.01-32.864,8.923-34.5,7.356-3.271-3.119,6.195-38.667,34.21-38.667s37.474,35.547,34.247,38.667" transform="translate(-81.178 -113.181)" fill="#872a2a"/>
	  </g>
	</g>
  </g>
</svg>