<svg id="Group_82" data-name="Group 82" xmlns="http://www.w3.org/2000/svg" xmlns:xlink="http://www.w3.org/1999/xlink" width="370.16" height="353.026" viewBox="0 0 370.16 353.026">
  <defs>
	<clipPath id="clip-path">
	  <rect id="Rectangle_34" data-name="Rectangle 34" width="370.16" height="353.027" fill="none"/>
	</clipPath>
	<clipPath id="clip-path-3">
	  <path id="Path_45" data-name="Path 45" d="M130.376,114.369c-3.416,2.538-101.981,4.492-110.338,28.98s69.2,84.795,70.535,89.939S67.18,332.7,85.691,345.408c10.283,7.061,40.305-5.455,65.862-17.97,20.448-10.014,38.038-20.028,40.368-20.015,5.242.03,91.194,50.437,106.231,37.985s-4.968-109.3-3.155-113.847S371.69,161.84,363.8,143.349,259.115,116.813,255.2,114.369s-37.594-95.9-63.274-95.9-58.132,93.363-61.545,95.9" transform="translate(-19.408 -18.468)" fill="none"/>
	</clipPath>
	<linearGradient id="linear-gradient" x1="0.126" y1="0.849" x2="0.127" y2="0.849" gradientUnits="objectBoundingBox">
	  <stop offset="0" stop-color="#fff466"/>
	  <stop offset="0.043" stop-color="#fff466"/>
	  <stop offset="0.075" stop-color="#fff466"/>
	  <stop offset="0.314" stop-color="#ffeb5f"/>
	  <stop offset="0.687" stop-color="#ffd54d"/>
	  <stop offset="0.86" stop-color="#ffc943"/>
	  <stop offset="1" stop-color="#ffc943"/>
	</linearGradient>
	<clipPath id="clip-path-5">
	  <rect id="Rectangle_32" data-name="Rectangle 32" width="196.201" height="41.021" fill="none"/>
	</clipPath>
	<clipPath id="clip-path-6">
	  <rect id="Rectangle_30" data-name="Rectangle 30" width="44.435" height="41.021" fill="none"/>
	</clipPath>
	<clipPath id="clip-path-7">
	  <rect id="Rectangle_31" data-name="Rectangle 31" width="44.432" height="41.021" fill="none"/>
	</clipPath>
  </defs>
  <g id="Group_81" data-name="Group 81" clip-path="url(#clip-path)">
	<g id="Group_67" data-name="Group 67">
	  <g id="Group_66" data-name="Group 66" clip-path="url(#clip-path)">
		<path id="Path_44" data-name="Path 44" d="M185.114,0c27.553,0,65.531,96.562,69.74,99.182s106.209,14.961,114.669,34.8-70.026,91.613-71.969,96.5,17.664,106.934,1.532,120.292-108.347-38.872-113.972-38.9S91,364.4,71.144,350.769,74.109,236,72.675,230.476-8.261,160.251.7,133.98s111.01-32.077,114.672-34.8S157.563,0,185.114,0" transform="translate(0)" fill="#ffbd39"/>
	  </g>
	</g>
	<g id="Group_69" data-name="Group 69" transform="translate(12.6 11.99)">
	  <g id="Group_68" data-name="Group 68" clip-path="url(#clip-path-3)">
		<rect id="Rectangle_29" data-name="Rectangle 29" width="493.826" height="491.172" transform="matrix(0.769, -0.64, 0.64, 0.769, -174.612, 138.926)" fill="url(#linear-gradient)"/>
	  </g>
	</g>
	<g id="Group_80" data-name="Group 80">
	  <g id="Group_79" data-name="Group 79" clip-path="url(#clip-path)">
		<path id="Path_46" data-name="Path 46" d="M54.97,207.782c-1.783-17.411,55.337-27.661,57.858-7.287s-55.417,31.01-57.858,7.287" transform="translate(-19.268 -66.382)" fill="#fff"/>
		<path id="Path_47" data-name="Path 47" d="M166.636,192.879c-.43-11.2,16.649-11.883,17.539-2.692.992,10.287-17.142,13.169-17.539,2.692" transform="translate(-58.45 -64.486)" fill="#fff"/>
		<g id="Group_78" data-name="Group 78" transform="translate(86.979 199.217)" opacity="0.6">
		  <g id="Group_77" data-name="Group 77">
			<g id="Group_76" data-name="Group 76" clip-path="url(#clip-path-5)">
			  <g id="Group_72" data-name="Group 72" opacity="0.6">
				<g id="Group_71" data-name="Group 71">
				  <g id="Group_70" data-name="Group 70" clip-path="url(#clip-path-6)">
					<path id="Path_48" data-name="Path 48" d="M178.412,327.365c0,11.327-9.948,20.513-22.217,20.513s-22.217-9.186-22.217-20.513,9.947-20.509,22.217-20.509,22.217,9.183,22.217,20.509" transform="translate(-133.976 -306.857)" fill="#ff5f82"/>
				  </g>
				</g>
			  </g>
			  <g id="Group_75" data-name="Group 75" transform="translate(151.769)" opacity="0.6">
				<g id="Group_74" data-name="Group 74" transform="translate(0)">
				  <g id="Group_73" data-name="Group 73" clip-path="url(#clip-path-7)">
					<path id="Path_49" data-name="Path 49" d="M412.18,327.365c0,11.327-9.947,20.513-22.215,20.513s-22.217-9.186-22.217-20.513,9.947-20.509,22.217-20.509,22.215,9.183,22.215,20.509" transform="translate(-367.748 -306.857)" fill="#ff5f82"/>
				  </g>
				</g>
			  </g>
			</g>
		  </g>
		</g>
		<path id="Path_50" data-name="Path 50" d="M210.132,319.69c4.565-3.447,97.579-3.447,102.2,0s-11.446,42.741-51.073,42.741-55.682-39.3-51.123-42.741" transform="translate(-73.447 -111.235)" fill="#872a2a"/>
		<path id="Path_51" data-name="Path 51" d="M382.071,220.82c-2.378-5.548-45.759,15.7-44.923,26.966s40.455,22.266,45.476,16.345-26.224-11.143-26.5-17.461,29.3-18.036,25.949-25.849" transform="translate(-118.262 -77.142)" fill="#541300"/>
		<path id="Path_52" data-name="Path 52" d="M163.224,220.82c2.379-5.548,45.761,15.7,44.924,26.966s-40.458,22.266-45.48,16.345,26.225-11.143,26.5-17.461-29.3-18.036-25.949-25.849" transform="translate(-56.87 -77.142)" fill="#541300"/>
	  </g>
	</g>
  </g>
</svg>
