<?xml version="1.0" encoding="utf-8"?>
<!-- Generator: Adobe Illustrator 24.0.2, SVG Export Plug-In . SVG Version: 6.00 Build 0)  -->
<svg version="1.1" id="Layer_1" xmlns="http://www.w3.org/2000/svg" xmlns:xlink="http://www.w3.org/1999/xlink" x="0px" y="0px"
	 viewBox="0 0 300 300" style="enable-background:new 0 0 300 300;" xml:space="preserve">
<style type="text/css">
	.st0{opacity:0.3;}
	.st1{fill:#C5D92D;}
	.st2{fill:#263238;stroke:#000000;stroke-miterlimit:10;}
	.st3{fill:#9A4748;}
	.st4{fill:#FFFFFF;stroke:#263238;stroke-miterlimit:10;}
	.st5{fill:#C5D92D;stroke:#263238;stroke-miterlimit:10;}
	.st6{fill:none;stroke:#C5D92D;stroke-width:6;stroke-linecap:round;stroke-linejoin:round;stroke-miterlimit:10;}
	.st7{fill:#FFFFFF;stroke:#263238;stroke-linecap:round;stroke-linejoin:round;stroke-miterlimit:10;}
	.st8{fill:#C5D92D;stroke:#263238;stroke-linecap:round;stroke-linejoin:round;stroke-miterlimit:10;}
	.st9{fill:#263238;stroke:#263238;stroke-linecap:round;stroke-linejoin:round;stroke-miterlimit:10;}
	.st10{fill:none;stroke:#FFFFFF;stroke-linecap:round;stroke-linejoin:round;stroke-miterlimit:10;}
	.st11{clip-path:url(#XMLID_3_);fill:#C5D92D;}
	.st12{opacity:0.5;clip-path:url(#XMLID_3_);fill:#FFFFFF;}
	.st13{fill:#263238;}
</style>
<g class="st0">
	<path class="st1" d="M289.26,145.35c-2.36-29.56-11.21-58.4-26.82-83.69c-24.51-39.72-64.53-61.18-108.06-49.48
		c-41.16,11.07-51.61,59.9-85.9,81.53C42.18,110.31,2.3,137.4,8.68,185.46c2.08,15.66,11.55,27.1,24.53,33.53
		c17.76,8.78,42.58,5.21,58.41,18.02c18.34,14.85,33.49,35.83,73.37,51.55c31.54,12.44,67.11-2.45,90.94-26
		C285.27,233.59,292.58,186.85,289.26,145.35z"/>
</g>
<g>
	<path class="st2" d="M225.8,211.49l-112.01,31.53c-2.36,0.66-5.22-0.52-6.4-2.64L22.45,87.52c-1.18-2.12-0.22-4.37,2.13-5.04
		l112.01-31.53c2.36-0.66,5.22,0.52,6.4,2.64l84.94,152.86C229.11,208.58,228.15,210.83,225.8,211.49z"/>
	<path class="st3" d="M112.21,236.32c0,0,64.72-15.39,108.29-30.48L112.21,236.32z"/>
	<polygon class="st4" points="220.5,205.84 112.21,236.32 28.45,85.58 136.74,55.1 	"/>
	<g>
		<g>
			<line class="st4" x1="104.67" y1="87.03" x2="113.08" y2="84.66"/>
			<line class="st4" x1="46.35" y1="103.44" x2="98.16" y2="88.86"/>
			<line class="st4" x1="95.44" y1="96.39" x2="116.33" y2="90.52"/>
			<line class="st4" x1="63.44" y1="105.4" x2="89.75" y2="98"/>
			<line class="st4" x1="49.6" y1="109.3" x2="58.55" y2="106.78"/>
			<line class="st4" x1="78.9" y1="107.82" x2="119.58" y2="96.37"/>
			<line class="st4" x1="52.86" y1="115.15" x2="69.94" y2="110.34"/>
		</g>
		<path class="st4" d="M142.37,82.62c-1.95-3.5-6.68-5.45-10.58-4.36c-3.89,1.1-5.47,4.83-3.53,8.33c1.95,3.5,6.68,5.45,10.58,4.36
			C142.74,89.85,144.32,86.13,142.37,82.62z"/>
	</g>
	<g>
		<g>
			<line class="st4" x1="69.26" y1="127.18" x2="60.86" y2="129.55"/>
			<line class="st4" x1="127.58" y1="110.77" x2="75.77" y2="125.35"/>
			<line class="st4" x1="85" y1="129.52" x2="64.11" y2="135.4"/>
			<line class="st4" x1="117" y1="120.51" x2="90.69" y2="127.92"/>
			<line class="st4" x1="130.84" y1="116.62" x2="121.88" y2="119.14"/>
			<line class="st4" x1="108.05" y1="129.81" x2="67.36" y2="141.26"/>
			<line class="st4" x1="134.09" y1="122.48" x2="117" y2="127.29"/>
		</g>
		<path class="st4" d="M156.88,108.73c-1.95-3.5-6.68-5.45-10.58-4.36c-3.89,1.1-5.47,4.83-3.53,8.33c1.95,3.5,6.68,5.45,10.58,4.36
			C157.24,115.96,158.82,112.23,156.88,108.73z"/>
	</g>
	<g>
		<g>
			<line class="st4" x1="133.68" y1="139.24" x2="142.09" y2="136.87"/>
			<line class="st4" x1="75.36" y1="155.65" x2="127.17" y2="141.07"/>
			<line class="st4" x1="124.46" y1="148.61" x2="145.34" y2="142.73"/>
			<line class="st4" x1="92.45" y1="157.61" x2="118.76" y2="150.21"/>
			<line class="st4" x1="78.62" y1="161.51" x2="87.57" y2="158.99"/>
			<line class="st4" x1="107.91" y1="160.03" x2="148.6" y2="148.58"/>
			<line class="st4" x1="81.87" y1="167.36" x2="98.96" y2="162.55"/>
		</g>
		
			<ellipse transform="matrix(0.3659 -0.9307 0.9307 0.3659 -23.1273 239.6938)" class="st4" cx="164.33" cy="136.82" rx="6.39" ry="8.09"/>
	</g>
	<g>
		<g>
			<line class="st4" x1="98.28" y1="179.39" x2="89.87" y2="181.76"/>
			<line class="st4" x1="156.59" y1="162.98" x2="104.79" y2="177.56"/>
			<line class="st4" x1="114.01" y1="181.74" x2="93.12" y2="187.61"/>
			<line class="st4" x1="146.02" y1="172.73" x2="119.7" y2="180.13"/>
			<line class="st4" x1="159.85" y1="168.83" x2="150.9" y2="171.35"/>
			<line class="st4" x1="137.06" y1="182.02" x2="96.38" y2="193.47"/>
			<line class="st4" x1="163.1" y1="174.69" x2="146.01" y2="179.5"/>
		</g>
		<path class="st4" d="M185.89,160.94c-1.95-3.5-6.68-5.45-10.58-4.36c-3.89,1.1-5.47,4.83-3.53,8.33c1.95,3.5,6.68,5.45,10.58,4.36
			C186.26,168.17,187.83,164.44,185.89,160.94z"/>
	</g>
	<g>
		<g>
			<line class="st4" x1="162.69" y1="191.45" x2="171.1" y2="189.08"/>
			<line class="st4" x1="104.38" y1="207.86" x2="156.18" y2="193.28"/>
			<line class="st4" x1="153.47" y1="200.82" x2="174.36" y2="194.94"/>
			<line class="st4" x1="121.46" y1="209.83" x2="147.77" y2="202.42"/>
			<line class="st4" x1="107.63" y1="213.72" x2="116.58" y2="211.2"/>
			<line class="st4" x1="136.92" y1="212.25" x2="177.61" y2="200.79"/>
			<line class="st4" x1="110.88" y1="219.58" x2="127.97" y2="214.77"/>
		</g>
		
			<ellipse transform="matrix(0.3659 -0.9307 0.9307 0.3659 -53.3213 299.8023)" class="st4" cx="193.34" cy="189.03" rx="6.39" ry="8.09"/>
	</g>
	<path class="st5" d="M100.08,57.66l-14.23,4.01c-1.08,0.04-2.29-0.04-2.59-0.59c-0.78-1.41,0.21-2.74,0.51-4
		c0.34-1.4,0.16-2.79-0.65-4.24c-2-3.59-6.85-5.59-10.85-4.47c-3.99,1.12-5.61,4.95-3.62,8.54c0.92,1.65,2.44,2.95,4.19,3.79
		c0,0,2.89,1.29,3.47,2.33c0.31,0.55-0.5,1.2-1.32,1.69l-15.34,4.32c-2.59,0.73-3.64,3.21-2.35,5.54l2.07,3.73l49.81-14.02
		l-2.07-3.73C105.82,58.23,102.67,56.93,100.08,57.66z M74.73,52.79c1.28-0.36,2.83,0.28,3.47,1.43c0.64,1.15,0.12,2.37-1.16,2.73
		c-1.28,0.36-2.83-0.28-3.47-1.43C72.93,54.38,73.45,53.15,74.73,52.79z"/>
	<polyline class="st6" points="130.8,83.06 136.94,87.35 143.27,73.15 	"/>
	<polyline class="st6" points="145.08,108.76 151.22,113.05 157.55,98.85 	"/>
</g>
<g>
	<path class="st7" d="M245.86,105.25c0,0,1.64-3.49,0.62-6.15c-1.03-2.67-19.9-6.97-19.9-6.97s-4.31,0-4.1,2.46
		c0.21,2.46,15.79,11.9,17.02,12.72C240.73,108.12,245.45,109.97,245.86,105.25z"/>
	<path class="st7" d="M228.14,88.68c0,0-1.79-0.65-3.42-1.47c-1.63-0.81,0.16,2.93,0.81,3.09c0.65,0.16,2.28,0.49,2.28,0.49
		L228.14,88.68z"/>
	<g>
		<g>
			<path class="st8" d="M171.82,125.14l-9.44,11.49l0.82,1.64l13.33-3.28l93.88-54.65c3.96-2.31,5.24-7.44,2.81-11.33l0,0
				c-2.41-3.87-7.52-5-11.34-2.51L171.82,125.14z"/>
			<g>
				<line class="st7" x1="218.99" y1="103.86" x2="215.93" y2="105.83"/>
				<line class="st7" x1="245.34" y1="86.91" x2="222.72" y2="101.46"/>
			</g>
		</g>
		<path class="st8" d="M163.26,136.39c0,0-2.34,0.98-1.98,1.96c0.36,0.98,3.73-1.4,3.73-1.4L163.26,136.39z"/>
		<path class="st7" d="M162.38,136.63l0.82,1.64l13.33-3.28c-7.38-2.87-4.72-9.85-4.72-9.85L162.38,136.63z"/>
		<path class="st7" d="M273.22,69.01c-2.41-3.87-7.52-5-11.34-2.51L245.5,77.16c-0.43,1.09-0.67,2.28-0.67,3.53
			c0,5.14,4,9.31,8.94,9.34l16.64-9.68C274.38,78.03,275.65,72.9,273.22,69.01z"/>
		<path class="st9" d="M273.22,69.01c-2.41-3.87-7.52-5-11.34-2.51l-12.45,8.1c-0.58,1.2-0.91,2.55-0.91,3.98
			c0,4.98,3.95,9.02,8.82,9.02c0.21,0,0.41-0.01,0.61-0.02l12.45-7.25C274.38,78.03,275.65,72.9,273.22,69.01z"/>
	</g>
	<path class="st7" d="M217.72,92.42c0,0-1.82,0-1.82,0.83s-0.48,3.78,0.58,3.69c1.05-0.09,0.96-1.94,1.05-2.58
		C217.63,93.71,217.72,92.42,217.72,92.42z"/>
	<path class="st7" d="M219.72,89.42c0,0-1.63-0.5-2.01,0.5c-0.38,1-0.75,5.77,0.38,5.64C219.22,95.43,219.47,91.17,219.72,89.42z"/>
	<path class="st7" d="M222.23,89.67c0,0-1.88-1.63-2.51-0.25c-0.63,1.38-0.75,5.26,0,5.26c0.75,0,1.88-1.63,2.13-2.51
		C222.1,91.3,222.23,89.67,222.23,89.67z"/>
	<path class="st7" d="M224.86,90.42c0,0-2.38-2.01-2.76-1.63c-0.38,0.38-1.88,4.24-0.75,5.01s2.56-2.69,2.56-2.69L224.86,90.42z"/>
	<path class="st7" d="M190.45,102.32c0,0,0.27,4.02,1.34,4.96c1.07,0.94,1.74,1.88,1.74,1.88s0.27,1.88,0.27,3.08
		c0,1.21,0.8,1.07,1.47,1.07c0.67,0,1.88,2.28,2.55,3.35c0.67,1.07,3.35,3.35,4.56,4.02c1.21,0.67,3.22-1.88,3.22-1.88l0.94,2.68
		l9.52-6.17l-4.69-9.12c0,0-0.13-4.16-2.82-8.98c-2.68-4.83-6.3-7.51-12.33-5.77C190.18,93.2,190.45,102.32,190.45,102.32z"/>
	<path class="st9" d="M201.47,84.45c0,0-2.85,0-6.58,1.32c-3.52,1.24-4.39,6.14-7.46,7.9c-3.07,1.76-1.76-1.54-3.29-0.66
		c-1.54,0.88-3.07,8.56,0.22,10.75c3.29,2.19,8.12-0.66,8.12-0.66s-0.44,1.54,0.88,1.97c1.32,0.44,2.41,0.66,2.41,0.66
		s-0.22,2.63,1.76,2.41c1.97-0.22,0.22-3.29,0.22-3.29s3.73,7.24,6.58,8.12c2.85,0.88,7.02-3.07,8.12-4.83
		c1.1-1.76,0.22-14.26-2.19-19.09C207.83,84.23,201.47,84.45,201.47,84.45z"/>
	<path class="st7" d="M197.82,109.56c0,0-1.34-5.09,0.8-4.42c2.15,0.67,3.35,5.23,3.22,5.77s-1.21,0.8-1.74,0.67"/>
	<path class="st7" d="M213.32,111.41c0,0-4.87,2.75-7.15,4.77c-2.28,2.01-4.29,8.04-4.29,8.04s13.81-9.39,16.22-10.73
		c2.41-1.34,2.95-2.01,2.95-2.01S216,110.74,213.32,111.41z"/>
	<path class="st7" d="M231.91,103.2c0,0,1.64-3.28,5.54-4.1c3.9-0.82,9.02,1.85,9.64,6.15c0.62,4.31-2.67,6.36-4.72,6.36
		c-2.05,0-3.9-2.87-3.9-2.87S231.91,106.27,231.91,103.2z"/>
	<path class="st7" d="M176.94,148.94l6.56-17.43c0,0-1.03,1.03-2.67,1.03c-1.64,0-5.54-0.62-4.51-1.23
		c1.03-0.62,4.92-3.28,4.92-3.28s-2.87,0.62-3.69,0c-0.82-0.62-1.23-1.44-0.62-1.64c0.62-0.21,1.85,0,4.1-0.82
		c2.26-0.82,3.28-1.64,5.13-1.64c1.85,0,3.49,3.28,3.49,4.31c0,1.03-1.44,20.51-1.44,21.33c0,0.82,0,1.64-5.33,2.26
		C177.56,152.42,176.74,151.19,176.94,148.94z"/>
	<line class="st7" x1="183.51" y1="131.5" x2="184.48" y2="127.67"/>
	<path class="st7" d="M183.3,144.63c0,0-6.56,1.85-7.79,4.72c-1.23,2.87-1.03,7.18,1.44,9.64c2.46,2.46,3.49,3.08,6.15,2.05
		c2.67-1.03,3.28-2.67,3.49-4.31C186.79,155.09,188.22,149.55,183.3,144.63z"/>
	<path class="st7" d="M180.64,231.6c0,0-5.74-2.67-8-1.64s-2.26,2.05,0.62,6.56c2.87,4.51,10.87,10.05,13.54,8.82
		c2.67-1.23,0.21-9.44,0.21-9.44L180.64,231.6z"/>
	<path class="st7" d="M176.53,237.96c-2.61-2.88-4.2-5.76-4.97-7.35c-1.06,0.93-0.6,2.31,1.69,5.92
		c2.87,4.51,10.87,10.05,13.54,8.82c0.68-0.31,1.02-1.08,1.16-2.04C184.2,244.89,180.27,242.09,176.53,237.96z"/>
	<path class="st9" d="M210.17,168.83l0.21,6.15c0,0-12.51,4.72-18.67,9.02c-6.15,4.31-10.26,7.59-10.87,11.69
		c-0.62,4.1-0.21,35.89-0.21,35.89s-1.85,0.41-1.23,1.64c0.62,1.23,1.85,5.74,3.49,6.15c1.64,0.41,3.69,1.23,4.1,0.21
		c0.41-1.03,1.64-7.18,2.46-9.23c0.82-2.05,2.26-11.69,3.49-18.46c1.23-6.77,1.23-11.49,1.23-11.49s5.54-0.62,12.72-3.08
		c7.18-2.46,17.64-6.97,17.64-6.97s8.41,21.13,10.26,25.23c1.85,4.1,9.02,13.33,10.46,16c1.44,2.67,10.46,14.15,10.46,14.15
		s3.49-3.08,5.74-3.08c2.26,0,3.08,0,3.08,0s-3.69-10.26-6.77-16.41c-3.08-6.15-9.44-16.2-9.44-16.2s-5.74-35.89-5.95-38.36
		c-0.4-4.73-3.43-11.89-3.43-11.89S229.04,157.76,210.17,168.83z"/>
	<g>
		<path class="st7" d="M255.71,245.75c0,0-1.23,2.05-1.44,2.67c-0.21,0.62-4.72,1.23-4.1,3.28c0.62,2.05,5.33,3.69,7.59,3.9
			c2.26,0.21,6.77-2.87,7.59-3.69c0.49-0.49,1.21-3.67,0.82-6.15c-0.27-1.72-1.64-3.08-1.64-3.08S260.63,236.73,255.71,245.75z"/>
		<path class="st7" d="M266.17,245.75c-0.2-1.26-0.99-2.33-1.39-2.8c-1.55,0.1-3.36,0.55-4.55,1.98c-2.05,2.46-1.03,8-3.49,8.82
			c-1.84,0.61-5.04-1.63-6.55-2.81c-0.08,0.23-0.1,0.48-0.01,0.75c0.62,2.05,5.33,3.69,7.59,3.9c2.26,0.21,6.77-2.87,7.59-3.69
			C265.83,251.42,266.56,248.24,266.17,245.75z"/>
		<path class="st9" d="M260.83,247.19c-0.82,3.69,0.21,6.15-3.08,8.41c2.26,0.21,6.77-2.87,7.59-3.69c0.49-0.49,1.21-3.67,0.82-6.15
			c-0.08-0.54-0.28-1.03-0.5-1.47l-0.32,0.03C265.35,244.31,261.66,243.49,260.83,247.19z"/>
	</g>
	<line class="st10" x1="226.58" y1="189.96" x2="238.68" y2="184.01"/>
	<line class="st10" x1="232.12" y1="187.29" x2="242.58" y2="185.86"/>
	<g>
		<g>
			<defs>
				<path id="XMLID_2_" d="M236.22,101.76c-3.49,0.41-12.51,6.56-13.13,7.18c-0.62,0.62-3.08,2.05-4.1,2.87
					c0,0-21.13,13.13-22.97,14.36c-1.85,1.23-5.54,3.69-5.33,4.51c0.21,0.82-10.87,18.87-10.87,18.87s-3.28,4.31-0.21,8.2
					c3.08,3.9,5.95,1.23,7.38,0.41c1.44-0.82,12.72-11.49,12.72-11.49l10.41,24.84c0,0,14.41-9.66,29.79-9.05l-10.26-40.2
					c0,0,14.15-10.67,14.56-14.36C244.63,104.22,239.71,101.35,236.22,101.76z"/>
			</defs>
			<use xlink:href="#XMLID_2_"  style="overflow:visible;fill:#FFFFFF;"/>
			<clipPath id="XMLID_3_">
				<use xlink:href="#XMLID_2_"  style="overflow:visible;"/>
			</clipPath>
			<path class="st11" d="M236.22,101.76c-1.4,0.16-3.68,1.25-5.96,2.53c0.78-0.14,1.83-0.03,2.75,1.15
				c1.69,2.18-1.94,9.19-1.94,9.19s-1.49-9.7-1.45-6.77c0.03,2.92-0.73,11.86-0.73,11.86s-4.84-5.81-4.6-4.36
				c0.24,1.45,3.39,15,5.32,20.08c1.94,5.08-1.45,19.36-3.39,23.47c-1.94,4.11-0.73-17.42-2.9-12.1
				c-2.18,5.32-9.44,20.08-11.13,21.53c-1.63,1.39,0.54-19.73,1.14-22.49c-0.74,2.3-5.74,16.92-5.74,16.92l-6.77-17.42
				c0,0-11.61-9.44-10.4-7.74c1.21,1.69,4.11,7.02,4.11,7.02s-7.02-1.45-5.81-0.97c1.21,0.48,6.53,3.15,6.53,3.15
				s-10.89,7.74-14.03,8.71c-0.85,0.26-1.74,0.4-2.59,0.47c0.21,0.58,0.51,1.17,0.97,1.75c3.08,3.9,5.95,1.23,7.38,0.41
				c1.44-0.82,12.72-11.49,12.72-11.49l10.41,24.84c0,0,14.41-9.66,29.79-9.05l-10.26-40.2c0,0,14.15-10.67,14.56-14.36
				C244.63,104.22,239.71,101.35,236.22,101.76z"/>
			<path class="st12" d="M236.22,101.76c-1.4,0.16-3.68,1.25-5.96,2.53c0.78-0.14,1.83-0.03,2.75,1.15
				c1.69,2.18-1.94,9.19-1.94,9.19s-1.49-9.7-1.45-6.77c0.03,2.92-0.73,11.86-0.73,11.86s-4.84-5.81-4.6-4.36
				c0.24,1.45,3.39,15,5.32,20.08c1.94,5.08-1.45,19.36-3.39,23.47c-1.94,4.11-0.73-17.42-2.9-12.1
				c-2.18,5.32-9.44,20.08-11.13,21.53c-1.63,1.39,0.54-19.73,1.14-22.49c-0.74,2.3-5.74,16.92-5.74,16.92l-6.77-17.42
				c0,0-11.61-9.44-10.4-7.74c1.21,1.69,4.11,7.02,4.11,7.02s-7.02-1.45-5.81-0.97c1.21,0.48,6.53,3.15,6.53,3.15
				s-10.89,7.74-14.03,8.71c-0.85,0.26-1.74,0.4-2.59,0.47c0.21,0.58,0.51,1.17,0.97,1.75c3.08,3.9,5.95,1.23,7.38,0.41
				c1.44-0.82,12.72-11.49,12.72-11.49l10.41,24.84c0,0,14.41-9.66,29.79-9.05l-10.26-40.2c0,0,14.15-10.67,14.56-14.36
				C244.63,104.22,239.71,101.35,236.22,101.76z"/>
			
				<use xlink:href="#XMLID_2_"  style="overflow:visible;fill:none;stroke:#263238;stroke-linecap:round;stroke-linejoin:round;stroke-miterlimit:10;"/>
		</g>
		<path class="st7" d="M210.12,171.52c0,0-1.08-7.15,0.87-16.9"/>
		<path class="st7" d="M208.17,158.95c0,0,0-3.47,3.9-14.3"/>
		<polyline class="st7" points="191.71,137.66 199.71,146.68 191.51,140.73 		"/>
		<polyline class="st7" points="229.66,110.79 229.66,122.27 232.32,107.5 		"/>
	</g>
</g>
<g>
	<path class="st13" d="M232.41,174.61c-0.02,0.05-0.04,0.14-0.07,0.26C232.43,174.59,232.46,174.48,232.41,174.61z"/>
</g>
</svg>
