<?xml version="1.0" encoding="utf-8"?>
<!-- Generator: Adobe Illustrator 24.0.2, SVG Export Plug-In . SVG Version: 6.00 Build 0)  -->
<svg version="1.1" id="Layer_1" xmlns="http://www.w3.org/2000/svg" xmlns:xlink="http://www.w3.org/1999/xlink" x="0px" y="0px"
	 viewBox="0 0 400 400" style="enable-background:new 0 0 400 400;" xml:space="preserve">
<style type="text/css">
	.st0{clip-path:url(#XMLID_2_);}
	.st1{fill:#383A45;}
	.st2{fill:#FFF9EF;}
	.st3{fill:#F4BB9D;}
	.st4{fill:#D4EBE0;}
	.st5{fill:#E9946F;}
	.st6{fill:#557A84;}
	.st7{opacity:0.3;fill:#4B6D79;}
	.st8{fill:#F4EEDB;}
	.st9{fill:#F2BD61;}
	.st10{fill:#FFF9F0;}
	.st11{fill:#70CACC;}
</style>
<g>
	<defs>
		<path id="XMLID_3_" d="M81.2,68.43c0,0,129.39-77.06,185.63-44.34s-36.56,121.19,9.89,104.69
			c48.25-17.14,106.29,2.51,109.17,43.96c3.98,57.15-101.92,100.39-80.67,97.87c45.58-5.39,71.35,7.1,45.58,35.99
			c-33.97,38.08-97.69,36.15-119.9,55.13c-31.36,26.8-63.66,1.74-105.49,15.7C28.04,409.95-5.51,282.51,44.24,231.91
			c19.95-20.29,84.51-61.29,43.24-65.64C19.59,159.12-24.31,127.52,81.2,68.43z"/>
	</defs>
	<use xlink:href="#XMLID_3_"  style="overflow:visible;opacity:0.5;fill:#038DA6;"/>
	<clipPath id="XMLID_2_">
		<use xlink:href="#XMLID_3_"  style="overflow:visible;opacity:0.5;"/>
	</clipPath>
	<g class="st0">
		<circle class="st1" cx="154.82" cy="157.28" r="16.02"/>
		<circle class="st1" cx="227.42" cy="157.28" r="16.02"/>
		<path class="st2" d="M272.93,408.23c0,0,11.78-67.34,12.05-81.6c0.27-14.27-174.25,10.08-174.25,10.08l13.15,71.53H272.93z"/>
		<path class="st3" d="M118.92,351.87c0,0-16.02-72.96,28.47-86.3c44.49-13.35,38.5-39.11,16.02-68.35
			c-40.13-52.18,36.9-105.82,54.27-73.12c35.38,66.6,1.43,70.91-6.28,93.46c-9.29,27.15-3.1,33.75,25.93,43.21
			c42.39,13.81,33.23,91.11,33.23,91.11H118.92z"/>
		<path class="st2" d="M173.64,251.63c0,0-0.4,28.41,22.21,25.24c18.84-2.64,19.34-26.24,19.34-26.24s23.34,7.46,32.07,12.15
			c8.73,4.7,52.23,26.95,32.78,89.09h-161.1c0,0-13.71-33.06,0-62.74C134.37,255.71,164.92,258.84,173.64,251.63z"/>
		<path class="st4" d="M158.98,289.26c0,0,24.38,84.97,96.24,28.52v90.45h-94.35L158.98,289.26z"/>
		<path class="st3" d="M157.42,176.04c1.48,6.61,1.47,15.72-3.77,15.72c-5.24,0-15.21-10.48-15.21-15.72c0-5.24,4.25-9.49,9.49-9.49
			C153.17,166.54,156.27,170.92,157.42,176.04z"/>
		<path class="st3" d="M228.27,176.04c-1.48,6.61-1.47,15.72,3.77,15.72c5.24,0,15.21-10.48,15.21-15.72c0-5.24-4.25-9.49-9.49-9.49
			S229.41,170.92,228.27,176.04z"/>
		<path class="st5" d="M180.52,237.34c0,0,18.04,5.59,27.49-7.86c0,0,2.8-13.11,3.59-14.69c0.79-1.58-0.79,1.58-0.79,1.58h-37.17
			C173.64,216.37,181.47,225.49,180.52,237.34z"/>
		<path class="st1" d="M160.98,145.19c0,0-9,43.6,5.64,56.65c14.63,13.05,13.37-15.42,28.47-16.01c10.28-0.4,14.78,26.31,30.14,9.55
			c10.05-10.96-0.23-54.12-0.23-54.12l8.64,5.7c0,0,10.3,75.96-37.95,79.45c-49.21,3.56-48.05-72.21-43.82-80.93
			C151.87,145.49,157.42,141.24,160.98,145.19z"/>
		<circle class="st1" cx="176.6" cy="168.03" r="3.36"/>
		<circle class="st1" cx="215.18" cy="166.54" r="3.36"/>
		<path class="st1" d="M195.6,185.71c-0.09,0-0.18-0.01-0.28-0.03c-2.81-0.6-4.33-6.84-4.6-8.08l1.78-0.39
			c0.61,2.73,1.84,5.76,2.87,6.52c0.59-2.03-0.1-10.72-1.14-18.21l1.8-0.25c0.95,6.78,2.26,18.42,0.47,20.08
			C196.24,185.59,195.93,185.71,195.6,185.71z"/>
		<circle class="st5" cx="170.08" cy="183.9" r="4.75"/>
		<circle class="st5" cx="217.91" cy="183.9" r="4.75"/>
		<path class="st1" d="M149.25,186.12c-0.51-7.93-2.21-9.51-2.91-9.83c-0.68-0.3-1.32,0.19-1.34,0.21l-1.15-1.41
			c0.55-0.45,1.84-1.06,3.2-0.48c2.28,0.98,3.59,4.71,4.02,11.39L149.25,186.12z"/>
		<path class="st1" d="M235.37,186.12l-1.82-0.12c0.43-6.68,1.74-10.41,4.02-11.39c1.36-0.59,2.65,0.02,3.2,0.48l-1.15,1.41
			c-0.03-0.02-0.67-0.51-1.34-0.21C237.58,176.6,235.88,178.19,235.37,186.12z"/>
		<path class="st5" d="M160.98,145.19c0,0,11.53-12.14,22.86-10.17c11.33,1.97,15.01,21.2,42.98,15.16c0,0-16.35-6.24-25.58-13.58
			C192.02,129.27,182.22,110.28,160.98,145.19z"/>
		<path class="st1" d="M160.98,145.19c0,0,13.35-22.54,25.21-18.98c11.86,3.56,30.35,30.86,45.87,22.4c0,0-1.08-42.96-41.12-41.18
			C150.9,109.21,149.65,159.13,160.98,145.19z"/>
		<path class="st4" d="M193.69,285.76c-25.43,0-28.23-26.61-28.25-26.88l0.91-0.09c0.03,0.27,2.81,26.57,28.03,26.04
			c25.24-0.48,27.8-29.61,27.82-29.9l0.91,0.07c-0.02,0.3-2.64,30.24-28.71,30.74C194.15,285.76,193.92,285.76,193.69,285.76z"/>
		<path class="st6" d="M142.96,163.64l-0.03-0.91c0.06,0,6.02-0.26,9.76-4.8c2.74-3.33,3.64-8.11,2.68-14.2l0.9-0.14
			c1.01,6.36,0.04,11.39-2.88,14.93C149.38,163.37,143.22,163.63,142.96,163.64z"/>
		<path class="st6" d="M138.8,157.74l-0.01-0.91c0.04,0,3.95-0.06,7.81-2.01c5.12-2.6,7.73-7.16,7.75-13.55l0.91,0
			C155.2,157.42,138.97,157.74,138.8,157.74z"/>
		<path class="st6" d="M236.9,161.01c-0.42,0-0.83-0.07-1.23-0.21c-5.16-1.86-5.83-15.45-5.86-16.02l0.91-0.04
			c0.01,0.14,0.67,13.55,5.26,15.21c1.61,0.58,3.59-0.42,5.9-2.96l0.67,0.61C240.49,159.86,238.6,161.01,236.9,161.01z"/>
		<path class="st1" d="M184.93,159.87c0,0-3.01,2.15-6.91,2.69c-3.9,0.54-15.26,0.14-16.38,0.29
			C160.52,163,170.8,152.3,184.93,159.87z"/>
		<path class="st1" d="M203.39,155.98c0,0,10.72-8.32,15.16-5.82c4.78,2.69,4.37,5.82,4.37,5.82s-6.79-1.75-7.65-1.38
			C211.41,156.31,206.68,158.58,203.39,155.98z"/>
		<path class="st3" d="M206.15,209.26c0,0-5.68-19.87-12.1-18.56s-11.54,15.44-9.56,21.68
			C186.47,218.62,206.45,218.78,206.15,209.26z"/>
		<path class="st1" d="M188.79,203.33l-1.36-1.21c0.22-0.25,5.5-6.05,10.16-5.98c1.55,0.04,2.85,0.7,3.87,1.96l-1.42,1.15
			c-0.68-0.84-1.5-1.26-2.5-1.29c-0.03,0-0.06,0-0.09,0C194.29,197.96,190.14,201.83,188.79,203.33z"/>
		<path class="st1" d="M198.62,203.59c-3.21-1.06-5.77-0.03-5.79-0.02l-0.69-1.68c0.13-0.05,3.21-1.29,7.06-0.02L198.62,203.59z"/>
		<path class="st7" d="M170.83,114.11c0,0,9.72-6.35,19.58,0.87s29.06,35.68,39.33,20.55c0,0-4.67-18.76-19.13-24.01
			C196.16,106.28,185.41,106.01,170.83,114.11z"/>
		<path class="st6" d="M223.96,148.55c-3.47,0-7.42-4.2-12.35-9.44c-4.84-5.14-10.86-11.55-18.08-15.52
			c-17.76-9.76-33.77,18.75-33.93,19.04l-0.8-0.44c0.16-0.3,16.61-29.6,35.17-19.39c7.35,4.04,13.42,10.5,18.31,15.69
			c5.05,5.37,9.02,9.61,12.19,9.11c1.51-0.24,2.83-1.59,4.04-4.15l0.82,0.39c-1.35,2.85-2.9,4.37-4.73,4.66
			C224.4,148.53,224.18,148.55,223.96,148.55z"/>
		<path class="st6" d="M224.33,144.13c-3.92,0-6.49-3.52-10.22-8.64c-3.36-4.61-7.55-10.35-14.55-16.38
			c-5.66-4.88-11.41-6.66-17.09-5.29c-14.84,3.57-24.71,27.38-24.81,27.62l-0.84-0.34c0.02-0.06,2.54-6.17,6.89-12.65
			c4.04-6.01,10.53-13.58,18.55-15.51c5.99-1.44,12.01,0.41,17.9,5.48c7.08,6.1,11.3,11.89,14.69,16.54
			c5.39,7.39,7.85,10.76,15.19,6.18l0.48,0.77C228.05,143.45,226.06,144.13,224.33,144.13z"/>
		<path class="st6" d="M228.3,139.35c-0.07,0-0.14,0-0.2-0.01c-2.43-0.12-6.7-2.56-13.3-13.45c-11.24-18.55-27.13-15.81-30.2-15.07
			l-0.21-0.89c3.18-0.76,19.63-3.61,31.19,15.48c6.7,11.06,10.72,12.9,12.53,13.01c1.23,0.08,1.79-0.6,1.81-0.63l0.72,0.55
			C230.6,138.41,229.87,139.35,228.3,139.35z"/>
		<path class="st5" d="M168.9,138.9c0,0-7.87,6.54-7.92,19.81c-0.05,13.27,0.74,47.17,15.62,45c0,0-4.97,6.01-11.68-4.49
			c-6.71-10.49-10.79-30.07-3.94-54.03C160.98,145.19,167.27,137.11,168.9,138.9z"/>
		<path class="st1" d="M228.04,254.98c0,0-2.38,140.62-1.22,153.25h47.43c0,0,15.27-89.96,10.15-111.38
			C277.23,266.83,228.04,254.98,228.04,254.98z"/>
		<path class="st1" d="M163.47,256.01c0,0,8.52,139.6,7.36,152.22h-46.95c0,0-21.9-89.96-16.78-111.38
			C114.28,266.83,163.47,256.01,163.47,256.01z"/>
		<path class="st6" d="M117.55,374.5l0.11-1.56c0.01-0.2,1.66-20.02,25.06-32.68l0.43,0.8c-19.1,10.34-23.43,25.44-24.35,30.35
			c7.55-8.56,30.73-23.24,31.77-23.89l0.49,0.77c-0.26,0.17-26.58,16.82-32.58,24.96L117.55,374.5z"/>
		<path class="st6" d="M161.14,350.83c-11.67-24.81-18.57-55.53-18.64-55.83l0.89-0.2c0.07,0.31,6.95,30.92,18.58,55.64
			L161.14,350.83z"/>
		<path class="st3" d="M242.15,359.58c0,0-69.89,38.32-95.34,40.2c-25.45,1.88-28.69-26.82-28.69-26.82s31.66-15.84,48.26-23.06
			c0,0,37.4-10.67,79.05-9.25C245.42,340.65,250.64,352.51,242.15,359.58z"/>
		<path class="st5" d="M148.06,358.34c0,0-23.3,10.46-22.05,20.86c1.25,10.4,7.91,21.34,27.86,15.77s76.41-37.63,90.8-38.16
			l0.75,2.79c0,0-31.05,14.79-45.14,21.14c-14.09,6.35-70.53,47.88-82.17-7.77C118.12,372.97,123.13,370.8,148.06,358.34z"/>
		<g>
			<g>
				<path class="st3" d="M261.14,242.68c0,0-17.88-31.1-26.13-34.52c-8.25-3.42-27.3,3.68-27.3,3.68l2.51,6.37
					c0,0,24.34-11.98,28.72,6.4c0,0-13.85-3.31-19.84,3.34c-6.24,6.94-5.83,17.68-5.83,17.68l7.36,1.5c0,0-2.71-16.78,13.8-17.41
					c0,0-13.97,1.62-10.44,20.21l6.52,1.84c0,0-2.13-18.83,9.26-18.24c0,0-12.09,3.21-5.58,18.54l6.04-0.54
					c0,0-5.02-11.25,1.66-13.19c0,0-0.89,13.19,8.19,20.95c0,0-3.88,35.06-5.67,57.36c-2.2,27.51-14.49,99.26,40.27,68.3l0,0
					C284.69,384.94,276.69,268.04,261.14,242.68z"/>
				<path class="st1" d="M211.08,216.96l-0.42-0.81c2.05-1.06,4.34-2.49,4.68-3.05c-0.5-0.28-3.35-0.47-5.79-0.43l-0.01-0.91
					c4.19-0.07,6.45,0.3,6.72,1.08C216.36,213.15,216.67,214.09,211.08,216.96z"/>
				
					<rect x="223.53" y="208.15" transform="matrix(0.9948 -0.1015 0.1015 0.9948 -20.2123 23.8222)" class="st1" width="0.91" height="4.76"/>
				
					<rect x="225.51" y="208.15" transform="matrix(0.9973 -0.0738 0.0738 0.9973 -14.9379 17.25)" class="st1" width="0.91" height="5.23"/>
				
					<rect x="225.76" y="210.07" transform="matrix(0.1016 -0.9948 0.9948 0.1016 -4.4875 416.0861)" class="st1" width="4.76" height="0.91"/>
				<path class="st1" d="M219.27,245.36l-0.91-0.03c0.07-2.41-0.16-6.52-1.08-7.26c-0.55,0.08-1.57,2.95-2.17,6.01l-0.89-0.17
					c0.28-1.44,1.31-6.19,2.72-6.71c0.31-0.12,0.64-0.06,0.91,0.16C219.39,238.6,219.3,244.24,219.27,245.36z"/>
				<path class="st1" d="M228.83,249.5l-0.91-0.02c0.04-2.08-0.33-5.28-1.22-5.54c-0.08-0.02-0.14-0.01-0.21,0.04
					c-0.63,0.45-0.99,2.83-1.04,4.37l-0.91-0.03c0.03-0.7,0.21-4.21,1.42-5.08c0.3-0.22,0.65-0.28,1-0.17
					C228.84,243.62,228.85,248.53,228.83,249.5z"/>
				<path class="st1" d="M234.78,250.85c-0.14-2.35-0.06-5.21,1.08-5.47c0.63-0.14,1.44,0.27,3.05,4.21l-0.84,0.35
					c-1.39-3.41-1.99-3.65-2.05-3.67c-0.27,0.24-0.46,2.36-0.34,4.53L234.78,250.85z"/>
				<path class="st1" d="M224.58,230.65c-0.49-1.05-1.97-2.94-1.99-2.96l0.72-0.56c0.06,0.08,1.56,1.99,2.09,3.14L224.58,230.65z"/>
				<path class="st1" d="M223.04,231.29c-0.09-0.42-1.29-1.69-2.35-2.62l0.6-0.68c0.57,0.5,2.44,2.2,2.64,3.11L223.04,231.29z"/>
				<path class="st1" d="M231.47,235.61c-1.04-0.51-3.38-1.07-3.4-1.08l0.21-0.89c0.1,0.02,2.46,0.59,3.59,1.15L231.47,235.61z"/>
				<path class="st1" d="M230.66,237.08c-0.34-0.27-2.07-0.52-3.47-0.59l0.04-0.91c0.76,0.04,3.28,0.2,4,0.79L230.66,237.08z"/>
				<path class="st1" d="M238.32,239.03c-0.95-0.4-3.14-0.77-3.16-0.77l0.15-0.9c0.09,0.02,2.32,0.39,3.37,0.83L238.32,239.03z"/>
				<path class="st1" d="M237.43,240.43c-0.28-0.21-1.9-0.33-3.23-0.3l-0.02-0.91c0.72-0.02,3.13-0.02,3.8,0.48L237.43,240.43z"/>
			</g>
			<path class="st5" d="M249.03,269.01c0,0-10.49,98.31,3.81,110.66s31.46,0,31.46,0l0.39,5.27c0,0-31.27,24.61-40.63-8.58
				C236.87,350.87,249.03,269.01,249.03,269.01z"/>
		</g>
	</g>
</g>
<circle class="st8" cx="307.44" cy="190.59" r="11.14"/>
<circle class="st8" cx="280.72" cy="200.38" r="9.72"/>
<path class="st8" d="M386,91.45c0-12.86-10.42-23.28-23.28-23.28c-0.32,0-0.64,0.01-0.96,0.02c0.62-1.89,0.96-3.91,0.96-6.01
	c0-10.64-8.62-19.26-19.26-19.26c-5.3,0-10.09,2.14-13.57,5.6c-0.78-5.04-5.12-8.91-10.38-8.91c-4.9,0-9,3.35-10.17,7.88
	c-3.51-4.78-9.16-7.88-15.54-7.88c-8.33,0-15.43,5.29-18.11,12.69c-2.16-0.66-4.46-1.02-6.84-1.02c-12.86,0-23.28,10.42-23.28,23.28
	c0,4.27,1.15,8.26,3.16,11.7c-5.07,0.76-8.96,5.11-8.96,10.39c0,4.19,2.46,7.8,6.01,9.49c-3.74,4.13-6.01,9.6-6.01,15.61
	c0,12.86,10.42,23.28,23.28,23.28c0.82,0,1.63-0.04,2.43-0.13c-0.18,1.06-0.28,2.14-0.28,3.25c0,10.64,8.62,19.26,19.26,19.26
	c5.54,0,10.53-2.34,14.04-6.08c-0.01,0.21-0.03,0.41-0.03,0.62c0,5.81,4.71,10.52,10.52,10.52c5.81,0,10.52-4.71,10.52-10.52
	c0-0.14-0.02-0.28-0.02-0.42c0.03,0,0.06-0.01,0.09-0.01c0.33,5.51,4.89,9.88,10.49,9.88c5.81,0,10.52-4.71,10.52-10.52
	c0-1.63-0.38-3.17-1.05-4.55c3.24,2.47,7.28,3.94,11.68,3.94c10.64,0,19.26-8.62,19.26-19.26c0-3.53-0.95-6.83-2.61-9.68
	c0.24,0.02,0.48,0.04,0.73,0.04c5.81,0,10.52-4.71,10.52-10.52c0-3.83-2.06-7.18-5.12-9.02C381.14,107.87,386,100.23,386,91.45z"/>
<g>
	<path class="st9" d="M312.58,134.02l-7.33-65.15c0,0-25.11,3.82-23.22,26.57c1.99,23.98,17.88,13.78,19.36,39.83L312.58,134.02z"/>
	<path class="st9" d="M312.58,134.02l-7.33-65.15c0,0,23.43-4.46,28.55,20.75c4.79,23.58-14.37,17.41-10.03,43.14L312.58,134.02z"/>
	<polygon class="st1" points="301.19,132.74 323.31,129.33 325.33,147.34 303.11,149.84 	"/>
	<polygon class="st1" points="307.44,145.25 320.05,143.37 321.06,152.38 308.4,153.8 	"/>
	<path class="st10" d="M304.31,132.22l-3.36-29.88l1.49-0.26c0.64,2.75,1.89,5.89,2.74,6.17c0.04,0.01,0.1,0.03,0.24-0.09
		c0.32-0.27,0.58-0.67,0.78-1.17c-0.53-0.57-0.98-1.27-1.3-2c-0.78-1.8-0.5-3.3,0.72-3.89c0.51-0.25,1.26-0.23,1.81,0.61
		c0.66,1.01,0.9,3.01,0.5,4.8c0.47,0.34,0.96,0.49,1.36,0.34c0.42-0.16,0.82-0.51,1.16-0.97c-0.8-1.43-1.26-3.3-0.95-4.37
		c0.19-0.66,0.65-1.07,1.27-1.14c1.13-0.13,1.96,0.46,2.23,1.58c0.26,1.09-0.06,2.62-0.75,3.92c0.02,0.03,0.04,0.05,0.06,0.08
		c0.31,0.36,0.57,0.51,0.66,0.46c1.02-0.56,1.49-3.65,1.5-5.67l1.51-0.08l3.38,30.04l-1.51,0.17l-2.79-24.79
		c-0.33,0.73-0.77,1.34-1.37,1.67c-0.37,0.2-1.12,0.43-2.03-0.3c-0.1-0.08-0.21-0.18-0.31-0.28c-0.45,0.51-0.98,0.91-1.55,1.12
		c-0.79,0.3-1.63,0.15-2.4-0.29c-0.26,0.52-0.6,0.99-1.02,1.34c-0.52,0.44-1.12,0.57-1.7,0.37c-0.58-0.19-1.1-0.73-1.56-1.43
		l2.68,23.79L304.31,132.22z M306.17,102.55c-0.32,0.32-0.17,1.15,0.13,1.84c0.08,0.2,0.18,0.39,0.29,0.58
		c0.01-0.15,0.01-0.3,0-0.45C306.57,103.49,306.34,102.81,306.17,102.55z M311.09,101.86c-0.04,0-0.09,0-0.14,0.01
		c-0.16,0.23-0.02,1.25,0.38,2.31c0.23-0.7,0.32-1.39,0.21-1.88C311.45,101.96,311.32,101.86,311.09,101.86z"/>
	<path class="st8" d="M307.6,72.09c0,0,15.81,3.53,20.28,15.29s1.28,18.73,2.01,17.83c0.73-0.9,4.04-4.98,1.15-16.25
		C328.16,77.68,318.26,68.07,307.6,72.09z"/>
	
		<rect x="301.29" y="132.66" transform="matrix(0.9919 -0.1269 0.1269 0.9919 -14.3578 40.7343)" class="st10" width="22.36" height="0.76"/>
	
		<rect x="301.75" y="136.75" transform="matrix(0.9938 -0.1113 0.1113 0.9938 -13.3171 35.6778)" class="st10" width="22.36" height="0.76"/>
	
		<rect x="302.17" y="140.71" transform="matrix(0.9823 -0.1875 0.1875 0.9823 -20.8941 61.2511)" class="st10" width="22.42" height="0.76"/>
	
		<rect x="302.54" y="143.71" transform="matrix(0.9938 -0.1113 0.1113 0.9938 -14.0864 35.8082)" class="st10" width="22.36" height="0.76"/>
</g>
<g>
	<path class="st11" d="M303.98,63.79c-0.76,0-1.42-0.57-1.51-1.35l-0.63-5.57c-0.09-0.83,0.51-1.58,1.34-1.68
		c0.83-0.1,1.58,0.5,1.68,1.34l0.63,5.57c0.09,0.83-0.51,1.58-1.34,1.68C304.1,63.78,304.04,63.79,303.98,63.79z"/>
	<g>
		<path class="st11" d="M317.78,64.22c-0.12,0-0.25-0.02-0.37-0.05c-0.81-0.21-1.3-1.03-1.1-1.85l1.38-5.44
			c0.21-0.81,1.03-1.31,1.85-1.1c0.81,0.21,1.3,1.03,1.1,1.85l-1.38,5.44C319.07,63.77,318.46,64.22,317.78,64.22z"/>
		<path class="st11" d="M329.23,69.56c-0.27,0-0.55-0.07-0.8-0.23c-0.71-0.44-0.93-1.38-0.49-2.09l2.96-4.76
			c0.44-0.71,1.38-0.93,2.09-0.49c0.71,0.44,0.93,1.38,0.49,2.09l-2.96,4.76C330.23,69.31,329.73,69.56,329.23,69.56z"/>
		<path class="st11" d="M337.13,77.53c-0.55,0-1.08-0.3-1.35-0.82c-0.39-0.74-0.1-1.66,0.65-2.05l4.97-2.59
			c0.74-0.39,1.66-0.1,2.05,0.64c0.39,0.74,0.1,1.66-0.65,2.05l-4.97,2.59C337.61,77.47,337.37,77.53,337.13,77.53z"/>
		<path class="st11" d="M340.56,86.2c-0.7,0-1.33-0.49-1.48-1.21c-0.17-0.82,0.35-1.63,1.17-1.8l5.49-1.15
			c0.82-0.17,1.63,0.35,1.8,1.17c0.17,0.82-0.35,1.63-1.17,1.8l-5.49,1.15C340.77,86.19,340.67,86.2,340.56,86.2z"/>
		<path class="st11" d="M346.48,109.27c-0.22,0-0.44-0.05-0.65-0.15l-5.06-2.42c-0.76-0.36-1.08-1.27-0.71-2.03
			c0.36-0.76,1.27-1.08,2.03-0.71l5.06,2.42c0.76,0.36,1.08,1.27,0.71,2.03C347.59,108.96,347.05,109.27,346.48,109.27z"/>
		<path class="st11" d="M340.42,120.15c-0.33,0-0.67-0.11-0.95-0.33l-4.38-3.5c-0.66-0.52-0.76-1.48-0.24-2.13
			c0.52-0.66,1.48-0.76,2.13-0.24l4.38,3.5c0.66,0.52,0.76,1.48,0.24,2.13C341.3,119.96,340.86,120.15,340.42,120.15z"/>
		<path class="st11" d="M348.23,97.25c-0.06,0-0.12,0-0.18-0.01l-5.57-0.66c-0.83-0.1-1.43-0.85-1.33-1.69
			c0.1-0.83,0.85-1.43,1.69-1.33l5.57,0.66c0.83,0.1,1.43,0.85,1.33,1.69C349.65,96.68,348.99,97.25,348.23,97.25z"/>
	</g>
	<g>
		<path class="st11" d="M292.68,67.05c-0.55,0-1.08-0.3-1.35-0.83l-2.55-4.99c-0.38-0.75-0.09-1.66,0.66-2.04
			c0.75-0.38,1.66-0.09,2.04,0.66l2.55,4.99c0.38,0.75,0.09,1.66-0.66,2.04C293.15,67,292.91,67.05,292.68,67.05z"/>
		<path class="st11" d="M282.7,74.8c-0.39,0-0.78-0.15-1.08-0.45l-3.95-3.98c-0.59-0.6-0.59-1.56,0.01-2.15
			c0.6-0.59,1.56-0.59,2.15,0.01l3.95,3.98c0.59,0.6,0.59,1.56-0.01,2.15C283.47,74.65,283.08,74.8,282.7,74.8z"/>
		<path class="st11" d="M276.76,84.32c-0.13,0-0.26-0.02-0.39-0.05l-5.43-1.42c-0.81-0.21-1.3-1.04-1.08-1.85
			c0.21-0.81,1.04-1.3,1.85-1.08l5.43,1.42c0.81,0.21,1.3,1.04,1.08,1.85C278.05,83.87,277.44,84.32,276.76,84.32z"/>
		<path class="st11" d="M269.74,93.64c-0.83,0-1.5-0.66-1.52-1.49c-0.01-0.84,0.65-1.53,1.49-1.54l5.61-0.1c0.01,0,0.02,0,0.03,0
			c0.83,0,1.5,0.66,1.52,1.49c0.01,0.84-0.65,1.53-1.49,1.54l-5.61,0.1C269.75,93.64,269.74,93.64,269.74,93.64z"/>
		<path class="st11" d="M274.7,117.35c-0.45,0-0.89-0.2-1.19-0.58c-0.52-0.66-0.41-1.61,0.25-2.13l4.39-3.48
			c0.66-0.52,1.61-0.41,2.13,0.25c0.52,0.66,0.41,1.61-0.25,2.13l-4.39,3.48C275.36,117.25,275.03,117.35,274.7,117.35z"/>
		<path class="st11" d="M283.03,126.61c-0.33,0-0.67-0.11-0.95-0.33c-0.66-0.52-0.76-1.48-0.24-2.13l3.5-4.38
			c0.52-0.66,1.48-0.76,2.13-0.24c0.66,0.52,0.76,1.48,0.24,2.13l-3.5,4.38C283.92,126.41,283.48,126.61,283.03,126.61z"/>
		<path class="st11" d="M270.32,106.02c-0.62,0-1.21-0.39-1.43-1.01c-0.28-0.79,0.13-1.66,0.92-1.94l5.28-1.89
			c0.79-0.28,1.66,0.13,1.94,0.92c0.28,0.79-0.13,1.66-0.92,1.94l-5.28,1.89C270.67,105.99,270.49,106.02,270.32,106.02z"/>
	</g>
</g>
<g>
	<path class="st8" d="M139.72,94.78c-1.37-1.39-1.79-3.45-1.15-5.29l1.33-3.83c0.3-1.1,1.24-3.81,3.62-6.55
		c2.53-2.92,7.25-6.49,15.37-6.86c6.92-0.32,8.4-5.71,8.64-6.91c0.06-0.44,0.15-0.65,0.33-1.19c1.51-4.31,0.26-9.14-3.22-12.1
		c-6.83-5.8-16.39-2.51-18.8,5.11c-0.57,1.79-2.12,3.12-3.97,3.4c-4.81,0.74-7.88-3.56-6.55-7.4c4.13-11.87,17.14-18.18,29.01-14.05
		c11.73,4.08,18.02,16.83,14.19,28.59c-1.11,5.48-6.35,15.18-19.12,15.78c-7.37,0.34-8.63,5.01-8.64,5.06
		c-0.05,0.21-0.1,0.41-0.17,0.61l-1.3,3.74C147.99,96.66,143.04,98.14,139.72,94.78z"/>
	<circle class="st8" cx="139.86" cy="103.72" r="6.19"/>
</g>
<g>
	<path class="st8" d="M93.09,119.91c-2.57,0.47-5.18-0.61-6.74-2.71l-3.25-4.36c-0.99-1.16-3.3-4.25-4.56-8.95
		c-1.34-5.01-1.75-12.93,3.95-22.23c4.85-7.92-0.02-13.62-1.17-14.79c-0.44-0.4-0.61-0.65-1.07-1.26
		c-3.65-4.92-9.96-7.17-15.86-5.53C52.8,63.29,49.28,76.38,55.92,84.8c1.56,1.97,1.87,4.7,0.79,6.97c-2.8,5.9-9.89,6.07-13.15,1.7
		c-10.08-13.52-7.28-32.71,6.23-42.79c13.35-9.96,32.25-7.35,42.43,5.75c5.24,5.36,12.08,18.48,3.13,33.1
		c-5.17,8.44-0.93,13.35-0.88,13.4c0.19,0.21,0.38,0.42,0.55,0.65l3.17,4.26C101.4,112.15,99.32,118.76,93.09,119.91z"/>
	<circle class="st8" cx="103.13" cy="126.49" r="8.3"/>
</g>
<circle class="st8" cx="250.08" cy="197.4" r="6.81"/>
</svg>
