<?xml version="1.0" encoding="utf-8"?>
<!-- Generator: Adobe Illustrator 24.0.2, SVG Export Plug-In . SVG Version: 6.00 Build 0)  -->
<svg version="1.1" id="Layer_1" xmlns="http://www.w3.org/2000/svg" xmlns:xlink="http://www.w3.org/1999/xlink" x="0px" y="0px"
	 viewBox="0 0 400 400" style="enable-background:new 0 0 400 400;" xml:space="preserve">
<style type="text/css">
	.st0{fill:#FBF8CC;}
	.st1{fill:#033D5E;}
	.st2{fill:#FFD24B;}
	.st3{fill:#00659D;}
	.st4{fill:#FBCBB1;}
	.st5{fill:#FDBE1D;}
	.st6{fill:#00A8A0;}
	.st7{fill:#009A8B;}
	.st8{fill:#F05743;}
	.st9{fill:#E63225;}
	.st10{fill:#F9B189;}
	.st11{fill:#003D39;}
	.st12{fill:#FFFFFF;}
	.st13{fill:#0A1528;}
	.st14{fill:#004C67;}
	.st15{fill:#E28E60;}
	.st16{fill:#EB9D72;}
	.st17{fill:#D27339;}
	.st18{fill:#006B90;}
</style>
<path class="st0" d="M90.97,48.24c0,0,50.83-35.78,166.03-34.19c144.75,2,89.24,180.78,67.48,250.47
	c-25.13,80.5-184.32,152.96-192.46,88.96c-19.21-151.16-26.16-25.14-81.22-114.91C-20.27,122.7,90.97,48.24,90.97,48.24z"/>
<g>
	<path class="st1" d="M61.89,215.68c-1.26-1.57-2.41-3.23-3.42-4.96l0.21-0.12c0.53-4.15,0.18-8.65-2.3-12.01
		c-0.25-0.34-0.52-0.67-0.81-0.99c-0.86-0.96-1.86-1.8-2.86-2.64c-0.54-0.46-1.07-0.9-1.61-1.35l0.61-0.72
		c4.66,2.36,9.07,5.21,13.15,8.5c0.16,0.39,0.3,0.79,0.42,1.21c0.46,1.6,0.58,3.28,0.65,4.93c0.02,0.58,0.04,1.16,0.04,1.75
		c0,1.4-0.07,2.8-0.26,4.17c-0.27,1.92-0.79,3.78-1.72,5.48l-0.04-0.02c-0.32-1.16-1.14-2.1-1.9-3.04
		C61.99,215.81,61.94,215.74,61.89,215.68z"/>
	<g>
		<path class="st2" d="M56.36,247.17c-0.72-0.88-1.36-1.8-1.6-2.89c-0.49-2.22,0.81-4.4,2.04-6.3c4.74-7.29,9.48-14.58,14.22-21.87
			c-1.87-0.67-3.66-1.56-5.31-2.67H65.7c0.19-1.37,0.26-2.77,0.26-4.17h0.06c2.24-0.19,4.46-0.64,6.6-1.33l0.21-0.04
			c0.09,0.62,0.18,1.24,0.26,1.87c0.46,3.42,0.81,6.85,1.06,10.3c5.55-2.74,8.45-8.97,13.33-12.79c0.9-0.71,1.93-1.35,3.01-1.71
			l0.02,0.06c2.32,2.77,3.04,6.8,1.83,10.2c-0.78,2.2-2.27,4.06-3.74,5.88c-6.14,7.63-12.27,15.25-18.4,22.88l-0.09,0.56
			c2.76,4.27,5.68,8.44,8.72,12.52c-0.86,0.85-1.78,1.65-2.74,2.39c-1.81,1.4-3.77,2.6-5.84,3.57c-0.32,0.15-0.63,0.29-0.96,0.42
			c-0.56,0.22-1.14,0.39-1.73,0.46l-0.05-0.34c-3.09-5.57-6.2-11.19-10.33-16.03C56.91,247.82,56.63,247.5,56.36,247.17z"/>
		<path class="st3" d="M81.33,277.01c-6.53,0.92-13.07,1.83-19.59,2.74c-0.31,0.05-0.69,0.06-0.86-0.21
			c-0.19-0.3,0.07-0.67,0.32-0.93c3.36-3.49,7.38-6.34,11.78-8.37l0.01,0.02c1.95-0.63,3.91-1.22,5.89-1.77l0.11-0.04
			C79.84,271.29,80.63,274.14,81.33,277.01z"/>
		<path class="st4" d="M78.97,268.46l-0.11,0.04c-1.97,0.55-3.94,1.14-5.89,1.77l-0.01-0.02c0.15-0.07,0.3-0.14,0.46-0.21
			l-0.09-0.37c-1.27-1.86-2.6-3.68-3.99-5.46l-0.06-0.15c0.33-0.13,0.64-0.27,0.96-0.42c2.07-0.98,4.03-2.18,5.84-3.57l0.1,0.12
			C77.2,262.91,78.12,265.68,78.97,268.46z"/>
		<path class="st2" d="M63.98,218.93c0.93-1.7,1.45-3.56,1.72-5.48h0.02c1.65,1.1,3.43,2,5.31,2.67
			c-4.74,7.29-9.48,14.58-14.22,21.87c-1.24,1.9-2.53,4.08-2.04,6.3c0.24,1.09,0.88,2.01,1.6,2.89c-4.52,5.68-9.6,10.92-15.16,15.61
			l-0.12,0.15c-0.44-0.34-0.86-0.69-1.27-1.07c-1.75-1.6-3.22-3.49-4.58-5.47c-0.66-0.96-1.3-1.93-1.92-2.91
			c4-3.79,7.3-8.25,10.57-12.68c3.51-4.76,7.04-9.53,10.55-14.29c2.61-3.53,5.22-7.06,7.46-10.84c0.05,0.06,0.1,0.13,0.15,0.19
			c0.76,0.93,1.58,1.88,1.9,3.04L63.98,218.93z"/>
		<path class="st4" d="M39.81,261.86l-0.03,0.03c-3.08,2.35-6.21,4.62-9.4,6.82l-0.19-0.27c-1.2-1.06-2.41-2.13-3.61-3.2l0.09-0.11
			c2.99-2.77,5.84-5.69,8.56-8.73C36.59,258.37,38.06,260.26,39.81,261.86z"/>
		<path class="st3" d="M30.19,268.44l0.19,0.27c-2.34,1.61-4.69,3.19-7.08,4.72c-4.24-5.05-7.41-10.99-9.25-17.32
			c-0.03-0.11-0.06-0.22-0.03-0.33c0.08-0.26,0.42-0.29,0.68-0.25c1.1,0.2,2,0.96,2.83,1.7c3.02,2.67,6.03,5.34,9.05,8
			C27.78,266.31,28.99,267.38,30.19,268.44z"/>
		<path class="st5" d="M70.29,211.19c-0.06-0.32-0.55-0.18-0.49,0.13c0.51,2.52,0.05,4.97-0.9,7.26c-0.59-1.93-1.02-3.89-1.27-5.89
			c-0.04-0.32-0.55-0.32-0.51,0c0.27,2.19,0.74,4.32,1.41,6.42c0.02,0.05,0.05,0.09,0.08,0.12c-0.49,1.07-1.08,2.1-1.72,3.09
			c-2.09,3.24-4.53,6.26-7.09,9.14c-1.27,1.42-2.56,2.82-3.79,4.27c-1,1.17-2.14,2.41-2.74,3.85c-1.14,2.77,0.64,5.26,2.34,7.33
			c0.21,0.25,0.56-0.11,0.36-0.36c-1.19-1.44-2.57-3.14-2.58-5.11c-0.01-1.97,1.47-3.58,2.66-5c2.34-2.79,4.88-5.39,7.15-8.24
			C67.01,223.48,71.61,217.67,70.29,211.19z"/>
		<path class="st5" d="M68.86,243.49c-3.21-2.22-5.56-5.41-6.74-9.14c-0.1-0.31-0.59-0.18-0.49,0.13c1.22,3.86,3.64,7.14,6.97,9.44
			C68.87,244.11,69.13,243.68,68.86,243.49z"/>
		<path class="st5" d="M69.43,243c-0.83-3.26-1.32-6.58-1.47-9.94c-0.01-0.32-0.52-0.33-0.51,0c0.15,3.41,0.65,6.77,1.49,10.08
			C69.02,243.45,69.51,243.32,69.43,243z"/>
		<path class="st5" d="M71.27,235.82c-0.55,1.99-0.89,4-1.02,6.06c-0.02,0.33,0.49,0.32,0.51,0c0.12-2.01,0.46-3.98,1-5.92
			C71.84,235.64,71.36,235.5,71.27,235.82z"/>
		<path class="st5" d="M39.55,257.36c-0.63-2.15-1.02-4.34-1.16-6.57c-0.02-0.32-0.53-0.33-0.51,0c0.15,2.28,0.54,4.51,1.18,6.71
			C39.15,257.81,39.64,257.67,39.55,257.36z"/>
		<path class="st5" d="M42.36,258.55c-0.88-2.79-1.33-5.65-1.37-8.58c0-0.33-0.51-0.33-0.51,0c0.04,2.97,0.5,5.88,1.39,8.71
			C41.97,258.99,42.45,258.86,42.36,258.55z"/>
	</g>
	<g>
		<path class="st6" d="M28.16,169.63c-0.44-0.94-0.69-1.94-0.48-2.94c0.01-0.02,0.01-0.03,0.01-0.05c0.44-1.93,2.46-3.19,2.95-5.1
			c0.36-1.39-0.15-2.86,0.01-4.28c0.18-1.63,1.39-3.19,3.01-3.46c1.65-0.28,3.23,0.74,4.53,1.8c0.86,0.69,1.79,1.48,2.9,1.45
			c1.69-0.05,2.79-1.97,4.45-2.24c1.08-0.18,2.18,0.4,2.89,1.24c0.71,0.84,1.09,1.9,1.4,2.95c0.16-1.17,1.37-2.09,2.53-1.94
			c1.56,0.2,2.48,1.96,2.49,3.53c0.02,1.57-0.58,3.08-0.78,4.64c-0.19,1.48,0.09,3.19,1.26,4.08l-0.56-0.04
			c-0.93-0.16-1.47-1.13-1.89-1.99c-0.68-1.38-1.47-2.79-2.77-3.61c-0.23-0.15-0.5-0.29-0.78-0.27c-0.28,0.01-0.57,0.2-0.6,0.48
			h-0.01c-0.14,1.8,0.02,3.63,0.48,5.37c0.13,0.51,0.27,1.1-0.04,1.52c-0.32,0.44-0.99,0.47-1.47,0.21c-0.47-0.26-0.8-0.72-1.1-1.16
			c-0.74-1.07-1.48-2.15-2.22-3.23c-0.3-0.44-0.64-0.91-1.13-1.13c-0.79-0.34-1.7,0.08-2.4,0.57c-1.87,1.33-3.24,3.34-3.81,5.56
			c-0.26,1.03-0.44,2.22-1.33,2.8c-0.02,0.02-0.05,0.03-0.07,0.04c-0.32,0.19-0.69,0.28-1.06,0.31c-1,0.09-2.01-0.24-2.87-0.78
			c-0.13-0.08-0.27-0.18-0.4-0.27c-0.93-0.7-1.67-1.63-2.32-2.6C28.69,170.63,28.4,170.14,28.16,169.63z"/>
		<path class="st7" d="M36.38,173.33c-3.86-0.78-6.47-5.15-7.55-8.63c-0.1-0.31-0.58-0.18-0.49,0.13c1.13,3.64,3.86,8.16,7.9,8.98
			C36.56,173.88,36.7,173.4,36.38,173.33z"/>
		<path class="st7" d="M37.92,168.8c-3.17-1.18-5.66-3.57-7-6.67c-0.13-0.3-0.57-0.04-0.44,0.26c1.4,3.22,4.02,5.67,7.3,6.9
			C38.09,169.4,38.22,168.91,37.92,168.8z"/>
		<path class="st7" d="M39.48,166.49c-1.86-1.1-3.16-3.42-4.22-5.24c-1.27-2.19-2.11-4.55-1.91-7.1c0.03-0.32-0.48-0.32-0.51,0
			c-0.2,2.64,0.66,5.11,1.98,7.36c1.11,1.91,2.45,4.27,4.4,5.42C39.5,167.09,39.76,166.65,39.48,166.49z"/>
		<path class="st7" d="M42.28,165.1c-1.35-2.51-2-5.24-1.96-8.09c0.01-0.33-0.5-0.33-0.51,0c-0.05,2.94,0.64,5.76,2.02,8.35
			C41.99,165.64,42.43,165.39,42.28,165.1z"/>
	</g>
	<g>
		<path class="st4" d="M108.47,147.8c0.78,2.02,0.56,4.4-0.57,6.25c-0.25-0.09-0.32-0.41-0.34-0.67c-0.24-2.17-0.65-4.31-1.21-6.42
			l-2.88-0.61l-0.05-0.18c-1.13-0.86-1.96-2.12-2.31-3.5c1.28-0.69,2.64-1.23,4.05-1.61c0.78-0.2,1.62-0.36,2.39-0.1
			c0.6,0.2,1.09,0.64,1.56,1.07c2.5,2.31,4.78,4.86,6.81,7.6c-2.28-0.61-4.16-2.18-5.95-3.72l-0.2,0.19
			c0.73,0.86,1.47,1.73,1.93,2.76c0.55,1.21,0.7,2.59,0.64,3.92C110.68,151.48,109.79,149.45,108.47,147.8z"/>
		<path class="st1" d="M70.23,162.27c1.37-1.79,3.63-2.7,5.69-3.67c3.68-1.72,7.13-3.94,10.24-6.56c2.31-1.95,4.43-4.13,6.81-5.99
			c2.37-1.85,5.06-3.42,8.03-3.92v0.01c0.03,0.18,0.06,0.36,0.11,0.54c0.35,1.38,1.18,2.63,2.31,3.5l0.05,0.18
			c-2.35,2.92-5.43,5.13-8.2,7.65c-2.35,2.14-4.49,4.5-6.38,7.05c-1.4,1.88-2.66,3.87-4.24,5.58c-1.09,1.16-2.33,2.21-3.16,3.57
			c-0.65,1.07-1.02,2.29-1.21,3.53c-0.85,5.62,1.92,11.12,4.94,15.93c3.02,4.81,6.49,9.63,7.26,15.27l-0.02,0.34
			c-0.67-0.02-1.32,0.1-1.95,0.31c-1.09,0.36-2.11,1-3.01,1.71c-4.88,3.82-7.78,10.05-13.33,12.79c-0.25-3.44-0.6-6.88-1.06-10.3
			c-0.08-0.62-0.17-1.24-0.26-1.87c-0.37-2.53-0.85-5.06-1.56-7.5l0.31-0.09c-0.95-5.8-1.24-11.71-0.87-17.58
			c0.01-0.18,0.02-0.37-0.1-0.51c-0.14-0.15-0.37-0.14-0.57-0.11c-1.13,0.15-2.22,0.62-3.09,1.34l-0.19-0.06
			c0.15-1.94,0.68-3.85,1.54-5.59c0.15-0.32,0.32-0.64,0.33-0.98c0.01-0.34-0.15-0.66-0.3-0.96c-1.5-3-3.27-5.86-5.28-8.54
			l-0.47-0.04c0.32-0.32,0.62-0.68,0.92-1.02c1.39-1.62,2.83-3.22,4.53-4.5c0.38-0.28,0.81-0.56,1.27-0.54
			c0.47,0.02,0.93,0.51,0.76,0.94L70.23,162.27z"/>
		<path class="st8" d="M60.54,183.79c0.48-2.66,0.72-5.37,0.72-8.08h0.09c-0.1,3.56,1.18,7.08,2.82,10.27
			c1.85,3.58,4.17,6.92,5.76,10.63c0.53,1.23,0.97,2.5,1.34,3.79c0.71,2.45,1.19,4.97,1.56,7.5l-0.21,0.04
			c-2.14,0.69-4.36,1.14-6.6,1.33h-0.06c0-0.59-0.01-1.17-0.04-1.75c-0.06-1.66-0.19-3.33-0.65-4.93c-0.12-0.41-0.26-0.82-0.42-1.21
			c-1.26-3.08-3.7-5.61-6.45-7.52c-1.39-0.96-2.88-1.81-4.17-2.88c-0.43-0.36-0.85-0.73-1.22-1.15c-1.96-2.17-2.81-5.13-2.99-8.05
			l0.19-0.01c1.01,1.95,2.74,3.51,4.78,4.31l0.24-0.1c-0.63-1.45-0.67-3.15-0.08-4.62c0.06-0.01,0.12-0.05,0.18-0.1
			c0.09-0.09,0.12-0.22,0.14-0.34h0.01c1.05,0.22,2.09,0.49,3.03,0.99C59.33,182.36,60.08,182.99,60.54,183.79z"/>
		<path class="st3" d="M61.36,175.71h-0.09c0-2.39-0.19-4.79-0.56-7.15l0.03-0.01c0.72-0.26,1.31-0.73,1.85-1.27l0.47,0.04
			c2.01,2.68,3.78,5.54,5.28,8.54c0.15,0.3,0.3,0.62,0.3,0.96c-0.01,0.34-0.18,0.67-0.33,0.98c-0.86,1.74-1.39,3.66-1.54,5.59
			l0.19,0.06c0.88-0.72,1.96-1.2,3.09-1.34c0.2-0.03,0.43-0.04,0.57,0.11c0.12,0.13,0.11,0.33,0.1,0.51
			c-0.37,5.87-0.08,11.78,0.87,17.58l-0.31,0.09c-0.37-1.29-0.82-2.56-1.34-3.79c-1.58-3.71-3.91-7.05-5.76-10.63
			C62.53,182.79,61.26,179.27,61.36,175.71z"/>
		<path class="st3" d="M53.53,192.05c-0.16-0.11-0.33-0.22-0.49-0.33l1.2-0.74c1.29,1.07,2.79,1.92,4.17,2.88
			c2.75,1.91,5.2,4.44,6.45,7.52c-4.08-3.29-8.49-6.14-13.15-8.5c0.42-0.51,1.1-0.79,1.76-0.74L53.53,192.05z"/>
		<path class="st8" d="M60.71,168.56c0.37,2.36,0.56,4.76,0.56,7.15c0,2.71-0.24,5.42-0.72,8.08c-0.47-0.81-1.21-1.44-2.04-1.88
			c-0.94-0.5-1.99-0.77-3.03-0.99h-0.01c0-0.02,0.01-0.03,0.01-0.05c0.5-3.79,0.53-7.64,0.09-11.44l0.08-0.01
			c1.61-0.22,3.21-0.54,4.78-0.97l0.27-0.04C60.69,168.47,60.7,168.51,60.71,168.56z"/>
		<path class="st8" d="M55.23,185.99l-0.24,0.1c-2.04-0.81-3.77-2.36-4.78-4.31l-0.19,0.01c0-0.02-0.01-0.05-0.01-0.08l-0.14-0.33
			c0.41-0.17,0.8-0.37,1.17-0.62c0.56-0.38,1.06-0.86,1.45-1.41l0.26,0.15c0.55,0.51,1.11,1.03,1.66,1.55
			c0.2,0.18,0.49,0.36,0.72,0.32C54.57,182.84,54.6,184.54,55.23,185.99z"/>
		<path class="st3" d="M54.23,190.98l-1.2,0.74c-1.31-0.82-2.74-1.43-4.24-1.81c-0.22-0.05-0.44-0.11-0.67-0.15l-0.09,0.02
			c-0.45-1.63-0.81-3.29-1.09-4.96c-0.12-0.72-0.2-1.5,0.12-2.15l-0.09-0.24c0.47-0.19,0.95-0.37,1.43-0.54l-0.01-0.06
			c0.51-0.11,1-0.26,1.47-0.46l0.14,0.33c0,0.02,0.01,0.05,0.01,0.08c0.18,2.91,1.03,5.87,2.99,8.05
			C53.39,190.25,53.8,190.62,54.23,190.98z"/>
		<path class="st1" d="M53.53,192.05l-0.06,0.09c-0.66-0.05-1.34,0.23-1.76,0.74l-0.61,0.72c-0.88-0.75-1.76-1.49-2.64-2.23
			l0.34-1.46c1.49,0.38,2.93,0.99,4.24,1.81C53.2,191.83,53.36,191.94,53.53,192.05z"/>
		<path class="st1" d="M48.04,189.78l0.09-0.02c0.22,0.05,0.44,0.1,0.67,0.15l-0.34,1.46c0.88,0.74,1.76,1.48,2.64,2.23
			c0.54,0.45,1.07,0.9,1.61,1.35c0.99,0.83,1.99,1.68,2.86,2.64c-2.28-1.34-5.11-1.28-7.76-1.19c-3.31,0.12-6.62,0.25-9.93,0.37
			c-3.51,0.13-7.35,0.17-10.15-1.96c-0.54-0.41-1.03-0.9-1.28-1.53c-0.3-0.75-0.23-1.6-0.16-2.41c0.62-7.11,0.49-14.28-0.41-21.35
			c0.29,0.01,0.58,0.02,0.88,0.04c0.47,0.02,0.94,0.04,1.41,0.06c0.24,0.51,0.54,1,0.85,1.46c0.65,0.97,1.38,1.9,2.32,2.6
			c0.13,0.09,0.26,0.19,0.4,0.27c0,2.76,0.46,5.51,1.34,8.12c0.62,1.84,1.46,3.61,1.97,5.49c0.03,0.11,0.05,0.21,0.08,0.32
			c3.84-2.07,7.81-3.89,11.88-5.46l0.09,0.24c-0.33,0.65-0.24,1.43-0.12,2.15C47.23,186.5,47.59,188.15,48.04,189.78z"/>
		<path class="st4" d="M28.16,169.63c-0.47-0.02-0.93-0.04-1.41-0.06l0.01-0.14c0.06-0.99,0.39-1.96,0.93-2.79
			c-0.01,0.02-0.01,0.03-0.01,0.05C27.46,167.69,27.71,168.69,28.16,169.63z"/>
		<path class="st9" d="M55.07,181.59c-0.56,0.47-0.62,1.17-0.7,1.87c-0.11,0.98-0.12,1.95-0.05,2.93c-0.04-0.05-0.09-0.1-0.13-0.15
			c-0.38-0.38-0.78-0.72-1.15-1.11c-0.8-0.84-1.45-1.79-2-2.81c-0.16-0.29-0.59-0.03-0.44,0.26c0.55,1.01,1.19,1.94,1.97,2.79
			c0.37,0.4,0.78,0.75,1.16,1.13c0.37,0.37,0.63,0.82,1.05,1.12c0.26,0.19,0.52-0.25,0.26-0.44c-0.05-0.04-0.1-0.09-0.15-0.14
			c0-0.01,0-0.01,0-0.02c-0.08-0.81-0.12-1.62-0.09-2.43c0.03-0.79-0.03-2.07,0.64-2.63C55.68,181.74,55.32,181.38,55.07,181.59z"/>
		<path class="st9" d="M61.87,183.96c-1.04-2.77-1.64-5.68-1.7-8.64c-0.04-2.1,0.14-4.31-1.19-6.08c-0.19-0.26-0.63-0.01-0.44,0.26
			c1.54,2.05,1,4.81,1.18,7.2c0.17,2.22,0.62,4.4,1.34,6.51c-1.39-1.09-3.06-1.67-4.87-1.68c-0.33,0-0.33,0.5,0,0.51
			c1.99,0.01,3.8,0.75,5.22,2.15c0.01,0.01,0.02,0.01,0.03,0.02C61.62,184.36,61.97,184.23,61.87,183.96z"/>
	</g>
	<g>
		<path class="st4" d="M55.15,181.37c-0.23,0.04-0.53-0.14-0.72-0.32c-0.55-0.52-1.11-1.04-1.66-1.55l-0.26-0.15
			c-0.39,0.55-0.89,1.03-1.45,1.41c-0.37,0.25-0.76,0.45-1.17,0.62c-0.47,0.2-0.96,0.35-1.47,0.46c-0.39,0.09-0.78,0.15-1.17,0.19
			c-1.23,0.13-2.53,0.07-3.6-0.54c-1.7-0.98-2.41-3.1-3.98-4.28c-1.31-0.99-3.23-1.34-4.01-2.77c0.02-0.01,0.05-0.02,0.07-0.04
			c0.89-0.58,1.06-1.77,1.33-2.8c0.57-2.22,1.94-4.23,3.81-5.56c0.7-0.5,1.61-0.91,2.4-0.57c0.5,0.22,0.83,0.68,1.13,1.13
			c0.74,1.08,1.48,2.16,2.22,3.23c0.3,0.44,0.63,0.91,1.1,1.16c0.47,0.26,1.15,0.23,1.47-0.21c0.31-0.43,0.17-1.01,0.04-1.52
			c-0.46-1.75-0.62-3.57-0.48-5.37h0.01c0.03-0.28,0.32-0.48,0.6-0.48c0.28-0.01,0.54,0.12,0.78,0.27c1.3,0.82,2.09,2.23,2.77,3.61
			c0.42,0.85,0.95,1.83,1.89,1.99l0.56,0.04c0.06,0.05,0.13,0.09,0.2,0.13l0.04-0.01c0,0.01,0,0.01,0,0.01
			c0.44,3.8,0.41,7.65-0.09,11.44c0,0.02-0.01,0.03-0.01,0.05c-0.02,0.13-0.05,0.26-0.14,0.34
			C55.27,181.32,55.21,181.36,55.15,181.37z"/>
		<path class="st10" d="M54.12,171.22c-0.05-0.32-0.54-0.18-0.49,0.13c0.38,2.56,0.21,5.65-1.22,7.89
			c-0.18,0.28,0.26,0.53,0.44,0.26C54.35,177.14,54.52,173.9,54.12,171.22z"/>
		<path class="st10" d="M44.51,177.18c-0.36,0.12-1.71,0.6-1.88,0.04c-0.06-0.17,0.04-0.47,0.06-0.64c0.03-0.31,0.06-0.63,0.07-0.94
			c0.02-0.33-0.49-0.32-0.51,0c-0.02,0.46-0.09,0.91-0.12,1.36c-0.02,0.28,0.01,0.57,0.22,0.77c0.23,0.21,0.58,0.2,0.87,0.18
			c0.49-0.03,0.96-0.13,1.42-0.28C44.95,177.56,44.82,177.08,44.51,177.18z"/>
		<path class="st11" d="M45.27,172.78c-0.09-0.48-0.33-0.98-0.51-1.43c-0.12-0.3-0.61-0.17-0.49,0.13c0.12,0.29,0.23,0.58,0.33,0.87
			c0.1,0.3,0.27,0.67-0.22,0.61c-0.28-0.03-0.54-0.12-0.79-0.25c-0.2-0.11-0.35-0.27-0.56-0.35c-0.1-0.04-0.24,0.02-0.29,0.12
			c0,0.01-0.01,0.02-0.01,0.03c-0.05,0.09-0.05,0.23,0.04,0.31c0.01,0.01,0.01,0.01,0.02,0.02c0.05,0.04,0.11,0.06,0.17,0.06
			c0.13,0.07,0.25,0.2,0.37,0.27c0.17,0.09,0.36,0.17,0.55,0.23c0.31,0.09,0.73,0.17,1.04,0.06
			C45.22,173.33,45.32,173.07,45.27,172.78z"/>
		<path class="st11" d="M41.04,175.9c-0.17-0.27-0.34-0.53-0.52-0.8c-0.18-0.27-0.61-0.02-0.44,0.26c0.11,0.17,0.22,0.34,0.33,0.5
			c0.06,0.09,0.29,0.36,0.24,0.45c-0.06,0.13-0.4-0.02-0.51-0.05c-0.17-0.04-0.34-0.04-0.51,0.02c-0.31,0.1-0.18,0.59,0.13,0.49
			c0.28-0.09,0.57,0.11,0.86,0.09c0.21-0.02,0.42-0.14,0.51-0.33C41.25,176.3,41.16,176.09,41.04,175.9z"/>
		<path class="st12" d="M48.94,175.27c-0.68-0.59-1.07-0.14-1.39,0.48c-0.03,0.02-0.05,0.05-0.06,0.09
			c-0.38,0.91-1.57,1.72-1.59,2.77c-0.02,0.8,0.68,1.08,1.38,0.95C48.86,179.26,50.39,176.53,48.94,175.27z"/>
		<path class="st6" d="M38.55,173.82c-0.29-0.25-0.71-0.05-0.97,0.14c-0.15,0.11-0.26,0.24-0.35,0.38
			c-0.53,0.37-0.31,1.53,0.05,1.92c0.77,0.84,1.18-0.88,1.32-1.37C38.69,174.56,38.86,174.08,38.55,173.82z"/>
		<path class="st6" d="M44.07,169.38c-0.54-1.1-2.77-0.07-2.85,0.93c0,0.04,0,0.06,0,0.1c-0.09,0.24-0.1,0.47,0,0.64
			c0.03,0.07,0.09,0.13,0.16,0.16c0.27,0.15,0.57-0.02,0.79-0.17c0.35-0.24,0.64-0.47,1.05-0.61
			C43.7,170.27,44.39,170.01,44.07,169.38z"/>
	</g>
</g>
<g>
	<g>
		<path class="st2" d="M367.91,120.51l-0.05-0.1c1.33-1.3,1.54-3.36,1.44-5.23c-0.02-0.43-0.06-0.86-0.17-1.28
			c-0.46-1.78-2.14-2.95-3.78-3.77l-0.01-0.22l0.01-0.12c2.8,0.31,5.54,1.34,7.67,3.16c2.15,1.83,3.63,4.48,3.82,7.29
			c0.22,3.37-1.39,6.73-0.86,10.07c0.63,3.99,4.11,6.94,5.37,10.78c1.05,3.21,0.41,6.84-1.36,9.71c-1.77,2.87-4.6,5-7.72,6.29
			c-1.68,0.69-3.6,1.14-5.27,0.46c-1.99-0.81-3.06-2.97-3.57-5.04c-0.26-1.07-0.47-2.26-1.34-2.94c-0.57-0.45-1.33-0.58-2.04-0.67
			c-1.49-0.19-3.02-0.25-4.45-0.72c-1.43-0.47-2.8-1.43-3.29-2.85c-1.17-3.33,2.86-6.8,1.83-10.18c-0.4-1.35-1.54-2.34-2.24-3.56
			c-0.84-1.46-1.03-3.28-0.52-4.88c0.34-1.06,0.99-2.01,1.83-2.74c0,0,0,0,0.01,0c0.29-0.1,0.47-0.16,0.47-0.16
			c-0.05-0.03-0.11-0.06-0.16-0.09c0.35-0.26,0.72-0.49,1.12-0.67c2.13-0.96,4.6-0.62,6.93-0.78
			C363.78,122.15,365.96,121.54,367.91,120.51z"/>
		<path class="st5" d="M378.17,143.79c-1.98-3.96-8.26-6.15-7.77-11.19c0.45-4.68,4.88-8.03,4.84-12.9
			c-0.03-3.62-2.9-6.28-6.18-7.29c-0.31-0.1-0.45,0.39-0.13,0.49c1.95,0.6,3.76,1.75,4.85,3.51c1.28,2.05,1.11,4.42,0.3,6.61
			c-1.27,3.46-4.7,6.92-4.16,10.85c0.52,3.78,4.35,5.66,6.59,8.32c2.71,3.21,2.94,7.96,0.79,11.52c-0.17,0.28,0.27,0.53,0.44,0.26
			C379.59,150.91,379.77,147.01,378.17,143.79z"/>
		<path class="st5" d="M365.67,140.91c-1.46-1.21-3.06-2.43-3.27-4.46c-0.23-2.26,1.12-4.27,2.36-6.03c1.9-2.69,4.17-5.9,2.6-9.3
			c-0.14-0.3-0.57-0.04-0.44,0.26c2.94,6.36-8.78,11.53-3.98,17.68c0.89,1.15,2.13,1.96,3.2,2.92c1.25,1.12,2.14,2.48,2.56,4.11
			c0.76,2.95-0.09,8.21-3.76,8.78c-0.32,0.05-0.18,0.54,0.13,0.49c3.01-0.46,4.35-4.14,4.41-6.82
			C369.57,145.34,368.06,142.89,365.67,140.91z"/>
		<path class="st5" d="M359.67,122.7c0.26-0.2-0.11-0.56-0.36-0.36c-3.33,2.63-5.02,7.12-2.58,10.94c0.67,1.05,1.45,2.01,1.8,3.23
			c0.37,1.29,0.32,2.67,0,3.97c-0.6,2.47-2.27,5.45-4.86,6.21c-0.31,0.09-0.18,0.58,0.13,0.49c3.86-1.13,6.07-6.53,5.34-10.23
			c-0.49-2.51-2.71-4.16-3.04-6.73C355.73,127.2,357.37,124.52,359.67,122.7z"/>
	</g>
	<g>
		<g>
			<path class="st4" d="M375.85,73.47l0.22,0.07c2.81-2.97,5.93-6.02,9.94-6.83c-2.9,4.26-5.96,8.68-10.38,11.3
				c-7.67,9.65-17.68,17.29-24.92,27.26c-2.03-0.23-4.06,0.69-6.03,1.36c-1.7,0.58-3.47,0.98-5.25,1.18
				c-0.05,0.01-0.09,0.01-0.13,0.02c4.06-6.14,9.33-11.48,15.42-15.61l0.02-0.01c1.75-2.64,3.53-5.31,5.86-7.47
				c3.18-2.93,7.25-4.78,10.41-7.72l0.04,0.04c0.15-0.02,0.26-0.14,0.36-0.25c1.88-2.18,3.17-4.79,4.78-7.18
				c0.42-0.62,0.88-1.24,1.51-1.64C377.07,69.82,376.46,71.64,375.85,73.47z"/>
			<path class="st4" d="M375.27,180.51c0.41,0.24,0.9,0.66,0.71,1.1c-2.45,0.33-4.95-0.16-7.25-1.03c-2.31-0.88-4.45-2.13-6.57-3.38
				l-0.11,0.07c0.5,1.75,0.61,3.6,0.32,5.4c-0.83-0.5-1.14-1.54-1.42-2.47c-1.9-6.27-5.47-12.02-10.25-16.49
				c-2.39-2.24-5.19-4.34-6.24-7.44c-0.55-1.65-0.54-3.43-0.79-5.16c-0.23-1.55-0.73-3.18-1.86-4.24c0.77-0.5,1.65-0.84,2.56-0.98
				c1.17-0.19,2.38-0.05,3.57-0.05l1.37,0.31c0.23,2.3,1.05,4.54,2.35,6.45c0.69,1,1.51,1.92,2.2,2.93
				c1.11,1.62,1.87,3.44,2.61,5.26c0.93,2.25,1.85,4.5,2.78,6.76c0.72,1.76,1.47,3.56,2.78,4.94c1.05,1.12,2.41,1.89,3.74,2.64
				C368.93,176.9,372.1,178.71,375.27,180.51z"/>
			<path class="st2" d="M353.52,123.74c0.05,0.04,0.11,0.06,0.16,0.09c0,0-0.18,0.06-0.47,0.16
				C353.31,123.91,353.42,123.82,353.52,123.74z"/>
			<path class="st1" d="M339.91,148.32l-0.08,0.27c-1.28-0.37-1.89-1.88-2.03-3.22c-0.15-1.37-0.05-2.84-0.76-4.02
				c-0.78-1.26-2.36-1.85-3.85-1.78c-1.48,0.07-2.88,0.69-4.18,1.41c-1.3,0.71-2.56,1.51-3.96,1.99l-0.02-0.04
				c-1.42,0.64-3.17,0.24-4.45-0.67c-1.18-0.82-2.05-2-2.84-3.21c-0.09-0.15-0.19-0.29-0.28-0.44c-3.09-4.8-5.79-9.86-8.06-15.09
				c-0.02-0.04-0.04-0.09-0.06-0.13c-0.09-0.22-0.19-0.46-0.16-0.69c0.05-0.42,0.44-0.7,0.81-0.92c1.29-0.75,2.66-1.35,3.89-2.21
				c1.79-1.26,3.18-3,4.82-4.47c1.63-1.46,3.69-2.69,5.87-2.53c1.58,0.11,3.01,0.93,4.47,1.55c1.38,0.59,2.97,1.02,4.36,0.51
				l-0.05-0.15c1.1-0.68,1.93-1.8,2.24-3.05c0.22-0.84,0.23-1.77,0.76-2.46c0.66-0.86,1.86-1.01,2.95-1.13
				c0.05-0.01,0.09-0.01,0.13-0.02c1.79-0.2,3.56-0.6,5.25-1.18c1.97-0.67,3.99-1.59,6.03-1.36c0.19,0.02,0.37,0.05,0.56,0.09
				c0.15,0.03,0.32,0.09,0.4,0.22c0.09,0.14,0.06,0.32,0.02,0.48c-0.18,0.67-0.52,1.27-0.86,1.87c-1.66,2.92-3.33,5.83-4.99,8.75
				l0.01,0.09c-0.68,0.04-1.38,0.02-2.06-0.05c-0.18-0.02-0.37-0.05-0.54,0.04c-0.16,0.08-0.26,0.25-0.35,0.4
				c-0.4,0.67-0.79,1.35-1.19,2.02c-0.37,0.64-0.76,1.32-0.77,2.06c-0.01,1,0.67,1.87,1.37,2.6c1.25,1.31,2.66,2.48,4.19,3.46
				c0.05,0.03,0.11,0.06,0.16,0.09c2.04,1.76,2.37,4.82,2.53,7.55c0.2,3.32,0.4,6.65,0.59,9.97c0.01,0.2,0.02,0.41-0.09,0.57
				c-0.14,0.22-0.43,0.27-0.68,0.3c-0.34,0.04-0.69,0.05-1.05,0.05c-1.19,0-2.39-0.14-3.57,0.05c-0.91,0.14-1.79,0.48-2.56,0.98
				c-0.62,0.4-1.17,0.91-1.63,1.49L339.91,148.32z"/>
			<path class="st4" d="M299.47,134.99c2.69-4.31,6.05-8.19,9.93-11.47c2.27,5.24,4.97,10.29,8.06,15.09
				c0.09,0.15,0.19,0.29,0.28,0.44c-0.71,1.78-1.42,3.57-2.13,5.35c-0.05-0.08-0.09-0.15-0.15-0.22
				c-6.22-0.91-12.08-4.15-16.16-8.92C299.35,135.17,299.41,135.07,299.47,134.99z"/>
			<path class="st13" d="M335.55,130.84c-2.93,3.79-6.38,7.12-10.29,9.89c-0.26,0.19-0.01,0.63,0.26,0.44
				c3.94-2.8,7.44-6.14,10.39-9.97C336.11,130.94,335.75,130.58,335.55,130.84z"/>
			<path class="st13" d="M339.35,134.09c-2.8,1.35-5.62,2.65-8.46,3.9c-0.3,0.13-0.04,0.57,0.26,0.44c2.84-1.26,5.66-2.56,8.46-3.9
				C339.89,134.38,339.64,133.95,339.35,134.09z"/>
			<path class="st13" d="M342.38,112.5c-2.2,0.23-4.35,0.67-6.44,1.33c1.57-1.16,3.24-2.14,5.02-2.94c0.3-0.13,0.04-0.57-0.26-0.44
				c-1.91,0.85-3.7,1.91-5.36,3.18c-0.14,0.11-0.12,0.29-0.04,0.4c-0.7,0.24-1.39,0.49-2.08,0.78c-0.3,0.12-0.17,0.61,0.13,0.49
				c2.89-1.2,5.9-1.97,9.01-2.29C342.7,112.97,342.7,112.47,342.38,112.5z"/>
			<path class="st13" d="M319.84,126.78c-0.85-2.18-1.96-4.56-4.12-5.7c-0.29-0.15-0.54,0.28-0.26,0.44
				c2.38,1.26,3.53,4.23,4.34,6.65c0.8,2.41,1.29,4.9,1.77,7.39c0.06,0.32,0.55,0.18,0.49-0.13
				C321.5,132.5,320.93,129.56,319.84,126.78z"/>
			<path class="st13" d="M320.48,120.21c-0.23-0.23-0.59,0.13-0.36,0.36c2.4,2.34,3.13,6.55,3.46,9.74c0.03,0.32,0.54,0.32,0.51,0
				C323.74,126.96,322.99,122.66,320.48,120.21z"/>
		</g>
		<g>
			<path class="st1" d="M327.58,211.17c0.21,0.43,0.2,0.93,0.17,1.41c-0.34,6.55-2.56,12.83-4.75,19.02
				c-0.15,0.4-0.4,0.87-0.82,0.84c-0.26-0.02-0.45-0.23-0.6-0.43c-1.14-1.49-1.51-3.38-1.73-5.28l0.6-0.07
				c2.38-2.74,3.38-6.39,4.29-9.9c0.53-2.03,1.03-4.23,0.23-6.17l-0.08-0.24c0.16-0.05,0.33-0.09,0.51-0.12
				C326.25,210.09,327.22,210.4,327.58,211.17z"/>
			<path class="st4" d="M323.45,211.08c0.46-0.3,0.93-0.57,1.45-0.74l0.08,0.24c0.81,1.93,0.3,4.14-0.23,6.17
				c-0.91,3.51-1.91,7.16-4.29,9.9l-0.6,0.07c-0.05-0.5-0.1-0.99-0.15-1.48c-0.64-7.01-1.66-14-3.05-20.9l0.01-0.19
				c0.43,0,0.86-0.06,1.28-0.12c1.22-0.19,2.43-0.38,3.66-0.57c0.36-0.05,0.73-0.11,1.04-0.3c0.04-0.02,0.08-0.05,0.11-0.08
				C323.24,205.71,323.48,208.4,323.45,211.08z"/>
			<path class="st6" d="M316.79,200.42l-0.08,1.02c-0.83,0.47-1.76,0.6-2.67,0.45c-1.69-0.25-3.35-1.4-4.3-2.87
				c-1.47-2.28-1.76-5.1-2.15-7.78c-0.64-4.28-1.67-8.5-3.08-12.59c-2.49-7.21-6.14-13.97-8.64-21.17c-0.1-0.27-0.19-0.55-0.29-0.83
				c-0.87-2.63-1.59-5.35-1.58-8.12c0.01-3.72,1.31-7.3,2.6-10.8l0.01-0.05c0.05,0.01,0.11,0.02,0.16,0.03
				c3.96,6.38,11.82,10.1,19.26,9.13c2.76,6.36,0.1,13.74,0.9,20.65c0.85,7.33,5.57,13.76,6.53,21.07c0.26,2,0.23,4.03,0.19,6.05
				c-0.04,1.73-0.21,3.7-1.33,4.94c-0.16,0.18-0.34,0.34-0.54,0.48C320.38,201.04,318.5,200.79,316.79,200.42z"/>
			<path class="st6" d="M322.75,203.07c-0.04,0.04-0.07,0.06-0.11,0.08c-0.31,0.19-0.68,0.25-1.04,0.3
				c-1.22,0.19-2.43,0.38-3.66,0.57c-0.41,0.06-0.85,0.12-1.28,0.12c-0.51,0-1-0.1-1.43-0.37c-0.64-0.41-0.95-1.15-1.2-1.87
				c0.92,0.15,1.85,0.02,2.67-0.45l0.08-1.02c1.7,0.37,3.58,0.61,4.98-0.39c0.2-0.15,0.38-0.31,0.54-0.48l0.52,0.09
				c0.26,0.59,0.51,1.19,0.55,1.83C323.42,202.07,323.22,202.71,322.75,203.07z"/>
			<path class="st6" d="M315.61,144.4c0.43,0.72,0.64,1.59,0.57,2.43c-0.05,0.01-0.09,0.01-0.14,0.02
				c-7.44,0.98-15.3-2.75-19.26-9.13c-0.05-0.01-0.11-0.02-0.16-0.03c-0.05-0.01-0.11-0.02-0.16-0.03c0.5-1.3,1.66-2.34,3.02-2.67
				c-0.06,0.09-0.12,0.18-0.17,0.27c4.08,4.78,9.94,8.01,16.16,8.92C315.51,144.25,315.56,144.32,315.61,144.4z"/>
			<path class="st6" d="M296.45,137.66c0.05,0.01,0.11,0.02,0.16,0.03l-0.01,0.05c-1.28,3.49-2.59,7.08-2.6,10.8
				c-0.01,2.77,0.71,5.49,1.58,8.12c0.09,0.28,0.19,0.55,0.29,0.83c-2.83,0.24-5.7-0.5-8.21-1.83c-2.76-1.46-5.1-3.6-7.12-5.96
				c-1.02-1.19-1.96-2.43-3-3.59c0,0,0,0-0.01-0.01c-0.16-0.09-0.32-0.18-0.47-0.26l-0.24,0.48c0.19,0.88,0,1.8-0.3,2.65
				c-0.19,0.54-0.44,1.09-0.86,1.48c-0.1,0.09-0.2,0.17-0.32,0.24c-0.86,0.56-2.05,0.51-3.11,0.43l-0.61,0.14
				c-1.25,0.88-2.76,1.54-4.25,1.58c-0.63,0.02-1.25-0.06-1.85-0.3c-1.56-0.61-2.64-2.08-3.33-3.61c-0.69-1.53-1.1-3.18-1.82-4.69
				c-1-2.09-2.59-3.87-3.59-5.96c-0.99-2.1-1.26-4.83,0.28-6.57c0.98-1.1,2.5-1.58,3.96-1.6c1.47-0.03,2.91,0.34,4.33,0.71
				C275.63,133.45,286,135.73,296.45,137.66z"/>
			<path class="st1" d="M287.91,177.79c0.08,0.6,0.09,1.34-0.43,1.66c-1.61-1.31-2.87-2.98-4.02-4.72
				c0.65-3.35,0.69-6.81,0.13-10.18c-0.33-2.01-1.05-4.18-2.64-5.34c0.17-0.75,0.51-1.47,1.18-1.79c0.92-0.45,2.08,0.08,2.67,0.92
				c0.59,0.83,0.75,1.89,0.9,2.9C286.5,166.74,287.23,172.26,287.91,177.79z"/>
			<path class="st4" d="M280.79,159.92l0.05-0.04c0.02-0.23,0.06-0.46,0.11-0.68c1.59,1.16,2.31,3.33,2.64,5.34
				c0.56,3.37,0.51,6.83-0.13,10.18c-0.55-0.81-1.07-1.64-1.59-2.46c-3.8-5.95-8.04-11.61-12.69-16.93
				c0.46-0.08,0.92-0.22,1.37-0.37c1.44-0.49,2.86-1.05,4.24-1.66c0.16-0.07,0.33-0.15,0.48-0.23
				C277.22,155.27,279.06,157.55,280.79,159.92z"/>
			<path class="st6" d="M275.27,153.07c-0.16,0.09-0.32,0.16-0.48,0.23c-1.38,0.61-2.8,1.17-4.24,1.66c-0.45,0.15-0.9,0.3-1.37,0.37
				c-0.18,0.03-0.37,0.05-0.55,0.05c-0.2,0-0.41-0.02-0.58-0.11c-0.61-0.33-0.41-1.26-0.7-1.88c-0.04-0.09-0.09-0.21-0.02-0.28
				c0.01-0.01,0.02-0.02,0.04-0.02l-0.01-0.26c1.49-0.04,3-0.71,4.25-1.58l0.61-0.14c1.06,0.09,2.25,0.13,3.11-0.43
				c0.69,0.34,0.92,1.38,0.43,1.99C275.62,152.84,275.45,152.96,275.27,153.07z"/>
			<path class="st7" d="M315.87,146.63c-6.8-1.71-13.16-4.77-18.75-9.02c-0.26-0.2-0.51,0.24-0.26,0.44
				c5.62,4.27,12.03,7.34,18.87,9.07C316.05,147.2,316.18,146.71,315.87,146.63z"/>
			<path class="st7" d="M295.78,141.46c-1.69,5.18-1.86,10.69-0.5,15.96c0.08,0.31,0.57,0.18,0.49-0.13
				c-1.33-5.19-1.16-10.6,0.5-15.69C296.37,141.29,295.88,141.15,295.78,141.46z"/>
			<path class="st7" d="M294.84,156.21c-1.66-1.3-2.7-3.42-3.6-5.28c-1.01-2.1-1.77-4.29-2.31-6.56c-0.08-0.32-0.56-0.18-0.49,0.13
				c0.55,2.31,1.33,4.54,2.36,6.68c0.92,1.91,1.98,4.05,3.68,5.38C294.74,156.77,295.1,156.41,294.84,156.21z"/>
			<path class="st7" d="M301.62,146.29c-1.35,1.81-2.53,3.73-3.5,5.77c-0.77,1.62-1.9,3.63-1.75,5.47c0.03,0.32,0.53,0.32,0.51,0
				c-0.16-1.95,1.2-4.31,2.06-6c0.89-1.75,1.94-3.41,3.12-4.99C302.25,146.29,301.81,146.04,301.62,146.29z"/>
			<path class="st7" d="M300.76,153.98c-1.37,0.84-2.56,1.89-3.56,3.15c-0.2,0.25,0.16,0.61,0.36,0.36
				c0.97-1.22,2.12-2.25,3.46-3.07C301.29,154.25,301.04,153.81,300.76,153.98z"/>
			<path class="st7" d="M313.67,166.53c-0.01-0.32-0.52-0.33-0.51,0c0.14,3.71-0.28,7.38-1.25,10.97c-0.09,0.31,0.4,0.45,0.49,0.13
				C313.38,174,313.81,170.29,313.67,166.53z"/>
			<path class="st7" d="M315.55,172.52c-0.04-0.32-0.55-0.32-0.51,0c0.38,2.97,0.15,5.92-0.69,8.8c-0.09,0.31,0.4,0.45,0.49,0.13
				C315.7,178.53,315.94,175.54,315.55,172.52z"/>
			<path class="st7" d="M276.44,144.35c-2.39-3.01-5.12-5.68-8.17-8.03c-0.26-0.2-0.51,0.24-0.26,0.44c2.96,2.28,5.62,4.9,7.95,7.82
				c-3.54-1.59-7.17-2.94-10.89-4.04c-0.31-0.09-0.45,0.4-0.13,0.49c3.71,1.09,7.34,2.43,10.86,4.03c0.21,0.1,0.4-0.1,0.38-0.27
				C276.38,144.85,276.6,144.56,276.44,144.35z"/>
			<path class="st7" d="M275.1,146c-2.63-0.34-5.27-0.69-7.9-1.03c-0.32-0.04-0.32,0.46,0,0.51c2.63,0.34,5.27,0.69,7.9,1.03
				C275.42,146.54,275.42,146.04,275.1,146z"/>
			<path class="st7" d="M275.49,149.87c-2.56,1.25-5.27,2.07-8.09,2.47c-0.32,0.05-0.18,0.53,0.13,0.49
				c2.87-0.4,5.61-1.25,8.21-2.52C276.03,150.17,275.78,149.73,275.49,149.87z"/>
			<path class="st7" d="M275.06,151.61c-2.46,0.79-4.93,1.58-7.39,2.36c-0.31,0.1-0.18,0.59,0.13,0.49
				c2.46-0.79,4.93-1.58,7.39-2.36C275.5,152,275.37,151.51,275.06,151.61z"/>
			<path class="st7" d="M321.8,198.85c-2.6,0.73-5.19,1.52-7.75,2.38c-0.31,0.1-0.18,0.59,0.13,0.49c2.57-0.86,5.15-1.65,7.75-2.38
				C322.25,199.25,322.12,198.76,321.8,198.85z"/>
			<path class="st7" d="M321.27,200.8c-1.7,0.64-3.45,1.09-5.26,1.32c-0.32,0.04-0.32,0.55,0,0.51c1.85-0.24,3.64-0.67,5.39-1.33
				C321.71,201.17,321.58,200.68,321.27,200.8z"/>
			<path class="st7" d="M320.48,193.48c-0.45,1.85-0.91,3.71-1.36,5.56c-0.08,0.32,0.41,0.45,0.49,0.13
				c0.45-1.85,0.91-3.71,1.36-5.56C321.04,193.3,320.56,193.17,320.48,193.48z"/>
			<path class="st7" d="M319.05,199.04c-0.43-1.84-1.02-3.61-1.75-5.35c-0.13-0.3-0.56-0.04-0.44,0.26c0.72,1.7,1.28,3.44,1.7,5.23
				C318.64,199.49,319.13,199.36,319.05,199.04z"/>
			<path class="st7" d="M315.7,199.44c-1-1.12-1.89-2.33-2.67-3.61c-0.17-0.28-0.61-0.02-0.44,0.26c0.81,1.32,1.73,2.56,2.75,3.71
				C315.56,200.04,315.91,199.68,315.7,199.44z"/>
			<path class="st7" d="M314.53,200.38c-1.19-0.9-2.38-1.8-3.57-2.7c-0.26-0.2-0.51,0.24-0.26,0.44c1.19,0.9,2.38,1.8,3.57,2.7
				C314.53,201.01,314.79,200.57,314.53,200.38z"/>
			<path class="st7" d="M268.35,151.55c-0.81-1.12-1.69-2.18-2.64-3.17c-0.23-0.23-0.58,0.12-0.36,0.36
				c0.93,0.96,1.79,1.98,2.57,3.07C268.11,152.07,268.55,151.82,268.35,151.55z"/>
			<path class="st7" d="M270.05,150.98c-0.52-1.2-1.08-2.37-1.69-3.52c-0.15-0.29-0.59-0.03-0.44,0.26
				c0.61,1.15,1.17,2.33,1.69,3.52C269.74,151.53,270.18,151.27,270.05,150.98z"/>
		</g>
		<g>
			<path class="st4" d="M349.97,115.78c0.01-0.18,0.02-0.36,0.05-0.54c0.23-1.7,1.12-3.35,2.56-4.26c1.54-0.97,3.47-1.01,5.28-1.02
				c2.49-0.01,4.98-0.02,7.47-0.04l0.01,0.22c1.64,0.82,3.32,1.99,3.78,3.77c0.11,0.41,0.15,0.85,0.17,1.28
				c0.09,1.86-0.11,3.92-1.44,5.23l0.05,0.1c-1.96,1.03-4.13,1.63-6.34,1.78c-2.34,0.15-4.8-0.19-6.93,0.78
				c-0.4,0.18-0.77,0.41-1.12,0.67c-1.27-0.78-2.11-2.12-2.69-3.49C350.25,118.84,349.88,117.3,349.97,115.78z"/>
			<path class="st4" d="M346.63,127.38c-0.05-0.02-0.11-0.06-0.16-0.09c-1.52-0.98-2.94-2.14-4.19-3.46
				c-0.69-0.72-1.38-1.59-1.37-2.6c0.01-0.74,0.4-1.42,0.77-2.06c0.4-0.67,0.79-1.35,1.19-2.02c0.09-0.15,0.19-0.32,0.35-0.4
				c0.16-0.08,0.36-0.06,0.54-0.04c0.68,0.08,1.38,0.09,2.06,0.05c1.43-0.08,2.84-0.41,4.15-1c-0.09,1.52,0.27,3.06,0.86,4.47
				c0.58,1.37,1.42,2.71,2.69,3.49c-0.11,0.08-0.21,0.16-0.31,0.25c-0.01,0-0.01,0-0.01,0c-1.28,0.45-4.82,1.77-5.99,3.23
				c-0.06,0.08-0.14,0.17-0.24,0.2C346.86,127.47,346.75,127.44,346.63,127.38z"/>
			<path class="st10" d="M351.43,122.11c-0.9-1.74-1.77-3.97-1.4-5.96c0.06-0.32-0.43-0.45-0.49-0.13c-0.4,2.16,0.47,4.46,1.45,6.35
				C351.15,122.66,351.58,122.4,351.43,122.11z"/>
			<path class="st10" d="M360.68,113.67c-0.5-0.49-1.01-0.95-1.56-1.38c-0.35-0.28-0.78-0.71-1.25-0.78
				c-0.3-0.04-0.45,0.06-0.59,0.31c-0.31,0.56-0.44,1.3-0.55,1.92c-0.06,0.32,0.43,0.45,0.49,0.13c0.08-0.4,0.17-0.79,0.29-1.18
				c0.16-0.5,0.37-0.71,0.82-0.39c0.71,0.51,1.37,1.11,1.99,1.72C360.55,114.25,360.91,113.9,360.68,113.67z"/>
			<path class="st11" d="M362.9,118.63c-0.32,0.07-0.64,0.09-0.96,0.03c-0.14-0.02-0.27-0.06-0.4-0.1
				c-0.22-0.08-0.24-0.25-0.16-0.45c0.18-0.47,0.77-0.81,1.21-0.94c0.31-0.09,0.18-0.58-0.13-0.49c-0.42,0.12-0.81,0.34-1.12,0.65
				c-0.27,0.27-0.6,0.7-0.57,1.1c0.03,0.41,0.43,0.56,0.77,0.65c0.49,0.14,1,0.13,1.5,0.03
				C363.36,119.05,363.22,118.56,362.9,118.63z"/>
			<path class="st11" d="M362.63,112.03c-0.24-0.05-0.47-0.11-0.7-0.18c-0.14-0.05-0.68-0.19-0.72-0.34
				c-0.06-0.18,1.26-0.43,1.41-0.44c0.32-0.03,0.32-0.54,0-0.51c-0.41,0.04-0.81,0.12-1.2,0.27c-0.29,0.11-0.72,0.26-0.77,0.61
				c-0.06,0.37,0.31,0.53,0.59,0.66c0.41,0.19,0.83,0.32,1.27,0.41C362.81,112.58,362.95,112.1,362.63,112.03z"/>
			<path class="st12" d="M355.39,116.96c0.34-0.55,0.12-2.21-0.44-3.08c-0.18-0.41-0.44-0.75-0.89-0.75c-0.8,0-1.31,0.86-1.4,1.56
				c-0.1,0.81,0.18,1.74,0.8,2.29C353.99,117.47,354.94,117.67,355.39,116.96z"/>
			<path class="st5" d="M365,116.75c-0.01,0-0.03,0.01-0.04,0.01c-0.15-0.09-0.33-0.1-0.52,0.07c-0.23,0.21-0.24,0.6-0.19,0.97
				c-0.11,0.45-0.22,0.9-0.3,1.35c-0.06,0.33-0.06,0.64,0.31,0.76c0.77,0.25,1.23-0.68,1.32-1.28
				C365.65,118.22,365.78,116.65,365,116.75z"/>
			<path class="st5" d="M364.29,109.23c-0.14-0.2-0.33-0.32-0.59-0.26c-0.27,0.06-0.4,0.34-0.35,0.6c0.01,0.07,0.04,0.14,0.07,0.2
				c-0.02,0.12,0.03,0.24,0.17,0.28c0.37,0.1,0.37,1.04,0.39,1.34c0.01,0.19,0.21,0.32,0.38,0.22c0.43-0.25,0.65-0.73,0.59-1.23
				C364.9,109.9,364.62,109.53,364.29,109.23z"/>
		</g>
	</g>
</g>
<g>
	<g>
		<path class="st10" d="M192.28,154.46c0.92,0,1.84,0.35,2.52,0.98c0.06,0.06,0.14,0.15,0.12,0.24c-0.02,0.09-0.12,0.15-0.21,0.18
			c-1.22,0.46-2.57,0.05-3.81-0.35c-0.27-0.09-0.55-0.18-0.82-0.27l-0.16,0.48c1.1,0.78,2.01,1.82,2.65,3
			c-1.2-0.08-2.24-0.8-3.32-1.33c-2.14-1.04-4.71-1.42-6.42-3.08c0.62-1.4,1.3-2.79,2.02-4.15c3.92,1.24,8.23-0.48,12.3,0.23
			c-0.58,0.86-1.63,1.29-2.63,1.57c-0.9,0.25-1.82,0.43-2.76,0.54l0.01,0.05c1.68-0.12,3.35-0.12,5.03-0.02
			c0.41,0.02,0.86,0.08,1.13,0.39c-0.46,0.58-1.2,0.85-1.92,1.04c-1.21,0.32-2.47,0.44-3.72,0.39L192.28,154.46z"/>
		<path class="st8" d="M157.88,136.93c0.18-0.02,0.36-0.04,0.53-0.06c3.8,2.9,7.79,5.62,12,7.87c4.55,2.44,9.35,4.32,14.42,5.28
			l0.07,0.04c-0.02,0.03-0.04,0.07-0.05,0.11c-0.72,1.36-1.4,2.75-2.02,4.15c-0.47,1.06-0.92,2.12-1.34,3.19l-0.04,0.06
			c-6.14-4.26-14.74-3-21.26-6.66c-1.88-1.06-3.52-2.49-5.14-3.91c-1.59-1.39-3.18-2.78-4.76-4.17l-0.1-0.04
			c-0.88,2.21-3.23,3.63-4.12,5.86c-0.25,0.62-0.37,1.28-0.44,1.95c-0.11,1.11-0.06,2.24,0.16,3.33l0.04,0.08
			c0.98-0.5,2.21-0.48,3.16,0.06c0.26,0.14,0.51,0.35,0.55,0.64c0.04,0.29-0.16,0.56-0.37,0.77c-0.25,0.24-0.52,0.44-0.81,0.61
			c-0.82,0.5-1.77,0.79-2.67,1.16c-1.71,0.72-3.21,1.76-4.58,2.98c-4.58,4.06-7.84,10.11-13.44,12.73
			c-0.55,0.26-1.17,0.48-1.77,0.54c-0.58,0.07-1.16,0-1.66-0.3l-0.12,0.05c-2.42-5.55-1.41-11.96-0.14-17.89
			c1.23-5.75,2.67-11.75,1.31-17.43l0.16-0.02c-0.71-3.69,0.12-7.51,1.37-11.05c1.25-3.54,2.93-6.92,4.02-10.52
			c2.7-8.9,1.71-18.7,5.03-27.38l0.27,0.1c0.7-0.09,1.41-0.15,2.13-0.17c1.41-0.04,2.82,0.08,4.2,0.35c0.23,0.04,0.47,0.09,0.7,0.15
			l-0.06,0.4c-0.04,3.01-0.07,6.03-0.11,9.03c-2.47,2.63-3.87,6.4-3.51,9.96c-0.37,1.63,0.12,3.44-0.61,4.93
			c-0.38,0.78-1.06,1.38-1.39,2.17c-0.48,1.17-0.12,2.52,0.39,3.68c0.3,0.68,0.65,1.34,1.04,1.98l-0.23,0.15
			c-0.02,1.05-0.18,2.1-0.48,3.11c-0.25,0.85-0.61,1.69-0.62,2.57c0,0.11,0,0.21,0.01,0.32l-0.17,0.12
			C142.07,134.1,150.12,137.66,157.88,136.93z"/>
		<path class="st10" d="M140.32,74.72c-0.82-1.76-1.33-3.66-1.5-5.59c0.65,0.13,1.06,0.78,1.38,1.37c0.5,0.92,1,1.85,1.51,2.77
			c0.88,1.61,1.77,3.27,2.06,5.09c0.25,1.53,0.06,3.09-0.17,4.62c-0.31,2.07-0.68,4.13-1.11,6.18l-0.02,0.08
			c-1.38-0.27-2.8-0.39-4.2-0.35c0.76-2.13,1.52-4.25,2.28-6.38l0.08-0.05c-1.85-3.04-3.84-5.98-5.97-8.83
			c-0.62-0.83-1.26-1.67-1.67-2.63c0.25-0.15,0.56-0.06,0.83,0.05C136.13,71.97,138.33,73.2,140.32,74.72z"/>
		<path class="st9" d="M145.96,153.82c-0.22,0.03-0.44,0.07-0.66,0.12c-5.24-0.59-9.99,1.91-13.96,5.13
			c-0.25,0.21,0.11,0.56,0.36,0.36c3.51-2.85,7.64-5.1,12.18-5.07c-3.17,1.22-5.47,4.03-7.6,6.65c-1.49,1.83-3.02,3.67-5.02,4.97
			c-2.08,1.35-4.48,2.04-6.96,2.11c-0.32,0.01-0.33,0.52,0,0.51c4.47-0.13,8.1-2.29,10.98-5.6c2.88-3.31,5.53-7.54,10.05-8.54
			c0.08,0.01,0.16,0.01,0.24,0.02c0.11,0.01,0.18-0.04,0.21-0.11c0.1-0.02,0.2-0.04,0.3-0.06
			C146.41,154.26,146.28,153.77,145.96,153.82z"/>
		<path class="st9" d="M147.01,142.54c-4.67,2.65-9.62,4.73-14.77,6.22c-0.31,0.09-0.18,0.58,0.13,0.49
			c5.2-1.5,10.19-3.6,14.89-6.27C147.55,142.82,147.29,142.38,147.01,142.54z"/>
		<path class="st9" d="M141.17,140.79c-2.92,1.81-5.89,3.55-8.89,5.22c-0.28,0.16-0.03,0.6,0.26,0.44c3-1.67,5.97-3.41,8.89-5.22
			C141.71,141.05,141.45,140.61,141.17,140.79z"/>
		<path class="st9" d="M137.63,139.52c-1.02,0.63-2.08,1.18-3.17,1.66c-0.3,0.13-0.04,0.57,0.26,0.44c1.1-0.48,2.15-1.03,3.17-1.66
			C138.16,139.78,137.91,139.34,137.63,139.52z"/>
		<path class="st9" d="M129.02,128.53c-1.28,2.9-1.97,5.95-2.05,9.12c-0.01,0.33,0.5,0.33,0.51,0c0.08-3.08,0.74-6.05,1.98-8.86
			C129.58,128.49,129.15,128.23,129.02,128.53z"/>
		<path class="st9" d="M130.65,130.81c-1.08,1.56-1.82,3.27-2.21,5.12c-0.07,0.32,0.42,0.45,0.49,0.13c0.39-1.81,1.11-3.47,2.16-5
			C131.27,130.79,130.84,130.54,130.65,130.81z"/>
		<path class="st9" d="M154.77,137.94c-1,0.78-1.96,1.59-2.89,2.45c-0.71,0.66-1.36,1.33-1.63,2.29c-0.09,0.31,0.4,0.45,0.49,0.13
			c0.31-1.07,1.19-1.79,1.99-2.51c0.78-0.7,1.58-1.36,2.4-2C155.39,138.09,155.03,137.74,154.77,137.94z"/>
		<path class="st9" d="M154.89,141.04c-1.38,0.63-2.77,1.26-4.15,1.89c-0.3,0.13-0.04,0.57,0.26,0.44c1.38-0.63,2.77-1.26,4.15-1.89
			C155.44,141.34,155.19,140.9,154.89,141.04z"/>
		<path class="st9" d="M153.49,143.59c-0.45,0.06-0.91,0.12-1.36,0.17c-0.32,0.04-0.32,0.55,0,0.51c0.45-0.06,0.91-0.12,1.36-0.17
			C153.81,144.06,153.81,143.55,153.49,143.59z"/>
		<path class="st9" d="M136.94,96.19c-1.05,2-2.1,4-3.15,6c-0.15,0.29,0.29,0.54,0.44,0.26l3.15-6
			C137.52,96.16,137.09,95.9,136.94,96.19z"/>
		<path class="st9" d="M138.71,96.79c-1.54,3.58-3.37,7.01-5.49,10.28c-0.18,0.27,0.26,0.53,0.44,0.26
			c2.12-3.27,3.95-6.7,5.49-10.28C139.27,96.75,138.83,96.5,138.71,96.79z"/>
	</g>
	<g>
		<path class="st3" d="M158.41,136.88c-0.18,0.02-0.35,0.04-0.53,0.06c-1.05-1.63-2.22-3.19-3.5-4.67
			c-1.66-0.74-3.32-1.48-4.99-2.21c-0.41-0.18-0.82-0.37-1.16-0.67c-0.48-0.44-0.74-1.08-0.83-1.73c-0.09-0.65-0.02-1.3,0.04-1.95
			l-0.04-0.16c1.26-0.32,2.46-0.86,3.53-1.6c-0.46-0.44-0.62-1.16-0.64-1.81c-0.06-1.88,0.64-3.72,0.62-5.61
			c-0.02-2.82-1.74-5.5-4.17-6.92c-0.72-0.42-1.49-0.74-2.15-1.23c-1.24-0.93-2.01-2.47-2-4.02c-1.33,1.27-2.7,2.64-3.1,4.43
			c-0.36-3.56,1.04-7.33,3.51-9.96c1.37-1.46,3.07-2.57,4.98-3.11c2.16-0.6,4.51-0.64,6.62,0.12c4.71,1.7,7.79,7.1,12.78,7.5
			c2.37,0.19,4.65-0.84,7.01-1.22c2.35-0.39,5.24,0.2,6.16,2.41c0.34,0.83,0.34,1.77,0.24,2.67c-0.32,2.83-1.54,5.47-2.35,8.19
			c-0.26,0.89-0.49,1.82-0.34,2.73c0.47,2.99,4.42,4.29,5.27,7.19c0.51,1.75-0.27,3.66-1.51,5c-1.23,1.34-2.85,2.24-4.38,3.22
			c-1.54,0.97-3.07,2.08-3.96,3.67c-0.82,1.48-1.02,3.21-1.53,4.82c-0.32,0.99-0.83,2-1.56,2.71
			C166.2,142.49,162.22,139.77,158.41,136.88z"/>
		<path class="st14" d="M176.01,103.96c-3.67-0.43-6.49,2.46-9.81,3.42c-4.62,1.34-6.68-2.39-9.14-5.47
			c-1.97-2.46-4.84-3.92-8.04-3.49c-3.19,0.43-5.78,2.78-6.78,5.79c-0.1,0.31,0.39,0.44,0.49,0.13c1.35-4.06,5.65-6.42,9.79-5.13
			c3.97,1.24,5.06,5.39,8.13,7.73c3.05,2.32,6.43,0.83,9.42-0.77c1.91-1.01,3.98-2.08,6.21-1.67c2.48,0.46,3.42,2.52,3.31,4.86
			c-0.02,0.33,0.49,0.32,0.51,0C180.23,106.62,178.91,104.3,176.01,103.96z"/>
		<path class="st14" d="M178.88,114.78c-0.86-3.34-4.73-3.45-7.36-2.29c-2.17,0.96-3.97,2.63-6.24,3.37
			c-2.39,0.78-4.64,0.08-6.27-1.83c-2.39-2.81-2.41-7.72-6.12-9.41c-3.31-1.51-6.44,1.13-7.72,4.01c-0.13,0.29,0.3,0.55,0.44,0.26
			c0.78-1.75,2.02-3.33,3.9-3.94c2.32-0.74,4.31,0.44,5.55,2.37c1.76,2.74,2.07,6.21,4.86,8.26c2.51,1.85,5.42,1.09,7.92-0.37
			c1.65-0.96,3.21-2.17,5.07-2.69c2.16-0.61,4.85-0.05,5.48,2.4C178.47,115.23,178.96,115.09,178.88,114.78z"/>
		<path class="st14" d="M177.61,128.87c-0.99-0.97-2.43-0.46-3.65-0.67c-2.08-0.35-3.21-1.85-3.93-3.7
			c-0.42-1.07-0.8-2.27-1.77-2.98c-1.16-0.83-2.77-0.69-4.1-0.52c-1.99,0.25-3.97,0.87-5.99,0.55c-3.52-0.55-6.38-3.41-7.07-6.87
			c-0.06-0.32-0.55-0.18-0.49,0.13c0.53,2.68,2.27,4.97,4.67,6.27c3.12,1.69,6.07,0.68,9.37,0.36c0.99-0.1,2.17-0.18,3.08,0.33
			c0.83,0.47,1.24,1.36,1.57,2.21c0.5,1.24,0.89,2.49,1.91,3.42c0.84,0.76,1.93,1.25,3.06,1.35c0.98,0.08,2.16-0.28,2.97,0.46
			c0.76,0.7,0.78,2,0.8,2.95c0.01,0.33,0.51,0.33,0.51,0C178.54,131.06,178.46,129.71,177.61,128.87z"/>
		<path class="st14" d="M166.46,138.44c-2.17-2.16,0.2-5.22-1.42-7.57c-1.45-2.11-4.5-1.83-6.71-2.03
			c-3.65-0.33-5.54-2.83-7.26-5.79c-0.16-0.28-0.6-0.03-0.44,0.26c1.09,1.89,2.31,3.89,4.22,5.04c2.37,1.44,5.13,0.67,7.66,1.45
			c1.77,0.55,2.69,1.78,2.62,3.65c-0.05,1.12-0.33,2.24-0.13,3.36c0.16,0.94,0.67,1.63,1.38,2.24c1.04,0.87,3.2,2.14,2.06,3.78
			c-0.19,0.27,0.25,0.52,0.44,0.26C170.3,141.03,167.64,139.61,166.46,138.44z"/>
	</g>
	<g>
		<path class="st1" d="M142.39,212.94c-0.2,0.03-0.39,0.05-0.59,0.07l-0.11,0.08c-2.35-3.26-3.17-7.36-4.51-11.16
			c-0.29-0.81-0.6-1.6-0.92-2.39c0.02-0.02,0.05-0.04,0.08-0.06c1.06-0.82,2.13-1.65,3.18-2.49c1.35-1.06,2.7-2.15,4.03-3.24
			l0.4,0.49c0.39,2.94,1.27,5.82,2.59,8.48c1.17,2.36,2.74,4.78,2.44,7.39v0.01c-0.11,0.08-0.22,0.17-0.33,0.25
			C146.82,211.74,144.65,212.63,142.39,212.94z"/>
		<path class="st10" d="M150.12,223.16c0.51,3.07,0.05,6.29-1.31,9.09c-2.27-6.35-3.73-13.1-6.42-19.3c2.25-0.3,4.43-1.2,6.24-2.57
			c0.86,4.27,1.32,8.62,1.34,12.97C150.02,223.28,150.07,223.22,150.12,223.16z"/>
		<path class="st1" d="M156,171.94l-0.13-0.06c-5.26,0.62-10.68-0.18-15.54-2.29l-0.26-0.05c0.57-3.14,1.77-6.25,1.03-9.29
			c1.37-1.23,2.87-2.27,4.58-2.98c0.89-0.37,1.85-0.67,2.67-1.16c7.12,2.77,14.19,5.69,21.19,8.76c0.64,0.28,1.3,0.57,1.81,1.05
			c0.51,0.48,0.87,1.19,0.75,1.87c-0.11,0.59-0.53,1.06-0.95,1.49c-1.72,1.75-3.67,3.25-5.55,4.82c-3.17,2.66-6.15,5.53-8.94,8.59
			c-0.07-0.04-0.13-0.09-0.2-0.13c-0.85-0.55-1.67-1.14-2.36-1.88c-0.64-0.68-1.15-1.5-1.38-2.39c-0.05-0.16-0.08-0.33-0.1-0.49
			c1.09-1.48,2.05-3.07,2.86-4.72C155.66,172.7,155.83,172.32,156,171.94z"/>
		<path class="st10" d="M145.57,187.5l0.11,0.02c2.27-3.14,4.62-6.21,7.04-9.23c0.23,0.89,0.75,1.72,1.38,2.39
			c0.69,0.74,1.51,1.33,2.36,1.88c-4.2,3.85-8.51,7.58-12.92,11.19c-1.33,1.09-2.67,2.18-4.03,3.24c0.24-1.96,1.1-3.81,2.24-5.42
			c1.1-1.58,2.46-2.96,3.85-4.3C145.59,187.35,145.59,187.42,145.57,187.5z"/>
		<path class="st6" d="M154,223.88c0.2,2.06,0.17,4.13,0.13,6.21c-0.08,4.01-0.15,8.02-0.23,12.03c-0.3,0.03-0.53-0.25-0.68-0.51
			c-1.86-2.94-3.24-6.1-4.4-9.37c1.36-2.79,1.83-6.02,1.31-9.09c0.51-0.7,0.74-1.69,1.54-1.97c0.65-0.23,1.4,0.15,1.78,0.72
			C153.83,222.48,153.94,223.19,154,223.88z"/>
		<path class="st6" d="M144.24,185.4c0.78,0.27,1.38,1.07,1.35,1.87c-1.39,1.34-2.75,2.72-3.85,4.3c-1.13,1.62-2,3.47-2.24,5.42
			c-1.05,0.84-2.11,1.67-3.18,2.49c-0.02,0.02-0.05,0.04-0.08,0.06c-0.41-0.98-0.85-1.94-1.31-2.9c0.68-1.28,1.35-2.57,2.02-3.85
			c0.85-1.61,1.69-3.22,2.68-4.74c0.52-0.81,1.1-1.6,1.88-2.15c0.53-0.37,1.17-0.62,1.8-0.64
			C143.64,185.25,143.95,185.29,144.24,185.4z"/>
		<path class="st1" d="M143.33,185.16l0.01,0.11c-0.64,0.02-1.28,0.26-1.8,0.64c-0.78,0.55-1.36,1.34-1.88,2.15
			c-0.99,1.52-1.83,3.13-2.68,4.74c-0.67,1.28-1.34,2.57-2.02,3.85c-1.97-4.09-4.32-8.02-6.29-12.12c-1.66-3.45-3.07-7.19-2.76-11
			c0.61-0.06,1.23-0.29,1.77-0.54c5.6-2.62,8.86-8.66,13.44-12.73c0.74,3.04-0.46,6.15-1.03,9.29c-0.2,1.13-0.33,2.25-0.25,3.39
			c0.11,1.49,0.56,2.93,1.01,4.36C141.66,179.91,142.49,182.53,143.33,185.16z"/>
		<path class="st6" d="M134.95,196.64c0.46,0.95,0.9,1.92,1.31,2.9c-0.94,0.73-1.9,1.45-3.01,1.86c-0.44-0.41-0.19-1.15,0.09-1.69
			C133.87,198.69,134.41,197.66,134.95,196.64z"/>
		<path class="st13" d="M142.26,160.77c-0.96,2.44-1.67,4.95-2.12,7.54c-0.06,0.32,0.43,0.45,0.49,0.13
			c0.45-2.58,1.16-5.1,2.12-7.54C142.87,160.6,142.38,160.47,142.26,160.77z"/>
		<path class="st13" d="M145.14,161.77c-1.32,2.13-2.65,4.25-3.97,6.38c-0.17,0.28,0.26,0.53,0.44,0.26
			c1.32-2.13,2.65-4.25,3.97-6.38C145.75,161.75,145.32,161.49,145.14,161.77z"/>
		<path class="st13" d="M138.99,169.06c-0.56-1.23-1.34-2.31-2.33-3.23c-0.24-0.22-0.6,0.14-0.36,0.36
			c0.96,0.89,1.71,1.94,2.25,3.13C138.69,169.61,139.13,169.35,138.99,169.06z"/>
		<path class="st13" d="M138.92,169.56c-0.9-0.2-1.8-0.34-2.71-0.43c-0.32-0.03-0.32,0.47,0,0.51c0.87,0.09,1.72,0.22,2.58,0.41
			C139.11,170.12,139.24,169.63,138.92,169.56z"/>
		<path class="st13" d="M135.63,194.45c-3.98-6.02-6.72-12.75-8.07-19.84c-0.06-0.32-0.55-0.18-0.49,0.13
			c1.36,7.13,4.11,13.9,8.12,19.96C135.38,194.97,135.82,194.72,135.63,194.45z"/>
		<path class="st13" d="M142.43,212.07c-1.44-4.59-3.06-9.13-4.85-13.6c-0.12-0.3-0.61-0.17-0.49,0.13c1.79,4.47,3.41,9,4.85,13.6
			C142.04,212.52,142.52,212.39,142.43,212.07z"/>
		<path class="st13" d="M158.45,168.87c-0.34-0.07-0.78,0.06-1.12,0.11c-0.86,0.13-1.72,0.24-2.59,0.32
			c-1.37,0.14-2.75,0.21-4.12,0.24c-1.46,0.02-2.92-0.01-4.37-0.12c-1.36-0.1-2.95-0.22-3.77-1.48c-0.18-0.27-0.61-0.02-0.44,0.26
			c0.83,1.28,2.28,1.56,3.72,1.69c2.58,0.23,5.19,0.21,7.77,0.02c1.15-0.09,2.3-0.21,3.45-0.38c0.39-0.06,0.79-0.12,1.18-0.18
			c0.56,0.38,0.66,0.8,0.31,1.27c-0.28,0.61-0.64,1.19-0.96,1.78c-1.28,2.37-2.56,4.75-3.85,7.12c-0.15,0.29,0.28,0.54,0.44,0.26
			c1.4-2.6,2.8-5.19,4.21-7.79C158.71,171.26,160.07,169.19,158.45,168.87z"/>
	</g>
	<g>
		<path class="st10" d="M157.88,136.93c-7.76,0.72-15.81-2.83-20.46-9.11l0.17-0.12c-0.01-0.11-0.01-0.21-0.01-0.32l0.13,0.01
			c0.62-0.2,1.23-0.48,1.79-0.82c0.32-0.19,0.62-0.4,0.85-0.69c0.23-0.28,0.39-1.28,0.43-1.63c0.3,0.4,0.62,0.8,1.04,1.07
			c0.44,0.29,0.98,0.4,1.51,0.47c1.37,0.19,2.76,0.1,4.09-0.24l0.04,0.16c-0.06,0.65-0.13,1.3-0.04,1.95
			c0.09,0.65,0.34,1.29,0.83,1.73c0.33,0.3,0.75,0.49,1.16,0.67c1.66,0.73,3.32,1.47,4.99,2.21
			C155.66,133.74,156.83,135.3,157.88,136.93z"/>
		<path class="st10" d="M150.93,116.54c0.01,1.89-0.69,3.73-0.62,5.61c0.02,0.65,0.19,1.37,0.64,1.81c-1.07,0.74-2.27,1.28-3.53,1.6
			c-1.33,0.34-2.73,0.43-4.09,0.24c-0.53-0.07-1.06-0.19-1.51-0.47c-0.42-0.27-0.74-0.67-1.04-1.07c-0.66-0.86-1.29-1.75-1.85-2.69
			c-0.39-0.64-0.74-1.3-1.04-1.98c-0.51-1.16-0.88-2.51-0.39-3.68c0.33-0.79,1.01-1.4,1.39-2.17c0.74-1.49,0.25-3.3,0.61-4.93
			c0.4-1.79,1.77-3.16,3.1-4.43c-0.01,1.55,0.76,3.09,2,4.02c0.67,0.5,1.44,0.81,2.15,1.23
			C149.19,111.04,150.91,113.72,150.93,116.54z"/>
		<path class="st15" d="M146.24,125.05c-1.81,0.26-3.83,0.47-5.18-1.02c-0.22-0.24-0.58,0.12-0.36,0.36
			c1.48,1.63,3.68,1.43,5.67,1.15C146.7,125.5,146.56,125.01,146.24,125.05z"/>
		<path class="st15" d="M141.07,114.74c-0.29,0.12-0.59,0.22-0.9,0.28c-0.2,0.04-0.43,0.04-0.62,0.11
			c-0.29,0.11-0.44,0.36-0.44,0.67c0,0.79,0.86,1.47,1.47,1.83c0.28,0.17,0.54-0.27,0.26-0.44c-0.28-0.16-0.53-0.35-0.75-0.59
			c-0.15-0.16-0.53-0.55-0.47-0.81c0.07-0.27,0.66-0.28,0.86-0.33c0.3-0.07,0.58-0.18,0.86-0.3
			C141.62,115.05,141.37,114.61,141.07,114.74z"/>
		<path class="st11" d="M141.48,111.36c-0.21-0.18-0.5-0.15-0.7,0.01c-0.08,0-0.16,0.03-0.2,0.12c-0.2,0.4-0.35,0.89-0.27,1.34
			c0.06,0.35,0.36,0.69,0.76,0.58C141.72,113.22,141.98,111.81,141.48,111.36z"/>
		<path class="st11" d="M147.03,113.11c-0.58-0.21-0.93,0.24-1.06,0.81c-0.16,0.44-0.23,0.94-0.06,1.36
			c0.17,0.4,0.62,0.63,1.02,0.42C147.67,115.32,147.95,113.45,147.03,113.11z"/>
		<path class="st12" d="M143.88,120.3c-0.34-0.55-1.93-1.09-2.96-0.97c-0.45-0.02-0.87,0.07-1.06,0.47
			c-0.35,0.72,0.19,1.56,0.78,1.95c0.68,0.45,1.64,0.6,2.41,0.3C143.73,121.78,144.33,121.02,143.88,120.3z"/>
		<path class="st3" d="M148.77,112.34c-0.09-0.39-0.32-0.75-0.63-1c-0.26-0.2-0.75-0.46-1.09-0.36c-0.11,0.03-0.18,0.1-0.21,0.19
			c-0.13,0.1-0.21,0.24-0.2,0.43c0.02,0.4,0.5,0.67,0.77,0.89c0.18,0.14,0.37,0.28,0.55,0.42c0.14,0.11,0.3,0.25,0.49,0.23
			C148.85,113.1,148.84,112.63,148.77,112.34z"/>
		<path class="st3" d="M141.31,109.46c-0.16,0-0.33,0.03-0.5,0.09c0,0,0,0,0,0c0,0,0,0-0.01,0c-0.07,0.02-0.14,0.04-0.2,0.07
			c-0.08,0.03-0.16,0.07-0.23,0.11c0,0,0,0-0.01,0c-0.23,0.14-0.43,0.33-0.57,0.57c-0.15,0.28-0.14,0.63,0.22,0.71
			c0.2,0.05,0.4-0.04,0.58-0.12c0.26-0.12,0.52-0.23,0.8-0.31c0.27-0.08,0.88-0.18,0.8-0.59
			C142.12,109.63,141.63,109.46,141.31,109.46z"/>
	</g>
</g>
<g>
	<g>
		<path class="st8" d="M269.32,246.07c-1.33-1.24-2.75-2.36-4.26-3.35c-2.97-1.95-6.24-3.4-9.17-5.42c-2.62-1.79-5.02-4.16-6.12-7.1
			c1.93-1.56,3.98-3.02,5.66-4.84c1.64-1.77,2.96-3.96,3.19-6.35l0.08,0.01c4.82,2.7,9.44,5.76,13.81,9.15
			c3.52,2.73,6.94,5.73,9.23,9.55c0.44,0.73,0.84,1.5,1.02,2.34c0.44,2.06-0.54,4.14-1.53,6c-5.29,9.96-11.86,19.29-15.97,29.79
			l-0.13,0.36c-0.63-0.23-1.26-0.46-1.87-0.74c-0.35-0.16-0.69-0.34-1.02-0.54c-0.82-0.5-1.56-1.17-2.04-2
			c-0.1-0.16-0.18-0.32-0.25-0.49l-0.39-0.25c2.43-3.88,3.18-8.61,4.07-13.13C264.58,254.34,265.89,249.41,269.32,246.07z"/>
		<path class="st6" d="M265.33,280.19c2.27,0.51,4.5,1.2,6.67,2.05c0.62,0.25,1.25,0.51,1.73,0.98c0.2,0.19,0.39,0.47,0.34,0.75
			c-0.04,0.2-0.18,0.36-0.32,0.5c-1.81,1.78-4.58,2.03-7.11,2.19c-1.71,0.11-3.42,0.21-5.13,0.32l0.01,0.08
			c-0.98,0.25-2.02-0.2-2.74-0.91c-0.72-0.7-1.17-1.63-1.61-2.53c-0.62-1.29-1.25-2.57-1.87-3.86c-0.31-0.64-0.63-1.33-0.5-2.03
			c0.21-1.14,1.45-1.7,2.46-2.28c1.13-0.64,2.14-1.5,2.94-2.52c0.47,0.83,1.21,1.5,2.04,2c0.33,0.2,0.67,0.38,1.02,0.54
			C263.64,277.15,264.34,278.77,265.33,280.19z"/>
		<path class="st8" d="M249.77,230.2c-0.08,0.06-0.16,0.13-0.24,0.19c-9.66,7.93-15.89,19.17-23.87,28.8
			c-4.26,5.14-9.05,9.86-12.83,15.36c-3.54,5.16-6.25,11.08-11.06,15.08l-0.53-0.19c0.08-0.21,0.15-0.43,0.22-0.64l0.19-0.25
			c-1.13-0.88-2.02-2.07-2.55-3.4c-0.1-0.25-0.19-0.49-0.26-0.74c1.19-2.98,2.36-5.97,3.55-8.95c1.7-4.3,3.43-8.64,5.98-12.5
			c2.7-4.09,6.29-7.57,8.69-11.85c2.61-4.68,3.65-10.05,5.15-15.2c1.24-4.24,2.94-8.55,5.85-11.81c0.72,1.93,2.66,3.11,4.5,4.05
			c2.29,1.18,4.81,2.27,7.36,1.92c3-0.41,5.35-2.68,7.41-4.9c2.06-2.22,4.22-4.61,7.14-5.38c1.38-0.37,2.9-0.37,4.19-0.89
			c-0.01,0.04-0.01,0.09-0.01,0.13c-0.23,2.38-1.55,4.58-3.19,6.35C253.74,227.18,251.7,228.63,249.77,230.2z"/>
		<path class="st6" d="M201.63,288.54l-0.19,0.25c-0.06,0.22-0.14,0.43-0.22,0.64c-1.56,4.36-5.12,7.97-9.47,9.57
			c-1.06,0.39-2.46,0.57-3.11-0.34c-0.41-0.57-0.34-1.35-0.19-2.03c0.57-2.6,2.11-4.92,4.01-6.78c1.9-1.87,4.17-3.32,6.48-4.65
			l0.13-0.05C199.61,286.47,200.5,287.65,201.63,288.54z"/>
		<path class="st9" d="M226.98,249.08c-3.08,3.37-6.83,6.01-11.05,7.75c-0.3,0.12-0.17,0.61,0.13,0.49
			c4.3-1.78,8.13-4.45,11.27-7.88C227.56,249.2,227.2,248.84,226.98,249.08z"/>
		<path class="st9" d="M223.71,254.53c-2.17,2.43-4.59,4.58-7.26,6.44c-0.27,0.18-0.01,0.62,0.26,0.44c2.7-1.89,5.17-4.06,7.36-6.52
			C224.28,254.65,223.92,254.29,223.71,254.53z"/>
		<path class="st9" d="M275.06,236.62c-1.18,1.38-2.32,2.79-3.41,4.25c-0.84,1.12-2.34,2.55-2.33,4.04c0,0.33,0.51,0.33,0.51,0
			c-0.01-1.38,1.74-3.11,2.54-4.16c0.98-1.29,2-2.54,3.05-3.77C275.62,236.73,275.27,236.37,275.06,236.62z"/>
		<path class="st9" d="M276.97,240.64c-2.4,1.21-4.54,2.79-6.4,4.71c-0.23,0.23,0.13,0.59,0.36,0.36c1.84-1.9,3.94-3.44,6.3-4.63
			C277.52,240.93,277.26,240.49,276.97,240.64z"/>
		<path class="st9" d="M275.78,244.91c-1.47,0.39-2.9,0.91-4.28,1.55c-0.29,0.14-0.04,0.57,0.26,0.44c1.34-0.63,2.73-1.12,4.16-1.5
			C276.23,245.32,276.1,244.83,275.78,244.91z"/>
		<path class="st9" d="M254.01,220.95c-1.17,3.01-2.64,5.86-4.4,8.56c-0.18,0.27,0.26,0.53,0.44,0.26c1.79-2.74,3.27-5.64,4.45-8.69
			C254.62,220.78,254.13,220.65,254.01,220.95z"/>
		<path class="st9" d="M258.96,222.52c-2.16,2.9-5.6,4.43-7.95,7.15c-0.21,0.25,0.14,0.6,0.36,0.36c2.38-2.75,5.83-4.31,8.03-7.25
			C259.59,222.51,259.15,222.26,258.96,222.52z"/>
	</g>
	<g>
		<path class="st2" d="M233.53,152.16c-0.23-0.31-0.39-0.68-0.41-1.06c-0.02-0.18,0-0.36,0.06-0.53c0.18-0.56,0.69-0.93,1.17-1.26
			c0.91-0.62,1.82-1.25,2.73-1.87c0.51-0.35,1.03-0.71,1.63-0.82c0.06-0.01,0.13-0.02,0.19-0.02c0.56-0.05,1.16,0.15,1.44,0.62
			l0.04,0.36c-0.61,0.08-1.22,0.41-1.65,0.88c-0.68,0.73-1.01,1.7-1.33,2.65l-0.68,0.14c-0.98,0.18-1.73,1.06-1.88,2.03l-0.06-0.01
			C234.34,152.95,233.86,152.62,233.53,152.16z"/>
		<path class="st2" d="M238.42,169.31c1.59,0.09,3.43,0.33,4.28,1.68c0.44,0.7,0.51,1.56,0.57,2.39c0.26,3.63,0.51,7.26,0.76,10.9
			l-0.14,0.08c-1.19-2.36-2.84-4.48-4.86-6.2c0.31-2.14,0.26-4.34-0.15-6.46c-0.14-0.76-0.33-1.51-0.56-2.24
			c0.01-0.05,0.02-0.1,0.02-0.15L238.42,169.31z"/>
		<path class="st2" d="M218.16,208.1l-0.43,0.02c-1.12-0.15-1.91-1.27-1.99-2.39c-0.01-0.09-0.01-0.19-0.01-0.29
			c0.01-1.02,0.47-2,1.05-2.86c0.63-0.93,1.41-1.75,2.01-2.7c1.27-1.99,1.72-4.37,2.11-6.7c0.38-2.33,0.74-4.72,1.86-6.79
			c1.11-2.04,3.15-3.75,5.47-3.8c1.35,2.73,3.65,5,6.43,6.27l0.29-0.08c-0.62-2.12-0.19-4.53,1.14-6.29v-0.01
			c0.05,0,0.11-0.01,0.16-0.01v0.09c2.15,1.86,4.31,3.71,6.47,5.57l0.02-0.02c-1.24-3.22-2.49-6.45-3.74-9.66
			c0.02-0.11,0.04-0.22,0.05-0.32c2.01,1.72,3.67,3.84,4.86,6.2l0.14-0.08c-0.25-3.63-0.5-7.26-0.76-10.9
			c-0.05-0.82-0.12-1.69-0.57-2.39c-0.85-1.35-2.69-1.58-4.28-1.68l-0.08-0.01c0.38-2.14,0.76-4.31,0.65-6.49
			c-0.11-2.23-0.76-4.51-2.25-6.18c-0.68-0.78-1.56-1.47-1.84-2.46c-0.08-0.29-0.09-0.6-0.05-0.89c0.15-0.97,0.9-1.85,1.88-2.03
			l0.68-0.14c0.32-0.95,0.65-1.92,1.33-2.65c0.43-0.47,1.03-0.81,1.65-0.88c0.36-0.05,0.71-0.01,1.04,0.15
			c0.59,0.28,0.98,0.85,1.33,1.39c1.25,1.92,2.5,3.84,3.75,5.76c1.91,2.93,3.82,5.86,5.3,9.02c2.8,5.99,4,12.65,4.05,19.27h-0.03
			c0,5.45,3.64,10.16,5.55,15.29c1.97,5.27,2.06,11.22,0.27,16.56c-0.43,1.28-1.02,2.59-2.11,3.38c-0.28,0.2-0.58,0.36-0.9,0.49
			c-1.29,0.53-2.81,0.53-4.19,0.89c-2.92,0.78-5.08,3.16-7.14,5.38c-2.06,2.22-4.41,4.49-7.41,4.9c-2.55,0.35-5.07-0.74-7.36-1.92
			c-1.84-0.95-3.77-2.13-4.5-4.05c-0.01-0.02-0.02-0.05-0.03-0.08c-0.44-1.24-0.3-2.62-0.15-3.94c0.61-5.45,1.21-10.9,1.82-16.36
			c-0.43,0.41-0.83,0.83-1.19,1.29c-0.98,1.24-1.62,2.72-2.53,4.03c-0.9,1.3-2.2,2.48-3.77,2.66c-0.26,0.03-0.52,0.02-0.78-0.01
			c-0.78-0.09-1.54-0.43-2.11-0.96C218.58,210.05,218.16,209.08,218.16,208.1z"/>
		<path class="st16" d="M239.03,178.14c-0.01,0.11-0.03,0.22-0.05,0.32c1.25,3.22,2.49,6.45,3.74,9.66l-0.02,0.02
			c-2.15-1.86-4.31-3.71-6.47-5.57v-0.09c-0.05,0-0.11,0.01-0.16,0.01c-2.32,0.01-4.65-0.59-6.67-1.73l0.03-0.25
			c0.82,0.09,1.64,0.16,2.46,0.21c0.55,0.04,1.11,0.06,1.65-0.07c1.59-0.39,2.59-1.98,3.09-3.54c0.66-2.08,0.7-4.33,0.19-6.45
			l0.16-0.04c0.64,0.36,1.26,0.7,1.89,1.05C239.29,173.8,239.34,176,239.03,178.14z"/>
		<path class="st16" d="M238.91,146.59c-0.06,0-0.13,0.01-0.19,0.02c-0.6,0.12-1.13,0.47-1.63,0.82c-0.91,0.62-1.82,1.25-2.73,1.87
			c-0.48,0.33-1,0.7-1.17,1.26c-0.06,0.17-0.08,0.35-0.06,0.53c-7.09-0.22-14.22,0.66-21.04,2.6l-0.11,0.44
			c0.92,0.63,1.94,1.42,2,2.54c0.04,0.88-0.54,1.66-1.14,2.31c-0.57,0.61-1.2,1.2-1.94,1.6c-0.95,0.53-2.11,0.72-3.15,0.39
			c-1.04-0.33-1.9-1.24-2.04-2.32c-0.15-1.17,0.51-2.27,1.16-3.25c0.82-1.27,1.64-2.55,2.46-3.82l0.04,0.02
			c2.53-1.92,5.61-2.94,8.63-3.93c4.21-1.38,8.43-2.77,12.64-4.16c1.03-0.34,2.1-0.68,3.18-0.59
			C235.97,143.1,237.56,144.9,238.91,146.59z"/>
		<path class="st2" d="M228.21,182.6c-0.37-0.75-0.67-1.52-0.89-2.33l0.01-0.04c0.7,0.11,1.4,0.21,2.11,0.29l-0.03,0.25
			c2.02,1.14,4.34,1.74,6.67,1.73v0.01c-1.34,1.76-1.77,4.17-1.14,6.29l-0.29,0.08C231.86,187.6,229.57,185.33,228.21,182.6z"/>
		<path class="st2" d="M212.8,208.28c-0.04-0.05-0.06-0.1-0.09-0.15l-0.15-0.17c1-0.85,1.99-1.69,2.99-2.53l0.18,0.01
			c0,0.09,0.01,0.19,0.01,0.29c0.08,1.12,0.88,2.24,1.99,2.39l0.43-0.02c0.01,0.99,0.43,1.96,1.14,2.63
			c0.57,0.54,1.33,0.88,2.11,0.96l-0.06,0.41c-0.96,0.98-1.93,1.95-2.9,2.93l-0.02,0.02c-0.27-0.22-0.54-0.45-0.8-0.68
			C215.69,212.64,214.05,210.57,212.8,208.28z"/>
		<path class="st16" d="M204.04,215.08l0.11-0.34c2.88-2.15,5.76-4.3,8.64-6.46c1.25,2.28,2.9,4.36,4.84,6.08l-0.06,0.08
			c-3.23,1.32-6.46,2.64-9.69,3.97c-1.06,0.44-2.2,0.94-2.74,1.95c-0.29,0.54-0.4,1.21-0.9,1.54c-0.51,0.34-1.18,0.19-1.76,0.04
			c-2.05-0.56-4.1-1.12-6.15-1.67c0.09-1.82,1.1-3.57,2.63-4.57C200.44,214.73,202.37,214.49,204.04,215.08z"/>
		<path class="st5" d="M239.01,169.7c-0.22-0.24-0.58,0.12-0.36,0.36c2.91,3.11,4.65,7.07,4.97,11.32
			c-1.13-1.27-2.53-2.19-4.13-2.73c-0.31-0.11-0.44,0.38-0.13,0.49c1.54,0.53,2.87,1.42,3.95,2.64c0.17,0.19,0.42,0.02,0.42-0.19
			c0.15,0.12,0.42,0.06,0.41-0.19C243.8,177,242.02,172.91,239.01,169.7z"/>
		<path class="st5" d="M236.62,187.79c-0.36-1.57-0.38-3.13-0.06-4.71c0.06-0.32-0.42-0.45-0.49-0.13
			c-0.31,1.51-0.32,3.01-0.03,4.51c-2.6-1.14-5.19-2.38-6.99-4.65c-0.2-0.25-0.56,0.11-0.36,0.36c1.93,2.42,4.73,3.71,7.51,4.91
			c0.04,0.02,0.08,0.02,0.12,0.02C236.47,188.13,236.67,188,236.62,187.79z"/>
		<path class="st5" d="M248.17,187.54c-3.43,4.84-5.96,10.24-7.49,15.97c-0.08,0.31,0.4,0.45,0.49,0.13
			c1.52-5.69,4.03-11.04,7.43-15.85C248.79,187.53,248.36,187.27,248.17,187.54z"/>
		<path class="st5" d="M252.22,196.32c-4.07,3.57-7.41,7.86-9.87,12.68c-0.15,0.29,0.29,0.55,0.44,0.26
			c2.44-4.79,5.75-9.03,9.79-12.58C252.82,196.46,252.47,196.1,252.22,196.32z"/>
		<path class="st5" d="M236.37,194.91c-1.36,2.56-3.12,4.83-5.25,6.8c2.29-3.48,3.25-7.66,2.67-11.84
			c-0.04-0.32-0.53-0.18-0.49,0.13c0.65,4.69-0.74,9.44-3.81,13.05c-0.21,0.25,0.15,0.61,0.36,0.36c0.37-0.43,0.71-0.88,1.02-1.33
			c0.03,0.17,0.26,0.31,0.43,0.16c2.23-2.03,4.07-4.4,5.49-7.06C236.96,194.88,236.52,194.63,236.37,194.91z"/>
		<path class="st5" d="M218.74,201.37c-0.92,1.83-1.56,3.75-1.91,5.77c-0.05,0.32,0.43,0.46,0.49,0.13
			c0.34-1.98,0.95-3.85,1.86-5.65C219.32,201.34,218.88,201.08,218.74,201.37z"/>
		<path class="st5" d="M221.05,203.06c-1.41,1.43-2.42,3.14-2.98,5.07c-0.09,0.31,0.4,0.45,0.49,0.13c0.54-1.85,1.49-3.48,2.85-4.85
			C221.64,203.18,221.28,202.83,221.05,203.06z"/>
		<path class="st5" d="M222.18,207.36c-1.03,0.64-2.09,1.21-3.19,1.7c-0.3,0.13-0.04,0.57,0.26,0.44c1.1-0.5,2.17-1.06,3.19-1.7
			C222.71,207.63,222.45,207.19,222.18,207.36z"/>
		<path class="st5" d="M222.39,209.21c-0.6,0.52-1.29,0.86-2.06,1.03c-0.32,0.07-0.18,0.56,0.13,0.49c0.86-0.19,1.62-0.59,2.29-1.16
			C222.99,209.36,222.63,209,222.39,209.21z"/>
		<path class="st5" d="M221.27,211.8c-1.89-2.05-3.77-4.1-5.66-6.15c-0.22-0.24-0.58,0.12-0.36,0.36l5.66,6.15
			C221.13,212.39,221.49,212.04,221.27,211.8z"/>
		<path class="st5" d="M219.78,213.1c-0.92-0.98-1.8-2-2.61-3.07c-0.79-1.04-1.73-2.15-2.11-3.42c-0.09-0.31-0.58-0.18-0.49,0.13
			c0.38,1.27,1.26,2.34,2.04,3.39c0.88,1.16,1.82,2.27,2.81,3.33C219.65,213.69,220.01,213.34,219.78,213.1z"/>
		<path class="st5" d="M219.02,213.78c-2.09-1.79-3.9-3.84-5.42-6.14c-0.18-0.27-0.62-0.02-0.44,0.26c1.54,2.33,3.37,4.42,5.5,6.24
			C218.9,214.35,219.26,213.99,219.02,213.78z"/>
		<path class="st5" d="M237.6,151.05c-1.22,0.34-2.25,1.08-2.96,2.13c-0.18,0.27,0.25,0.52,0.44,0.26c0.64-0.94,1.57-1.59,2.66-1.9
			C238.05,151.45,237.91,150.96,237.6,151.05z"/>
		<path class="st5" d="M239.19,147.03c-1.95,1.18-3.75,2.56-5.39,4.14c-0.24,0.23,0.12,0.58,0.36,0.36c1.61-1.55,3.38-2.9,5.29-4.06
			C239.73,147.29,239.47,146.86,239.19,147.03z"/>
		<path class="st5" d="M237.26,149.63c-1.09,0.77-2.14,1.61-3.13,2.51c-0.24,0.22,0.12,0.58,0.36,0.36
			c0.96-0.87,1.97-1.68,3.03-2.43C237.78,149.88,237.53,149.44,237.26,149.63z"/>
		<path class="st5" d="M243.33,152.11c-1.47-1.07-3.23-1.43-5.01-1.07c-0.32,0.06-0.18,0.55,0.13,0.49
			c1.65-0.34,3.26,0.03,4.62,1.02C243.34,152.74,243.59,152.3,243.33,152.11z"/>
		<path class="st5" d="M241.35,155.72c-0.94-1.24-1.89-2.48-2.83-3.72c-0.19-0.26-0.63,0-0.44,0.26c0.94,1.24,1.89,2.48,2.83,3.72
			C241.11,156.23,241.55,155.98,241.35,155.72z"/>
		<path class="st5" d="M239.25,157.09c-0.88-1.25-1.68-2.54-2.4-3.89c-0.15-0.29-0.59-0.03-0.44,0.26c0.72,1.35,1.52,2.64,2.4,3.89
			C239,157.61,239.44,157.36,239.25,157.09z"/>
	</g>
	<g>
		<path class="st16" d="M227.32,180.23c-0.01,0-0.03-0.01-0.04-0.01c-0.86-0.14-1.75-0.32-2.48-0.8c-1-0.67-1.55-1.82-2.38-2.68
			c-0.79-0.83-1.8-1.38-2.79-1.97c0.4-0.5,0.79-1.01,1.33-1.38c1.31-0.9,2.67-6.95,4.1-7.64c0.31-0.15,0.65-0.27,0.99-0.25
			c0.41,0.02,0.77,0.25,1.11,0.48c2.06,1.44,3.73,3.46,6,4.54c0.3,0.15,0.66,0.27,0.96,0.12c0.32-0.16,0.42-0.57,0.34-0.91
			c-0.08-0.34-0.3-0.63-0.51-0.91c-0.67-0.9-1.26-1.86-1.77-2.86c-0.16-0.31-0.32-0.68-0.18-1c0.15-0.36,0.62-0.48,0.99-0.38
			c0.37,0.11,0.67,0.38,0.93,0.67c1.21,1.29,2.11,2.86,2.64,4.55c0.09,0.28,0.17,0.56,0.24,0.85c0.51,2.12,0.47,4.37-0.19,6.45
			c-0.5,1.56-1.5,3.16-3.09,3.54c-0.54,0.13-1.1,0.11-1.65,0.07c-0.82-0.05-1.64-0.12-2.46-0.21
			C228.73,180.44,228.02,180.34,227.32,180.23z"/>
		<path class="st17" d="M236.02,173.69c-0.13,1.67-0.28,3.5-1.46,4.8c-1.26,1.39-3.22,1.94-5.04,1.9c-0.33-0.01-0.33,0.5,0,0.51
			c1.96,0.05,4.03-0.57,5.4-2.05c1.29-1.39,1.47-3.36,1.61-5.16C236.55,173.36,236.04,173.36,236.02,173.69z"/>
		<path class="st17" d="M226.29,176.07c-0.26,0.33-0.57,0.75-1.01,0.82c-0.34,0.06-0.63-0.2-0.55-0.53c0.05-0.2,0.14-0.38,0.22-0.56
			c0.2-0.51,0.27-1.02-0.1-1.46c-0.21-0.25-0.57,0.11-0.36,0.36c0.63,0.74-1.03,1.94,0.13,2.58c0.85,0.47,1.64-0.35,2.11-0.96
			C226.92,176.07,226.48,175.82,226.29,176.07z"/>
		<path class="st11" d="M227.9,170.23c-0.11-0.3-0.6-0.17-0.49,0.13c0.12,0.34,0.39,1.03,0.15,1.37c-0.29,0.41-1.08-0.05-1.39-0.25
			c-0.27-0.18-0.53,0.26-0.26,0.44c0.5,0.32,1.4,0.76,1.93,0.28C228.37,171.73,228.1,170.79,227.9,170.23z"/>
		<path class="st11" d="M222.97,174.26c-0.12-0.3-0.61-0.17-0.49,0.13c0.08,0.19,0.15,0.39,0.19,0.6c0.02,0.11,0.06,0.26,0.04,0.37
			c-0.03,0.16-0.04,0.14-0.2,0.13c-0.41-0.03-0.84-0.27-1.17-0.49c-0.27-0.18-0.53,0.26-0.26,0.44c0.29,0.19,0.61,0.34,0.94,0.45
			c0.26,0.08,0.62,0.2,0.89,0.09C223.51,175.74,223.15,174.67,222.97,174.26z"/>
		<path class="st12" d="M231.33,174.19c-0.68-0.59-1.07-0.14-1.39,0.48c-0.03,0.02-0.05,0.05-0.06,0.09
			c-0.38,0.91-1.57,1.72-1.59,2.77c-0.02,0.8,0.68,1.08,1.38,0.95C231.25,178.18,232.79,175.45,231.33,174.19z"/>
		<path class="st1" d="M226.81,168.01c-0.51-0.6-1.61-0.02-2.16,0.57c-0.29,0.25-0.47,0.6-0.45,1c0.02,0.45,0.38,0.68,0.77,0.42
			c0.21-0.14,0.34-0.36,0.53-0.53c0.24-0.23,0.55-0.38,0.82-0.56C226.58,168.72,227.13,168.39,226.81,168.01z"/>
		<path class="st1" d="M222.08,172.77c-0.22-0.29-0.7-0.11-0.98,0c-0.39,0.15-0.97,0.57-1.14,1.04c-0.14,0.25-0.26,0.59-0.14,0.84
			c0.13,0.28,0.5,0.31,0.75,0.18c0.42-0.21,0.75-0.74,1.05-1.09C221.82,173.51,222.34,173.11,222.08,172.77z"/>
	</g>
	<g>
		<path class="st1" d="M233.17,170.55c-2.27-1.09-3.94-3.1-6-4.54c-0.34-0.23-0.7-0.46-1.11-0.48c-0.34-0.02-0.68,0.1-0.99,0.25
			c-1.44,0.68-2.79,6.74-4.1,7.64c-0.54,0.37-0.93,0.88-1.33,1.38c-1.07,1.36-2.1,2.68-5.66,1.06c-2.42-1.1,0.4-4.59-2.54-6.72
			c-0.86-0.62-1.48-1.61-1.53-2.67c-0.05-1.06,0.57-2.16,1.56-2.53c0.5-0.19,1.06-0.19,1.6-0.22c1.21-0.06,2.46-0.3,3.45-1
			c1.43-1,2.1-2.74,2.87-4.31c0.77-1.56,1.92-3.19,3.64-3.48c1.14-0.19,2.3,0.26,3.25,0.92c0.88,0.61,1.79,1.44,2.85,1.3
			c0.83-0.11,1.54-0.81,2.38-0.79c0.76,0.02,1.4,0.65,1.66,1.37c0.26,0.71,0.23,1.49,0.19,2.26c0.73-0.95,2.31-0.85,3.16-0.02
			c0.86,0.83,1.09,2.13,0.96,3.32c-0.13,1.19-0.55,2.32-0.82,3.48c-0.23,1.01-0.33,2.1-0.02,3.08l-0.04,0.01
			c-0.53-1.69-1.43-3.26-2.64-4.55c-0.27-0.29-0.56-0.56-0.93-0.67c-0.37-0.11-0.84,0.02-0.99,0.38c-0.14,0.33,0.01,0.69,0.18,1
			c0.51,1,1.1,1.96,1.77,2.86c0.21,0.28,0.43,0.57,0.51,0.91c0.08,0.34-0.02,0.75-0.34,0.91
			C233.83,170.82,233.47,170.69,233.17,170.55z"/>
		<path class="st18" d="M232.12,165.04c-1.46-2.96-6.94-5.47-9.25-2.1c-0.76,1.11-1.14,3.12-2.8,3.19
			c-1.15,0.04-2.14-0.95-3.31-0.98c-0.73-0.02-1.45,0.25-1.99,0.73c-0.37,0.32-0.6,0.72-0.88,1.11c-0.71,0.98-1.62,1.52-2.84,1.35
			c-0.32-0.04-0.46,0.44-0.13,0.49c1.73,0.24,2.68-0.6,3.64-1.91c1.25-1.7,2.62-1.2,4.29-0.57c0.67,0.25,1.35,0.41,2.04,0.13
			c2.07-0.86,1.8-3.82,4.13-4.47c2.46-0.69,5.6,1.09,6.68,3.3C231.83,165.59,232.27,165.33,232.12,165.04z"/>
		<path class="st18" d="M232.54,159.5c-1.03-1.39-2.41-1.02-3.89-0.69c-0.57,0.13-1.2,0.32-1.78,0.33
			c-0.96,0.02-1.34-0.52-1.91-1.18c-0.45-0.52-0.9-0.85-1.61-0.97c-1.57-0.25-2.87,0.83-3.92,1.85c-0.23,0.23,0.12,0.58,0.36,0.36
			c0.56-0.54,1.14-1.11,1.85-1.44c1.3-0.6,2.3-0.18,3.16,0.84c0.62,0.73,1.25,1.11,2.24,1.02c1.41-0.12,3.47-1.25,4.69-0.24
			c1.35,1.11,1.13,3.38,1.23,4.97c0.02,0.32,0.53,0.33,0.51,0C233.36,162.8,233.52,160.83,232.54,159.5z"/>
		<path class="st18" d="M222.53,169.51h-0.05c-0.02,0-0.04,0.01-0.06,0.01c-0.13-0.01-0.28,0.07-0.29,0.24
			c-0.17,2.01-2.49,1.72-3.82,1.49c-0.53-0.09-1.03-0.27-1.54-0.04c-0.42,0.19-0.63,0.55-0.81,0.95c-0.56,1.21-0.85,2.5-2.59,2.16
			c-0.32-0.06-0.45,0.43-0.13,0.49c0.75,0.15,1.47,0.05,2.09-0.42c0.3-0.23,0.52-0.51,0.69-0.84c0.18-0.35,0.2-0.8,0.41-1.13
			c0.4-0.62,1.04-0.74,1.76-0.68c1.05,0.08,2.03,0.42,3.05-0.04c0.77-0.34,1.24-0.92,1.37-1.7
			C222.85,169.93,222.83,169.51,222.53,169.51z"/>
	</g>
</g>
</svg>
