<?xml version="1.0" encoding="utf-8"?>
<!-- Generator: Adobe Illustrator 24.0.2, SVG Export Plug-In . SVG Version: 6.00 Build 0)  -->
<svg version="1.1" id="Layer_1" xmlns="http://www.w3.org/2000/svg" xmlns:xlink="http://www.w3.org/1999/xlink" x="0px" y="0px"
	 viewBox="0 0 300 300" style="enable-background:new 0 0 300 300;" xml:space="preserve">
<style type="text/css">
	.st0{fill:#B5E2F0;}
	.st1{fill:#A15A24;}
	.st2{fill:#C66F31;}
	.st3{fill:#B3642B;}
	.st4{fill:#006757;}
	.st5{fill:#007664;}
	.st6{fill:#005042;}
	.st7{fill:#804515;}
	.st8{fill:#AD6128;}
	.st9{fill:#FFFFFF;}
	.st10{fill:#AE5A57;}
	.st11{fill:#B17261;}
	.st12{fill:#DDA880;}
	.st13{fill:#00516F;}
	.st14{fill:#005F86;}
	.st15{fill:#008FCA;}
	.st16{fill:#D29421;}
	.st17{fill:#FBBD1F;}
	.st18{fill:#F6D719;}
	.st19{fill:#231F20;}
	.st20{fill:#E98028;}
	.st21{fill:#F4CD1E;}
	.st22{fill:none;stroke:#231F20;stroke-width:4.8773;stroke-miterlimit:10;}
	.st23{fill:#EC8091;}
	.st24{fill:#EB738B;}
	.st25{fill:#E9B5A7;}
	.st26{fill:#E8A48F;}
	.st27{fill:#E79D89;}
	.st28{fill:#EBD7CA;}
	.st29{fill:#57413D;}
	.st30{fill:#EC374B;}
	.st31{fill:#EA596A;}
	.st32{fill:#5991C9;}
	.st33{fill:#72A7D6;}
	.st34{fill:#47749F;}
	.st35{fill:#345A7F;}
	.st36{fill:#5386B9;}
	.st37{fill:#EE959B;}
	.st38{fill:#ED848E;}
	.st39{fill:#EB7386;}
	.st40{fill:#94B0DC;}
	.st41{fill:#00BBC6;}
	.st42{fill:#719AD0;}
	.st43{fill:#C4C7E4;}
	.st44{fill:#324250;}
	.st45{fill:#00B2EF;}
	.st46{fill:#00B8EE;}
	.st47{fill:#BBAE79;}
	.st48{fill:#C8BA8E;}
	.st49{fill:#938B62;}
	.st50{fill:#72704E;}
	.st51{fill:#AEA372;}
	.st52{fill:#F09E99;}
	.st53{fill:#007DBB;}
	.st54{fill:#009DD5;}
	.st55{fill:#0080B1;}
	.st56{fill:none;stroke:#00646F;stroke-width:4.8773;stroke-linecap:round;stroke-miterlimit:10;}
	.st57{fill:none;stroke:#00646F;stroke-width:4.8773;stroke-linecap:round;stroke-miterlimit:10;stroke-dasharray:9.5059,19.0117;}
	.st58{fill:#3EBBE2;}
	.st59{fill:#0072B3;}
	.st60{fill:none;stroke:#00516F;stroke-width:4.8773;stroke-linecap:round;stroke-miterlimit:10;stroke-dasharray:9.7546,19.5092;}
	.st61{fill:#00B3E1;}
	.st62{fill:#A25E65;}
	.st63{fill:#FCE0D9;}
	.st64{fill:#EDD3CD;}
	.st65{fill:#D6C0BA;}
	.st66{fill:#CD6C7B;}
	.st67{fill:#CF8A92;}
	.st68{fill:#F0A233;}
	.st69{fill:#ED9033;}
	.st70{fill:#444F6E;}
	.st71{fill:#39425E;}
	.st72{fill:#8584A2;}
	.st73{fill:#65739B;}
	.st74{fill:#546183;}
	.st75{fill:#9496B2;}
	.st76{fill:#F3B833;}
	.st77{fill:#F1A833;}
	.st78{fill:#F6CC31;}
	.st79{fill:#AB5B82;}
	.st80{fill:#A53771;}
	.st81{fill:#420025;}
	.st82{fill:#F0A797;}
	.st83{fill:#DFE0E1;}
	.st84{fill:#061340;}
	.st85{fill:#6D3916;}
	.st86{fill:#572906;}
	.st87{fill:#884B26;}
	.st88{fill:#490700;}
	.st89{fill:#96532C;}
	.st90{fill:none;stroke:#B66038;stroke-width:1.2193;stroke-linecap:round;stroke-linejoin:round;stroke-miterlimit:10;}
	.st91{fill:#268EC8;}
	.st92{fill:none;}
	.st93{fill:#2A6F90;}
	.st94{fill:#DF9A8A;}
	.st95{fill:#F2777A;}
	.st96{fill:#296F92;}
	.st97{fill:#E6E7E8;}
	.st98{fill:#621C40;}
	.st99{fill:#EE918D;}
	.st100{fill:#6C2011;}
	.st101{fill:#6F1C20;}
	.st102{fill:#BC4047;}
	.st103{fill:#450000;}
	.st104{fill:#D98E80;}
	.st105{fill:#C46F97;}
	.st106{fill:#FFEFE7;}
</style>
<g>
	<path class="st0" d="M283.71,254.82c-4.7,8.43-14.4,13.77-27.27,17.24c-0.07,0-0.22,0.09-0.29,0.09c-0.37,0.09-0.74,0.19-1.1,0.28
		c-0.15,0-0.29,0.09-0.44,0.09c-0.37,0.09-0.74,0.19-1.1,0.28c-0.22,0.09-0.44,0.09-0.66,0.19c-0.37,0.09-0.73,0.19-1.1,0.19
		c-0.37,0.09-0.81,0.19-1.18,0.28c-0.37,0.09-0.74,0.19-1.1,0.28l-1.32,0.28c-0.37,0-0.74,0.09-1.1,0.19
		c-0.81,0.19-1.62,0.28-2.5,0.47c-0.37,0-0.73,0.09-1.1,0.19c-0.88,0.09-1.76,0.28-2.65,0.47c-0.37,0-0.73,0.09-1.18,0.09
		c-1.1,0.19-2.2,0.37-3.38,0.47c-0.37,0.09-0.74,0.09-1.1,0.19c-1.98,0.19-3.9,0.47-5.88,0.66c-0.37,0-0.74,0.09-1.1,0.09
		c-2.06,0.19-4.12,0.37-6.25,0.56c-0.37,0-0.74,0.09-1.18,0.09c-3.31,0.28-6.69,0.47-10.14,0.66c-0.37,0.09-0.74,0.09-1.1,0.09
		c-1.54,0.09-3.16,0.19-4.78,0.28c-1.54,0.09-3.16,0.09-4.7,0.19c-0.37,0.09-0.73,0.09-1.1,0.09c-2.79,0.09-5.59,0.19-8.38,0.28
		c-0.37,0.09-0.74,0.09-1.1,0.09c-12.05,0.47-24.33,0.84-36.23,1.5c-22.86,1.31-44.32,3.65-60.19,9.74
		c-53.43,20.52-78.27-87.42-82.24-124.15C4.88,112.68,137.09,30.97,141.28,27.41C249.1-64.89,304.07,218,283.71,254.82z"/>
	<g>
		<g>
			<g>
				<g>
					<g>
						<polygon class="st1" points="251.62,207.31 37.56,207.31 26.19,63.49 262.99,63.49 						"/>
						<path class="st2" d="M26.19,63.49l11.37,143.82h214.06l11.37-143.82H26.19z M245.48,200.54H43.7L32.98,74.77H256.2
							L245.48,200.54z"/>
						<polygon class="st3" points="26.19,63.49 27.05,74.44 262.51,72.75 262.99,63.49 						"/>
						<polygon class="st4" points="243.18,198 46,198 35.53,75.33 253.65,75.33 						"/>
						<path class="st5" d="M44.65,166.06c4.37-7.12,10.18-12.4,16.98-15.14c6.27-2.53,13.03-3.44,19.57-3.9
							c7.28-0.51,14.58-0.27,21.86,0.15c7.28,0.42,14.57,1.01,21.86,1.11c5.81,0.08,11.64,0.01,17.34-1.57
							c8.72-2.42,16.76-7.71,23.43-15.21c6.69-7.53,11.99-16.84,16.12-26.86c3.81-9.27,6.75-19.14,8.88-29.29H35.53l7.92,92.79
							C43.84,167.42,44.24,166.73,44.65,166.06z"/>
						<polygon class="st6" points="50.46,191.8 40.52,75.33 35.53,75.33 46,198 243.18,198 243.71,191.8 						"/>
						<polygon class="st7" points="267.33,68.53 21.85,68.53 18.24,62.9 270.94,62.9 						"/>
						<g>
							<polygon class="st7" points="258.89,207.3 27.54,207.3 30.73,204.21 255.7,204.21 							"/>
							<polygon class="st8" points="255.61,212.89 30.81,212.89 27.51,207.26 258.9,207.26 							"/>
						</g>
						<path class="st9" d="M233.22,203.88c0,0.7-0.45,1.27-1,1.27h-4.24c-0.55,0-1-0.57-1-1.27l0,0c0-0.7,0.45-1.27,1-1.27h4.24
							C232.77,202.61,233.22,203.18,233.22,203.88L233.22,203.88z"/>
						<g>
							<polygon class="st10" points="225.81,202.22 207.13,202.22 210.06,199.93 222.87,199.93 							"/>
							<rect x="207.13" y="202.22" class="st11" width="18.71" height="1.71"/>
							<rect x="207.13" y="203.94" class="st12" width="18.71" height="2.48"/>
						</g>
					</g>
					<rect x="18.24" y="59.64" class="st3" width="252.66" height="3.26"/>
				</g>
			</g>
		</g>
		<g>
			<g>
				<path class="st13" d="M58.95,235.37c-0.55,0-1.09-0.22-1.5-0.65c-0.78-0.83-0.74-2.13,0.08-2.91
					c4.21-3.98,9.5-14.27,10.88-19.92c0.86-4.11-0.97-15.24-2.22-19.7l-0.01-0.04c-0.33-1.27-0.63-2.59-0.93-3.86
					c-1.28-5.5-2.6-11.18-6.17-15.66c-3.67-4.75-8.5-2.14-15.45,2.37c-0.8,0.52-1.56,1.01-2.32,1.49c-0.97,0.6-2.23,0.3-2.84-0.66
					c-0.6-0.97-0.3-2.24,0.66-2.84c0.72-0.45,1.46-0.93,2.25-1.44c3.08-2,6.58-4.28,10.06-5.17c4.43-1.14,8.08,0.11,10.87,3.71
					c4.14,5.18,5.57,11.33,6.95,17.28c0.3,1.3,0.59,2.53,0.9,3.75c1.12,4.01,3.42,16.28,2.27,21.67l-0.01,0.06
					c-1.55,6.35-7.15,17.33-12.07,21.97C59.96,235.19,59.45,235.37,58.95,235.37z"/>
			</g>
			<g>
				<path class="st14" d="M67.85,235.49c7.44-5.52,13.28-12.41,13.46-22.11c0.12-6.47-0.6-13-1.61-19.37
					c-1-6.34-2.36-13.48-6.08-18.86c-1.42-2.06-3.44-4.01-6.01-4.43c-5.11-0.85-9.52,2.51-11.86,6.82
					c-0.08,0.16-0.15,0.31-0.23,0.47c-1.57,3.24,3.27,6.09,4.85,2.83c0.76-1.56,1.72-2.93,3.18-3.9c0.65-0.44,1.39-0.71,2.18-0.77
					c0.31-0.02,1.51,0.28,1.01,0.06c1.03,0.45,0.99,0.54,1.77,1.42c0.35,0.39,1.11,1.64,1.55,2.51c2.6,5.02,3.59,11.11,4.42,16.67
					c0.79,5.29,1.23,10.68,1.21,16.03c-0.03,7.81-4.68,13.34-10.69,17.8c-1.23,0.91-1.84,2.41-1.01,3.84
					C64.72,235.69,66.62,236.4,67.85,235.49L67.85,235.49z"/>
			</g>
			<g>
				<path class="st15" d="M24.26,172.24c0,0-5.99,3.43-10.48,26.89c-4.49,23.46,2.68,34.37,5.05,37.49
					c2.37,3.12,16.91,4.68,36.87,3.93c0,0,12.73,0.25,12.23-10.98c0,0-1.34-30.21-2-40.92c-1-16.22-7.52-15.47-12.29-14.82
					c0,0-3.07-4.05-5.8-4.58C39.61,167.63,27.63,168.5,24.26,172.24z"/>
				<path class="st13" d="M62.03,183.62c0.67-2.79,0.65-5.81-2.29-7.2c-1.95-0.92-4.29-0.5-6.66-0.25c0.29,5.02,1.1,8.88,1.46,13.9
					c0.29,4.18,0.45,8.37,0.69,12.55c0.89-2.86,1.72-5.73,2.69-8.56C58.54,192.24,61.6,185.42,62.03,183.62z"/>
				<g>
					<g>
						
							<rect x="43.63" y="187.69" transform="matrix(0.9854 -0.17 0.17 0.9854 -31.2876 10.6656)" class="st16" width="6.02" height="0.69"/>
					</g>
					<g>
						
							<rect x="39.82" y="143.64" transform="matrix(0.9855 -0.1698 0.1698 0.9855 -27.5479 9.6798)" class="st17" width="6.02" height="44.57"/>
					</g>
					<g>
						<path class="st18" d="M44.67,158.9l-0.65-3.78l-6.95-4.91l0.66,3.83C40.04,155.67,42.35,157.29,44.67,158.9z"/>
					</g>
					<g>
						<path class="st18" d="M46.54,169.77l-0.42-2.47c-2.32-1.62-4.63-3.25-6.95-4.88l0.42,2.44
							C41.91,166.5,44.23,168.14,46.54,169.77z"/>
					</g>
					<g>
						
							<rect x="45.01" y="143.2" transform="matrix(0.9855 -0.1698 0.1698 0.9855 -27.4352 10.1106)" class="st18" width="0.79" height="44.57"/>
					</g>
					<g>
						<g>
							<polygon class="st19" points="39.15,145.32 39.13,145.17 41.46,144.77 41.49,144.92 							"/>
						</g>
						<g>
							<polygon class="st19" points="39.15,145.32 39.13,145.17 41.46,144.77 41.49,144.92 							"/>
						</g>
						<g>
							
								<rect x="40.31" y="145.83" transform="matrix(0.9854 -0.1704 0.1704 0.9854 -24.2645 9.1177)" class="st19" width="1.33" height="0.15"/>
						</g>
						<g>
							<polygon class="st19" points="40.49,146.99 40.47,146.84 41.78,146.62 41.8,146.76 							"/>
						</g>
						<g>
							
								<rect x="40.62" y="147.63" transform="matrix(0.9854 -0.1705 0.1705 0.9854 -24.5812 9.2039)" class="st19" width="1.33" height="0.15"/>
						</g>
						<g>
							<polygon class="st19" points="40.8,148.79 40.78,148.64 42.09,148.42 42.11,148.56 							"/>
						</g>
						<g>
							
								<rect x="39.93" y="149.66" transform="matrix(0.9854 -0.1705 0.1705 0.9854 -24.9302 9.2037)" class="st19" width="2.37" height="0.15"/>
						</g>
						<g>
							
								<rect x="39.93" y="149.66" transform="matrix(0.9854 -0.1705 0.1705 0.9854 -24.9302 9.2037)" class="st19" width="2.37" height="0.15"/>
						</g>
						<g>
							
								<rect x="41.12" y="150.52" transform="matrix(0.9857 -0.1687 0.1687 0.9857 -24.8093 9.2095)" class="st19" width="1.33" height="0.15"/>
						</g>
						<g>
							
								<rect x="41.28" y="151.42" transform="matrix(0.9854 -0.1705 0.1705 0.9854 -25.2179 9.3707)" class="st19" width="1.33" height="0.15"/>
						</g>
						<g>
							
								<rect x="41.43" y="152.32" transform="matrix(0.9853 -0.1708 0.1708 0.9853 -25.4098 9.4296)" class="st19" width="1.33" height="0.15"/>
						</g>
						<g>
							
								<rect x="41.59" y="153.22" transform="matrix(0.9854 -0.1705 0.1705 0.9854 -25.5215 9.4506)" class="st19" width="1.33" height="0.15"/>
						</g>
						<g>
							<polygon class="st19" points="40.77,154.7 40.74,154.55 43.08,154.15 43.1,154.3 							"/>
						</g>
						<g>
							<polygon class="st19" points="40.77,154.7 40.74,154.55 43.08,154.15 43.1,154.3 							"/>
						</g>
						<g>
							
								<rect x="41.93" y="155.21" transform="matrix(0.9857 -0.1686 0.1686 0.9857 -25.5754 9.4067)" class="st19" width="1.33" height="0.15"/>
						</g>
						<g>
							
								<rect x="42.09" y="156.11" transform="matrix(0.9857 -0.1683 0.1683 0.9857 -25.6826 9.426)" class="st19" width="1.33" height="0.15"/>
						</g>
						<g>
							<polygon class="st19" points="42.26,157.27 42.24,157.12 43.55,156.9 43.57,157.04 							"/>
						</g>
						<g>
							
								<rect x="42.4" y="157.91" transform="matrix(0.9854 -0.1705 0.1705 0.9854 -26.3053 9.6552)" class="st19" width="1.33" height="0.15"/>
						</g>
						<g>
							<polygon class="st19" points="41.58,159.39 41.55,159.24 43.88,158.84 43.91,158.98 							"/>
						</g>
						<g>
							<polygon class="st19" points="41.58,159.39 41.55,159.24 43.88,158.84 43.91,158.98 							"/>
						</g>
						<g>
							
								<rect x="42.74" y="159.9" transform="matrix(0.9854 -0.1705 0.1705 0.9854 -26.6424 9.744)" class="st19" width="1.33" height="0.15"/>
						</g>
						<g>
							
								<rect x="42.89" y="160.8" transform="matrix(0.9857 -0.1686 0.1686 0.9857 -26.5039 9.6491)" class="st19" width="1.33" height="0.15"/>
						</g>
						<g>
							
								<rect x="43.05" y="161.7" transform="matrix(0.9857 -0.1683 0.1683 0.9857 -26.5961 9.6616)" class="st19" width="1.33" height="0.15"/>
						</g>
						<g>
							
								<rect x="43.2" y="162.6" transform="matrix(0.9857 -0.1686 0.1686 0.9857 -26.8032 9.7273)" class="st19" width="1.33" height="0.15"/>
						</g>
						<g>
							<polygon class="st19" points="42.38,164.08 42.36,163.93 44.69,163.53 44.72,163.67 							"/>
						</g>
						<g>
							<polygon class="st19" points="42.38,164.08 42.36,163.93 44.69,163.53 44.72,163.67 							"/>
						</g>
						<g>
							<polygon class="st19" points="43.57,164.85 43.54,164.7 44.86,164.48 44.88,164.62 							"/>
						</g>
						<g>
							
								<rect x="43.7" y="165.49" transform="matrix(0.9853 -0.1709 0.1709 0.9853 -27.6404 10.0174)" class="st19" width="1.33" height="0.15"/>
						</g>
						<g>
							
								<rect x="43.86" y="166.39" transform="matrix(0.9854 -0.1705 0.1705 0.9854 -27.7291 10.0281)" class="st19" width="1.33" height="0.15"/>
						</g>
						<g>
							
								<rect x="44.01" y="167.28" transform="matrix(0.9857 -0.1686 0.1686 0.9857 -27.5818 9.9304)" class="st19" width="1.33" height="0.15"/>
						</g>
						<g>
							<polygon class="st19" points="43.19,168.76 43.17,168.62 45.5,168.22 45.52,168.36 							"/>
						</g>
						<g>
							<polygon class="st19" points="43.19,168.76 43.17,168.62 45.5,168.22 45.52,168.36 							"/>
						</g>
						<g>
							
								<rect x="44.35" y="169.28" transform="matrix(0.9854 -0.1705 0.1705 0.9854 -28.217 10.1564)" class="st19" width="1.33" height="0.15"/>
						</g>
						<g>
							
								<rect x="44.51" y="170.18" transform="matrix(0.9854 -0.1705 0.1705 0.9854 -28.3663 10.1952)" class="st19" width="1.33" height="0.15"/>
						</g>
						<g>
							<polygon class="st19" points="44.69,171.33 44.66,171.19 45.97,170.96 46,171.11 							"/>
						</g>
						<g>
							
								<rect x="44.82" y="171.97" transform="matrix(0.9853 -0.1706 0.1706 0.9853 -28.6837 10.2814)" class="st19" width="1.33" height="0.15"/>
						</g>
						<g>
							
								<rect x="43.97" y="173.11" transform="matrix(0.9857 -0.1683 0.1683 0.9857 -28.5102 10.0734)" class="st19" width="2.37" height="0.15"/>
						</g>
						<g>
							
								<rect x="43.97" y="173.11" transform="matrix(0.9857 -0.1683 0.1683 0.9857 -28.5102 10.0734)" class="st19" width="2.37" height="0.15"/>
						</g>
						<g>
							
								<rect x="45.16" y="173.97" transform="matrix(0.9857 -0.1688 0.1688 0.9857 -28.7199 10.2329)" class="st19" width="1.33" height="0.15"/>
						</g>
						<g>
							
								<rect x="45.32" y="174.86" transform="matrix(0.9857 -0.1687 0.1687 0.9857 -28.8549 10.2653)" class="st19" width="1.33" height="0.15"/>
						</g>
						<g>
							<polygon class="st19" points="45.49,176.02 45.47,175.88 46.78,175.65 46.81,175.8 							"/>
						</g>
						<g>
							
								<rect x="45.63" y="176.66" transform="matrix(0.9857 -0.1683 0.1683 0.9857 -29.0927 10.3157)" class="st19" width="1.33" height="0.15"/>
						</g>
						<g>
							<polygon class="st19" points="44.81,178.14 44.78,178 47.12,177.59 47.14,177.74 							"/>
						</g>
						<g>
							<polygon class="st19" points="44.81,178.14 44.78,178 47.12,177.59 47.14,177.74 							"/>
						</g>
						<g>
							<polygon class="st19" points="45.99,178.91 45.97,178.77 47.28,178.54 47.3,178.69 							"/>
						</g>
						<g>
							<polygon class="st19" points="46.15,179.81 46.12,179.67 47.43,179.44 47.46,179.59 							"/>
						</g>
						<g>
							
								<rect x="46.28" y="180.45" transform="matrix(0.9856 -0.1691 0.1691 0.9856 -29.8475 10.5366)" class="st19" width="1.33" height="0.15"/>
						</g>
						<g>
							
								<rect x="46.43" y="181.35" transform="matrix(0.9854 -0.1705 0.1705 0.9854 -30.2463 10.6883)" class="st19" width="1.33" height="0.15"/>
						</g>
						<g>
							
								<rect x="45.59" y="182.48" transform="matrix(0.9854 -0.1705 0.1705 0.9854 -30.4415 10.6474)" class="st19" width="2.37" height="0.15"/>
						</g>
						<g>
							
								<rect x="45.59" y="182.48" transform="matrix(0.9854 -0.1705 0.1705 0.9854 -30.4415 10.6474)" class="st19" width="2.37" height="0.15"/>
						</g>
						<g>
							
								<rect x="46.78" y="183.34" transform="matrix(0.9854 -0.1705 0.1705 0.9854 -30.581 10.776)" class="st19" width="1.33" height="0.15"/>
						</g>
						<g>
							
								<rect x="46.93" y="184.24" transform="matrix(0.9854 -0.1704 0.1704 0.9854 -30.7141 10.8075)" class="st19" width="1.33" height="0.15"/>
						</g>
						<g>
							<polygon class="st19" points="47.11,185.4 47.08,185.26 48.4,185.03 48.42,185.17 							"/>
						</g>
						<g>
							
								<rect x="47.24" y="186.04" transform="matrix(0.9857 -0.1683 0.1683 0.9857 -30.6457 10.7203)" class="st19" width="1.33" height="0.15"/>
						</g>
					</g>
				</g>
				<g>
					<g>
						<g>
							<path class="st20" d="M74.25,170.56l-0.57-0.61l-17.66-13.67l-9.6,41.48l0.57,0.61L74.25,170.56z M58.79,167.46l5.51,4.32
								l-8.07,8.19L58.79,167.46z"/>
						</g>
					</g>
					<g>
						<g>
							<path class="st17" d="M73.68,169.95l-18.23-14.28l-9.03,42.1L73.68,169.95z M58.39,166.62l5.51,4.32l-8.24,8.41L58.39,166.62
								z"/>
						</g>
					</g>
					<g>
						<polygon class="st21" points="60.26,168.09 63.9,170.94 60.01,174.91 59.67,184.25 63.77,180.06 64.41,162.67 60.57,159.67 
													"/>
					</g>
					<g>
						<polygon class="st21" points="52.38,191.68 56.3,187.68 56.64,178.35 55.66,179.35 56.8,174.04 57.41,157.2 55.46,155.66 
							53.33,165.57 						"/>
					</g>
					<g>
						<g>
							
								<rect x="71.3" y="168.89" transform="matrix(0.6953 -0.7187 0.7187 0.6953 -100.3544 103.1604)" class="st19" width="0.39" height="2.1"/>
						</g>
						<g>
							
								<rect x="71.3" y="168.89" transform="matrix(0.6953 -0.7187 0.7187 0.6953 -100.3544 103.1604)" class="st19" width="0.39" height="2.1"/>
						</g>
						<g>
							
								<rect x="71.03" y="170.28" transform="matrix(0.6954 -0.7186 0.7186 0.6954 -101.1001 103.2404)" class="st19" width="0.39" height="1.18"/>
						</g>
						<g>
							
								<rect x="70.47" y="170.87" transform="matrix(0.6955 -0.7185 0.7185 0.6955 -101.6767 102.978)" class="st19" width="0.39" height="1.18"/>
						</g>
						<g>
							
								<rect x="69.9" y="171.45" transform="matrix(0.6954 -0.7186 0.7186 0.6954 -102.2811 102.7851)" class="st19" width="0.4" height="1.18"/>
						</g>
						<g>
							
								<rect x="69.34" y="172.03" transform="matrix(0.6955 -0.7185 0.7185 0.6955 -102.858 102.524)" class="st19" width="0.39" height="1.18"/>
						</g>
						<g>
							
								<rect x="68.35" y="171.93" transform="matrix(0.6954 -0.7186 0.7186 0.6954 -103.4274 101.9551)" class="st19" width="0.39" height="2.1"/>
						</g>
						<g>
							
								<rect x="68.35" y="171.93" transform="matrix(0.6954 -0.7186 0.7186 0.6954 -103.4274 101.9551)" class="st19" width="0.39" height="2.1"/>
						</g>
						<g>
							
								<rect x="68.09" y="173.32" transform="matrix(0.6954 -0.7187 0.7187 0.6954 -104.1819 102.0573)" class="st19" width="0.39" height="1.18"/>
						</g>
						<g>
							
								<rect x="67.53" y="173.91" transform="matrix(0.6954 -0.7186 0.7186 0.6954 -104.7705 101.8251)" class="st19" width="0.39" height="1.18"/>
						</g>
						<g>
							
								<rect x="66.96" y="174.49" transform="matrix(0.6954 -0.7186 0.7186 0.6954 -105.3604 101.5963)" class="st19" width="0.39" height="1.18"/>
						</g>
						<g>
							
								<rect x="66.4" y="175.07" transform="matrix(0.6954 -0.7186 0.7186 0.6954 -105.9515 101.37)" class="st19" width="0.39" height="1.18"/>
						</g>
						<g>
							
								<rect x="65.41" y="174.97" transform="matrix(0.6954 -0.7186 0.7186 0.6954 -106.5055 100.7636)" class="st19" width="0.39" height="2.1"/>
						</g>
						<g>
							
								<rect x="65.41" y="174.97" transform="matrix(0.6954 -0.7186 0.7186 0.6954 -106.5055 100.7636)" class="st19" width="0.39" height="2.1"/>
						</g>
						<g>
							
								<rect x="65.15" y="176.36" transform="matrix(0.6952 -0.7188 0.7188 0.6952 -107.2756 100.9006)" class="st19" width="0.39" height="1.18"/>
						</g>
						<g>
							
								<rect x="64.59" y="176.94" transform="matrix(0.6954 -0.7186 0.7186 0.6954 -107.8507 100.638)" class="st19" width="0.39" height="1.18"/>
						</g>
						<g>
							
								<rect x="64.02" y="177.53" transform="matrix(0.6955 -0.7185 0.7185 0.6955 -108.4254 100.3757)" class="st19" width="0.39" height="1.18"/>
						</g>
						<g>
							
								<rect x="63.46" y="178.11" transform="matrix(0.6955 -0.7185 0.7185 0.6955 -109.0182 100.1531)" class="st19" width="0.39" height="1.18"/>
						</g>
						<g>
							
								<rect x="62.47" y="178.01" transform="matrix(0.6954 -0.7186 0.7186 0.6954 -109.5872 99.5799)" class="st19" width="0.39" height="2.1"/>
						</g>
						<g>
							
								<rect x="62.47" y="178.01" transform="matrix(0.6954 -0.7186 0.7186 0.6954 -109.5872 99.5799)" class="st19" width="0.39" height="2.1"/>
						</g>
						<g>
							
								<rect x="62.21" y="179.4" transform="matrix(0.6954 -0.7187 0.7187 0.6954 -110.3432 99.6848)" class="st19" width="0.39" height="1.18"/>
						</g>
						<g>
							
								<rect x="61.65" y="179.98" transform="matrix(0.6951 -0.7189 0.7189 0.6951 -110.9632 99.5197)" class="st19" width="0.4" height="1.18"/>
						</g>
						<g>
							
								<rect x="61.08" y="180.57" transform="matrix(0.6953 -0.7187 0.7187 0.6953 -111.525 99.2308)" class="st19" width="0.4" height="1.18"/>
						</g>
						<g>
							
								<rect x="60.52" y="181.15" transform="matrix(0.6954 -0.7186 0.7186 0.6954 -112.1115 98.9948)" class="st19" width="0.4" height="1.18"/>
						</g>
						<g>
							
								<rect x="59.53" y="181.05" transform="matrix(0.6955 -0.7186 0.7186 0.6955 -112.6574 98.3724)" class="st19" width="0.39" height="2.1"/>
						</g>
						<g>
							
								<rect x="59.53" y="181.05" transform="matrix(0.6955 -0.7186 0.7186 0.6955 -112.6574 98.3724)" class="st19" width="0.39" height="2.1"/>
						</g>
						<g>
							
								<rect x="59.27" y="182.44" transform="matrix(0.6954 -0.7186 0.7186 0.6954 -113.4195 98.4889)" class="st19" width="0.39" height="1.18"/>
						</g>
						<g>
							
								<rect x="58.7" y="183.02" transform="matrix(0.6955 -0.7185 0.7185 0.6955 -113.997 98.2351)" class="st19" width="0.39" height="1.18"/>
						</g>
						<g>
							
								<rect x="58.14" y="183.61" transform="matrix(0.6955 -0.7185 0.7185 0.6955 -114.5837 98.0003)" class="st19" width="0.39" height="1.18"/>
						</g>
						<g>
							
								<rect x="57.58" y="184.19" transform="matrix(0.6954 -0.7186 0.7186 0.6954 -115.1917 97.8075)" class="st19" width="0.39" height="1.18"/>
						</g>
						<g>
							
								<rect x="56.59" y="184.09" transform="matrix(0.6954 -0.7186 0.7186 0.6954 -115.7474 97.2052)" class="st19" width="0.39" height="2.1"/>
						</g>
						<g>
							
								<rect x="56.59" y="184.09" transform="matrix(0.6954 -0.7186 0.7186 0.6954 -115.7474 97.2052)" class="st19" width="0.39" height="2.1"/>
						</g>
						<g>
							
								<rect x="56.33" y="185.48" transform="matrix(0.6955 -0.7186 0.7186 0.6955 -116.4896 97.2822)" class="st19" width="0.4" height="1.18"/>
						</g>
						<g>
							
								<rect x="55.76" y="186.06" transform="matrix(0.6955 -0.7185 0.7185 0.6955 -117.0724 97.0402)" class="st19" width="0.39" height="1.18"/>
						</g>
						<g>
							
								<rect x="55.2" y="186.64" transform="matrix(0.6954 -0.7186 0.7186 0.6954 -117.6804 96.8463)" class="st19" width="0.39" height="1.18"/>
						</g>
						<g>
							
								<rect x="54.64" y="187.23" transform="matrix(0.6955 -0.7185 0.7185 0.6955 -118.2532 96.585)" class="st19" width="0.39" height="1.18"/>
						</g>
						<g>
							
								<rect x="53.65" y="187.12" transform="matrix(0.6954 -0.7186 0.7186 0.6954 -118.825 96.0136)" class="st19" width="0.39" height="2.1"/>
						</g>
						<g>
							
								<rect x="53.65" y="187.12" transform="matrix(0.6954 -0.7186 0.7186 0.6954 -118.825 96.0136)" class="st19" width="0.39" height="2.1"/>
						</g>
						<g>
							
								<rect x="53.39" y="188.52" transform="matrix(0.6954 -0.7186 0.7186 0.6954 -119.5809 96.1168)" class="st19" width="0.39" height="1.18"/>
						</g>
						<g>
							
								<rect x="52.82" y="189.1" transform="matrix(0.6954 -0.7186 0.7186 0.6954 -120.1707 95.8881)" class="st19" width="0.39" height="1.18"/>
						</g>
						<g>
							
								<rect x="52.26" y="189.68" transform="matrix(0.6955 -0.7185 0.7185 0.6955 -120.742 95.6252)" class="st19" width="0.39" height="1.18"/>
						</g>
						<g>
							
								<rect x="51.7" y="190.27" transform="matrix(0.6954 -0.7187 0.7187 0.6954 -121.3524 95.4342)" class="st19" width="0.4" height="1.18"/>
						</g>
						<g>
							
								<rect x="50.71" y="190.16" transform="matrix(0.6953 -0.7187 0.7187 0.6953 -121.918 94.8497)" class="st19" width="0.39" height="2.1"/>
						</g>
						<g>
							
								<rect x="50.71" y="190.16" transform="matrix(0.6953 -0.7187 0.7187 0.6953 -121.918 94.8497)" class="st19" width="0.39" height="2.1"/>
						</g>
						<g>
							
								<rect x="50.45" y="191.56" transform="matrix(0.6954 -0.7186 0.7186 0.6954 -122.6594 94.9267)" class="st19" width="0.4" height="1.18"/>
						</g>
						<g>
							
								<rect x="49.88" y="192.14" transform="matrix(0.6955 -0.7185 0.7185 0.6955 -123.2316 94.6667)" class="st19" width="0.4" height="1.18"/>
						</g>
						<g>
							
								<rect x="49.32" y="192.72" transform="matrix(0.6954 -0.7186 0.7186 0.6954 -123.841 94.4726)" class="st19" width="0.39" height="1.18"/>
						</g>
						<g>
							
								<rect x="48.76" y="193.31" transform="matrix(0.6952 -0.7188 0.7188 0.6952 -124.4516 94.28)" class="st19" width="0.39" height="1.18"/>
						</g>
						<g>
							<path class="st22" d="M47.21,193.52"/>
						</g>
						<g>
							<path class="st22" d="M48.72,194.99"/>
						</g>
					</g>
				</g>
				<g>
					<path class="st23" d="M45.71,179.89l-0.02,3.01c-0.01,1.67,1.33,3.02,2.99,3.04c1.67,0.01,3.02-1.33,3.04-2.99l0.02-3.01
						L45.71,179.89z"/>
					<path class="st24" d="M49.8,183.27c0.58,0.39,1.09,0.96,1.14,1.69c0.48-0.53,0.78-1.23,0.79-2.01l0.02-3.01l-6.03-0.04
						l-0.02,3.01c0,0,0,0,0,0C47.01,182.37,48.62,182.47,49.8,183.27z"/>
					<g>
						<g>
							<path class="st25" d="M51.87,159.98c0,0-0.05-0.7-0.12-0.86c-0.14-0.33-2.79-5.57-2.79-5.57s-2.75,4.9-3.02,5.75
								c-0.11,0.35-0.07,0.63-0.07,0.63L51.87,159.98z"/>
							<path class="st26" d="M50.19,159.97l1.68,0.01c0,0-0.05-0.7-0.12-0.86c-0.14-0.33-2.79-5.57-2.79-5.57s-0.09,0.59-0.23,0.84
								C48.99,155.29,49.99,158.85,50.19,159.97z"/>
							<path class="st27" d="M49.33,155.02c0.71,1.64,1.39,3.3,2.06,4.96l0.48,0c0,0-0.05-0.7-0.12-0.86
								c-0.1-0.23-1.45-2.91-2.24-4.47C49.45,154.78,49.39,154.9,49.33,155.02z"/>
							<path class="st27" d="M49.16,153.96c-0.13-0.25-0.21-0.41-0.21-0.41s-0.06,0.1-0.15,0.27c0.07,0.15,0.13,0.3,0.2,0.45
								C49.06,154.17,49.11,154.07,49.16,153.96z"/>
							<path class="st28" d="M45.87,159.93l0.36,0c0.74-1.67,1.56-3.31,2.41-4.94c-0.07-0.16-0.14-0.32-0.21-0.48
								c-0.82,1.47-2.29,4.17-2.48,4.79C45.83,159.65,45.87,159.93,45.87,159.93z"/>
							<path class="st29" d="M49.78,155.17c-0.46-0.91-0.82-1.62-0.82-1.62s-0.39,0.7-0.89,1.61
								C48.62,155.02,49.22,155.03,49.78,155.17z"/>
							<path class="st30" d="M49.03,159.25l-0.15,20.98l2.86,0.02l0.14-19.92h0c0-0.01,0-0.03,0-0.04c0-0.63-0.07-0.92-0.38-1.2
								c-0.31-0.29-1.44-0.65-1.73,0.41c0,0.01-0.12,0.36-0.15-0.24L49.03,159.25z"/>
							<path class="st30" d="M48.71,159.25l-0.15,20.98l-2.86-0.02l0.14-19.92h0c0-0.01,0-0.03,0-0.04c0-0.63,0.09-0.92,0.4-1.19
								c0.31-0.28,1.45-0.63,1.73,0.43c0,0.01,0.12,0.36,0.15-0.24L48.71,159.25z"/>
							<path class="st31" d="M47.72,159.25l-0.15,20.97l2.27,0.02l0.15-20.98h0c0-0.01,0-0.03,0-0.04c0-0.63-0.5-1.14-1.13-1.14
								c-0.63,0-1.14,0.5-1.14,1.13C47.72,159.21,47.72,159.23,47.72,159.25z"/>
						</g>
						<path class="st32" d="M45.7,181.16c1.98,0.46,4.04,0.47,6.03,0.04c0-0.6,0.01-1.19,0.01-1.79c-1.99,0.43-4.05,0.42-6.03-0.04
							C45.71,179.97,45.7,180.56,45.7,181.16z"/>
						<path class="st33" d="M50.23,181.44c0.23-0.02,0.45-0.05,0.68-0.09l0.01-1.79c-0.23,0.03-0.45,0.06-0.68,0.09L50.23,181.44z"
							/>
						<path class="st33" d="M48.68,181.51c0.31,0,0.61,0,0.92-0.02l0.01-1.79c-0.31,0.02-0.61,0.02-0.92,0.02L48.68,181.51z"/>
						<path class="st34" d="M45.71,179.56c1.99,0.24,4.05,0.25,6.03,0.04c0.14-0.01,0.23-0.29,0.23-0.44c0-0.15-0.05-0.36-0.22-0.47
							c-1.99,0.21-4.05,0.2-6.04-0.04c-0.16,0.06-0.19,0.34-0.19,0.49C45.53,179.29,45.58,179.5,45.71,179.56z"/>
						<path class="st35" d="M48.14,178.95c0.91,0.01,1.82,0.06,2.72,0.04c0.42-0.01,0.81,0.05,1.08,0.34
							c0.02-0.06,0.03-0.12,0.03-0.17c0-0.15-0.05-0.36-0.22-0.47c-1.99,0.21-4.05,0.2-6.04-0.04c-0.06,0.02-0.11,0.08-0.13,0.15
							C46.34,179.11,47.36,178.94,48.14,178.95z"/>
						<path class="st36" d="M45.69,179.4c0-0.08,1.02,0.04,2.3,0.05c1.28,0.01,2.43-0.01,2.43,0.08c0,0.08-1.07,0.11-2.36,0.1
							C46.79,179.62,45.69,179.48,45.69,179.4z"/>
					</g>
					<path class="st37" d="M46.88,184.63c0.12-0.28,0.6-0.35,1.08-0.16c0.48,0.2,0.77,0.59,0.65,0.87c-0.12,0.28-0.6,0.35-1.08,0.16
						C47.05,185.31,46.76,184.92,46.88,184.63z"/>
				</g>
				<g>
					<path class="st38" d="M57.16,166.32l1.62-2.54c0.89-1.4,0.48-3.27-0.92-4.16c-1.4-0.89-3.27-0.48-4.16,0.92l-1.62,2.54
						L57.16,166.32z"/>
					<path class="st39" d="M55.5,161.28c-0.28-0.64-0.41-1.39-0.07-2.03c-0.69,0.19-1.32,0.63-1.73,1.28l-1.62,2.54l5.09,3.24
						l1.62-2.54c0,0,0,0,0,0C57.39,163.53,56.07,162.58,55.5,161.28z"/>
					<g>
						<g>
							<path class="st40" d="M41.37,179.9c0,0-0.33,0.62-0.35,0.79c-0.06,0.35-0.59,6.2-0.59,6.2s4.93-2.68,5.61-3.27
								c0.28-0.24,0.4-0.49,0.4-0.49L41.37,179.9z"/>
							<path class="st41" d="M42.78,180.81l-1.42-0.91c0,0-0.33,0.62-0.35,0.79c-0.06,0.35-0.59,6.2-0.59,6.2s0.4-0.45,0.64-0.59
								C41.31,185.41,42.36,181.86,42.78,180.81z"/>
							<path class="st42" d="M40.89,185.46c0.27-1.77,0.57-3.53,0.89-5.3l-0.41-0.26c0,0-0.33,0.62-0.35,0.79
								c-0.04,0.25-0.32,3.24-0.48,4.98C40.65,185.6,40.77,185.53,40.89,185.46z"/>
							<path class="st42" d="M40.46,186.44c-0.03,0.28-0.04,0.45-0.04,0.45s0.1-0.05,0.27-0.15c0.02-0.16,0.05-0.32,0.07-0.48
								C40.66,186.32,40.56,186.38,40.46,186.44z"/>
							<path class="st43" d="M46.43,183.14l-0.3-0.19c-1.52,1.02-3.09,1.97-4.66,2.91c-0.03,0.17-0.05,0.34-0.08,0.51
								c1.47-0.81,4.16-2.32,4.65-2.74C46.31,183.39,46.43,183.14,46.43,183.14z"/>
							<path class="st44" d="M40.59,185.09c-0.09,1.02-0.17,1.8-0.17,1.8s0.7-0.38,1.61-0.89
								C41.49,185.84,40.98,185.51,40.59,185.09z"/>
							<path class="st45" d="M43.38,182.04l11.27-17.69l-2.41-1.54l-10.71,16.8l0,0c-0.01,0.01-0.02,0.02-0.02,0.03
								c-0.34,0.53-0.43,0.82-0.32,1.22c0.11,0.41,0.87,1.32,1.68,0.58c0.01-0.01,0.29-0.24,0,0.28L43.38,182.04z"/>
							<path class="st45" d="M43.65,182.21l11.27-17.7l2.41,1.54l-10.71,16.8l0,0c-0.01,0.01-0.01,0.02-0.02,0.04
								c-0.34,0.53-0.56,0.73-0.97,0.8c-0.42,0.07-1.56-0.24-1.23-1.28c0-0.01,0.09-0.37-0.25,0.12L43.65,182.21z"/>
							<path class="st46" d="M44.49,182.73l11.27-17.69l-1.91-1.22l-11.27,17.7l0,0c-0.01,0.01-0.02,0.02-0.02,0.03
								c-0.34,0.53-0.18,1.23,0.35,1.57c0.53,0.34,1.23,0.18,1.57-0.35C44.48,182.76,44.49,182.75,44.49,182.73z"/>
						</g>
						<path class="st47" d="M57.85,165.25c-1.44-1.44-3.18-2.55-5.09-3.24c-0.32,0.5-0.64,1.01-0.96,1.51
							c1.91,0.69,3.65,1.8,5.09,3.24C57.21,166.25,57.53,165.75,57.85,165.25z"/>
						<path class="st48" d="M54.17,162.6c-0.2-0.1-0.41-0.2-0.62-0.29l-0.96,1.51c0.21,0.09,0.42,0.19,0.62,0.29L54.17,162.6z"/>
						<path class="st48" d="M55.52,163.37c-0.26-0.16-0.52-0.32-0.79-0.47l-0.96,1.51c0.27,0.15,0.53,0.3,0.79,0.47L55.52,163.37z"
							/>
						<path class="st49" d="M56.99,166.59c-1.56-1.26-3.29-2.36-5.09-3.24c-0.12-0.06-0.34,0.12-0.43,0.25
							c-0.08,0.13-0.15,0.33-0.06,0.51c1.8,0.88,3.53,1.99,5.09,3.24c0.17,0.04,0.34-0.19,0.42-0.31
							C57.01,166.92,57.07,166.71,56.99,166.59z"/>
						<path class="st50" d="M54.61,165.82c-0.76-0.49-1.51-1.01-2.29-1.48c-0.36-0.22-0.66-0.47-0.74-0.86
							c-0.05,0.04-0.09,0.09-0.11,0.13c-0.08,0.13-0.15,0.33-0.06,0.51c1.8,0.88,3.53,1.99,5.09,3.24c0.07,0.01,0.13-0.01,0.19-0.06
							C56.22,166.64,55.27,166.24,54.61,165.82z"/>
						<path class="st51" d="M56.92,166.74c-0.04,0.07-0.84-0.57-1.93-1.26c-1.08-0.69-2.07-1.29-2.02-1.36
							c0.04-0.07,0.97,0.47,2.05,1.16C56.11,165.97,56.97,166.67,56.92,166.74z"/>
					</g>
					<path class="st52" d="M58.7,161.68c-0.25,0.18-0.7-0.02-0.99-0.44c-0.3-0.42-0.34-0.91-0.09-1.08c0.25-0.18,0.7,0.02,0.99,0.44
						C58.91,161.02,58.95,161.5,58.7,161.68z"/>
				</g>
				<path class="st53" d="M53.48,171.48c-0.37-0.85-0.93-1.51-1.78-1.67c-8.23-1.5-19.84-0.92-23.21,2.54c0,0-10.23,8.2-14.72,29.89
					c-4.49,21.7,2.68,31.8,5.05,34.68c2.37,2.89,16.91,4.33,36.87,3.64c0,0,4.35-0.06,7.25-1.79c-2.67-10.36-0.62-22.32-2.51-37.27
					C58.57,186.73,55.45,174.93,53.48,171.48z"/>
				<path class="st54" d="M53.21,222.09c-0.75-9.23-3.57-12.8-3.74-16.47c-0.25-5.19,0.85-10.24,1.52-15.35
					c0.6-4.56,1.51-10.68-2.38-14.09c-0.92-0.81-1.99-1.49-3.01-2.17c-1.78-1.19-3.42-2.63-5.42-3.44
					c-2.77-1.13-6.29-2.06-9.29-1.97c-1.55,0.05-2.81,0.91-4.16,1.57c-1.19,0.58-2.43,1.11-3.43,2c-1.5,1.33-2.54,3.46-3.52,5.2
					c-2.79,4.97-4.71,10.4-6.06,15.92c-0.33,1.34-0.62,2.69-0.87,4.04c-2.2,11.5-4.31,26.78,2.75,37.15
					c1.62,2.38,4.95,5.29,7.9,5.81c5.91,1.05,12.09,1.53,18.01,0.6C46.72,240.05,54.3,235.57,53.21,222.09z"/>
				<path class="st15" d="M57.01,207.43c0,0,8.28-0.7,9.73-2.99l1.22,25.7c0,0-1.15,7.17-10.01,6.86
					C57.95,236.99,55.51,225.39,57.01,207.43z"/>
				<path class="st55" d="M66.74,204.43c-0.17,0.26-0.43,0.51-0.75,0.73c-0.23,8.87,0.17,18.19-4.96,25.87
					c-0.96,1.44-2.09,2.85-3.41,4.04c0.19,1.26,0.33,1.93,0.33,1.93c8.86,0.31,10.01-6.86,10.01-6.86L66.74,204.43z"/>
				<path class="st13" d="M66.74,204.43c0,0-7.63,0.61-9.73,2.99C57.01,207.43,64.78,207.43,66.74,204.43z"/>
				<g>
					<g>
						<path class="st56" d="M49.34,173.27c0,0,0.17,0.15,0.44,0.5"/>
						<path class="st57" d="M51.08,176.04c1.2,2.73,2.44,7.77,1.63,16.35c0,0-3.59,8.86,0.66,19.34c3.91,9.67,2.01,21.84-3.79,27.38
							"/>
						<path class="st56" d="M48.57,239.97c-0.18,0.14-0.36,0.27-0.54,0.39"/>
					</g>
				</g>
				<g>
					<path class="st58" d="M26.93,167.52c-4.34,1.42-12.78,7.25-10.82,23.27c0,0,0.73,9.73,14.42,9.51
						c11.76-0.19,17.08-6.61,16.8-20.35c-0.28-13.73,5.74-8.9,5.74-8.9S43.84,161.99,26.93,167.52z"/>
					<path class="st53" d="M25.25,166.76c-4.34,1.42-12.78,7.25-10.82,23.27c0,0,0.73,9.73,14.42,9.51
						c11.76-0.19,17.08-6.61,16.8-20.35c-0.28-13.73,6.16-9.09,6.16-9.09S42.16,161.23,25.25,166.76z"/>
					<path class="st59" d="M42.63,165.71c-1.22,0.66-2.37,1.44-3.29,2.44c-2.45,2.68-2.23,5.79-2.26,9.18
						c-0.04,5.03-2.23,9.97-7.55,11.27c-4.68,1.14-9.49-0.5-12.45-4.29c-1.08-1.37-1.86-2.93-2.37-4.57
						c-0.6,2.84-0.77,6.23-0.27,10.28c0,0,0.74,9.73,14.42,9.51c11.76-0.19,17.08-6.61,16.8-20.35c-0.28-13.73,6.16-9.09,6.16-9.09
						S48.6,167.15,42.63,165.71z"/>
					<path class="st13" d="M29.98,204.62c-1.4,0-2.8,0-4.2,0c-0.73-2.76-0.73-5.63,0-8.39c1.4,0,2.8,0,4.2,0
						C29.25,198.98,29.25,201.86,29.98,204.62z"/>
					<path class="st60" d="M22.63,169.14c-3.65,6.18-6.19,12.98-4.57,20.03c0.86,3.76,4.14,6.79,8.1,8.06
						c7.64,2.45,15.49-4.32,15.59-11.11c0.05-3.46-0.56-7.47,0.2-10.83c0.52-2.29,2.56-6.77,5.68-6.72"/>
				</g>
				<path class="st53" d="M46.16,240.74l-2.99,2.06c0,0-12.66,2.12-25.76-0.75c0,0-4.74-1.31-4.74-6.74
					c0-5.43-0.83-26.16,15.35-26.7C46.84,207.99,48.59,237.56,46.16,240.74z"/>
				<path class="st59" d="M28,208.61c-2.01,0.07-3.76,0.45-5.29,1.07c3.78,3.9,7.64,8.1,9.59,13.21c1.6,4.19,2.46,10.76-2.95,12.46
					c-4.5,1.41-10.25,0.64-14.47-1.28c-0.78-0.36-1.53-0.76-2.24-1.21c-0.01,0.99,0.01,1.82,0.01,2.45c0,5.43,4.74,6.74,4.74,6.74
					c13.1,2.87,25.76,0.75,25.76,0.75l2.99-2.06C48.59,237.56,46.84,207.99,28,208.61z"/>
				<path class="st60" d="M41.04,241.05c0,0-24.52,1.06-26.01-2.31c-1.5-3.37-3.06-25.14,11.05-25.39
					C39.72,213.11,42.48,233.44,41.04,241.05z"/>
				<path class="st58" d="M28,208.61c-4.48,0.15-7.66,1.85-9.91,4.34c1.72-0.86,3.75-1.32,6.17-1.48
					c19.84-1.25,20.34,25.8,18.51,31.37c0.25-0.04,0.39-0.06,0.39-0.06l2.99-2.06C48.59,237.56,46.84,207.99,28,208.61z"/>
				<path class="st58" d="M19.77,224.46c0,0,6.55,1.68,14.41,0.37l0.44,9.54c0,0,0.37,3.12-2.74,3.68
					c-3.12,0.56-10.42-0.25-10.42-0.25s-2.37-0.44-2.25-3.68C19.33,230.88,19.77,224.46,19.77,224.46z"/>
				<path class="st61" d="M34.62,234.37l-0.44-9.54c-0.67,0.11-1.33,0.2-1.98,0.27c-1.84,5.88-7.45,8.88-12.98,8.64
					c-0.01,0.13-0.01,0.26-0.02,0.38c-0.12,3.24,2.25,3.68,2.25,3.68s7.3,0.81,10.42,0.25C34.99,237.49,34.62,234.37,34.62,234.37z"
					/>
			</g>
			<g>
				<path class="st14" d="M42.66,163.92c0,1.27-0.08,2-0.15,2.41c0.82,0.06,1.64,0.13,2.44,0.28c0.14-0.36,0.38-1.32,0.38-3.62
					c0-3.24-0.65-5.52-7.72-5.41c-7.81,0.12-6.46,5.08-6.46,5.08l0.57,3.09c0.18-0.05,0.39-0.07,0.61-0.04
					c0.68,0.12,1.36,0.23,2.04,0.35l-0.35-2.4c0,0-0.83-3.75,3.93-3.85C42.26,159.74,42.66,161.47,42.66,163.92z"/>
				<g>
					<path class="st13" d="M33.12,165.86c0.42,0.07,0.84,0.14,1.26,0.21l-0.35-2.4c0,0-0.7-3.17,2.89-3.76c-0.06,0-0.12,0-0.18,0
						c-4.76,0.09-3.93,3.85-3.93,3.85L33.12,165.86z"/>
					<path class="st13" d="M44.11,163.09c0,1.89-0.16,2.87-0.3,3.36c0.38,0.04,0.76,0.09,1.13,0.16c0.14-0.36,0.38-1.32,0.38-3.62
						c0-3.24-0.65-5.52-7.72-5.41c-0.58,0.01-1.11,0.05-1.59,0.11c0.12,0,0.25-0.01,0.38-0.01
						C43.46,157.56,44.11,159.84,44.11,163.09z"/>
				</g>
			</g>
		</g>
		<g>
			<path class="st62" d="M67.03,229.29c0,0-1.41,3.97,0.65,6.62l23.49,15.04l24.11-26.93l-27.49-9.9L67.03,229.29z"/>
			<path class="st9" d="M68.3,229.35c0,0-1.37,3.25,0.06,5.74l22.36,13.7l22.39-25.04c0,0-0.66-0.64-0.97-1.24
				c-0.58-1.14-0.64-1.96-0.64-1.96l-23.28-5.61L68.3,229.35z"/>
			<path class="st63" d="M112.58,223.16c0.27,0.34,0.53,0.58,0.53,0.58l-22.39,25.04l-0.33-0.22
				C98.88,238.68,104.39,231.68,112.58,223.16z"/>
			<path class="st63" d="M88.21,214.92l23.28,5.61c0,0,0.05,0.64,0.46,1.57c-7.83,8.27-13.68,14.26-24.09,22.8l-19.5-9.82
				c-1.42-2.49-0.06-5.74-0.06-5.74L88.21,214.92z"/>
			<path class="st64" d="M77.02,230.82c2.31,1.33,4.58,2.84,6.9,4.42c-0.02,0.14,0.04,0.3,0.26,0.41c0.73,0.38,1.43,0.8,2.14,1.23
				c1.4,0.96,2.84,1.93,4.33,2.9c0.11,0.07,0.22,0.11,0.32,0.11c0.2,0.13,0.4,0.25,0.6,0.38c0.17,0.11,0.33,0.13,0.47,0.09
				c-3.67,5.69-1.32,8.41-1.32,8.41l-22.36-13.7c-1.42-2.49-0.06-5.74-0.06-5.74l2.38-1.73C72.74,228.65,74.94,229.62,77.02,230.82z
				"/>
			<path class="st65" d="M69.23,228.67l1.45-1.05c2.06,1.03,4.25,2,6.34,3.2c2.31,1.33,4.58,2.84,6.9,4.42
				c-0.02,0.14,0.04,0.3,0.26,0.41c0.73,0.38,1.43,0.8,2.14,1.23c1.4,0.96,2.84,1.93,4.33,2.9c0.11,0.07,0.22,0.11,0.32,0.11
				c0.2,0.13,0.4,0.25,0.6,0.38c0.17,0.11,0.33,0.13,0.47,0.09c-1.45,2.26-1.97,4.2-2.06,5.72
				C81.81,239.78,75.03,233.94,69.23,228.67z"/>
			<polygon class="st66" points="112.23,219.87 90.84,242.99 67.03,229.29 89.18,212.42 			"/>
			<polygon class="st67" points="106.24,220.52 89.21,238.11 72.49,228.91 89.93,215.03 			"/>
			<polygon class="st66" points="101.95,220.65 100.6,221.91 89.77,217.91 91.01,216.88 			"/>
			<polygon class="st66" points="100.02,222.5 98.63,223.8 87.74,219.62 89.02,218.56 			"/>
		</g>
		<g>
			<path class="st68" d="M163.27,213.58c-0.45,0.19-0.71,0.29-0.99,0.65c-0.22,0.28-0.41,0.6-0.55,0.92
				c-0.18,0.4-0.2,0.85-0.38,1.26c-0.18,0.41-0.45,0.8-0.82,1.07c-0.4,0.28-0.84,0.49-1.27,0.73c0.14,0.1,0.91,0.93,2.31,0.9
				c-0.21,0.27-0.55,0.37-0.79,0.59c0.86,0.29,1.3,0.27,2.16,0.07c0.69-0.16,0.76-0.34,1.26-0.62c-0.09,0.22-0.19,0.47-0.32,0.68
				c0.21-0.11,0.86-0.26,1.38-0.92c0.84-1.07,1.39-2.53,0.85-3.84c-0.28-0.68-0.79-1.12-1.35-1.58"/>
			<path class="st69" d="M166.1,215.07c-0.28-0.68-0.79-1.12-1.35-1.58l-0.12,0.01c0.43,1.04,0.8,2.3,0.56,3.36
				c-0.19,0.86-0.92,1.46-1.58,1.96c-0.38,0.28-1.31,0.78-1.35-0.06c-0.01-0.32-0.84-0.09-1.04-0.09c-0.23,0-0.47-0.02-0.69-0.07
				c-0.41-0.09-0.81-0.24-1.13-0.48c-0.05,0.03-0.09,0.05-0.14,0.08c0.14,0.1,0.91,0.93,2.31,0.9c-0.21,0.27-0.55,0.37-0.79,0.59
				c0.86,0.29,1.3,0.27,2.16,0.07c0.69-0.16,0.76-0.34,1.26-0.62c-0.09,0.22-0.19,0.47-0.32,0.68c0.21-0.11,0.86-0.26,1.38-0.92
				C166.09,217.84,166.64,216.39,166.1,215.07z"/>
			<path class="st70" d="M209.03,222.94h0.12l-3-19.72h-33.07l-3,19.72h0.12c-0.09,0.15-0.14,0.3-0.14,0.45
				c0,2.07,8.76,4.87,19.56,4.87c10.8,0,19.56-2.79,19.56-4.87C209.17,223.23,209.12,223.08,209.03,222.94z"/>
			<path class="st71" d="M209.03,222.94h0.12l-3-19.72h-33.07l-1.89,12.41c2.96,0.33,5.88,1.01,8.71,1.95
				c2.8,0.93,5.64,2.04,8.23,3.47c1.98,1.09,3.82,2.47,5.31,4.19c0.75,0.86,1.39,1.79,1.95,2.75c7.98-0.75,13.79-2.91,13.79-4.6
				C209.17,223.23,209.12,223.08,209.03,222.94z"/>
			<g>
				<polygon class="st72" points="216.25,204.9 189.29,217.9 162.96,204.9 189.45,196.26 				"/>
				<polygon class="st73" points="216.25,204.9 189.29,217.9 162.96,204.9 162.96,202.35 189.45,196.26 216.25,202.35 				"/>
				<polygon class="st74" points="189.45,196.26 189.3,196.29 189.3,217.9 216.25,204.9 216.25,202.35 				"/>
				<polygon class="st72" points="216.25,202.35 189.29,215.36 162.96,202.35 189.45,193.71 				"/>
				<path class="st75" d="M165.95,202.37l9.02,4.56c0,0-3.36-2.55-2.72-4.46c0.64-1.91,4.24-3.82,4.24-3.82L165.95,202.37z"/>
				<path class="st70" d="M190.68,203.59c0,0.44-0.81,0.8-1.8,0.8c-1,0-1.8-0.36-1.8-0.8c0-0.44,0.81-0.8,1.8-0.8
					C189.87,202.79,190.68,203.15,190.68,203.59z"/>
			</g>
			<g>
				<path class="st76" d="M188.48,203.29c-2.76-0.92-5.66-0.47-8.46-0.03c-1.46,0.23-2.92,0.44-4.4,0.46
					c-1.46,0.02-2.79-0.33-4.18-0.72c-1.25-0.35-2.53-0.62-3.82-0.4c-1.16,0.2-2.11,0.95-2.74,1.92c-1.2,1.85-1.35,4.36-1.43,6.5
					c-0.02,0.65-0.02,1.31-0.02,1.96c0,0.51,0.8,0.51,0.8,0c0-2.18,0.03-4.41,0.66-6.51c0.33-1.09,0.88-2.11,1.88-2.71
					c1.2-0.73,2.71-0.44,3.99-0.11c1.34,0.34,2.61,0.77,4.01,0.86c1.42,0.09,2.85-0.08,4.25-0.28c2.89-0.41,5.87-1.09,8.76-0.31
					c0.17,0.05,0.33,0.1,0.5,0.16C188.76,204.22,188.97,203.45,188.48,203.29L188.48,203.29z"/>
			</g>
			<g>
				<path class="st76" d="M164.95,213.44c0,0.62-0.5,1.12-1.12,1.12c-0.62,0-1.12-0.5-1.12-1.12c0-0.62,0.5-1.12,1.12-1.12
					C164.45,212.32,164.95,212.82,164.95,213.44z"/>
				<path class="st77" d="M164.51,212.55c0.23,0.62,0.14,1.26-0.58,1.62c-0.26,0.13-0.55,0.16-0.84,0.12
					c0.2,0.17,0.46,0.28,0.74,0.28c0.62,0,1.12-0.5,1.12-1.12C164.95,213.08,164.78,212.75,164.51,212.55z"/>
				<path class="st78" d="M163.69,212.71c0.07,0.12-0.03,0.3-0.22,0.41c-0.19,0.11-0.39,0.09-0.46-0.02
					c-0.07-0.12,0.03-0.3,0.22-0.41C163.42,212.58,163.63,212.59,163.69,212.71z"/>
			</g>
			<path class="st76" d="M162.12,215.14c-0.07,0.14-0.12,0.27-0.15,0.42c-0.1,0.4-0.24,0.77-0.48,1.12
				c-0.19,0.28-0.39,0.54-0.61,0.79c-0.19,0.22-0.46,0.43-0.6,0.68c-0.01,0.02,0.47,0,0.49,0c0.36-0.02,0.67-0.13,0.97-0.34
				c0.08-0.06,0.16-0.25,0.27-0.26c0.16-0.01-0.09,0.38,0.03,0.45c0.19,0.1,0.45-0.09,0.6-0.19c0.54-0.36,1.06-0.74,1.3-1.38
				c0.14-0.39,0.34-0.84,0.05-1.2c-0.17-0.21-0.41-0.18-0.65-0.26c-0.24-0.08-0.39-0.33-0.65-0.35
				C162.4,214.59,162.23,214.92,162.12,215.14z"/>
		</g>
	</g>
	<g>
		<g>
			<path class="st79" d="M263.55,167.61c0.03,0.41,0.07,0.82,0.11,1.22c0.29,3.13,1.18,6.64,0.65,9.78
				c-2.17,12.76-19.69,10.63-25.62,2.17c-3.56-5.09-3.67-11.74-3.38-17.76c0.33-6.8,3.56-13.85,9.98-16.91
				c5.12-2.44,11.97-2.3,15.98,2.13c2.35,2.6,2.64,6.49,2.3,9.82C263.24,161.24,263.3,164.43,263.55,167.61z"/>
			<path class="st80" d="M261.15,177.52c1.13-4.77-0.73-8.99-1.23-13.67c-0.49-4.6,1.11-10.4-1.52-14.53
				c-2.13-3.35-5.91-4.03-9.61-4.06c-0.19,0-0.32-0.11-0.37-0.25c-1.09,0.27-2.15,0.64-3.14,1.11c-6.41,3.05-9.65,10.11-9.98,16.91
				c-0.29,6.02-0.18,12.67,3.38,17.76c3.34,4.76,10.36,7.52,16.24,6.74C257.64,184.67,260.24,181.39,261.15,177.52z"/>
			<path class="st81" d="M242.47,105.81c5.29-3.07,10.37-5.28,16.61-3.87c3.99,0.9,8.45,2.8,10.73,6.38
				c2.74,4.31,2.84,11.3,7.83,13.94c3.57,1.89,6.7-0.63,10.15-1.01c4.27-0.47,3.38,3.85,2.37,6.41c-1.36,3.45-4.38,7.49-7.47,9.52
				c-2.32,1.53-4.3-0.04-6.12-1.49c-2.6-2.07-3.96-0.14-6.27,1.22c-2.3,1.36-3.87,1.09-5.75-0.77c-2.86-2.85-3.26-5.68-4.17-9.5
				c-0.39-1.66-0.75-3.66-2.25-4.62c-1.31-0.84-2.89-0.45-4.31-0.78c-3.42-0.8-7.8-4.3-9.22-7.49c-1.04-2.32-2.04-7.91,0.51-9.5"/>
			<g>
				<g>
					<g>
						<path class="st82" d="M222.06,167.06c1.16-0.62,1.54-4.15,3.42-3.29c1.58,0.72,3.16,3.76,3.16,3.76
							c-1.19,6.31-2.75,12.88-1.86,17.38c1,5.05-2.88,0.63-2.88,0.63C222.49,179.16,221.49,175.89,222.06,167.06z"/>
					</g>
				</g>
				<path class="st82" d="M226.33,182.84c0,0,3.46,0.67,2.86,5.1c0,0-0.83,0.15-1.61-1.53c-0.56-1.2-0.99-2.23-1.17-2.92
					C226.34,183.21,226.31,182.99,226.33,182.84z"/>
				<path class="st82" d="M223.68,184.57c-0.11,1.05-0.01,2.18,0.25,3.2c0.34,1.33,0.88,3.2,2.36,3.62c0.51,0.14,1.03,0.19,1.55,0.1
					c0.55-0.09,1.15-0.36,1.2-0.93c0.07-0.9-0.27-1.75-0.58-2.58c-0.29-0.8-0.29-1.68-0.56-2.5c-0.28-0.85-1.57-1.86-1.83-1.84
					C225.81,183.65,223.68,184.57,223.68,184.57z"/>
			</g>
			<g>
				<g>
					<path class="st82" d="M230.82,203.44c-0.75,1.5-1.23,3.2-1.63,4.63c7.71,4,22.32,11.02,22.32,11.02s3.28-1.41,1.09-3.28
						c-9.3-7.91-15.92-12.38-20.01-14.82c-0.41,0.38-0.77,0.82-1.1,1.3L230.82,203.44z"/>
					<path class="st83" d="M235.41,211.23c6.6,3.39,16.1,7.86,16.1,7.86s3.28-1.41,1.09-3.28c-3.05-2.59-9.76-8.04-13.53-10.57
						C238.35,207.55,237.16,209.39,235.41,211.23z"/>
					<path class="st84" d="M241.71,207.12c-0.38-0.3-0.79-0.59-1.16-0.87c-0.34,2.24-1.73,4.33-3.43,5.88
						c0.65,0.33,0.84,0.44,1.29,0.63C239.92,211.25,241.29,209.19,241.71,207.12z"/>
					<path class="st84" d="M240.08,205.93c-0.17-0.13-0.96-0.68-1.13-0.81c-0.72,2.31-1.93,4.2-3.68,6.04
						c0.7,0.39,0.86,0.46,1.29,0.69C238.39,210.32,239.45,208.42,240.08,205.93z"/>
					<path class="st9" d="M252.89,223.47c0.04,0.76-0.29,2.72,0.54,2.93c1.48,0.37,2.64-1.66,2.89-2.84
						c0.43-2.03-0.15-3.56-0.21-4.62c-0.05-1.05-0.46-1.68-1.33-2.14c-0.46-0.25-1.15-0.54-2.19-0.98c-0.6-0.26-0.45,0.43-0.6,0.92
						c-0.2,0.69-0.36,0.85-0.56,1.54c-0.23,0.79,0.29,0.84,0.84,2.3C252.64,221.61,252.87,222.91,252.89,223.47z"/>
				</g>
				<g>
					<path class="st85" d="M251.51,219.09c0,0,2-0.99,1.46-3.19c0,0,2.53,0.54,3.71,2.07c0,0,0.1,0.84,0.13,1.99
						c0.01,0.36-0.32,0.51-0.32,0.92c-0.01,0.34,0.31,0.95,0.29,1.3c-0.08,1.18-0.29,2.35-0.74,3.17c-1.24,2.27-3.36,2.25-3.6-0.16
						C252.19,222.78,252.93,222.96,251.51,219.09z"/>
					<path class="st86" d="M253.17,215.95c0.92,1.5,2.04,1.97,3.52,2.38c-0.04-0.49-0.01-0.36-0.01-0.36
						C255.7,216.7,253.77,216.11,253.17,215.95z"/>
					<path class="st87" d="M254.46,221.94c-0.17-1.66-0.74-3.17-1.48-4.64c-0.33,1.22-1.47,1.79-1.47,1.79
						c1.29,3.51,0.8,3.69,0.88,5.5C253.05,226.08,254.63,223.55,254.46,221.94z"/>
					<path class="st88" d="M256.25,219.96c0.01,0.36-0.32,0.51-0.32,0.92c-0.01,0.34,0.31,0.95,0.29,1.3
						c-0.08,1.18-0.29,2.35-0.74,3.17c-0.53,0.97-1.23,1.52-1.87,1.65c0.76,0.19,1.74-0.37,2.43-1.64c0.44-0.81,0.65-1.99,0.74-3.17
						c0.03-0.35-0.29-0.96-0.29-1.3c0.01-0.41,0.33-0.55,0.32-0.92c-0.03-1.15-0.13-1.99-0.13-1.99c-0.16-0.21-0.34-0.39-0.54-0.56
						C256.17,217.97,256.22,219.12,256.25,219.96z"/>
					<path class="st87" d="M251.69,219.47c0,0-0.72-0.79-0.33-1.31c0.39-0.52,1.03-1.38,1.67-0.74c0,0-0.53,2.08-1.48,1.7"/>
					<path class="st89" d="M253.74,225.39c0.06,0.1-0.08,0.3-0.32,0.45c-0.24,0.15-0.48,0.2-0.55,0.1c-0.06-0.1,0.08-0.3,0.32-0.45
						C253.43,225.34,253.68,225.29,253.74,225.39z"/>
					<path class="st90" d="M252.39,223.44c0,0,0.58-0.87,1.74-1.11"/>
					<path class="st90" d="M252.38,222.64c0,0,0.58-0.87,1.74-1.11"/>
					<g>
						<path class="st90" d="M252.29,221.69c0,0,0.58-0.87,1.74-1.11"/>
					</g>
					<g>
						<path class="st90" d="M252.04,220.77c0,0,0.58-0.87,1.74-1.11"/>
					</g>
					<path class="st90" d="M252.47,220.18c-0.38-0.22-0.78-0.49-1.21-0.59c-0.26-0.06-0.64-0.12-0.89,0.03
						c-0.42,0.27-0.12,0.55,0.24,0.63c0.46,0.1,1.03,0.03,1.49-0.06c0.19-0.04,0.31-0.04,0.5,0"/>
					<path class="st90" d="M252.5,220.22c-0.31-0.56-0.87-1.41-0.43-2.06c0.15-0.22,0.41-0.13,0.54,0.08
						c0.22,0.37,0.2,0.89,0.11,1.29c-0.04,0.16-0.23,0.5-0.21,0.64"/>
				</g>
			</g>
			<g>
				<g>
					<path class="st82" d="M250.22,198.89c-1.67,0.02-3.41,0.38-4.86,0.67c-0.02,8.69,0.43,24.88,0.43,24.88s2.76,2.27,3.41-0.54
						c2.77-11.89,3.71-19.82,4-24.58c-0.52-0.2-1.08-0.31-1.66-0.38L250.22,198.89z"/>
					<path class="st9" d="M245.4,206.54c0.01,7.42,0.39,17.91,0.39,17.91s2.76,2.27,3.41-0.54c0.91-3.9,2.67-12.36,3.2-16.87
						C250.02,207.46,247.84,207.25,245.4,206.54z"/>
					<path class="st84" d="M251.94,210.25c0.09-0.47,0.16-0.97,0.24-1.42c-2.15,0.72-4.64,0.44-6.8-0.35c0,0.73,0,0.95,0.03,1.43
						C247.45,210.56,249.91,210.82,251.94,210.25z"/>
					<path class="st84" d="M252.26,208.26c0.04-0.22,0.17-1.17,0.2-1.38c-2.38,0.42-4.62,0.21-7.06-0.5
						c-0.02,0.8-0.01,0.98-0.03,1.46C247.58,208.76,249.76,208.84,252.26,208.26z"/>
					<path class="st9" d="M242.54,227.68c-0.66,0.38-2.55,0.99-2.35,1.82c0.35,1.48,2.69,1.59,3.85,1.27c2-0.55,3.09-1.76,4.02-2.3
						c0.91-0.53,1.28-1.18,1.29-2.17c0-0.53-0.05-1.27-0.13-2.4c-0.05-0.65-0.59-0.2-1.09-0.11c-0.71,0.14-0.92,0.07-1.63,0.21
						c-0.8,0.16-0.61,0.64-1.66,1.8C244.07,226.6,243.02,227.4,242.54,227.68z"/>
				</g>
				<g>
					<path class="st85" d="M245.79,224.45c0,0,1.8,1.32,3.5-0.16c0,0,0.68,2.5-0.14,4.25c0,0-0.7,0.47-1.71,1.03
						c-0.32,0.18-0.6-0.05-0.96,0.13c-0.31,0.15-0.7,0.71-1.02,0.85c-1.08,0.46-2.23,0.82-3.15,0.8c-2.58-0.06-3.54-1.96-1.5-3.28
						C242.83,226.74,243.01,227.48,245.79,224.45z"/>
					<path class="st86" d="M249.34,224.48c-0.91,1.5-0.82,2.71-0.51,4.22c0.42-0.26,0.32-0.17,0.32-0.17
						C249.84,227.07,249.48,225.09,249.34,224.48z"/>
					<path class="st87" d="M244.61,228.38c1.4-0.92,2.48-2.11,3.44-3.45c-1.24,0.27-2.26-0.48-2.26-0.48
						c-2.53,2.76-2.91,2.4-4.49,3.3C240.29,229.02,243.26,229.26,244.61,228.38z"/>
					<path class="st88" d="M247.19,229.06c-0.32,0.18-0.6-0.05-0.96,0.13c-0.31,0.15-0.7,0.71-1.02,0.85
						c-1.08,0.46-2.23,0.82-3.15,0.8c-1.11-0.03-1.92-0.39-2.32-0.91c0.18,0.76,1.12,1.38,2.57,1.41c0.93,0.02,2.07-0.33,3.15-0.8
						c0.33-0.14,0.72-0.7,1.02-0.85c0.37-0.18,0.65,0.04,0.96-0.13c1.01-0.56,1.71-1.03,1.71-1.03c0.11-0.23,0.19-0.48,0.25-0.73
						C248.93,228.07,247.93,228.65,247.19,229.06z"/>
					<path class="st87" d="M245.55,224.78c0,0,0.37-1,1.01-0.89c0.64,0.11,1.7,0.28,1.42,1.15c0,0-2.09,0.48-2.19-0.54"/>
					<path class="st89" d="M241.22,229.31c-0.06,0.1-0.3,0.06-0.55-0.08c-0.25-0.14-0.4-0.34-0.34-0.44c0.06-0.1,0.3-0.06,0.55,0.08
						C241.12,229.02,241.27,229.21,241.22,229.31z"/>
					<path class="st90" d="M242.33,227.23c0,0,1.04,0.11,1.78,1.04"/>
					<path class="st90" d="M243.04,226.85c0,0,1.04,0.11,1.78,1.04"/>
					<g>
						<path class="st90" d="M243.84,226.33c0,0,1.04,0.11,1.78,1.04"/>
					</g>
					<g>
						<path class="st90" d="M244.55,225.69c0,0,1.04,0.11,1.78,1.04"/>
					</g>
					<path class="st90" d="M245.27,225.8c0.02-0.43,0.08-0.92-0.03-1.34c-0.07-0.26-0.19-0.63-0.43-0.77
						c-0.43-0.25-0.54,0.15-0.44,0.5c0.12,0.45,0.45,0.93,0.73,1.3c0.12,0.15,0.18,0.26,0.23,0.45"/>
					<path class="st90" d="M245.25,225.84c0.36-0.53,0.85-1.42,1.63-1.32c0.27,0.03,0.31,0.3,0.17,0.52
						c-0.22,0.36-0.7,0.59-1.09,0.69c-0.16,0.04-0.55,0.02-0.67,0.11"/>
				</g>
			</g>
			<path class="st82" d="M227.45,205.68c0,0,1.81-11.44,3.73-17.46l9.07,4.21c0,0-4.2,10.24-5.45,15.7
				C234.81,208.13,229.28,210.72,227.45,205.68z"/>
			<path class="st82" d="M252.5,204.01c0,0,0.82-14.44,0.54-20.76l-9.69,1.32c0,0,1.92,15.66,1.7,21.26
				C245.05,205.83,249.43,208.41,252.5,204.01z"/>
			<g>
				<g>
					<path class="st91" d="M232.06,173.54c-5.42,6.61-9.6,22.98-10.17,25.08c-0.01-0.7,0.78,5.22,20.92,6.22
						c18.58-0.87,22.1-9.26,22.07-8.68c-0.08,0.04-7.41-14.27-11.75-22.52C246.15,175.17,239.02,175.14,232.06,173.54z"/>
					<path class="st91" d="M232.06,173.54c-5.42,6.61-9.6,22.98-10.17,25.08c-0.01-0.7,0.78,5.22,20.92,6.22
						c18.58-0.87,22.1-9.26,22.07-8.68c-0.08,0.04-7.41-14.27-11.75-22.52C246.15,175.17,239.02,175.14,232.06,173.54z"/>
				</g>
				<g>
					<path class="st92" d="M264.48,195.45c-0.34-0.63-0.88-1.66-1.55-2.95c-12.87,3.68-26.43,3.66-39.29-0.06
						c-0.36,1.17-0.67,2.23-0.92,3.14C236.37,199.72,250.85,199.68,264.48,195.45z"/>
					<path class="st92" d="M254.7,176.64c-0.55-1.06-1.09-2.08-1.58-3.01c-6.97,1.54-14.11,1.51-21.07-0.09
						c-0.65,0.79-1.28,1.73-1.89,2.76C238.28,177.84,246.57,177.95,254.7,176.64z"/>
					<path class="st92" d="M258.04,183.06c-0.54-1.03-1.07-2.07-1.61-3.1c-9.26,1.73-18.76,1.6-27.99-0.38
						c-0.48,1-0.94,2.05-1.37,3.11C237.26,185.09,247.81,185.21,258.04,183.06z"/>
					<path class="st92" d="M222.24,199.05c1.03,1.34,5.06,5.02,20.57,5.78c8.93-0.42,14.37-2.57,17.62-4.63
						C247.84,203.31,234.69,202.92,222.24,199.05z"/>
					<path class="st92" d="M261.29,189.33c-0.5-0.96-1.02-1.97-1.57-3.03c-11.18,2.64-22.78,2.53-33.93-0.31
						c-0.39,1.06-0.75,2.11-1.09,3.13C236.7,192.38,249.27,192.45,261.29,189.33z"/>
					<path class="st93" d="M264.86,196.13c0.01,0.01,0.02,0.02,0.02,0.02C264.88,196.13,264.87,196.12,264.86,196.13z"/>
					<path class="st93" d="M221.89,198.62c0-0.01,0.01-0.04,0.01-0.05C221.89,198.56,221.89,198.57,221.89,198.62z"/>
					<path class="st93" d="M260.43,200.2c3.24-2.06,4.3-4.02,4.43-4.07c-0.04-0.05-0.17-0.29-0.38-0.68
						c-13.63,4.23-28.12,4.27-41.77,0.13c-0.41,1.45-0.69,2.51-0.82,2.98c0.03,0.02,0.12,0.2,0.34,0.49
						C234.69,202.92,247.84,203.31,260.43,200.2z"/>
					<path class="st93" d="M262.93,192.49c-0.49-0.93-1.04-2.01-1.65-3.17c-12.02,3.13-24.59,3.06-36.59-0.21
						c-0.39,1.16-0.74,2.28-1.06,3.32C236.5,196.15,250.06,196.17,262.93,192.49z"/>
					<path class="st93" d="M259.72,186.3c-0.55-1.05-1.11-2.14-1.68-3.24c-10.23,2.16-20.78,2.03-30.97-0.37
						c-0.45,1.09-0.88,2.2-1.28,3.3C236.93,188.83,248.54,188.94,259.72,186.3z"/>
					<path class="st93" d="M256.43,179.96c-0.59-1.14-1.17-2.25-1.73-3.32c-8.14,1.31-16.43,1.2-24.54-0.34
						c-0.6,1.01-1.17,2.11-1.72,3.27C237.67,181.56,247.17,181.69,256.43,179.96z"/>
				</g>
				<g>
					<path class="st92" d="M232.06,173.54c-0.21,0.26-0.42,0.54-0.63,0.82c-0.35,8.76-2.49,17.35-4.65,27.66
						c1.59,0.64,3.69,1.27,6.47,1.77c1.32-11.38,2.53-20.44,2.72-29.55C234.66,174.06,233.35,173.84,232.06,173.54z"/>
					<path class="st92" d="M246.43,174.6c0.17,9.09,1.19,18.17,2.31,29.64c2.54-0.4,4.71-0.96,6.54-1.6
						c-2.05-10.76-4.05-19.6-4.34-28.6C249.44,174.31,247.93,174.49,246.43,174.6z"/>
					<path class="st92" d="M221.9,198.56c0.05,0.03,0.25,0.5,0.97,1.17c1.81-6.5,3.65-12.43,4.72-18.29
						C224.49,188.6,222.33,196.97,221.9,198.56z"/>
					<path class="st92" d="M238.93,174.59c-0.1,9.11-0.67,18.23-1.31,29.84c1.57,0.17,3.3,0.31,5.19,0.4
						c0.52-0.02,1.03-0.06,1.53-0.09c-0.43-11.7-0.82-20.88-0.88-30C241.94,174.76,240.44,174.71,238.93,174.59z"/>
					<path class="st92" d="M264.21,194.94c-1.76-3.33-6.68-12.89-10.23-19.69c0.55,8.22,2.99,16.27,5.37,25.59
						c3.5-1.94,4.94-3.96,5.37-4.55C264.55,195.84,264.38,195.39,264.21,194.94z"/>
					<path class="st92" d="M221.89,198.62c0-0.01,0.01-0.04,0.01-0.05C221.89,198.56,221.89,198.57,221.89,198.62z"/>
					<path class="st93" d="M227.59,181.45c-1.07,5.85-2.91,11.78-4.72,18.29c0.7,0.65,1.89,1.48,3.9,2.29
						c2.17-10.31,4.31-18.9,4.65-27.66C230.05,176.27,228.75,178.77,227.59,181.45z"/>
					<path class="st93" d="M235.96,174.25c-0.18,9.11-1.4,18.17-2.72,29.55c1.3,0.24,2.75,0.45,4.37,0.63
						c0.64-11.61,1.22-20.74,1.31-29.84C237.94,174.51,236.95,174.4,235.96,174.25z"/>
					<path class="st93" d="M243.45,174.74c0.07,9.12,0.45,18.3,0.88,30c1.58-0.11,3.04-0.29,4.4-0.5
						c-1.12-11.47-2.14-20.55-2.31-29.64C245.44,174.68,244.45,174.73,243.45,174.74z"/>
					<path class="st93" d="M253.13,173.63c-0.73,0.16-1.46,0.29-2.19,0.42c0.28,9,2.28,17.83,4.34,28.6c1.6-0.56,2.94-1.17,4.07-1.8
						c-2.38-9.32-4.82-17.37-5.37-25.59C253.68,174.69,253.4,174.15,253.13,173.63z"/>
					<path class="st93" d="M264.86,196.13c0.01,0.01,0.02,0.02,0.02,0.02C264.88,196.13,264.87,196.12,264.86,196.13z"/>
					<path class="st93" d="M264.86,196.13c-0.05-0.08-0.28-0.5-0.65-1.19c0.17,0.45,0.34,0.9,0.51,1.36
						C264.79,196.19,264.84,196.14,264.86,196.13z"/>
				</g>
			</g>
			<path class="st82" d="M232.64,179.39"/>
			<path class="st81" d="M237.07,139.14c0.75,0.21,1.51,0.38,2.28,0.52c5.01,0.91,9.36-0.08,13.85-2.33
				c1.69-0.85,3.35-1.62,4.49-3.19c1.64-2.27,2.34-4.99,2.92-7.69c0.75-3.46,1.02-7.55-0.18-10.94c-1.72-4.84-4.77-9.09-9.69-11.07
				c-5.63-2.26-12.73-1.98-17.91,1.32C221.74,112.83,224.27,135.52,237.07,139.14z"/>
			<path class="st82" d="M250.97,171.69c1.34-10.56,3.91-23.17,1.76-24.73c-2.37-1.72-5.88-2.49-9.42-2.55
				c-3.41-0.06-7.58,0.32-10.98,1.49c-2.07,0.71-0.41,14.54,0.16,25.79H250.97z"/>
			<path class="st82" d="M240.86,134.2c1.91-1.25,5.46,0.77,5.46,0.77l0.08,10.22c0,0-6.8,1.37-6.73-0.11
				C239.83,141.74,239.54,135.06,240.86,134.2z"/>
			<path class="st94" d="M243.53,142.07c1.18,0.61,2.17,1.62,2.84,2.76c0.01,0.01,0.01,0.02,0.01,0.03l-0.07-9.89
				c0,0-3.54-2.02-5.46-0.77c-0.65,0.43-1.1,4.16-1.12,7.68C240.97,141.75,242.33,141.44,243.53,142.07z"/>
			<path class="st82" d="M255.76,111.81c-1.03-2.76-3.36-5.59-6.39-6.62c-1.98-0.67-4.1-0.92-6.2-0.84
				c-2.11-0.08-4.23,0.17-6.2,0.84c-3.03,1.03-5.36,3.86-6.39,6.62c-1.65,4.41-2.46,7.24-2.29,11.9c0.23,6.46,2.29,13.87,9.23,15.95
				c1.66,0.5,3.61,0.77,5.35,0.7c0.1,0,0.21-0.01,0.31-0.02c0.1,0.01,0.21,0.01,0.31,0.02c1.74,0.06,3.68-0.21,5.35-0.7
				c6.94-2.08,9-9.5,9.23-15.95C258.22,119.05,257.41,116.22,255.76,111.81z"/>
			<g>
				<path class="st82" d="M224.24,123.9c0.42,2.27,3.64,5.35,4.5,3.43c0.53-1.18,0.51-2.55,0.1-4.83c-0.42-2.27,0.47-3.78-1.6-3.4
					C225.17,119.48,223.82,121.63,224.24,123.9z"/>
				<path class="st95" d="M227.54,121.2c0.04-0.01,0.07,0,0.11-0.01c0.01,0.02,0.02,0.04,0.03,0.06c0.68,0.79,0.27,2.43,0.28,3.37
					c0,0.4,0.03,0.8,0.08,1.19c-1,0-1.91-0.8-2.12-1.94C225.69,122.6,226.42,121.4,227.54,121.2z"/>
				<path class="st9" d="M225.86,127.29c-0.15,0.61,0.23,1.22,0.84,1.37c0.61,0.15,1.22-0.23,1.37-0.84
					c0.15-0.61-0.23-1.22-0.84-1.37C226.62,126.31,226.01,126.68,225.86,127.29z"/>
			</g>
			<g>
				<path class="st82" d="M261.64,123.49c-0.42,2.27-3.64,5.35-4.5,3.43c-0.52-1.18-0.51-2.55-0.1-4.83c0.42-2.27-0.47-3.78,1.6-3.4
					C260.71,119.07,262.06,121.22,261.64,123.49z"/>
				<path class="st95" d="M258.34,120.78c-0.04-0.01-0.07,0-0.11-0.01c-0.01,0.02-0.02,0.04-0.03,0.06
					c-0.68,0.79-0.27,2.43-0.28,3.37c0,0.4-0.03,0.8-0.08,1.19c1,0,1.91-0.81,2.12-1.94C260.19,122.18,259.46,120.99,258.34,120.78z
					"/>
				<path class="st9" d="M260.02,126.88c0.15,0.61-0.23,1.22-0.84,1.37c-0.61,0.15-1.22-0.23-1.37-0.84
					c-0.15-0.61,0.23-1.22,0.84-1.37C259.26,125.9,259.87,126.27,260.02,126.88z"/>
			</g>
			<g>
				<g>
					<path class="st82" d="M223.81,170.52c0.56,0.21,1.19,0.25,1.77,0.17c2.45-0.35,3.26-4.02,4.07-5.89
						c1.39-3.19,2.64-6.45,3.6-9.8c0.45-1.58,0.87-3.2,1.03-4.84c0.08-0.85,0.22-2.1-0.37-2.82c-2.85-3.45-3.76,1.74-3.76,1.74
						c-1.76,3.48-3.45,7-5.09,10.54c-0.86,1.86-1.64,3.73-2.42,5.63c-0.64,1.57-1.09,3.48,0.33,4.77
						C223.22,170.25,223.5,170.41,223.81,170.52z"/>
				</g>
			</g>
			<g>
				<g>
					<path class="st9" d="M236.77,146.4c1.56,1.75-1.24,10.64-6.6,17.94c-2.23,0.08-5.88-2.13-7.19-4.16
						c3.14-5.69,5.54-10.9,5.54-10.9S232.62,141.74,236.77,146.4z"/>
				</g>
			</g>
			<path class="st9" d="M253.13,173.63c0.54-5.15,2.63-13.34,2.32-15.58c-0.5-3.67,0.01-9.45-2.85-12.15
				c-0.64-0.6-5.92-1.51-5.88-1.18c0.01,0.12,0.03,0.2,0.04,0.25c-0.03,0.05-0.06,0.14-0.11,0.3c-0.73,2.38-3.46,2.74-5.33,2.03
				c-1.22-0.47-2.09-1.27-1.77-2.82c-1.12,0.28-2.19,0.06-3.32,0.12c-1.1,0.06-2.27,0.18-3.32,0.51c-2.32,0.73-1.53,4.53-2.1,6.32
				c-1.27,3.96,0.83,15.33,1.26,22.13c0,0,4.6,1.61,10.42,1.56C248.29,175.06,253.13,173.63,253.13,173.63z"/>
			<path class="st96" d="M239.51,162.81c-0.14-0.46-0.28-0.91-0.44-1.36c-0.46,0.11-0.92,0.21-1.37,0.29
				c1.99-3.38,3.27-7.13,3.76-11.03c0.69,0.09,1.39,0.17,2.08,0.26C243.02,155.15,241.65,159.18,239.51,162.81z"/>
			<path class="st91" d="M246.92,161.88c-0.35-0.32-0.71-0.64-1.08-0.94c-0.34,0.33-0.68,0.65-1.02,0.96
				c-0.04-3.92-0.89-7.8-2.49-11.38c0.64-0.28,1.28-0.57,1.92-0.85C245.97,153.51,246.87,157.67,246.92,161.88z"/>
			<path class="st91" d="M244.9,149.73c0,1.09-0.88,1.98-1.98,1.98c-1.09,0-1.98-0.88-1.98-1.98c0-1.09,0.89-1.98,1.98-1.98
				C244.02,147.75,244.9,148.63,244.9,149.73z"/>
			<path class="st96" d="M243.49,147.84c0.18,1.1-0.09,2.22-1.09,2.88c-0.29,0.19-0.61,0.29-0.93,0.33c0.36,0.4,0.88,0.65,1.46,0.65
				c1.09,0,1.98-0.88,1.98-1.98C244.9,148.83,244.31,148.08,243.49,147.84z"/>
			<path class="st97" d="M239.61,142.4c0,0,1.24,4.64,3.32,5.35l-4.94,3.95c0,0-2.5-4.53-1.29-7.16
				C236.7,144.54,237.08,142.45,239.61,142.4z"/>
			<g>
				<path class="st82" d="M264.24,168.98c0.6-0.03,4.78,2.05,4.9,0.49c0.03-0.34-3.6-6-3.89-6.74
					c-5.19-9.49-11.14-15.39-13.59-14.96c-4.02,0.7-0.24,5.01-0.24,5.01s3.39,6.33,7.51,11.18c1.2,1.4,2.36,3.05,3.55,4.36
					C262.48,168.33,264.89,169.52,264.24,168.98z"/>
			</g>
			<g>
				<g>
					<path class="st9" d="M251.16,145.39c2.34-0.21,9.02,5.78,13.23,13.8c-0.91,2.04-4.49,4.35-6.89,4.64
						c-3.74-5.31-7.88-12.33-7.88-12.33S246.71,145.8,251.16,145.39z"/>
				</g>
			</g>
			<g>
				<g>
					<g>
						<path class="st81" d="M247.73,103.45c-5.15-1.17-11.45,1.31-10.55,7.48c0.97,6.64,6.93,7.59,11.86,9.74
							c3.86,0.18,6.73,0.09,9.47,3.16c-0.03-0.03,0.43-1.46,0.45-1.64c0.07-0.55,0.08-1.1,0.03-1.65c-0.07-0.89,0.01-1.75-0.09-2.66
							c-0.25-2.31-0.94-4.15-2.04-6.22c-1.95-3.66-4.03-6.52-8.04-7.9C248.47,103.64,248.1,103.53,247.73,103.45z"/>
					</g>
				</g>
			</g>
			<g>
				<g>
					<g>
						<path class="st81" d="M237.22,104.34c0.25,0.16,4.67-0.97,4.94-0.6c0.97,1.32-3.39,4.36-3.54,5.87
							c-0.38,3.87-2.44,6.89-5.25,9.45c-0.87,0.79-3.12,3.39-4.27,3.52c-2.02,0.23-1.36-3.54-1.21-4.82
							c0.25-2.31,0.94-4.15,2.04-6.22c1.25-2.35,2.82-4.88,4.9-6.57C235.75,104.22,236.46,103.85,237.22,104.34z"/>
					</g>
				</g>
			</g>
			<g>
				<g>
					<g>
						<path class="st98" d="M242.26,117.84c1.63-0.13,3.24-0.44,4.79-0.95c3.65-1.19,6.84-3.21,9.51-5.78
							c-0.42-0.76-0.86-1.52-1.35-2.26c-3.02,3-7.03,5.03-11.25,5.19c-2.03,0.08-4.18-0.22-6.2-0.88
							C238.66,115.4,240.31,116.79,242.26,117.84z"/>
					</g>
				</g>
			</g>
			<g>
				<g>
					<g>
						<path class="st98" d="M235.32,117.05c1.01-1.19,1.83-2.48,2.42-3.9c-2.47-0.81-4.74-2.17-6.39-4.07
							c-0.52,0.82-0.99,1.65-1.43,2.47c-0.26,0.48-0.49,0.95-0.7,1.41C230.95,114.73,232.97,116.23,235.32,117.05z"/>
					</g>
				</g>
			</g>
			<g>
				<path class="st99" d="M238.87,129.22c0,1.12-1.3,2.03-2.91,2.03c-1.61,0-2.91-0.91-2.91-2.03c0-1.12,1.3-2.03,2.91-2.03
					C237.57,127.19,238.87,128.1,238.87,129.22z"/>
				<path class="st99" d="M253.09,129.22c0,1.12-1.3,2.03-2.91,2.03c-1.61,0-2.91-0.91-2.91-2.03c0-1.12,1.3-2.03,2.91-2.03
					C251.79,127.19,253.09,128.1,253.09,129.22z"/>
			</g>
			<g>
				<g>
					<path class="st100" d="M239.76,121.53c0,0-0.11-0.03-0.25-0.05c-0.13-0.04-0.38-0.04-0.65-0.07c-0.28,0.02-0.62-0.01-0.97,0.06
						c-0.18,0.03-0.36,0.05-0.55,0.08c-0.18,0.05-0.37,0.1-0.56,0.16c-0.19,0.06-0.38,0.09-0.56,0.17
						c-0.18,0.08-0.35,0.15-0.52,0.23c-0.17,0.07-0.33,0.14-0.49,0.21c-0.15,0.08-0.28,0.17-0.41,0.24
						c-0.51,0.31-0.86,0.51-0.86,0.51l-0.02,0.01c-0.07,0.04-0.17,0.02-0.21-0.05c-0.04-0.07-0.02-0.16,0.04-0.2
						c0,0,0.33-0.24,0.83-0.61c0.13-0.09,0.26-0.19,0.4-0.29c0.16-0.09,0.32-0.18,0.49-0.27c0.17-0.09,0.35-0.19,0.53-0.29
						c0.18-0.1,0.38-0.16,0.58-0.24c0.2-0.08,0.39-0.15,0.59-0.22c0.2-0.05,0.4-0.1,0.6-0.15c0.38-0.12,0.77-0.12,1.09-0.17
						c0.33,0,0.6-0.02,0.81,0.01c0.22,0.02,0.3,0.04,0.3,0.04l0.04,0.01c0.25,0.06,0.41,0.31,0.35,0.56
						c-0.06,0.25-0.31,0.41-0.56,0.35C239.78,121.53,239.77,121.53,239.76,121.53z"/>
				</g>
			</g>
			<g>
				<g>
					<path class="st100" d="M246.27,120.5c0,0,0.09-0.01,0.31,0c0.22,0,0.48,0.04,0.81,0.09c0.31,0.09,0.69,0.14,1.06,0.3
						c0.19,0.07,0.38,0.14,0.57,0.22c0.18,0.1,0.37,0.19,0.56,0.29c0.18,0.1,0.38,0.19,0.54,0.31c0.17,0.12,0.33,0.24,0.49,0.35
						c0.16,0.11,0.31,0.22,0.45,0.33c0.13,0.12,0.25,0.24,0.37,0.34c0.45,0.42,0.75,0.71,0.75,0.71c0.06,0.06,0.06,0.16,0.01,0.22
						c-0.05,0.06-0.14,0.06-0.2,0.02l-0.02-0.01c0,0-0.31-0.25-0.79-0.61c-0.12-0.09-0.24-0.19-0.38-0.29
						c-0.15-0.09-0.3-0.18-0.46-0.27c-0.16-0.09-0.32-0.19-0.49-0.29c-0.17-0.1-0.36-0.16-0.53-0.24c-0.18-0.07-0.36-0.15-0.54-0.22
						c-0.18-0.05-0.36-0.1-0.54-0.15c-0.34-0.12-0.68-0.12-0.96-0.17c-0.28-0.01-0.52-0.03-0.66-0.01c-0.14,0-0.25,0.02-0.25,0.02
						c-0.25,0.04-0.5-0.12-0.54-0.38c-0.04-0.25,0.12-0.5,0.38-0.54c0.01,0,0.02,0,0.03,0L246.27,120.5z"/>
				</g>
			</g>
			<path class="st101" d="M238.78,132.41c0,0,3.74,0.97,8.4,0c0,0-0.28,3.65-4.25,3.65C238.97,136.05,238.78,132.41,238.78,132.41z"
				/>
			<path class="st102" d="M241.42,135.83c0.43,0.14,0.93,0.22,1.51,0.22c1.12,0,1.94-0.3,2.55-0.71
				C244.25,134.54,242.67,134.63,241.42,135.83z"/>
			<path class="st9" d="M246.71,133.93c0.41-0.8,0.47-1.52,0.47-1.52c-4.66,0.32-8.4,0-8.4,0s0.04,0.72,0.43,1.52
				c0,0,1.28,0.32,3.82,0.32C245.57,134.25,246.71,133.93,246.71,133.93z"/>
			<path class="st103" d="M239.8,125.34c0,0.87-0.45,1.57-1.02,1.57c-0.56,0-1.02-0.7-1.02-1.57c0-0.87,0.45-1.57,1.02-1.57
				C239.34,123.77,239.8,124.48,239.8,125.34z"/>
			<path class="st103" d="M246.23,125.34c0,0.87,0.45,1.57,1.02,1.57c0.56,0,1.02-0.7,1.02-1.57c0-0.87-0.45-1.57-1.02-1.57
				C246.68,123.77,246.23,124.48,246.23,125.34z"/>
			<g>
				<g>
					<path class="st104" d="M242.72,125.16c0.11,0.43,0.24,0.84,0.28,1.3c0.01,0.11,0.02,0.23,0.01,0.35c0,0.12,0,0.24-0.03,0.35
						c-0.04,0.23-0.1,0.46-0.19,0.68l0,0.01l-0.02,0.03c-0.12,0.21-0.24,0.5-0.35,0.77c-0.05,0.14-0.09,0.27-0.14,0.41
						c-0.02,0.07-0.04,0.13-0.06,0.2l-0.03,0.15l0.01,0.11c0.01,0.02,0,0.03,0.01,0.06c0.01,0.05,0.03,0.1,0.06,0.14
						c0.06,0.09,0.15,0.18,0.27,0.26c0.23,0.16,0.52,0.26,0.81,0.37c-0.31,0.05-0.63,0.04-0.96-0.06c-0.16-0.06-0.33-0.13-0.46-0.28
						c-0.07-0.07-0.13-0.15-0.17-0.25c-0.02-0.05-0.04-0.11-0.06-0.16c-0.02-0.05-0.02-0.08-0.02-0.12c-0.01-0.12,0-0.21,0.01-0.3
						c0.01-0.08,0.02-0.17,0.04-0.25c0.03-0.16,0.08-0.31,0.13-0.47c0.11-0.31,0.22-0.58,0.42-0.89l-0.02,0.04
						c0.03-0.09,0.07-0.18,0.12-0.27c0.05-0.09,0.06-0.19,0.09-0.28c0.03-0.09,0.05-0.19,0.07-0.29c0.03-0.1,0.04-0.2,0.05-0.3
						C242.63,126.05,242.61,125.59,242.72,125.16z"/>
				</g>
			</g>
			<path class="st97" d="M246.47,142.48c0,0-1.51,4.56-3.6,5.27l4.94,3.95c0,0,2.5-4.53,1.29-7.16
				C249.1,144.54,248.99,142.53,246.47,142.48z"/>
			<g>
				<path class="st82" d="M256.37,164.07c0,0,0.69-3.46-3.64-4.57c0,0-0.46,0.71,0.81,2.07c0.9,0.97,1.69,1.76,2.26,2.18
					C256.03,163.93,256.22,164.04,256.37,164.07z"/>
			</g>
			<g>
				<path class="st105" d="M255.95,173.59c-0.68,0-1.33-0.37-1.66-1.02c-6.64-12.96-2.67-26.58-2.5-27.15
					c0.3-0.99,1.34-1.55,2.32-1.25c0.99,0.3,1.55,1.34,1.25,2.32c-0.05,0.16-3.68,12.81,2.25,24.38c0.47,0.92,0.11,2.04-0.81,2.51
					C256.53,173.53,256.24,173.59,255.95,173.59z"/>
			</g>
			<path class="st82" d="M255.53,166.75c-1.02-0.3-2.55-0.86-3.4-1.49c-1.1-0.82-2.64-2.03-2.46-3.55c0.06-0.53,0.21-1.02,0.49-1.47
				c0.3-0.48,0.77-0.93,1.32-0.76c0.86,0.27,1.52,0.91,2.17,1.51c0.63,0.57,1.45,0.91,2.1,1.47c0.68,0.58,1.13,2.16,1.02,2.39
				C256.66,165.08,255.53,166.75,255.53,166.75z"/>
			<g>
				<g>
					<path class="st82" d="M266.22,172.86c2.37,0.63,3.72,0.18,3.62-1.61c-0.08-1.5-1.98-3.78-1.98-3.78
						c-5.31-1.19-10.92-2.17-14.18-4.4c-3.65-2.5-1.37,2.08-1.37,2.08C256.87,168.42,259.13,170.32,266.22,172.86z"/>
				</g>
			</g>
		</g>
		<g>
			<polygon class="st106" points="150.73,135.72 142.47,134.03 143.76,135.35 105.06,135.16 104.85,94.84 106.42,96.05 
				104.62,87.92 103.03,96.2 104.34,94.89 104.68,135.15 98.65,135.13 98.64,135.5 104.68,135.55 104.72,140 105.09,140 
				105.07,135.55 143.81,135.86 142.58,137.41 			"/>
			<path class="st106" d="M111.79,112.23c0.49-1.54,1.08-3.05,1.76-4.51c0.17-0.36,0.34-0.73,0.52-1.09l0.56-1.07
				c0.37-0.71,0.79-1.39,1.26-2.03c0.92-1.27,2.06-2.42,3.45-3.01c0.69-0.29,1.43-0.44,2.16-0.39c0.73,0.05,1.45,0.27,2.12,0.62
				c1.33,0.71,2.43,1.89,3.17,3.24c0.74,1.37,1.16,2.92,1.43,4.5c0.28,1.58,0.44,3.21,0.72,4.84c0.27,1.62,0.61,3.24,1.08,4.82
				c0.46,1.59,1.04,3.14,1.77,4.63c0.73,1.48,1.59,2.92,2.69,4.19c1.09,1.26,2.44,2.36,4.02,2.99c1.56,0.63,3.35,0.83,4.99,0.32
				l-0.17-0.55c-1.5,0.44-3.14,0.25-4.59-0.36c-1.46-0.6-2.71-1.64-3.73-2.85c-1.03-1.22-1.84-2.62-2.54-4.06
				c-0.69-1.45-1.24-2.97-1.67-4.53c-0.44-1.55-0.75-3.14-1-4.74c-0.25-1.6-0.39-3.22-0.67-4.86c-0.27-1.63-0.67-3.28-1.46-4.81
				c-0.79-1.53-2-2.85-3.55-3.7c-0.78-0.4-1.66-0.67-2.56-0.71c-0.9-0.05-1.8,0.14-2.61,0.49c-1.63,0.72-2.85,2.01-3.82,3.38
				c-0.48,0.69-0.92,1.41-1.3,2.14l-0.57,1.1c-0.18,0.37-0.35,0.75-0.52,1.13c-0.67,1.51-1.25,3.06-1.73,4.63
				c-1.95,6.31-2.58,12.88-3.21,19.36l0.57,0.06C109.05,124.93,109.78,118.4,111.79,112.23z"/>
			<path class="st106" d="M150.69,142.58l-1-2.61c0.39-0.84,0.74-1.7,1.05-2.58l-0.5-0.17c-0.24,0.69-0.52,1.38-0.82,2.05
				l-0.71-1.86l-0.49,0.19l0.91,2.36c-0.43,0.92-0.91,1.82-1.43,2.7l0.45,0.27c0.45-0.75,0.85-1.52,1.23-2.3l0.82,2.14
				L150.69,142.58z"/>
			<polygon class="st106" points="100.88,94.17 101.39,94.3 103.25,87.29 102.75,87.16 101.93,90.21 100.3,87.44 99.84,87.71 
				101.74,90.92 			"/>
		</g>
		<g>
			<g>
				<g>
					<path class="st106" d="M163.57,95.5c-0.16,0-0.33-0.08-0.42-0.24l-2.64-4.48c-0.14-0.23-0.06-0.53,0.17-0.66
						c0.23-0.14,0.53-0.06,0.66,0.17l2.64,4.48c0.14,0.23,0.06,0.53-0.17,0.66C163.74,95.48,163.65,95.5,163.57,95.5z"/>
				</g>
				<g>
					<path class="st106" d="M161.18,100.55c-0.07,0-0.13-0.01-0.2-0.04c-0.24-0.11-0.35-0.39-0.24-0.64l4.39-9.79
						c0.11-0.24,0.4-0.35,0.64-0.24c0.24,0.11,0.35,0.39,0.24,0.64l-4.39,9.79C161.54,100.44,161.37,100.55,161.18,100.55z"/>
				</g>
				<g>
					<path class="st106" d="M171.2,94.7h-3.69c-0.27,0-0.48-0.22-0.48-0.48c0-0.27,0.22-0.48,0.48-0.48h3.69
						c0.27,0,0.48,0.22,0.48,0.48C171.68,94.49,171.46,94.7,171.2,94.7z"/>
				</g>
				<g>
					<path class="st106" d="M171.73,96.39h-4.35c-0.27,0-0.48-0.22-0.48-0.48c0-0.27,0.22-0.48,0.48-0.48h4.35
						c0.27,0,0.48,0.22,0.48,0.48C172.22,96.17,172,96.39,171.73,96.39z"/>
				</g>
				<g>
					<path class="st106" d="M177.36,100.55c-0.17,0-0.33-0.09-0.42-0.25l-4.77-8.55c-0.13-0.23-0.05-0.53,0.19-0.66
						c0.23-0.13,0.53-0.05,0.66,0.19l4.77,8.55c0.13,0.23,0.05,0.53-0.19,0.66C177.52,100.53,177.44,100.55,177.36,100.55z"/>
				</g>
				<g>
					<path class="st106" d="M172.52,99.82c-0.07,0-0.15-0.02-0.22-0.05c-0.24-0.12-0.33-0.41-0.21-0.65l4.3-8.44
						c0.12-0.24,0.41-0.33,0.65-0.21c0.24,0.12,0.33,0.41,0.21,0.65l-4.3,8.44C172.87,99.73,172.7,99.82,172.52,99.82z"/>
				</g>
				<g>
					<path class="st106" d="M178.64,93.14c-0.11,0-0.21-0.04-0.3-0.1c-0.11-0.08-0.18-0.21-0.19-0.35c-0.06-0.91,0.4-1.81,1.17-2.29
						c0.11-0.07,0.24-0.14,0.37-0.2c0.34-0.17,0.55-0.29,0.59-0.47c0.03-0.1-0.01-0.26-0.05-0.42c-0.12-0.47-0.42-0.93-0.64-0.99
						c-0.11-0.03-0.26,0.1-0.36,0.21c-0.16,0.17-0.26,0.45-0.3,0.81c-0.03,0.26-0.26,0.46-0.53,0.43c-0.26-0.03-0.46-0.27-0.43-0.53
						c0.06-0.57,0.25-1.03,0.54-1.35c0.5-0.55,0.99-0.57,1.31-0.49c0.68,0.17,1.17,0.97,1.34,1.69c0.06,0.26,0.13,0.56,0.05,0.88
						c-0.15,0.63-0.7,0.9-1.1,1.1c-0.1,0.05-0.21,0.1-0.3,0.16c-0.31,0.2-0.55,0.52-0.66,0.87c0.83-0.11,1.67-0.13,2.51-0.07
						c0.27,0.02,0.46,0.25,0.45,0.52c-0.02,0.27-0.25,0.46-0.52,0.45c-0.97-0.07-1.94-0.02-2.9,0.15
						C178.7,93.14,178.67,93.14,178.64,93.14z"/>
				</g>
			</g>
			<g>
				<path class="st106" d="M199.43,100.45c-0.2,0-0.39-0.13-0.46-0.33c-0.13-0.4-0.19-0.81-0.18-1.22
					c-0.23-1.45-0.56-2.97-1.33-4.23c-0.83-1.36-2.54-2.66-4.33-2.27c-0.82,0.18-1.58,0.9-1.88,1.79c-0.24,0.71-0.15,1.39,0.25,1.88
					c0.17,0.2,0.15,0.51-0.06,0.68c-0.2,0.17-0.51,0.14-0.68-0.06c-0.63-0.75-0.78-1.77-0.43-2.81c0.42-1.22,1.44-2.17,2.59-2.42
					c2.24-0.49,4.35,1.07,5.35,2.71c0.51,0.84,0.85,1.76,1.09,2.69c0.39-0.66,0.96-1.21,1.66-1.55c1.73-0.83,3.99-0.19,5.03,1.43
					c0.09,0.14,0.18,0.29,0.26,0.45c0.23,0.41,0.44,0.79,0.77,0.91c0.65,0.25,1.35-0.63,1.76-1.45c0.81-1.63,1.84-2.36,2.89-2.05
					c0.78,0.23,1.15,0.92,1.48,1.52c0.25,0.47,0.49,0.91,0.86,1.07c0.5,0.21,1.15-0.17,1.59-0.6c0.14-0.14,0.28-0.28,0.41-0.43
					c0.43-0.46,0.88-0.94,1.51-1.21c1.07-0.45,2.24-0.11,3.14,0.24l0.33,0.13c0.76,0.3,1.49,0.59,2.21,0.53
					c0.43-0.04,0.87-0.27,1.13-0.6c0.11-0.15,0.24-0.39,0.19-0.67c-0.05-0.26,0.13-0.51,0.39-0.56c0.26-0.05,0.51,0.13,0.56,0.39
					c0.09,0.49-0.04,1-0.37,1.43c-0.42,0.55-1.11,0.92-1.81,0.98c-0.95,0.08-1.81-0.26-2.64-0.59l-0.32-0.13
					c-0.73-0.28-1.67-0.57-2.42-0.25c-0.44,0.19-0.8,0.57-1.18,0.98c-0.15,0.16-0.29,0.31-0.44,0.46c-0.86,0.83-1.84,1.13-2.64,0.79
					c-0.68-0.29-1.03-0.93-1.34-1.5c-0.27-0.51-0.51-0.94-0.9-1.06c-0.77-0.23-1.48,1.01-1.75,1.55c-0.79,1.59-1.93,2.32-2.97,1.92
					c-0.65-0.25-0.97-0.83-1.26-1.34c-0.08-0.14-0.15-0.27-0.23-0.4c-0.77-1.2-2.52-1.69-3.81-1.08c-0.99,0.47-1.64,1.57-1.69,2.67
					c0.05,0.36,0.1,0.71,0.15,1.05c0.03,0.25-0.13,0.48-0.37,0.54C199.51,100.45,199.47,100.45,199.43,100.45z"/>
			</g>
			<g>
				<path class="st106" d="M194.63,114.01c-0.08,0-0.17-0.02-0.24-0.07c-0.23-0.13-0.31-0.43-0.17-0.66
					c1.1-1.88,2.66-4.04,4.97-3.97c1.49,0.04,2.68,1.03,3.73,1.91c0.15,0.13,0.3,0.25,0.46,0.38c0.66,0.53,2.34,1.7,3.62,0.97
					c0.47-0.27,0.86-0.78,1.25-1.28c0.63-0.82,1.35-1.75,2.53-1.67c0.6,0.04,1.09,0.36,1.52,0.64l0.17,0.11
					c2.25,1.42,5.16,1.67,7.62,0.65c0.25-0.1,0.53,0.01,0.63,0.26c0.1,0.25-0.01,0.53-0.26,0.63c-2.74,1.15-6,0.87-8.51-0.72
					l-0.18-0.12c-0.37-0.24-0.72-0.46-1.07-0.49c-0.62-0.04-1.06,0.46-1.7,1.29c-0.44,0.58-0.9,1.17-1.54,1.54
					c-1.27,0.72-2.98,0.33-4.7-1.06c-0.15-0.13-0.31-0.25-0.47-0.38c-0.98-0.81-1.99-1.65-3.14-1.69c-1.8-0.04-3.14,1.84-4.11,3.49
					C194.96,113.92,194.8,114.01,194.63,114.01z"/>
			</g>
			<g>
				<path class="st106" d="M184.99,118.06h-25.45c-0.27,0-0.48-0.22-0.48-0.48c0-0.27,0.22-0.48,0.48-0.48h25.45
					c0.27,0,0.48,0.22,0.48,0.48C185.47,117.85,185.26,118.06,184.99,118.06z"/>
			</g>
			<g>
				<path class="st106" d="M169.64,128.43c-0.23,0-0.44-0.17-0.48-0.41l-2.79-18.1c-0.04-0.26,0.14-0.51,0.4-0.55
					c0.26-0.04,0.51,0.14,0.55,0.4l2.79,18.1c0.04,0.26-0.14,0.51-0.4,0.55C169.69,128.42,169.66,128.43,169.64,128.43z"/>
			</g>
			<g>
				<path class="st106" d="M177.3,127c-0.02,0-0.05,0-0.07,0c-0.26-0.04-0.45-0.28-0.41-0.55c0.85-5.84,1.41-11.79,1.67-17.68
					c0.01-0.27,0.24-0.47,0.5-0.46c0.27,0.01,0.47,0.24,0.46,0.5c-0.26,5.93-0.83,11.91-1.68,17.78
					C177.75,126.83,177.54,127,177.3,127z"/>
			</g>
			<g>
				<path class="st106" d="M164.4,116.05c-0.16,0-0.32-0.08-0.41-0.23l-3.11-4.97c-0.14-0.23-0.07-0.52,0.15-0.66
					c0.23-0.14,0.52-0.07,0.66,0.15l3.11,4.97c0.14,0.23,0.07,0.52-0.15,0.66C164.57,116.03,164.49,116.05,164.4,116.05z"/>
			</g>
			<g>
				<path class="st106" d="M160.92,115.8c-0.09,0-0.18-0.03-0.27-0.08c-0.22-0.15-0.28-0.45-0.13-0.67l3.48-5.23
					c0.15-0.22,0.45-0.28,0.67-0.13c0.22,0.15,0.28,0.45,0.13,0.67l-3.48,5.23C161.23,115.72,161.07,115.8,160.92,115.8z"/>
			</g>
			<g>
				<path class="st106" d="M164.16,124.3c-0.14,0-0.27-0.06-0.37-0.17c-0.9-1.06-1.89-2.06-2.96-2.96c-0.2-0.17-0.23-0.48-0.06-0.68
					c0.17-0.2,0.48-0.23,0.68-0.06c1.11,0.94,2.14,1.97,3.07,3.08c0.17,0.2,0.15,0.51-0.06,0.68
					C164.38,124.26,164.27,124.3,164.16,124.3z"/>
			</g>
			<g>
				<path class="st106" d="M162.07,128.8c-0.07,0-0.14-0.02-0.21-0.05c-0.24-0.12-0.34-0.4-0.22-0.64c1.16-2.4,2.1-4.92,2.78-7.49
					c0.07-0.26,0.33-0.41,0.59-0.34c0.26,0.07,0.41,0.33,0.34,0.59c-0.7,2.64-1.65,5.22-2.84,7.67
					C162.43,128.7,162.25,128.8,162.07,128.8z"/>
			</g>
			<g>
				<path class="st106" d="M167.96,153.88c-0.18,0-0.35-0.03-0.52-0.08c-0.25-0.09-0.39-0.36-0.3-0.61c0.09-0.25,0.36-0.39,0.61-0.3
					c0.37,0.13,0.81-0.12,1.05-0.42c0.31-0.39,0.44-0.93,0.53-1.45c0.34-1.91,0.28-3.92-0.15-5.81c-0.19-0.82-0.46-1.65-0.71-2.45
					c-0.46-1.43-0.93-2.9-1.02-4.45c-0.08-1.38,0.17-2.79,0.7-4.06c0.1-0.25,0.39-0.36,0.63-0.26c0.25,0.1,0.36,0.39,0.26,0.63
					c-0.48,1.14-0.7,2.4-0.63,3.64c0.08,1.42,0.51,2.77,0.98,4.2c0.26,0.82,0.54,1.67,0.74,2.53c0.46,2.01,0.52,4.15,0.16,6.19
					c-0.11,0.65-0.28,1.32-0.72,1.88C169.15,153.58,168.54,153.88,167.96,153.88z"/>
			</g>
			<g>
				<path class="st106" d="M177.68,151.22c-0.19,0-0.37-0.12-0.45-0.3c-0.41-1.03-0.69-1.99-0.96-2.92c-0.24-0.84-0.49-1.7-0.84-2.6
					l-3.36-0.88c-0.26-0.07-0.41-0.33-0.34-0.59c0.07-0.26,0.34-0.41,0.59-0.34l3.6,0.95c0.15,0.04,0.27,0.15,0.33,0.29
					c0.19,0.48,0.36,0.95,0.5,1.41c-0.49-4.34-1.14-8.68-1.96-12.95c-0.03-0.14,0.01-0.28,0.09-0.39c0.08-0.11,0.21-0.18,0.35-0.19
					c5.94-0.39,11.9-1.27,17.7-2.63c0.15-0.03,0.32,0.01,0.43,0.11c0.12,0.11,0.18,0.26,0.16,0.42l-0.52,4.11
					c-0.03,0.26-0.27,0.45-0.54,0.42c-0.26-0.03-0.45-0.28-0.42-0.54l0.43-3.43c-5.46,1.24-11.05,2.07-16.63,2.46
					c1.05,5.63,1.83,11.37,2.32,17.07c0.02,0.24-0.14,0.45-0.37,0.51C177.75,151.21,177.72,151.22,177.68,151.22z"/>
			</g>
			<g>
				<path class="st106" d="M194.52,145.65h-14.87c-0.27,0-0.48-0.22-0.48-0.48c0-0.27,0.22-0.48,0.48-0.48h14.87
					c0.27,0,0.48,0.22,0.48,0.48C195,145.43,194.79,145.65,194.52,145.65z"/>
			</g>
			<g>
				<path class="st106" d="M183,143.11c-0.86,0-1.71-0.1-2.55-0.29c-0.26-0.06-0.42-0.32-0.36-0.58c0.06-0.26,0.32-0.42,0.58-0.36
					c0.92,0.21,1.86,0.3,2.8,0.26c0.38-0.02,0.8-0.07,1.04-0.3c0.21-0.2,0.28-0.58,0.19-0.96c-0.14-0.58-0.61-1.07-1.17-1.2
					c-0.56-0.14-1.19,0.1-1.5,0.57c-0.12,0.18-0.34,0.26-0.54,0.2c-0.2-0.06-0.34-0.25-0.34-0.46l-0.01-2.78
					c0-0.27,0.21-0.48,0.48-0.48c0.6-0.01,1.15,0.05,1.69,0.1c0.54,0.05,1.05,0.1,1.59,0.09c0,0,0,0,0,0c0.26,0,0.48,0.21,0.48,0.48
					c0,0.27-0.21,0.48-0.48,0.49c-0.6,0.01-1.15-0.05-1.69-0.1c-0.38-0.04-0.74-0.07-1.11-0.08l0,1.25c0.5-0.25,1.09-0.33,1.65-0.2
					c0.9,0.22,1.66,0.99,1.88,1.91c0.17,0.72,0,1.43-0.45,1.87c-0.47,0.46-1.14,0.55-1.67,0.57
					C183.34,143.11,183.17,143.11,183,143.11z"/>
			</g>
			<g>
				<path class="st106" d="M189.91,142.28c-0.16,0-0.31-0.07-0.4-0.21l-2.97-4.43c-0.15-0.22-0.09-0.52,0.13-0.67
					c0.22-0.15,0.52-0.09,0.67,0.13l2.97,4.43c0.15,0.22,0.09,0.52-0.13,0.67C190.1,142.26,190.01,142.28,189.91,142.28z"/>
			</g>
			<g>
				<path class="st106" d="M187.05,143.27c-0.05,0-0.11-0.01-0.16-0.03c-0.25-0.09-0.38-0.37-0.29-0.62
					c0.73-2.02,1.68-3.96,2.82-5.77c0.14-0.23,0.44-0.29,0.67-0.15c0.23,0.14,0.29,0.44,0.15,0.67c-1.11,1.75-2.03,3.63-2.73,5.58
					C187.43,143.14,187.25,143.27,187.05,143.27z"/>
			</g>
			<g>
				<path class="st106" d="M188.22,152.02c-0.12,0-0.24-0.04-0.33-0.13l-4.06-3.9c-0.19-0.18-0.2-0.49-0.01-0.68
					c0.18-0.19,0.49-0.2,0.68-0.01l4.06,3.9c0.19,0.18,0.2,0.49,0.01,0.68C188.47,151.97,188.35,152.02,188.22,152.02z"/>
			</g>
			<g>
				<path class="st106" d="M185.19,156.42c-0.09,0-0.18-0.03-0.27-0.08c-0.22-0.15-0.28-0.45-0.14-0.67
					c1.63-2.46,3.11-5.06,4.4-7.71c0.12-0.24,0.4-0.34,0.64-0.22c0.24,0.12,0.34,0.41,0.22,0.64c-1.31,2.69-2.81,5.32-4.46,7.82
					C185.5,156.35,185.35,156.42,185.19,156.42z"/>
			</g>
			<g>
				<path class="st106" d="M110.75,158.14c-0.01,0-0.02,0-0.04,0c-0.26-0.02-0.45-0.24-0.45-0.49c0.01-0.3,0.04-0.61,0.1-0.92
					c0.08-0.77,0.11-1.54,0-2.29c-0.17-1.08-0.67-1.98-1.39-2.46c-0.77-0.52-1.86-0.48-2.44,0.09c-0.29,0.28-0.42,0.76-0.34,1.21
					c0.03,0.18,0.1,0.35,0.19,0.48l0.21-0.43c0.12-0.24,0.41-0.34,0.65-0.22c0.24,0.12,0.34,0.41,0.22,0.65l-0.48,0.97
					c-0.12,0.23-0.4,0.33-0.63,0.22c-0.58-0.27-0.98-0.82-1.1-1.51c-0.13-0.76,0.1-1.56,0.61-2.06c0.9-0.89,2.5-0.98,3.65-0.2
					c0.94,0.63,1.59,1.76,1.8,3.11c0.01,0.08,0.02,0.16,0.03,0.24c0.38-0.47,0.87-0.86,1.46-1.09c0.75-0.29,1.65-0.22,2.41,0.18
					c0.15-0.4,0.4-0.75,0.72-1c1.09-0.88,2.84-0.7,3.81,0.4c0.16,0.18,0.3,0.38,0.41,0.6c0.64-0.65,1.49-1.03,2.32-1
					c0.96,0.02,1.91,0.54,2.54,1.39c0.15,0.21,0.28,0.43,0.38,0.65c0.36-0.34,0.8-0.56,1.26-0.63c0.6-0.08,1.25,0.1,1.77,0.5
					c0.25,0.19,0.45,0.42,0.6,0.68c1.12-1.27,2.32-1.93,3.56-1.97c1-0.02,2.08,0.58,2.65,1.5c0.45,0.74,0.5,1.56,0.12,2.24
					c-0.13,0.23-0.42,0.32-0.66,0.19c-0.23-0.13-0.32-0.42-0.19-0.66c0.28-0.51,0.06-1.02-0.1-1.28c-0.38-0.63-1.12-1.07-1.8-1.04
					c-1.42,0.04-2.62,1.25-3.37,2.26c-0.12,0.16-0.32,0.23-0.51,0.18c-0.19-0.05-0.33-0.22-0.35-0.41
					c-0.04-0.35-0.24-0.69-0.55-0.94c-0.31-0.24-0.69-0.36-1.04-0.31c-0.35,0.05-0.68,0.26-0.92,0.58c-0.07,0.1-0.13,0.2-0.18,0.31
					c0.02,0.33-0.02,0.65-0.11,0.96c-0.06,0.22-0.27,0.36-0.49,0.35c-0.22-0.01-0.41-0.18-0.45-0.4c-0.06-0.34-0.03-0.69,0.07-1.03
					c-0.05-0.41-0.22-0.81-0.48-1.18c-0.45-0.61-1.12-0.99-1.78-1c-0.66-0.03-1.34,0.34-1.81,0.93c-0.05,0.07-0.1,0.14-0.15,0.2
					c0.09,0.71-0.04,1.46-0.4,2.12c-0.09,0.17-0.29,0.27-0.48,0.25c-0.2-0.02-0.36-0.17-0.41-0.36c-0.18-0.71-0.07-1.48,0.27-2.17
					c-0.08-0.33-0.24-0.64-0.46-0.89c-0.62-0.7-1.81-0.84-2.49-0.29c-0.25,0.2-0.43,0.52-0.49,0.87c0.5,0.53,0.73,1.18,0.64,1.85
					c-0.02,0.17-0.13,0.32-0.29,0.38c-0.16,0.07-0.34,0.04-0.48-0.06c-0.53-0.4-0.84-1.04-0.86-1.77c-0.57-0.4-1.31-0.52-1.89-0.3
					c-1.02,0.4-1.62,1.45-1.84,2.51c-0.03,0.29-0.06,0.58-0.1,0.87C111.2,157.96,110.99,158.14,110.75,158.14z"/>
			</g>
			<g>
				<path class="st106" d="M116.76,164.79c-0.08,0-0.16-0.01-0.23-0.03c-0.13-0.03-0.23-0.11-0.3-0.22
					c-0.07-0.11-0.08-0.24-0.05-0.37c0.48-1.78,2.1-3.19,3.93-3.43c1.58-0.21,3.23,0.47,4.25,1.68c0.95-1.15,2.68-1.65,4.07-1.08
					c0.2,0.08,0.41,0.19,0.61,0.29c0.5,0.26,0.92,0.48,1.29,0.35c0.15-0.05,0.3-0.17,0.45-0.29c0.15-0.12,0.33-0.26,0.53-0.36
					c0.95-0.47,1.94-0.05,2.81,0.32c0.79,0.34,1.47,0.63,1.99,0.32c0.23-0.13,0.53-0.06,0.66,0.17c0.13,0.23,0.06,0.53-0.17,0.66
					c-0.95,0.55-1.97,0.12-2.86-0.27c-0.75-0.32-1.45-0.62-2-0.35c-0.12,0.06-0.24,0.16-0.37,0.26c-0.2,0.16-0.43,0.34-0.73,0.44
					c-0.76,0.27-1.45-0.09-2.05-0.41c-0.18-0.09-0.36-0.19-0.53-0.26c-1.18-0.49-2.7,0.1-3.25,1.25c-0.08,0.16-0.24,0.27-0.42,0.27
					c-0.18,0.02-0.35-0.08-0.44-0.24c-0.74-1.27-2.27-2.01-3.73-1.83c-1.06,0.14-2.02,0.77-2.62,1.65c0.11,0.08,0.18,0.21,0.19,0.36
					c0.02,0.32-0.12,0.63-0.38,0.85C117.23,164.7,116.99,164.79,116.76,164.79z"/>
			</g>
		</g>
		<g>
			<g>
				<path class="st106" d="M63.21,128.62c-1.64,0-3.22-0.24-4.68-0.71c-3.21-1.05-5.71-3.37-7.04-6.54l-0.05-0.12l0.07-0.11
					c5.67-8.94,11.91-17.65,18.54-25.9l0.36-0.45l0.06,0.58c0.52,4.68,0.99,9.41,1.45,13.98c0.46,4.57,0.93,9.29,1.45,13.97l0,0
					c0.26,2.31-3.05,3.95-4.83,4.49C66.78,128.34,64.96,128.62,63.21,128.62z M51.99,121.29c1.29,2.98,3.66,5.16,6.69,6.16
					c2.92,0.96,6.38,0.92,9.74-0.11c1.84-0.56,4.69-2.14,4.49-3.98l0,0c-0.52-4.68-0.99-9.41-1.45-13.98
					c-0.44-4.38-0.89-8.9-1.39-13.4C63.61,104.06,57.53,112.57,51.99,121.29z"/>
			</g>
			<g>
				<path class="st106" d="M72.58,123.44c-0.04,0-0.09-0.02-0.12-0.05c-0.58-0.52-1.22-1-1.9-1.42c-0.09-0.05-0.11-0.16-0.06-0.25
					c0.05-0.08,0.16-0.11,0.25-0.06c0.7,0.43,1.36,0.93,1.95,1.46c0.07,0.07,0.08,0.18,0.01,0.26
					C72.68,123.42,72.63,123.44,72.58,123.44z M52.03,121.53c-0.07,0-0.14-0.05-0.17-0.12c-0.03-0.09,0.01-0.2,0.11-0.23
					c0.78-0.28,1.56-0.54,2.3-0.76c0.1-0.03,0.2,0.03,0.22,0.12c0.03,0.1-0.03,0.2-0.12,0.22c-0.74,0.22-1.5,0.47-2.28,0.75
					C52.07,121.53,52.05,121.53,52.03,121.53z M69.39,121.3c-0.03,0-0.05-0.01-0.08-0.02c-0.7-0.34-1.45-0.64-2.22-0.88
					c-0.1-0.03-0.15-0.13-0.12-0.23c0.03-0.1,0.13-0.15,0.23-0.12c0.79,0.24,1.55,0.55,2.27,0.9c0.09,0.04,0.13,0.15,0.08,0.24
					C69.52,121.26,69.46,121.3,69.39,121.3z M55.72,120.4c-0.08,0-0.15-0.06-0.18-0.14c-0.02-0.1,0.04-0.19,0.13-0.22
					c0.8-0.2,1.6-0.36,2.38-0.48c0.1-0.02,0.19,0.05,0.21,0.15c0.02,0.1-0.05,0.19-0.15,0.21c-0.76,0.12-1.55,0.28-2.35,0.48
					C55.75,120.4,55.73,120.4,55.72,120.4z M65.75,120.04c-0.01,0-0.03,0-0.04,0c-0.77-0.17-1.56-0.29-2.36-0.35
					c-0.1-0.01-0.17-0.1-0.17-0.19c0.01-0.1,0.09-0.18,0.19-0.17c0.81,0.07,1.62,0.19,2.41,0.36c0.1,0.02,0.16,0.12,0.14,0.22
					C65.91,119.98,65.83,120.04,65.75,120.04z M59.51,119.73c-0.09,0-0.17-0.07-0.18-0.16c-0.01-0.1,0.06-0.19,0.16-0.2
					c0.76-0.08,1.52-0.12,2.25-0.12l0.17,0c0.1,0,0.18,0.08,0.18,0.18c0,0.1-0.09,0.2-0.18,0.18l-0.17,0
					c-0.72,0-1.47,0.04-2.22,0.11C59.53,119.73,59.52,119.73,59.51,119.73z"/>
			</g>
			<g>
				<path class="st106" d="M59.43,136.24c-0.02,0-0.03,0-0.05-0.01c-0.1-0.03-0.15-0.12-0.13-0.22l0.61-2.33
					c0.03-0.1,0.13-0.15,0.22-0.13c0.1,0.03,0.15,0.12,0.13,0.22l-0.61,2.33C59.59,136.19,59.51,136.24,59.43,136.24z M60.42,132.51
					c-0.02,0-0.03,0-0.05-0.01c-0.1-0.03-0.15-0.12-0.13-0.22l0.61-2.33c0.03-0.1,0.12-0.15,0.22-0.13c0.1,0.03,0.15,0.12,0.13,0.22
					l-0.61,2.33C60.57,132.46,60.5,132.51,60.42,132.51z M61.4,128.78c-0.02,0-0.03,0-0.05-0.01c-0.1-0.03-0.15-0.12-0.13-0.22
					l0.61-2.33c0.03-0.1,0.12-0.15,0.22-0.13c0.1,0.03,0.15,0.12,0.13,0.22l-0.61,2.33C61.55,128.72,61.48,128.78,61.4,128.78z
					 M62.38,125.05c-0.02,0-0.03,0-0.05-0.01c-0.1-0.03-0.15-0.12-0.13-0.22l0.61-2.33c0.03-0.1,0.13-0.15,0.22-0.13
					c0.1,0.03,0.15,0.12,0.13,0.22l-0.61,2.33C62.54,124.99,62.46,125.05,62.38,125.05z M63.37,121.32c-0.02,0-0.03,0-0.05-0.01
					c-0.1-0.03-0.15-0.12-0.13-0.22l0.61-2.33c0.03-0.1,0.12-0.16,0.22-0.13c0.1,0.03,0.15,0.12,0.13,0.22l-0.61,2.33
					C63.52,121.26,63.45,121.32,63.37,121.32z M64.35,117.58c-0.02,0-0.03,0-0.05-0.01c-0.1-0.03-0.15-0.12-0.13-0.22l0.61-2.33
					c0.03-0.1,0.12-0.15,0.22-0.13c0.1,0.03,0.15,0.12,0.13,0.22l-0.61,2.33C64.5,117.53,64.43,117.58,64.35,117.58z M65.33,113.85
					c-0.02,0-0.03,0-0.05-0.01c-0.1-0.03-0.15-0.12-0.13-0.22l0.61-2.33c0.03-0.1,0.12-0.15,0.22-0.13c0.1,0.03,0.15,0.12,0.13,0.22
					l-0.61,2.33C65.49,113.8,65.41,113.85,65.33,113.85z M66.32,110.12c-0.02,0-0.03,0-0.05-0.01c-0.1-0.03-0.15-0.12-0.13-0.22
					l0.61-2.33c0.03-0.1,0.12-0.15,0.22-0.13c0.1,0.03,0.15,0.12,0.13,0.22l-0.61,2.33C66.47,110.07,66.4,110.12,66.32,110.12z
					 M67.3,106.39c-0.02,0-0.03,0-0.05-0.01c-0.1-0.03-0.15-0.12-0.13-0.22l0.61-2.33c0.03-0.1,0.12-0.15,0.22-0.13
					c0.1,0.03,0.15,0.12,0.13,0.22l-0.61,2.33C67.45,106.34,67.38,106.39,67.3,106.39z M68.28,102.66c-0.02,0-0.03,0-0.05-0.01
					c-0.1-0.03-0.15-0.12-0.13-0.22l0.61-2.33c0.03-0.1,0.13-0.15,0.22-0.13c0.1,0.03,0.15,0.12,0.13,0.22l-0.61,2.33
					C68.44,102.61,68.36,102.66,68.28,102.66z M69.27,98.93c-0.02,0-0.03,0-0.05-0.01c-0.1-0.03-0.15-0.12-0.13-0.22l0.61-2.33
					c0.03-0.1,0.12-0.15,0.22-0.13c0.1,0.03,0.15,0.12,0.13,0.22l-0.61,2.33C69.42,98.88,69.35,98.93,69.27,98.93z M70.25,95.2
					c-0.02,0-0.03,0-0.05-0.01c-0.1-0.03-0.15-0.12-0.13-0.22l0.61-2.33c0.03-0.1,0.12-0.15,0.22-0.13c0.1,0.03,0.15,0.12,0.13,0.22
					l-0.61,2.33C70.4,95.14,70.33,95.2,70.25,95.2z"/>
			</g>
		</g>
		<g>
			<g>
				<path class="st106" d="M84.3,114.03c-0.17,0-0.35-0.01-0.53-0.04c-0.76-0.12-1.63-0.65-1.85-1.54c-0.06-0.26,0.1-0.52,0.35-0.58
					c0.26-0.06,0.52,0.1,0.58,0.35c0.11,0.46,0.63,0.75,1.06,0.82c0.55,0.09,1.15-0.05,1.76-0.2c0.57-0.15,1.26-0.42,1.3-0.87
					c0.03-0.29-0.2-0.62-0.7-1.01c-0.68-0.53-1.41-1-2.19-1.39l-0.05-0.02c-0.81-0.41-1.81-0.91-2-1.96
					c-0.08-0.48,0.05-0.97,0.37-1.39c0.4-0.52,1.05-0.88,1.7-0.94c1.06-0.1,2.04,0.39,2.83,0.78c0.24,0.12,0.34,0.41,0.22,0.65
					c-0.12,0.24-0.41,0.34-0.65,0.22c-0.86-0.43-1.58-0.75-2.31-0.68c-0.39,0.04-0.79,0.26-1.03,0.56
					c-0.11,0.14-0.23,0.37-0.18,0.64c0.1,0.57,0.83,0.94,1.48,1.26l0.05,0.02c0.83,0.42,1.62,0.92,2.35,1.49
					c0.29,0.23,1.16,0.91,1.06,1.87c-0.08,0.81-0.76,1.38-2.02,1.71C85.38,113.91,84.85,114.03,84.3,114.03z"/>
			</g>
			<g>
				<path class="st106" d="M90.96,112.44c-0.17,0-0.34-0.09-0.42-0.25c-0.79-1.44-1.11-3.12-0.89-4.75
					c0.03-0.26,0.28-0.45,0.54-0.41c0.26,0.03,0.45,0.28,0.41,0.54c-0.19,1.42,0.09,2.9,0.78,4.16c0.13,0.23,0.04,0.53-0.19,0.65
					C91.12,112.42,91.04,112.44,90.96,112.44z"/>
			</g>
			<g>
				<path class="st106" d="M97.52,113.04c-0.24,0-0.45-0.19-0.48-0.43c-0.15-1.53-0.71-3-1.62-4.24c-0.28-0.38-0.57-0.59-0.75-0.54
					c-0.14,0.04-0.27,0.23-0.4,0.55c-0.33,0.84-0.48,1.75-0.45,2.66l0.15,1.17c0.03,0.26-0.14,0.49-0.4,0.54
					c-0.26,0.04-0.5-0.12-0.55-0.37c-0.09-0.41-0.14-0.83-0.16-1.25l-0.67-5.41c-0.03-0.26,0.15-0.51,0.42-0.54
					c0.26-0.03,0.51,0.15,0.54,0.42l0.29,2.3c0.13-0.3,0.41-0.83,0.97-0.99c0.62-0.18,1.26,0.14,1.8,0.9c1,1.38,1.62,3.01,1.8,4.71
					c0.03,0.27-0.17,0.5-0.43,0.53C97.55,113.04,97.53,113.04,97.52,113.04z"/>
			</g>
			<g>
				<path class="st106" d="M84.79,125.22c-0.39,0-0.78-0.06-1.15-0.2c-1.73-0.64-2.74-2.73-2.16-4.48c0.58-1.75,2.63-2.84,4.4-2.32
					c0.26,0.07,0.4,0.34,0.33,0.6c-0.07,0.26-0.34,0.4-0.6,0.33c-1.27-0.37-2.8,0.44-3.22,1.7c-0.41,1.26,0.34,2.82,1.58,3.28
					c1.24,0.46,2.83-0.24,3.33-1.47c0.1-0.25,0.38-0.36,0.63-0.26c0.25,0.1,0.36,0.38,0.26,0.63
					C87.65,124.35,86.22,125.22,84.79,125.22z"/>
			</g>
			<g>
				<path class="st106" d="M91.62,125.42c-0.94,0-1.88-0.56-2.4-1.45c-0.56-0.96-0.82-2.81-0.3-4.22c0.29-0.81,0.81-1.36,1.49-1.61
					c1.21-0.44,2.72,0.09,3.51,1.24c0.68,0.99,0.85,2.36,0.44,3.66c-0.31,0.99-1.08,2.12-2.32,2.35
					C91.9,125.41,91.76,125.42,91.62,125.42z M91.3,118.95c-0.2,0-0.39,0.03-0.57,0.1c-0.41,0.15-0.71,0.5-0.91,1.03
					c-0.4,1.1-0.2,2.65,0.23,3.41c0.39,0.67,1.15,1.07,1.81,0.95c0.82-0.15,1.36-1.01,1.57-1.69c0.32-1.02,0.2-2.07-0.31-2.82
					C92.7,119.32,91.98,118.95,91.3,118.95z"/>
			</g>
			<g>
				<path class="st106" d="M98.65,125.47c-0.62,0-1.23-0.14-1.75-0.27c-0.26-0.06-0.42-0.32-0.36-0.58
					c0.06-0.26,0.32-0.42,0.58-0.36c0.69,0.16,1.47,0.35,2.14,0.17c0.54-0.15,1.07-0.67,0.97-1.19c-0.07-0.35-0.4-0.66-0.68-0.89
					c-0.62-0.51-1.31-0.94-2.05-1.26c-0.51-0.22-1.17-0.51-1.37-1.19c-0.16-0.55,0.07-1.19,0.6-1.62c0.5-0.41,1.19-0.58,1.89-0.45
					c0.7,0.13,1.28,0.53,1.6,1.1c0.13,0.23,0.05,0.53-0.18,0.66c-0.23,0.13-0.53,0.05-0.66-0.18c-0.18-0.31-0.53-0.55-0.94-0.62
					c-0.41-0.08-0.82,0.02-1.1,0.25c-0.19,0.15-0.34,0.41-0.29,0.6c0.07,0.24,0.46,0.41,0.81,0.56c0.85,0.37,1.61,0.84,2.31,1.41
					c0.4,0.33,0.88,0.8,1.01,1.45c0.21,1.09-0.7,2.05-1.66,2.31C99.23,125.44,98.94,125.47,98.65,125.47z"/>
			</g>
			<g>
				<path class="st106" d="M89.79,106.4c-0.06,0-0.12-0.01-0.17-0.03c-0.13-0.01-0.25-0.07-0.34-0.17
					c-0.55-0.65-0.71-1.59-0.42-2.39c0.1-0.27,0.29-0.48,0.51-0.58c0.18-0.07,0.37-0.07,0.54,0.01c0.29,0.13,0.39,0.42,0.42,0.52
					c0.25,0.76,0.21,1.62-0.1,2.35C90.16,106.28,89.98,106.4,89.79,106.4z"/>
			</g>
		</g>
	</g>
</g>
</svg>
