<?xml version="1.0" encoding="utf-8"?>
<!-- Generator: Adobe Illustrator 24.0.2, SVG Export Plug-In . SVG Version: 6.00 Build 0)  -->
<svg version="1.1" id="Layer_1" xmlns="http://www.w3.org/2000/svg" xmlns:xlink="http://www.w3.org/1999/xlink" x="0px" y="0px"
	 viewBox="0 0 400 400" style="enable-background:new 0 0 400 400;" xml:space="preserve">
<style type="text/css">
	.st0{fill:#C4B1D6;}
	.st1{fill:url(#SVGID_1_);}
	.st2{fill:url(#SVGID_2_);}
	.st3{fill:url(#SVGID_3_);}
	.st4{fill:url(#SVGID_4_);}
	.st5{fill:url(#SVGID_5_);}
	.st6{fill:url(#SVGID_6_);}
	.st7{fill:url(#SVGID_7_);}
	.st8{fill:#292728;}
	.st9{opacity:0.3;fill:#A09F9F;}
	.st10{fill:url(#SVGID_8_);}
	.st11{fill:url(#SVGID_9_);}
	.st12{opacity:0.4;fill:url(#SVGID_10_);}
	.st13{fill:url(#SVGID_11_);}
	.st14{opacity:0.4;fill:url(#SVGID_12_);}
	.st15{fill:url(#SVGID_13_);}
	.st16{fill:url(#SVGID_14_);}
	.st17{fill:url(#SVGID_15_);}
	.st18{fill:url(#SVGID_16_);}
	.st19{fill:url(#SVGID_17_);}
	.st20{fill:url(#SVGID_18_);}
	.st21{fill:url(#SVGID_19_);}
	.st22{fill:url(#SVGID_20_);}
	.st23{opacity:0.4;fill:url(#SVGID_21_);}
	.st24{fill:url(#SVGID_22_);}
	.st25{fill:url(#SVGID_23_);}
	.st26{fill:url(#SVGID_24_);}
	.st27{fill:url(#SVGID_25_);}
	.st28{fill:url(#SVGID_26_);}
	.st29{fill:url(#SVGID_27_);}
	.st30{fill:url(#SVGID_28_);}
	.st31{fill:url(#SVGID_29_);}
	.st32{fill:url(#SVGID_30_);}
	.st33{fill:url(#SVGID_31_);}
	.st34{fill:url(#SVGID_32_);}
	.st35{fill:url(#SVGID_33_);}
	.st36{opacity:0.5;fill:#FFFFFF;}
</style>
<path class="st0" d="M374,304c0,0-79,262-350.23-139.09C-24.07,94.17,143.68-21.32,172,31c59,109,116.06-0.39,176,43
	C407.94,117.39,383.16,285.68,374,304"/>
<g>
	<g>
		<g>
			<linearGradient id="SVGID_1_" gradientUnits="userSpaceOnUse" x1="101.6379" y1="237.0242" x2="80.3598" y2="194.468">
				<stop  offset="0" style="stop-color:#5E3F89"/>
				<stop  offset="1" style="stop-color:#A43E8E"/>
			</linearGradient>
			<path class="st1" d="M73.34,208.01c-0.06,0.53,0.34,12.7,6.59,15.72c3.82,1.84,15.71,3.12,18.34,2.51
				c7.93-1.83,9.76-12.97,5.27-18.88c-2.58-3.41-5.85-4.41-11.91-4.67c-2.94-0.13-13.58-0.25-15.68,0.71
				C74.17,204.19,73.55,206.14,73.34,208.01z"/>
			<linearGradient id="SVGID_2_" gradientUnits="userSpaceOnUse" x1="96.3658" y1="234.509" x2="116.1317" y2="234.509">
				<stop  offset="0" style="stop-color:#5E3F89"/>
				<stop  offset="1" style="stop-color:#A43E8E"/>
			</linearGradient>
			<path class="st2" d="M107.9,249.92c-0.25,0-11.4-27.36-11.4-27.36s-1.01-2.53,2.53-3.42c3.55-0.89,17.1,16.34,17.1,16.34
				L107.9,249.92z"/>
		</g>
		<radialGradient id="SVGID_3_" cx="83.5816" cy="216.8573" r="29.9704" gradientUnits="userSpaceOnUse">
			<stop  offset="0" style="stop-color:#E21E2C"/>
			<stop  offset="0.2361" style="stop-color:#D91E2A"/>
			<stop  offset="0.6286" style="stop-color:#BF1E26"/>
			<stop  offset="1" style="stop-color:#A11E21"/>
		</radialGradient>
		<path class="st3" d="M80.16,203.68c0,0-6.46,0.38-5.57,6.59c0.89,6.21,3.04,9.75,3.04,9.75s-2.79-12.16,0.38-13.93
			c3.17-1.77,14.19-2.03,14.19-2.03S85.1,202.8,80.16,203.68z"/>
	</g>
	<g>
		<g>
			<linearGradient id="SVGID_4_" gradientUnits="userSpaceOnUse" x1="317.1784" y1="191.634" x2="288.8068" y2="237.7385">
				<stop  offset="0" style="stop-color:#5E3F89"/>
				<stop  offset="1" style="stop-color:#A43E8E"/>
			</linearGradient>
			<path class="st4" d="M320.18,208.01c0.06,0.53-0.34,12.7-6.59,15.72c-3.81,1.84-15.7,3.12-18.34,2.51
				c-7.93-1.83-9.76-12.97-5.27-18.88c2.59-3.41,5.85-4.41,11.91-4.67c2.94-0.13,13.58-0.25,15.68,0.71
				C319.35,204.19,319.97,206.14,320.18,208.01z"/>
			<linearGradient id="SVGID_5_" gradientUnits="userSpaceOnUse" x1="301.1566" y1="217.4265" x2="286.9702" y2="235.6658">
				<stop  offset="0" style="stop-color:#5E3F89"/>
				<stop  offset="1" style="stop-color:#A43E8E"/>
			</linearGradient>
			<path class="st5" d="M285.62,249.92c0.25,0,11.4-27.36,11.4-27.36s1.01-2.53-2.53-3.42c-3.55-0.89-17.1,16.34-17.1,16.34
				L285.62,249.92z"/>
		</g>
		
			<radialGradient id="SVGID_6_" cx="1992.413" cy="216.8573" r="29.9688" gradientTransform="matrix(-1 0 0 1 2302.3477 0)" gradientUnits="userSpaceOnUse">
			<stop  offset="0" style="stop-color:#E21E2C"/>
			<stop  offset="0.2361" style="stop-color:#D91E2A"/>
			<stop  offset="0.6286" style="stop-color:#BF1E26"/>
			<stop  offset="1" style="stop-color:#A11E21"/>
		</radialGradient>
		<path class="st6" d="M313.36,203.68c0,0,6.46,0.38,5.57,6.59c-0.89,6.21-3.04,9.75-3.04,9.75s2.79-12.16-0.38-13.93
			c-3.17-1.77-14.19-2.03-14.19-2.03S308.42,202.8,313.36,203.68z"/>
	</g>
	<g>
		<g>
			<g>
				<radialGradient id="SVGID_7_" cx="198.7577" cy="214.6969" r="49.791" gradientUnits="userSpaceOnUse">
					<stop  offset="0" style="stop-color:#4B2220"/>
					<stop  offset="1" style="stop-color:#1D1C1A"/>
				</radialGradient>
				<path class="st7" d="M198.76,166.48c-28.34,0-51.32,21.59-51.32,48.22c0,26.63,22.98,48.21,51.32,48.21
					c28.34,0,51.32-21.59,51.32-48.21C250.08,188.07,227.1,166.48,198.76,166.48z M198.76,252.83c-21.83,0-39.53-16.63-39.53-37.14
					c0-15.16,9.67-28.19,23.54-33.96c7.5-2.32,9.96-2.73,9.93,1.18c-0.03,3.93,0.77,16.97,0.77,16.97h8.15
					c0.38-20.09,2.04-21.04,7.55-20.03c16.79,4.29,29.13,18.7,29.13,35.83C238.28,236.2,220.59,252.83,198.76,252.83z"/>
			</g>
			<path class="st8" d="M207.29,206.88c0,5.68-4.73,10.28-10.58,10.28c-5.84,0-10.58-4.6-10.58-10.28c0-5.68,4.74-10.28,10.58-10.28
				C202.56,196.59,207.29,201.2,207.29,206.88z"/>
		</g>
		<path class="st9" d="M270.72,134.51c0,0-3.04-62.32-21.28-77.01c0,0-6.59-7.09-27.87-8.61l-62.32,1.01c0,0-23.81,4.56-27.87,26.85
			l-19.25,154.02h168.71L270.72,134.51z M210.43,200.26c-28.3,0.23-59.1,0.83-86.64,8.11l15.15-123.34
			c3.49-19.19,23.98-23.11,23.98-23.11l53.64-0.87c22.74-0.11,30.85,14.08,30.85,14.08c6.08,10.13,20.26,130.71,20.26,130.71
			C249.17,203.01,228.74,200.11,210.43,200.26z"/>
		<linearGradient id="SVGID_8_" gradientUnits="userSpaceOnUse" x1="258.0337" y1="256.8631" x2="129.599" y2="70.6712">
			<stop  offset="0" style="stop-color:#5E3F89"/>
			<stop  offset="1" style="stop-color:#8D478A"/>
		</linearGradient>
		<path class="st10" d="M269.2,85.87c0,0-5.32-36.48-30.4-39.52h-4.56h-74.48h-4.56c-25.08,3.04-30.4,39.52-30.4,39.52L107.33,237.1
			l9.37-1.27c0,0,11.15-124.63,17.73-153.01c6.59-28.37,31.92-28.88,31.92-28.88h61.3c0,0,25.33,0.51,31.92,28.88
			c6.59,28.37,17.73,153.01,17.73,153.01l9.37,1.27L269.2,85.87z"/>
		<g>
			<linearGradient id="SVGID_9_" gradientUnits="userSpaceOnUse" x1="113.258" y1="337.165" x2="113.258" y2="306.7496">
				<stop  offset="0.1833" style="stop-color:#343333"/>
				<stop  offset="1" style="stop-color:#1D1C1A"/>
			</linearGradient>
			<path class="st11" d="M89.85,301.37c0,0,3.71,25.19,5.16,30.18c1.45,5,2.37,9.01,16.66,9.35c7.8,0.18,13.53,0.07,18.88,0.01
				c4.72-0.05,6.53-6.62,6.04-13.87c-0.48-7.25-0.97-20.47-0.97-20.47S102.75,305.03,89.85,301.37z"/>
			<linearGradient id="SVGID_10_" gradientUnits="userSpaceOnUse" x1="113.1116" y1="325.5131" x2="113.1116" y2="316.3793">
				<stop  offset="0" style="stop-color:#999998"/>
				<stop  offset="1" style="stop-color:#0B0C0A"/>
			</linearGradient>
			<path class="st12" d="M136.37,323.42c-0.4-7.32-0.75-16.84-0.75-16.84s-32.88-1.55-45.77-5.21c0,0,1.9,12.88,3.51,22.05H136.37z"
				/>
			<path d="M104.17,326.9c-0.13-0.93-1.62-2.01-2.22-2.67c-0.82-0.91-1.75-1.72-2.7-2.5c1.23-1.99,2.28-4.06,3.44-6.1
				c0.75-1.32-3.38-3.86-4.03-4.32c-0.24-0.17-0.55,0.13-0.36,0.36c0.75,0.92,3.69,2.83,3.07,4.03c-1.02,1.96-2.17,3.98-3.48,5.77
				c-0.22,0.3-0.15,0.69,0.13,0.92c1.17,0.95,5.31,3.89,4.84,5.64c-0.58,2.12-1.94,3.81-2.3,6.08c-0.06,0.38,0.48,0.49,0.62,0.16
				C102.11,332.2,104.51,329.28,104.17,326.9z"/>
			<path d="M113.23,329.83c-0.13-0.93-1.62-2.01-2.22-2.67c-0.83-0.91-1.75-1.72-2.7-2.5c1.23-1.99,2.28-4.06,3.44-6.1
				c0.75-1.32-3.38-3.86-4.03-4.32c-0.24-0.17-0.55,0.13-0.36,0.36c0.75,0.92,3.69,2.83,3.07,4.02c-1.02,1.96-2.17,3.98-3.48,5.77
				c-0.22,0.3-0.15,0.69,0.13,0.92c1.17,0.95,5.32,3.89,4.84,5.64c-0.58,2.12-1.94,3.81-2.3,6.08c-0.06,0.38,0.48,0.49,0.63,0.16
				C111.17,335.12,113.57,332.2,113.23,329.83z"/>
			<path d="M122.77,329.83c-0.13-0.93-1.62-2.01-2.22-2.67c-0.82-0.91-1.75-1.72-2.7-2.5c1.23-1.99,2.28-4.06,3.44-6.1
				c0.75-1.32-3.38-3.86-4.03-4.32c-0.24-0.17-0.55,0.13-0.36,0.36c0.75,0.92,3.69,2.83,3.07,4.02c-1.02,1.96-2.17,3.98-3.48,5.77
				c-0.22,0.3-0.15,0.69,0.13,0.92c1.17,0.95,5.31,3.89,4.84,5.64c-0.58,2.12-1.94,3.81-2.3,6.08c-0.06,0.38,0.48,0.49,0.63,0.16
				C120.72,335.12,123.11,332.2,122.77,329.83z"/>
			<path d="M132.94,328.37c-0.14-0.93-1.62-2.01-2.22-2.67c-0.82-0.9-1.75-1.72-2.7-2.5c1.23-2,2.28-4.05,3.44-6.1
				c0.75-1.32-3.38-3.86-4.03-4.32c-0.24-0.17-0.55,0.13-0.36,0.36c0.75,0.92,3.69,2.83,3.07,4.02c-1.02,1.96-2.17,3.98-3.48,5.77
				c-0.22,0.3-0.15,0.69,0.13,0.92c1.17,0.95,5.32,3.89,4.84,5.64c-0.58,2.12-1.94,3.81-2.3,6.08c-0.06,0.38,0.48,0.49,0.63,0.16
				C130.89,333.67,133.28,330.74,132.94,328.37z"/>
		</g>
		<g>
			
				<linearGradient id="SVGID_11_" gradientUnits="userSpaceOnUse" x1="2075.6619" y1="337.165" x2="2075.6619" y2="306.7496" gradientTransform="matrix(-1 0 0 1 2355.6055 0)">
				<stop  offset="0.1833" style="stop-color:#343333"/>
				<stop  offset="1" style="stop-color:#1D1C1A"/>
			</linearGradient>
			<path class="st13" d="M303.35,301.37c0,0-3.71,25.19-5.16,30.18c-1.45,5-2.37,9.01-16.66,9.35c-7.8,0.18-13.53,0.07-18.88,0.01
				c-4.73-0.05-6.53-6.62-6.04-13.87c0.48-7.25,0.97-20.47,0.97-20.47S290.46,305.03,303.35,301.37z"/>
			
				<linearGradient id="SVGID_12_" gradientUnits="userSpaceOnUse" x1="2075.5156" y1="325.5131" x2="2075.5156" y2="316.3793" gradientTransform="matrix(-1 0 0 1 2355.6055 0)">
				<stop  offset="0" style="stop-color:#999998"/>
				<stop  offset="1" style="stop-color:#0B0C0A"/>
			</linearGradient>
			<path class="st14" d="M256.83,323.42c0.4-7.32,0.75-16.84,0.75-16.84s32.88-1.55,45.77-5.21c0,0-1.9,12.88-3.51,22.05H256.83z"/>
			<path d="M289.04,326.9c0.13-0.93,1.62-2.01,2.22-2.67c0.82-0.91,1.75-1.72,2.7-2.5c-1.23-1.99-2.28-4.06-3.44-6.1
				c-0.75-1.32,3.38-3.86,4.03-4.32c0.24-0.17,0.55,0.13,0.36,0.36c-0.75,0.92-3.69,2.83-3.07,4.03c1.02,1.96,2.17,3.98,3.48,5.77
				c0.22,0.3,0.15,0.69-0.13,0.92c-1.17,0.95-5.32,3.89-4.84,5.64c0.58,2.12,1.94,3.81,2.29,6.08c0.06,0.38-0.48,0.49-0.63,0.16
				C291.09,332.2,288.69,329.28,289.04,326.9z"/>
			<path d="M279.98,329.83c0.13-0.93,1.62-2.01,2.22-2.67c0.83-0.91,1.75-1.72,2.71-2.5c-1.23-1.99-2.28-4.06-3.44-6.1
				c-0.75-1.32,3.38-3.86,4.03-4.32c0.24-0.17,0.55,0.13,0.36,0.36c-0.75,0.92-3.69,2.83-3.07,4.02c1.02,1.96,2.17,3.98,3.48,5.77
				c0.22,0.3,0.15,0.69-0.13,0.92c-1.17,0.95-5.32,3.89-4.84,5.64c0.57,2.12,1.94,3.81,2.3,6.08c0.06,0.38-0.48,0.49-0.63,0.16
				C282.03,335.12,279.63,332.2,279.98,329.83z"/>
			<path d="M270.43,329.83c0.13-0.93,1.62-2.01,2.22-2.67c0.82-0.91,1.75-1.72,2.7-2.5c-1.23-1.99-2.28-4.06-3.44-6.1
				c-0.75-1.32,3.38-3.86,4.04-4.32c0.24-0.17,0.55,0.13,0.36,0.36c-0.75,0.92-3.69,2.83-3.07,4.02c1.02,1.96,2.17,3.98,3.48,5.77
				c0.21,0.3,0.15,0.69-0.13,0.92c-1.17,0.95-5.32,3.89-4.84,5.64c0.58,2.12,1.94,3.81,2.3,6.08c0.06,0.38-0.48,0.49-0.63,0.16
				C272.48,335.12,270.09,332.2,270.43,329.83z"/>
			<path d="M260.26,328.37c0.14-0.93,1.62-2.01,2.22-2.67c0.82-0.9,1.75-1.72,2.7-2.5c-1.23-2-2.28-4.05-3.44-6.1
				c-0.75-1.32,3.38-3.86,4.04-4.32c0.24-0.17,0.55,0.13,0.36,0.36c-0.75,0.92-3.69,2.83-3.07,4.02c1.02,1.96,2.17,3.98,3.48,5.77
				c0.22,0.3,0.15,0.69-0.13,0.92c-1.17,0.95-5.31,3.89-4.84,5.64c0.58,2.12,1.94,3.81,2.3,6.08c0.06,0.38-0.48,0.49-0.63,0.16
				C262.31,333.67,259.92,330.74,260.26,328.37z"/>
		</g>
		<g>
			<linearGradient id="SVGID_13_" gradientUnits="userSpaceOnUse" x1="217.2437" y1="326.4668" x2="165.5656" y2="204.1115">
				<stop  offset="0" style="stop-color:#5E3F89"/>
				<stop  offset="1" style="stop-color:#8D478A"/>
			</linearGradient>
			<path class="st15" d="M171.09,251.54h55.18c23.79,0,43.08,19.29,43.08,43.08v2.74h37.54c-1.59-40.91-17.77-67.89-24.12-74.81
				c-6.35-6.92-33.95-14.65-84.09-14.49c-43.2,0.14-69.49,4.19-76.16,6.66c-6.66,2.47-19.67,8.88-27.61,38.92
				c-7.93,30.05-2.86,43.72-2.86,43.72H128v-2.74C128,270.83,147.29,251.54,171.09,251.54z"/>
			<linearGradient id="SVGID_14_" gradientUnits="userSpaceOnUse" x1="198.6796" y1="229.3954" x2="198.6796" y2="301.7375">
				<stop  offset="0" style="stop-color:#D4468A"/>
				<stop  offset="1" style="stop-color:#EB6886"/>
			</linearGradient>
			<path class="st16" d="M269.36,294.63c0-23.79-19.29-43.08-43.08-43.08h-55.18c-23.79,0-43.08,19.29-43.08,43.08v2.74h141.35
				V294.63z"/>
			<radialGradient id="SVGID_15_" cx="189.4037" cy="413.4039" r="173.3557" gradientUnits="userSpaceOnUse">
				<stop  offset="0" style="stop-color:#4B2220"/>
				<stop  offset="1" style="stop-color:#1D1C1A"/>
			</radialGradient>
			<path class="st17" d="M254.27,273.13c-1.73-2.46-3.72-4.72-5.97-6.7h-99.24c-2.24,1.99-4.24,4.24-5.97,6.7H254.27z"/>
			<radialGradient id="SVGID_16_" cx="189.4041" cy="413.4136" r="173.3644" gradientUnits="userSpaceOnUse">
				<stop  offset="0" style="stop-color:#4B2220"/>
				<stop  offset="1" style="stop-color:#1D1C1A"/>
			</radialGradient>
			<path class="st18" d="M259.46,283.77c-0.81-2.62-1.87-5.12-3.19-7.46H141.09c-1.32,2.34-2.38,4.85-3.19,7.46H259.46z"/>
			<radialGradient id="SVGID_17_" cx="189.4039" cy="413.4191" r="173.3702" gradientUnits="userSpaceOnUse">
				<stop  offset="0" style="stop-color:#4B2220"/>
				<stop  offset="1" style="stop-color:#1D1C1A"/>
			</radialGradient>
			<path class="st19" d="M261.09,292.89c-0.11-2.03-0.39-4.01-0.8-5.94H137.07c-0.42,1.93-0.69,3.92-0.8,5.94H261.09z"/>
			<radialGradient id="SVGID_18_" cx="189.4042" cy="413.5525" r="173.5134" gradientUnits="userSpaceOnUse">
				<stop  offset="0" style="stop-color:#4B2220"/>
				<stop  offset="1" style="stop-color:#1D1C1A"/>
			</radialGradient>
			<rect x="136.21" y="296.07" class="st20" width="124.94" height="1.3"/>
			<radialGradient id="SVGID_19_" cx="189.4036" cy="413.4327" r="173.3842" gradientUnits="userSpaceOnUse">
				<stop  offset="0" style="stop-color:#4B2220"/>
				<stop  offset="1" style="stop-color:#1D1C1A"/>
			</radialGradient>
			<path class="st21" d="M244.19,263.25c-6.04-4.04-13.3-6.39-21.12-6.39h-48.78c-7.81,0-15.07,2.36-21.12,6.39H244.19z"/>
		</g>
		<linearGradient id="SVGID_20_" gradientUnits="userSpaceOnUse" x1="195.1105" y1="276.3676" x2="195.1105" y2="301.1937">
			<stop  offset="0" style="stop-color:#999998"/>
			<stop  offset="1" style="stop-color:#6B6C6A"/>
		</linearGradient>
		<path class="st22" d="M312.5,303.49c-0.12-4.53-0.79-9.06-4.15-12.4c-2.31-2.3-5.61-3.42-8.9-4.08H187.88h-11.4H90.77
			c-3.29,0.67-6.59,1.79-8.9,4.08c-3.37,3.35-4.03,7.87-4.15,12.4c-0.05,1.83-0.14,10.87,3.12,10.87c0,0,61.96,0,91.6,0
			c9.32,0,15.45,0,15.45,0c35.82,0,121.5,0,121.5,0C312.64,314.37,312.55,305.32,312.5,303.49z"/>
		<linearGradient id="SVGID_21_" gradientUnits="userSpaceOnUse" x1="195.1105" y1="276.3695" x2="195.1105" y2="301.1943">
			<stop  offset="0" style="stop-color:#999998"/>
			<stop  offset="1" style="stop-color:#6B6C6A"/>
		</linearGradient>
		<path class="st23" d="M312.5,303.29H77.72c0,0.07-0.01,0.14-0.01,0.2c-0.05,1.83-0.14,10.87,3.12,10.87h91.6
			c9.32,0,15.45,0,15.45,0h121.5c3.26,0,3.17-9.05,3.12-10.87C312.5,303.42,312.5,303.35,312.5,303.29z"/>
		<g>
			<linearGradient id="SVGID_22_" gradientUnits="userSpaceOnUse" x1="102.0769" y1="304.1365" x2="121.4559" y2="239.9199">
				<stop  offset="0" style="stop-color:#999998"/>
				<stop  offset="1" style="stop-color:#6B6C6A"/>
			</linearGradient>
			<path class="st24" d="M125,282.13c0,0,4.94-13.3,1.14-16.34c-3.8-3.04-20.9-7.03-20.9-7.03s-4.75-1.9-6.27,1.71
				c-1.52,3.61-3.23,15.2-3.23,15.2s-1.33,6.65,4.37,7.6l20.52,1.33C120.63,284.6,123.67,285.36,125,282.13z"/>
			<linearGradient id="SVGID_23_" gradientUnits="userSpaceOnUse" x1="98.7828" y1="250.1313" x2="119.3022" y2="290.4102">
				<stop  offset="0" style="stop-color:#C2E3E5"/>
				<stop  offset="0.261" style="stop-color:#C0E2E5"/>
				<stop  offset="0.4098" style="stop-color:#B7DFE3"/>
				<stop  offset="0.5304" style="stop-color:#A9DAE1"/>
				<stop  offset="0.6359" style="stop-color:#96D2DD"/>
				<stop  offset="0.7315" style="stop-color:#7CC9D9"/>
				<stop  offset="0.82" style="stop-color:#5CBDD3"/>
				<stop  offset="0.9031" style="stop-color:#37AFCD"/>
				<stop  offset="0.9798" style="stop-color:#0D9FC5"/>
				<stop  offset="1" style="stop-color:#009AC3"/>
			</linearGradient>
			<path class="st25" d="M122.47,280.84c0,0,4.29-11.1,0.99-13.64c-3.3-2.54-18.16-5.87-18.16-5.87s-4.13-1.59-5.45,1.43
				c-1.32,3.01-2.81,12.69-2.81,12.69s-1.16,5.55,3.8,6.34l17.82,1.11C118.67,282.9,121.31,283.54,122.47,280.84z"/>
			<linearGradient id="SVGID_24_" gradientUnits="userSpaceOnUse" x1="98.2645" y1="250.6574" x2="108.1444" y2="269.4671">
				<stop  offset="0" style="stop-color:#C2E3E5"/>
				<stop  offset="0.261" style="stop-color:#C0E2E5"/>
				<stop  offset="0.4098" style="stop-color:#B7DFE3"/>
				<stop  offset="0.5304" style="stop-color:#A9DAE1"/>
				<stop  offset="0.6359" style="stop-color:#96D2DD"/>
				<stop  offset="0.7315" style="stop-color:#7CC9D9"/>
				<stop  offset="0.82" style="stop-color:#5CBDD3"/>
				<stop  offset="0.9031" style="stop-color:#37AFCD"/>
				<stop  offset="0.9798" style="stop-color:#0D9FC5"/>
				<stop  offset="1" style="stop-color:#009AC3"/>
			</linearGradient>
			<path class="st26" d="M113.19,272.87c2.24-1.37,5.38-3.37,7.95-5.79c-3.51-2.24-15.94-5.03-15.94-5.03s-3.7-1.42-4.88,1.28
				c-1.18,2.7-2.51,11.37-2.51,11.37s-0.2,0.96-0.05,2.09C103.08,277.22,108.67,275.63,113.19,272.87z"/>
		</g>
		<g>
			
				<linearGradient id="SVGID_25_" gradientUnits="userSpaceOnUse" x1="2056.3347" y1="304.137" x2="2075.7139" y2="239.9198" gradientTransform="matrix(-1 0 0 1 2351.2148 0)">
				<stop  offset="0" style="stop-color:#999998"/>
				<stop  offset="1" style="stop-color:#6B6C6A"/>
			</linearGradient>
			<path class="st27" d="M271.96,282.13c0,0-4.94-13.3-1.14-16.34c3.8-3.04,20.9-7.03,20.9-7.03s4.75-1.9,6.27,1.71
				c1.52,3.61,3.23,15.2,3.23,15.2s1.33,6.65-4.37,7.6l-20.52,1.33C276.33,284.6,273.29,285.36,271.96,282.13z"/>
			
				<linearGradient id="SVGID_26_" gradientUnits="userSpaceOnUse" x1="2053.0403" y1="250.1314" x2="2073.5596" y2="290.4099" gradientTransform="matrix(-1 0 0 1 2351.2148 0)">
				<stop  offset="0" style="stop-color:#C2E3E5"/>
				<stop  offset="0.261" style="stop-color:#C0E2E5"/>
				<stop  offset="0.4098" style="stop-color:#B7DFE3"/>
				<stop  offset="0.5304" style="stop-color:#A9DAE1"/>
				<stop  offset="0.6359" style="stop-color:#96D2DD"/>
				<stop  offset="0.7315" style="stop-color:#7CC9D9"/>
				<stop  offset="0.82" style="stop-color:#5CBDD3"/>
				<stop  offset="0.9031" style="stop-color:#37AFCD"/>
				<stop  offset="0.9798" style="stop-color:#0D9FC5"/>
				<stop  offset="1" style="stop-color:#009AC3"/>
			</linearGradient>
			<path class="st28" d="M274.49,280.84c0,0-4.29-11.1-0.99-13.64c3.3-2.54,18.16-5.87,18.16-5.87s4.13-1.59,5.45,1.43
				c1.32,3.01,2.81,12.69,2.81,12.69s1.15,5.55-3.8,6.34l-17.82,1.11C278.29,282.9,275.65,283.54,274.49,280.84z"/>
			
				<linearGradient id="SVGID_27_" gradientUnits="userSpaceOnUse" x1="2052.522" y1="250.6577" x2="2062.4016" y2="269.4673" gradientTransform="matrix(-1 0 0 1 2351.2148 0)">
				<stop  offset="0" style="stop-color:#C2E3E5"/>
				<stop  offset="0.261" style="stop-color:#C0E2E5"/>
				<stop  offset="0.4098" style="stop-color:#B7DFE3"/>
				<stop  offset="0.5304" style="stop-color:#A9DAE1"/>
				<stop  offset="0.6359" style="stop-color:#96D2DD"/>
				<stop  offset="0.7315" style="stop-color:#7CC9D9"/>
				<stop  offset="0.82" style="stop-color:#5CBDD3"/>
				<stop  offset="0.9031" style="stop-color:#37AFCD"/>
				<stop  offset="0.9798" style="stop-color:#0D9FC5"/>
				<stop  offset="1" style="stop-color:#009AC3"/>
			</linearGradient>
			<path class="st29" d="M283.77,272.87c-2.24-1.37-5.37-3.37-7.95-5.79c3.51-2.24,15.94-5.03,15.94-5.03s3.7-1.42,4.88,1.28
				c1.18,2.7,2.52,11.37,2.52,11.37s0.2,0.96,0.05,2.09C293.88,277.22,288.29,275.63,283.77,272.87z"/>
		</g>
		<linearGradient id="SVGID_28_" gradientUnits="userSpaceOnUse" x1="152.9437" y1="261.636" x2="121.0252" y2="219.0779">
			<stop  offset="0" style="stop-color:#5E3F89"/>
			<stop  offset="1" style="stop-color:#A43E8E"/>
		</linearGradient>
		<path class="st30" d="M127.85,216.58l23.18,33.82l-35.72-27.36C115.31,223.04,120.25,217.72,127.85,216.58z"/>
		<linearGradient id="SVGID_29_" gradientUnits="userSpaceOnUse" x1="246.8908" y1="260.0022" x2="284.1292" y2="208.3243">
			<stop  offset="0" style="stop-color:#5E3F89"/>
			<stop  offset="1" style="stop-color:#A43E8E"/>
		</linearGradient>
		<path class="st31" d="M269.58,216.58L246.4,250.4l35.72-27.36C282.12,223.04,277.18,217.72,269.58,216.58z"/>
		<linearGradient id="SVGID_30_" gradientUnits="userSpaceOnUse" x1="196.4976" y1="280.3136" x2="196.4976" y2="208.0534">
			<stop  offset="0" style="stop-color:#5E3F89"/>
			<stop  offset="1" style="stop-color:#A43E8E"/>
		</linearGradient>
		<path class="st32" d="M138.49,214.56c0,0,51.68-6.08,116.02,1.01c0,0-5.07,30.4-57.25,31.41
			C146.07,247.98,138.49,214.56,138.49,214.56z"/>
		<linearGradient id="SVGID_31_" gradientUnits="userSpaceOnUse" x1="175.9029" y1="263.9674" x2="182.4897" y2="300.4462">
			<stop  offset="0" style="stop-color:#999998"/>
			<stop  offset="1" style="stop-color:#6B6C6A"/>
		</linearGradient>
		<path class="st33" d="M81.74,298.66c0,0-0.51-9.63,17.73-9.63c18.24,0,181.38,0,181.38,0l-184.93,4.56
			C95.93,293.59,85.79,294.1,81.74,298.66z"/>
		<linearGradient id="SVGID_32_" gradientUnits="userSpaceOnUse" x1="68.1898" y1="303.9797" x2="105.0793" y2="303.9797">
			<stop  offset="0.1833" style="stop-color:#343333"/>
			<stop  offset="1" style="stop-color:#1D1C1A"/>
		</linearGradient>
		<path class="st34" d="M95.93,303.98c0,3.36-2.72,6.08-6.08,6.08c-3.36,0-6.08-2.72-6.08-6.08c0-3.36,2.72-6.08,6.08-6.08
			C93.21,297.9,95.93,300.62,95.93,303.98z"/>
		<linearGradient id="SVGID_33_" gradientUnits="userSpaceOnUse" x1="276.7994" y1="303.9797" x2="313.6899" y2="303.9797">
			<stop  offset="0.1833" style="stop-color:#343333"/>
			<stop  offset="1" style="stop-color:#1D1C1A"/>
		</linearGradient>
		<path class="st35" d="M304.54,303.98c0,3.36-2.72,6.08-6.08,6.08c-3.36,0-6.08-2.72-6.08-6.08c0-3.36,2.72-6.08,6.08-6.08
			C301.82,297.9,304.54,300.62,304.54,303.98z"/>
		<path class="st36" d="M129.37,193.68l12.16-102.34c0,0,5.57-24.83,24.83-25.84l47.12-1.01l-39.01,5.57c0,0-20.77,1.01-26.35,19.76
			C142.54,108.56,129.37,193.68,129.37,193.68z"/>
	</g>
</g>
</svg>
