<?xml version="1.0" encoding="utf-8"?>
<!-- Generator: Adobe Illustrator 24.0.2, SVG Export Plug-In . SVG Version: 6.00 Build 0)  -->
<svg version="1.1" id="Layer_1" xmlns="http://www.w3.org/2000/svg" xmlns:xlink="http://www.w3.org/1999/xlink" x="0px" y="0px"
	 viewBox="0 0 400 400" style="enable-background:new 0 0 400 400;" xml:space="preserve">
<style type="text/css">
	.st0{fill:#FAF7CC;}
	.st1{opacity:0.9608;fill:#C08983;enable-background:new    ;}
	.st2{fill:#AD6A60;}
	.st3{opacity:0.9608;fill:#576E4A;enable-background:new    ;}
	.st4{enable-background:new    ;}
	.st5{fill:#DCBF45;}
	.st6{fill:#F8DB55;}
	.st7{fill:#FFFFFF;}
	.st8{fill:#3B3A5E;}
	.st9{fill:#3A3233;}
	.st10{fill:#52527C;}
	.st11{fill:#FBC297;}
	.st12{fill:#171716;}
	.st13{fill:none;stroke:#ECA08B;stroke-width:1.3868;stroke-linecap:round;stroke-linejoin:round;stroke-miterlimit:10;}
	.st14{fill:#EB6624;}
	.st15{opacity:0.1;fill:#3A3233;}
	.st16{opacity:0.29;fill:#E78C6F;}
	.st17{opacity:0.9608;fill:#C08648;enable-background:new    ;}
	.st18{fill:#BB7C3B;}
	.st19{fill:#E0A35C;}
	.st20{fill:#CB9055;}
	.st21{opacity:0.13;fill:#48484A;}
	.st22{fill:#517F69;}
	.st23{fill:#E4E3E5;}
	.st24{fill:#7A7C7D;}
	.st25{fill:#669881;}
	.st26{fill:#72AC93;}
	.st27{clip-path:url(#SVGID_2_);}
	.st28{opacity:0.9608;fill:#E0A35C;enable-background:new    ;}
	.st29{clip-path:url(#SVGID_4_);}
	.st30{clip-path:url(#SVGID_6_);}
</style>
<path class="st0" d="M131.44,97.69c0,0,67.36-80.36,157.95-54.24S399.71,155.94,373,276.48c-26.71,120.53-85.94,70.31-176.53,98.43
	S-13.73,364.87,25.76,274.47S43.18,168,131.44,97.69z"/>
<g>
	<g>
		<g>
			<path class="st1" d="M194.77,36.93c-2.35-1.31-5.57,0.36-6.96,1.28c-0.39,0.26-0.62,0.7-0.62,1.17l1.15,112.08
				c0,3.24,2.34,7.2,5.21,8.81l155.28,87.71c0.75,0.42,1.66,0.41,2.39-0.04c2.67-1.62,3.78-2.5,3.78-5.36l-1.15-109.98
				c0-3.24-2.34-7.2-5.21-8.8L194.77,36.93z"/>
		</g>
		<path class="st2" d="M190.76,36.35c0.54-0.32,1.2-0.42,1.93-0.31c0.02,0,0.03,0,0.05,0.01c0.11,0.02,0.22,0.04,0.34,0.07
			c0.05,0.01,0.1,0.02,0.15,0.04c0.11,0.03,0.22,0.07,0.34,0.11c0.03,0.01,0.07,0.02,0.1,0.04c0.25,0.1,154.91,87.37,154.91,87.37
			l0.03-0.02c0.02,0.01,0.03,0.02,0.05,0.03l0.02-0.01c2.81,1.57,5.11,5.4,5.2,8.61l0.01-0.01L355,243.17
			c0.01,1.72-0.84,2.93-1.14,3.18c0,0,0,0,0,0c-0.1,0.09-0.21,0.17-0.33,0.24l-2.58,1.49c0.49-0.29,0.4-2.48,0.39-2.65l-1.11-110.77
			c-0.02-0.35-0.05-0.69-0.1-1.08c-0.07-0.48-0.19-0.96-0.34-1.44c-0.03-0.1-0.07-0.19-0.1-0.29c-0.04-0.12-0.08-0.24-0.13-0.35
			c-0.07-0.18-0.15-0.36-0.23-0.54c-0.01-0.03-0.02-0.05-0.03-0.08c-0.09-0.2-0.19-0.4-0.29-0.6c0,0,0-0.01-0.01-0.01
			c-0.21-0.4-0.44-0.8-0.7-1.18c-0.01-0.02-0.02-0.04-0.04-0.05c-0.11-0.17-0.23-0.33-0.35-0.49c-0.14-0.19-0.28-0.37-0.43-0.55
			c-0.17-0.21-0.36-0.41-0.55-0.61c-0.09-0.1-0.19-0.19-0.28-0.28c-0.2-0.19-0.4-0.38-0.62-0.54c-0.34-0.28-0.66-0.51-1.09-0.73
			l0.02-0.01c0,0-153.94-86.84-154.04-86.91c-1.32-0.6-2.65-0.86-3.45-0.39L190.76,36.35z"/>
		<path class="st3" d="M197.7,49.72c-2.27-1.27-4.06-0.21-4.06,2.35l1.13,97.3c0,2.56,1.85,5.68,4.11,6.95l142.35,81.09
			c2.27,1.27,4.06,0.21,4.06-2.35l-1.07-97.28c0-2.56-1.85-5.68-4.11-6.95L197.7,49.72z"/>
	</g>
	<g>
		<g>
			<g class="st4">
				<g>
					<polygon class="st5" points="165.57,105.46 168.66,103.66 168.63,112.96 165.54,114.75 					"/>
				</g>
				<g>
					<path class="st6" d="M150.8,52.84c12.18,7.03,22.02,24.07,21.98,38.07c-0.02,7.4-2.8,12.46-7.21,14.55l-0.03,9.3l-7.31-8.4
						c-2.36-0.37-4.92-1.3-7.58-2.84c-12.18-7.03-22.02-24.08-21.98-38.07S138.62,45.81,150.8,52.84z"/>
				</g>
				<path class="st5" d="M153.89,51.05c-6.13-3.54-11.68-3.87-15.69-1.54l-3.09,1.79c4.01-2.33,9.56-2,15.69,1.54
					c12.18,7.03,22.02,24.07,21.98,38.07c-0.02,6.95-2.47,11.84-6.43,14.14l3.09-1.79c3.96-2.3,6.41-7.19,6.43-14.14
					C175.91,75.12,166.06,58.08,153.89,51.05z"/>
			</g>
		</g>
		<g>
			<g>
				<path class="st7" d="M141.52,70.35c1.7,0.98,3.07,3.35,3.06,5.3s-1.38,2.73-3.08,1.76s-3.07-3.35-3.06-5.3
					C138.45,70.16,139.83,69.37,141.52,70.35z"/>
			</g>
			<g>
				<path class="st7" d="M149.13,74.69c1.7,0.98,3.07,3.35,3.06,5.3c-0.01,1.95-1.38,2.73-3.08,1.76c-1.7-0.98-3.07-3.35-3.06-5.3
					S147.44,73.71,149.13,74.69z"/>
			</g>
			<g>
				<path class="st7" d="M156.82,79.19c1.7,0.98,3.07,3.35,3.06,5.3c-0.01,1.95-1.38,2.73-3.08,1.76c-1.7-0.98-3.07-3.35-3.06-5.3
					C153.74,78.99,155.12,78.21,156.82,79.19z"/>
			</g>
		</g>
	</g>
	<g>
		<ellipse class="st8" cx="217.65" cy="275.09" rx="5.14" ry="1.62"/>
		<ellipse class="st8" cx="230.05" cy="281.22" rx="5.14" ry="1.62"/>
		<path class="st9" d="M211.13,199.05c-3.65,12.96-3.09,37.26-2.48,45.77c0.61,8.51,6.03,35.34,6.03,35.34s1.52,0.71,4.76,0
			l2.63-0.61c0,0,0-20.56,0-23.39c0-2.84,2.31-23.99,2.31-23.99l-0.7,26.78l2.31,28.76c0,0,6.75,1.57,8.47,0.25l3.15-30.65
			c0,0,8.22-32.38,4.72-55.93C242.32,199.56,212.25,195.07,211.13,199.05z"/>
		<path class="st10" d="M212.5,275.14c0,0,2.04,1.4,6.3,1.16c2.82-0.16,4-1.18,4-1.18l-0.51,14.73c0,0-0.34,1.05-2.21,1.44
			c-2.06,0.43-3.02,0.52-3.78,0.52s-1.06-0.53-1.06-0.53s0.1,0.94-0.92,1.01c-1.02,0.07-8.94,1.18-9.69,0.91
			c-0.75-0.27-2.46-1.47-2.6-3.47c-0.14-2,1.09-2.38,3.14-2.85c2.05-0.48,6.26-1.33,7.11-3.65
			C213.13,280.9,212.5,275.14,212.5,275.14z"/>
		<path class="st10" d="M224.91,281.22c0,0,5.78,3.03,10.29,0.03v14.72c0,0.18-0.06,0.35-0.18,0.49c-0.18,0.23-0.52,0.58-1.05,0.91
			c-0.42,0.26-0.91,2.63-1.37,3.89c-0.68,1.88-3.37,4.64-6.04,5.05c-2.66,0.41-6.63-1.02-6.29-3.48c0.34-2.46,4.72-6.92,4.72-11.64
			C225,286.59,224.91,281.22,224.91,281.22z"/>
		<path class="st9" d="M204.9,110.32c0,0-0.44,14.37-2.57,23.37c-0.79,3.35,35.32,11.68,34.47,0.7c-0.54-6.92-4.56-17.7-4.56-17.7
			l-15.85-15.87"/>
		<path class="st11" d="M221.01,131.16c0,0,0.02,1.57,0,3.24c-0.02,1.67-0.02,1.67-0.02,1.67s5.54,3.39,9.85,1.32
			c4.3-2.08,4.3-2.08,4.3-2.08s-0.22-6.05,0.12-7.86L221.01,131.16z"/>
		<path class="st11" d="M240.56,117.61c0.02-0.3,0.05-0.6,0.05-0.91c0-0.31-0.03-0.6-0.05-0.91v-15.43h-32.64v17.5h0.06
			c0.6,8.48,7.65,15.18,16.28,15.18s15.68-6.7,16.28-15.18h0.01V117.61z"/>
		<path class="st12" d="M215.93,115.4c0,0.86-0.43,1.56-0.96,1.56c-0.53,0-0.96-0.7-0.96-1.56c0-0.86,0.43-1.56,0.96-1.56
			C215.5,113.84,215.93,114.54,215.93,115.4z"/>
		<path class="st12" d="M228.77,117.34c0,0.86-0.43,1.56-0.96,1.56c-0.53,0-0.96-0.7-0.96-1.56c0-0.86,0.43-1.56,0.96-1.56
			C228.34,115.79,228.77,116.48,228.77,117.34z"/>
		<polyline class="st13" points="220.2,118.55 219.39,121.49 221.01,121.74 		"/>
		<path class="st14" d="M220.2,134.4c0,0,2.58,6.38,13.16,1.14c0,0,6.45-0.26,9.28,2.07c2.83,2.33-0.98,22.46-0.98,22.46
			s-3.09,13.75-2.89,19.28c0.2,5.53,1.36,17.14,1.36,17.14s-11.88,6.68-26.6-0.81c0,0,1.42-28.93,0.47-37.13
			c-0.95-8.2,1.92-21.06,1.92-21.06L220.2,134.4z"/>
		<path class="st11" d="M270.24,145.13c0,0-0.29-3.1,0.51-4.71c0.33-0.66,1.16-0.74,1.22-0.92c0.68-2.24,1.19-4.02,1.42-5.1
			c0.51-2.35,1.6-1.74,1.73-0.88c0.13,0.86-1.26,5.84-1.26,5.84s1.41,0.05,2.36,0.55c0.95,0.49,2.81,1.71,2.88,2.54
			c0.08,0.84-0.53,2.96-1.48,4.1c-0.95,1.14-1.6,1.92-1.6,1.92L270.24,145.13z"/>
		<path class="st15" d="M220.98,132.71v1.34c0,0,8.91,1.22,12.17-2.73C233.16,131.32,226.77,133.64,220.98,132.71z"/>
		<line class="st9" x1="220.98" y1="132.71" x2="220.98" y2="134.05"/>
		<path class="st6" d="M233.92,134.4c0,0,8.64,0.28,12.3,4.96c4.28,5.47,8.18,12.2,10.51,18.06c0.69,1.73,1.27,1.98,2.32,0.43
			l11.02-12.82l6.15,3.55c0,0-12.38,19.15-14.78,22.54c-2.91,4.1-7.23,3.6-10.75,0.81c-3.89-3.08-6.73-10.54-6.73-10.54
			s-0.58,11.74-0.27,17.96c0.3,6.23,2.67,25.04,2.59,33.58c-0.08,7.91-0.46,12-0.46,12s-10.69,6.12-20.66,1.67
			c1.91-9.72-0.06-29.22,0.11-51.79C225.38,159.31,231.69,138.25,233.92,134.4z"/>
		<path class="st9" d="M209.58,123.83c-1.1-1.91-1.34-11.16-1.34-11.16c2.37-2.43,6.73-8.96,6.73-8.96s15.74,11.69,23.04,13.88
			c2.37,0.72-2.76,11.96-7.18,19.78c0,6.48,22.3,2.19,19.37-4.11c-2.7-5.82-2.92-27.48-2.92-27.48s-0.36-9.5-8.15-15.31
			c-6.59-4.92-24.17-6.47-30.08,3.76c-5.77,9.99-3.85,23.84-3.85,23.84"/>
		<path class="st6" d="M220.98,133.7c0,0-8.24,2.1-10.52,4.84c-2.28,2.73-16.02,26.97-16.78,28.28c-0.76,1.31-0.91,4.4,1.52,6.23
			c2.43,1.82,14.06,8.2,14.06,8.2s-0.15-4.71,1.06-5.92s1.22-1.22,1.22-1.22l-5.23-5.81l4.67-7.93l-0.46,9.32
			c0,0-3.99,23.63-4.11,24.71c-0.98,8.35-1.26,22.33-0.93,24.95c0.21,1.67,4.68,3.42,9.23,4.04c2.75,0.37,4.1,0.15,4.1,0.15
			s-0.52-43.71,1.78-58.65c1.06-6.86,0.42-30.48,0.42-30.48L220.98,133.7z"/>
		<path class="st7" d="M214.11,164.88v28.19c0,0,7.18,5.16,17.35,5.47l-0.25-27.55C231.21,170.98,216.17,166.07,214.11,164.88z"/>
		<path class="st11" d="M214.13,176.22c-0.11,0.19,0.58,0.64,1.9,1.29c1.32,0.64,2.92,0.65,3.62,0.86c0.7,0.22,1.28,0.28,1.3,0.77
			c0.03,0.61-0.97,0.84-2.67,0.68c-1.7-0.16-3.6-0.53-3.95-0.97c-0.35-0.44,0.68,0.73,2.02,1.29c1.34,0.56,3.13,0.9,3.64,0.97
			c0.51,0.07,1.01,0.41,1.02,0.82c0,0.41-0.3,0.57-1.17,0.51c-0.86-0.06-3.46-0.36-4.24-0.71c-0.78-0.34-1.35-0.61-1.35-0.61
			s1.77,1.35,3.46,1.8c1.64,0.43,2.12,0.27,2.25,0.59c0.16,0.38,0.1,0.89-0.7,0.93c-0.8,0.04-3.1-0.4-3.82-0.56
			c-0.69-0.15-0.95-0.49-0.95-0.49s1.42,0.99,4.4,1.51c0.59,0.11,0.55,0.75-0.04,0.82c-0.59,0.08-2.69-0.17-4.05-0.69
			c-1.04-0.39-4.21-3-5.02-4c-0.82-1-0.82-1-0.82-1l-0.47-0.92c0,0-0.79-3.29,1.95-4.7c0,0,1.47-0.63,2.56-0.63
			c0.17,0,0.74,0.01,1.09,0.02"/>
		<path class="st16" d="M231.21,120.82c0,0.62-0.82,1.13-1.83,1.13c-1.01,0-1.83-0.5-1.83-1.13c0-0.62,0.82-1.13,1.83-1.13
			C230.4,119.69,231.21,120.19,231.21,120.82z"/>
		<ellipse class="st16" cx="212.43" cy="118.08" rx="1.83" ry="1.13"/>
		<path class="st13" d="M218.29,125.07c0,0,2.53,2.16,5.52,0.55"/>
		<g>
			<circle class="st11" cx="238.59" cy="120.15" r="2.68"/>
			<path class="st16" d="M238.47,118.57c0.87,0,1.57,0.7,1.57,1.57c0,0.87-0.7,1.57-1.57,1.57"/>
		</g>
		<polygon class="st15" points="210.63,151.45 210.98,160.37 209.95,162.12 		"/>
		<polygon class="st15" points="243.96,161.38 243.83,164.51 242.08,155.49 		"/>
	</g>
	<g>
		<path class="st9" d="M101.07,327.04c0,0-0.47,4.58-0.47,6.12s0.63,3.42,3.78,3.24c3.15-0.18,4.86-1.89,6.03-2.25
			c1.17-0.36,4.92-1.24,6.41-2.21c1.94-1.26,2.88-3.24,1.26-4.32c-1.62-1.08-11.25-1.08-11.25-1.08L101.07,327.04z"/>
		<path class="st10" d="M95.31,291.79l4.6,35.55c0.02,0.51,0.42,0.93,0.93,0.96c2.46,0.16,9.24,0.39,11.17-1.93
			c0,0,1.67-38.41,0.59-43.33c-1.08-4.92-2.5-11.52-10.85-10.56c-8.35,0.96-17.46,3.84-17.46,3.84L95.31,291.79z"/>
		<g>
			<g>
				<path class="st17" d="M122.09,307.59c1.49-0.91,1.57-3.27,1.5-4.34c-0.02-0.3-0.2-0.57-0.46-0.72l-38.63-21.09
					c-1.83-1.03-4.82-0.97-6.64,0.14l-23.3,14.29c-0.47,0.29-0.76,0.81-0.74,1.37c0.07,2.03,0.21,2.93,1.82,3.84l37.45,20.42
					c1.83,1.03,4.82,0.97,6.64-0.14L122.09,307.59z"/>
			</g>
			<path class="st18" d="M123.69,305.51c0.01,0.4-0.14,0.81-0.44,1.19c-0.01,0.01-0.01,0.02-0.02,0.02
				c-0.05,0.06-0.09,0.11-0.15,0.17c-0.02,0.02-0.05,0.05-0.07,0.07c-0.05,0.05-0.11,0.1-0.17,0.15c-0.02,0.01-0.03,0.03-0.05,0.04
				c-0.13,0.11-22.99,14.19-22.99,14.19l0,0.02c-0.01,0.01-0.02,0.01-0.03,0.02l0,0.02c-1.79,1.09-4.68,1.17-6.53,0.2l0,0.01
				L55.3,300.89c-0.97-0.54-1.39-1.41-1.43-1.66c0,0,0,0,0,0c-0.02-0.09-0.03-0.17-0.03-0.26l-0.02-1.93
				c0.01,0.37,1.28,1.02,1.38,1.07l37.88,20.69c0.2,0.1,0.41,0.19,0.64,0.29c0.29,0.11,0.6,0.2,0.92,0.27
				c0.06,0.01,0.13,0.02,0.19,0.03c0.08,0.01,0.16,0.03,0.24,0.04c0.13,0.02,0.25,0.03,0.38,0.04c0.02,0,0.04,0,0.06,0.01
				c0.14,0.01,0.29,0.02,0.43,0.03c0,0,0.01,0,0.01,0c0.3,0.01,0.59,0,0.89-0.02c0.01,0,0.03,0,0.04,0
				c0.13-0.01,0.26-0.02,0.39-0.04c0.15-0.02,0.3-0.04,0.45-0.07c0.17-0.03,0.35-0.07,0.52-0.12c0.08-0.02,0.17-0.05,0.25-0.07
				c0.17-0.05,0.34-0.11,0.5-0.18c0.27-0.11,0.5-0.21,0.76-0.39l0,0.01c0,0,22.38-13.81,22.45-13.85c0.76-0.55,1.33-1.22,1.32-1.83
				L123.69,305.51z"/>
		</g>
		<path class="st9" d="M120.64,331.17c0,0-0.99,5.3-0.99,6.84c0,1.53,0.63,3.42,3.78,3.24c3.15-0.18,4.86-1.89,6.03-2.25
			c1.17-0.36,4.92-1.24,6.41-2.21c1.94-1.26,2.88-3.24,1.26-4.32c-1.62-1.08-8.21-2.02-8.21-2.02L120.64,331.17z"/>
		<path class="st10" d="M66.28,285.96c0,0-3.12,18.84,19,20.45c15.35,1.12,27.94-3.83,33.15-6.45c1.33,0.82,5.05,2.87,5.05,2.87
			l-0.06,3.14c-0.01,0.49-0.26,0.94-0.68,1.2l-2.04,1.29l-0.29,23.35c0.02,0.51,0.42,0.93,0.93,0.96c2.46,0.16,9.24,0.39,11.17-1.93
			c0,0,1.67-38.41,0.59-43.33c-1.08-4.92-2.5-11.52-10.85-10.56c-8.35,0.96-17.46,3.84-17.46,3.84L66.28,285.96z"/>
		<g>
			<path class="st19" d="M141.29,294.32c2.03,0,3.68-0.92,3.68-2.05v50.08c0,1.13-1.65,2.05-3.68,2.05c-2.03,0-3.68-0.92-3.68-2.05
				v-50.08C137.61,293.4,139.26,294.32,141.29,294.32z"/>
			<path class="st19" d="M193.98,266.76c1.97,0,3.57-0.89,3.57-1.99v50.38c0,1.1-1.6,1.99-3.57,1.99c-1.97,0-3.57-0.89-3.57-1.99
				v-50.38C190.41,265.87,192.01,266.76,193.98,266.76z"/>
			<path class="st20" d="M61.25,251.29l74.16,42.82c4.67,2.69,10.42,2.69,15.1,0l46.42-26.76c1.72-0.99,2.58-2.72,2.58-4.46
				c0-1.73,0.08-4.36,0-6.14l-76.74-41.14c-4.67-2.69-10.43-2.69-15.1,0l-48.15,23.05c-1.55,0.89-0.94,5.66-0.83,7.66
				C58.52,248.22,59.37,250.2,61.25,251.29z"/>
			<path class="st19" d="M61.26,245.4l74.16,42.82c4.67,2.69,10.42,2.69,15.1,0l46.42-26.76c3.44-1.98,3.44-6.93,0-8.92
				l-74.16-42.82c-4.67-2.69-10.42-2.69-15.1,0l-46.42,26.76C57.83,238.47,57.83,243.42,61.26,245.4z"/>
		</g>
		<g>
			<path class="st21" d="M80.06,229.48c-0.02-0.01-0.43-0.32-0.98,0.03c-0.61,0.38-0.51,1.21-0.51,1.21v1.93
				c0,1.93,1.13,2.41,1.82,2.75l21.63,12.68l0,0c0.38,0.22,0.99,0.22,1.36,0l27.94-16.45c0.19-0.11,0.28-0.25,0.28-0.4
				c0,0-2.55-1.36-2.74-1.25l-25.89,16.88c-0.19,0.11-0.43,0.17-0.68,0.17c-0.25,0-0.49-0.05-0.68-0.17v0c0,0,0.51,0.35,0.51,0.35
				l0,0l-21.73-12.7c-0.59-0.36-0.75-1.11-0.75-1.24v-2.06C79.64,230.08,80.06,229.48,80.06,229.48z"/>
			<path class="st22" d="M130.72,229.61l-22.1-12.94v-4.77L79.9,228.74l-0.56,2.84l0.45,2.8l0.81-0.46l21.48,12.58
				c0.38,0.22,0.99,0.22,1.36,0l27.29-16.09C131.1,230.19,131.1,229.83,130.72,229.61z"/>
			<g>
				<g class="st4">
					<g class="st4">
						<polygon class="st23" points="102.65,241.51 102.65,246.15 80.72,233.13 80.72,228.49 						"/>
					</g>
					<g>
						<polygon class="st7" points="129.53,226.2 129.53,230.37 102.65,246.15 102.65,241.51 						"/>
					</g>
					<g>
						<polygon class="st24" points="102.42,241.29 81.35,228.69 103.03,216.12 124.73,228.76 						"/>
					</g>
				</g>
			</g>
			<path class="st25" d="M80.79,230.02l21.28,12.54v-0.01c0.19,0.11,0.43,0.17,0.68,0.16c0.24,0,0.49-0.05,0.67-0.16l0.01,0
				l27.29-16.09c0.19-0.11,0.28-0.25,0.28-0.4v-0.87c0,0.14-0.09,0.29-0.28,0.4l-27.29,16.09v-0.01c-0.37,0.22-0.98,0.22-1.36,0
				v0.01l-22.06-12.93c-0.02-0.01-0.8-0.54-1.36-0.19c-0.61,0.38-0.51,1.21-0.51,1.21v1.93c0,1.93,1.13,2.41,1.82,2.75l22.01,12.9
				l0,0c0.38,0.22,0.99,0.22,1.36,0l27.29-16.09c0.19-0.11,0.28-0.25,0.28-0.4l0.11-0.87c0,0.14-0.09,0.29-0.28,0.4l-27.29,16.09
				c-0.19,0.11-0.43,0.17-0.68,0.17c-0.25,0-0.49-0.05-0.68-0.17v0c0,0,0,0,0,0l0,0l-21.73-12.7c-0.59-0.36-0.75-1.11-0.75-1.24
				v-2.06C79.6,229.35,80.66,229.94,80.79,230.02z"/>
			<path class="st26" d="M130.72,224.8l-22.1-12.95l0,0l-0.29-0.18c-0.31-0.18-0.78-0.17-1.15,0.03l-28.53,16.87
				c0.01,0,0.26-0.06,0.37-0.02l0.89,0.25l0.09-0.05l22.09,12.94c0.38,0.22,0.99,0.22,1.36,0l27.29-16.09
				C131.1,225.38,131.1,225.02,130.72,224.8z"/>
		</g>
		<path class="st11" d="M142.36,244.41c0,0-0.75-1.48-0.44-1.98c0.31-0.49,0.63-0.52,1.17-0.25c0.54,0.27,1.5,1.17,1.5,1.17
			L142.36,244.41z"/>
		<g class="st4">
			<g class="st4">
				<defs>
					<path id="SVGID_1_" class="st4" d="M120.71,308.26c0,0,0.11,37.88,0.11,38.1c0.01,0.59-0.56,1.18-1.69,1.48
						c-0.63,0.17-1.3,0.18-1.93,0.03c-1.17-0.27-1.75-0.85-1.76-1.45c0-0.22-0.11-34.69-0.11-34.69L120.71,308.26z"/>
				</defs>
				<clipPath id="SVGID_2_">
					<use xlink:href="#SVGID_1_"  style="overflow:visible;"/>
				</clipPath>
				<g class="st27">
					<path class="st20" d="M120.71,306.87l0.11,38.99c0.01,0.59-0.56,1.18-1.69,1.48c-0.63,0.17-1.3,0.18-1.93,0.03
						c-1.17-0.27-1.76-0.85-1.76-1.45l-0.11-38.99c0.01,0.57,0.56,1.14,1.64,1.42c0.92,0.24,1.86-0.13,2.57-0.77
						C120.17,307,120.72,307.33,120.71,306.87L120.71,306.87z"/>
				</g>
			</g>
		</g>
		<g>
			<g class="st4">
				<g>
					<path class="st7" d="M107.9,252.51l29.07-16.89c0.28-0.16,0.63-0.16,0.91,0l23.02,13.29c0.6,0.35,0.61,1.22,0,1.57
						l-29.07,16.89c-0.28,0.16-0.63,0.16-0.91,0l-23.02-13.29C107.29,253.73,107.29,252.86,107.9,252.51z"/>
				</g>
			</g>
		</g>
		<path class="st6" d="M115.13,246.9c0,0-9.68-18.82-14.36-22.96c-4.68-4.14-13.67-6.48-17.63-6.12
			c-3.96,0.36-12.41,11.34-14.57,23.21c0,0-2.33,31.59-3.16,43.27c-0.19,2.6,1.23,5.04,3.58,6.17c6.42,3.08,20.02,8.32,32.16,4.51
			c10.35-3.24,10.35-6.56,10.35-6.56l-5.63-32.35c0,0,6.57-4.69,8.68-6.53C115.82,248.45,115.13,246.9,115.13,246.9z"/>
		<g>
			<g>
				<path class="st28" d="M54.7,239.84c-1.52-0.85-3.62,0.24-4.52,0.83c-0.25,0.17-0.4,0.45-0.4,0.76l0.29,27.95
					c0,2.11,1.52,4.67,3.38,5.72l43.14,24.08c0.48,0.27,1.08,0.26,1.55-0.02c1.73-1.05,2.45-1.62,2.45-3.48l-0.29-26.59
					c0-2.11-1.52-4.67-3.38-5.72L54.7,239.84z"/>
			</g>
			<path class="st18" d="M52.1,239.47c0.35-0.21,0.78-0.27,1.25-0.2c0.01,0,0.02,0,0.03,0c0.07,0.01,0.14,0.03,0.22,0.05
				c0.03,0.01,0.07,0.02,0.1,0.03c0.07,0.02,0.14,0.04,0.22,0.07c0.02,0.01,0.04,0.02,0.06,0.02c0.16,0.06,42.9,23.86,42.9,23.86
				l0.02-0.01c0.01,0.01,0.02,0.01,0.03,0.02l0.01-0.01c1.83,1.02,3.32,3.51,3.38,5.59l0.01,0l0.27,27.18
				c0.01,1.12-0.55,1.9-0.74,2.06c0,0,0,0,0,0c-0.07,0.06-0.14,0.11-0.21,0.15l-1.68,0.97c0.32-0.19,0.26-1.61,0.25-1.72l-0.26-27.1
				c-0.02-0.22-0.03-0.45-0.06-0.7c-0.05-0.31-0.12-0.62-0.22-0.94c-0.02-0.06-0.04-0.12-0.07-0.19c-0.03-0.08-0.05-0.15-0.08-0.23
				c-0.05-0.12-0.1-0.24-0.15-0.35c-0.01-0.02-0.01-0.03-0.02-0.05c-0.06-0.13-0.12-0.26-0.19-0.39c0,0,0-0.01,0-0.01
				c-0.14-0.26-0.29-0.52-0.45-0.77c-0.01-0.01-0.02-0.02-0.02-0.03c-0.07-0.11-0.15-0.21-0.22-0.32c-0.09-0.12-0.18-0.24-0.28-0.35
				c-0.11-0.14-0.23-0.27-0.35-0.39c-0.06-0.06-0.12-0.12-0.18-0.18c-0.13-0.12-0.26-0.24-0.4-0.35c-0.22-0.18-0.43-0.33-0.71-0.48
				l0.01-0.01c0,0-42.27-23.52-42.34-23.56c-0.85-0.39-1.72-0.56-2.24-0.25L52.1,239.47z"/>
		</g>
		<g class="st4">
			<g class="st4">
				<defs>
					<path id="SVGID_3_" class="st4" d="M61.38,251.47c0,0.22,0,92.58,0.01,92.8c0,0.4-0.25,0.79-0.77,1.1
						c-1.04,0.62-2.74,0.64-3.81,0.04c-0.53-0.3-0.8-0.7-0.81-1.1c0-0.22,0-92.58-0.01-92.8c0,0.4,0.27,0.8,0.81,1.1
						c1.06,0.6,2.76,0.58,3.81-0.04C61.13,252.27,61.39,251.87,61.38,251.47z"/>
				</defs>
				<clipPath id="SVGID_4_">
					<use xlink:href="#SVGID_3_"  style="overflow:visible;"/>
				</clipPath>
				<g class="st29">
					<path class="st20" d="M61.38,251.47l0.01,92.29c0,0.4-0.25,0.79-0.77,1.1c-1.04,0.62-2.74,0.64-3.81,0.04
						c-0.53-0.3-0.8-0.7-0.81-1.1L56,251.51c0,0.4,0.27,0.8,0.81,1.1c1.06,0.6,2.76,0.58,3.81-0.04
						C61.13,252.27,61.39,251.87,61.38,251.47L61.38,251.47z"/>
				</g>
			</g>
			<g>
				<path class="st18" d="M60.58,250.37c1.06,0.6,1.08,1.58,0.04,2.2c-1.04,0.62-2.74,0.64-3.81,0.04c-1.06-0.6-1.08-1.58-0.04-2.2
					C57.81,249.79,59.52,249.77,60.58,250.37z"/>
			</g>
		</g>
		<g class="st4">
			<g class="st4">
				<defs>
					<path id="SVGID_5_" class="st4" d="M91.39,267.38c0,0.22,0,92.58,0.01,92.8c0,0.4-0.25,0.79-0.77,1.1
						c-1.04,0.62-2.74,0.64-3.81,0.04c-0.53-0.3-0.8-0.7-0.81-1.1c0-0.22,0-92.58-0.01-92.8c0,0.4,0.27,0.8,0.81,1.1
						c1.06,0.6,2.76,0.58,3.81-0.04C91.14,268.17,91.4,267.77,91.39,267.38z"/>
				</defs>
				<clipPath id="SVGID_6_">
					<use xlink:href="#SVGID_5_"  style="overflow:visible;"/>
				</clipPath>
				<g class="st30">
					<path class="st20" d="M91.39,267.38l0.01,92.29c0,0.4-0.25,0.79-0.77,1.1c-1.04,0.62-2.74,0.64-3.81,0.04
						c-0.53-0.3-0.8-0.7-0.81-1.1l-0.01-92.29c0,0.4,0.27,0.8,0.81,1.1c1.06,0.6,2.76,0.58,3.81-0.04
						C91.14,268.17,91.4,267.77,91.39,267.38L91.39,267.38z"/>
				</g>
			</g>
			<g>
				<path class="st18" d="M90.59,266.28c1.06,0.6,1.08,1.58,0.04,2.2c-1.04,0.62-2.74,0.64-3.81,0.04c-1.06-0.6-1.08-1.58-0.04-2.2
					C87.82,265.7,89.53,265.68,90.59,266.28z"/>
			</g>
		</g>
		<g>
			<path class="st11" d="M112.11,203.53c0,0,1.72,17.92-6.39,20.57c-8.11,2.65-8.11,2.65-8.11,2.65s-0.33-22.45,0-22.89
				S112.11,203.53,112.11,203.53z"/>
			<path class="st9" d="M88.14,188.16c0,0-10,2.9-11.93,13.41c-1.48,8.08-1.7,18.81-5.16,24.37c-3.47,5.57-8.18,13.75,3.06,21.59
				c9.55,6.67,28.64,4.21,34.6-1.53c5.96-5.74-0.24-19.68-0.24-25.27s1.56-6.97,1.56-6.97s3.51-3.67,3.51-11.14
				S103.36,182.65,88.14,188.16z"/>
		</g>
		<g>
			<g>
				<path class="st14" d="M134.4,250.07c-0.42,0.05-1.29-0.16-1.29-0.16s0.49-1.16,0.9-1.5l17.27-8.36
					c0.44-0.21,0.96-0.03,1.17,0.41c0.21,0.44,0.03,0.96-0.41,1.17l-17.27,8.36C134.65,250.04,134.53,250.07,134.4,250.07z"/>
			</g>
			<path class="st11" d="M134.4,250.07c-0.36,0.04-1.3,0.01-1.56,0c-0.04,0-0.07-0.04-0.03-0.09c0.18-0.29,0.75-1.21,1.09-1.49
				C133.89,248.48,133.52,249.36,134.4,250.07z"/>
			<path class="st14" d="M132.93,249.77c-0.05,0.09-0.1,0.16-0.13,0.21c-0.03,0.06-0.01,0.09,0.03,0.09c0.05,0,0.13,0,0.22,0.01
				C133.06,250.08,133.08,249.91,132.93,249.77z"/>
		</g>
		<path class="st11" d="M114.21,249.74l3.92,8.49c0,0,1.35,1.26,5.4,0c4.05-1.26,13.57-6.75,13.57-6.75s-0.48-1.97,0.33-3.41
			c0.81-1.44,1.45-2.98,1.98-2.7c0.53,0.28,0.84,0.81,0.53,1.71c-0.31,0.9-0.77,1.63-0.31,1.66c0.46,0.04,2.88-1.69,2.97-2.59
			l3.16-1.52c0,0,1.04,1.24,1.09,2.46c0.04,1.21-0.15,2.57-0.49,4.25c-0.34,1.68-2.95,4.83-5.65,6.26
			c-2.7,1.44-18.35,10.17-21.05,10.89c-2.7,0.72-5.31,4.32-9.09-2.34c-3.78-6.66-5.26-9.77-5.26-9.77L114.21,249.74z"/>
	</g>
</g>
</svg>
