<?xml version="1.0" encoding="utf-8"?>
<!-- Generator: Adobe Illustrator 24.0.2, SVG Export Plug-In . SVG Version: 6.00 Build 0)  -->
<svg version="1.1" id="Layer_1" xmlns="http://www.w3.org/2000/svg" xmlns:xlink="http://www.w3.org/1999/xlink" x="0px" y="0px"
	 viewBox="0 0 400 400" style="enable-background:new 0 0 400 400;" xml:space="preserve">
<style type="text/css">
	.st0{fill:#FAF7CB;}
	.st1{fill:url(#SVGID_1_);}
	.st2{fill:url(#SVGID_2_);}
	.st3{fill:url(#SVGID_3_);}
	.st4{fill:url(#SVGID_4_);}
	.st5{fill:url(#SVGID_5_);}
	.st6{fill:url(#SVGID_6_);}
	.st7{fill:url(#SVGID_7_);}
	.st8{fill:url(#SVGID_8_);}
	.st9{fill:url(#SVGID_9_);}
	.st10{fill:url(#SVGID_10_);}
	.st11{fill:url(#SVGID_11_);}
	.st12{fill:url(#SVGID_12_);}
	.st13{fill:url(#SVGID_13_);}
	.st14{fill:url(#SVGID_14_);}
	.st15{fill:url(#SVGID_15_);}
	.st16{fill:url(#SVGID_16_);}
	.st17{fill:url(#SVGID_17_);}
	.st18{fill:url(#SVGID_18_);}
	.st19{fill:url(#SVGID_19_);}
	.st20{fill:url(#SVGID_20_);}
	.st21{fill:url(#SVGID_21_);}
	.st22{fill:url(#SVGID_22_);}
	.st23{fill:url(#SVGID_23_);}
	.st24{fill:url(#SVGID_24_);}
	.st25{fill:url(#SVGID_25_);}
	.st26{fill:url(#SVGID_26_);}
	.st27{fill:url(#SVGID_27_);}
	.st28{fill:url(#SVGID_28_);}
	.st29{fill:url(#SVGID_29_);}
	.st30{fill:url(#SVGID_30_);}
	.st31{fill:url(#SVGID_31_);}
	.st32{fill:url(#SVGID_32_);}
	.st33{fill:url(#SVGID_33_);}
	.st34{fill:url(#SVGID_34_);}
	.st35{fill:url(#SVGID_35_);}
	.st36{fill:url(#SVGID_36_);}
	.st37{fill:url(#SVGID_37_);}
	.st38{fill:url(#SVGID_38_);}
	.st39{fill:url(#SVGID_39_);}
	.st40{fill:url(#SVGID_40_);}
	.st41{fill:url(#SVGID_41_);}
	.st42{fill:url(#SVGID_42_);}
	.st43{fill:url(#SVGID_43_);}
	.st44{fill:url(#SVGID_44_);}
	.st45{fill:url(#SVGID_45_);}
	.st46{fill:url(#SVGID_46_);}
	.st47{fill:url(#SVGID_47_);}
	.st48{fill:url(#SVGID_48_);}
	.st49{fill:url(#SVGID_49_);}
	.st50{fill:url(#SVGID_50_);}
	.st51{fill:url(#SVGID_51_);}
	.st52{fill:url(#SVGID_52_);}
	.st53{fill:url(#SVGID_53_);}
	.st54{fill:url(#SVGID_54_);}
	.st55{fill:url(#SVGID_55_);}
	.st56{fill:url(#SVGID_56_);}
	.st57{fill:url(#SVGID_57_);}
	.st58{fill:url(#SVGID_58_);}
	.st59{fill:url(#SVGID_59_);}
	.st60{fill:url(#SVGID_60_);}
	.st61{fill:url(#SVGID_61_);}
	.st62{fill:url(#SVGID_62_);}
	.st63{fill:url(#SVGID_63_);}
	.st64{fill:url(#SVGID_64_);}
	.st65{fill:url(#SVGID_65_);}
	.st66{fill:url(#SVGID_66_);}
	.st67{fill:url(#SVGID_67_);}
	.st68{fill:url(#SVGID_68_);}
	.st69{fill:url(#SVGID_69_);}
	.st70{fill:url(#SVGID_70_);}
	.st71{fill:url(#SVGID_71_);}
	.st72{fill:url(#SVGID_72_);}
	.st73{fill:url(#SVGID_73_);}
	.st74{fill:url(#SVGID_74_);}
	.st75{fill:url(#SVGID_75_);}
	.st76{fill:url(#SVGID_76_);}
	.st77{fill:url(#SVGID_77_);}
	.st78{fill:url(#SVGID_78_);}
	.st79{fill:url(#SVGID_79_);}
	.st80{fill:url(#SVGID_80_);}
	.st81{fill:url(#SVGID_81_);}
	.st82{fill:url(#SVGID_82_);}
	.st83{fill:url(#SVGID_83_);}
	.st84{fill:url(#SVGID_84_);}
	.st85{fill:url(#SVGID_85_);}
	.st86{fill:url(#SVGID_86_);}
	.st87{fill:url(#SVGID_87_);}
	.st88{fill:url(#SVGID_88_);}
	.st89{fill:url(#SVGID_89_);}
	.st90{fill:url(#SVGID_90_);}
	.st91{fill:url(#SVGID_91_);}
	.st92{fill:url(#SVGID_92_);}
	.st93{fill:url(#SVGID_93_);}
	.st94{fill:url(#SVGID_94_);}
	.st95{fill:url(#SVGID_95_);}
	.st96{fill:url(#SVGID_96_);}
	.st97{fill:url(#SVGID_97_);}
	.st98{fill:url(#SVGID_98_);}
</style>
<path class="st0" d="M381,152c0,0,30,165-264.65,233.12C70.81,395.65-3.32,288.54,43.43,237.34C125,148,75.95,111.2,128.93,70.83
	c29.95-22.82,70.23-1.15,126.55-31.27c50.77-27.16,123.97,84.3,125.17,110.52"/>
<g>
	<linearGradient id="SVGID_1_" gradientUnits="userSpaceOnUse" x1="198.4524" y1="74.5559" x2="234.0686" y2="74.5559">
		<stop  offset="0" style="stop-color:#FBB96A"/>
		<stop  offset="1" style="stop-color:#C78153"/>
	</linearGradient>
	<path class="st1" d="M233.91,99.69c-0.66,5.48-3.58,10.75-2.98,16.22c-1.45,0-2.79-0.89-3.68-2.08c-0.38-3.67,0.3-7.35,0.71-11.02
		c0.48-4.35,0.57-8.73,0.58-13.1c0.02-4.43-0.05-8.96-1.55-13.12c-2.03-5.64-6.45-10.06-9.27-15.35c-1.58-2.97-2.64-6.2-4.12-9.22
		c-0.21-0.43-0.42-0.85-0.66-1.28c-1.85-3.38-4.65-6.5-8.39-7.45l-0.04,0.05c-2.14-1.59-4.16-3.33-6.04-5.21
		c3.32,0.22,6.24,2.23,8.97,4.15c-2.33-2.24-4.44-4.71-6.3-7.35c1.55,0.46,3.04,1.12,4.42,1.98c-0.69-1.24-1.38-2.48-2.08-3.72
		c1.32,0.13,2.54,0.69,3.6,1.51c0.94,0.74,1.76,1.66,2.41,2.68c1.36,2.14,2.08,4.6,2.95,6.98c0.87,2.4,1.9,4.73,3.07,7
		c1.95,3.77,4.31,7.33,7.03,10.59c2.25,2.69,4.78,5.25,6.11,8.48c0.58,1.4,0.92,2.89,1.25,4.37c0.85,3.74,1.7,7.48,2.54,11.22
		C233.45,90.52,234.46,95.12,233.91,99.69z"/>
	<linearGradient id="SVGID_2_" gradientUnits="userSpaceOnUse" x1="227.2439" y1="262.072" x2="232.2053" y2="262.072">
		<stop  offset="0" style="stop-color:#FFFFFF"/>
		<stop  offset="1" style="stop-color:#96D7E3"/>
	</linearGradient>
	<path class="st2" d="M231.98,258.13c-0.22,3.86,0.26,7.73,0.22,11.59c-0.01,1.73-0.22,3.65-1.41,4.87c-0.35-0.1-0.7-0.2-1.05-0.3
		c-0.83-0.24-1.66-0.49-2.5-0.68c1.64-2.52,3.06-5.26,2.92-8.2c-0.09-1.84-0.81-3.64-0.72-5.48c0.09-1.77,0.9-3.41,1.46-5.09
		c0.57-1.67,0.86-3.61-0.03-5.14l0.26-0.11c0-0.02-0.01-0.03-0.01-0.04C232.66,252.01,232.15,255.21,231.98,258.13z"/>
	<linearGradient id="SVGID_3_" gradientUnits="userSpaceOnUse" x1="225.6361" y1="120.7169" x2="231.6364" y2="120.7169">
		<stop  offset="0" style="stop-color:#FFFFFF"/>
		<stop  offset="1" style="stop-color:#96D7E3"/>
	</linearGradient>
	<path class="st3" d="M230.93,115.91c0.05,0,0.1,0,0.14,0l0.31,0.18c0.4,1.62,0.33,3.35-0.19,4.93c-0.52,1.59-1.48,3-1.95,4.61
		c-0.37,1.25-0.4,2.57-0.39,3.87l-1.96,0.03c0-0.08-0.01-0.16-0.01-0.24c-0.06-1.77-0.87-3.43-1.14-5.18
		c-0.35-2.31,0.24-4.64,0.56-6.95c0.23-1.72,0.28-3.56-0.29-5.16l0.22-0.08c0.18,0.5,0.4,0.98,0.68,1.44
		c0.1,0.16,0.21,0.32,0.32,0.49C228.13,115.02,229.48,115.91,230.93,115.91z"/>
	<linearGradient id="SVGID_4_" gradientUnits="userSpaceOnUse" x1="185.3993" y1="175.8607" x2="231.6754" y2="175.8607">
		<stop  offset="0" style="stop-color:#223876"/>
		<stop  offset="0.0447" style="stop-color:#1A4176"/>
		<stop  offset="1" style="stop-color:#00646A"/>
	</linearGradient>
	<path class="st4" d="M193.84,202.64c-2.23,0.29-4.45,0.61-6.62,0.4c-0.01-4.44-0.02-8.89-0.49-13.32
		c-0.37-3.41-1.01-6.86-1.24-10.28c-0.2-2.8-0.12-5.59,0.6-8.3c1.08-4.09,3.55-7.69,4.68-11.76c0.72-2.57,0.88-5.29,0.49-7.92
		c3.91,0.36,7.94-0.55,11.82-1.43c4.85-1.11,9.97-2.18,14.73-0.71c1.55,0.48,3.03,1.22,4.65,1.38c0.37,0.04,0.73,0.04,1.1,0.02
		c0.66-0.04,1.3-0.18,1.91-0.41c0.09-0.03,0.17-0.06,0.26-0.11l0.35,0.03c2.23,2.7,2.59,6.49,2.3,9.97
		c-0.28,3.49-1.11,6.95-0.9,10.44c0.18,2.84,1.05,5.6,1.37,8.43c0.48,4.19-0.24,8.54,1.06,12.55c0.4,1.27,1.01,2.46,1.37,3.74
		c0.49,1.73,0.51,3.58,0.08,5.32c-0.9,0.22-1.64,0.85-2.46,1.29c-0.88,0.48-2.06,0.7-2.8,0.04c-0.44-0.39-0.61-0.99-0.87-1.51
		c-0.73-1.52-2.31-2.58-3.99-2.68c-0.85-0.04-1.84,0.08-2.43-0.54c-0.65-0.71-0.3-1.84,0.18-2.68c0.66-1.16,1.47-2.22,2.43-3.15
		c0.52-0.51,1.1-1,1.41-1.66c0.32-0.66,0.31-1.55-0.27-2.01c-0.55-0.45-1.5-0.42-1.81-1.07c-0.2-0.43,0.02-0.94,0.23-1.37
		c0.76-1.53,1.54-3.05,2.3-4.58c0.17-0.33,0.35-0.69,0.31-1.07c-0.06-0.65-0.74-1.08-1.37-1.12c-0.65-0.04-1.27,0.19-1.89,0.36
		c-0.86,0.23-1.75,0.36-2.64,0.37c-0.41,0-0.92-0.07-1.07-0.46c-0.13-0.31,0.05-0.66,0.22-0.94c1.68-2.81,3.37-5.62,5.05-8.44
		c0.38-0.63,0.58-1.7-0.13-1.87c-0.29-0.06-0.58,0.09-0.83,0.23c-1.3,0.78-2.56,1.64-3.75,2.57c-0.24,0.18-0.49,0.38-0.8,0.42
		c-0.91,0.11-1.28-1.14-1.23-2.06c0.21-3.83,1.8-7.62,1.06-11.38c-1.83,0.18-2.85,2.16-3.52,3.87c-1.68,4.32-3.23,8.7-4.8,13.07
		c-0.72,2.02-1.45,4.05-1.84,6.16c-0.05,0.27-0.1,0.54-0.13,0.81c-0.38,2.58-0.22,5.23-0.83,7.76c-0.39,1.6-1.08,3.11-1.42,4.72
		c-0.35,1.65-0.33,3.39,0.07,5.03c0.23,0.95,0.58,2.03,0.04,2.86c-0.71,1.09-2.32,0.86-3.61,0.71c-0.03,0-0.04-0.01-0.07-0.01
		C198.03,202.11,195.93,202.36,193.84,202.64z"/>
	<linearGradient id="SVGID_5_" gradientUnits="userSpaceOnUse" x1="206.0671" y1="181.4945" x2="231.3678" y2="181.4945">
		<stop  offset="0" style="stop-color:#223876"/>
		<stop  offset="0.0447" style="stop-color:#1A4176"/>
		<stop  offset="1" style="stop-color:#00646A"/>
	</linearGradient>
	<path class="st5" d="M226.79,204.89c-0.7,0.3-1.42,0.5-2.17,0.62c-1.03,0.16-2.08,0.14-3.11-0.04c-1.86-0.32-3.62-1.19-4.99-2.49
		c-0.38-0.37-0.74-0.76-1.16-1.1c-0.15-0.12-0.31-0.22-0.49-0.32c-1.07-0.6-2.49-0.52-3.4-1.35c-1.14-1.04-0.84-2.86-0.83-4.41
		c0.08-5.35-4.15-10.07-4.59-15.32c0.4-2.11,1.12-4.14,1.84-6.16c1.56-4.38,3.12-8.75,4.8-13.07c0.67-1.72,1.69-3.69,3.52-3.87
		c0.74,3.76-0.85,7.56-1.06,11.38c-0.05,0.92,0.32,2.17,1.23,2.06c0.31-0.04,0.56-0.24,0.8-0.42c1.19-0.93,2.44-1.79,3.75-2.57
		c0.25-0.14,0.54-0.3,0.83-0.23c0.71,0.17,0.5,1.24,0.13,1.87c-1.68,2.81-3.37,5.62-5.05,8.44c-0.17,0.29-0.35,0.64-0.22,0.94
		c0.15,0.39,0.66,0.46,1.07,0.46c0.89-0.01,1.78-0.13,2.64-0.37c0.62-0.17,1.24-0.4,1.89-0.36c0.64,0.04,1.31,0.48,1.37,1.12
		c0.04,0.38-0.13,0.74-0.31,1.07c-0.76,1.53-1.54,3.05-2.3,4.58c-0.22,0.43-0.43,0.94-0.23,1.37c0.31,0.65,1.26,0.62,1.81,1.07
		c0.58,0.46,0.59,1.36,0.27,2.01c-0.31,0.66-0.89,1.15-1.41,1.66c-0.95,0.93-1.77,1.99-2.43,3.15c-0.48,0.84-0.83,1.97-0.18,2.68
		c0.58,0.62,1.57,0.49,2.43,0.54c1.68,0.1,3.26,1.16,3.99,2.68c0.26,0.52,0.43,1.12,0.87,1.51c0.75,0.66,1.92,0.44,2.8-0.04
		c0.82-0.44,1.56-1.07,2.46-1.29c-0.04,0.16-0.08,0.31-0.13,0.48C230.18,202.81,228.6,204.13,226.79,204.89z"/>
	<linearGradient id="SVGID_6_" gradientUnits="userSpaceOnUse" x1="219.5758" y1="261.3981" x2="231.4376" y2="261.3981">
		<stop  offset="0" style="stop-color:#B12724"/>
		<stop  offset="1" style="stop-color:#EE4252"/>
	</linearGradient>
	<path class="st6" d="M231.13,249.55c0,0.02,0.01,0.03,0.01,0.04l-0.26,0.11c0.89,1.53,0.59,3.47,0.03,5.14
		c-0.56,1.68-1.37,3.32-1.46,5.09c-0.09,1.84,0.63,3.64,0.72,5.48c0.14,2.95-1.28,5.68-2.92,8.2c-1.17-0.29-2.35-0.49-3.55-0.54
		c-1.28-0.04-2.61,0.12-3.81,0.58l-0.04-0.1c-0.85-2.94,0.45-6.01,1.71-8.8c1.26-2.79,2.52-5.9,1.58-8.81
		c-0.39-1.22-1.16-2.36-1.47-3.58c0.11-1.18,0.34-2.31,0.97-3.21l0.41,0.12c2.46,1.25,5.53,1.23,8-0.04
		C231.06,249.34,231.09,249.44,231.13,249.55z"/>
	<linearGradient id="SVGID_7_" gradientUnits="userSpaceOnUse" x1="217.9268" y1="275.0332" x2="230.7928" y2="275.0332">
		<stop  offset="0" style="stop-color:#FFFFFF"/>
		<stop  offset="1" style="stop-color:#96D7E3"/>
	</linearGradient>
	<path class="st7" d="M227.24,273.61c0.84,0.2,1.67,0.44,2.5,0.68c0.35,0.1,0.7,0.2,1.05,0.3c-0.07,0.09-0.16,0.17-0.26,0.25
		c-0.67,0.57-1.54,0.86-2.37,1.12c-1.55,0.49-3.13,0.96-4.75,1.02c-1.62,0.07-3.32-0.28-4.59-1.28c-0.34-0.27-0.65-0.58-0.89-0.94
		c0.58-0.49,1.25-0.85,1.96-1.11c1.19-0.46,2.52-0.62,3.81-0.58C224.89,273.12,226.08,273.33,227.24,273.61z"/>
	<linearGradient id="SVGID_8_" gradientUnits="userSpaceOnUse" x1="221.2956" y1="223.6203" x2="230.356" y2="223.6203">
		<stop  offset="0" style="stop-color:#FBB96A"/>
		<stop  offset="1" style="stop-color:#C78153"/>
	</linearGradient>
	<path class="st8" d="M230.24,218.49c0.18,1.59,0.13,3.19,0.04,4.78c-0.31,6.27-0.9,12.62-0.4,18.84c-1.15,0.18-2.31,0.26-3.47,0.23
		c0.4-5.57-0.08-11.19-1.39-16.62c-1.63-6.72-4.55-13.46-3.51-20.26c1.02,0.19,2.08,0.21,3.11,0.04c0.75-0.12,1.46-0.32,2.17-0.62
		c0.8,2.95,1.61,5.88,2.41,8.83C229.62,215.29,230.06,216.87,230.24,218.49z"/>
	<linearGradient id="SVGID_9_" gradientUnits="userSpaceOnUse" x1="222.6348" y1="246.0974" x2="231.0444" y2="246.0974">
		<stop  offset="0" style="stop-color:#FFFFFF"/>
		<stop  offset="1" style="stop-color:#96D7E3"/>
	</linearGradient>
	<path class="st9" d="M226.42,242.35c1.16,0.03,2.32-0.05,3.47-0.23c0.19,2.4,0.55,4.77,1.16,7.12c-2.46,1.27-5.53,1.28-8,0.04
		l-0.41-0.12c0.17-0.24,0.36-0.46,0.58-0.66h0.1c0-2.17-0.13-4.33-0.41-6.48C224.06,242.22,225.23,242.34,226.42,242.35z"/>
	<linearGradient id="SVGID_10_" gradientUnits="userSpaceOnUse" x1="223.0287" y1="140.1147" x2="228.9722" y2="140.1147">
		<stop  offset="0" style="stop-color:#FFFFFF"/>
		<stop  offset="1" style="stop-color:#96D7E3"/>
	</linearGradient>
	<path class="st10" d="M228.96,135.62c0.03,1.19,0.04,2.41-0.35,3.54c-0.42,1.21-1.3,2.24-1.68,3.46c-0.58,1.81,0.01,3.77-0.07,5.67
		c-0.02,0.52-0.11,1.07-0.45,1.46c-0.18,0.21-0.42,0.36-0.67,0.47c-0.09,0.04-0.17,0.08-0.26,0.11c-0.61,0.23-1.26,0.38-1.91,0.41
		c0.18-0.47,0.54-0.89,0.76-1.35c0.57-1.13,0.36-2.5-0.05-3.69c-0.4-1.2-1-2.35-1.18-3.6c-0.65-4.39,3.8-8.16,3.8-12.56l1.96-0.03
		c0,0.27,0,0.55,0.01,0.82C228.9,132.08,228.92,133.85,228.96,135.62z"/>
	<linearGradient id="SVGID_11_" gradientUnits="userSpaceOnUse" x1="200.5416" y1="78.57" x2="228.5307" y2="78.57">
		<stop  offset="0" style="stop-color:#E68B48"/>
		<stop  offset="1" style="stop-color:#AB6440"/>
	</linearGradient>
	<path class="st11" d="M223.81,89.71c-0.1-0.66-0.23-1.31-0.4-1.95c-0.22-0.86-0.5-1.71-0.81-2.54c-0.85-2.32-1.98-4.55-2.98-6.8
		c-0.21-0.47-0.41-0.93-0.6-1.41c-0.63-1.46-1.2-2.93-1.75-4.42c-1.59-4.29-2.92-8.67-4.22-13.05c-0.36-1.19-0.77-2.48-1.76-3.25
		c-0.5-0.4-1.13-0.63-1.67-1c-2.13-1.45-2.35-4.52-3.97-6.53c-0.12-0.14-0.23-0.27-0.36-0.4c-0.58-0.61-1.3-1.13-1.99-1.64
		c-1.12-0.84-2.22-1.68-2.74-2.95c2.08-0.05,4.16,0.32,6.08,1.11c-0.73-0.49-1.44-0.99-2.14-1.51l0.04-0.05
		c3.74,0.94,6.54,4.07,8.39,7.45c0.23,0.42,0.45,0.84,0.66,1.28c1.48,3.02,2.54,6.24,4.12,9.22c2.82,5.28,7.24,9.7,9.27,15.35
		c1.5,4.16,1.57,8.69,1.55,13.12c-0.01,4.37-0.1,8.75-0.58,13.1c-0.41,3.67-1.09,7.35-0.71,11.02c-0.12-0.16-0.22-0.32-0.32-0.49
		c-0.28-0.46-0.5-0.93-0.68-1.44c-0.41-1.09-0.65-2.26-0.87-3.41c-0.57-2.95-1.14-5.89-1.72-8.84c-0.17-0.87-0.36-1.77-0.68-2.59
		C224.02,94.81,224.18,92.21,223.81,89.71z"/>
	<linearGradient id="SVGID_12_" gradientUnits="userSpaceOnUse" x1="186.5885" y1="123.0168" x2="226.8935" y2="123.0168">
		<stop  offset="0" style="stop-color:#B12724"/>
		<stop  offset="1" style="stop-color:#EE4252"/>
	</linearGradient>
	<path class="st12" d="M191.26,151.47c-0.98-0.09-1.95-0.26-2.91-0.53c-0.26-0.07-0.53-0.16-0.79-0.29
		c-0.38-0.16-0.73-0.4-0.97-0.69l0.63-0.27c0.03,0.01,0.05,0.01,0.08,0.01c1.36,0.21,2.73-0.35,3.94-1.02
		c6.44-3.59,10.33-10.74,11.55-18.01c0.35-2.11,0.53-4.32,1.58-6.19c1.35-2.39,3.87-3.8,6.15-5.33c2.19-1.46,4.29-3.15,5.8-5.31
		c2.03-2.88,2.91-6.38,3.76-9.8c0.73-2.94,1.45-6.1,0.36-8.92l-0.1-0.13c0.19-0.14,0.37-0.29,0.55-0.43
		c0.03-0.02,0.04-0.04,0.07-0.05l0.22,0.23c0.36,0.23,0.7,0.5,1.01,0.81l-0.04,0.05c0.37,0.45,0.63,0.95,0.84,1.48
		c0.32,0.82,0.51,1.72,0.68,2.59c0.58,2.95,1.15,5.89,1.72,8.84c0.22,1.15,0.46,2.33,0.87,3.41l-0.22,0.08
		c0.57,1.6,0.52,3.44,0.29,5.16c-0.31,2.32-0.91,4.65-0.56,6.95c0.27,1.75,1.08,3.41,1.14,5.18c0,0.08,0.01,0.16,0.01,0.24
		c0,4.4-4.45,8.17-3.8,12.56c0.18,1.25,0.77,2.4,1.18,3.6c0.41,1.19,0.62,2.56,0.05,3.69c-0.22,0.46-0.58,0.88-0.76,1.35
		c-0.37,0.03-0.73,0.02-1.1-0.02c-1.62-0.16-3.1-0.91-4.65-1.38c-4.76-1.47-9.88-0.4-14.73,0.71
		C199.2,150.92,195.17,151.83,191.26,151.47z"/>
	<linearGradient id="SVGID_13_" gradientUnits="userSpaceOnUse" x1="215.3434" y1="222.1129" x2="226.5522" y2="222.1129">
		<stop  offset="0" style="stop-color:#E68B48"/>
		<stop  offset="1" style="stop-color:#AB6440"/>
	</linearGradient>
	<path class="st13" d="M225.02,225.72c1.31,5.43,1.79,11.05,1.39,16.62c-1.19-0.01-2.35-0.13-3.51-0.34
		c-0.45-3.46-1.25-6.87-2.4-10.16c-0.5-1.42-1.06-2.83-1.41-4.29c-0.99-4.28-0.07-8.83-1.19-13.07c-0.54-2.04-1.54-3.94-2.05-5.99
		c-0.54-2.15-0.54-4.39-0.49-6.6c0.42,0.33,0.78,0.73,1.16,1.1c1.37,1.3,3.13,2.17,4.99,2.49C220.48,212.27,223.4,219,225.02,225.72
		z"/>
	<linearGradient id="SVGID_14_" gradientUnits="userSpaceOnUse" x1="220.601" y1="88.2329" x2="223.8118" y2="88.2329">
		<stop  offset="0" style="stop-color:#223876"/>
		<stop  offset="0.0447" style="stop-color:#1A4176"/>
		<stop  offset="1" style="stop-color:#00646A"/>
	</linearGradient>
	<path class="st14" d="M223.41,87.76c0.17,0.64,0.31,1.29,0.4,1.95c-0.18,0.54-0.41,1.06-0.71,1.55l-0.45-0.22
		c0.11-0.22,0.22-0.42,0.32-0.64c0.04-0.1,0.1-0.22,0.06-0.31c-0.03-0.11-0.13-0.17-0.22-0.22c-0.39-0.19-0.84-0.23-1.25-0.37
		c-0.41-0.13-0.83-0.4-0.93-0.82c-0.1-0.36,0.06-0.73,0.22-1.06c0.46-0.87,1.04-1.69,1.74-2.39
		C222.9,86.05,223.18,86.89,223.41,87.76z"/>
	<linearGradient id="SVGID_15_" gradientUnits="userSpaceOnUse" x1="217.3798" y1="263.559" x2="223.4622" y2="263.559">
		<stop  offset="0" style="stop-color:#FFFFFF"/>
		<stop  offset="1" style="stop-color:#96D7E3"/>
	</linearGradient>
	<path class="st15" d="M223.14,255.94c0.93,2.91-0.32,6.03-1.58,8.81c-1.26,2.79-2.56,5.86-1.71,8.8l0.04,0.1
		c-0.71,0.26-1.37,0.63-1.96,1.11c-0.28-0.4-0.48-0.85-0.53-1.33c-0.07-0.65,0.1-1.28,0.26-1.91c0.88-3.32,1.75-6.64,2.63-9.96
		c0.54-2.05,1.09-4.12,1.22-6.24c0.05-0.95,0.05-1.98,0.15-2.96C221.98,253.58,222.75,254.72,223.14,255.94z"/>
	<linearGradient id="SVGID_16_" gradientUnits="userSpaceOnUse" x1="205.4352" y1="87.4198" x2="223.0508" y2="87.4198">
		<stop  offset="0" style="stop-color:#FBB96A"/>
		<stop  offset="1" style="stop-color:#C78153"/>
	</linearGradient>
	<path class="st16" d="M216.86,91.52c-2.59,1.18-5.26,2.31-8.1,2.36c-0.18,0-0.37,0-0.56-0.02c-1-0.07-2-0.4-2.46-1.25
		c-0.27-0.49-0.3-1.09-0.31-1.65c-0.04-3.44,0.4-6.95,1.94-10.04c1.47-2.94,4.05-5.44,7.21-6.3c0,0.01,0,0.01,0,0.02
		c0.02,0.31,0.24,0.58,0.49,0.78c0.68,0.54,1.56,0.72,2.41,0.94c0.53,0.14,1.08,0.33,1.54,0.63c0.19,0.48,0.4,0.94,0.6,1.41
		c1.01,2.26,2.13,4.48,2.98,6.8c-0.7,0.7-1.28,1.52-1.74,2.39c-0.16,0.33-0.32,0.7-0.22,1.06c0.11,0.42,0.52,0.68,0.93,0.82
		c0.41,0.13,0.86,0.18,1.25,0.37c0.1,0.05,0.2,0.12,0.22,0.22c0.04,0.1-0.02,0.22-0.06,0.31c-0.11,0.22-0.22,0.42-0.32,0.64
		c-0.54,1.05-1.07,2.11-1.6,3.17c-0.05,0.12-0.12,0.22-0.17,0.34c-0.18,0.14-0.36,0.29-0.55,0.43c-2.68,2.14-5.5,4.22-8.81,5.01
		c-0.48,0.12-0.99,0.2-1.49,0.22C212.69,97.64,215,94.71,216.86,91.52z"/>
	<linearGradient id="SVGID_17_" gradientUnits="userSpaceOnUse" x1="187.2982" y1="122.3559" x2="220.9896" y2="122.3559">
		<stop  offset="0" style="stop-color:#F27037"/>
		<stop  offset="1" style="stop-color:#EE4252"/>
	</linearGradient>
	<path class="st17" d="M210.03,100.21c0.5-0.03,1.02-0.11,1.49-0.22c3.32-0.79,6.14-2.88,8.81-5.01l0.1,0.13
		c1.09,2.82,0.37,5.98-0.36,8.92c-0.84,3.42-1.73,6.92-3.76,9.8c-1.52,2.16-3.61,3.85-5.8,5.31c-2.28,1.53-4.81,2.94-6.15,5.33
		c-1.05,1.87-1.23,4.08-1.58,6.19c-1.21,7.28-5.1,14.42-11.55,18.01c-1.2,0.67-2.58,1.23-3.94,1.02l0.03-0.21
		c1.19-3.87,4.96-7,4.68-11.05c-0.11-1.49-0.77-2.9-0.88-4.39c-0.19-2.57,1.29-4.94,1.86-7.46c1.08-4.84-1.28-9.98-0.1-14.8
		c0.22-0.87,0.53-1.69,0.93-2.47c2.41-4.77,7.65-8.2,9.36-13.34c0.02,0.01,0.04,0.02,0.05,0.03c0.58,0.3,1.28,0.17,1.91,0.31
		c0.12,0.03,0.23,0.06,0.34,0.13l-0.04,0.1c0.1,0.65,0.31,1.28,0.64,1.84c0.22,0.39,0.52,0.74,0.87,1.02
		C207.81,100.08,208.92,100.28,210.03,100.21z"/>
	<linearGradient id="SVGID_18_" gradientUnits="userSpaceOnUse" x1="214.5843" y1="74.7919" x2="219.014" y2="74.7919">
		<stop  offset="0" style="stop-color:#223876"/>
		<stop  offset="1" style="stop-color:#00646A"/>
	</linearGradient>
	<path class="st18" d="M214.58,74.63c-0.01-0.35,0.23-0.66,0.5-0.9c0.62-0.53,1.42-0.8,2.17-1.15c0.55,1.49,1.12,2.96,1.75,4.42
		c-0.46-0.3-1.01-0.49-1.54-0.63c-0.84-0.22-1.73-0.4-2.41-0.94c-0.24-0.2-0.47-0.47-0.49-0.78
		C214.58,74.64,214.58,74.64,214.58,74.63z"/>
	<linearGradient id="SVGID_19_" gradientUnits="userSpaceOnUse" x1="206.0761" y1="95.8723" x2="216.8577" y2="95.8723">
		<stop  offset="0" style="stop-color:#E68B48"/>
		<stop  offset="1" style="stop-color:#AB6440"/>
	</linearGradient>
	<path class="st19" d="M208.76,93.88c2.83-0.05,5.51-1.19,8.1-2.36c-1.86,3.19-4.17,6.12-6.83,8.69c-1.11,0.07-2.22-0.13-3.08-0.81
		c-0.35-0.28-0.65-0.63-0.87-1.02c0.98-1.35,1.71-2.89,2.13-4.52C208.39,93.88,208.58,93.88,208.76,93.88z"/>
	<linearGradient id="SVGID_20_" gradientUnits="userSpaceOnUse" x1="183.5157" y1="40.7161" x2="207.4148" y2="40.7161">
		<stop  offset="0" style="stop-color:#F27037"/>
		<stop  offset="1" style="stop-color:#EE4252"/>
	</linearGradient>
	<path class="st20" d="M188.06,50.24l-0.18,0.01c-2.68-2.33-4.37-5.75-4.37-9.58c0-7,5.67-12.67,12.67-12.67
		c4.75,0,8.89,2.61,11.06,6.49l-0.18,0.23c-1.06-0.82-2.28-1.38-3.6-1.51c0.69,1.24,1.38,2.48,2.08,3.72
		c-1.38-0.85-2.88-1.52-4.42-1.98c1.86,2.64,3.97,5.11,6.3,7.35c-2.72-1.92-5.64-3.93-8.97-4.15c1.88,1.88,3.9,3.62,6.04,5.21
		c0.7,0.52,1.41,1.02,2.14,1.51c-1.92-0.79-4.01-1.17-6.08-1.11c0.52,1.27,1.62,2.11,2.74,2.95c-0.68,0.96-1.42,1.86-2.23,2.71
		c-0.4,0.42-0.81,0.84-1.32,1.12c-1.65,0.91-3.79,0.16-5.54,0.87c-1.04,0.42-1.81,1.31-2.79,1.86c-0.01,0-0.01,0.01-0.02,0.01
		c-0.16,0.1-0.34,0.17-0.51,0.14c-0.2-0.04-0.34-0.19-0.48-0.33c-0.77-0.84-1.55-1.68-2.32-2.52
		C188.07,50.47,188.06,50.35,188.06,50.24z"/>
	<linearGradient id="SVGID_21_" gradientUnits="userSpaceOnUse" x1="179.9979" y1="75.6006" x2="205.2765" y2="75.6006">
		<stop  offset="0" style="stop-color:#FBB96A"/>
		<stop  offset="1" style="stop-color:#C78153"/>
	</linearGradient>
	<path class="st21" d="M205.28,48.35l-0.18,0.18c-1.79,2.42-3.64,4.9-6.18,6.5c-1.41,0.88-3,1.48-4.3,2.51
		c-2.35,1.85-3.49,4.8-4.47,7.62c-1.75,4.95-3.38,9.95-4.88,14.99c-0.13,0.44-0.26,0.89-0.22,1.35c0.07,0.59,0.43,1.11,0.82,1.57
		c2.05,2.44,4.84,4.11,7.45,5.94c2.43,1.71,4.73,3.59,6.87,5.63c-0.14,0.14-0.27,0.31-0.39,0.48c-1.99,2.84-3.23,6.13-4.48,9.38
		l-0.13-0.05c-0.13-2.99-2.08-5.62-4.33-7.6s-4.88-3.5-7.06-5.55c-2.19-2.05-3.96-4.85-3.77-7.84c0.11-1.8,0.92-3.48,1.67-5.11
		c3.77-8.12,6.74-16.59,9.69-25.05c0.01,0,0.01-0.01,0.02-0.01c0.98-0.55,1.75-1.44,2.79-1.86c1.75-0.71,3.89,0.04,5.54-0.87
		c0.51-0.28,0.93-0.7,1.32-1.12c0.81-0.85,1.55-1.75,2.23-2.71C203.97,47.22,204.69,47.74,205.28,48.35z"/>
	<linearGradient id="SVGID_22_" gradientUnits="userSpaceOnUse" x1="193.3988" y1="101.7917" x2="203.1741" y2="101.7917">
		<stop  offset="0" style="stop-color:#FFFFFF"/>
		<stop  offset="1" style="stop-color:#96D7E3"/>
	</linearGradient>
	<path class="st22" d="M200.18,94.64c0.18-0.18,0.39-0.32,0.63-0.36c1-0.18,1.48,1.19,2.36,1.7c-1.71,5.14-6.95,8.57-9.36,13.34
		l-0.41-0.21c0.69-1.5,1.3-3.05,1.91-4.62c1.26-3.25,2.5-6.54,4.48-9.38C199.91,94.95,200.04,94.78,200.18,94.64z"/>
	<linearGradient id="SVGID_23_" gradientUnits="userSpaceOnUse" x1="191.1895" y1="220.7344" x2="200.1103" y2="220.7344">
		<stop  offset="0" style="stop-color:#FBB96A"/>
		<stop  offset="1" style="stop-color:#C78153"/>
	</linearGradient>
	<path class="st23" d="M193.84,202.64c2.09-0.28,4.2-0.53,6.27-0.29c-1.93,2.83-3.79,5.8-4.38,9.16c-0.3,1.73-0.24,3.49-0.13,5.23
		c0.23,3.49,0.72,6.96,0.8,10.46c0.09,3.9-0.31,7.83-0.5,11.73c-1.55,0.26-3.13,0.33-4.69,0.22l0.03-0.32
		c1.93-6.88-0.46-14.22,0.01-21.36C191.57,212.46,193.3,207.64,193.84,202.64z"/>
	<linearGradient id="SVGID_24_" gradientUnits="userSpaceOnUse" x1="181.7501" y1="258.4537" x2="198.0181" y2="258.4537">
		<stop  offset="0" style="stop-color:#B12724"/>
		<stop  offset="1" style="stop-color:#EE4252"/>
	</linearGradient>
	<path class="st24" d="M185.17,255.74h-0.03c0.02-2.13,0.04-4.26,0.05-6.39c0.01-0.4,0.02-0.81,0.2-1.15
		c0.23-0.44,0.71-0.69,1.16-0.92c0.42-0.22,0.84-0.42,1.28-0.62c0.73-0.31,1.46-0.57,2.25-0.65c1.25-0.13,2.63,0.29,3.31,1.35
		c0.09,0.13,0.16,0.28,0.22,0.43c0.25,0.6,0.3,1.3,0.23,1.96c-0.32,3.38-3.1,6.16-3.3,9.54c-0.11,1.77,0.5,3.5,0.7,5.26
		c0.15,1.39,0.04,2.82-0.34,4.18c0.89-0.25,1.49-1.11,1.74-2.01c0.24-0.89,0.2-1.83,0.22-2.76c0.04-2.44,0.51-4.89,1.38-7.17
		c0.64-1.65,1.5-3.29,1.58-5.06c0.07-1.35-0.49-2.83-1.54-3.58l0.16-0.21c0.72,0.57,1.46,1.18,2.07,1.87
		c0.85,0.95,1.47,2.04,1.5,3.31c0.04,1.79-1.14,3.33-1.89,4.96c-0.61,1.32-0.93,2.76-0.97,4.2c-0.04,2.03,0.46,4.18-0.4,6.01
		c-0.36,0.76-0.93,1.4-1.55,1.99c-0.27,0.05-0.56,0.04-0.84,0.03c-1.99-0.11-3.97-0.22-5.96-0.32c-0.73-0.04-1.47-0.08-2.18,0.07
		c-0.59,0.13-1.17,0.4-1.57,0.84c-0.8-1.28-1.02-2.95-0.83-4.48c0.26-2.02,1.13-3.9,1.93-5.77
		C184.41,259.08,185.03,257.43,185.17,255.74z"/>
	<linearGradient id="SVGID_25_" gradientUnits="userSpaceOnUse" x1="187.7295" y1="243.941" x2="196.5255" y2="243.941">
		<stop  offset="0" style="stop-color:#FFFFFF"/>
		<stop  offset="1" style="stop-color:#96D7E3"/>
	</linearGradient>
	<path class="st25" d="M194.45,247.95l-0.16,0.21c-0.21-0.15-0.43-0.28-0.68-0.36c-0.06-0.15-0.13-0.3-0.22-0.43
		c-0.67-1.06-2.06-1.47-3.31-1.35c-0.78,0.08-1.52,0.33-2.25,0.65l-0.1-0.25c0.31-2.78,0.37-5.58,0.15-8.36h0.06
		c0.46,0.66,1.32,0.86,2.11,0.97c0.39,0.05,0.77,0.09,1.16,0.13c1.56,0.12,3.14,0.04,4.69-0.22c-0.18,3.66-0.17,7.3,0.62,10.87
		l-0.01,0.01C195.91,249.13,195.17,248.52,194.45,247.95z"/>
	<linearGradient id="SVGID_26_" gradientUnits="userSpaceOnUse" x1="190.529" y1="258.2715" x2="195.8308" y2="258.2715">
		<stop  offset="0" style="stop-color:#FFFFFF"/>
		<stop  offset="1" style="stop-color:#96D7E3"/>
	</linearGradient>
	<path class="st26" d="M194.29,248.16c1.04,0.75,1.61,2.24,1.54,3.58c-0.08,1.77-0.94,3.41-1.58,5.06
		c-0.87,2.28-1.35,4.73-1.38,7.17c-0.02,0.93,0.03,1.87-0.22,2.76c-0.25,0.9-0.85,1.76-1.74,2.01c0.38-1.36,0.49-2.79,0.34-4.18
		c-0.2-1.76-0.81-3.5-0.7-5.26c0.2-3.38,2.97-6.16,3.3-9.54c0.06-0.66,0.02-1.36-0.23-1.96
		C193.86,247.88,194.08,248.01,194.29,248.16z"/>
	<linearGradient id="SVGID_27_" gradientUnits="userSpaceOnUse" x1="175.2445" y1="82.065" x2="195.3125" y2="82.065">
		<stop  offset="0" style="stop-color:#E68B48"/>
		<stop  offset="1" style="stop-color:#AB6440"/>
	</linearGradient>
	<path class="st27" d="M195.31,104.5c-0.61,1.56-1.22,3.12-1.91,4.62c-0.74,1.55-1.56,3.05-2.58,4.44c-0.14-3.08,0.69-6.3-0.56-9.09
		c-1.4-3.15-4.95-4.7-7.22-7.3c-0.96-1.1-1.69-2.38-2.4-3.65c-1.32-2.34-2.63-4.67-3.94-7.01c-0.49-0.85-0.97-1.72-1.23-2.66
		c-0.51-1.9-0.06-3.94,0.62-5.8c1-2.7,2.47-5.2,3.85-7.74c2.22-4.02,4.25-8.13,6.11-12.33c1.04-2.36,2.05-4.84,2.02-7.4
		c0.77,0.84,1.55,1.68,2.32,2.52c0.13,0.14,0.28,0.3,0.48,0.33c0.17,0.03,0.35-0.04,0.51-0.14c-2.96,8.46-5.92,16.93-9.69,25.05
		c-0.75,1.64-1.56,3.32-1.67,5.11c-0.19,2.99,1.58,5.8,3.77,7.84c2.18,2.05,4.81,3.58,7.06,5.55s4.2,4.61,4.33,7.6L195.31,104.5z"/>
	<linearGradient id="SVGID_28_" gradientUnits="userSpaceOnUse" x1="186.2404" y1="129.5353" x2="193.8121" y2="129.5353">
		<stop  offset="0" style="stop-color:#FFFFFF"/>
		<stop  offset="1" style="stop-color:#96D7E3"/>
	</linearGradient>
	<path class="st28" d="M190.82,113.61c0-0.03,0-0.04,0-0.06c1.02-1.38,1.84-2.88,2.58-4.44l0.41,0.21c-0.4,0.78-0.71,1.6-0.93,2.47
		c-1.19,4.82,1.18,9.95,0.1,14.8c-0.57,2.52-2.05,4.89-1.86,7.46c0.11,1.49,0.77,2.9,0.88,4.39c0.28,4.05-3.49,7.18-4.68,11.05
		l-0.03,0.21c-0.03,0-0.05,0-0.08-0.01l-0.63,0.27c-0.13-0.17-0.24-0.36-0.3-0.58c-0.21-0.77,0.25-1.55,0.6-2.26
		c2.64-5.5-0.49-12.26,1.37-18.07c0.52-1.63,1.43-3.15,1.58-4.86c0.16-1.87-0.61-3.69-0.68-5.57
		C189.09,116.83,189.71,115.02,190.82,113.61z"/>
	<linearGradient id="SVGID_29_" gradientUnits="userSpaceOnUse" x1="182.6442" y1="271.5839" x2="193.2011" y2="271.5839">
		<stop  offset="0" style="stop-color:#FFFFFF"/>
		<stop  offset="1" style="stop-color:#96D7E3"/>
	</linearGradient>
	<path class="st29" d="M193.2,270.29c-0.02,0.02-0.03,0.03-0.04,0.04c-1.29,1.22-2.81,2.27-4.55,2.7c-1.73,0.42-3.69,0.14-5.04-1.02
		c-0.37-0.31-0.67-0.68-0.93-1.1c0.4-0.44,0.98-0.72,1.57-0.84c0.71-0.15,1.46-0.12,2.18-0.07c1.99,0.11,3.97,0.22,5.96,0.32
		C192.64,270.33,192.93,270.34,193.2,270.29z"/>
	<linearGradient id="SVGID_30_" gradientUnits="userSpaceOnUse" x1="185.4479" y1="220.8999" x2="193.8391" y2="220.8999">
		<stop  offset="0" style="stop-color:#E68B48"/>
		<stop  offset="1" style="stop-color:#AB6440"/>
	</linearGradient>
	<path class="st30" d="M193.84,202.64c-0.54,5-2.26,9.82-2.59,14.83c-0.47,7.13,1.92,14.47-0.01,21.36l-0.03,0.32
		c-0.39-0.04-0.77-0.07-1.16-0.13c-0.79-0.11-1.65-0.31-2.11-0.97h-0.06c-0.16-2.34-0.51-4.67-1.04-6.96
		c-0.34-1.44-0.74-2.87-1-4.32c-0.48-2.69-0.42-5.44-0.34-8.18c0.15-5.23,0.45-10.45,0.86-15.66c0.29,0.04,0.57,0.08,0.85,0.11
		C189.39,203.25,191.61,202.93,193.84,202.64z"/>
	<linearGradient id="SVGID_31_" gradientUnits="userSpaceOnUse" x1="183.1252" y1="165.1189" x2="191.4709" y2="165.1189">
		<stop  offset="0" style="stop-color:#223876"/>
		<stop  offset="0.0447" style="stop-color:#1A4176"/>
		<stop  offset="1" style="stop-color:#00646A"/>
	</linearGradient>
	<path class="st31" d="M191.26,151.47c0.4,2.63,0.23,5.35-0.49,7.92c-1.13,4.07-3.6,7.67-4.68,11.76c-0.72,2.71-0.8,5.5-0.6,8.3
		l-1.7,0.13c-0.18-2.67-0.76-5.32-0.66-8c0.14-3.65,1.56-7.1,2.58-10.59c0.98-3.37,1.6-6.85,1.84-10.35
		c0.26,0.13,0.53,0.22,0.79,0.29C189.31,151.21,190.28,151.38,191.26,151.47z"/>
	<linearGradient id="SVGID_32_" gradientUnits="userSpaceOnUse" x1="183.248" y1="191.2507" x2="187.2174" y2="191.2507">
		<stop  offset="0" style="stop-color:#223876"/>
		<stop  offset="0.0447" style="stop-color:#1A4176"/>
		<stop  offset="1" style="stop-color:#00646A"/>
	</linearGradient>
	<path class="st32" d="M186.36,202.94c-0.42-0.07-0.84-0.17-1.26-0.29c-0.63-0.18-1.32-0.49-1.52-1.12
		c-0.1-0.31-0.06-0.64-0.03-0.96c0.17-2.03-0.16-4.07-0.27-6.11c-0.27-4.96,0.83-9.92,0.5-14.87l1.7-0.13
		c0.23,3.41,0.87,6.86,1.24,10.28c0.47,4.42,0.48,8.88,0.49,13.32C186.93,203.02,186.65,202.98,186.36,202.94z"/>
</g>
<g>
	<linearGradient id="SVGID_33_" gradientUnits="userSpaceOnUse" x1="162.7883" y1="335.5034" x2="175" y2="335.5034">
		<stop  offset="0" style="stop-color:#FFFFFF"/>
		<stop  offset="1" style="stop-color:#96D7E3"/>
	</linearGradient>
	<path class="st33" d="M174.59,331.89c0.23,0.8,0.47,1.61,0.39,2.44c-0.1,1.05-0.72,1.99-1.51,2.69c-0.79,0.7-1.73,1.2-2.66,1.68
		c-0.92,0.48-1.87,0.97-2.9,1.05c-1.3,0.09-2.58-0.52-3.57-1.38c-0.6-0.52-1.09-1.12-1.55-1.75c0.1,0.11,0.23,0.21,0.35,0.31
		c0.99,0.75,2.33,0.85,3.56,0.69c2.59-0.33,5.04-1.74,6.63-3.81c0.56-0.74,1.04-1.63,1.07-2.55
		C174.46,331.46,174.53,331.68,174.59,331.89z"/>
	<linearGradient id="SVGID_34_" gradientUnits="userSpaceOnUse" x1="157.4349" y1="326.2378" x2="174.4046" y2="326.2378">
		<stop  offset="0" style="stop-color:#B12724"/>
		<stop  offset="1" style="stop-color:#EE4252"/>
	</linearGradient>
	<path class="st34" d="M174.4,331.25c-0.03,0.92-0.51,1.81-1.07,2.55c-1.59,2.07-4.04,3.48-6.63,3.81
		c-1.23,0.16-2.57,0.06-3.56-0.69c-0.12-0.1-0.24-0.19-0.35-0.31c-0.02-0.01-0.02-0.02-0.02-0.03c-0.3-0.39-0.57-0.8-0.84-1.22
		c-0.27-0.52-0.47-1.09-0.65-1.63c-1.33-3.94-2.61-7.9-3.84-11.87l0.04-0.02c0.82-1.05,1.04-2.48,0.84-3.8
		c-0.02-0.09-0.03-0.17-0.04-0.26l0.15-0.02c2.33,4.64,4.4,9.43,6.18,14.31c0.24,0.68,0.69,1.48,1.4,1.4
		c0.24-0.03,0.45-0.16,0.66-0.3c1.56-1.01,3.27-2.23,3.56-4.07c0.26-1.61-0.68-3.14-1.48-4.55c-1.75-3.05-3.12-6.32-4.06-9.71
		l0.14-0.06c0.49,1.3,1.59,2.28,2.63,3.2l0.22-0.08c0.35,0.97,0.68,1.94,1.06,2.89c1.08,2.67,2.53,5.2,4.29,7.48
		c0.57,0.74,1.2,1.51,1.34,2.43C174.4,330.9,174.41,331.08,174.4,331.25z"/>
	<linearGradient id="SVGID_35_" gradientUnits="userSpaceOnUse" x1="158.1623" y1="323.2059" x2="170.2702" y2="323.2059">
		<stop  offset="0" style="stop-color:#223876"/>
		<stop  offset="0.0447" style="stop-color:#1A4176"/>
		<stop  offset="1" style="stop-color:#00646A"/>
	</linearGradient>
	<path class="st35" d="M168.75,324.56c0.81,1.41,1.74,2.94,1.48,4.55c-0.29,1.84-2,3.07-3.56,4.07c-0.21,0.14-0.42,0.27-0.66,0.3
		c-0.71,0.08-1.16-0.72-1.4-1.4c-1.78-4.89-3.85-9.67-6.18-14.31l-0.15,0.02c-0.08-0.39-0.14-0.78-0.09-1.17
		c0.14-0.95,0.99-1.61,1.78-2.17c0.96-0.68,1.96-1.37,3.12-1.51c0.23-0.03,0.46-0.04,0.67,0.04c0.63,0.23,0.78,1.01,1,1.63
		c0.02,0.06,0.04,0.12,0.07,0.18l-0.14,0.06C165.63,318.24,166.99,321.51,168.75,324.56z"/>
	<linearGradient id="SVGID_36_" gradientUnits="userSpaceOnUse" x1="151.0029" y1="313.2969" x2="167.6747" y2="313.2969">
		<stop  offset="0" style="stop-color:#FFFFFF"/>
		<stop  offset="1" style="stop-color:#96D7E3"/>
	</linearGradient>
	<path class="st36" d="M167.67,317.92l-0.22,0.08c-1.05-0.93-2.14-1.91-2.63-3.2c-0.03-0.06-0.05-0.11-0.07-0.18
		c-0.22-0.63-0.37-1.41-1-1.63c-0.21-0.08-0.44-0.07-0.67-0.04c-1.16,0.14-2.17,0.84-3.12,1.51c-0.79,0.56-1.64,1.22-1.78,2.17
		c-0.06,0.39,0.01,0.78,0.09,1.17c0.01,0.09,0.02,0.17,0.04,0.26c0.2,1.32-0.02,2.75-0.84,3.8l-0.04,0.02
		c-0.23-0.72-0.45-1.44-0.67-2.17c-0.52-1.71-1.04-3.44-1.8-5.06c-0.73-1.56-1.68-3.01-2.65-4.44c-0.43-0.64-0.88-1.28-1.31-1.92
		l0.27-0.19c1.74-0.17,3.36-0.8,4.89-1.63c0.98-0.52,1.93-1.12,2.86-1.74c0.75,1.35,1.61,2.62,2.64,3.81
		c1.04,1.19,2.24,2.25,3.18,3.53C166.15,313.81,166.93,315.85,167.67,317.92z"/>
	<linearGradient id="SVGID_37_" gradientUnits="userSpaceOnUse" x1="139.1451" y1="289.5732" x2="159.0289" y2="289.5732">
		<stop  offset="0" style="stop-color:#F48974"/>
		<stop  offset="1" style="stop-color:#F9AE7D"/>
	</linearGradient>
	<path class="st37" d="M159.03,304.73c-0.93,0.62-1.88,1.22-2.86,1.74l-0.1-0.19c-1.37-2.46-2.75-4.93-4.12-7.4
		c-1.38-2.46-2.75-4.93-3.84-7.53c-1.21-2.91-2.04-5.96-3.28-8.85c-1.24-2.89-2.95-5.68-5.51-7.52l-0.18-0.31
		c1.05-0.6,2.07-1.27,3.04-1.99c1.26,1.42,2.51,2.83,3.76,4.25c1.45,1.64,2.9,3.28,4.1,5.11
		C154.5,288.84,155.16,297.73,159.03,304.73z"/>
	<linearGradient id="SVGID_38_" gradientUnits="userSpaceOnUse" x1="131.2882" y1="291.4771" x2="156.1711" y2="291.4771">
		<stop  offset="0" style="stop-color:#F9AE7D"/>
		<stop  offset="1" style="stop-color:#FBE3D1"/>
	</linearGradient>
	<path class="st38" d="M156.07,306.27l0.1,0.19c-1.54,0.83-3.16,1.46-4.89,1.63l-0.27,0.19c-2.94-4.24-5.95-8.44-8.21-13.08
		c-1.57-3.23-2.78-6.67-4.89-9.57c-1.98-2.74-4.7-4.9-6.61-7.67c2.75-0.75,5.4-1.86,7.86-3.29l0.18,0.31
		c2.55,1.84,4.27,4.63,5.51,7.52c1.24,2.89,2.07,5.94,3.28,8.85c1.09,2.6,2.46,5.07,3.84,7.53
		C153.32,301.35,154.7,303.81,156.07,306.27z"/>
	<linearGradient id="SVGID_39_" gradientUnits="userSpaceOnUse" x1="72.1833" y1="253.494" x2="143.331" y2="253.494">
		<stop  offset="0" style="stop-color:#00A672"/>
		<stop  offset="1" style="stop-color:#00ABA8"/>
	</linearGradient>
	<path class="st39" d="M142.19,272.68c-0.97,0.72-1.99,1.38-3.04,1.99c-2.46,1.43-5.11,2.54-7.86,3.29
		c-0.23,0.06-0.44,0.12-0.67,0.18c-1.34,0.33-2.93,0.53-3.97-0.39c-0.64-0.58-0.91-1.47-1.2-2.28c-2.13-5.91-7.27-10.24-12.73-13.34
		c-2.06-1.18-4.19-2.21-6.34-3.22c-3.53-1.67-7.11-3.28-10.44-5.31c-2.97-1.81-5.86-4-9.28-4.6c1.01,2.08,1.76,4.29,2.25,6.56
		c0.1,0.45,0.18,0.93,0.05,1.38c-0.38,1.35-2.23,1.49-3.63,1.34c2.86,1.75,5.02,4.59,5.94,7.81l-0.42,0.47
		c-1.01-0.88-2.1-1.68-3.18-2.46c-1.71-1.24-3.55-2.51-5.47-3.45c-2.58-1.28-5.3-1.99-8.04-1.3c-0.27,0.06-0.58,0.14-0.87,0.14
		c-0.35,0.02-0.67-0.05-0.88-0.31c-0.18-0.21-0.22-0.51-0.23-0.78c-0.06-2.95,3.04-4.75,5.43-6.46c2.25-1.61,4.16-3.66,5.62-6.01
		c1.6-2.59,2.79-5.68,5.22-7.41c0.53,0.19,1.16,0.23,1.73,0.24c4.4,0.06,8.98-0.27,12.84-2.41c1.46-0.81,2.78-1.86,4.18-2.77
		c4.42-2.87,9.75-4.32,15.01-4.08c0.91,0.04,1.96,0.08,2.58-0.58c0.1-0.11,0.19-0.23,0.24-0.35l0.04,0.02
		c2.06-0.19,3.64,1.88,4.19,3.87c0.56,2,0.54,4.17,1.55,5.98c0.73,1.32,1.96,2.33,2.65,3.68c0.65,1.28,0.76,2.75,0.97,4.16
		c1.2,8.36,5.84,15.77,8.65,23.72c0.18,0.51,0.35,1.07,0.16,1.57c-0.15,0.39-0.5,0.66-0.83,0.92
		C142.34,272.56,142.27,272.62,142.19,272.68z"/>
	<linearGradient id="SVGID_40_" gradientUnits="userSpaceOnUse" x1="87.4473" y1="206.8498" x2="125.237" y2="206.8498">
		<stop  offset="0" style="stop-color:#B12724"/>
		<stop  offset="1" style="stop-color:#EE4252"/>
	</linearGradient>
	<path class="st40" d="M88.46,238.52c-0.4-0.14-0.76-0.36-1-0.72c-0.01-0.01-0.02-0.02-0.02-0.03c2.19-0.94,4.37-2.22,4.99-4.46
		c0.36-1.31,0.1-2.78,0.7-3.99c0.83-1.69,3.03-2.37,3.81-4.08c1.01-2.2-0.81-4.6-1.16-7c-0.24-1.67,0.31-3.45,1.44-4.7
		c1.44-1.58,3.88-2.6,4.1-4.73c0.14-1.38-0.78-2.63-1.66-3.72c-0.72-0.91-1.46-1.83-2.19-2.74c-0.43-0.54-0.88-1.11-0.97-1.8
		c-0.19-1.45,1.28-2.56,2.66-3.04c1.38-0.48,2.96-0.76,3.86-1.92c1.26-1.62,0.45-3.98-0.53-5.79c-3.25-5.97-8.03-11.1-13.75-14.76
		l0.06-0.08c4.82,1.86,9.7,4.23,12.79,8.38c2.89,3.86,3.87,8.81,6.21,13.03c2.61,4.7,6.88,8.5,8.53,13.62
		c0.45,1.42,0.68,2.9,1.13,4.31c1.26,4.11,4.14,7.47,6.69,10.92c0.72,0.98,1.42,2.37,0.89,3.36c-0.06,0.12-0.14,0.23-0.24,0.35
		c-0.63,0.66-1.67,0.62-2.58,0.58c-5.26-0.24-10.59,1.21-15.01,4.08c-1.4,0.91-2.72,1.96-4.18,2.77c-3.86,2.14-8.44,2.47-12.84,2.41
		C89.62,238.75,88.99,238.71,88.46,238.52z"/>
	<linearGradient id="SVGID_41_" gradientUnits="userSpaceOnUse" x1="85.3301" y1="260.7135" x2="106.3892" y2="260.7135">
		<stop  offset="0" style="stop-color:#006B7D"/>
		<stop  offset="1" style="stop-color:#00ABA8"/>
	</linearGradient>
	<path class="st41" d="M92.29,267.91c-0.45-0.47-0.93-0.93-1.43-1.35l0.42-0.47c-0.92-3.22-3.08-6.06-5.94-7.81
		c1.4,0.14,3.25,0.01,3.63-1.34c0.13-0.45,0.05-0.93-0.05-1.38c-0.48-2.27-1.24-4.48-2.25-6.56c3.42,0.6,6.31,2.79,9.28,4.6
		c3.33,2.04,6.91,3.64,10.44,5.31c-3.35,2.95-6.17,6.54-8.26,10.5c-0.63,1.19-1.33,2.53-2.62,2.91c-0.85,0.26-1.75,0.02-2.6-0.21
		c-1.03-0.28-2.07-0.56-3.1-0.84c0.14-0.17,0.3-0.33,0.43-0.5c1.38,0.49,2.88,0.66,4.35,0.48C94.03,270,93.24,268.9,92.29,267.91z"
		/>
	<linearGradient id="SVGID_42_" gradientUnits="userSpaceOnUse" x1="77.3766" y1="206.335" x2="103.6834" y2="206.335">
		<stop  offset="0" style="stop-color:#EE4252"/>
		<stop  offset="1" style="stop-color:#F27037"/>
	</linearGradient>
	<path class="st42" d="M84.88,213.3c-0.05-0.16-0.1-0.31-0.17-0.47c-0.86-2.21-2.15-4.21-3.26-6.3c-0.03-0.06-0.06-0.11-0.09-0.17
		c-1.81-3.46-3.16-7.18-3.95-11l-0.03-0.1c1.47-0.44,2.87-1.14,4.24-1.86c2.02-1.06,4.03-2.2,6.25-2.71
		c1.4-0.33,3.05-0.52,3.82-1.74c0.87-1.37,0.07-3.12-0.57-4.61c-0.99-2.25-1.62-4.64-1.87-7.09c-0.07-0.75-0.14-1.56-0.62-2.15
		c-0.03-0.04-0.06-0.07-0.1-0.1l0.06-0.06c0.06,0.03,0.1,0.07,0.16,0.1c5.72,3.66,10.5,8.8,13.75,14.76
		c0.98,1.8,1.79,4.17,0.53,5.79c-0.9,1.16-2.49,1.44-3.86,1.92c-1.38,0.48-2.85,1.59-2.66,3.04c0.09,0.68,0.53,1.26,0.97,1.8
		c0.73,0.91,1.47,1.83,2.19,2.74c0.88,1.09,1.8,2.33,1.66,3.72c-0.22,2.13-2.66,3.16-4.1,4.73c-1.14,1.26-1.68,3.03-1.44,4.7
		c0.35,2.4,2.17,4.81,1.16,7c-0.78,1.71-2.98,2.39-3.81,4.08c-0.6,1.22-0.34,2.68-0.7,3.99c-0.62,2.24-2.8,3.52-4.99,4.46
		c-0.5-0.8-0.22-1.86,0.26-2.67c0.48-0.82,1.16-1.55,1.44-2.46c0.56-1.8-0.56-3.68-0.66-5.57c-0.06-1.38,0.42-2.77,0.17-4.12
		c-0.21-1.12-0.89-2.08-1.43-3.08c-0.02-0.03-0.03-0.06-0.05-0.09C86.1,217.74,85.67,215.46,84.88,213.3z"/>
	<linearGradient id="SVGID_43_" gradientUnits="userSpaceOnUse" x1="90.2487" y1="269.6149" x2="94.5957" y2="269.6149">
		<stop  offset="0" style="stop-color:#223876"/>
		<stop  offset="1" style="stop-color:#00ABA8"/>
	</linearGradient>
	<path class="st43" d="M94.6,271.26c-1.47,0.18-2.96,0.01-4.35-0.48c0.76-0.89,1.45-1.84,2.04-2.87
		C93.24,268.9,94.03,270,94.6,271.26z"/>
	<linearGradient id="SVGID_44_" gradientUnits="userSpaceOnUse" x1="62.0169" y1="288.6474" x2="92.2854" y2="288.6474">
		<stop  offset="0" style="stop-color:#F48974"/>
		<stop  offset="1" style="stop-color:#F9AE7D"/>
	</linearGradient>
	<path class="st44" d="M89.81,271.27c-3.04,3.38-7.09,5.97-10.63,8.93c-1.25,1.05-2.49,2.22-3.14,3.72
		c-0.56,1.27-0.64,2.69-0.66,4.07c-0.02,3.32,0.39,6.68-0.27,9.93c-0.93,4.68-3.94,8.64-5.76,13.04c-0.76,1.84-1.31,3.75-1.81,5.68
		l-0.65-0.02c-1.66-0.1-3.31-0.44-4.88-1.01c1.74-6.25,2.99-12.61,2.8-19.08c-0.07-2.49-0.35-4.97-0.28-7.46
		c0.15-5.43,2.06-10.8,5.37-15.1c3.7-4.8,9.02-8.28,12.29-13.33c1.92,0.94,3.77,2.21,5.47,3.45c1.08,0.77,2.17,1.58,3.18,2.46
		c0.5,0.43,0.98,0.88,1.43,1.35c-0.59,1.02-1.28,1.97-2.04,2.87C90.11,270.94,89.96,271.1,89.81,271.27z"/>
	<linearGradient id="SVGID_45_" gradientUnits="userSpaceOnUse" x1="67.1449" y1="184.9886" x2="92.0721" y2="184.9886">
		<stop  offset="0" style="stop-color:#B12724"/>
		<stop  offset="1" style="stop-color:#EE4252"/>
	</linearGradient>
	<path class="st45" d="M67.59,183.46c-0.14-0.1-0.3-0.21-0.44-0.31c0.55-0.5,1.14-0.94,1.76-1.34c1.55-1,3.28-1.73,4.99-2.44
		c2.04-0.85,4.07-1.7,6.1-2.54c-0.01,0.06-0.01,0.14-0.02,0.21c0.02-0.08,0.05-0.15,0.06-0.23c1.34-0.56,2.68-1.12,4.03-1.67
		c2.17-1.2,3.53-1.12,4.46-0.14c0.03,0.03,0.06,0.06,0.1,0.1c0.48,0.59,0.55,1.4,0.62,2.15c0.25,2.45,0.88,4.85,1.87,7.09
		c0.64,1.49,1.44,3.24,0.57,4.61c-0.76,1.22-2.42,1.41-3.82,1.74c-2.22,0.52-4.23,1.65-6.25,2.71c-1.37,0.72-2.77,1.42-4.24,1.86
		c-0.7,0.22-1.41,0.37-2.14,0.45c-0.27,0.03-0.54,0.05-0.81,0.05v-0.16c0.7-1.14,1.39-2.33,1.73-3.61c0.09-0.31,0.15-0.64,0.19-0.97
		c0.14-1.29-0.21-2.7-1.07-3.63c-0.25-0.27-0.53-0.49-0.86-0.66c-0.54-0.28-1.14-0.4-1.73-0.57
		C70.83,185.62,69.18,184.57,67.59,183.46z"/>
	<linearGradient id="SVGID_46_" gradientUnits="userSpaceOnUse" x1="46.5569" y1="215.6522" x2="87.2218" y2="215.6522">
		<stop  offset="0" style="stop-color:#F48974"/>
		<stop  offset="1" style="stop-color:#F9AE7D"/>
	</linearGradient>
	<path class="st46" d="M55.63,210.4c8.01,2.61,16.16,4.8,24.42,6.56c0.78,0.17,1.61,0.33,2.37,0.09c1.49-0.47,2.08-2.22,2.46-3.75
		c0.79,2.16,1.22,4.44,2.29,6.46c0.02,0.03,0.03,0.06,0.05,0.09c-0.19,0.72-0.39,1.47-0.59,2.2c-0.06,0.25-0.14,0.52-0.32,0.69
		c-0.27,0.27-0.69,0.29-1.07,0.29c-6.52-0.05-12.9-1.95-18.93-4.43c-1.26-0.52-2.51-1.06-3.85-1.34c-2.46-0.52-5.02-0.08-7.5,0.38
		c0.27-0.19,0.52-0.41,0.69-0.69c0.22-0.37,0.28-0.81,0.31-1.25c0.03-0.36,0.05-0.73-0.05-1.08c-0.09-0.33-0.29-0.64-0.6-0.78
		c-0.29-0.64-0.76-1.2-1.38-1.55c-0.26-0.14-0.56-0.26-0.85-0.19c-0.26,0.06-0.45,0.28-0.63,0.49c-0.7,0.82-1.37,1.66-2,2.53
		c-0.25,0.33-0.49,0.68-0.72,1.01c-0.98-0.48-2-1-2.63-1.9c-0.92-1.3-0.64-3.18,0.37-4.43c0.21-0.27,0.45-0.51,0.73-0.71
		c0.78-0.56,1.71-0.82,2.66-0.84c0.99-0.02,2,0.21,2.87,0.67c0.67,0.35,1.28,0.81,2,1.07L55.63,210.4z"/>
	<linearGradient id="SVGID_47_" gradientUnits="userSpaceOnUse" x1="55.6252" y1="211.7658" x2="84.8793" y2="211.7658">
		<stop  offset="0" style="stop-color:#F9AE7D"/>
		<stop  offset="1" style="stop-color:#FBE3D1"/>
	</linearGradient>
	<path class="st47" d="M84.71,212.83c0.06,0.16,0.12,0.31,0.17,0.47c-0.38,1.53-0.97,3.28-2.46,3.75c-0.76,0.24-1.59,0.08-2.37-0.09
		c-8.25-1.76-16.41-3.95-24.42-6.56l0.13-0.39c0.69,0.25,1.43,0.29,2.17,0.32c7.12,0.35,14.22,0.71,21.34,1.06
		c0.34,0.02,0.72,0.02,0.97-0.22c0.21-0.19,0.27-0.48,0.31-0.76c0.22-1.33,0.44-2.66,0.67-3.99l0.14-0.07
		c0.03,0.06,0.06,0.11,0.09,0.17C82.56,208.62,83.85,210.62,84.71,212.83z"/>
	<linearGradient id="SVGID_48_" gradientUnits="userSpaceOnUse" x1="79.3286" y1="173.1202" x2="84.0743" y2="173.1202">
		<stop  offset="0" style="stop-color:#F48974"/>
		<stop  offset="1" style="stop-color:#F9AE7D"/>
	</linearGradient>
	<path class="st48" d="M84.07,175.12c-1.34,0.56-2.68,1.11-4.03,1.67c0.47-1.6,0.09-3.34-0.37-4.95c-0.22-0.78-0.46-1.62-0.3-2.4
		l0.21,0.04c0.14,0.06,0.27,0.13,0.39,0.21c0.27,0.19,0.5,0.43,0.72,0.68c0.23,0.24,0.52,0.62,0.85,1.07
		C82.29,172.44,83.2,173.82,84.07,175.12z"/>
	<linearGradient id="SVGID_49_" gradientUnits="userSpaceOnUse" x1="56.5768" y1="163.9855" x2="81.6451" y2="163.9855">
		<stop  offset="0" style="stop-color:#223876"/>
		<stop  offset="1" style="stop-color:#00646A"/>
	</linearGradient>
	<path class="st49" d="M81.26,163.73c0.34,2.54,0.45,5.12,0.34,7.68l-0.04,0.03c-0.33-0.45-0.62-0.83-0.85-1.07
		c-0.23-0.24-0.45-0.49-0.72-0.68c-0.13-0.08-0.26-0.15-0.39-0.21l-0.21-0.04c0.02-0.13,0.06-0.26,0.11-0.39
		c0.19-0.47,0.54-0.86,0.81-1.3c0.88-1.47,0.6-3.53-0.65-4.69c-0.35-0.33-0.82-0.6-1.3-0.52c-0.55,0.08-0.92,0.58-1.18,1.07
		c-0.36,0.68-0.63,1.41-0.77,2.16c-0.08,0.38-0.14,0.78-0.39,1.07c-0.48,0.52-1.38,0.31-1.96-0.1c-1.78-1.26-2.46-3.9-4.52-4.59
		c-1.3-0.43-2.71,0.08-3.94,0.7c-1.07,0.53-2.13,1.18-2.83,2.14c-0.5,0.69-0.78,1.51-0.89,2.36v0.01c-1.04,0.28-2.19,0.14-3.14-0.38
		c-1.03-0.56-1.8-1.59-2.07-2.73c-0.1-0.48-0.12-1.03,0.14-1.44c0.29-0.44,0.84-0.64,1.34-0.81c1.1-0.37,2.23-0.77,3.18-1.46
		c1.05-0.74,1.88-1.83,3.09-2.25c1.01-0.35,2.12-0.2,3.19-0.19c1.23,0.01,2.46-0.2,3.63-0.61c1.15-0.41,2.29-1.01,3.5-0.96
		c1.55,0.07,2.81,1.2,3.94,2.25c0.69,0.65,1.4,1.32,1.85,2.16C80.97,161.8,81.14,162.77,81.26,163.73z"/>
	<linearGradient id="SVGID_50_" gradientUnits="userSpaceOnUse" x1="61.8029" y1="171.9005" x2="80.8079" y2="171.9005">
		<stop  offset="0" style="stop-color:#F9AE7D"/>
		<stop  offset="1" style="stop-color:#FBE3D1"/>
	</linearGradient>
	<path class="st50" d="M61.86,167.36c0.1-0.85,0.39-1.67,0.89-2.36c0.7-0.97,1.75-1.61,2.83-2.14c1.22-0.62,2.63-1.14,3.94-0.7
		c2.07,0.68,2.75,3.33,4.52,4.59c0.59,0.41,1.48,0.62,1.96,0.1c0.26-0.29,0.31-0.69,0.39-1.07c0.14-0.75,0.41-1.48,0.77-2.16
		c0.27-0.49,0.64-0.99,1.18-1.07c0.48-0.07,0.95,0.19,1.3,0.52c1.25,1.17,1.53,3.23,0.65,4.69c-0.27,0.43-0.62,0.82-0.81,1.3
		c-0.05,0.13-0.09,0.26-0.11,0.39c-0.16,0.78,0.08,1.62,0.3,2.4c0.46,1.61,0.84,3.35,0.37,4.95c-0.02,0.01-0.03,0.02-0.05,0.02
		c-2.04,0.85-4.07,1.69-6.1,2.54c-1.71,0.71-3.45,1.44-4.99,2.44l-0.08-0.13c-2.6-2.67-4.67-5.86-6.06-9.33
		c-0.47-1.18-0.87-2.42-0.95-3.7C61.79,168.22,61.8,167.79,61.86,167.36L61.86,167.36z"/>
	<linearGradient id="SVGID_51_" gradientUnits="userSpaceOnUse" x1="57.4123" y1="287.3488" x2="82.1986" y2="287.3488">
		<stop  offset="0" style="stop-color:#F9AE7D"/>
		<stop  offset="1" style="stop-color:#FBE3D1"/>
	</linearGradient>
	<path class="st51" d="M82.2,260.65c-3.27,5.05-8.6,8.53-12.29,13.33c-3.31,4.31-5.22,9.68-5.37,15.1
		c-0.07,2.49,0.21,4.97,0.28,7.46c0.19,6.46-1.06,12.82-2.8,19.08c-1.46-0.52-2.85-1.22-4.12-2.09c-0.14-0.09-0.35-0.13-0.48-0.07
		c0.1-2.45,0.22-4.9,0.33-7.35c0.15-3.42,0.31-6.86,0.97-10.22c1.22-6.09,4.11-11.81,4.77-17.98c0.26-2.43,0.2-5.01,1.42-7.12
		c0.86-1.51,2.28-2.6,3.53-3.82c2.13-2.1,3.82-4.67,4.86-7.48c0.29-0.01,0.6-0.08,0.87-0.14C76.9,258.66,79.62,259.37,82.2,260.65z"
		/>
	<linearGradient id="SVGID_52_" gradientUnits="userSpaceOnUse" x1="68.94" y1="193.743" x2="76.1529" y2="193.743">
		<stop  offset="0" style="stop-color:#B12724"/>
		<stop  offset="1" style="stop-color:#EE4252"/>
	</linearGradient>
	<path class="st52" d="M75.84,191.9l0.31,0.08c-0.34,1.28-1.03,2.47-1.73,3.61v0.16c-2.03,0.02-4.11-0.69-5.34-2.27l-0.14-0.33
		C71.18,192.14,73.49,191.41,75.84,191.9z"/>
	<linearGradient id="SVGID_53_" gradientUnits="userSpaceOnUse" x1="12.9515" y1="193.5555" x2="75.2755" y2="193.5555">
		<stop  offset="0" style="stop-color:#F9AE7D"/>
		<stop  offset="1" style="stop-color:#FBE3D1"/>
	</linearGradient>
	<path class="st53" d="M41.54,191.95c0.43-0.14,0.87-0.3,1.3-0.46c0.07-0.02,0.14-0.06,0.22-0.08c2.04-0.76,4.03-1.71,6.17-2.15
		c2.01-0.41,4.09-0.38,6.13-0.6c4.46-0.5,8.77-2.34,12.23-5.2c1.59,1.11,3.24,2.16,5.1,2.69c0.59,0.17,1.19,0.29,1.73,0.57
		c0.33,0.17,0.61,0.39,0.86,0.66l-0.24,0.17c-4.84,0.68-9.56,2.14-13.93,4.31c-1.3,0.65-2.57,1.36-3.9,1.92
		c-6.54,2.73-14.03,1.58-20.97,3.03c-2.11,0.44-4.23,1.16-5.84,2.58c-0.21,0.18-0.4,0.37-0.59,0.56c-0.57,0.58-1.1,1.2-1.71,1.74
		c-1.22,1.08-2.79,1.76-4.4,1.96c-2.32-0.96-4.7-1.77-7.12-2.44c-1.29-0.35-2.66-0.7-3.6-1.67c2.77,0.06,5.52,0.47,8.18,1.24
		c-1.35-1.3-2.7-2.61-4.06-3.91c-0.67-0.64-1.38-1.47-1.18-2.36c2.29,1.16,4.59,2.32,6.88,3.48c-1.82-1.84-3.68-3.74-4.68-6.12
		c0.74-0.44,1.67,0.02,2.39,0.49c2.07,1.34,4.03,2.84,5.88,4.47c-0.9-1.71-1.66-3.51-2.24-5.35c0.67,0.53,1.34,1.06,2.06,1.53
		c0.65,0.43,1.33,0.81,2.05,1.06c0.14,0.06,0.28,0.1,0.43,0.14c2.41,0.69,4.97,0.02,7.38-0.64
		C37.9,193.06,39.73,192.56,41.54,191.95z"/>
	<linearGradient id="SVGID_54_" gradientUnits="userSpaceOnUse" x1="59.1994" y1="324.1001" x2="67.5474" y2="324.1001">
		<stop  offset="0" style="stop-color:#FFFFFF"/>
		<stop  offset="1" style="stop-color:#96D7E3"/>
	</linearGradient>
	<path class="st54" d="M63.82,331.64l0.14,0.03c0.26,0.27,0.41,0.57,0.47,0.9l-0.03,0.01c-1.14-0.64-2.12-1.57-2.81-2.67
		c-0.36-0.59-0.64-1.22-0.93-1.84c-0.49-1.07-0.97-2.13-1.47-3.2c0.98-3.06,1.96-6.14,2.82-9.25c1.57,0.56,3.22,0.91,4.88,1.01
		l0.65,0.02c-0.16,0.64-0.32,1.29-0.48,1.93C65.99,322.94,64.9,327.29,63.82,331.64z"/>
	<linearGradient id="SVGID_55_" gradientUnits="userSpaceOnUse" x1="39.5169" y1="329.1355" x2="64.483" y2="329.1355">
		<stop  offset="0" style="stop-color:#B12724"/>
		<stop  offset="1" style="stop-color:#EE4252"/>
	</linearGradient>
	<path class="st55" d="M59.2,324.87c0.49,1.07,0.97,2.13,1.47,3.2c0.29,0.62,0.57,1.25,0.93,1.84c0.69,1.1,1.67,2.04,2.81,2.67
		l0.03-0.01c0.23,1.1-0.47,2.46-1.18,3.47c-1.55,2.19-3.1,4.39-4.65,6.58c-0.06,0.07-0.11,0.15-0.18,0.23l-0.33-0.1
		c-0.55-3.27-2.25-6.25-4.27-8.89c-2.01-2.63-4.37-4.99-6.5-7.55c-2.13-2.57-4.02-5.34-5.64-8.26c-0.54-0.98-1.21-2.08-2.18-2.5
		l0.06-0.13c0.53,0.1,1.05,0.27,1.55,0.46c1.94,1.41,4.08,2.54,6.21,3.66c1.59,0.84,3.2,1.67,4.92,2.17c1.72,0.5,3.6,0.63,5.3,0.04
		c0.06-0.02,0.14-0.05,0.2-0.08C58.23,322.74,58.72,323.81,59.2,324.87z"/>
	<linearGradient id="SVGID_56_" gradientUnits="userSpaceOnUse" x1="57.2191" y1="319.1484" x2="62.0169" y2="319.1484">
		<stop  offset="0" style="stop-color:#FFFFFF"/>
		<stop  offset="1" style="stop-color:#96D7E3"/>
	</linearGradient>
	<path class="st56" d="M62.02,315.62c-0.85,3.11-1.84,6.19-2.82,9.25c-0.48-1.06-0.97-2.13-1.46-3.2c0.29-0.11,0.57-0.27,0.74-0.53
		c0.39-0.6,0.07-1.38-0.25-2.02c-0.27-0.53-0.59-1.09-1.01-1.48c0.06-1.39,0.13-2.79,0.19-4.19c0.13-0.06,0.35-0.02,0.48,0.07
		C59.17,314.4,60.56,315.1,62.02,315.62z"/>
	<linearGradient id="SVGID_57_" gradientUnits="userSpaceOnUse" x1="35.6994" y1="329.2094" x2="58.4266" y2="329.2094">
		<stop  offset="0" style="stop-color:#FFFFFF"/>
		<stop  offset="1" style="stop-color:#96D7E3"/>
	</linearGradient>
	<path class="st57" d="M58.1,342.75l0.33,0.1c-0.13,0.13-0.27,0.22-0.45,0.19c-0.11-0.02-0.21-0.09-0.3-0.15
		c-3.93-2.84-7.85-5.69-11.77-8.53c-2.73-1.98-5.5-4-7.53-6.69c-2.03-2.69-3.24-6.2-2.42-9.47c0.35-1.39,1.35-2.88,2.79-2.83
		c0.28,0.01,0.54,0.07,0.77,0.18c0.97,0.42,1.64,1.52,2.18,2.5c1.62,2.92,3.51,5.69,5.64,8.26c2.13,2.56,4.48,4.92,6.5,7.55
		C55.85,336.49,57.55,339.48,58.1,342.75z"/>
	<linearGradient id="SVGID_58_" gradientUnits="userSpaceOnUse" x1="41.1188" y1="319.0102" x2="57.7423" y2="319.0102">
		<stop  offset="0" style="stop-color:#223876"/>
		<stop  offset="0.0447" style="stop-color:#1A4176"/>
		<stop  offset="1" style="stop-color:#00646A"/>
	</linearGradient>
	<path class="st58" d="M57.52,321.19c0.07,0.16,0.14,0.32,0.22,0.48c-0.06,0.03-0.14,0.06-0.2,0.08c-1.7,0.59-3.57,0.46-5.3-0.04
		c-1.72-0.5-3.32-1.34-4.92-2.17c-2.13-1.12-4.27-2.25-6.21-3.66c1.05,0.39,2.05,0.89,3.09,1.29c3.28,1.25,6.98,1.35,10.33,0.28
		c0.59-0.19,1.22-0.42,1.82-0.28c0.33,0.07,0.61,0.24,0.86,0.47c-0.05,1.14-0.1,2.28-0.15,3.42L57.52,321.19z"/>
	<linearGradient id="SVGID_59_" gradientUnits="userSpaceOnUse" x1="52.2214" y1="216.201" x2="55.7033" y2="216.201">
		<stop  offset="0" style="stop-color:#F27037"/>
		<stop  offset="1" style="stop-color:#EE4252"/>
	</linearGradient>
	<path class="st59" d="M52.29,217.41c-0.01-0.01-0.01-0.02-0.01-0.02c-0.1-0.35-0.07-0.73,0.01-1.09c0.14-0.68,0.51-1.34,1.05-1.77
		c0.56-0.43,1.31-0.62,1.98-0.41l0.1-0.05c0.48,1.23,0.35,2.7-0.61,3.61c0.05-0.01,0.1-0.02,0.14-0.02
		c-0.11,0.09-0.23,0.16-0.35,0.24c-0.41,0.27-0.89,0.56-1.38,0.48c-0.42-0.07-0.76-0.42-0.9-0.82
		C52.32,217.5,52.3,217.46,52.29,217.41z M52.48,217.71C52.78,218.2,52.72,217.2,52.48,217.71L52.48,217.71z"/>
	<linearGradient id="SVGID_60_" gradientUnits="userSpaceOnUse" x1="50.4731" y1="214.7361" x2="55.4319" y2="214.7361">
		<stop  offset="0" style="stop-color:#223876"/>
		<stop  offset="0.0447" style="stop-color:#1A4176"/>
		<stop  offset="1" style="stop-color:#00646A"/>
	</linearGradient>
	<path class="st60" d="M55.33,213.84c0.04,0.07,0.07,0.14,0.1,0.22l-0.1,0.05c-0.67-0.21-1.42-0.02-1.98,0.41
		c-0.55,0.43-0.91,1.09-1.05,1.77c-0.08,0.36-0.1,0.75-0.01,1.09c-0.45-0.76-1.33-2.25-1.81-2.25c0.64-0.87,1.3-1.71,2-2.53
		c0.18-0.21,0.37-0.43,0.63-0.49c0.29-0.07,0.59,0.04,0.85,0.19C54.56,212.64,55.04,213.2,55.33,213.84z"/>
	<linearGradient id="SVGID_61_" gradientUnits="userSpaceOnUse" x1="52.4776" y1="217.7058" x2="52.6835" y2="217.7058">
		<stop  offset="0" style="stop-color:#F27037"/>
		<stop  offset="1" style="stop-color:#EE4252"/>
	</linearGradient>
	<path class="st61" d="M52.48,217.71C52.72,217.2,52.78,218.2,52.48,217.71L52.48,217.71z"/>
	<linearGradient id="SVGID_62_" gradientUnits="userSpaceOnUse" x1="35.2181" y1="204.9786" x2="50.8836" y2="204.9786">
		<stop  offset="0" style="stop-color:#223876"/>
		<stop  offset="0.0447" style="stop-color:#1A4176"/>
		<stop  offset="1" style="stop-color:#00646A"/>
	</linearGradient>
	<path class="st62" d="M50.88,208.06l0.01,0.21c-0.96,0.02-1.88,0.28-2.66,0.84c-0.28,0.2-0.52,0.44-0.73,0.71
		c-1.68-3.2-4.03-6.23-7.35-7.62c-1.55-0.65-3.24-0.91-4.91-1.15l-0.01-0.07c1.7-0.1,3.41-0.21,5.11-0.35l0.04,0.54
		c0.98,0.44,2.01,0.77,3.08,0.99c0.16,0.03,0.37,0.04,0.46-0.1c0.04-0.08,0.02-0.18,0.02-0.27c-0.08-0.48-0.16-0.98-0.24-1.47
		c0.57-0.06,1.14-0.12,1.7-0.19C47.02,202.91,48.86,205.56,50.88,208.06z"/>
	<linearGradient id="SVGID_63_" gradientUnits="userSpaceOnUse" x1="24.8942" y1="182.8255" x2="42.8335" y2="182.8255">
		<stop  offset="0" style="stop-color:#223876"/>
		<stop  offset="0.0447" style="stop-color:#1A4176"/>
		<stop  offset="1" style="stop-color:#00646A"/>
	</linearGradient>
	<path class="st63" d="M40.2,177.65c1.72,4.4,2.23,9.14,2.63,13.85c-0.43,0.16-0.86,0.31-1.3,0.46c-0.39-3.82-1.26-7.6-2.56-11.21
		c-0.69-1.94-1.54-3.87-2.95-5.38c-0.72-0.76-1.67-1.44-2.72-1.44c-1.2-0.01-2.24,0.84-3.01,1.76c-2.73,3.27-3.44,7.8-3.24,12.06
		c0.1,2.1,0.39,4.23,1.27,6.13l-0.07,0.2c-0.72-0.26-1.4-0.63-2.05-1.06c-1.98-5.18-1.7-11.2,0.76-16.17
		c0.69-1.39,1.55-2.72,2.74-3.72s2.73-1.64,4.27-1.52c1.52,0.12,2.92,0.97,3.95,2.1C38.95,174.83,39.65,176.22,40.2,177.65z"/>
	<linearGradient id="SVGID_64_" gradientUnits="userSpaceOnUse" x1="23.678" y1="200.6949" x2="76.3815" y2="200.6949">
		<stop  offset="0" style="stop-color:#F48974"/>
		<stop  offset="1" style="stop-color:#F9AE7D"/>
	</linearGradient>
	<path class="st64" d="M76.35,191.01c-0.04,0.33-0.1,0.65-0.19,0.97l-0.31-0.08c-2.35-0.49-4.66,0.24-6.9,1.25
		c-1.18,0.53-2.33,1.14-3.46,1.68c-6.29,3.05-13.13,4.5-20.1,5.31c-0.56,0.06-1.13,0.13-1.7,0.19c-1.11,0.11-2.23,0.22-3.35,0.31
		c-1.71,0.14-3.41,0.25-5.11,0.35c-0.93,0.06-1.87,0.1-2.8,0.15c-0.11,2.14-2.44,3.62-3.41,5.63c-0.97,2.03-0.51,4.56-1.66,6.5
		c-0.35,0.57-1.21,1.06-1.6,0.53c-0.14-0.19-0.15-0.44-0.16-0.68c-0.06-2.49-0.13-4.98-0.19-7.48c-0.01-0.39-0.02-0.8-0.24-1.11
		c-0.22-0.32-0.59-0.48-0.93-0.64c-0.18-0.07-0.36-0.15-0.54-0.23c1.62-0.19,3.18-0.88,4.4-1.96c0.61-0.54,1.14-1.16,1.71-1.74
		c0.19-0.19,0.38-0.39,0.59-0.56c1.62-1.42,3.74-2.14,5.84-2.58c6.94-1.45,14.43-0.3,20.97-3.03c1.34-0.56,2.61-1.26,3.9-1.92
		c4.37-2.17,9.1-3.64,13.93-4.31l0.24-0.17C76.14,188.3,76.49,189.72,76.35,191.01z"/>
</g>
<g>
	<linearGradient id="SVGID_65_" gradientUnits="userSpaceOnUse" x1="313.5434" y1="227.0566" x2="328.0288" y2="227.0566">
		<stop  offset="0" style="stop-color:#535656"/>
		<stop  offset="1" style="stop-color:#6F7877"/>
	</linearGradient>
	<path class="st65" d="M327.65,226.77c-0.31,0.45-0.76,0.78-1.18,1.11l-0.23,0.17c-0.18,0.13-0.35,0.27-0.53,0.41
		c-0.19,0.15-0.39,0.3-0.59,0.45c-0.1,0.08-0.25,0.16-0.38,0.19c-0.01-0.09-0.06-0.18-0.08-0.28l-2.2-0.01l-5.4-0.04
		c0.23-1.17-1.66-0.84-2.23-1.8l-1.28-1.95l14.47,0.42C328.08,225.9,327.91,226.38,327.65,226.77z"/>
	<linearGradient id="SVGID_66_" gradientUnits="userSpaceOnUse" x1="351.6644" y1="231.0475" x2="378.7816" y2="231.0475">
		<stop  offset="0" style="stop-color:#223876"/>
		<stop  offset="0.0447" style="stop-color:#1A4176"/>
		<stop  offset="1" style="stop-color:#00646A"/>
	</linearGradient>
	<path class="st66" d="M364.01,230.92c0.05-0.06,0.09-0.12,0.12-0.19c0.18-0.35,0.24-0.75,0.2-1.14c-0.07-0.8-0.48-1.57-1.11-2.07
		c-0.13-0.1-0.3-0.2-0.46-0.2h-10.75c1.37-7.37,6.77-12.85,13.21-12.85c0.37,0,0.73,0.02,1.1,0.06c6.97,0.68,12.46,7.82,12.46,16.52
		c0,8.7-5.49,15.84-12.46,16.52c-0.36,0.04-0.72,0.06-1.1,0.06c-7.49,0-13.56-7.42-13.56-16.58c0-0.04,0-0.09,0-0.12H364.01z"/>
	<linearGradient id="SVGID_67_" gradientUnits="userSpaceOnUse" x1="322.8792" y1="293.2402" x2="355.9788" y2="293.2402">
		<stop  offset="0" style="stop-color:#F48974"/>
		<stop  offset="1" style="stop-color:#F9AE7D"/>
	</linearGradient>
	<path class="st67" d="M355.34,275.11c1.22,1.65,0.48,4-0.51,5.81c-1.78,3.3-4.18,6.21-6.42,9.2c-4.97,6.65-9.21,13.83-12.64,21.4
		c-0.14-0.02-0.3,0.05-0.43,0.12c-1.77,1.01-3.03,2.84-4.95,3.56c-1.03,0.39-2.17,0.38-3.22,0.04c7.49-9.65,10.92-22.26,19.65-30.83
		c-3.2-0.78-6.4,0.42-9.61,1.46c-2.4,0.78-4.81,1.47-7.26,1.17l-0.16-0.1c0.98-1.62,1.86-3.31,2.3-5.15
		c0.27-1.14,0.35-2.38-0.1-3.47c-0.47-1.09-1.43-1.89-2.44-2.49c-2.04-1.21-4.32-1.77-6.67-2.07c0.96-0.77,1.78-1.73,2.39-2.81
		c8.5,0.79,17,1.57,25.5,2.36C352.46,273.49,354.33,273.76,355.34,275.11z"/>
	<linearGradient id="SVGID_68_" gradientUnits="userSpaceOnUse" x1="339.8262" y1="323.7886" x2="351.1867" y2="323.7886">
		<stop  offset="0" style="stop-color:#FFFFFF"/>
		<stop  offset="1" style="stop-color:#96D7E3"/>
	</linearGradient>
	<path class="st68" d="M350.64,321.58c0.74,0.78,0.59,2.11,0.37,3.19c-0.09,0.39-0.18,0.82-0.51,1.08c-0.3,0.24-0.71,0.25-1.11,0.25
		c-3.19,0.01-6.38-0.03-9.57-0.13l0.01-0.5c1.4-0.04,2.78-0.43,3.99-1.13c1.09-0.63,2.01-1.51,3.1-2.13
		c1.09-0.63,2.44-0.99,3.59-0.5L350.64,321.58z"/>
	<linearGradient id="SVGID_69_" gradientUnits="userSpaceOnUse" x1="323.1937" y1="318.7405" x2="350.635" y2="318.7405">
		<stop  offset="0" style="stop-color:#223876"/>
		<stop  offset="0.0447" style="stop-color:#1A4176"/>
		<stop  offset="1" style="stop-color:#00646A"/>
	</linearGradient>
	<path class="st69" d="M335.78,311.52c0.04-0.01,0.08,0,0.11,0.02c0.15,0.08,0.22,0.26,0.27,0.41c0.24,0.75,0.43,1.53,0.75,2.25
		c1.02,2.26,3.26,3.74,5.58,4.62c2.31,0.9,4.78,1.32,7.11,2.16c0.3,0.1,0.61,0.23,0.86,0.43c0.07,0.05,0.12,0.1,0.18,0.16
		l-0.11,0.13c-1.15-0.5-2.51-0.13-3.59,0.5c-1.09,0.62-2.01,1.5-3.1,2.13c-1.21,0.71-2.59,1.1-3.99,1.13l-0.01,0.5
		c-2.48-0.07-4.97-0.16-7.44-0.3l0.01-0.17c-1.49-0.16-2.75-1.11-3.86-2.11c-1.11-1.01-2.14-2.14-3.47-2.8
		c-0.58-0.29-1.23-0.48-1.87-0.45c0.81-2.18,1.22-4.51,1.21-6.83l0.13-0.08c0.27,0.43,0.61,0.81,1.01,1.12
		c0.48,0.4,1.04,0.71,1.63,0.9c1.05,0.34,2.19,0.35,3.22-0.04c1.92-0.72,3.17-2.55,4.95-3.56
		C335.48,311.57,335.63,311.5,335.78,311.52z"/>
	<linearGradient id="SVGID_70_" gradientUnits="userSpaceOnUse" x1="326.2247" y1="230.7247" x2="348.7313" y2="230.7247">
		<stop  offset="0" style="stop-color:#F9AE7D"/>
		<stop  offset="1" style="stop-color:#FBE3D1"/>
	</linearGradient>
	<path class="st70" d="M341.67,227.59c-3.06-1.24-5.43-3.8-8.15-5.73c-0.24,1.56,0.4,3.12,0.78,4.65c1.02,4.01,0.43,8.41,2.07,12.21
		l0.25-0.03l0.12,0.03c-0.55,2.29-1.07,4.59-1.39,6.92c-0.24,1.72-0.37,3.46-0.86,5.12c-0.49,1.67-1.36,3.29-2.79,4.28
		c-0.34,0.24-0.75,0.45-1.18,0.42c-1.01-0.08-1.42-1.32-1.53-2.32c-0.7-6.19,0.74-12.45,0.07-18.63c-0.25-2.26-0.87-4.65-2.59-6.15
		l-0.23-0.31c0.08-0.06,0.15-0.11,0.23-0.17c0.43-0.32,0.88-0.66,1.18-1.11c0.28-0.39,0.44-0.88,0.37-1.34h0.08
		c0.65-0.31,1.1-0.95,1.32-1.63c0.24-0.69,0.28-1.42,0.27-2.14c-0.01-1.78-0.26-3.56-0.16-5.33c0.02-0.24,0.04-0.49,0.15-0.71
		c0.24-0.42,0.79-0.57,1.28-0.54c0.49,0.04,0.95,0.2,1.45,0.2c1.27,0.03,2.33-0.96,3.03-2.02c0.71-1.06,1.25-2.27,2.21-3.1
		c1.2-1.03,2.86-1.3,4.38-1.76c1.35-0.41,2.79-1.16,3.35-2.42c1.3,0.85,2.18,2.24,2.69,3.72c0.5,1.49,0.63,3.07,0.67,4.63
		c0.05,1.93-0.05,3.87-0.24,5.8c-0.13,1.44-0.32,2.87-0.73,4.25c-0.32,1.09-0.88,2.21-1.71,2.94l-0.4,0.31l-0.38,0.21
		c-0.23,0.1-0.47,0.19-0.72,0.24c-0.71,0.13-1.47-0.01-2.16-0.24C342.13,227.77,341.89,227.68,341.67,227.59z"/>
	<linearGradient id="SVGID_71_" gradientUnits="userSpaceOnUse" x1="339.0828" y1="237.934" x2="347.2902" y2="237.934">
		<stop  offset="0" style="stop-color:#F9AE7D"/>
		<stop  offset="1" style="stop-color:#FBE3D1"/>
	</linearGradient>
	<path class="st71" d="M345.44,230.92c0.12,0.42,0.31,0.83,0.52,1.21c0.43,0.74,1.02,1.42,1.23,2.25c0.4,1.51-0.52,3.01-1.41,4.29
		c-2.19,3.2-4.39,6.41-6.59,9.61c0.49-3.47,0.67-6.98-0.11-10.27c0.76-0.73,1.43-1.59,1.95-2.53c0.05-0.1,0.1-0.18,0.1-0.29
		c0-0.11-0.07-0.22-0.12-0.31c-0.71-1.19-0.73-3.72-0.67-5.1c0.44-0.73,0.88-1.47,1.32-2.2c0.23,0.1,0.47,0.18,0.71,0.26
		c0.7,0.23,1.45,0.37,2.16,0.24c0.26-0.05,0.5-0.13,0.72-0.24C345.06,228.86,345.13,229.93,345.44,230.92z"/>
	<linearGradient id="SVGID_72_" gradientUnits="userSpaceOnUse" x1="323.9373" y1="212.8685" x2="345.9151" y2="212.8685">
		<stop  offset="0" style="stop-color:#223876"/>
		<stop  offset="1" style="stop-color:#00646A"/>
	</linearGradient>
	<path class="st72" d="M345.48,205.66c-0.03,0.11-0.07,0.22-0.11,0.32c-0.55,1.26-1.99,2.01-3.35,2.42
		c-1.53,0.47-3.18,0.73-4.38,1.76c-0.96,0.83-1.5,2.04-2.21,3.1c-0.71,1.06-1.76,2.05-3.03,2.02c-0.5,0-0.96-0.16-1.45-0.2
		c-0.49-0.03-1.04,0.12-1.28,0.54c-0.11,0.22-0.13,0.47-0.15,0.71c-0.1,1.77,0.15,3.55,0.16,5.33c0.01,0.71-0.03,1.45-0.27,2.14
		c-0.23,0.68-0.68,1.32-1.32,1.63c0.11-1.03-0.33-2.05-0.93-2.89c-0.6-0.85-1.35-1.57-2-2.38c-0.37-0.48-0.71-0.99-0.92-1.55
		c-0.33-0.88-0.33-1.8-0.21-2.74c0.13-1.04,0.42-2.09,0.58-3.12c0.47-2.92-0.01-6.13,1.56-8.63c0.63-1,1.56-1.8,2.64-2.27
		c0.15-0.07,0.3-0.12,0.45-0.17v-0.01c0.03-0.01,0.06-0.02,0.09-0.03c1.9-0.64,4.01-0.41,6.02-0.66c2.3-0.29,4.69-1.19,6.83-0.32
		c1.76,0.71,2.87,2.48,3.63,4.22c0.14,0.31,0.15,0.82-0.19,0.82L345.48,205.66z"/>
	<linearGradient id="SVGID_73_" gradientUnits="userSpaceOnUse" x1="325.548" y1="299.7112" x2="346.8319" y2="299.7112">
		<stop  offset="0" style="stop-color:#F9AE7D"/>
		<stop  offset="1" style="stop-color:#FBE3D1"/>
	</linearGradient>
	<path class="st73" d="M337.22,285.88c3.21-1.04,6.41-2.24,9.61-1.46c-8.73,8.57-12.16,21.18-19.65,30.83
		c-0.59-0.19-1.15-0.5-1.63-0.9l0.03-0.04c2.81-4.56,4.9-9.56,6.16-14.76c1.16-4.82,1.84-10.22,5.53-13.54L337.22,285.88z"/>
	<linearGradient id="SVGID_74_" gradientUnits="userSpaceOnUse" x1="333.4645" y1="230.2897" x2="341.6658" y2="230.2897">
		<stop  offset="0" style="stop-color:#F48974"/>
		<stop  offset="1" style="stop-color:#F9AE7D"/>
	</linearGradient>
	<path class="st74" d="M341.67,227.59c-0.44,0.73-0.88,1.47-1.32,2.2c-0.95,1.59-1.91,3.19-2.61,4.91c-0.04,0.1-0.08,0.18-0.11,0.28
		c-0.47,1.19-0.81,2.44-1.01,3.72l-0.25,0.03c-1.64-3.8-1.05-8.2-2.07-12.21c-0.38-1.53-1.02-3.09-0.78-4.65
		C336.23,223.78,338.61,226.35,341.67,227.59z"/>
	<linearGradient id="SVGID_75_" gradientUnits="userSpaceOnUse" x1="337.7388" y1="233.9022" x2="341.1416" y2="233.9022">
		<stop  offset="0" style="stop-color:#F9AE7D"/>
		<stop  offset="1" style="stop-color:#FBE3D1"/>
	</linearGradient>
	<path class="st75" d="M341.14,235.2c0,0.1-0.06,0.19-0.1,0.29c-0.52,0.93-1.19,1.79-1.95,2.53c-0.26-1.11-0.62-2.18-1.12-3.22
		l-0.22-0.1c0.71-1.72,1.66-3.32,2.61-4.91c-0.07,1.38-0.05,3.91,0.67,5.1C341.07,234.98,341.14,235.09,341.14,235.2z"/>
	<linearGradient id="SVGID_76_" gradientUnits="userSpaceOnUse" x1="303.0503" y1="250.9223" x2="339.6134" y2="250.9223">
		<stop  offset="0" style="stop-color:#F27037"/>
		<stop  offset="1" style="stop-color:#EE4252"/>
	</linearGradient>
	<path class="st76" d="M339.2,248.29c-0.2,1.48-0.46,2.94-0.73,4.38l-0.84,4.63c-0.17,0.86-0.32,1.75-0.7,2.54
		c-1.81,3.69-7.42,3.79-9.77,7.16c-0.73,1.04-1.05,2.3-1.61,3.44c-0.09,0.18-0.18,0.36-0.28,0.55c-0.61,1.07-1.43,2.03-2.4,2.8
		c-2.26-0.29-4.57-0.35-6.83-0.51c-4.39-0.31-8.76-1.08-13-2.31c1.89-2.3,4.93-3.58,7.9-4.19c3.46-0.74,7.06-0.79,10.47-1.8
		c0.56-0.17,1.14-0.37,1.55-0.79c0.58-0.59,0.7-1.5,0.72-2.34c0.04-3.06-1.03-6.13-2.98-8.49c-0.84-1.03-1.87-1.99-2.3-3.21
		c0.2-0.11,0.4-0.25,0.59-0.38c2.65-1.87,4.31-4.85,5.34-7.91c1.08-3.23,1.53-6.75,1.02-10.11c-0.13-0.89-0.34-1.78-0.63-2.64
		c0.13-0.03,0.28-0.11,0.38-0.19c0.2-0.15,0.4-0.3,0.59-0.45c0.18-0.13,0.35-0.27,0.53-0.4l0.22,0.3c1.73,1.5,2.35,3.89,2.59,6.15
		c0.68,6.19-0.76,12.45-0.07,18.64c0.12,0.99,0.53,2.23,1.54,2.31c0.42,0.02,0.84-0.18,1.17-0.42c1.43-0.98,2.31-2.6,2.79-4.28
		c0.49-1.65,0.63-3.4,0.86-5.12c0.32-2.32,0.84-4.63,1.4-6.92l-0.12-0.03c0.2-1.27,0.54-2.53,1.01-3.71
		c0.03-0.1,0.08-0.18,0.11-0.28l0.22,0.1c0.5,1.04,0.87,2.11,1.13,3.22C339.86,241.3,339.68,244.81,339.2,248.29z"/>
	<linearGradient id="SVGID_77_" gradientUnits="userSpaceOnUse" x1="321.8918" y1="322.9015" x2="332.3916" y2="322.9015">
		<stop  offset="0" style="stop-color:#FFFFFF"/>
		<stop  offset="1" style="stop-color:#96D7E3"/>
	</linearGradient>
	<path class="st77" d="M332.39,325.5l-0.01,0.17c-1.24-0.06-2.48-0.13-3.72-0.21c-2-0.13-4.05-0.3-5.85-1.17
		c-0.41-0.2-0.86-0.51-0.92-0.96c-0.04-0.32,0.12-0.62,0.28-0.91c0.39-0.73,0.73-1.5,1.02-2.28c0.64-0.03,1.29,0.16,1.87,0.45
		c1.33,0.67,2.36,1.79,3.47,2.8C329.64,324.39,330.9,325.33,332.39,325.5z"/>
	<linearGradient id="SVGID_78_" gradientUnits="userSpaceOnUse" x1="291.0629" y1="296.2102" x2="332.3154" y2="296.2102">
		<stop  offset="0" style="stop-color:#F9AE7D"/>
		<stop  offset="1" style="stop-color:#FBE3D1"/>
	</linearGradient>
	<path class="st78" d="M322.88,273.79c2.35,0.3,4.63,0.86,6.67,2.07c1.01,0.6,1.97,1.4,2.44,2.49c0.46,1.09,0.37,2.33,0.1,3.47
		c-0.44,1.84-1.32,3.53-2.3,5.15c-0.15,0.24-0.31,0.49-0.46,0.72c-5.77,9.12-13.65,16.89-18.47,26.55c-0.61,1.24-1.19,2.53-1.37,3.9
		c-0.53-0.07-1.13,0.07-1.65,0.24c-3.32,1.11-6.42,3.22-9.91,3.17l-0.07-0.02c0.3-0.92,0.61-1.85,0.92-2.77
		c0.69-2.08,1.37-4.16,2.06-6.23c2.01-6.09,4.05-12.24,7.36-17.74c1-1.66,2.12-3.25,3.36-4.72c0.01-0.01,0.01-0.01,0.01-0.01
		c1.4-1.65,2.96-3.15,4.73-4.39c1.19-0.85,2.6-1.61,4.03-1.46c-1.84-2.19-4.88-3.12-7.76-3.2c-3-0.08-5.96,0.63-8.94,1.01
		c-4.07,0.51-8.22,0.44-12.26-0.25l-0.31-0.16c1.73-3.28,4.06-6.23,6.86-8.64c1.73-0.16,3.4-0.82,4.76-1.9l0.06-0.2
		c0.1,0.03,0.21,0.07,0.31,0.09c4.23,1.23,8.6,2,12.99,2.32C318.3,273.44,320.62,273.49,322.88,273.79z"/>
	<linearGradient id="SVGID_79_" gradientUnits="userSpaceOnUse" x1="311.17" y1="207.3767" x2="329.332" y2="207.3767">
		<stop  offset="0" style="stop-color:#223876"/>
		<stop  offset="1" style="stop-color:#00646A"/>
	</linearGradient>
	<path class="st79" d="M329.33,201.65c-0.03,0.01-0.06,0.02-0.09,0.03v0.01c-0.15,0.05-0.3,0.1-0.45,0.17
		c-1.08,0.47-2.01,1.27-2.64,2.27c-1.57,2.5-1.1,5.71-1.56,8.63c-0.16,1.03-0.45,2.08-0.58,3.12l-0.23,0.01
		c-0.14,0.84-0.46,1.76-1.25,2.09c-0.54,0.23-1.16,0.09-1.74,0.04c-0.92-0.07-1.82,0.1-2.74,0.13c-0.92,0.03-1.89-0.1-2.59-0.69
		c-0.46-0.37-0.76-0.9-0.97-1.45c-1.01-2.62-0.12-5.77-1.46-8.24c-0.36-0.67-0.87-1.24-1.23-1.92c-0.77-1.44-0.78-3.2-0.33-4.78
		c0.34-1.17,0.95-2.33,1.96-3.01c1.82-1.22,4.24-0.63,6.42-0.88c1.66-0.18,3.36-0.89,4.95-0.39c1.2,0.37,2.1,1.35,2.93,2.3
		c0.67,0.75,1.35,1.55,1.59,2.54L329.33,201.65z"/>
	<linearGradient id="SVGID_80_" gradientUnits="userSpaceOnUse" x1="301.5194" y1="245.4678" x2="325.5674" y2="245.4678">
		<stop  offset="0" style="stop-color:#F9AE7D"/>
		<stop  offset="1" style="stop-color:#FBE3D1"/>
	</linearGradient>
	<path class="st80" d="M324.34,241.85c-1.03,3.06-2.69,6.05-5.34,7.91c-0.19,0.13-0.39,0.27-0.59,0.38
		c-0.04-0.17-0.09-0.34-0.13-0.51c-0.3-1.62,0.53-3.61-0.63-4.78c-2.69,1.68-5.26,3.58-7.67,5.64c-3.1,2.65-5.93,5.6-8.46,8.81
		c0.17-0.23,0.34-0.48,0.48-0.73c0.31-0.49,0.59-0.99,0.85-1.5c0.27-0.51,0.5-1.04,0.74-1.58c0.23-0.53,0.46-1.06,0.67-1.61
		c0.11-0.27,0.21-0.54,0.32-0.8c0.95-2.39,1.9-4.78,2.99-7.11v-0.01l0.07,0.04c3.26-4,6.84-7.74,10.67-11.21
		c1.98-1.78,4.45-3.59,7.04-3.06C325.87,235.1,325.42,238.62,324.34,241.85z"/>
	<linearGradient id="SVGID_81_" gradientUnits="userSpaceOnUse" x1="304.1116" y1="333.5834" x2="323.966" y2="333.5834">
		<stop  offset="0" style="stop-color:#FFFFFF"/>
		<stop  offset="1" style="stop-color:#96D7E3"/>
	</linearGradient>
	<path class="st81" d="M322.02,331.31c0.89,0.34,1.96,0.87,1.94,1.82c-0.01,0.71-0.66,1.22-1.28,1.54
		c-2.14,1.14-4.63,1.38-7.04,1.32c-2.51-0.07-5-0.43-7.49-0.79c-1.34-0.2-2.7-0.39-4.04-0.59l0.08-0.54
		c3.36-1.39,7.1-1.9,10.72-1.44c1.3,0.16,2.6,0.45,3.9,0.28c1.15-0.14,2.32-0.73,2.86-1.73
		C321.78,331.21,321.91,331.26,322.02,331.31z"/>
	<linearGradient id="SVGID_82_" gradientUnits="userSpaceOnUse" x1="285.447" y1="261.5771" x2="323.6909" y2="261.5771">
		<stop  offset="0" style="stop-color:#B12724"/>
		<stop  offset="1" style="stop-color:#EE4252"/>
	</linearGradient>
	<path class="st82" d="M300.65,260.4c0.05-0.06,0.09-0.1,0.12-0.15c0.17-0.18,0.32-0.37,0.47-0.57c0.1-0.12,0.19-0.26,0.28-0.39
		c2.53-3.2,5.37-6.16,8.45-8.81c2.53,1.53,5.88,1.19,8.44-0.34c0.43,1.22,1.46,2.18,2.3,3.2c1.95,2.36,3.03,5.43,2.98,8.5
		c-0.01,0.83-0.13,1.73-0.71,2.34c-0.41,0.42-0.99,0.62-1.55,0.79c-3.4,1-7.01,1.06-10.48,1.79c-2.96,0.62-6,1.9-7.89,4.19
		c-0.1-0.02-0.21-0.06-0.31-0.09l-0.06,0.2c-1.35,1.08-3.03,1.73-4.76,1.9c-0.57,0.06-1.15,0.07-1.73,0.01
		c-1.28-0.12-2.51-0.51-3.76-0.8c-1.98-0.44-4.04-0.59-6.07-0.45c-0.26,0.02-0.56,0.02-0.75-0.14c0-0.01,0-0.01,0-0.01
		c-0.03-0.02-0.06-0.05-0.09-0.09c-0.14-0.24-0.04-0.54,0.1-0.79c1.24-2.3,3.91-3.36,6.37-4.25c2.27-0.84,4.72-1.84,6.01-3.83
		C298.99,262.04,299.89,261.27,300.65,260.4z"/>
	<linearGradient id="SVGID_83_" gradientUnits="userSpaceOnUse" x1="293.6078" y1="326.3636" x2="321.6687" y2="326.3636">
		<stop  offset="0" style="stop-color:#223876"/>
		<stop  offset="0.0447" style="stop-color:#1A4176"/>
		<stop  offset="1" style="stop-color:#00646A"/>
	</linearGradient>
	<path class="st83" d="M309.5,318.14c0.32,0.05,0.63,0.17,0.87,0.42c0.96,0.98-0.1,2.56-0.17,3.94c-0.1,1.87,1.69,3.21,3.27,4.2
		c2.65,1.65,5.31,3.31,8.21,4.47c-0.54,1-1.71,1.59-2.86,1.73c-1.3,0.17-2.6-0.11-3.9-0.28c-3.62-0.46-7.36,0.05-10.72,1.44
		l-0.08,0.54c-1.89-0.27-3.77-0.54-5.66-0.82c-0.42-0.29-0.65-0.82-0.89-1.31c-0.5-1.05-1.14-2.02-1.92-2.89
		c-0.52-0.58-1.16-1.14-1.94-1.16l-0.1-0.02c0.36-1.4,0.48-2.9,0.72-4.34c0.39-2.32,1.47-4.86,3.72-5.57l0.73,0.25
		c-0.3,0.92-0.61,1.85-0.92,2.77l0.07,0.02c3.49,0.05,6.6-2.07,9.91-3.17C308.36,318.2,308.96,318.07,309.5,318.14z"/>
	<linearGradient id="SVGID_84_" gradientUnits="userSpaceOnUse" x1="287.7554" y1="287.5781" x2="320.3342" y2="287.5781">
		<stop  offset="0" style="stop-color:#F48974"/>
		<stop  offset="1" style="stop-color:#F9AE7D"/>
	</linearGradient>
	<path class="st84" d="M320.33,284.2c-1.43-0.15-2.84,0.61-4.03,1.46c-1.76,1.25-3.33,2.75-4.73,4.39c0,0,0,0-0.01,0.01
		c-2.82,1.49-5.95,2.34-9.06,3.08c-3.33,0.77-6.8,1.42-10.13,0.71c-1.6-0.34-3.12-0.99-4.61-1.65c0.06-0.22,0.09-0.45,0.11-0.68
		c0.46-3.46,1.55-6.83,3.19-9.92l0.31,0.16c4.04,0.69,8.19,0.76,12.26,0.25c2.98-0.38,5.94-1.09,8.94-1.01
		C315.45,281.09,318.49,282.01,320.33,284.2z"/>
	<linearGradient id="SVGID_85_" gradientUnits="userSpaceOnUse" x1="309.9734" y1="248.1578" x2="318.4089" y2="248.1578">
		<stop  offset="0" style="stop-color:#F48974"/>
		<stop  offset="1" style="stop-color:#F9AE7D"/>
	</linearGradient>
	<path class="st85" d="M318.28,249.62c0.04,0.18,0.09,0.35,0.13,0.51c-2.55,1.53-5.91,1.88-8.44,0.34c2.41-2.07,4.98-3.97,7.67-5.64
		C318.8,246.02,317.97,248,318.28,249.62z"/>
	<linearGradient id="SVGID_86_" gradientUnits="userSpaceOnUse" x1="292.1328" y1="244.0678" x2="317.1957" y2="244.0678">
		<stop  offset="0" style="stop-color:#F9AE7D"/>
		<stop  offset="1" style="stop-color:#FBE3D1"/>
	</linearGradient>
	<path class="st86" d="M317.05,228.76v0.01c-0.02,0.09-0.04,0.19-0.07,0.27c-0.15,0.59-0.34,1.17-0.55,1.73c0,0,0,0-0.01,0
		c-1.31,3.42-3.79,6.32-5.78,9.45c-1.16,1.83-2.17,3.75-3.07,5.73v0.01c-1.1,2.32-2.04,4.72-2.99,7.11
		c-0.11,0.27-0.21,0.54-0.32,0.8c-0.21,0.54-0.44,1.07-0.67,1.61c-0.23,0.54-0.47,1.06-0.74,1.58c-0.27,0.51-0.55,1.02-0.85,1.5
		c-0.15,0.25-0.31,0.49-0.48,0.73c-0.25,0.31-0.51,0.64-0.74,0.96c-0.04,0.04-0.08,0.09-0.13,0.16c-0.76,0.87-1.65,1.63-2.66,2.21
		c-0.87,0.51-1.82,0.85-2.82,0.99c-0.82,0.1-1.7,0.07-2.39-0.39c-0.27-0.18-0.49-0.4-0.65-0.67c1.01-3.69,2.64-7.23,4.76-10.4
		c3.93-5.82,9.65-10.52,12.31-17.02c0.12-0.32,0.23-0.68,0.3-1.03l-0.07-0.01c-0.16-0.11-0.3-0.28-0.46-0.44
		c-1.06-1.2-1.93-3.51-2.03-4.97l3.74,0.03l3.44,0.03c0.5-0.65,0.92-1.36,1.22-2.12c0.27-0.69-0.21-2.08,0.56-2.16
		c0.34,0.22,0.6,0.5,0.79,0.84C317.28,226.27,317.29,227.59,317.05,228.76z"/>
	<linearGradient id="SVGID_87_" gradientUnits="userSpaceOnUse" x1="307.378" y1="226.4284" x2="315.351" y2="226.4284">
		<stop  offset="0" style="stop-color:#F48974"/>
		<stop  offset="1" style="stop-color:#F9AE7D"/>
	</linearGradient>
	<path class="st87" d="M315.35,226.63c-0.3,0.76-0.71,1.47-1.22,2.12l-3.44-0.03c-1.04-0.43-1.98-1.11-2.71-1.97
		c-0.26-0.31-0.51-0.66-0.59-1.07c-0.04-0.23-0.02-0.49,0.08-0.72c0.07-0.15,0.17-0.27,0.3-0.37c0.22-0.15,0.49-0.18,0.76-0.21
		c0.49-0.05,0.98-0.1,1.46-0.16c1.12-0.12,2.3-0.23,3.37,0.13C314.39,224.68,315.29,225.57,315.35,226.63z"/>
	<linearGradient id="SVGID_88_" gradientUnits="userSpaceOnUse" x1="291.5559" y1="248.1089" x2="309.5064" y2="248.1089">
		<stop  offset="0" style="stop-color:#F48974"/>
		<stop  offset="1" style="stop-color:#F9AE7D"/>
	</linearGradient>
	<path class="st88" d="M309.45,234.09l0.06,0.01c-0.06,0.35-0.18,0.71-0.3,1.03c-2.65,6.51-8.37,11.2-12.31,17.02
		c-2.14,3.17-3.76,6.71-4.77,10.41c-0.66-0.97-0.66-2.41-0.46-3.63c0.86-5.19,3.62-9.87,6.93-13.96c3.21-3.98,6.96-7.5,10.38-11.3
		C309.13,233.82,309.29,233.97,309.45,234.09z"/>
	<linearGradient id="SVGID_89_" gradientUnits="userSpaceOnUse" x1="292.2052" y1="331.1001" x2="298.4498" y2="331.1001">
		<stop  offset="0" style="stop-color:#FFFFFF"/>
		<stop  offset="1" style="stop-color:#96D7E3"/>
	</linearGradient>
	<path class="st89" d="M298.45,333.79c-1.16-0.17-2.32-0.33-3.48-0.51c-0.87-0.12-1.79-0.29-2.41-0.91c-0.2-0.2-0.37-0.48-0.35-0.76
		s0.2-0.53,0.36-0.77c0.51-0.74,0.82-1.56,1.04-2.43l0.1,0.02c0.78,0.02,1.42,0.58,1.94,1.16c0.77,0.87,1.42,1.84,1.92,2.89
		C297.8,332.97,298.03,333.5,298.45,333.79z"/>
	<linearGradient id="SVGID_90_" gradientUnits="userSpaceOnUse" x1="281.8214" y1="282.5522" x2="297.9256" y2="282.5522">
		<stop  offset="0" style="stop-color:#00A672"/>
		<stop  offset="1" style="stop-color:#00ABA8"/>
	</linearGradient>
	<path class="st90" d="M287.76,292.2c-0.05,0.26-0.12,0.51-0.27,0.72c-0.26,0.42-0.77,0.71-1.23,0.54c-0.35-0.12-0.56-0.47-0.73-0.8
		c-0.68-1.3-1.1-2.73-1.24-4.18c-0.52,0.27-1.2,0.01-1.58-0.45c-0.37-0.47-0.51-1.07-0.61-1.65c-0.89-5.14,0.42-10.61,3.51-14.8
		c0.19,0.16,0.5,0.16,0.75,0.14c2.03-0.14,4.09,0.01,6.07,0.45c1.26,0.29,2.49,0.68,3.76,0.8c0.58,0.06,1.16,0.05,1.73-0.01
		c-2.8,2.4-5.14,5.36-6.86,8.64c-1.64,3.09-2.74,6.46-3.19,9.92C287.84,291.75,287.81,291.98,287.76,292.2z"/>
	<linearGradient id="SVGID_91_" gradientUnits="userSpaceOnUse" x1="260.8765" y1="227.2492" x2="293.3886" y2="227.2492">
		<stop  offset="0" style="stop-color:#223876"/>
		<stop  offset="0.0447" style="stop-color:#1A4176"/>
		<stop  offset="1" style="stop-color:#00646A"/>
	</linearGradient>
	<path class="st91" d="M278.88,228.48c0.49-0.61,0.59-1.53,0.51-2.32c-0.05-0.41-0.12-0.81-0.3-1.18c-0.17-0.36-0.43-0.69-0.74-0.92
		l-17.21-0.48c1.39-9.24,8.02-16.23,15.98-16.23c0.45,0,0.89,0.02,1.32,0.08c8.37,0.82,14.95,9.38,14.95,19.82
		c0,10.45-6.58,19.01-14.95,19.83c-0.44,0.06-0.88,0.08-1.32,0.08c-8.68,0-15.77-8.32-16.24-18.8L278.88,228.48z"/>
	<linearGradient id="SVGID_92_" gradientUnits="userSpaceOnUse" x1="248.3852" y1="225.8598" x2="279.4183" y2="225.8598">
		<stop  offset="0" style="stop-color:#535656"/>
		<stop  offset="1" style="stop-color:#6F7877"/>
	</linearGradient>
	<path class="st92" d="M279.39,226.16c0.09,0.79-0.02,1.71-0.51,2.32l-18.01-0.13l-12.5-0.1v-0.31c0.48,0,1-0.27,1.26-0.69
		c0.44-0.71,0.34-1.6,0.16-2.41c-0.15-0.61-0.38-1.27-0.92-1.59c-0.01-0.01-0.02-0.02-0.04-0.02l12.3,0.34l17.21,0.48
		c0.31,0.24,0.57,0.56,0.74,0.92C279.27,225.35,279.34,225.75,279.39,226.16z"/>
	<linearGradient id="SVGID_93_" gradientUnits="userSpaceOnUse" x1="380.7591" y1="230.2434" x2="384" y2="230.2434">
		<stop  offset="0" style="stop-color:#535656"/>
		<stop  offset="1" style="stop-color:#6F7877"/>
	</linearGradient>
	<path class="st93" d="M383.54,232.39c-0.04,0.08-0.08,0.16-0.14,0.21c-0.1,0.09-0.24,0.1-0.36,0.1c-0.7,0.03-1.39,0.04-2.08,0.01
		c0.05-0.54,0.08-1.1,0.08-1.66c0-1.12-0.1-2.2-0.28-3.26l0.15-0.02h2.14c0.11,0,0.25,0,0.34,0.08c0.05,0.05,0.09,0.11,0.11,0.18
		C384.15,229.38,384.16,231.02,383.54,232.39z"/>
	<linearGradient id="SVGID_94_" gradientUnits="userSpaceOnUse" x1="345.1501" y1="229.1196" x2="364.3475" y2="229.1196">
		<stop  offset="0" style="stop-color:#535656"/>
		<stop  offset="1" style="stop-color:#6F7877"/>
	</linearGradient>
	<path class="st94" d="M364.34,229.59c0.04,0.39-0.02,0.79-0.2,1.14c-0.04,0.07-0.08,0.13-0.12,0.19h-18.57
		c-0.31-0.99-0.38-2.06-0.18-3.08c0.29-0.13,0.54-0.31,0.78-0.52h16.73c0.15,0,0.32,0.1,0.46,0.2
		C363.86,228.01,364.27,228.79,364.34,229.59z"/>
	<linearGradient id="SVGID_95_" gradientUnits="userSpaceOnUse" x1="295.938" y1="226.6318" x2="310.6928" y2="226.6318">
		<stop  offset="0" style="stop-color:#535656"/>
		<stop  offset="1" style="stop-color:#6F7877"/>
	</linearGradient>
	<path class="st95" d="M310.69,228.72l-3.74-0.03l-10.9-0.08c0.04-0.46,0.05-0.92,0.05-1.37c0-0.92-0.06-1.82-0.16-2.7l11.01,0.31
		l0.54,0.1c-0.1,0.23-0.13,0.49-0.09,0.72c0.08,0.4,0.32,0.75,0.58,1.07C308.71,227.6,309.65,228.29,310.69,228.72z"/>
	<linearGradient id="SVGID_96_" gradientUnits="userSpaceOnUse" x1="366.3284" y1="231.0449" x2="381.0356" y2="231.0449">
		<stop  offset="0" style="stop-color:#1A3868"/>
		<stop  offset="1" style="stop-color:#6F7877"/>
	</linearGradient>
	<path class="st96" d="M381.04,231.04c0,0.56-0.03,1.12-0.08,1.66c-0.72,8.47-7.01,14.86-14.63,14.86l0,0
		c6.97-0.68,12.46-7.82,12.46-16.52s-5.49-15.84-12.46-16.52l0,0c7.14,0,13.11,5.57,14.43,13.26
		C380.94,228.84,381.04,229.93,381.04,231.04z"/>
	<linearGradient id="SVGID_97_" gradientUnits="userSpaceOnUse" x1="278.4476" y1="227.2466" x2="296.1001" y2="227.2466">
		<stop  offset="0" style="stop-color:#1A3868"/>
		<stop  offset="1" style="stop-color:#6F7877"/>
	</linearGradient>
	<path class="st97" d="M295.94,224.54c0.1,0.88,0.16,1.78,0.16,2.7c0,0.46-0.01,0.92-0.05,1.37c-0.61,10.48-8.27,18.45-17.6,18.45
		l0,0c8.37-0.82,14.95-9.38,14.95-19.83c0-10.44-6.58-19-14.95-19.82l0,0C287.38,207.43,294.78,214.72,295.94,224.54z"/>
	<linearGradient id="SVGID_98_" gradientUnits="userSpaceOnUse" x1="247.2821" y1="225.5834" x2="249.9574" y2="225.5834">
		<stop  offset="0" style="stop-color:#1A3868"/>
		<stop  offset="1" style="stop-color:#6F7877"/>
	</linearGradient>
	<path class="st98" d="M249.81,224.85c0.18,0.81,0.28,1.71-0.16,2.41c-0.26,0.42-0.78,0.69-1.26,0.69c-0.32,0-0.62-0.12-0.82-0.38
		c-0.2-0.27-0.25-0.62-0.27-0.95c-0.08-1.14,0.11-2.31,0.53-3.37c0.02-0.01,0.05-0.02,0.07-0.02l0.94,0.02
		c0.02,0,0.03,0.01,0.04,0.02C249.42,223.58,249.65,224.24,249.81,224.85z"/>
</g>
</svg>
