<?xml version="1.0" encoding="utf-8"?>
<!-- Generator: Adobe Illustrator 24.0.2, SVG Export Plug-In . SVG Version: 6.00 Build 0)  -->
<svg version="1.1" id="Layer_1" xmlns="http://www.w3.org/2000/svg" xmlns:xlink="http://www.w3.org/1999/xlink" x="0px" y="0px"
	 viewBox="0 0 400 400" style="enable-background:new 0 0 400 400;" xml:space="preserve">
<style type="text/css">
	.st0{clip-path:url(#XMLID_3_);}
	.st1{fill:#F58825;}
	.st2{fill:#F05957;}
	.st3{fill:#F4BB9D;}
	.st4{fill:#FFFAF0;}
	.st5{fill:#D1383A;}
	.st6{fill:#E67E69;}
	.st7{fill:#F05A2A;}
	.st8{fill:#3C2A34;}
	.st9{opacity:0.5;fill:url(#SVGID_1_);}
	.st10{fill:#E93B28;}
	.st11{fill:#E9946F;}
	.st12{fill:#524F79;}
	.st13{fill:#526689;}
	.st14{fill:#E86F52;}
	.st15{fill:#6D5850;}
	.st16{opacity:0.5;fill:url(#SVGID_2_);}
	.st17{fill:#D9EBCC;}
	.st18{fill:#FFCC07;}
	.st19{fill:#FFFDF3;}
	.st20{font-family:'freeversionSketchBlock-Bold';}
	.st21{font-size:30.4073px;}
	.st22{font-size:31.7525px;}
</style>
<g>
	<g>
		<defs>
			<path id="XMLID_1_" d="M174.11,374.73c-3.75-0.28-7.5-0.7-11.25-1.11c-4.58-0.55-9.16-1.11-13.61-1.94
				c-2.08-0.28-4.17-0.56-6.11-0.97c-2.5-0.42-5-0.83-7.5-1.39c-2.36-0.42-4.86-0.97-7.22-1.53c-2.22-0.41-4.44-0.97-6.53-1.39
				c-2.22-0.56-4.44-1.11-6.66-1.66c-2.64-0.69-5.27-1.39-7.91-2.22c-12.5-3.47-23.88-7.5-33.74-11.8
				c-13.19-5.69-23.6-11.66-30.13-17.35l-2.64-2.64c-1.95-2.08-3.89-4.3-5.42-6.8c-17.77-24.02-23.88-62.89-18.19-107.6
				c0.42-3.33,0.83-6.66,1.53-10.13c0-0.97,0.28-2.08,0.42-3.05c1.25-7.91,3.05-15.97,5.14-24.16c0.28-1.39,0.69-2.78,1.11-4.3
				c0.56-2.08,1.11-4.03,1.67-6.11c1.53-5.14,3.06-10.14,4.72-15.27c1.67-4.72,3.33-9.44,5.14-14.16c1.39-3.61,2.78-7.08,4.3-10.69
				c0.14-0.28,0.28-0.69,0.42-1.11c2.22-5.14,4.58-10.27,7.08-15.41c1.11-2.64,2.36-5.28,3.89-7.91c0.83-1.81,1.67-3.61,2.64-5.41
				c1.94-3.61,3.89-7.08,5.83-10.69c0.42-0.56,0.69-1.25,1.11-1.94c3.33-5.83,6.94-11.8,10.69-17.63c2.08-3.19,4.16-6.39,6.38-9.58
				c4.72-6.8,10-12.63,15.69-17.22c0.14-0.14,0.14-0.14,0.28-0.28c2.22-1.8,4.44-3.33,6.8-4.86c18.05-11.52,39.85-14.16,62.75-11.25
				c19.99,2.5,40.82,9.16,60.81,17.77c24.02,10.27,46.93,23.33,66.09,35.54c2.78,1.81,5.55,3.61,8.33,5.41
				c5.83,3.89,11.25,7.64,16.24,11.11c7.08,5,13.05,9.44,17.49,12.91c6.25,4.72,9.72,7.5,9.72,7.5s1.39,1.25,3.61,3.75
				c17.22,18.46,85.8,104.68-12.36,208.53c-0.83,1.11-1.8,2.08-2.78,3.06c-10.41,10.69-22.63,19.3-35.96,25.96
				c-8.05,3.89-16.66,7.22-25.41,10c-19.3,5.83-40.12,8.61-60.95,9.16C197.71,376.26,185.91,375.84,174.11,374.73z"/>
		</defs>
		<use xlink:href="#XMLID_1_"  style="overflow:visible;fill:#FAD3D6;"/>
		<clipPath id="XMLID_3_">
			<use xlink:href="#XMLID_1_"  style="overflow:visible;"/>
		</clipPath>
		<g class="st0">
			<g>
				<path class="st1" d="M258,166.55c0,0,27.14-4.67,35.62,10.12C293.63,176.67,289.3,155.98,258,166.55z"/>
				<g>
					<path class="st2" d="M282.89,301.6c0,0-27.41,19.29-30.21,86.57h15.42L282.89,301.6z"/>
					<g>
						<path class="st3" d="M240.33,302.85c0.32,0.91-12.93,17.51-33.41,13.17l-0.93-5.65c0,0,18.34,4.52,31.72-9.31L240.33,302.85z"
							/>
						<path class="st3" d="M260.47,385l-13.96-91.8c0,0-26.95,8.78-30.79-13.23l-4.11,2.94c0,0,5.35,16,18.18,17.1
							c0,0-11.19,6.49-20.3-11.77l-4.89,5.22c0,0,7.51,14.28,24.86,9.6c0,0-17.36,3.66-25.27-5.84l-2.19,5.93
							c0,0,18.68,12.52,34.75,3.79l-5.55,79.74L260.47,385z"/>
					</g>
					<polygon class="st3" points="283.27,206.73 286.49,310.56 311.43,307.24 307.56,201.58 					"/>
					<path class="st4" d="M313.69,288.97l-28.79,3.65l-21.25,95.47l75.74-0.22C339.39,387.87,349.4,336.81,313.69,288.97z"/>
					<path class="st2" d="M310.53,289.36l-13.18,98.8h43.33C340.68,388.17,345.53,300.1,310.53,289.36z"/>
					<path class="st3" d="M280.41,313.95c0,0,19.14,3.17,30.13-24.59l-24.77-2.05L280.41,313.95z"/>
					<polygon class="st5" points="311.43,298.72 318.46,324.76 310.53,324.76 306.62,336.12 308.21,321.4 314.03,321.4 					"/>
					<polygon class="st5" points="277.79,306.5 268.68,327.09 273.86,327.09 273.86,333.32 276.15,324.28 273.22,324.28 					"/>
					<polygon class="st6" points="284.38,294.91 310.53,275.12 310.53,248.23 285.85,275.74 					"/>
					<path class="st7" d="M301.23,184.17c0,0,25.18-6.09,29.12,24.76c3.94,30.85-23.41,42.27-23.41,42.27L301.23,184.17z"/>
					<path class="st3" d="M255.3,190.03l-23,58.43l22.75-2.19l0.62,11.26c0,0,31.71,10.99,33.25-5.72c0,0-0.01,19.71-33.24,20.29
						l0.73,14.65c0,0,54.13,3.6,48.19-41.15c-5.95-44.76-4.51-50.51-4.51-50.51L255.3,190.03L255.3,190.03z"/>
					<path class="st8" d="M267.89,218.12c0,0-1.21,18.21-8.75,12.69c-2.75-2.02,0.38-14.9,0.38-14.9s0.42,11.03,1.91,11.73
						C264.18,228.96,267.89,218.12,267.89,218.12z"/>
					<path class="st6" d="M282.85,230.86c0.39,3.05-1.77,5.84-4.82,6.23c-3.05,0.39-5.84-1.77-6.23-4.82
						c-0.39-3.05,1.77-5.84,4.82-6.23C279.67,225.65,282.46,227.81,282.85,230.86z"/>
					<path class="st7" d="M308.21,196.85l-70.44-8.56c0,0,0.03-12.46,24.39-12.32l-12.71-6.95
						C249.45,169.01,298.1,148.53,308.21,196.85z"/>
					<path class="st7" d="M308.43,215.75l-2.94-25.41l-15.38-1.55C290.12,188.79,270.96,230.85,308.43,215.75z"/>
					<path class="st3" d="M321.38,222.95c0.52,4.06-2.35,7.77-6.41,8.29c-4.06,0.52-7.77-2.35-8.29-6.41
						c-0.52-4.06,2.35-7.77,6.41-8.29C317.15,216.02,320.86,218.89,321.38,222.95z"/>
					<path class="st7" d="M259.27,204.14l16.26,0.27c0,0-1.61-6.29-16.04-6.31L259.27,204.14z"/>
					<polygon class="st2" points="232.3,324.76 251.1,323.39 261.43,388.17 230.61,388.17 					"/>
					<polygon class="st5" points="228.32,319.21 252.75,319.21 255.2,326.25 230.61,327.77 					"/>
					<polygon class="st2" points="319.11,294.07 375.29,340.36 366.32,388.17 339.28,388.17 349.77,348.43 324.63,331.63 					"/>
					<polygon class="st5" points="349.77,348.43 321.91,328.99 353.41,345.68 340.86,386.68 340.68,381.16 					"/>
					<path class="st1" d="M306.62,187.08c0,0,19.73,8.16,19.66,27.18C326.28,214.26,332.95,186.37,306.62,187.08z"/>
					<path class="st1" d="M241.89,185.04c0,0,5.98-5.31,19.78-4.26C261.66,180.78,252.24,171.7,241.89,185.04z"/>
					<linearGradient id="SVGID_1_" gradientUnits="userSpaceOnUse" x1="247.7558" y1="232.7202" x2="239.2476" y2="239.3888">
						<stop  offset="0" style="stop-color:#F4BB9D"/>
						<stop  offset="1" style="stop-color:#E05626"/>
					</linearGradient>
					<polygon class="st9" points="245.34,215.33 232.3,248.47 255.05,246.28 					"/>
					<path class="st6" d="M318.18,222.15c0,0-6.55-3.6-8.34,7.91C309.84,230.07,314.15,222.07,318.18,222.15z"/>
					<path class="st7" d="M255.2,248.91c0,0,30.87,7.94,43.34-16.62c12.47-24.56-1.68-37.56-1.68-37.56l10.59-0.4
						c0,0,24.51,96.18-52.24,99.44V248.91z"/>
					<path class="st4" d="M252.36,255.11c0,0,24.17,3.76,32.82-5.93c0,0,2.39,27.47-31.83,23.94L252.36,255.11z"/>
					<path class="st10" d="M258,284.2c0,0,33.18,0.59,47.04-27.25c0,0-4.46,31.95-47.04,34.71V284.2z"/>
				</g>
			</g>
			<g>
				<path class="st3" d="M166.18,316.32c-0.41,0.87,10.96,18.81,31.78,16.72l1.53-5.52c0,0-18.73,2.5-30.52-12.7L166.18,316.32z"/>
				<polygon class="st11" points="115.92,296.25 171.45,367.68 156.4,380.87 124.37,338.56 				"/>
				<path class="st12" d="M116.89,296.84l26.13,34.26l-13.06,12.66C129.95,343.77,110.62,322.89,116.89,296.84z"/>
				<path class="st13" d="M116.38,295.64l25.54,59.83h-18.96l10.95,29.59l-66.34,0.02c0,0-10.02-44.39,25.53-93.26L116.38,295.64z"
					/>
				<path class="st3" d="M116.38,295.64l7.99,18.72c0,0-24.33,10.56-33.16-19.87l1.89-5.91L116.38,295.64z"/>
				<polygon class="st3" points="118.88,214.91 116.09,304.84 93.1,291.83 97.84,210.44 				"/>
				<path class="st6" d="M117.39,276.69c0,0-11.21-7.43-13.3-17.24l-3.84,20.65l16.32,9.11L117.39,276.69z"/>
				<path class="st11" d="M156.4,380.87l-13.38-91.3c0,0,28.32,1.18,26.07-21.04l4.75,1.73c0,0-0.83,16.85-12.89,21.37
					c0,0,12.53,3.23,16.37-16.82l6.11,3.71c0,0-3.38,15.78-21.35,15.95c0,0,17.7-1.16,22.76-12.44l3.71,5.12
					c0,0-14.61,17.1-32.43,13.02l19.47,76.72L156.4,380.87z"/>
				<path class="st3" d="M139.01,385.09l22.08-79.03c0,0,25.84,11.65,32.04-9.81l3.77,3.37c0,0-7.05,15.33-19.93,15.02
					c0,0,10.42,7.66,21.46-9.51l4.29,5.72c0,0-9.02,13.38-25.75,6.85c0,0,16.86,5.52,25.75-3.07l1.53,6.13c0,0-19.93,10.42-34.95,0
					l-11.09,64.32H139.01z"/>
				<polygon class="st3" points="93.1,307.49 158.21,385.09 131.77,385.09 73.62,329.64 				"/>
				<path class="st13" d="M91.21,304.1l27.67,30.31l-18.37,27.57l-28.91-27.42C71.59,334.55,80.68,310.03,91.21,304.1z"/>
				<path class="st8" d="M133.63,184.04c0,0,36.05-2.98,17.44,43.95C151.06,227.99,119.4,197.27,133.63,184.04z"/>
				<path class="st3" d="M135.8,188.53l22.4,57.94l-11.97-2.2l1.79,9.61c0,0-18.04,7.72-22.76-6.02c0,0-2.34,24.61,25.75,18.28
					l2.39,12.48c0,0-48.72,14.14-52.9-24.74c-4.18-38.88-2.67-43.43-2.67-43.43l32.48-18.91L135.8,188.53z"/>
				<path class="st14" d="M131.35,254.85c0,0,3.75-8.87,5.08-8.61c1.33,0.26,2.39,6.11,2.39,6.11s0.8-7.71,2.92-6.11
					c2.12,1.6,3.41,8.63,3.41,8.63S136.93,257.64,131.35,254.85z"/>
				<path class="st14" d="M147.17,266.84c0,0,3.29,5.69-3.04,5.16c-6.33-0.53-8.33-5.82-8.33-5.82S141.52,267.84,147.17,266.84z"/>
				<path class="st8" d="M132.48,217.03c0,0,9.68,15.47,0.33,15.41c-3.41-0.02-8.41-12.3-8.41-12.3s6.8,8.69,8.41,8.4
					C135.8,227.99,132.48,217.03,132.48,217.03z"/>
				<path class="st6" d="M122.95,239.37c0,3.07-2.49,5.57-5.57,5.57c-3.08,0-5.57-2.49-5.57-5.57c0-3.07,2.49-5.57,5.57-5.57
					C120.46,233.8,122.95,236.29,122.95,239.37z"/>
				<path class="st8" d="M105.36,243.85l3.46,66.17l-45.51-13.78c0,0-19.87-142.34,75.7-111.93
					C139.01,184.32,105.36,209.33,105.36,243.85z"/>
				<path class="st12" d="M95.24,310.03l22.15,26.3C117.39,336.32,104.09,326.37,95.24,310.03z"/>
				<path class="st12" d="M78.39,336.32l25.7,22.23C104.09,358.55,91.21,355.98,78.39,336.32z"/>
				<path class="st3" d="M105.99,353.76"/>
				<polygon class="st11" points="117.99,337.04 108.82,357.41 131.77,385.09 102.52,358.08 				"/>
				<path class="st8" d="M135.8,188.53c0,0-8.41,32.25-31.71,52.53C104.09,241.06,81.46,184.04,135.8,188.53z"/>
				<path class="st3" d="M107.92,246.47c0,4.09-3.32,7.41-7.41,7.41c-4.09,0-7.41-3.32-7.41-7.41c0-4.09,3.32-7.41,7.41-7.41
					C104.6,239.06,107.92,242.38,107.92,246.47z"/>
				<path class="st8" d="M133.63,212.46c0,0-5.48-4.89-9.26,4.47L133.63,212.46z"/>
				<path class="st15" d="M106,183.43c0,0-19.18,5.34-32.38,45.15C73.62,228.57,77.54,190.46,106,183.43z"/>
				<linearGradient id="SVGID_2_" gradientUnits="userSpaceOnUse" x1="150.2681" y1="231.8763" x2="158.5464" y2="237.5483">
					<stop  offset="0" style="stop-color:#F4BB9D"/>
					<stop  offset="1" style="stop-color:#E05626"/>
				</linearGradient>
				<polygon class="st16" points="145.42,213.4 158.21,246.47 146.24,244.27 				"/>
				<path class="st6" d="M105.27,250.12c0,0,0.09-7.47-10.91-3.63C94.36,246.49,103.45,246.53,105.27,250.12z"/>
				<path class="st15" d="M143.02,188.53c0,0,11.39,11.8,8.8,27.41C151.81,215.94,160.81,196.1,143.02,188.53z"/>
				<path class="st8" d="M107.78,232.45l1.04,21.57C108.82,254.02,99.95,238.53,107.78,232.45z"/>
			</g>
			<g>
				<path class="st17" d="M190.78,231.85l30.81,18.26C221.59,250.11,212.35,238.3,190.78,231.85z"/>
				<path class="st17" d="M187.82,246.52l32.22,9.09C220.04,255.61,206.19,246.47,187.82,246.52z"/>
				<path class="st17" d="M215.54,234.7l-7.36,23.65C208.18,258.35,216.78,245.39,215.54,234.7z"/>
				<path class="st17" d="M204.56,231.21l-5.44,23.65C199.13,254.86,206.19,243.23,204.56,231.21z"/>
			</g>
		</g>
	</g>
	<g>
		<path class="st18" d="M209.36,95.24c0-34-16.88-56.91-94.77-51.33c-40.69,2.91-62,21.64-62,48.33c0,26.69,19.02,48.07,62,48.33
			c21.67,0.13,38.88-0.97,52.36-3.47c-0.74,11.11-4.42,22.14-13,31.71c0,0,13.8-2.3,28.69-25.75c2.37-3.72,3.97-7.83,4.98-12.13
			C203.3,123.66,209.36,112.04,209.36,95.24z"/>
		<g>
			<text transform="matrix(1 0 0 1 75.0122 99.4834)" class="st19 st20 st21">HELLO</text>
		</g>
	</g>
	<g>
		<path class="st13" d="M242.51,24.84c-42.56,2.91-64.86,21.64-64.86,48.33c0,15.8,6.97,29.74,21.98,38.53
			c0.79,6.19,2.62,12.11,5.92,17.3c14.89,23.45,28.69,25.75,28.69,25.75c-9.49-10.59-13-22.96-13.14-35.26
			c6.38,1.26,13.51,1.96,21.41,2.01c75.17,0.43,99.14-12.67,99.14-45.33C341.64,42.17,323.99,19.26,242.51,24.84z"/>
		<text transform="matrix(1 0 0 1 200.2446 84.0957)" class="st19 st20 st22">SELAM</text>
	</g>
</g>
</svg>
